<?xml version="1.0" encoding="utf-8" standalone="no"?>
<!DOCTYPE svg PUBLIC "-//W3C//DTD SVG 1.1//EN"
  "http://www.w3.org/Graphics/SVG/1.1/DTD/svg11.dtd">
<!-- Created with matplotlib (https://matplotlib.org/) -->
<svg height="720pt" version="1.1" viewBox="0 0 1440 720" width="1440pt" xmlns="http://www.w3.org/2000/svg" xmlns:xlink="http://www.w3.org/1999/xlink">
 <metadata>
  <rdf:RDF xmlns:cc="http://creativecommons.org/ns#" xmlns:dc="http://purl.org/dc/elements/1.1/" xmlns:rdf="http://www.w3.org/1999/02/22-rdf-syntax-ns#">
   <cc:Work>
    <dc:type rdf:resource="http://purl.org/dc/dcmitype/StillImage"/>
    <dc:date>2021-10-28T13:12:16.376248</dc:date>
    <dc:format>image/svg+xml</dc:format>
    <dc:creator>
     <cc:Agent>
      <dc:title>Matplotlib v3.3.2, https://matplotlib.org/</dc:title>
     </cc:Agent>
    </dc:creator>
   </cc:Work>
  </rdf:RDF>
 </metadata>
 <defs>
  <style type="text/css">*{stroke-linecap:butt;stroke-linejoin:round;}</style>
 </defs>
 <g id="figure_1">
  <g id="patch_1">
   <path d="M 0 720 
L 1440 720 
L 1440 0 
L 0 0 
z
" style="fill:#ffffff;"/>
  </g>
  <g id="axes_1">
   <g id="patch_2">
    <path d="M 90.69 648.06 
L 1420.56 648.06 
L 1420.56 22.551336 
L 90.69 22.551336 
z
" style="fill:#ffffff;"/>
   </g>
   <g id="matplotlib.axis_1">
    <g id="xtick_1">
     <g id="text_1">
      <!-- Q1 -->
      <g style="fill:#262626;" transform="translate(245.180391 673.097422)scale(0.165 -0.165)">
       <defs>
        <path d="M 39.40625 66.21875 
Q 28.65625 66.21875 22.328125 58.203125 
Q 16.015625 50.203125 16.015625 36.375 
Q 16.015625 22.609375 22.328125 14.59375 
Q 28.65625 6.59375 39.40625 6.59375 
Q 50.140625 6.59375 56.421875 14.59375 
Q 62.703125 22.609375 62.703125 36.375 
Q 62.703125 50.203125 56.421875 58.203125 
Q 50.140625 66.21875 39.40625 66.21875 
z
M 53.21875 1.3125 
L 66.21875 -12.890625 
L 54.296875 -12.890625 
L 43.5 -1.21875 
Q 41.890625 -1.3125 41.03125 -1.359375 
Q 40.1875 -1.421875 39.40625 -1.421875 
Q 24.03125 -1.421875 14.8125 8.859375 
Q 5.609375 19.140625 5.609375 36.375 
Q 5.609375 53.65625 14.8125 63.9375 
Q 24.03125 74.21875 39.40625 74.21875 
Q 54.734375 74.21875 63.90625 63.9375 
Q 73.09375 53.65625 73.09375 36.375 
Q 73.09375 23.6875 67.984375 14.640625 
Q 62.890625 5.609375 53.21875 1.3125 
z
" id="DejaVuSans-81"/>
        <path d="M 12.40625 8.296875 
L 28.515625 8.296875 
L 28.515625 63.921875 
L 10.984375 60.40625 
L 10.984375 69.390625 
L 28.421875 72.90625 
L 38.28125 72.90625 
L 38.28125 8.296875 
L 54.390625 8.296875 
L 54.390625 0 
L 12.40625 0 
z
" id="DejaVuSans-49"/>
       </defs>
       <use xlink:href="#DejaVuSans-81"/>
       <use x="78.710938" xlink:href="#DejaVuSans-49"/>
      </g>
     </g>
    </g>
    <g id="xtick_2">
     <g id="text_2">
      <!-- Q2 -->
      <g style="fill:#262626;" transform="translate(577.647891 673.097422)scale(0.165 -0.165)">
       <defs>
        <path d="M 19.1875 8.296875 
L 53.609375 8.296875 
L 53.609375 0 
L 7.328125 0 
L 7.328125 8.296875 
Q 12.9375 14.109375 22.625 23.890625 
Q 32.328125 33.6875 34.8125 36.53125 
Q 39.546875 41.84375 41.421875 45.53125 
Q 43.3125 49.21875 43.3125 52.78125 
Q 43.3125 58.59375 39.234375 62.25 
Q 35.15625 65.921875 28.609375 65.921875 
Q 23.96875 65.921875 18.8125 64.3125 
Q 13.671875 62.703125 7.8125 59.421875 
L 7.8125 69.390625 
Q 13.765625 71.78125 18.9375 73 
Q 24.125 74.21875 28.421875 74.21875 
Q 39.75 74.21875 46.484375 68.546875 
Q 53.21875 62.890625 53.21875 53.421875 
Q 53.21875 48.921875 51.53125 44.890625 
Q 49.859375 40.875 45.40625 35.40625 
Q 44.1875 33.984375 37.640625 27.21875 
Q 31.109375 20.453125 19.1875 8.296875 
z
" id="DejaVuSans-50"/>
       </defs>
       <use xlink:href="#DejaVuSans-81"/>
       <use x="78.710938" xlink:href="#DejaVuSans-50"/>
      </g>
     </g>
    </g>
    <g id="xtick_3">
     <g id="text_3">
      <!-- Q3 -->
      <g style="fill:#262626;" transform="translate(910.115391 673.097422)scale(0.165 -0.165)">
       <defs>
        <path d="M 40.578125 39.3125 
Q 47.65625 37.796875 51.625 33 
Q 55.609375 28.21875 55.609375 21.1875 
Q 55.609375 10.40625 48.1875 4.484375 
Q 40.765625 -1.421875 27.09375 -1.421875 
Q 22.515625 -1.421875 17.65625 -0.515625 
Q 12.796875 0.390625 7.625 2.203125 
L 7.625 11.71875 
Q 11.71875 9.328125 16.59375 8.109375 
Q 21.484375 6.890625 26.8125 6.890625 
Q 36.078125 6.890625 40.9375 10.546875 
Q 45.796875 14.203125 45.796875 21.1875 
Q 45.796875 27.640625 41.28125 31.265625 
Q 36.765625 34.90625 28.71875 34.90625 
L 20.21875 34.90625 
L 20.21875 43.015625 
L 29.109375 43.015625 
Q 36.375 43.015625 40.234375 45.921875 
Q 44.09375 48.828125 44.09375 54.296875 
Q 44.09375 59.90625 40.109375 62.90625 
Q 36.140625 65.921875 28.71875 65.921875 
Q 24.65625 65.921875 20.015625 65.03125 
Q 15.375 64.15625 9.8125 62.3125 
L 9.8125 71.09375 
Q 15.4375 72.65625 20.34375 73.4375 
Q 25.25 74.21875 29.59375 74.21875 
Q 40.828125 74.21875 47.359375 69.109375 
Q 53.90625 64.015625 53.90625 55.328125 
Q 53.90625 49.265625 50.4375 45.09375 
Q 46.96875 40.921875 40.578125 39.3125 
z
" id="DejaVuSans-51"/>
       </defs>
       <use xlink:href="#DejaVuSans-81"/>
       <use x="78.710938" xlink:href="#DejaVuSans-51"/>
      </g>
     </g>
    </g>
    <g id="xtick_4">
     <g id="text_4">
      <!-- Q4 -->
      <g style="fill:#262626;" transform="translate(1242.582891 673.097422)scale(0.165 -0.165)">
       <defs>
        <path d="M 37.796875 64.3125 
L 12.890625 25.390625 
L 37.796875 25.390625 
z
M 35.203125 72.90625 
L 47.609375 72.90625 
L 47.609375 25.390625 
L 58.015625 25.390625 
L 58.015625 17.1875 
L 47.609375 17.1875 
L 47.609375 0 
L 37.796875 0 
L 37.796875 17.1875 
L 4.890625 17.1875 
L 4.890625 26.703125 
z
" id="DejaVuSans-52"/>
       </defs>
       <use xlink:href="#DejaVuSans-81"/>
       <use x="78.710938" xlink:href="#DejaVuSans-52"/>
      </g>
     </g>
    </g>
    <g id="text_5">
     <!-- CPU request - Quartiles -->
     <g style="fill:#262626;" transform="translate(650.533125 694.206094)scale(0.18 -0.18)">
      <defs>
       <path d="M 64.40625 67.28125 
L 64.40625 56.890625 
Q 59.421875 61.53125 53.78125 63.8125 
Q 48.140625 66.109375 41.796875 66.109375 
Q 29.296875 66.109375 22.65625 58.46875 
Q 16.015625 50.828125 16.015625 36.375 
Q 16.015625 21.96875 22.65625 14.328125 
Q 29.296875 6.6875 41.796875 6.6875 
Q 48.140625 6.6875 53.78125 8.984375 
Q 59.421875 11.28125 64.40625 15.921875 
L 64.40625 5.609375 
Q 59.234375 2.09375 53.4375 0.328125 
Q 47.65625 -1.421875 41.21875 -1.421875 
Q 24.65625 -1.421875 15.125 8.703125 
Q 5.609375 18.84375 5.609375 36.375 
Q 5.609375 53.953125 15.125 64.078125 
Q 24.65625 74.21875 41.21875 74.21875 
Q 47.75 74.21875 53.53125 72.484375 
Q 59.328125 70.75 64.40625 67.28125 
z
" id="DejaVuSans-67"/>
       <path d="M 19.671875 64.796875 
L 19.671875 37.40625 
L 32.078125 37.40625 
Q 38.96875 37.40625 42.71875 40.96875 
Q 46.484375 44.53125 46.484375 51.125 
Q 46.484375 57.671875 42.71875 61.234375 
Q 38.96875 64.796875 32.078125 64.796875 
z
M 9.8125 72.90625 
L 32.078125 72.90625 
Q 44.34375 72.90625 50.609375 67.359375 
Q 56.890625 61.8125 56.890625 51.125 
Q 56.890625 40.328125 50.609375 34.8125 
Q 44.34375 29.296875 32.078125 29.296875 
L 19.671875 29.296875 
L 19.671875 0 
L 9.8125 0 
z
" id="DejaVuSans-80"/>
       <path d="M 8.6875 72.90625 
L 18.609375 72.90625 
L 18.609375 28.609375 
Q 18.609375 16.890625 22.84375 11.734375 
Q 27.09375 6.59375 36.625 6.59375 
Q 46.09375 6.59375 50.34375 11.734375 
Q 54.59375 16.890625 54.59375 28.609375 
L 54.59375 72.90625 
L 64.5 72.90625 
L 64.5 27.390625 
Q 64.5 13.140625 57.4375 5.859375 
Q 50.390625 -1.421875 36.625 -1.421875 
Q 22.796875 -1.421875 15.734375 5.859375 
Q 8.6875 13.140625 8.6875 27.390625 
z
" id="DejaVuSans-85"/>
       <path id="DejaVuSans-32"/>
       <path d="M 41.109375 46.296875 
Q 39.59375 47.171875 37.8125 47.578125 
Q 36.03125 48 33.890625 48 
Q 26.265625 48 22.1875 43.046875 
Q 18.109375 38.09375 18.109375 28.8125 
L 18.109375 0 
L 9.078125 0 
L 9.078125 54.6875 
L 18.109375 54.6875 
L 18.109375 46.1875 
Q 20.953125 51.171875 25.484375 53.578125 
Q 30.03125 56 36.53125 56 
Q 37.453125 56 38.578125 55.875 
Q 39.703125 55.765625 41.0625 55.515625 
z
" id="DejaVuSans-114"/>
       <path d="M 56.203125 29.59375 
L 56.203125 25.203125 
L 14.890625 25.203125 
Q 15.484375 15.921875 20.484375 11.0625 
Q 25.484375 6.203125 34.421875 6.203125 
Q 39.59375 6.203125 44.453125 7.46875 
Q 49.3125 8.734375 54.109375 11.28125 
L 54.109375 2.78125 
Q 49.265625 0.734375 44.1875 -0.34375 
Q 39.109375 -1.421875 33.890625 -1.421875 
Q 20.796875 -1.421875 13.15625 6.1875 
Q 5.515625 13.8125 5.515625 26.8125 
Q 5.515625 40.234375 12.765625 48.109375 
Q 20.015625 56 32.328125 56 
Q 43.359375 56 49.78125 48.890625 
Q 56.203125 41.796875 56.203125 29.59375 
z
M 47.21875 32.234375 
Q 47.125 39.59375 43.09375 43.984375 
Q 39.0625 48.390625 32.421875 48.390625 
Q 24.90625 48.390625 20.390625 44.140625 
Q 15.875 39.890625 15.1875 32.171875 
z
" id="DejaVuSans-101"/>
       <path d="M 14.796875 27.296875 
Q 14.796875 17.390625 18.875 11.75 
Q 22.953125 6.109375 30.078125 6.109375 
Q 37.203125 6.109375 41.296875 11.75 
Q 45.40625 17.390625 45.40625 27.296875 
Q 45.40625 37.203125 41.296875 42.84375 
Q 37.203125 48.484375 30.078125 48.484375 
Q 22.953125 48.484375 18.875 42.84375 
Q 14.796875 37.203125 14.796875 27.296875 
z
M 45.40625 8.203125 
Q 42.578125 3.328125 38.25 0.953125 
Q 33.9375 -1.421875 27.875 -1.421875 
Q 17.96875 -1.421875 11.734375 6.484375 
Q 5.515625 14.40625 5.515625 27.296875 
Q 5.515625 40.1875 11.734375 48.09375 
Q 17.96875 56 27.875 56 
Q 33.9375 56 38.25 53.625 
Q 42.578125 51.265625 45.40625 46.390625 
L 45.40625 54.6875 
L 54.390625 54.6875 
L 54.390625 -20.796875 
L 45.40625 -20.796875 
z
" id="DejaVuSans-113"/>
       <path d="M 8.5 21.578125 
L 8.5 54.6875 
L 17.484375 54.6875 
L 17.484375 21.921875 
Q 17.484375 14.15625 20.5 10.265625 
Q 23.53125 6.390625 29.59375 6.390625 
Q 36.859375 6.390625 41.078125 11.03125 
Q 45.3125 15.671875 45.3125 23.6875 
L 45.3125 54.6875 
L 54.296875 54.6875 
L 54.296875 0 
L 45.3125 0 
L 45.3125 8.40625 
Q 42.046875 3.421875 37.71875 1 
Q 33.40625 -1.421875 27.6875 -1.421875 
Q 18.265625 -1.421875 13.375 4.4375 
Q 8.5 10.296875 8.5 21.578125 
z
M 31.109375 56 
z
" id="DejaVuSans-117"/>
       <path d="M 44.28125 53.078125 
L 44.28125 44.578125 
Q 40.484375 46.53125 36.375 47.5 
Q 32.28125 48.484375 27.875 48.484375 
Q 21.1875 48.484375 17.84375 46.4375 
Q 14.5 44.390625 14.5 40.28125 
Q 14.5 37.15625 16.890625 35.375 
Q 19.28125 33.59375 26.515625 31.984375 
L 29.59375 31.296875 
Q 39.15625 29.25 43.1875 25.515625 
Q 47.21875 21.78125 47.21875 15.09375 
Q 47.21875 7.46875 41.1875 3.015625 
Q 35.15625 -1.421875 24.609375 -1.421875 
Q 20.21875 -1.421875 15.453125 -0.5625 
Q 10.6875 0.296875 5.421875 2 
L 5.421875 11.28125 
Q 10.40625 8.6875 15.234375 7.390625 
Q 20.0625 6.109375 24.8125 6.109375 
Q 31.15625 6.109375 34.5625 8.28125 
Q 37.984375 10.453125 37.984375 14.40625 
Q 37.984375 18.0625 35.515625 20.015625 
Q 33.0625 21.96875 24.703125 23.78125 
L 21.578125 24.515625 
Q 13.234375 26.265625 9.515625 29.90625 
Q 5.8125 33.546875 5.8125 39.890625 
Q 5.8125 47.609375 11.28125 51.796875 
Q 16.75 56 26.8125 56 
Q 31.78125 56 36.171875 55.265625 
Q 40.578125 54.546875 44.28125 53.078125 
z
" id="DejaVuSans-115"/>
       <path d="M 18.3125 70.21875 
L 18.3125 54.6875 
L 36.8125 54.6875 
L 36.8125 47.703125 
L 18.3125 47.703125 
L 18.3125 18.015625 
Q 18.3125 11.328125 20.140625 9.421875 
Q 21.96875 7.515625 27.59375 7.515625 
L 36.8125 7.515625 
L 36.8125 0 
L 27.59375 0 
Q 17.1875 0 13.234375 3.875 
Q 9.28125 7.765625 9.28125 18.015625 
L 9.28125 47.703125 
L 2.6875 47.703125 
L 2.6875 54.6875 
L 9.28125 54.6875 
L 9.28125 70.21875 
z
" id="DejaVuSans-116"/>
       <path d="M 4.890625 31.390625 
L 31.203125 31.390625 
L 31.203125 23.390625 
L 4.890625 23.390625 
z
" id="DejaVuSans-45"/>
       <path d="M 34.28125 27.484375 
Q 23.390625 27.484375 19.1875 25 
Q 14.984375 22.515625 14.984375 16.5 
Q 14.984375 11.71875 18.140625 8.90625 
Q 21.296875 6.109375 26.703125 6.109375 
Q 34.1875 6.109375 38.703125 11.40625 
Q 43.21875 16.703125 43.21875 25.484375 
L 43.21875 27.484375 
z
M 52.203125 31.203125 
L 52.203125 0 
L 43.21875 0 
L 43.21875 8.296875 
Q 40.140625 3.328125 35.546875 0.953125 
Q 30.953125 -1.421875 24.3125 -1.421875 
Q 15.921875 -1.421875 10.953125 3.296875 
Q 6 8.015625 6 15.921875 
Q 6 25.140625 12.171875 29.828125 
Q 18.359375 34.515625 30.609375 34.515625 
L 43.21875 34.515625 
L 43.21875 35.40625 
Q 43.21875 41.609375 39.140625 45 
Q 35.0625 48.390625 27.6875 48.390625 
Q 23 48.390625 18.546875 47.265625 
Q 14.109375 46.140625 10.015625 43.890625 
L 10.015625 52.203125 
Q 14.9375 54.109375 19.578125 55.046875 
Q 24.21875 56 28.609375 56 
Q 40.484375 56 46.34375 49.84375 
Q 52.203125 43.703125 52.203125 31.203125 
z
" id="DejaVuSans-97"/>
       <path d="M 9.421875 54.6875 
L 18.40625 54.6875 
L 18.40625 0 
L 9.421875 0 
z
M 9.421875 75.984375 
L 18.40625 75.984375 
L 18.40625 64.59375 
L 9.421875 64.59375 
z
" id="DejaVuSans-105"/>
       <path d="M 9.421875 75.984375 
L 18.40625 75.984375 
L 18.40625 0 
L 9.421875 0 
z
" id="DejaVuSans-108"/>
      </defs>
      <use xlink:href="#DejaVuSans-67"/>
      <use x="69.824219" xlink:href="#DejaVuSans-80"/>
      <use x="130.126953" xlink:href="#DejaVuSans-85"/>
      <use x="203.320312" xlink:href="#DejaVuSans-32"/>
      <use x="235.107422" xlink:href="#DejaVuSans-114"/>
      <use x="273.970703" xlink:href="#DejaVuSans-101"/>
      <use x="335.494141" xlink:href="#DejaVuSans-113"/>
      <use x="398.970703" xlink:href="#DejaVuSans-117"/>
      <use x="462.349609" xlink:href="#DejaVuSans-101"/>
      <use x="523.873047" xlink:href="#DejaVuSans-115"/>
      <use x="575.972656" xlink:href="#DejaVuSans-116"/>
      <use x="615.181641" xlink:href="#DejaVuSans-32"/>
      <use x="646.96875" xlink:href="#DejaVuSans-45"/>
      <use x="683.052734" xlink:href="#DejaVuSans-32"/>
      <use x="714.839844" xlink:href="#DejaVuSans-81"/>
      <use x="793.550781" xlink:href="#DejaVuSans-117"/>
      <use x="856.929688" xlink:href="#DejaVuSans-97"/>
      <use x="918.208984" xlink:href="#DejaVuSans-114"/>
      <use x="959.322266" xlink:href="#DejaVuSans-116"/>
      <use x="998.53125" xlink:href="#DejaVuSans-105"/>
      <use x="1026.314453" xlink:href="#DejaVuSans-108"/>
      <use x="1054.097656" xlink:href="#DejaVuSans-101"/>
      <use x="1115.621094" xlink:href="#DejaVuSans-115"/>
     </g>
    </g>
   </g>
   <g id="matplotlib.axis_2">
    <g id="ytick_1">
     <g id="line2d_1">
      <path clip-path="url(#p8900f75e3a)" d="M 90.69 633.952094 
L 1420.56 633.952094 
" style="fill:none;stroke:#999999;stroke-dasharray:1.5,2.475;stroke-dashoffset:0;stroke-width:1.5;"/>
     </g>
     <g id="text_6">
      <!-- 0.05 -->
      <g style="fill:#262626;" transform="translate(41.451719 640.220805)scale(0.165 -0.165)">
       <defs>
        <path d="M 31.78125 66.40625 
Q 24.171875 66.40625 20.328125 58.90625 
Q 16.5 51.421875 16.5 36.375 
Q 16.5 21.390625 20.328125 13.890625 
Q 24.171875 6.390625 31.78125 6.390625 
Q 39.453125 6.390625 43.28125 13.890625 
Q 47.125 21.390625 47.125 36.375 
Q 47.125 51.421875 43.28125 58.90625 
Q 39.453125 66.40625 31.78125 66.40625 
z
M 31.78125 74.21875 
Q 44.046875 74.21875 50.515625 64.515625 
Q 56.984375 54.828125 56.984375 36.375 
Q 56.984375 17.96875 50.515625 8.265625 
Q 44.046875 -1.421875 31.78125 -1.421875 
Q 19.53125 -1.421875 13.0625 8.265625 
Q 6.59375 17.96875 6.59375 36.375 
Q 6.59375 54.828125 13.0625 64.515625 
Q 19.53125 74.21875 31.78125 74.21875 
z
" id="DejaVuSans-48"/>
        <path d="M 10.6875 12.40625 
L 21 12.40625 
L 21 0 
L 10.6875 0 
z
" id="DejaVuSans-46"/>
        <path d="M 10.796875 72.90625 
L 49.515625 72.90625 
L 49.515625 64.59375 
L 19.828125 64.59375 
L 19.828125 46.734375 
Q 21.96875 47.46875 24.109375 47.828125 
Q 26.265625 48.1875 28.421875 48.1875 
Q 40.625 48.1875 47.75 41.5 
Q 54.890625 34.8125 54.890625 23.390625 
Q 54.890625 11.625 47.5625 5.09375 
Q 40.234375 -1.421875 26.90625 -1.421875 
Q 22.3125 -1.421875 17.546875 -0.640625 
Q 12.796875 0.140625 7.71875 1.703125 
L 7.71875 11.625 
Q 12.109375 9.234375 16.796875 8.0625 
Q 21.484375 6.890625 26.703125 6.890625 
Q 35.15625 6.890625 40.078125 11.328125 
Q 45.015625 15.765625 45.015625 23.390625 
Q 45.015625 31 40.078125 35.4375 
Q 35.15625 39.890625 26.703125 39.890625 
Q 22.75 39.890625 18.8125 39.015625 
Q 14.890625 38.140625 10.796875 36.28125 
z
" id="DejaVuSans-53"/>
       </defs>
       <use xlink:href="#DejaVuSans-48"/>
       <use x="63.623047" xlink:href="#DejaVuSans-46"/>
       <use x="95.410156" xlink:href="#DejaVuSans-48"/>
       <use x="159.033203" xlink:href="#DejaVuSans-53"/>
      </g>
     </g>
    </g>
    <g id="ytick_2">
     <g id="line2d_2">
      <path clip-path="url(#p8900f75e3a)" d="M 90.69 558.086325 
L 1420.56 558.086325 
" style="fill:none;stroke:#999999;stroke-dasharray:1.5,2.475;stroke-dashoffset:0;stroke-width:1.5;"/>
     </g>
     <g id="text_7">
      <!-- 0.10 -->
      <g style="fill:#262626;" transform="translate(41.451719 564.355035)scale(0.165 -0.165)">
       <use xlink:href="#DejaVuSans-48"/>
       <use x="63.623047" xlink:href="#DejaVuSans-46"/>
       <use x="95.410156" xlink:href="#DejaVuSans-49"/>
       <use x="159.033203" xlink:href="#DejaVuSans-48"/>
      </g>
     </g>
    </g>
    <g id="ytick_3">
     <g id="line2d_3">
      <path clip-path="url(#p8900f75e3a)" d="M 90.69 482.220555 
L 1420.56 482.220555 
" style="fill:none;stroke:#999999;stroke-dasharray:1.5,2.475;stroke-dashoffset:0;stroke-width:1.5;"/>
     </g>
     <g id="text_8">
      <!-- 0.15 -->
      <g style="fill:#262626;" transform="translate(41.451719 488.489266)scale(0.165 -0.165)">
       <use xlink:href="#DejaVuSans-48"/>
       <use x="63.623047" xlink:href="#DejaVuSans-46"/>
       <use x="95.410156" xlink:href="#DejaVuSans-49"/>
       <use x="159.033203" xlink:href="#DejaVuSans-53"/>
      </g>
     </g>
    </g>
    <g id="ytick_4">
     <g id="line2d_4">
      <path clip-path="url(#p8900f75e3a)" d="M 90.69 406.354785 
L 1420.56 406.354785 
" style="fill:none;stroke:#999999;stroke-dasharray:1.5,2.475;stroke-dashoffset:0;stroke-width:1.5;"/>
     </g>
     <g id="text_9">
      <!-- 0.20 -->
      <g style="fill:#262626;" transform="translate(41.451719 412.623496)scale(0.165 -0.165)">
       <use xlink:href="#DejaVuSans-48"/>
       <use x="63.623047" xlink:href="#DejaVuSans-46"/>
       <use x="95.410156" xlink:href="#DejaVuSans-50"/>
       <use x="159.033203" xlink:href="#DejaVuSans-48"/>
      </g>
     </g>
    </g>
    <g id="ytick_5">
     <g id="line2d_5">
      <path clip-path="url(#p8900f75e3a)" d="M 90.69 330.489015 
L 1420.56 330.489015 
" style="fill:none;stroke:#999999;stroke-dasharray:1.5,2.475;stroke-dashoffset:0;stroke-width:1.5;"/>
     </g>
     <g id="text_10">
      <!-- 0.25 -->
      <g style="fill:#262626;" transform="translate(41.451719 336.757726)scale(0.165 -0.165)">
       <use xlink:href="#DejaVuSans-48"/>
       <use x="63.623047" xlink:href="#DejaVuSans-46"/>
       <use x="95.410156" xlink:href="#DejaVuSans-50"/>
       <use x="159.033203" xlink:href="#DejaVuSans-53"/>
      </g>
     </g>
    </g>
    <g id="ytick_6">
     <g id="line2d_6">
      <path clip-path="url(#p8900f75e3a)" d="M 90.69 254.623246 
L 1420.56 254.623246 
" style="fill:none;stroke:#999999;stroke-dasharray:1.5,2.475;stroke-dashoffset:0;stroke-width:1.5;"/>
     </g>
     <g id="text_11">
      <!-- 0.30 -->
      <g style="fill:#262626;" transform="translate(41.451719 260.891957)scale(0.165 -0.165)">
       <use xlink:href="#DejaVuSans-48"/>
       <use x="63.623047" xlink:href="#DejaVuSans-46"/>
       <use x="95.410156" xlink:href="#DejaVuSans-51"/>
       <use x="159.033203" xlink:href="#DejaVuSans-48"/>
      </g>
     </g>
    </g>
    <g id="ytick_7">
     <g id="line2d_7">
      <path clip-path="url(#p8900f75e3a)" d="M 90.69 178.757476 
L 1420.56 178.757476 
" style="fill:none;stroke:#999999;stroke-dasharray:1.5,2.475;stroke-dashoffset:0;stroke-width:1.5;"/>
     </g>
     <g id="text_12">
      <!-- 0.35 -->
      <g style="fill:#262626;" transform="translate(41.451719 185.026187)scale(0.165 -0.165)">
       <use xlink:href="#DejaVuSans-48"/>
       <use x="63.623047" xlink:href="#DejaVuSans-46"/>
       <use x="95.410156" xlink:href="#DejaVuSans-51"/>
       <use x="159.033203" xlink:href="#DejaVuSans-53"/>
      </g>
     </g>
    </g>
    <g id="ytick_8">
     <g id="line2d_8">
      <path clip-path="url(#p8900f75e3a)" d="M 90.69 102.891706 
L 1420.56 102.891706 
" style="fill:none;stroke:#999999;stroke-dasharray:1.5,2.475;stroke-dashoffset:0;stroke-width:1.5;"/>
     </g>
     <g id="text_13">
      <!-- 0.40 -->
      <g style="fill:#262626;" transform="translate(41.451719 109.160417)scale(0.165 -0.165)">
       <use xlink:href="#DejaVuSans-48"/>
       <use x="63.623047" xlink:href="#DejaVuSans-46"/>
       <use x="95.410156" xlink:href="#DejaVuSans-52"/>
       <use x="159.033203" xlink:href="#DejaVuSans-48"/>
      </g>
     </g>
    </g>
    <g id="ytick_9">
     <g id="line2d_9">
      <path clip-path="url(#p8900f75e3a)" d="M 90.69 27.025937 
L 1420.56 27.025937 
" style="fill:none;stroke:#999999;stroke-dasharray:1.5,2.475;stroke-dashoffset:0;stroke-width:1.5;"/>
     </g>
     <g id="text_14">
      <!-- 0.45 -->
      <g style="fill:#262626;" transform="translate(41.451719 33.294648)scale(0.165 -0.165)">
       <use xlink:href="#DejaVuSans-48"/>
       <use x="63.623047" xlink:href="#DejaVuSans-46"/>
       <use x="95.410156" xlink:href="#DejaVuSans-52"/>
       <use x="159.033203" xlink:href="#DejaVuSans-53"/>
      </g>
     </g>
    </g>
    <g id="text_15">
     <!-- proportion -->
     <g style="fill:#262626;" transform="translate(33.708281 382.183012)rotate(-90)scale(0.18 -0.18)">
      <defs>
       <path d="M 18.109375 8.203125 
L 18.109375 -20.796875 
L 9.078125 -20.796875 
L 9.078125 54.6875 
L 18.109375 54.6875 
L 18.109375 46.390625 
Q 20.953125 51.265625 25.265625 53.625 
Q 29.59375 56 35.59375 56 
Q 45.5625 56 51.78125 48.09375 
Q 58.015625 40.1875 58.015625 27.296875 
Q 58.015625 14.40625 51.78125 6.484375 
Q 45.5625 -1.421875 35.59375 -1.421875 
Q 29.59375 -1.421875 25.265625 0.953125 
Q 20.953125 3.328125 18.109375 8.203125 
z
M 48.6875 27.296875 
Q 48.6875 37.203125 44.609375 42.84375 
Q 40.53125 48.484375 33.40625 48.484375 
Q 26.265625 48.484375 22.1875 42.84375 
Q 18.109375 37.203125 18.109375 27.296875 
Q 18.109375 17.390625 22.1875 11.75 
Q 26.265625 6.109375 33.40625 6.109375 
Q 40.53125 6.109375 44.609375 11.75 
Q 48.6875 17.390625 48.6875 27.296875 
z
" id="DejaVuSans-112"/>
       <path d="M 30.609375 48.390625 
Q 23.390625 48.390625 19.1875 42.75 
Q 14.984375 37.109375 14.984375 27.296875 
Q 14.984375 17.484375 19.15625 11.84375 
Q 23.34375 6.203125 30.609375 6.203125 
Q 37.796875 6.203125 41.984375 11.859375 
Q 46.1875 17.53125 46.1875 27.296875 
Q 46.1875 37.015625 41.984375 42.703125 
Q 37.796875 48.390625 30.609375 48.390625 
z
M 30.609375 56 
Q 42.328125 56 49.015625 48.375 
Q 55.71875 40.765625 55.71875 27.296875 
Q 55.71875 13.875 49.015625 6.21875 
Q 42.328125 -1.421875 30.609375 -1.421875 
Q 18.84375 -1.421875 12.171875 6.21875 
Q 5.515625 13.875 5.515625 27.296875 
Q 5.515625 40.765625 12.171875 48.375 
Q 18.84375 56 30.609375 56 
z
" id="DejaVuSans-111"/>
       <path d="M 54.890625 33.015625 
L 54.890625 0 
L 45.90625 0 
L 45.90625 32.71875 
Q 45.90625 40.484375 42.875 44.328125 
Q 39.84375 48.1875 33.796875 48.1875 
Q 26.515625 48.1875 22.3125 43.546875 
Q 18.109375 38.921875 18.109375 30.90625 
L 18.109375 0 
L 9.078125 0 
L 9.078125 54.6875 
L 18.109375 54.6875 
L 18.109375 46.1875 
Q 21.34375 51.125 25.703125 53.5625 
Q 30.078125 56 35.796875 56 
Q 45.21875 56 50.046875 50.171875 
Q 54.890625 44.34375 54.890625 33.015625 
z
" id="DejaVuSans-110"/>
      </defs>
      <use xlink:href="#DejaVuSans-112"/>
      <use x="63.476562" xlink:href="#DejaVuSans-114"/>
      <use x="102.339844" xlink:href="#DejaVuSans-111"/>
      <use x="163.521484" xlink:href="#DejaVuSans-112"/>
      <use x="226.998047" xlink:href="#DejaVuSans-111"/>
      <use x="288.179688" xlink:href="#DejaVuSans-114"/>
      <use x="329.292969" xlink:href="#DejaVuSans-116"/>
      <use x="368.501953" xlink:href="#DejaVuSans-105"/>
      <use x="396.285156" xlink:href="#DejaVuSans-111"/>
      <use x="457.466797" xlink:href="#DejaVuSans-110"/>
     </g>
    </g>
   </g>
   <g id="patch_3">
    <path clip-path="url(#p8900f75e3a)" d="M 124.468698 303.099526 
L 176.599602 303.099526 
L 176.599602 194.959301 
L 124.468698 194.959301 
L 124.468698 303.099526 
z
" style="fill:#96cac1;stroke:#666666;stroke-linejoin:miter;stroke-width:2.25;"/>
   </g>
   <g id="patch_4">
    <path clip-path="url(#p8900f75e3a)" d="M 177.663498 272.231423 
L 229.794402 272.231423 
L 229.794402 179.002439 
L 177.663498 179.002439 
L 177.663498 272.231423 
z
" style="fill:#f6f6bc;stroke:#666666;stroke-linejoin:miter;stroke-width:2.25;"/>
   </g>
   <g id="patch_5">
    <path clip-path="url(#p8900f75e3a)" d="M 230.858298 298.772698 
L 282.989202 298.772698 
L 282.989202 207.014651 
L 230.858298 207.014651 
L 230.858298 298.772698 
z
" style="fill:#c1bed6;stroke:#666666;stroke-linejoin:miter;stroke-width:2.25;"/>
   </g>
   <g id="patch_6">
    <path clip-path="url(#p8900f75e3a)" d="M 284.053098 261.605097 
L 336.184002 261.605097 
L 336.184002 163.854313 
L 284.053098 163.854313 
L 284.053098 261.605097 
z
" style="fill:#ea8e83;stroke:#666666;stroke-linejoin:miter;stroke-width:2.25;"/>
   </g>
   <g id="patch_7">
    <path clip-path="url(#p8900f75e3a)" d="M 337.247898 284.114999 
L 389.378802 284.114999 
L 389.378802 184.332072 
L 337.247898 184.332072 
L 337.247898 284.114999 
z
" style="fill:#8aafc9;stroke:#666666;stroke-linejoin:miter;stroke-width:2.25;"/>
   </g>
   <g id="patch_8">
    <path clip-path="url(#p8900f75e3a)" d="M 456.936198 582.194612 
L 509.067102 582.194612 
L 509.067102 531.11287 
L 456.936198 531.11287 
L 456.936198 582.194612 
z
" style="fill:#96cac1;stroke:#666666;stroke-linejoin:miter;stroke-width:2.25;"/>
   </g>
   <g id="patch_9">
    <path clip-path="url(#p8900f75e3a)" d="M 510.130998 576.220261 
L 562.261902 576.220261 
L 562.261902 504.981851 
L 510.130998 504.981851 
L 510.130998 576.220261 
z
" style="fill:#f6f6bc;stroke:#666666;stroke-linejoin:miter;stroke-width:2.25;"/>
   </g>
   <g id="patch_10">
    <path clip-path="url(#p8900f75e3a)" d="M 563.325798 579.081911 
L 615.456702 579.081911 
L 615.456702 516.813213 
L 563.325798 516.813213 
L 563.325798 579.081911 
z
" style="fill:#c1bed6;stroke:#666666;stroke-linejoin:miter;stroke-width:2.25;"/>
   </g>
   <g id="patch_11">
    <path clip-path="url(#p8900f75e3a)" d="M 616.520598 566.938958 
L 668.651502 566.938958 
L 668.651502 502.873944 
L 616.520598 502.873944 
L 616.520598 566.938958 
z
" style="fill:#ea8e83;stroke:#666666;stroke-linejoin:miter;stroke-width:2.25;"/>
   </g>
   <g id="patch_12">
    <path clip-path="url(#p8900f75e3a)" d="M 669.715398 567.412167 
L 721.846302 567.412167 
L 721.846302 499.165168 
L 669.715398 499.165168 
L 669.715398 567.412167 
z
" style="fill:#8aafc9;stroke:#666666;stroke-linejoin:miter;stroke-width:2.25;"/>
   </g>
   <g id="patch_13">
    <path clip-path="url(#p8900f75e3a)" d="M 789.403698 305.91648 
L 841.534602 305.91648 
L 841.534602 238.002871 
L 789.403698 238.002871 
L 789.403698 305.91648 
z
" style="fill:#96cac1;stroke:#666666;stroke-linejoin:miter;stroke-width:2.25;"/>
   </g>
   <g id="patch_14">
    <path clip-path="url(#p8900f75e3a)" d="M 842.598498 314.15817 
L 894.729402 314.15817 
L 894.729402 272.75694 
L 842.598498 272.75694 
L 842.598498 314.15817 
z
" style="fill:#f6f6bc;stroke:#666666;stroke-linejoin:miter;stroke-width:2.25;"/>
   </g>
   <g id="patch_15">
    <path clip-path="url(#p8900f75e3a)" d="M 895.793298 294.444053 
L 947.924202 294.444053 
L 947.924202 215.792614 
L 895.793298 215.792614 
L 895.793298 294.444053 
z
" style="fill:#c1bed6;stroke:#666666;stroke-linejoin:miter;stroke-width:2.25;"/>
   </g>
   <g id="patch_16">
    <path clip-path="url(#p8900f75e3a)" d="M 948.988098 307.032609 
L 1001.119002 307.032609 
L 1001.119002 250.634336 
L 948.988098 250.634336 
L 948.988098 307.032609 
z
" style="fill:#ea8e83;stroke:#666666;stroke-linejoin:miter;stroke-width:2.25;"/>
   </g>
   <g id="patch_17">
    <path clip-path="url(#p8900f75e3a)" d="M 1002.182898 312.149952 
L 1054.313802 312.149952 
L 1054.313802 213.402852 
L 1002.182898 213.402852 
L 1002.182898 312.149952 
z
" style="fill:#8aafc9;stroke:#666666;stroke-linejoin:miter;stroke-width:2.25;"/>
   </g>
   <g id="patch_18">
    <path clip-path="url(#p8900f75e3a)" d="M 1121.871198 289.96741 
L 1174.002102 289.96741 
L 1174.002102 198.659054 
L 1121.871198 198.659054 
L 1121.871198 289.96741 
z
" style="fill:#96cac1;stroke:#666666;stroke-linejoin:miter;stroke-width:2.25;"/>
   </g>
   <g id="patch_19">
    <path clip-path="url(#p8900f75e3a)" d="M 1175.065998 295.774629 
L 1227.196902 295.774629 
L 1227.196902 229.355242 
L 1175.065998 229.355242 
L 1175.065998 295.774629 
z
" style="fill:#f6f6bc;stroke:#666666;stroke-linejoin:miter;stroke-width:2.25;"/>
   </g>
   <g id="patch_20">
    <path clip-path="url(#p8900f75e3a)" d="M 1228.260798 302.512668 
L 1280.391702 302.512668 
L 1280.391702 264.149393 
L 1228.260798 264.149393 
L 1228.260798 302.512668 
z
" style="fill:#c1bed6;stroke:#666666;stroke-linejoin:miter;stroke-width:2.25;"/>
   </g>
   <g id="patch_21">
    <path clip-path="url(#p8900f75e3a)" d="M 1281.455598 318.42775 
L 1333.586502 318.42775 
L 1333.586502 263.86087 
L 1281.455598 263.86087 
L 1281.455598 318.42775 
z
" style="fill:#ea8e83;stroke:#666666;stroke-linejoin:miter;stroke-width:2.25;"/>
   </g>
   <g id="patch_22">
    <path clip-path="url(#p8900f75e3a)" d="M 1334.650398 344.917051 
L 1386.781302 344.917051 
L 1386.781302 260.803211 
L 1334.650398 260.803211 
L 1334.650398 344.917051 
z
" style="fill:#8aafc9;stroke:#666666;stroke-linejoin:miter;stroke-width:2.25;"/>
   </g>
   <g id="patch_23">
    <path clip-path="url(#p8900f75e3a)" d="M 256.92375 709.817864 
L 256.92375 709.817864 
L 256.92375 709.817864 
L 256.92375 709.817864 
z
" style="fill:#96cac1;stroke:#666666;stroke-linejoin:miter;stroke-width:1.125;"/>
   </g>
   <g id="patch_24">
    <path clip-path="url(#p8900f75e3a)" d="M 256.92375 709.817864 
L 256.92375 709.817864 
L 256.92375 709.817864 
L 256.92375 709.817864 
z
" style="fill:#f6f6bc;stroke:#666666;stroke-linejoin:miter;stroke-width:1.125;"/>
   </g>
   <g id="patch_25">
    <path clip-path="url(#p8900f75e3a)" d="M 256.92375 709.817864 
L 256.92375 709.817864 
L 256.92375 709.817864 
L 256.92375 709.817864 
z
" style="fill:#c1bed6;stroke:#666666;stroke-linejoin:miter;stroke-width:1.125;"/>
   </g>
   <g id="patch_26">
    <path clip-path="url(#p8900f75e3a)" d="M 256.92375 709.817864 
L 256.92375 709.817864 
L 256.92375 709.817864 
L 256.92375 709.817864 
z
" style="fill:#ea8e83;stroke:#666666;stroke-linejoin:miter;stroke-width:1.125;"/>
   </g>
   <g id="patch_27">
    <path clip-path="url(#p8900f75e3a)" d="M 256.92375 709.817864 
L 256.92375 709.817864 
L 256.92375 709.817864 
L 256.92375 709.817864 
z
" style="fill:#8aafc9;stroke:#666666;stroke-linejoin:miter;stroke-width:1.125;"/>
   </g>
   <g id="line2d_10">
    <path clip-path="url(#p8900f75e3a)" d="M 150.53415 303.099526 
L 150.53415 357.169638 
" style="fill:none;stroke:#666666;stroke-linecap:round;stroke-width:2.25;"/>
   </g>
   <g id="line2d_11">
    <path clip-path="url(#p8900f75e3a)" d="M 150.53415 194.959301 
L 150.53415 140.889189 
" style="fill:none;stroke:#666666;stroke-linecap:round;stroke-width:2.25;"/>
   </g>
   <g id="line2d_12">
    <path clip-path="url(#p8900f75e3a)" d="M 137.501424 357.169638 
L 163.566876 357.169638 
" style="fill:none;stroke:#666666;stroke-linecap:round;stroke-width:2.25;"/>
   </g>
   <g id="line2d_13">
    <path clip-path="url(#p8900f75e3a)" d="M 137.501424 140.889189 
L 163.566876 140.889189 
" style="fill:none;stroke:#666666;stroke-linecap:round;stroke-width:2.25;"/>
   </g>
   <g id="line2d_14"/>
   <g id="line2d_15">
    <path clip-path="url(#p8900f75e3a)" d="M 203.72895 272.231423 
L 203.72895 356.087895 
" style="fill:none;stroke:#666666;stroke-linecap:round;stroke-width:2.25;"/>
   </g>
   <g id="line2d_16">
    <path clip-path="url(#p8900f75e3a)" d="M 203.72895 179.002439 
L 203.72895 114.538099 
" style="fill:none;stroke:#666666;stroke-linecap:round;stroke-width:2.25;"/>
   </g>
   <g id="line2d_17">
    <path clip-path="url(#p8900f75e3a)" d="M 190.696224 356.087895 
L 216.761676 356.087895 
" style="fill:none;stroke:#666666;stroke-linecap:round;stroke-width:2.25;"/>
   </g>
   <g id="line2d_18">
    <path clip-path="url(#p8900f75e3a)" d="M 190.696224 114.538099 
L 216.761676 114.538099 
" style="fill:none;stroke:#666666;stroke-linecap:round;stroke-width:2.25;"/>
   </g>
   <g id="line2d_19"/>
   <g id="line2d_20">
    <path clip-path="url(#p8900f75e3a)" d="M 256.92375 298.772698 
L 256.92375 364.973456 
" style="fill:none;stroke:#666666;stroke-linecap:round;stroke-width:2.25;"/>
   </g>
   <g id="line2d_21">
    <path clip-path="url(#p8900f75e3a)" d="M 256.92375 207.014651 
L 256.92375 104.507577 
" style="fill:none;stroke:#666666;stroke-linecap:round;stroke-width:2.25;"/>
   </g>
   <g id="line2d_22">
    <path clip-path="url(#p8900f75e3a)" d="M 243.891024 364.973456 
L 269.956476 364.973456 
" style="fill:none;stroke:#666666;stroke-linecap:round;stroke-width:2.25;"/>
   </g>
   <g id="line2d_23">
    <path clip-path="url(#p8900f75e3a)" d="M 243.891024 104.507577 
L 269.956476 104.507577 
" style="fill:none;stroke:#666666;stroke-linecap:round;stroke-width:2.25;"/>
   </g>
   <g id="line2d_24"/>
   <g id="line2d_25">
    <path clip-path="url(#p8900f75e3a)" d="M 310.11855 261.605097 
L 310.11855 364.973456 
" style="fill:none;stroke:#666666;stroke-linecap:round;stroke-width:2.25;"/>
   </g>
   <g id="line2d_26">
    <path clip-path="url(#p8900f75e3a)" d="M 310.11855 163.854313 
L 310.11855 103.184687 
" style="fill:none;stroke:#666666;stroke-linecap:round;stroke-width:2.25;"/>
   </g>
   <g id="line2d_27">
    <path clip-path="url(#p8900f75e3a)" d="M 297.085824 364.973456 
L 323.151276 364.973456 
" style="fill:none;stroke:#666666;stroke-linecap:round;stroke-width:2.25;"/>
   </g>
   <g id="line2d_28">
    <path clip-path="url(#p8900f75e3a)" d="M 297.085824 103.184687 
L 323.151276 103.184687 
" style="fill:none;stroke:#666666;stroke-linecap:round;stroke-width:2.25;"/>
   </g>
   <g id="line2d_29"/>
   <g id="line2d_30">
    <path clip-path="url(#p8900f75e3a)" d="M 363.31335 284.114999 
L 363.31335 364.973456 
" style="fill:none;stroke:#666666;stroke-linecap:round;stroke-width:2.25;"/>
   </g>
   <g id="line2d_31">
    <path clip-path="url(#p8900f75e3a)" d="M 363.31335 184.332072 
L 363.31335 90.745394 
" style="fill:none;stroke:#666666;stroke-linecap:round;stroke-width:2.25;"/>
   </g>
   <g id="line2d_32">
    <path clip-path="url(#p8900f75e3a)" d="M 350.280624 364.973456 
L 376.346076 364.973456 
" style="fill:none;stroke:#666666;stroke-linecap:round;stroke-width:2.25;"/>
   </g>
   <g id="line2d_33">
    <path clip-path="url(#p8900f75e3a)" d="M 350.280624 90.745394 
L 376.346076 90.745394 
" style="fill:none;stroke:#666666;stroke-linecap:round;stroke-width:2.25;"/>
   </g>
   <g id="line2d_34"/>
   <g id="line2d_35">
    <path clip-path="url(#p8900f75e3a)" d="M 483.00165 582.194612 
L 483.00165 607.735483 
" style="fill:none;stroke:#666666;stroke-linecap:round;stroke-width:2.25;"/>
   </g>
   <g id="line2d_36">
    <path clip-path="url(#p8900f75e3a)" d="M 483.00165 531.11287 
L 483.00165 505.572 
" style="fill:none;stroke:#666666;stroke-linecap:round;stroke-width:2.25;"/>
   </g>
   <g id="line2d_37">
    <path clip-path="url(#p8900f75e3a)" d="M 469.968924 607.735483 
L 496.034376 607.735483 
" style="fill:none;stroke:#666666;stroke-linecap:round;stroke-width:2.25;"/>
   </g>
   <g id="line2d_38">
    <path clip-path="url(#p8900f75e3a)" d="M 469.968924 505.572 
L 496.034376 505.572 
" style="fill:none;stroke:#666666;stroke-linecap:round;stroke-width:2.25;"/>
   </g>
   <g id="line2d_39"/>
   <g id="line2d_40">
    <path clip-path="url(#p8900f75e3a)" d="M 536.19645 576.220261 
L 536.19645 607.422346 
" style="fill:none;stroke:#666666;stroke-linecap:round;stroke-width:2.25;"/>
   </g>
   <g id="line2d_41">
    <path clip-path="url(#p8900f75e3a)" d="M 536.19645 504.981851 
L 536.19645 504.128604 
" style="fill:none;stroke:#666666;stroke-linecap:round;stroke-width:2.25;"/>
   </g>
   <g id="line2d_42">
    <path clip-path="url(#p8900f75e3a)" d="M 523.163724 607.422346 
L 549.229176 607.422346 
" style="fill:none;stroke:#666666;stroke-linecap:round;stroke-width:2.25;"/>
   </g>
   <g id="line2d_43">
    <path clip-path="url(#p8900f75e3a)" d="M 523.163724 504.128604 
L 549.229176 504.128604 
" style="fill:none;stroke:#666666;stroke-linecap:round;stroke-width:2.25;"/>
   </g>
   <g id="line2d_44"/>
   <g id="line2d_45">
    <path clip-path="url(#p8900f75e3a)" d="M 589.39125 579.081911 
L 589.39125 619.627788 
" style="fill:none;stroke:#666666;stroke-linecap:round;stroke-width:2.25;"/>
   </g>
   <g id="line2d_46">
    <path clip-path="url(#p8900f75e3a)" d="M 589.39125 516.813213 
L 589.39125 488.895171 
" style="fill:none;stroke:#666666;stroke-linecap:round;stroke-width:2.25;"/>
   </g>
   <g id="line2d_47">
    <path clip-path="url(#p8900f75e3a)" d="M 576.358524 619.627788 
L 602.423976 619.627788 
" style="fill:none;stroke:#666666;stroke-linecap:round;stroke-width:2.25;"/>
   </g>
   <g id="line2d_48">
    <path clip-path="url(#p8900f75e3a)" d="M 576.358524 488.895171 
L 602.423976 488.895171 
" style="fill:none;stroke:#666666;stroke-linecap:round;stroke-width:2.25;"/>
   </g>
   <g id="line2d_49"/>
   <g id="line2d_50">
    <path clip-path="url(#p8900f75e3a)" d="M 642.58605 566.938958 
L 642.58605 619.627788 
" style="fill:none;stroke:#666666;stroke-linecap:round;stroke-width:2.25;"/>
   </g>
   <g id="line2d_51">
    <path clip-path="url(#p8900f75e3a)" d="M 642.58605 502.873944 
L 642.58605 485.370207 
" style="fill:none;stroke:#666666;stroke-linecap:round;stroke-width:2.25;"/>
   </g>
   <g id="line2d_52">
    <path clip-path="url(#p8900f75e3a)" d="M 629.553324 619.627788 
L 655.618776 619.627788 
" style="fill:none;stroke:#666666;stroke-linecap:round;stroke-width:2.25;"/>
   </g>
   <g id="line2d_53">
    <path clip-path="url(#p8900f75e3a)" d="M 629.553324 485.370207 
L 655.618776 485.370207 
" style="fill:none;stroke:#666666;stroke-linecap:round;stroke-width:2.25;"/>
   </g>
   <g id="line2d_54"/>
   <g id="line2d_55">
    <path clip-path="url(#p8900f75e3a)" d="M 695.78085 567.412167 
L 695.78085 619.627788 
" style="fill:none;stroke:#666666;stroke-linecap:round;stroke-width:2.25;"/>
   </g>
   <g id="line2d_56">
    <path clip-path="url(#p8900f75e3a)" d="M 695.78085 499.165168 
L 695.78085 467.07415 
" style="fill:none;stroke:#666666;stroke-linecap:round;stroke-width:2.25;"/>
   </g>
   <g id="line2d_57">
    <path clip-path="url(#p8900f75e3a)" d="M 682.748124 619.627788 
L 708.813576 619.627788 
" style="fill:none;stroke:#666666;stroke-linecap:round;stroke-width:2.25;"/>
   </g>
   <g id="line2d_58">
    <path clip-path="url(#p8900f75e3a)" d="M 682.748124 467.07415 
L 708.813576 467.07415 
" style="fill:none;stroke:#666666;stroke-linecap:round;stroke-width:2.25;"/>
   </g>
   <g id="line2d_59"/>
   <g id="line2d_60">
    <path clip-path="url(#p8900f75e3a)" d="M 815.46915 305.91648 
L 815.46915 339.873285 
" style="fill:none;stroke:#666666;stroke-linecap:round;stroke-width:2.25;"/>
   </g>
   <g id="line2d_61">
    <path clip-path="url(#p8900f75e3a)" d="M 815.46915 238.002871 
L 815.46915 204.046066 
" style="fill:none;stroke:#666666;stroke-linecap:round;stroke-width:2.25;"/>
   </g>
   <g id="line2d_62">
    <path clip-path="url(#p8900f75e3a)" d="M 802.436424 339.873285 
L 828.501876 339.873285 
" style="fill:none;stroke:#666666;stroke-linecap:round;stroke-width:2.25;"/>
   </g>
   <g id="line2d_63">
    <path clip-path="url(#p8900f75e3a)" d="M 802.436424 204.046066 
L 828.501876 204.046066 
" style="fill:none;stroke:#666666;stroke-linecap:round;stroke-width:2.25;"/>
   </g>
   <g id="line2d_64"/>
   <g id="line2d_65">
    <path clip-path="url(#p8900f75e3a)" d="M 868.66395 314.15817 
L 868.66395 351.164616 
" style="fill:none;stroke:#666666;stroke-linecap:round;stroke-width:2.25;"/>
   </g>
   <g id="line2d_66">
    <path clip-path="url(#p8900f75e3a)" d="M 868.66395 272.75694 
L 868.66395 272.75694 
" style="fill:none;stroke:#666666;stroke-linecap:round;stroke-width:2.25;"/>
   </g>
   <g id="line2d_67">
    <path clip-path="url(#p8900f75e3a)" d="M 855.631224 351.164616 
L 881.696676 351.164616 
" style="fill:none;stroke:#666666;stroke-linecap:round;stroke-width:2.25;"/>
   </g>
   <g id="line2d_68">
    <path clip-path="url(#p8900f75e3a)" d="M 855.631224 272.75694 
L 881.696676 272.75694 
" style="fill:none;stroke:#666666;stroke-linecap:round;stroke-width:2.25;"/>
   </g>
   <g id="line2d_69">
    <defs>
     <path d="M -0 3.535534 
L 2.12132 0 
L -0 -3.535534 
L -2.12132 -0 
z
" id="m2225273c93" style="stroke:#666666;stroke-linejoin:miter;"/>
    </defs>
    <g clip-path="url(#p8900f75e3a)">
     <use style="fill:#666666;stroke:#666666;stroke-linejoin:miter;" x="868.66395" xlink:href="#m2225273c93" y="202.494619"/>
    </g>
   </g>
   <g id="line2d_70">
    <path clip-path="url(#p8900f75e3a)" d="M 921.85875 294.444053 
L 921.85875 356.121726 
" style="fill:none;stroke:#666666;stroke-linecap:round;stroke-width:2.25;"/>
   </g>
   <g id="line2d_71">
    <path clip-path="url(#p8900f75e3a)" d="M 921.85875 215.792614 
L 921.85875 142.53328 
" style="fill:none;stroke:#666666;stroke-linecap:round;stroke-width:2.25;"/>
   </g>
   <g id="line2d_72">
    <path clip-path="url(#p8900f75e3a)" d="M 908.826024 356.121726 
L 934.891476 356.121726 
" style="fill:none;stroke:#666666;stroke-linecap:round;stroke-width:2.25;"/>
   </g>
   <g id="line2d_73">
    <path clip-path="url(#p8900f75e3a)" d="M 908.826024 142.53328 
L 934.891476 142.53328 
" style="fill:none;stroke:#666666;stroke-linecap:round;stroke-width:2.25;"/>
   </g>
   <g id="line2d_74"/>
   <g id="line2d_75">
    <path clip-path="url(#p8900f75e3a)" d="M 975.05355 307.032609 
L 975.05355 356.775911 
" style="fill:none;stroke:#666666;stroke-linecap:round;stroke-width:2.25;"/>
   </g>
   <g id="line2d_76">
    <path clip-path="url(#p8900f75e3a)" d="M 975.05355 250.634336 
L 975.05355 200.5092 
" style="fill:none;stroke:#666666;stroke-linecap:round;stroke-width:2.25;"/>
   </g>
   <g id="line2d_77">
    <path clip-path="url(#p8900f75e3a)" d="M 962.020824 356.775911 
L 988.086276 356.775911 
" style="fill:none;stroke:#666666;stroke-linecap:round;stroke-width:2.25;"/>
   </g>
   <g id="line2d_78">
    <path clip-path="url(#p8900f75e3a)" d="M 962.020824 200.5092 
L 988.086276 200.5092 
" style="fill:none;stroke:#666666;stroke-linecap:round;stroke-width:2.25;"/>
   </g>
   <g id="line2d_79">
    <g clip-path="url(#p8900f75e3a)">
     <use style="fill:#666666;stroke:#666666;stroke-linejoin:miter;" x="975.05355" xlink:href="#m2225273c93" y="142.53328"/>
    </g>
   </g>
   <g id="line2d_80">
    <path clip-path="url(#p8900f75e3a)" d="M 1028.24835 312.149952 
L 1028.24835 360.142536 
" style="fill:none;stroke:#666666;stroke-linecap:round;stroke-width:2.25;"/>
   </g>
   <g id="line2d_81">
    <path clip-path="url(#p8900f75e3a)" d="M 1028.24835 213.402852 
L 1028.24835 142.53328 
" style="fill:none;stroke:#666666;stroke-linecap:round;stroke-width:2.25;"/>
   </g>
   <g id="line2d_82">
    <path clip-path="url(#p8900f75e3a)" d="M 1015.215624 360.142536 
L 1041.281076 360.142536 
" style="fill:none;stroke:#666666;stroke-linecap:round;stroke-width:2.25;"/>
   </g>
   <g id="line2d_83">
    <path clip-path="url(#p8900f75e3a)" d="M 1015.215624 142.53328 
L 1041.281076 142.53328 
" style="fill:none;stroke:#666666;stroke-linecap:round;stroke-width:2.25;"/>
   </g>
   <g id="line2d_84">
    <g clip-path="url(#p8900f75e3a)">
     <use style="fill:#666666;stroke:#666666;stroke-linejoin:miter;" x="1028.24835" xlink:href="#m2225273c93" y="50.983548"/>
    </g>
   </g>
   <g id="line2d_85">
    <path clip-path="url(#p8900f75e3a)" d="M 1147.93665 289.96741 
L 1147.93665 335.621588 
" style="fill:none;stroke:#666666;stroke-linecap:round;stroke-width:2.25;"/>
   </g>
   <g id="line2d_86">
    <path clip-path="url(#p8900f75e3a)" d="M 1147.93665 198.659054 
L 1147.93665 153.004875 
" style="fill:none;stroke:#666666;stroke-linecap:round;stroke-width:2.25;"/>
   </g>
   <g id="line2d_87">
    <path clip-path="url(#p8900f75e3a)" d="M 1134.903924 335.621588 
L 1160.969376 335.621588 
" style="fill:none;stroke:#666666;stroke-linecap:round;stroke-width:2.25;"/>
   </g>
   <g id="line2d_88">
    <path clip-path="url(#p8900f75e3a)" d="M 1134.903924 153.004875 
L 1160.969376 153.004875 
" style="fill:none;stroke:#666666;stroke-linecap:round;stroke-width:2.25;"/>
   </g>
   <g id="line2d_89"/>
   <g id="line2d_90">
    <path clip-path="url(#p8900f75e3a)" d="M 1201.13145 295.774629 
L 1201.13145 350.98708 
" style="fill:none;stroke:#666666;stroke-linecap:round;stroke-width:2.25;"/>
   </g>
   <g id="line2d_91">
    <path clip-path="url(#p8900f75e3a)" d="M 1201.13145 229.355242 
L 1201.13145 155.951202 
" style="fill:none;stroke:#666666;stroke-linecap:round;stroke-width:2.25;"/>
   </g>
   <g id="line2d_92">
    <path clip-path="url(#p8900f75e3a)" d="M 1188.098724 350.98708 
L 1214.164176 350.98708 
" style="fill:none;stroke:#666666;stroke-linecap:round;stroke-width:2.25;"/>
   </g>
   <g id="line2d_93">
    <path clip-path="url(#p8900f75e3a)" d="M 1188.098724 155.951202 
L 1214.164176 155.951202 
" style="fill:none;stroke:#666666;stroke-linecap:round;stroke-width:2.25;"/>
   </g>
   <g id="line2d_94"/>
   <g id="line2d_95">
    <path clip-path="url(#p8900f75e3a)" d="M 1254.32625 302.512668 
L 1254.32625 354.005705 
" style="fill:none;stroke:#666666;stroke-linecap:round;stroke-width:2.25;"/>
   </g>
   <g id="line2d_96">
    <path clip-path="url(#p8900f75e3a)" d="M 1254.32625 264.149393 
L 1254.32625 259.585207 
" style="fill:none;stroke:#666666;stroke-linecap:round;stroke-width:2.25;"/>
   </g>
   <g id="line2d_97">
    <path clip-path="url(#p8900f75e3a)" d="M 1241.293524 354.005705 
L 1267.358976 354.005705 
" style="fill:none;stroke:#666666;stroke-linecap:round;stroke-width:2.25;"/>
   </g>
   <g id="line2d_98">
    <path clip-path="url(#p8900f75e3a)" d="M 1241.293524 259.585207 
L 1267.358976 259.585207 
" style="fill:none;stroke:#666666;stroke-linecap:round;stroke-width:2.25;"/>
   </g>
   <g id="line2d_99">
    <g clip-path="url(#p8900f75e3a)">
     <use style="fill:#666666;stroke:#666666;stroke-linejoin:miter;" x="1254.32625" xlink:href="#m2225273c93" y="136.845617"/>
    </g>
   </g>
   <g id="line2d_100">
    <path clip-path="url(#p8900f75e3a)" d="M 1307.52105 318.42775 
L 1307.52105 354.008869 
" style="fill:none;stroke:#666666;stroke-linecap:round;stroke-width:2.25;"/>
   </g>
   <g id="line2d_101">
    <path clip-path="url(#p8900f75e3a)" d="M 1307.52105 263.86087 
L 1307.52105 252.214809 
" style="fill:none;stroke:#666666;stroke-linecap:round;stroke-width:2.25;"/>
   </g>
   <g id="line2d_102">
    <path clip-path="url(#p8900f75e3a)" d="M 1294.488324 354.008869 
L 1320.553776 354.008869 
" style="fill:none;stroke:#666666;stroke-linecap:round;stroke-width:2.25;"/>
   </g>
   <g id="line2d_103">
    <path clip-path="url(#p8900f75e3a)" d="M 1294.488324 252.214809 
L 1320.553776 252.214809 
" style="fill:none;stroke:#666666;stroke-linecap:round;stroke-width:2.25;"/>
   </g>
   <g id="line2d_104">
    <g clip-path="url(#p8900f75e3a)">
     <use style="fill:#666666;stroke:#666666;stroke-linejoin:miter;" x="1307.52105" xlink:href="#m2225273c93" y="419.884986"/>
     <use style="fill:#666666;stroke:#666666;stroke-linejoin:miter;" x="1307.52105" xlink:href="#m2225273c93" y="136.845617"/>
    </g>
   </g>
   <g id="line2d_105">
    <path clip-path="url(#p8900f75e3a)" d="M 1360.71585 344.917051 
L 1360.71585 458.542703 
" style="fill:none;stroke:#666666;stroke-linecap:round;stroke-width:2.25;"/>
   </g>
   <g id="line2d_106">
    <path clip-path="url(#p8900f75e3a)" d="M 1360.71585 260.803211 
L 1360.71585 136.845617 
" style="fill:none;stroke:#666666;stroke-linecap:round;stroke-width:2.25;"/>
   </g>
   <g id="line2d_107">
    <path clip-path="url(#p8900f75e3a)" d="M 1347.683124 458.542703 
L 1373.748576 458.542703 
" style="fill:none;stroke:#666666;stroke-linecap:round;stroke-width:2.25;"/>
   </g>
   <g id="line2d_108">
    <path clip-path="url(#p8900f75e3a)" d="M 1347.683124 136.845617 
L 1373.748576 136.845617 
" style="fill:none;stroke:#666666;stroke-linecap:round;stroke-width:2.25;"/>
   </g>
   <g id="line2d_109"/>
   <g id="line2d_110">
    <path clip-path="url(#p8900f75e3a)" d="M 124.468698 249.029413 
L 176.599602 249.029413 
" style="fill:none;stroke:#666666;stroke-linecap:round;stroke-width:2.25;"/>
   </g>
   <g id="line2d_111">
    <path clip-path="url(#p8900f75e3a)" d="M 177.663498 222.384909 
L 229.794402 222.384909 
" style="fill:none;stroke:#666666;stroke-linecap:round;stroke-width:2.25;"/>
   </g>
   <g id="line2d_112">
    <path clip-path="url(#p8900f75e3a)" d="M 230.858298 246.201802 
L 282.989202 246.201802 
" style="fill:none;stroke:#666666;stroke-linecap:round;stroke-width:2.25;"/>
   </g>
   <g id="line2d_113">
    <path clip-path="url(#p8900f75e3a)" d="M 284.053098 234.605275 
L 336.184002 234.605275 
" style="fill:none;stroke:#666666;stroke-linecap:round;stroke-width:2.25;"/>
   </g>
   <g id="line2d_114">
    <path clip-path="url(#p8900f75e3a)" d="M 337.247898 232.202753 
L 389.378802 232.202753 
" style="fill:none;stroke:#666666;stroke-linecap:round;stroke-width:2.25;"/>
   </g>
   <g id="line2d_115">
    <path clip-path="url(#p8900f75e3a)" d="M 456.936198 556.653741 
L 509.067102 556.653741 
" style="fill:none;stroke:#666666;stroke-linecap:round;stroke-width:2.25;"/>
   </g>
   <g id="line2d_116">
    <path clip-path="url(#p8900f75e3a)" d="M 510.130998 535.542917 
L 562.261902 535.542917 
" style="fill:none;stroke:#666666;stroke-linecap:round;stroke-width:2.25;"/>
   </g>
   <g id="line2d_117">
    <path clip-path="url(#p8900f75e3a)" d="M 563.325798 552.371482 
L 615.456702 552.371482 
" style="fill:none;stroke:#666666;stroke-linecap:round;stroke-width:2.25;"/>
   </g>
   <g id="line2d_118">
    <path clip-path="url(#p8900f75e3a)" d="M 616.520598 545.912179 
L 668.651502 545.912179 
" style="fill:none;stroke:#666666;stroke-linecap:round;stroke-width:2.25;"/>
   </g>
   <g id="line2d_119">
    <path clip-path="url(#p8900f75e3a)" d="M 669.715398 551.737725 
L 721.846302 551.737725 
" style="fill:none;stroke:#666666;stroke-linecap:round;stroke-width:2.25;"/>
   </g>
   <g id="line2d_120">
    <path clip-path="url(#p8900f75e3a)" d="M 789.403698 271.959675 
L 841.534602 271.959675 
" style="fill:none;stroke:#666666;stroke-linecap:round;stroke-width:2.25;"/>
   </g>
   <g id="line2d_121">
    <path clip-path="url(#p8900f75e3a)" d="M 842.598498 299.000201 
L 894.729402 299.000201 
" style="fill:none;stroke:#666666;stroke-linecap:round;stroke-width:2.25;"/>
   </g>
   <g id="line2d_122">
    <path clip-path="url(#p8900f75e3a)" d="M 895.793298 261.91981 
L 947.924202 261.91981 
" style="fill:none;stroke:#666666;stroke-linecap:round;stroke-width:2.25;"/>
   </g>
   <g id="line2d_123">
    <path clip-path="url(#p8900f75e3a)" d="M 948.988098 272.756767 
L 1001.119002 272.756767 
" style="fill:none;stroke:#666666;stroke-linecap:round;stroke-width:2.25;"/>
   </g>
   <g id="line2d_124">
    <path clip-path="url(#p8900f75e3a)" d="M 1002.182898 278.905124 
L 1054.313802 278.905124 
" style="fill:none;stroke:#666666;stroke-linecap:round;stroke-width:2.25;"/>
   </g>
   <g id="line2d_125">
    <path clip-path="url(#p8900f75e3a)" d="M 1121.871198 244.313232 
L 1174.002102 244.313232 
" style="fill:none;stroke:#666666;stroke-linecap:round;stroke-width:2.25;"/>
   </g>
   <g id="line2d_126">
    <path clip-path="url(#p8900f75e3a)" d="M 1175.065998 265.596867 
L 1227.196902 265.596867 
" style="fill:none;stroke:#666666;stroke-linecap:round;stroke-width:2.25;"/>
   </g>
   <g id="line2d_127">
    <path clip-path="url(#p8900f75e3a)" d="M 1228.260798 284.095246 
L 1280.391702 284.095246 
" style="fill:none;stroke:#666666;stroke-linecap:round;stroke-width:2.25;"/>
   </g>
   <g id="line2d_128">
    <path clip-path="url(#p8900f75e3a)" d="M 1281.455598 281.435069 
L 1333.586502 281.435069 
" style="fill:none;stroke:#666666;stroke-linecap:round;stroke-width:2.25;"/>
   </g>
   <g id="line2d_129">
    <path clip-path="url(#p8900f75e3a)" d="M 1334.650398 296.552027 
L 1386.781302 296.552027 
" style="fill:none;stroke:#666666;stroke-linecap:round;stroke-width:2.25;"/>
   </g>
   <g id="patch_28">
    <path d="M 90.69 648.06 
L 90.69 22.551336 
" style="fill:none;stroke:#cccccc;stroke-linecap:square;stroke-linejoin:miter;stroke-width:1.875;"/>
   </g>
   <g id="patch_29">
    <path d="M 1420.56 648.06 
L 1420.56 22.551336 
" style="fill:none;stroke:#cccccc;stroke-linecap:square;stroke-linejoin:miter;stroke-width:1.875;"/>
   </g>
   <g id="patch_30">
    <path d="M 90.69 648.06 
L 1420.56 648.06 
" style="fill:none;stroke:#cccccc;stroke-linecap:square;stroke-linejoin:miter;stroke-width:1.875;"/>
   </g>
   <g id="patch_31">
    <path d="M 90.69 22.551336 
L 1420.56 22.551336 
" style="fill:none;stroke:#cccccc;stroke-linecap:square;stroke-linejoin:miter;stroke-width:1.875;"/>
   </g>
   <g id="legend_1">
    <g id="patch_32">
     <path d="M 102.24 639.81 
L 211.170937 639.81 
Q 214.470937 639.81 214.470937 636.51 
L 214.470937 491.394844 
Q 214.470937 488.094844 211.170937 488.094844 
L 102.24 488.094844 
Q 98.94 488.094844 98.94 491.394844 
L 98.94 636.51 
Q 98.94 639.81 102.24 639.81 
z
" style="fill:#ffffff;opacity:0.8;stroke:#cccccc;stroke-linejoin:miter;stroke-width:1.5;"/>
    </g>
    <g id="text_16">
     <!-- K-Means -->
     <g style="fill:#262626;" transform="translate(119.290781 508.372031)scale(0.18 -0.18)">
      <defs>
       <path d="M 9.8125 72.90625 
L 19.671875 72.90625 
L 19.671875 42.09375 
L 52.390625 72.90625 
L 65.09375 72.90625 
L 28.90625 38.921875 
L 67.671875 0 
L 54.6875 0 
L 19.671875 35.109375 
L 19.671875 0 
L 9.8125 0 
z
" id="DejaVuSans-75"/>
       <path d="M 9.8125 72.90625 
L 24.515625 72.90625 
L 43.109375 23.296875 
L 61.8125 72.90625 
L 76.515625 72.90625 
L 76.515625 0 
L 66.890625 0 
L 66.890625 64.015625 
L 48.09375 14.015625 
L 38.1875 14.015625 
L 19.390625 64.015625 
L 19.390625 0 
L 9.8125 0 
z
" id="DejaVuSans-77"/>
      </defs>
      <use xlink:href="#DejaVuSans-75"/>
      <use x="55.076172" xlink:href="#DejaVuSans-45"/>
      <use x="91.160156" xlink:href="#DejaVuSans-77"/>
      <use x="177.439453" xlink:href="#DejaVuSans-101"/>
      <use x="238.962891" xlink:href="#DejaVuSans-97"/>
      <use x="300.242188" xlink:href="#DejaVuSans-110"/>
      <use x="363.621094" xlink:href="#DejaVuSans-115"/>
     </g>
    </g>
    <g id="patch_33">
     <path d="M 105.54 532.902891 
L 138.54 532.902891 
L 138.54 521.352891 
L 105.54 521.352891 
z
" style="fill:#96cac1;stroke:#666666;stroke-linejoin:miter;stroke-width:1.125;"/>
    </g>
    <g id="text_17">
     <!-- K = 2 -->
     <g style="fill:#262626;" transform="translate(151.74 532.902891)scale(0.165 -0.165)">
      <defs>
       <path d="M 10.59375 45.40625 
L 73.1875 45.40625 
L 73.1875 37.203125 
L 10.59375 37.203125 
z
M 10.59375 25.484375 
L 73.1875 25.484375 
L 73.1875 17.1875 
L 10.59375 17.1875 
z
" id="DejaVuSans-61"/>
      </defs>
      <use xlink:href="#DejaVuSans-75"/>
      <use x="65.576172" xlink:href="#DejaVuSans-32"/>
      <use x="97.363281" xlink:href="#DejaVuSans-61"/>
      <use x="181.152344" xlink:href="#DejaVuSans-32"/>
      <use x="212.939453" xlink:href="#DejaVuSans-50"/>
     </g>
    </g>
    <g id="patch_34">
     <path d="M 105.54 557.121797 
L 138.54 557.121797 
L 138.54 545.571797 
L 105.54 545.571797 
z
" style="fill:#f6f6bc;stroke:#666666;stroke-linejoin:miter;stroke-width:1.125;"/>
    </g>
    <g id="text_18">
     <!-- K = 4 -->
     <g style="fill:#262626;" transform="translate(151.74 557.121797)scale(0.165 -0.165)">
      <use xlink:href="#DejaVuSans-75"/>
      <use x="65.576172" xlink:href="#DejaVuSans-32"/>
      <use x="97.363281" xlink:href="#DejaVuSans-61"/>
      <use x="181.152344" xlink:href="#DejaVuSans-32"/>
      <use x="212.939453" xlink:href="#DejaVuSans-52"/>
     </g>
    </g>
    <g id="patch_35">
     <path d="M 105.54 581.340703 
L 138.54 581.340703 
L 138.54 569.790703 
L 105.54 569.790703 
z
" style="fill:#c1bed6;stroke:#666666;stroke-linejoin:miter;stroke-width:1.125;"/>
    </g>
    <g id="text_19">
     <!-- K = 6 -->
     <g style="fill:#262626;" transform="translate(151.74 581.340703)scale(0.165 -0.165)">
      <defs>
       <path d="M 33.015625 40.375 
Q 26.375 40.375 22.484375 35.828125 
Q 18.609375 31.296875 18.609375 23.390625 
Q 18.609375 15.53125 22.484375 10.953125 
Q 26.375 6.390625 33.015625 6.390625 
Q 39.65625 6.390625 43.53125 10.953125 
Q 47.40625 15.53125 47.40625 23.390625 
Q 47.40625 31.296875 43.53125 35.828125 
Q 39.65625 40.375 33.015625 40.375 
z
M 52.59375 71.296875 
L 52.59375 62.3125 
Q 48.875 64.0625 45.09375 64.984375 
Q 41.3125 65.921875 37.59375 65.921875 
Q 27.828125 65.921875 22.671875 59.328125 
Q 17.53125 52.734375 16.796875 39.40625 
Q 19.671875 43.65625 24.015625 45.921875 
Q 28.375 48.1875 33.59375 48.1875 
Q 44.578125 48.1875 50.953125 41.515625 
Q 57.328125 34.859375 57.328125 23.390625 
Q 57.328125 12.15625 50.6875 5.359375 
Q 44.046875 -1.421875 33.015625 -1.421875 
Q 20.359375 -1.421875 13.671875 8.265625 
Q 6.984375 17.96875 6.984375 36.375 
Q 6.984375 53.65625 15.1875 63.9375 
Q 23.390625 74.21875 37.203125 74.21875 
Q 40.921875 74.21875 44.703125 73.484375 
Q 48.484375 72.75 52.59375 71.296875 
z
" id="DejaVuSans-54"/>
      </defs>
      <use xlink:href="#DejaVuSans-75"/>
      <use x="65.576172" xlink:href="#DejaVuSans-32"/>
      <use x="97.363281" xlink:href="#DejaVuSans-61"/>
      <use x="181.152344" xlink:href="#DejaVuSans-32"/>
      <use x="212.939453" xlink:href="#DejaVuSans-54"/>
     </g>
    </g>
    <g id="patch_36">
     <path d="M 105.54 605.559609 
L 138.54 605.559609 
L 138.54 594.009609 
L 105.54 594.009609 
z
" style="fill:#ea8e83;stroke:#666666;stroke-linejoin:miter;stroke-width:1.125;"/>
    </g>
    <g id="text_20">
     <!-- K = 8 -->
     <g style="fill:#262626;" transform="translate(151.74 605.559609)scale(0.165 -0.165)">
      <defs>
       <path d="M 31.78125 34.625 
Q 24.75 34.625 20.71875 30.859375 
Q 16.703125 27.09375 16.703125 20.515625 
Q 16.703125 13.921875 20.71875 10.15625 
Q 24.75 6.390625 31.78125 6.390625 
Q 38.8125 6.390625 42.859375 10.171875 
Q 46.921875 13.96875 46.921875 20.515625 
Q 46.921875 27.09375 42.890625 30.859375 
Q 38.875 34.625 31.78125 34.625 
z
M 21.921875 38.8125 
Q 15.578125 40.375 12.03125 44.71875 
Q 8.5 49.078125 8.5 55.328125 
Q 8.5 64.0625 14.71875 69.140625 
Q 20.953125 74.21875 31.78125 74.21875 
Q 42.671875 74.21875 48.875 69.140625 
Q 55.078125 64.0625 55.078125 55.328125 
Q 55.078125 49.078125 51.53125 44.71875 
Q 48 40.375 41.703125 38.8125 
Q 48.828125 37.15625 52.796875 32.3125 
Q 56.78125 27.484375 56.78125 20.515625 
Q 56.78125 9.90625 50.3125 4.234375 
Q 43.84375 -1.421875 31.78125 -1.421875 
Q 19.734375 -1.421875 13.25 4.234375 
Q 6.78125 9.90625 6.78125 20.515625 
Q 6.78125 27.484375 10.78125 32.3125 
Q 14.796875 37.15625 21.921875 38.8125 
z
M 18.3125 54.390625 
Q 18.3125 48.734375 21.84375 45.5625 
Q 25.390625 42.390625 31.78125 42.390625 
Q 38.140625 42.390625 41.71875 45.5625 
Q 45.3125 48.734375 45.3125 54.390625 
Q 45.3125 60.0625 41.71875 63.234375 
Q 38.140625 66.40625 31.78125 66.40625 
Q 25.390625 66.40625 21.84375 63.234375 
Q 18.3125 60.0625 18.3125 54.390625 
z
" id="DejaVuSans-56"/>
      </defs>
      <use xlink:href="#DejaVuSans-75"/>
      <use x="65.576172" xlink:href="#DejaVuSans-32"/>
      <use x="97.363281" xlink:href="#DejaVuSans-61"/>
      <use x="181.152344" xlink:href="#DejaVuSans-32"/>
      <use x="212.939453" xlink:href="#DejaVuSans-56"/>
     </g>
    </g>
    <g id="patch_37">
     <path d="M 105.54 629.778516 
L 138.54 629.778516 
L 138.54 618.228516 
L 105.54 618.228516 
z
" style="fill:#8aafc9;stroke:#666666;stroke-linejoin:miter;stroke-width:1.125;"/>
    </g>
    <g id="text_21">
     <!-- K = 10 -->
     <g style="fill:#262626;" transform="translate(151.74 629.778516)scale(0.165 -0.165)">
      <use xlink:href="#DejaVuSans-75"/>
      <use x="65.576172" xlink:href="#DejaVuSans-32"/>
      <use x="97.363281" xlink:href="#DejaVuSans-61"/>
      <use x="181.152344" xlink:href="#DejaVuSans-32"/>
      <use x="212.939453" xlink:href="#DejaVuSans-49"/>
      <use x="276.5625" xlink:href="#DejaVuSans-48"/>
     </g>
    </g>
   </g>
  </g>
 </g>
 <defs>
  <clipPath id="p8900f75e3a">
   <rect height="625.508664" width="1329.87" x="90.69" y="22.551336"/>
  </clipPath>
 </defs>
</svg>
