<?xml version="1.0" encoding="utf-8" standalone="no"?>
<!DOCTYPE svg PUBLIC "-//W3C//DTD SVG 1.1//EN"
  "http://www.w3.org/Graphics/SVG/1.1/DTD/svg11.dtd">
<svg height="720pt" version="1.1" viewBox="0 0 1440 720" width="1440pt" xmlns="http://www.w3.org/2000/svg" xmlns:xlink="http://www.w3.org/1999/xlink">
 <metadata>
  <rdf:RDF xmlns:cc="http://creativecommons.org/ns#" xmlns:dc="http://purl.org/dc/elements/1.1/" xmlns:rdf="http://www.w3.org/1999/02/22-rdf-syntax-ns#">
   <cc:Work>
    <dc:type rdf:resource="http://purl.org/dc/dcmitype/StillImage"/>
    <dc:date>2022-01-25T14:36:07.966523</dc:date>
    <dc:format>image/svg+xml</dc:format>
    <dc:creator>
     <cc:Agent>
      <dc:title>Matplotlib v3.4.3, https://matplotlib.org/</dc:title>
     </cc:Agent>
    </dc:creator>
   </cc:Work>
  </rdf:RDF>
 </metadata>
 <defs>
  <style type="text/css">*{stroke-linecap:butt;stroke-linejoin:round;}</style>
 </defs>
 <g id="figure_1">
  <g id="patch_1">
   <path d="M 0 720 
L 1440 720 
L 1440 0 
L 0 0 
z
" style="fill:#ffffff;"/>
  </g>
  <g id="axes_1">
   <g id="patch_2">
    <path d="M 63.835 670.54 
L 1427.04 670.54 
L 1427.04 12.96 
L 63.835 12.96 
z
" style="fill:#eaeaf2;"/>
   </g>
   <g id="matplotlib.axis_1">
    <g id="xtick_1">
     <g id="text_1">
      <!-- Q1 -->
      <g style="fill:#262626;" transform="translate(283.206927 688.398281)scale(0.11 -0.11)">
       <defs>
        <path d="M 2522 4238 
Q 1834 4238 1429 3725 
Q 1025 3213 1025 2328 
Q 1025 1447 1429 934 
Q 1834 422 2522 422 
Q 3209 422 3611 934 
Q 4013 1447 4013 2328 
Q 4013 3213 3611 3725 
Q 3209 4238 2522 4238 
z
M 3406 84 
L 4238 -825 
L 3475 -825 
L 2784 -78 
Q 2681 -84 2626 -87 
Q 2572 -91 2522 -91 
Q 1538 -91 948 567 
Q 359 1225 359 2328 
Q 359 3434 948 4092 
Q 1538 4750 2522 4750 
Q 3503 4750 4090 4092 
Q 4678 3434 4678 2328 
Q 4678 1516 4351 937 
Q 4025 359 3406 84 
z
" id="DejaVuSans-51" transform="scale(0.015625)"/>
        <path d="M 794 531 
L 1825 531 
L 1825 4091 
L 703 3866 
L 703 4441 
L 1819 4666 
L 2450 4666 
L 2450 531 
L 3481 531 
L 3481 0 
L 794 0 
L 794 531 
z
" id="DejaVuSans-31" transform="scale(0.015625)"/>
       </defs>
       <use xlink:href="#DejaVuSans-51"/>
       <use x="78.710938" xlink:href="#DejaVuSans-31"/>
      </g>
     </g>
    </g>
    <g id="xtick_2">
     <g id="text_2">
      <!-- Q2 -->
      <g style="fill:#262626;" transform="translate(737.608594 688.398281)scale(0.11 -0.11)">
       <defs>
        <path d="M 1228 531 
L 3431 531 
L 3431 0 
L 469 0 
L 469 531 
Q 828 903 1448 1529 
Q 2069 2156 2228 2338 
Q 2531 2678 2651 2914 
Q 2772 3150 2772 3378 
Q 2772 3750 2511 3984 
Q 2250 4219 1831 4219 
Q 1534 4219 1204 4116 
Q 875 4013 500 3803 
L 500 4441 
Q 881 4594 1212 4672 
Q 1544 4750 1819 4750 
Q 2544 4750 2975 4387 
Q 3406 4025 3406 3419 
Q 3406 3131 3298 2873 
Q 3191 2616 2906 2266 
Q 2828 2175 2409 1742 
Q 1991 1309 1228 531 
z
" id="DejaVuSans-32" transform="scale(0.015625)"/>
       </defs>
       <use xlink:href="#DejaVuSans-51"/>
       <use x="78.710938" xlink:href="#DejaVuSans-32"/>
      </g>
     </g>
    </g>
    <g id="xtick_3">
     <g id="text_3">
      <!-- Q4 -->
      <g style="fill:#262626;" transform="translate(1192.01026 688.398281)scale(0.11 -0.11)">
       <defs>
        <path d="M 2419 4116 
L 825 1625 
L 2419 1625 
L 2419 4116 
z
M 2253 4666 
L 3047 4666 
L 3047 1625 
L 3713 1625 
L 3713 1100 
L 3047 1100 
L 3047 0 
L 2419 0 
L 2419 1100 
L 313 1100 
L 313 1709 
L 2253 4666 
z
" id="DejaVuSans-34" transform="scale(0.015625)"/>
       </defs>
       <use xlink:href="#DejaVuSans-51"/>
       <use x="78.710938" xlink:href="#DejaVuSans-34"/>
      </g>
     </g>
    </g>
    <g id="text_4">
     <!-- disk space request - Quartiles -->
     <g style="fill:#262626;" transform="translate(655.989687 703.804062)scale(0.12 -0.12)">
      <defs>
       <path d="M 2906 2969 
L 2906 4863 
L 3481 4863 
L 3481 0 
L 2906 0 
L 2906 525 
Q 2725 213 2448 61 
Q 2172 -91 1784 -91 
Q 1150 -91 751 415 
Q 353 922 353 1747 
Q 353 2572 751 3078 
Q 1150 3584 1784 3584 
Q 2172 3584 2448 3432 
Q 2725 3281 2906 2969 
z
M 947 1747 
Q 947 1113 1208 752 
Q 1469 391 1925 391 
Q 2381 391 2643 752 
Q 2906 1113 2906 1747 
Q 2906 2381 2643 2742 
Q 2381 3103 1925 3103 
Q 1469 3103 1208 2742 
Q 947 2381 947 1747 
z
" id="DejaVuSans-64" transform="scale(0.015625)"/>
       <path d="M 603 3500 
L 1178 3500 
L 1178 0 
L 603 0 
L 603 3500 
z
M 603 4863 
L 1178 4863 
L 1178 4134 
L 603 4134 
L 603 4863 
z
" id="DejaVuSans-69" transform="scale(0.015625)"/>
       <path d="M 2834 3397 
L 2834 2853 
Q 2591 2978 2328 3040 
Q 2066 3103 1784 3103 
Q 1356 3103 1142 2972 
Q 928 2841 928 2578 
Q 928 2378 1081 2264 
Q 1234 2150 1697 2047 
L 1894 2003 
Q 2506 1872 2764 1633 
Q 3022 1394 3022 966 
Q 3022 478 2636 193 
Q 2250 -91 1575 -91 
Q 1294 -91 989 -36 
Q 684 19 347 128 
L 347 722 
Q 666 556 975 473 
Q 1284 391 1588 391 
Q 1994 391 2212 530 
Q 2431 669 2431 922 
Q 2431 1156 2273 1281 
Q 2116 1406 1581 1522 
L 1381 1569 
Q 847 1681 609 1914 
Q 372 2147 372 2553 
Q 372 3047 722 3315 
Q 1072 3584 1716 3584 
Q 2034 3584 2315 3537 
Q 2597 3491 2834 3397 
z
" id="DejaVuSans-73" transform="scale(0.015625)"/>
       <path d="M 581 4863 
L 1159 4863 
L 1159 1991 
L 2875 3500 
L 3609 3500 
L 1753 1863 
L 3688 0 
L 2938 0 
L 1159 1709 
L 1159 0 
L 581 0 
L 581 4863 
z
" id="DejaVuSans-6b" transform="scale(0.015625)"/>
       <path id="DejaVuSans-20" transform="scale(0.015625)"/>
       <path d="M 1159 525 
L 1159 -1331 
L 581 -1331 
L 581 3500 
L 1159 3500 
L 1159 2969 
Q 1341 3281 1617 3432 
Q 1894 3584 2278 3584 
Q 2916 3584 3314 3078 
Q 3713 2572 3713 1747 
Q 3713 922 3314 415 
Q 2916 -91 2278 -91 
Q 1894 -91 1617 61 
Q 1341 213 1159 525 
z
M 3116 1747 
Q 3116 2381 2855 2742 
Q 2594 3103 2138 3103 
Q 1681 3103 1420 2742 
Q 1159 2381 1159 1747 
Q 1159 1113 1420 752 
Q 1681 391 2138 391 
Q 2594 391 2855 752 
Q 3116 1113 3116 1747 
z
" id="DejaVuSans-70" transform="scale(0.015625)"/>
       <path d="M 2194 1759 
Q 1497 1759 1228 1600 
Q 959 1441 959 1056 
Q 959 750 1161 570 
Q 1363 391 1709 391 
Q 2188 391 2477 730 
Q 2766 1069 2766 1631 
L 2766 1759 
L 2194 1759 
z
M 3341 1997 
L 3341 0 
L 2766 0 
L 2766 531 
Q 2569 213 2275 61 
Q 1981 -91 1556 -91 
Q 1019 -91 701 211 
Q 384 513 384 1019 
Q 384 1609 779 1909 
Q 1175 2209 1959 2209 
L 2766 2209 
L 2766 2266 
Q 2766 2663 2505 2880 
Q 2244 3097 1772 3097 
Q 1472 3097 1187 3025 
Q 903 2953 641 2809 
L 641 3341 
Q 956 3463 1253 3523 
Q 1550 3584 1831 3584 
Q 2591 3584 2966 3190 
Q 3341 2797 3341 1997 
z
" id="DejaVuSans-61" transform="scale(0.015625)"/>
       <path d="M 3122 3366 
L 3122 2828 
Q 2878 2963 2633 3030 
Q 2388 3097 2138 3097 
Q 1578 3097 1268 2742 
Q 959 2388 959 1747 
Q 959 1106 1268 751 
Q 1578 397 2138 397 
Q 2388 397 2633 464 
Q 2878 531 3122 666 
L 3122 134 
Q 2881 22 2623 -34 
Q 2366 -91 2075 -91 
Q 1284 -91 818 406 
Q 353 903 353 1747 
Q 353 2603 823 3093 
Q 1294 3584 2113 3584 
Q 2378 3584 2631 3529 
Q 2884 3475 3122 3366 
z
" id="DejaVuSans-63" transform="scale(0.015625)"/>
       <path d="M 3597 1894 
L 3597 1613 
L 953 1613 
Q 991 1019 1311 708 
Q 1631 397 2203 397 
Q 2534 397 2845 478 
Q 3156 559 3463 722 
L 3463 178 
Q 3153 47 2828 -22 
Q 2503 -91 2169 -91 
Q 1331 -91 842 396 
Q 353 884 353 1716 
Q 353 2575 817 3079 
Q 1281 3584 2069 3584 
Q 2775 3584 3186 3129 
Q 3597 2675 3597 1894 
z
M 3022 2063 
Q 3016 2534 2758 2815 
Q 2500 3097 2075 3097 
Q 1594 3097 1305 2825 
Q 1016 2553 972 2059 
L 3022 2063 
z
" id="DejaVuSans-65" transform="scale(0.015625)"/>
       <path d="M 2631 2963 
Q 2534 3019 2420 3045 
Q 2306 3072 2169 3072 
Q 1681 3072 1420 2755 
Q 1159 2438 1159 1844 
L 1159 0 
L 581 0 
L 581 3500 
L 1159 3500 
L 1159 2956 
Q 1341 3275 1631 3429 
Q 1922 3584 2338 3584 
Q 2397 3584 2469 3576 
Q 2541 3569 2628 3553 
L 2631 2963 
z
" id="DejaVuSans-72" transform="scale(0.015625)"/>
       <path d="M 947 1747 
Q 947 1113 1208 752 
Q 1469 391 1925 391 
Q 2381 391 2643 752 
Q 2906 1113 2906 1747 
Q 2906 2381 2643 2742 
Q 2381 3103 1925 3103 
Q 1469 3103 1208 2742 
Q 947 2381 947 1747 
z
M 2906 525 
Q 2725 213 2448 61 
Q 2172 -91 1784 -91 
Q 1150 -91 751 415 
Q 353 922 353 1747 
Q 353 2572 751 3078 
Q 1150 3584 1784 3584 
Q 2172 3584 2448 3432 
Q 2725 3281 2906 2969 
L 2906 3500 
L 3481 3500 
L 3481 -1331 
L 2906 -1331 
L 2906 525 
z
" id="DejaVuSans-71" transform="scale(0.015625)"/>
       <path d="M 544 1381 
L 544 3500 
L 1119 3500 
L 1119 1403 
Q 1119 906 1312 657 
Q 1506 409 1894 409 
Q 2359 409 2629 706 
Q 2900 1003 2900 1516 
L 2900 3500 
L 3475 3500 
L 3475 0 
L 2900 0 
L 2900 538 
Q 2691 219 2414 64 
Q 2138 -91 1772 -91 
Q 1169 -91 856 284 
Q 544 659 544 1381 
z
M 1991 3584 
L 1991 3584 
z
" id="DejaVuSans-75" transform="scale(0.015625)"/>
       <path d="M 1172 4494 
L 1172 3500 
L 2356 3500 
L 2356 3053 
L 1172 3053 
L 1172 1153 
Q 1172 725 1289 603 
Q 1406 481 1766 481 
L 2356 481 
L 2356 0 
L 1766 0 
Q 1100 0 847 248 
Q 594 497 594 1153 
L 594 3053 
L 172 3053 
L 172 3500 
L 594 3500 
L 594 4494 
L 1172 4494 
z
" id="DejaVuSans-74" transform="scale(0.015625)"/>
       <path d="M 313 2009 
L 1997 2009 
L 1997 1497 
L 313 1497 
L 313 2009 
z
" id="DejaVuSans-2d" transform="scale(0.015625)"/>
       <path d="M 603 4863 
L 1178 4863 
L 1178 0 
L 603 0 
L 603 4863 
z
" id="DejaVuSans-6c" transform="scale(0.015625)"/>
      </defs>
      <use xlink:href="#DejaVuSans-64"/>
      <use x="63.476562" xlink:href="#DejaVuSans-69"/>
      <use x="91.259766" xlink:href="#DejaVuSans-73"/>
      <use x="143.359375" xlink:href="#DejaVuSans-6b"/>
      <use x="201.269531" xlink:href="#DejaVuSans-20"/>
      <use x="233.056641" xlink:href="#DejaVuSans-73"/>
      <use x="285.15625" xlink:href="#DejaVuSans-70"/>
      <use x="348.632812" xlink:href="#DejaVuSans-61"/>
      <use x="409.912109" xlink:href="#DejaVuSans-63"/>
      <use x="464.892578" xlink:href="#DejaVuSans-65"/>
      <use x="526.416016" xlink:href="#DejaVuSans-20"/>
      <use x="558.203125" xlink:href="#DejaVuSans-72"/>
      <use x="597.066406" xlink:href="#DejaVuSans-65"/>
      <use x="658.589844" xlink:href="#DejaVuSans-71"/>
      <use x="722.066406" xlink:href="#DejaVuSans-75"/>
      <use x="785.445312" xlink:href="#DejaVuSans-65"/>
      <use x="846.96875" xlink:href="#DejaVuSans-73"/>
      <use x="899.068359" xlink:href="#DejaVuSans-74"/>
      <use x="938.277344" xlink:href="#DejaVuSans-20"/>
      <use x="970.064453" xlink:href="#DejaVuSans-2d"/>
      <use x="1006.148438" xlink:href="#DejaVuSans-20"/>
      <use x="1037.935547" xlink:href="#DejaVuSans-51"/>
      <use x="1116.646484" xlink:href="#DejaVuSans-75"/>
      <use x="1180.025391" xlink:href="#DejaVuSans-61"/>
      <use x="1241.304688" xlink:href="#DejaVuSans-72"/>
      <use x="1282.417969" xlink:href="#DejaVuSans-74"/>
      <use x="1321.626953" xlink:href="#DejaVuSans-69"/>
      <use x="1349.410156" xlink:href="#DejaVuSans-6c"/>
      <use x="1377.193359" xlink:href="#DejaVuSans-65"/>
      <use x="1438.716797" xlink:href="#DejaVuSans-73"/>
     </g>
    </g>
   </g>
   <g id="matplotlib.axis_2">
    <g id="ytick_1">
     <g id="line2d_1">
      <path clip-path="url(#p59566a7994)" d="M 63.835 600.420972 
L 1427.04 600.420972 
" style="fill:none;stroke:#ffffff;stroke-linecap:round;"/>
     </g>
     <g id="text_5">
      <!-- 0.15 -->
      <g style="fill:#262626;" transform="translate(29.842813 604.600113)scale(0.11 -0.11)">
       <defs>
        <path d="M 2034 4250 
Q 1547 4250 1301 3770 
Q 1056 3291 1056 2328 
Q 1056 1369 1301 889 
Q 1547 409 2034 409 
Q 2525 409 2770 889 
Q 3016 1369 3016 2328 
Q 3016 3291 2770 3770 
Q 2525 4250 2034 4250 
z
M 2034 4750 
Q 2819 4750 3233 4129 
Q 3647 3509 3647 2328 
Q 3647 1150 3233 529 
Q 2819 -91 2034 -91 
Q 1250 -91 836 529 
Q 422 1150 422 2328 
Q 422 3509 836 4129 
Q 1250 4750 2034 4750 
z
" id="DejaVuSans-30" transform="scale(0.015625)"/>
        <path d="M 684 794 
L 1344 794 
L 1344 0 
L 684 0 
L 684 794 
z
" id="DejaVuSans-2e" transform="scale(0.015625)"/>
        <path d="M 691 4666 
L 3169 4666 
L 3169 4134 
L 1269 4134 
L 1269 2991 
Q 1406 3038 1543 3061 
Q 1681 3084 1819 3084 
Q 2600 3084 3056 2656 
Q 3513 2228 3513 1497 
Q 3513 744 3044 326 
Q 2575 -91 1722 -91 
Q 1428 -91 1123 -41 
Q 819 9 494 109 
L 494 744 
Q 775 591 1075 516 
Q 1375 441 1709 441 
Q 2250 441 2565 725 
Q 2881 1009 2881 1497 
Q 2881 1984 2565 2268 
Q 2250 2553 1709 2553 
Q 1456 2553 1204 2497 
Q 953 2441 691 2322 
L 691 4666 
z
" id="DejaVuSans-35" transform="scale(0.015625)"/>
       </defs>
       <use xlink:href="#DejaVuSans-30"/>
       <use x="63.623047" xlink:href="#DejaVuSans-2e"/>
       <use x="95.410156" xlink:href="#DejaVuSans-31"/>
       <use x="159.033203" xlink:href="#DejaVuSans-35"/>
      </g>
     </g>
    </g>
    <g id="ytick_2">
     <g id="line2d_2">
      <path clip-path="url(#p59566a7994)" d="M 63.835 524.868895 
L 1427.04 524.868895 
" style="fill:none;stroke:#ffffff;stroke-linecap:round;"/>
     </g>
     <g id="text_6">
      <!-- 0.20 -->
      <g style="fill:#262626;" transform="translate(29.842813 529.048036)scale(0.11 -0.11)">
       <use xlink:href="#DejaVuSans-30"/>
       <use x="63.623047" xlink:href="#DejaVuSans-2e"/>
       <use x="95.410156" xlink:href="#DejaVuSans-32"/>
       <use x="159.033203" xlink:href="#DejaVuSans-30"/>
      </g>
     </g>
    </g>
    <g id="ytick_3">
     <g id="line2d_3">
      <path clip-path="url(#p59566a7994)" d="M 63.835 449.316818 
L 1427.04 449.316818 
" style="fill:none;stroke:#ffffff;stroke-linecap:round;"/>
     </g>
     <g id="text_7">
      <!-- 0.25 -->
      <g style="fill:#262626;" transform="translate(29.842813 453.495959)scale(0.11 -0.11)">
       <use xlink:href="#DejaVuSans-30"/>
       <use x="63.623047" xlink:href="#DejaVuSans-2e"/>
       <use x="95.410156" xlink:href="#DejaVuSans-32"/>
       <use x="159.033203" xlink:href="#DejaVuSans-35"/>
      </g>
     </g>
    </g>
    <g id="ytick_4">
     <g id="line2d_4">
      <path clip-path="url(#p59566a7994)" d="M 63.835 373.764742 
L 1427.04 373.764742 
" style="fill:none;stroke:#ffffff;stroke-linecap:round;"/>
     </g>
     <g id="text_8">
      <!-- 0.30 -->
      <g style="fill:#262626;" transform="translate(29.842813 377.943882)scale(0.11 -0.11)">
       <defs>
        <path d="M 2597 2516 
Q 3050 2419 3304 2112 
Q 3559 1806 3559 1356 
Q 3559 666 3084 287 
Q 2609 -91 1734 -91 
Q 1441 -91 1130 -33 
Q 819 25 488 141 
L 488 750 
Q 750 597 1062 519 
Q 1375 441 1716 441 
Q 2309 441 2620 675 
Q 2931 909 2931 1356 
Q 2931 1769 2642 2001 
Q 2353 2234 1838 2234 
L 1294 2234 
L 1294 2753 
L 1863 2753 
Q 2328 2753 2575 2939 
Q 2822 3125 2822 3475 
Q 2822 3834 2567 4026 
Q 2313 4219 1838 4219 
Q 1578 4219 1281 4162 
Q 984 4106 628 3988 
L 628 4550 
Q 988 4650 1302 4700 
Q 1616 4750 1894 4750 
Q 2613 4750 3031 4423 
Q 3450 4097 3450 3541 
Q 3450 3153 3228 2886 
Q 3006 2619 2597 2516 
z
" id="DejaVuSans-33" transform="scale(0.015625)"/>
       </defs>
       <use xlink:href="#DejaVuSans-30"/>
       <use x="63.623047" xlink:href="#DejaVuSans-2e"/>
       <use x="95.410156" xlink:href="#DejaVuSans-33"/>
       <use x="159.033203" xlink:href="#DejaVuSans-30"/>
      </g>
     </g>
    </g>
    <g id="ytick_5">
     <g id="line2d_5">
      <path clip-path="url(#p59566a7994)" d="M 63.835 298.212665 
L 1427.04 298.212665 
" style="fill:none;stroke:#ffffff;stroke-linecap:round;"/>
     </g>
     <g id="text_9">
      <!-- 0.35 -->
      <g style="fill:#262626;" transform="translate(29.842813 302.391806)scale(0.11 -0.11)">
       <use xlink:href="#DejaVuSans-30"/>
       <use x="63.623047" xlink:href="#DejaVuSans-2e"/>
       <use x="95.410156" xlink:href="#DejaVuSans-33"/>
       <use x="159.033203" xlink:href="#DejaVuSans-35"/>
      </g>
     </g>
    </g>
    <g id="ytick_6">
     <g id="line2d_6">
      <path clip-path="url(#p59566a7994)" d="M 63.835 222.660588 
L 1427.04 222.660588 
" style="fill:none;stroke:#ffffff;stroke-linecap:round;"/>
     </g>
     <g id="text_10">
      <!-- 0.40 -->
      <g style="fill:#262626;" transform="translate(29.842813 226.839729)scale(0.11 -0.11)">
       <use xlink:href="#DejaVuSans-30"/>
       <use x="63.623047" xlink:href="#DejaVuSans-2e"/>
       <use x="95.410156" xlink:href="#DejaVuSans-34"/>
       <use x="159.033203" xlink:href="#DejaVuSans-30"/>
      </g>
     </g>
    </g>
    <g id="ytick_7">
     <g id="line2d_7">
      <path clip-path="url(#p59566a7994)" d="M 63.835 147.108511 
L 1427.04 147.108511 
" style="fill:none;stroke:#ffffff;stroke-linecap:round;"/>
     </g>
     <g id="text_11">
      <!-- 0.45 -->
      <g style="fill:#262626;" transform="translate(29.842813 151.287652)scale(0.11 -0.11)">
       <use xlink:href="#DejaVuSans-30"/>
       <use x="63.623047" xlink:href="#DejaVuSans-2e"/>
       <use x="95.410156" xlink:href="#DejaVuSans-34"/>
       <use x="159.033203" xlink:href="#DejaVuSans-35"/>
      </g>
     </g>
    </g>
    <g id="ytick_8">
     <g id="line2d_8">
      <path clip-path="url(#p59566a7994)" d="M 63.835 71.556435 
L 1427.04 71.556435 
" style="fill:none;stroke:#ffffff;stroke-linecap:round;"/>
     </g>
     <g id="text_12">
      <!-- 0.50 -->
      <g style="fill:#262626;" transform="translate(29.842813 75.735575)scale(0.11 -0.11)">
       <use xlink:href="#DejaVuSans-30"/>
       <use x="63.623047" xlink:href="#DejaVuSans-2e"/>
       <use x="95.410156" xlink:href="#DejaVuSans-35"/>
       <use x="159.033203" xlink:href="#DejaVuSans-30"/>
      </g>
     </g>
    </g>
    <g id="text_13">
     <!-- proportion -->
     <g style="fill:#262626;" transform="translate(23.347187 373.001562)rotate(-90)scale(0.12 -0.12)">
      <defs>
       <path d="M 1959 3097 
Q 1497 3097 1228 2736 
Q 959 2375 959 1747 
Q 959 1119 1226 758 
Q 1494 397 1959 397 
Q 2419 397 2687 759 
Q 2956 1122 2956 1747 
Q 2956 2369 2687 2733 
Q 2419 3097 1959 3097 
z
M 1959 3584 
Q 2709 3584 3137 3096 
Q 3566 2609 3566 1747 
Q 3566 888 3137 398 
Q 2709 -91 1959 -91 
Q 1206 -91 779 398 
Q 353 888 353 1747 
Q 353 2609 779 3096 
Q 1206 3584 1959 3584 
z
" id="DejaVuSans-6f" transform="scale(0.015625)"/>
       <path d="M 3513 2113 
L 3513 0 
L 2938 0 
L 2938 2094 
Q 2938 2591 2744 2837 
Q 2550 3084 2163 3084 
Q 1697 3084 1428 2787 
Q 1159 2491 1159 1978 
L 1159 0 
L 581 0 
L 581 3500 
L 1159 3500 
L 1159 2956 
Q 1366 3272 1645 3428 
Q 1925 3584 2291 3584 
Q 2894 3584 3203 3211 
Q 3513 2838 3513 2113 
z
" id="DejaVuSans-6e" transform="scale(0.015625)"/>
      </defs>
      <use xlink:href="#DejaVuSans-70"/>
      <use x="63.476562" xlink:href="#DejaVuSans-72"/>
      <use x="102.339844" xlink:href="#DejaVuSans-6f"/>
      <use x="163.521484" xlink:href="#DejaVuSans-70"/>
      <use x="226.998047" xlink:href="#DejaVuSans-6f"/>
      <use x="288.179688" xlink:href="#DejaVuSans-72"/>
      <use x="329.292969" xlink:href="#DejaVuSans-74"/>
      <use x="368.501953" xlink:href="#DejaVuSans-69"/>
      <use x="396.285156" xlink:href="#DejaVuSans-6f"/>
      <use x="457.466797" xlink:href="#DejaVuSans-6e"/>
     </g>
    </g>
   </g>
   <g id="patch_3">
    <path clip-path="url(#p59566a7994)" d="M 110.002209 575.427596 
L 181.252391 575.427596 
L 181.252391 455.332002 
L 110.002209 455.332002 
L 110.002209 575.427596 
z
" style="fill:#96cac1;stroke:#666666;stroke-linejoin:miter;stroke-width:1.5;"/>
   </g>
   <g id="patch_4">
    <path clip-path="url(#p59566a7994)" d="M 182.706476 485.185669 
L 253.956657 485.185669 
L 253.956657 397.218448 
L 182.706476 397.218448 
L 182.706476 485.185669 
z
" style="fill:#f6f6bc;stroke:#666666;stroke-linejoin:miter;stroke-width:1.5;"/>
   </g>
   <g id="patch_5">
    <path clip-path="url(#p59566a7994)" d="M 255.410743 463.615564 
L 326.660924 463.615564 
L 326.660924 401.115254 
L 255.410743 401.115254 
L 255.410743 463.615564 
z
" style="fill:#c1bed6;stroke:#666666;stroke-linejoin:miter;stroke-width:1.5;"/>
   </g>
   <g id="patch_6">
    <path clip-path="url(#p59566a7994)" d="M 328.115009 450.827419 
L 399.365191 450.827419 
L 399.365191 405.549433 
L 328.115009 405.549433 
L 328.115009 450.827419 
z
" style="fill:#ea8e83;stroke:#666666;stroke-linejoin:miter;stroke-width:1.5;"/>
   </g>
   <g id="patch_7">
    <path clip-path="url(#p59566a7994)" d="M 564.403876 212.831589 
L 635.654057 212.831589 
L 635.654057 107.823693 
L 564.403876 107.823693 
L 564.403876 212.831589 
z
" style="fill:#96cac1;stroke:#666666;stroke-linejoin:miter;stroke-width:1.5;"/>
   </g>
   <g id="patch_8">
    <path clip-path="url(#p59566a7994)" d="M 637.108143 151.230943 
L 708.358324 151.230943 
L 708.358324 90.599116 
L 637.108143 90.599116 
L 637.108143 151.230943 
z
" style="fill:#f6f6bc;stroke:#666666;stroke-linejoin:miter;stroke-width:1.5;"/>
   </g>
   <g id="patch_9">
    <path clip-path="url(#p59566a7994)" d="M 709.812409 197.775228 
L 781.062591 197.775228 
L 781.062591 52.95989 
L 709.812409 52.95989 
L 709.812409 197.775228 
z
" style="fill:#c1bed6;stroke:#666666;stroke-linejoin:miter;stroke-width:1.5;"/>
   </g>
   <g id="patch_10">
    <path clip-path="url(#p59566a7994)" d="M 782.516676 224.500156 
L 853.766857 224.500156 
L 853.766857 60.626895 
L 782.516676 60.626895 
L 782.516676 224.500156 
z
" style="fill:#ea8e83;stroke:#666666;stroke-linejoin:miter;stroke-width:1.5;"/>
   </g>
   <g id="patch_11">
    <path clip-path="url(#p59566a7994)" d="M 1018.805543 407.034377 
L 1090.055724 407.034377 
L 1090.055724 181.930886 
L 1018.805543 181.930886 
L 1018.805543 407.034377 
z
" style="fill:#96cac1;stroke:#666666;stroke-linejoin:miter;stroke-width:1.5;"/>
   </g>
   <g id="patch_12">
    <path clip-path="url(#p59566a7994)" d="M 1091.509809 482.372508 
L 1162.759991 482.372508 
L 1162.759991 333.773459 
L 1091.509809 333.773459 
L 1091.509809 482.372508 
z
" style="fill:#f6f6bc;stroke:#666666;stroke-linejoin:miter;stroke-width:1.5;"/>
   </g>
   <g id="patch_13">
    <path clip-path="url(#p59566a7994)" d="M 1164.214076 507.809142 
L 1235.464257 507.809142 
L 1235.464257 308.799279 
L 1164.214076 308.799279 
L 1164.214076 507.809142 
z
" style="fill:#c1bed6;stroke:#666666;stroke-linejoin:miter;stroke-width:1.5;"/>
   </g>
   <g id="patch_14">
    <path clip-path="url(#p59566a7994)" d="M 1236.918343 511.397616 
L 1308.168524 511.397616 
L 1308.168524 287.30762 
L 1236.918343 287.30762 
L 1236.918343 511.397616 
z
" style="fill:#ea8e83;stroke:#666666;stroke-linejoin:miter;stroke-width:1.5;"/>
   </g>
   <g id="patch_15">
    <path clip-path="url(#p59566a7994)" d="M 291.035833 827.077202 
L 291.035833 827.077202 
L 291.035833 827.077202 
L 291.035833 827.077202 
z
" style="fill:#96cac1;stroke:#666666;stroke-linejoin:miter;stroke-width:0.75;"/>
   </g>
   <g id="patch_16">
    <path clip-path="url(#p59566a7994)" d="M 291.035833 827.077202 
L 291.035833 827.077202 
L 291.035833 827.077202 
L 291.035833 827.077202 
z
" style="fill:#f6f6bc;stroke:#666666;stroke-linejoin:miter;stroke-width:0.75;"/>
   </g>
   <g id="patch_17">
    <path clip-path="url(#p59566a7994)" d="M 291.035833 827.077202 
L 291.035833 827.077202 
L 291.035833 827.077202 
L 291.035833 827.077202 
z
" style="fill:#c1bed6;stroke:#666666;stroke-linejoin:miter;stroke-width:0.75;"/>
   </g>
   <g id="patch_18">
    <path clip-path="url(#p59566a7994)" d="M 291.035833 827.077202 
L 291.035833 827.077202 
L 291.035833 827.077202 
L 291.035833 827.077202 
z
" style="fill:#ea8e83;stroke:#666666;stroke-linejoin:miter;stroke-width:0.75;"/>
   </g>
   <g id="patch_19">
    <path clip-path="url(#p59566a7994)" d="M 291.035833 827.077202 
L 291.035833 827.077202 
L 291.035833 827.077202 
L 291.035833 827.077202 
z
" style="fill:#8aafc9;stroke:#666666;stroke-linejoin:miter;stroke-width:0.75;"/>
   </g>
   <g id="line2d_9">
    <path clip-path="url(#p59566a7994)" d="M 145.6273 575.427596 
L 145.6273 635.475394 
" style="fill:none;stroke:#666666;stroke-linecap:round;stroke-width:1.5;"/>
   </g>
   <g id="line2d_10">
    <path clip-path="url(#p59566a7994)" d="M 145.6273 455.332002 
L 145.6273 395.284204 
" style="fill:none;stroke:#666666;stroke-linecap:round;stroke-width:1.5;"/>
   </g>
   <g id="line2d_11">
    <path clip-path="url(#p59566a7994)" d="M 127.814755 635.475394 
L 163.439845 635.475394 
" style="fill:none;stroke:#666666;stroke-linecap:round;stroke-width:1.5;"/>
   </g>
   <g id="line2d_12">
    <path clip-path="url(#p59566a7994)" d="M 127.814755 395.284204 
L 163.439845 395.284204 
" style="fill:none;stroke:#666666;stroke-linecap:round;stroke-width:1.5;"/>
   </g>
   <g id="line2d_13"/>
   <g id="line2d_14">
    <path clip-path="url(#p59566a7994)" d="M 218.331567 485.185669 
L 218.331567 485.185669 
" style="fill:none;stroke:#666666;stroke-linecap:round;stroke-width:1.5;"/>
   </g>
   <g id="line2d_15">
    <path clip-path="url(#p59566a7994)" d="M 218.331567 397.218448 
L 218.331567 393.799387 
" style="fill:none;stroke:#666666;stroke-linecap:round;stroke-width:1.5;"/>
   </g>
   <g id="line2d_16">
    <path clip-path="url(#p59566a7994)" d="M 200.519021 485.185669 
L 236.144112 485.185669 
" style="fill:none;stroke:#666666;stroke-linecap:round;stroke-width:1.5;"/>
   </g>
   <g id="line2d_17">
    <path clip-path="url(#p59566a7994)" d="M 200.519021 393.799387 
L 236.144112 393.799387 
" style="fill:none;stroke:#666666;stroke-linecap:round;stroke-width:1.5;"/>
   </g>
   <g id="line2d_18">
    <defs>
     <path d="M -0 3.535534 
L 2.12132 0 
L -0 -3.535534 
L -2.12132 -0 
z
" id="m518d3eaa9b" style="stroke:#666666;stroke-linejoin:miter;"/>
    </defs>
    <g clip-path="url(#p59566a7994)">
     <use style="fill:#666666;stroke:#666666;stroke-linejoin:miter;" x="218.331567" xlink:href="#m518d3eaa9b" y="634.921631"/>
    </g>
   </g>
   <g id="line2d_19">
    <path clip-path="url(#p59566a7994)" d="M 291.035833 463.615564 
L 291.035833 477.955692 
" style="fill:none;stroke:#666666;stroke-linecap:round;stroke-width:1.5;"/>
   </g>
   <g id="line2d_20">
    <path clip-path="url(#p59566a7994)" d="M 291.035833 401.115254 
L 291.035833 392.856287 
" style="fill:none;stroke:#666666;stroke-linecap:round;stroke-width:1.5;"/>
   </g>
   <g id="line2d_21">
    <path clip-path="url(#p59566a7994)" d="M 273.223288 477.955692 
L 308.848379 477.955692 
" style="fill:none;stroke:#666666;stroke-linecap:round;stroke-width:1.5;"/>
   </g>
   <g id="line2d_22">
    <path clip-path="url(#p59566a7994)" d="M 273.223288 392.856287 
L 308.848379 392.856287 
" style="fill:none;stroke:#666666;stroke-linecap:round;stroke-width:1.5;"/>
   </g>
   <g id="line2d_23">
    <g clip-path="url(#p59566a7994)">
     <use style="fill:#666666;stroke:#666666;stroke-linejoin:miter;" x="291.035833" xlink:href="#m518d3eaa9b" y="634.364659"/>
    </g>
   </g>
   <g id="line2d_24">
    <path clip-path="url(#p59566a7994)" d="M 363.7401 450.827419 
L 363.7401 499.68487 
" style="fill:none;stroke:#666666;stroke-linecap:round;stroke-width:1.5;"/>
   </g>
   <g id="line2d_25">
    <path clip-path="url(#p59566a7994)" d="M 363.7401 405.549433 
L 363.7401 392.88639 
" style="fill:none;stroke:#666666;stroke-linecap:round;stroke-width:1.5;"/>
   </g>
   <g id="line2d_26">
    <path clip-path="url(#p59566a7994)" d="M 345.927555 499.68487 
L 381.552645 499.68487 
" style="fill:none;stroke:#666666;stroke-linecap:round;stroke-width:1.5;"/>
   </g>
   <g id="line2d_27">
    <path clip-path="url(#p59566a7994)" d="M 345.927555 392.88639 
L 381.552645 392.88639 
" style="fill:none;stroke:#666666;stroke-linecap:round;stroke-width:1.5;"/>
   </g>
   <g id="line2d_28">
    <g clip-path="url(#p59566a7994)">
     <use style="fill:#666666;stroke:#666666;stroke-linejoin:miter;" x="363.7401" xlink:href="#m518d3eaa9b" y="640.65"/>
    </g>
   </g>
   <g id="line2d_29">
    <path clip-path="url(#p59566a7994)" d="M 600.028967 212.831589 
L 600.028967 265.335536 
" style="fill:none;stroke:#666666;stroke-linecap:round;stroke-width:1.5;"/>
   </g>
   <g id="line2d_30">
    <path clip-path="url(#p59566a7994)" d="M 600.028967 107.823693 
L 600.028967 55.319745 
" style="fill:none;stroke:#666666;stroke-linecap:round;stroke-width:1.5;"/>
   </g>
   <g id="line2d_31">
    <path clip-path="url(#p59566a7994)" d="M 582.216421 265.335536 
L 617.841512 265.335536 
" style="fill:none;stroke:#666666;stroke-linecap:round;stroke-width:1.5;"/>
   </g>
   <g id="line2d_32">
    <path clip-path="url(#p59566a7994)" d="M 582.216421 55.319745 
L 617.841512 55.319745 
" style="fill:none;stroke:#666666;stroke-linecap:round;stroke-width:1.5;"/>
   </g>
   <g id="line2d_33"/>
   <g id="line2d_34">
    <path clip-path="url(#p59566a7994)" d="M 672.733233 151.230943 
L 672.733233 151.230943 
" style="fill:none;stroke:#666666;stroke-linecap:round;stroke-width:1.5;"/>
   </g>
   <g id="line2d_35">
    <path clip-path="url(#p59566a7994)" d="M 672.733233 90.599116 
L 672.733233 43.012061 
" style="fill:none;stroke:#666666;stroke-linecap:round;stroke-width:1.5;"/>
   </g>
   <g id="line2d_36">
    <path clip-path="url(#p59566a7994)" d="M 654.920688 151.230943 
L 690.545779 151.230943 
" style="fill:none;stroke:#666666;stroke-linecap:round;stroke-width:1.5;"/>
   </g>
   <g id="line2d_37">
    <path clip-path="url(#p59566a7994)" d="M 654.920688 43.012061 
L 690.545779 43.012061 
" style="fill:none;stroke:#666666;stroke-linecap:round;stroke-width:1.5;"/>
   </g>
   <g id="line2d_38">
    <g clip-path="url(#p59566a7994)">
     <use style="fill:#666666;stroke:#666666;stroke-linejoin:miter;" x="672.733233" xlink:href="#m518d3eaa9b" y="268.079178"/>
    </g>
   </g>
   <g id="line2d_39">
    <path clip-path="url(#p59566a7994)" d="M 745.4375 197.775228 
L 745.4375 266.458893 
" style="fill:none;stroke:#666666;stroke-linecap:round;stroke-width:1.5;"/>
   </g>
   <g id="line2d_40">
    <path clip-path="url(#p59566a7994)" d="M 745.4375 52.95989 
L 745.4375 43.238373 
" style="fill:none;stroke:#666666;stroke-linecap:round;stroke-width:1.5;"/>
   </g>
   <g id="line2d_41">
    <path clip-path="url(#p59566a7994)" d="M 727.624955 266.458893 
L 763.250045 266.458893 
" style="fill:none;stroke:#666666;stroke-linecap:round;stroke-width:1.5;"/>
   </g>
   <g id="line2d_42">
    <path clip-path="url(#p59566a7994)" d="M 727.624955 43.238373 
L 763.250045 43.238373 
" style="fill:none;stroke:#666666;stroke-linecap:round;stroke-width:1.5;"/>
   </g>
   <g id="line2d_43"/>
   <g id="line2d_44">
    <path clip-path="url(#p59566a7994)" d="M 818.141767 224.500156 
L 818.141767 253.077658 
" style="fill:none;stroke:#666666;stroke-linecap:round;stroke-width:1.5;"/>
   </g>
   <g id="line2d_45">
    <path clip-path="url(#p59566a7994)" d="M 818.141767 60.626895 
L 818.141767 42.85 
" style="fill:none;stroke:#666666;stroke-linecap:round;stroke-width:1.5;"/>
   </g>
   <g id="line2d_46">
    <path clip-path="url(#p59566a7994)" d="M 800.329221 253.077658 
L 835.954312 253.077658 
" style="fill:none;stroke:#666666;stroke-linecap:round;stroke-width:1.5;"/>
   </g>
   <g id="line2d_47">
    <path clip-path="url(#p59566a7994)" d="M 800.329221 42.85 
L 835.954312 42.85 
" style="fill:none;stroke:#666666;stroke-linecap:round;stroke-width:1.5;"/>
   </g>
   <g id="line2d_48"/>
   <g id="line2d_49">
    <path clip-path="url(#p59566a7994)" d="M 1054.430633 407.034377 
L 1054.430633 519.586122 
" style="fill:none;stroke:#666666;stroke-linecap:round;stroke-width:1.5;"/>
   </g>
   <g id="line2d_50">
    <path clip-path="url(#p59566a7994)" d="M 1054.430633 181.930886 
L 1054.430633 69.379141 
" style="fill:none;stroke:#666666;stroke-linecap:round;stroke-width:1.5;"/>
   </g>
   <g id="line2d_51">
    <path clip-path="url(#p59566a7994)" d="M 1036.618088 519.586122 
L 1072.243179 519.586122 
" style="fill:none;stroke:#666666;stroke-linecap:round;stroke-width:1.5;"/>
   </g>
   <g id="line2d_52">
    <path clip-path="url(#p59566a7994)" d="M 1036.618088 69.379141 
L 1072.243179 69.379141 
" style="fill:none;stroke:#666666;stroke-linecap:round;stroke-width:1.5;"/>
   </g>
   <g id="line2d_53"/>
   <g id="line2d_54">
    <path clip-path="url(#p59566a7994)" d="M 1127.1349 482.372508 
L 1127.1349 533.378623 
" style="fill:none;stroke:#666666;stroke-linecap:round;stroke-width:1.5;"/>
   </g>
   <g id="line2d_55">
    <path clip-path="url(#p59566a7994)" d="M 1127.1349 333.773459 
L 1127.1349 333.773459 
" style="fill:none;stroke:#666666;stroke-linecap:round;stroke-width:1.5;"/>
   </g>
   <g id="line2d_56">
    <path clip-path="url(#p59566a7994)" d="M 1109.322355 533.378623 
L 1144.947445 533.378623 
" style="fill:none;stroke:#666666;stroke-linecap:round;stroke-width:1.5;"/>
   </g>
   <g id="line2d_57">
    <path clip-path="url(#p59566a7994)" d="M 1109.322355 333.773459 
L 1144.947445 333.773459 
" style="fill:none;stroke:#666666;stroke-linecap:round;stroke-width:1.5;"/>
   </g>
   <g id="line2d_58">
    <g clip-path="url(#p59566a7994)">
     <use style="fill:#666666;stroke:#666666;stroke-linejoin:miter;" x="1127.1349" xlink:href="#m518d3eaa9b" y="67.189262"/>
    </g>
   </g>
   <g id="line2d_59">
    <path clip-path="url(#p59566a7994)" d="M 1199.839167 507.809142 
L 1199.839167 534.095411 
" style="fill:none;stroke:#666666;stroke-linecap:round;stroke-width:1.5;"/>
   </g>
   <g id="line2d_60">
    <path clip-path="url(#p59566a7994)" d="M 1199.839167 308.799279 
L 1199.839167 69.366519 
" style="fill:none;stroke:#666666;stroke-linecap:round;stroke-width:1.5;"/>
   </g>
   <g id="line2d_61">
    <path clip-path="url(#p59566a7994)" d="M 1182.026621 534.095411 
L 1217.651712 534.095411 
" style="fill:none;stroke:#666666;stroke-linecap:round;stroke-width:1.5;"/>
   </g>
   <g id="line2d_62">
    <path clip-path="url(#p59566a7994)" d="M 1182.026621 69.366519 
L 1217.651712 69.366519 
" style="fill:none;stroke:#666666;stroke-linecap:round;stroke-width:1.5;"/>
   </g>
   <g id="line2d_63"/>
   <g id="line2d_64">
    <path clip-path="url(#p59566a7994)" d="M 1272.543433 511.397616 
L 1272.543433 534.453681 
" style="fill:none;stroke:#666666;stroke-linecap:round;stroke-width:1.5;"/>
   </g>
   <g id="line2d_65">
    <path clip-path="url(#p59566a7994)" d="M 1272.543433 287.30762 
L 1272.543433 76.462414 
" style="fill:none;stroke:#666666;stroke-linecap:round;stroke-width:1.5;"/>
   </g>
   <g id="line2d_66">
    <path clip-path="url(#p59566a7994)" d="M 1254.730888 534.453681 
L 1290.355979 534.453681 
" style="fill:none;stroke:#666666;stroke-linecap:round;stroke-width:1.5;"/>
   </g>
   <g id="line2d_67">
    <path clip-path="url(#p59566a7994)" d="M 1254.730888 76.462414 
L 1290.355979 76.462414 
" style="fill:none;stroke:#666666;stroke-linecap:round;stroke-width:1.5;"/>
   </g>
   <g id="line2d_68"/>
   <g id="line2d_69">
    <path clip-path="url(#p59566a7994)" d="M 110.002209 515.379799 
L 181.252391 515.379799 
" style="fill:none;stroke:#666666;stroke-linecap:round;stroke-width:1.5;"/>
   </g>
   <g id="line2d_70">
    <path clip-path="url(#p59566a7994)" d="M 182.706476 416.815908 
L 253.956657 416.815908 
" style="fill:none;stroke:#666666;stroke-linecap:round;stroke-width:1.5;"/>
   </g>
   <g id="line2d_71">
    <path clip-path="url(#p59566a7994)" d="M 255.410743 419.09126 
L 326.660924 419.09126 
" style="fill:none;stroke:#666666;stroke-linecap:round;stroke-width:1.5;"/>
   </g>
   <g id="line2d_72">
    <path clip-path="url(#p59566a7994)" d="M 328.115009 420.171721 
L 399.365191 420.171721 
" style="fill:none;stroke:#666666;stroke-linecap:round;stroke-width:1.5;"/>
   </g>
   <g id="line2d_73">
    <path clip-path="url(#p59566a7994)" d="M 564.403876 160.327641 
L 635.654057 160.327641 
" style="fill:none;stroke:#666666;stroke-linecap:round;stroke-width:1.5;"/>
   </g>
   <g id="line2d_74">
    <path clip-path="url(#p59566a7994)" d="M 637.108143 109.3715 
L 708.358324 109.3715 
" style="fill:none;stroke:#666666;stroke-linecap:round;stroke-width:1.5;"/>
   </g>
   <g id="line2d_75">
    <path clip-path="url(#p59566a7994)" d="M 709.812409 128.635506 
L 781.062591 128.635506 
" style="fill:none;stroke:#666666;stroke-linecap:round;stroke-width:1.5;"/>
   </g>
   <g id="line2d_76">
    <path clip-path="url(#p59566a7994)" d="M 782.516676 173.549533 
L 853.766857 173.549533 
" style="fill:none;stroke:#666666;stroke-linecap:round;stroke-width:1.5;"/>
   </g>
   <g id="line2d_77">
    <path clip-path="url(#p59566a7994)" d="M 1018.805543 294.482632 
L 1090.055724 294.482632 
" style="fill:none;stroke:#666666;stroke-linecap:round;stroke-width:1.5;"/>
   </g>
   <g id="line2d_78">
    <path clip-path="url(#p59566a7994)" d="M 1091.509809 444.002664 
L 1162.759991 444.002664 
" style="fill:none;stroke:#666666;stroke-linecap:round;stroke-width:1.5;"/>
   </g>
   <g id="line2d_79">
    <path clip-path="url(#p59566a7994)" d="M 1164.214076 430.76909 
L 1235.464257 430.76909 
" style="fill:none;stroke:#666666;stroke-linecap:round;stroke-width:1.5;"/>
   </g>
   <g id="line2d_80">
    <path clip-path="url(#p59566a7994)" d="M 1236.918343 364.43489 
L 1308.168524 364.43489 
" style="fill:none;stroke:#666666;stroke-linecap:round;stroke-width:1.5;"/>
   </g>
   <g id="patch_20">
    <path d="M 63.835 670.54 
L 63.835 12.96 
" style="fill:none;stroke:#ffffff;stroke-linecap:square;stroke-linejoin:miter;stroke-width:1.25;"/>
   </g>
   <g id="patch_21">
    <path d="M 1427.04 670.54 
L 1427.04 12.96 
" style="fill:none;stroke:#ffffff;stroke-linecap:square;stroke-linejoin:miter;stroke-width:1.25;"/>
   </g>
   <g id="patch_22">
    <path d="M 63.835 670.54 
L 1427.04 670.54 
" style="fill:none;stroke:#ffffff;stroke-linecap:square;stroke-linejoin:miter;stroke-width:1.25;"/>
   </g>
   <g id="patch_23">
    <path d="M 63.835 12.96 
L 1427.04 12.96 
" style="fill:none;stroke:#ffffff;stroke-linecap:square;stroke-linejoin:miter;stroke-width:1.25;"/>
   </g>
   <g id="legend_1">
    <g id="patch_24">
     <path d="M 1346.719375 119.603438 
L 1419.34 119.603438 
Q 1421.54 119.603438 1421.54 117.403438 
L 1421.54 20.66 
Q 1421.54 18.46 1419.34 18.46 
L 1346.719375 18.46 
Q 1344.519375 18.46 1344.519375 20.66 
L 1344.519375 117.403438 
Q 1344.519375 119.603438 1346.719375 119.603438 
z
" style="fill:#eaeaf2;opacity:0.8;stroke:#cccccc;stroke-linejoin:miter;"/>
    </g>
    <g id="text_14">
     <!-- K-Means -->
     <g style="fill:#262626;" transform="translate(1358.086562 31.978125)scale(0.12 -0.12)">
      <defs>
       <path d="M 628 4666 
L 1259 4666 
L 1259 2694 
L 3353 4666 
L 4166 4666 
L 1850 2491 
L 4331 0 
L 3500 0 
L 1259 2247 
L 1259 0 
L 628 0 
L 628 4666 
z
" id="DejaVuSans-4b" transform="scale(0.015625)"/>
       <path d="M 628 4666 
L 1569 4666 
L 2759 1491 
L 3956 4666 
L 4897 4666 
L 4897 0 
L 4281 0 
L 4281 4097 
L 3078 897 
L 2444 897 
L 1241 4097 
L 1241 0 
L 628 0 
L 628 4666 
z
" id="DejaVuSans-4d" transform="scale(0.015625)"/>
      </defs>
      <use xlink:href="#DejaVuSans-4b"/>
      <use x="55.076172" xlink:href="#DejaVuSans-2d"/>
      <use x="91.160156" xlink:href="#DejaVuSans-4d"/>
      <use x="177.439453" xlink:href="#DejaVuSans-65"/>
      <use x="238.962891" xlink:href="#DejaVuSans-61"/>
      <use x="300.242188" xlink:href="#DejaVuSans-6e"/>
      <use x="363.621094" xlink:href="#DejaVuSans-73"/>
     </g>
    </g>
    <g id="patch_25">
     <path d="M 1348.919375 48.332031 
L 1370.919375 48.332031 
L 1370.919375 40.632031 
L 1348.919375 40.632031 
z
" style="fill:#96cac1;stroke:#666666;stroke-linejoin:miter;stroke-width:0.75;"/>
    </g>
    <g id="text_15">
     <!-- K = 2 -->
     <g style="fill:#262626;" transform="translate(1379.719375 48.332031)scale(0.11 -0.11)">
      <defs>
       <path d="M 678 2906 
L 4684 2906 
L 4684 2381 
L 678 2381 
L 678 2906 
z
M 678 1631 
L 4684 1631 
L 4684 1100 
L 678 1100 
L 678 1631 
z
" id="DejaVuSans-3d" transform="scale(0.015625)"/>
      </defs>
      <use xlink:href="#DejaVuSans-4b"/>
      <use x="65.576172" xlink:href="#DejaVuSans-20"/>
      <use x="97.363281" xlink:href="#DejaVuSans-3d"/>
      <use x="181.152344" xlink:href="#DejaVuSans-20"/>
      <use x="212.939453" xlink:href="#DejaVuSans-32"/>
     </g>
    </g>
    <g id="patch_26">
     <path d="M 1348.919375 64.477969 
L 1370.919375 64.477969 
L 1370.919375 56.777969 
L 1348.919375 56.777969 
z
" style="fill:#f6f6bc;stroke:#666666;stroke-linejoin:miter;stroke-width:0.75;"/>
    </g>
    <g id="text_16">
     <!-- K = 4 -->
     <g style="fill:#262626;" transform="translate(1379.719375 64.477969)scale(0.11 -0.11)">
      <use xlink:href="#DejaVuSans-4b"/>
      <use x="65.576172" xlink:href="#DejaVuSans-20"/>
      <use x="97.363281" xlink:href="#DejaVuSans-3d"/>
      <use x="181.152344" xlink:href="#DejaVuSans-20"/>
      <use x="212.939453" xlink:href="#DejaVuSans-34"/>
     </g>
    </g>
    <g id="patch_27">
     <path d="M 1348.919375 80.623906 
L 1370.919375 80.623906 
L 1370.919375 72.923906 
L 1348.919375 72.923906 
z
" style="fill:#c1bed6;stroke:#666666;stroke-linejoin:miter;stroke-width:0.75;"/>
    </g>
    <g id="text_17">
     <!-- K = 6 -->
     <g style="fill:#262626;" transform="translate(1379.719375 80.623906)scale(0.11 -0.11)">
      <defs>
       <path d="M 2113 2584 
Q 1688 2584 1439 2293 
Q 1191 2003 1191 1497 
Q 1191 994 1439 701 
Q 1688 409 2113 409 
Q 2538 409 2786 701 
Q 3034 994 3034 1497 
Q 3034 2003 2786 2293 
Q 2538 2584 2113 2584 
z
M 3366 4563 
L 3366 3988 
Q 3128 4100 2886 4159 
Q 2644 4219 2406 4219 
Q 1781 4219 1451 3797 
Q 1122 3375 1075 2522 
Q 1259 2794 1537 2939 
Q 1816 3084 2150 3084 
Q 2853 3084 3261 2657 
Q 3669 2231 3669 1497 
Q 3669 778 3244 343 
Q 2819 -91 2113 -91 
Q 1303 -91 875 529 
Q 447 1150 447 2328 
Q 447 3434 972 4092 
Q 1497 4750 2381 4750 
Q 2619 4750 2861 4703 
Q 3103 4656 3366 4563 
z
" id="DejaVuSans-36" transform="scale(0.015625)"/>
      </defs>
      <use xlink:href="#DejaVuSans-4b"/>
      <use x="65.576172" xlink:href="#DejaVuSans-20"/>
      <use x="97.363281" xlink:href="#DejaVuSans-3d"/>
      <use x="181.152344" xlink:href="#DejaVuSans-20"/>
      <use x="212.939453" xlink:href="#DejaVuSans-36"/>
     </g>
    </g>
    <g id="patch_28">
     <path d="M 1348.919375 96.769844 
L 1370.919375 96.769844 
L 1370.919375 89.069844 
L 1348.919375 89.069844 
z
" style="fill:#ea8e83;stroke:#666666;stroke-linejoin:miter;stroke-width:0.75;"/>
    </g>
    <g id="text_18">
     <!-- K = 8 -->
     <g style="fill:#262626;" transform="translate(1379.719375 96.769844)scale(0.11 -0.11)">
      <defs>
       <path d="M 2034 2216 
Q 1584 2216 1326 1975 
Q 1069 1734 1069 1313 
Q 1069 891 1326 650 
Q 1584 409 2034 409 
Q 2484 409 2743 651 
Q 3003 894 3003 1313 
Q 3003 1734 2745 1975 
Q 2488 2216 2034 2216 
z
M 1403 2484 
Q 997 2584 770 2862 
Q 544 3141 544 3541 
Q 544 4100 942 4425 
Q 1341 4750 2034 4750 
Q 2731 4750 3128 4425 
Q 3525 4100 3525 3541 
Q 3525 3141 3298 2862 
Q 3072 2584 2669 2484 
Q 3125 2378 3379 2068 
Q 3634 1759 3634 1313 
Q 3634 634 3220 271 
Q 2806 -91 2034 -91 
Q 1263 -91 848 271 
Q 434 634 434 1313 
Q 434 1759 690 2068 
Q 947 2378 1403 2484 
z
M 1172 3481 
Q 1172 3119 1398 2916 
Q 1625 2713 2034 2713 
Q 2441 2713 2670 2916 
Q 2900 3119 2900 3481 
Q 2900 3844 2670 4047 
Q 2441 4250 2034 4250 
Q 1625 4250 1398 4047 
Q 1172 3844 1172 3481 
z
" id="DejaVuSans-38" transform="scale(0.015625)"/>
      </defs>
      <use xlink:href="#DejaVuSans-4b"/>
      <use x="65.576172" xlink:href="#DejaVuSans-20"/>
      <use x="97.363281" xlink:href="#DejaVuSans-3d"/>
      <use x="181.152344" xlink:href="#DejaVuSans-20"/>
      <use x="212.939453" xlink:href="#DejaVuSans-38"/>
     </g>
    </g>
    <g id="patch_29">
     <path d="M 1348.919375 112.915781 
L 1370.919375 112.915781 
L 1370.919375 105.215781 
L 1348.919375 105.215781 
z
" style="fill:#8aafc9;stroke:#666666;stroke-linejoin:miter;stroke-width:0.75;"/>
    </g>
    <g id="text_19">
     <!-- K = 10 -->
     <g style="fill:#262626;" transform="translate(1379.719375 112.915781)scale(0.11 -0.11)">
      <use xlink:href="#DejaVuSans-4b"/>
      <use x="65.576172" xlink:href="#DejaVuSans-20"/>
      <use x="97.363281" xlink:href="#DejaVuSans-3d"/>
      <use x="181.152344" xlink:href="#DejaVuSans-20"/>
      <use x="212.939453" xlink:href="#DejaVuSans-31"/>
      <use x="276.5625" xlink:href="#DejaVuSans-30"/>
     </g>
    </g>
   </g>
  </g>
 </g>
 <defs>
  <clipPath id="p59566a7994">
   <rect height="657.58" width="1363.205" x="63.835" y="12.96"/>
  </clipPath>
 </defs>
</svg>
