<?xml version="1.0" encoding="utf-8" standalone="no"?>
<!DOCTYPE svg PUBLIC "-//W3C//DTD SVG 1.1//EN"
  "http://www.w3.org/Graphics/SVG/1.1/DTD/svg11.dtd">
<svg height="576pt" version="1.1" viewBox="0 0 1080 576" width="1080pt" xmlns="http://www.w3.org/2000/svg" xmlns:xlink="http://www.w3.org/1999/xlink">
 <metadata>
  <rdf:RDF xmlns:cc="http://creativecommons.org/ns#" xmlns:dc="http://purl.org/dc/elements/1.1/" xmlns:rdf="http://www.w3.org/1999/02/22-rdf-syntax-ns#">
   <cc:Work>
    <dc:type rdf:resource="http://purl.org/dc/dcmitype/StillImage"/>
    <dc:date>2022-01-25T16:09:16.620497</dc:date>
    <dc:format>image/svg+xml</dc:format>
    <dc:creator>
     <cc:Agent>
      <dc:title>Matplotlib v3.4.3, https://matplotlib.org/</dc:title>
     </cc:Agent>
    </dc:creator>
   </cc:Work>
  </rdf:RDF>
 </metadata>
 <defs>
  <style type="text/css">*{stroke-linecap:butt;stroke-linejoin:round;}</style>
 </defs>
 <g id="figure_1">
  <g id="patch_1">
   <path d="M 0 576 
L 1080 576 
L 1080 0 
L 0 0 
z
" style="fill:#ffffff;"/>
  </g>
  <g id="axes_1">
   <g id="patch_2">
    <path d="M 135 504 
L 972 504 
L 972 69.12 
L 135 69.12 
z
" style="fill:#ffffff;"/>
   </g>
   <g id="matplotlib.axis_1">
    <g id="xtick_1">
     <g id="line2d_1">
      <path clip-path="url(#p439409540c)" d="M 883.227273 504 
L 883.227273 69.12 
" style="fill:none;stroke:#999999;stroke-dasharray:1.5,2.475;stroke-dashoffset:0;stroke-width:1.5;"/>
     </g>
     <g id="text_1">
      <!-- 0.3 -->
      <g style="fill:#262626;" transform="translate(870.107195 529.037422)scale(0.165 -0.165)">
       <defs>
        <path d="M 2034 4250 
Q 1547 4250 1301 3770 
Q 1056 3291 1056 2328 
Q 1056 1369 1301 889 
Q 1547 409 2034 409 
Q 2525 409 2770 889 
Q 3016 1369 3016 2328 
Q 3016 3291 2770 3770 
Q 2525 4250 2034 4250 
z
M 2034 4750 
Q 2819 4750 3233 4129 
Q 3647 3509 3647 2328 
Q 3647 1150 3233 529 
Q 2819 -91 2034 -91 
Q 1250 -91 836 529 
Q 422 1150 422 2328 
Q 422 3509 836 4129 
Q 1250 4750 2034 4750 
z
" id="DejaVuSans-30" transform="scale(0.015625)"/>
        <path d="M 684 794 
L 1344 794 
L 1344 0 
L 684 0 
L 684 794 
z
" id="DejaVuSans-2e" transform="scale(0.015625)"/>
        <path d="M 2597 2516 
Q 3050 2419 3304 2112 
Q 3559 1806 3559 1356 
Q 3559 666 3084 287 
Q 2609 -91 1734 -91 
Q 1441 -91 1130 -33 
Q 819 25 488 141 
L 488 750 
Q 750 597 1062 519 
Q 1375 441 1716 441 
Q 2309 441 2620 675 
Q 2931 909 2931 1356 
Q 2931 1769 2642 2001 
Q 2353 2234 1838 2234 
L 1294 2234 
L 1294 2753 
L 1863 2753 
Q 2328 2753 2575 2939 
Q 2822 3125 2822 3475 
Q 2822 3834 2567 4026 
Q 2313 4219 1838 4219 
Q 1578 4219 1281 4162 
Q 984 4106 628 3988 
L 628 4550 
Q 988 4650 1302 4700 
Q 1616 4750 1894 4750 
Q 2613 4750 3031 4423 
Q 3450 4097 3450 3541 
Q 3450 3153 3228 2886 
Q 3006 2619 2597 2516 
z
" id="DejaVuSans-33" transform="scale(0.015625)"/>
       </defs>
       <use xlink:href="#DejaVuSans-30"/>
       <use x="63.623047" xlink:href="#DejaVuSans-2e"/>
       <use x="95.410156" xlink:href="#DejaVuSans-33"/>
      </g>
     </g>
    </g>
    <g id="xtick_2">
     <g id="line2d_2">
      <path clip-path="url(#p439409540c)" d="M 781.772727 504 
L 781.772727 69.12 
" style="fill:none;stroke:#999999;stroke-dasharray:1.5,2.475;stroke-dashoffset:0;stroke-width:1.5;"/>
     </g>
     <g id="text_2">
      <!-- 0.4 -->
      <g style="fill:#262626;" transform="translate(768.652649 529.037422)scale(0.165 -0.165)">
       <defs>
        <path d="M 2419 4116 
L 825 1625 
L 2419 1625 
L 2419 4116 
z
M 2253 4666 
L 3047 4666 
L 3047 1625 
L 3713 1625 
L 3713 1100 
L 3047 1100 
L 3047 0 
L 2419 0 
L 2419 1100 
L 313 1100 
L 313 1709 
L 2253 4666 
z
" id="DejaVuSans-34" transform="scale(0.015625)"/>
       </defs>
       <use xlink:href="#DejaVuSans-30"/>
       <use x="63.623047" xlink:href="#DejaVuSans-2e"/>
       <use x="95.410156" xlink:href="#DejaVuSans-34"/>
      </g>
     </g>
    </g>
    <g id="xtick_3">
     <g id="line2d_3">
      <path clip-path="url(#p439409540c)" d="M 680.318182 504 
L 680.318182 69.12 
" style="fill:none;stroke:#999999;stroke-dasharray:1.5,2.475;stroke-dashoffset:0;stroke-width:1.5;"/>
     </g>
     <g id="text_3">
      <!-- 0.5 -->
      <g style="fill:#262626;" transform="translate(667.198104 529.037422)scale(0.165 -0.165)">
       <defs>
        <path d="M 691 4666 
L 3169 4666 
L 3169 4134 
L 1269 4134 
L 1269 2991 
Q 1406 3038 1543 3061 
Q 1681 3084 1819 3084 
Q 2600 3084 3056 2656 
Q 3513 2228 3513 1497 
Q 3513 744 3044 326 
Q 2575 -91 1722 -91 
Q 1428 -91 1123 -41 
Q 819 9 494 109 
L 494 744 
Q 775 591 1075 516 
Q 1375 441 1709 441 
Q 2250 441 2565 725 
Q 2881 1009 2881 1497 
Q 2881 1984 2565 2268 
Q 2250 2553 1709 2553 
Q 1456 2553 1204 2497 
Q 953 2441 691 2322 
L 691 4666 
z
" id="DejaVuSans-35" transform="scale(0.015625)"/>
       </defs>
       <use xlink:href="#DejaVuSans-30"/>
       <use x="63.623047" xlink:href="#DejaVuSans-2e"/>
       <use x="95.410156" xlink:href="#DejaVuSans-35"/>
      </g>
     </g>
    </g>
    <g id="xtick_4">
     <g id="line2d_4">
      <path clip-path="url(#p439409540c)" d="M 578.863636 504 
L 578.863636 69.12 
" style="fill:none;stroke:#999999;stroke-dasharray:1.5,2.475;stroke-dashoffset:0;stroke-width:1.5;"/>
     </g>
     <g id="text_4">
      <!-- 0.6 -->
      <g style="fill:#262626;" transform="translate(565.743558 529.037422)scale(0.165 -0.165)">
       <defs>
        <path d="M 2113 2584 
Q 1688 2584 1439 2293 
Q 1191 2003 1191 1497 
Q 1191 994 1439 701 
Q 1688 409 2113 409 
Q 2538 409 2786 701 
Q 3034 994 3034 1497 
Q 3034 2003 2786 2293 
Q 2538 2584 2113 2584 
z
M 3366 4563 
L 3366 3988 
Q 3128 4100 2886 4159 
Q 2644 4219 2406 4219 
Q 1781 4219 1451 3797 
Q 1122 3375 1075 2522 
Q 1259 2794 1537 2939 
Q 1816 3084 2150 3084 
Q 2853 3084 3261 2657 
Q 3669 2231 3669 1497 
Q 3669 778 3244 343 
Q 2819 -91 2113 -91 
Q 1303 -91 875 529 
Q 447 1150 447 2328 
Q 447 3434 972 4092 
Q 1497 4750 2381 4750 
Q 2619 4750 2861 4703 
Q 3103 4656 3366 4563 
z
" id="DejaVuSans-36" transform="scale(0.015625)"/>
       </defs>
       <use xlink:href="#DejaVuSans-30"/>
       <use x="63.623047" xlink:href="#DejaVuSans-2e"/>
       <use x="95.410156" xlink:href="#DejaVuSans-36"/>
      </g>
     </g>
    </g>
    <g id="xtick_5">
     <g id="line2d_5">
      <path clip-path="url(#p439409540c)" d="M 477.409091 504 
L 477.409091 69.12 
" style="fill:none;stroke:#999999;stroke-dasharray:1.5,2.475;stroke-dashoffset:0;stroke-width:1.5;"/>
     </g>
     <g id="text_5">
      <!-- 0.7 -->
      <g style="fill:#262626;" transform="translate(464.289013 529.037422)scale(0.165 -0.165)">
       <defs>
        <path d="M 525 4666 
L 3525 4666 
L 3525 4397 
L 1831 0 
L 1172 0 
L 2766 4134 
L 525 4134 
L 525 4666 
z
" id="DejaVuSans-37" transform="scale(0.015625)"/>
       </defs>
       <use xlink:href="#DejaVuSans-30"/>
       <use x="63.623047" xlink:href="#DejaVuSans-2e"/>
       <use x="95.410156" xlink:href="#DejaVuSans-37"/>
      </g>
     </g>
    </g>
    <g id="xtick_6">
     <g id="line2d_6">
      <path clip-path="url(#p439409540c)" d="M 375.954545 504 
L 375.954545 69.12 
" style="fill:none;stroke:#999999;stroke-dasharray:1.5,2.475;stroke-dashoffset:0;stroke-width:1.5;"/>
     </g>
     <g id="text_6">
      <!-- 0.8 -->
      <g style="fill:#262626;" transform="translate(362.834467 529.037422)scale(0.165 -0.165)">
       <defs>
        <path d="M 2034 2216 
Q 1584 2216 1326 1975 
Q 1069 1734 1069 1313 
Q 1069 891 1326 650 
Q 1584 409 2034 409 
Q 2484 409 2743 651 
Q 3003 894 3003 1313 
Q 3003 1734 2745 1975 
Q 2488 2216 2034 2216 
z
M 1403 2484 
Q 997 2584 770 2862 
Q 544 3141 544 3541 
Q 544 4100 942 4425 
Q 1341 4750 2034 4750 
Q 2731 4750 3128 4425 
Q 3525 4100 3525 3541 
Q 3525 3141 3298 2862 
Q 3072 2584 2669 2484 
Q 3125 2378 3379 2068 
Q 3634 1759 3634 1313 
Q 3634 634 3220 271 
Q 2806 -91 2034 -91 
Q 1263 -91 848 271 
Q 434 634 434 1313 
Q 434 1759 690 2068 
Q 947 2378 1403 2484 
z
M 1172 3481 
Q 1172 3119 1398 2916 
Q 1625 2713 2034 2713 
Q 2441 2713 2670 2916 
Q 2900 3119 2900 3481 
Q 2900 3844 2670 4047 
Q 2441 4250 2034 4250 
Q 1625 4250 1398 4047 
Q 1172 3844 1172 3481 
z
" id="DejaVuSans-38" transform="scale(0.015625)"/>
       </defs>
       <use xlink:href="#DejaVuSans-30"/>
       <use x="63.623047" xlink:href="#DejaVuSans-2e"/>
       <use x="95.410156" xlink:href="#DejaVuSans-38"/>
      </g>
     </g>
    </g>
    <g id="xtick_7">
     <g id="line2d_7">
      <path clip-path="url(#p439409540c)" d="M 274.5 504 
L 274.5 69.12 
" style="fill:none;stroke:#999999;stroke-dasharray:1.5,2.475;stroke-dashoffset:0;stroke-width:1.5;"/>
     </g>
     <g id="text_7">
      <!-- 0.9 -->
      <g style="fill:#262626;" transform="translate(261.379922 529.037422)scale(0.165 -0.165)">
       <defs>
        <path d="M 703 97 
L 703 672 
Q 941 559 1184 500 
Q 1428 441 1663 441 
Q 2288 441 2617 861 
Q 2947 1281 2994 2138 
Q 2813 1869 2534 1725 
Q 2256 1581 1919 1581 
Q 1219 1581 811 2004 
Q 403 2428 403 3163 
Q 403 3881 828 4315 
Q 1253 4750 1959 4750 
Q 2769 4750 3195 4129 
Q 3622 3509 3622 2328 
Q 3622 1225 3098 567 
Q 2575 -91 1691 -91 
Q 1453 -91 1209 -44 
Q 966 3 703 97 
z
M 1959 2075 
Q 2384 2075 2632 2365 
Q 2881 2656 2881 3163 
Q 2881 3666 2632 3958 
Q 2384 4250 1959 4250 
Q 1534 4250 1286 3958 
Q 1038 3666 1038 3163 
Q 1038 2656 1286 2365 
Q 1534 2075 1959 2075 
z
" id="DejaVuSans-39" transform="scale(0.015625)"/>
       </defs>
       <use xlink:href="#DejaVuSans-30"/>
       <use x="63.623047" xlink:href="#DejaVuSans-2e"/>
       <use x="95.410156" xlink:href="#DejaVuSans-39"/>
      </g>
     </g>
    </g>
    <g id="xtick_8">
     <g id="line2d_8">
      <path clip-path="url(#p439409540c)" d="M 173.045455 504 
L 173.045455 69.12 
" style="fill:none;stroke:#999999;stroke-dasharray:1.5,2.475;stroke-dashoffset:0;stroke-width:1.5;"/>
     </g>
     <g id="text_8">
      <!-- 1.0 -->
      <g style="fill:#262626;" transform="translate(159.925376 529.037422)scale(0.165 -0.165)">
       <defs>
        <path d="M 794 531 
L 1825 531 
L 1825 4091 
L 703 3866 
L 703 4441 
L 1819 4666 
L 2450 4666 
L 2450 531 
L 3481 531 
L 3481 0 
L 794 0 
L 794 531 
z
" id="DejaVuSans-31" transform="scale(0.015625)"/>
       </defs>
       <use xlink:href="#DejaVuSans-31"/>
       <use x="63.623047" xlink:href="#DejaVuSans-2e"/>
       <use x="95.410156" xlink:href="#DejaVuSans-30"/>
      </g>
     </g>
    </g>
    <g id="text_9">
     <!-- F (largest logical job name ratio in the cluster) -->
     <g style="fill:#262626;" transform="translate(344.631094 550.146094)scale(0.18 -0.18)">
      <defs>
       <path d="M 628 4666 
L 3309 4666 
L 3309 4134 
L 1259 4134 
L 1259 2759 
L 3109 2759 
L 3109 2228 
L 1259 2228 
L 1259 0 
L 628 0 
L 628 4666 
z
" id="DejaVuSans-46" transform="scale(0.015625)"/>
       <path id="DejaVuSans-20" transform="scale(0.015625)"/>
       <path d="M 1984 4856 
Q 1566 4138 1362 3434 
Q 1159 2731 1159 2009 
Q 1159 1288 1364 580 
Q 1569 -128 1984 -844 
L 1484 -844 
Q 1016 -109 783 600 
Q 550 1309 550 2009 
Q 550 2706 781 3412 
Q 1013 4119 1484 4856 
L 1984 4856 
z
" id="DejaVuSans-28" transform="scale(0.015625)"/>
       <path d="M 603 4863 
L 1178 4863 
L 1178 0 
L 603 0 
L 603 4863 
z
" id="DejaVuSans-6c" transform="scale(0.015625)"/>
       <path d="M 2194 1759 
Q 1497 1759 1228 1600 
Q 959 1441 959 1056 
Q 959 750 1161 570 
Q 1363 391 1709 391 
Q 2188 391 2477 730 
Q 2766 1069 2766 1631 
L 2766 1759 
L 2194 1759 
z
M 3341 1997 
L 3341 0 
L 2766 0 
L 2766 531 
Q 2569 213 2275 61 
Q 1981 -91 1556 -91 
Q 1019 -91 701 211 
Q 384 513 384 1019 
Q 384 1609 779 1909 
Q 1175 2209 1959 2209 
L 2766 2209 
L 2766 2266 
Q 2766 2663 2505 2880 
Q 2244 3097 1772 3097 
Q 1472 3097 1187 3025 
Q 903 2953 641 2809 
L 641 3341 
Q 956 3463 1253 3523 
Q 1550 3584 1831 3584 
Q 2591 3584 2966 3190 
Q 3341 2797 3341 1997 
z
" id="DejaVuSans-61" transform="scale(0.015625)"/>
       <path d="M 2631 2963 
Q 2534 3019 2420 3045 
Q 2306 3072 2169 3072 
Q 1681 3072 1420 2755 
Q 1159 2438 1159 1844 
L 1159 0 
L 581 0 
L 581 3500 
L 1159 3500 
L 1159 2956 
Q 1341 3275 1631 3429 
Q 1922 3584 2338 3584 
Q 2397 3584 2469 3576 
Q 2541 3569 2628 3553 
L 2631 2963 
z
" id="DejaVuSans-72" transform="scale(0.015625)"/>
       <path d="M 2906 1791 
Q 2906 2416 2648 2759 
Q 2391 3103 1925 3103 
Q 1463 3103 1205 2759 
Q 947 2416 947 1791 
Q 947 1169 1205 825 
Q 1463 481 1925 481 
Q 2391 481 2648 825 
Q 2906 1169 2906 1791 
z
M 3481 434 
Q 3481 -459 3084 -895 
Q 2688 -1331 1869 -1331 
Q 1566 -1331 1297 -1286 
Q 1028 -1241 775 -1147 
L 775 -588 
Q 1028 -725 1275 -790 
Q 1522 -856 1778 -856 
Q 2344 -856 2625 -561 
Q 2906 -266 2906 331 
L 2906 616 
Q 2728 306 2450 153 
Q 2172 0 1784 0 
Q 1141 0 747 490 
Q 353 981 353 1791 
Q 353 2603 747 3093 
Q 1141 3584 1784 3584 
Q 2172 3584 2450 3431 
Q 2728 3278 2906 2969 
L 2906 3500 
L 3481 3500 
L 3481 434 
z
" id="DejaVuSans-67" transform="scale(0.015625)"/>
       <path d="M 3597 1894 
L 3597 1613 
L 953 1613 
Q 991 1019 1311 708 
Q 1631 397 2203 397 
Q 2534 397 2845 478 
Q 3156 559 3463 722 
L 3463 178 
Q 3153 47 2828 -22 
Q 2503 -91 2169 -91 
Q 1331 -91 842 396 
Q 353 884 353 1716 
Q 353 2575 817 3079 
Q 1281 3584 2069 3584 
Q 2775 3584 3186 3129 
Q 3597 2675 3597 1894 
z
M 3022 2063 
Q 3016 2534 2758 2815 
Q 2500 3097 2075 3097 
Q 1594 3097 1305 2825 
Q 1016 2553 972 2059 
L 3022 2063 
z
" id="DejaVuSans-65" transform="scale(0.015625)"/>
       <path d="M 2834 3397 
L 2834 2853 
Q 2591 2978 2328 3040 
Q 2066 3103 1784 3103 
Q 1356 3103 1142 2972 
Q 928 2841 928 2578 
Q 928 2378 1081 2264 
Q 1234 2150 1697 2047 
L 1894 2003 
Q 2506 1872 2764 1633 
Q 3022 1394 3022 966 
Q 3022 478 2636 193 
Q 2250 -91 1575 -91 
Q 1294 -91 989 -36 
Q 684 19 347 128 
L 347 722 
Q 666 556 975 473 
Q 1284 391 1588 391 
Q 1994 391 2212 530 
Q 2431 669 2431 922 
Q 2431 1156 2273 1281 
Q 2116 1406 1581 1522 
L 1381 1569 
Q 847 1681 609 1914 
Q 372 2147 372 2553 
Q 372 3047 722 3315 
Q 1072 3584 1716 3584 
Q 2034 3584 2315 3537 
Q 2597 3491 2834 3397 
z
" id="DejaVuSans-73" transform="scale(0.015625)"/>
       <path d="M 1172 4494 
L 1172 3500 
L 2356 3500 
L 2356 3053 
L 1172 3053 
L 1172 1153 
Q 1172 725 1289 603 
Q 1406 481 1766 481 
L 2356 481 
L 2356 0 
L 1766 0 
Q 1100 0 847 248 
Q 594 497 594 1153 
L 594 3053 
L 172 3053 
L 172 3500 
L 594 3500 
L 594 4494 
L 1172 4494 
z
" id="DejaVuSans-74" transform="scale(0.015625)"/>
       <path d="M 1959 3097 
Q 1497 3097 1228 2736 
Q 959 2375 959 1747 
Q 959 1119 1226 758 
Q 1494 397 1959 397 
Q 2419 397 2687 759 
Q 2956 1122 2956 1747 
Q 2956 2369 2687 2733 
Q 2419 3097 1959 3097 
z
M 1959 3584 
Q 2709 3584 3137 3096 
Q 3566 2609 3566 1747 
Q 3566 888 3137 398 
Q 2709 -91 1959 -91 
Q 1206 -91 779 398 
Q 353 888 353 1747 
Q 353 2609 779 3096 
Q 1206 3584 1959 3584 
z
" id="DejaVuSans-6f" transform="scale(0.015625)"/>
       <path d="M 603 3500 
L 1178 3500 
L 1178 0 
L 603 0 
L 603 3500 
z
M 603 4863 
L 1178 4863 
L 1178 4134 
L 603 4134 
L 603 4863 
z
" id="DejaVuSans-69" transform="scale(0.015625)"/>
       <path d="M 3122 3366 
L 3122 2828 
Q 2878 2963 2633 3030 
Q 2388 3097 2138 3097 
Q 1578 3097 1268 2742 
Q 959 2388 959 1747 
Q 959 1106 1268 751 
Q 1578 397 2138 397 
Q 2388 397 2633 464 
Q 2878 531 3122 666 
L 3122 134 
Q 2881 22 2623 -34 
Q 2366 -91 2075 -91 
Q 1284 -91 818 406 
Q 353 903 353 1747 
Q 353 2603 823 3093 
Q 1294 3584 2113 3584 
Q 2378 3584 2631 3529 
Q 2884 3475 3122 3366 
z
" id="DejaVuSans-63" transform="scale(0.015625)"/>
       <path d="M 603 3500 
L 1178 3500 
L 1178 -63 
Q 1178 -731 923 -1031 
Q 669 -1331 103 -1331 
L -116 -1331 
L -116 -844 
L 38 -844 
Q 366 -844 484 -692 
Q 603 -541 603 -63 
L 603 3500 
z
M 603 4863 
L 1178 4863 
L 1178 4134 
L 603 4134 
L 603 4863 
z
" id="DejaVuSans-6a" transform="scale(0.015625)"/>
       <path d="M 3116 1747 
Q 3116 2381 2855 2742 
Q 2594 3103 2138 3103 
Q 1681 3103 1420 2742 
Q 1159 2381 1159 1747 
Q 1159 1113 1420 752 
Q 1681 391 2138 391 
Q 2594 391 2855 752 
Q 3116 1113 3116 1747 
z
M 1159 2969 
Q 1341 3281 1617 3432 
Q 1894 3584 2278 3584 
Q 2916 3584 3314 3078 
Q 3713 2572 3713 1747 
Q 3713 922 3314 415 
Q 2916 -91 2278 -91 
Q 1894 -91 1617 61 
Q 1341 213 1159 525 
L 1159 0 
L 581 0 
L 581 4863 
L 1159 4863 
L 1159 2969 
z
" id="DejaVuSans-62" transform="scale(0.015625)"/>
       <path d="M 3513 2113 
L 3513 0 
L 2938 0 
L 2938 2094 
Q 2938 2591 2744 2837 
Q 2550 3084 2163 3084 
Q 1697 3084 1428 2787 
Q 1159 2491 1159 1978 
L 1159 0 
L 581 0 
L 581 3500 
L 1159 3500 
L 1159 2956 
Q 1366 3272 1645 3428 
Q 1925 3584 2291 3584 
Q 2894 3584 3203 3211 
Q 3513 2838 3513 2113 
z
" id="DejaVuSans-6e" transform="scale(0.015625)"/>
       <path d="M 3328 2828 
Q 3544 3216 3844 3400 
Q 4144 3584 4550 3584 
Q 5097 3584 5394 3201 
Q 5691 2819 5691 2113 
L 5691 0 
L 5113 0 
L 5113 2094 
Q 5113 2597 4934 2840 
Q 4756 3084 4391 3084 
Q 3944 3084 3684 2787 
Q 3425 2491 3425 1978 
L 3425 0 
L 2847 0 
L 2847 2094 
Q 2847 2600 2669 2842 
Q 2491 3084 2119 3084 
Q 1678 3084 1418 2786 
Q 1159 2488 1159 1978 
L 1159 0 
L 581 0 
L 581 3500 
L 1159 3500 
L 1159 2956 
Q 1356 3278 1631 3431 
Q 1906 3584 2284 3584 
Q 2666 3584 2933 3390 
Q 3200 3197 3328 2828 
z
" id="DejaVuSans-6d" transform="scale(0.015625)"/>
       <path d="M 3513 2113 
L 3513 0 
L 2938 0 
L 2938 2094 
Q 2938 2591 2744 2837 
Q 2550 3084 2163 3084 
Q 1697 3084 1428 2787 
Q 1159 2491 1159 1978 
L 1159 0 
L 581 0 
L 581 4863 
L 1159 4863 
L 1159 2956 
Q 1366 3272 1645 3428 
Q 1925 3584 2291 3584 
Q 2894 3584 3203 3211 
Q 3513 2838 3513 2113 
z
" id="DejaVuSans-68" transform="scale(0.015625)"/>
       <path d="M 544 1381 
L 544 3500 
L 1119 3500 
L 1119 1403 
Q 1119 906 1312 657 
Q 1506 409 1894 409 
Q 2359 409 2629 706 
Q 2900 1003 2900 1516 
L 2900 3500 
L 3475 3500 
L 3475 0 
L 2900 0 
L 2900 538 
Q 2691 219 2414 64 
Q 2138 -91 1772 -91 
Q 1169 -91 856 284 
Q 544 659 544 1381 
z
M 1991 3584 
L 1991 3584 
z
" id="DejaVuSans-75" transform="scale(0.015625)"/>
       <path d="M 513 4856 
L 1013 4856 
Q 1481 4119 1714 3412 
Q 1947 2706 1947 2009 
Q 1947 1309 1714 600 
Q 1481 -109 1013 -844 
L 513 -844 
Q 928 -128 1133 580 
Q 1338 1288 1338 2009 
Q 1338 2731 1133 3434 
Q 928 4138 513 4856 
z
" id="DejaVuSans-29" transform="scale(0.015625)"/>
      </defs>
      <use xlink:href="#DejaVuSans-46"/>
      <use x="57.519531" xlink:href="#DejaVuSans-20"/>
      <use x="89.306641" xlink:href="#DejaVuSans-28"/>
      <use x="128.320312" xlink:href="#DejaVuSans-6c"/>
      <use x="156.103516" xlink:href="#DejaVuSans-61"/>
      <use x="217.382812" xlink:href="#DejaVuSans-72"/>
      <use x="256.746094" xlink:href="#DejaVuSans-67"/>
      <use x="320.222656" xlink:href="#DejaVuSans-65"/>
      <use x="381.746094" xlink:href="#DejaVuSans-73"/>
      <use x="433.845703" xlink:href="#DejaVuSans-74"/>
      <use x="473.054688" xlink:href="#DejaVuSans-20"/>
      <use x="504.841797" xlink:href="#DejaVuSans-6c"/>
      <use x="532.625" xlink:href="#DejaVuSans-6f"/>
      <use x="593.806641" xlink:href="#DejaVuSans-67"/>
      <use x="657.283203" xlink:href="#DejaVuSans-69"/>
      <use x="685.066406" xlink:href="#DejaVuSans-63"/>
      <use x="740.046875" xlink:href="#DejaVuSans-61"/>
      <use x="801.326172" xlink:href="#DejaVuSans-6c"/>
      <use x="829.109375" xlink:href="#DejaVuSans-20"/>
      <use x="860.896484" xlink:href="#DejaVuSans-6a"/>
      <use x="888.679688" xlink:href="#DejaVuSans-6f"/>
      <use x="949.861328" xlink:href="#DejaVuSans-62"/>
      <use x="1013.337891" xlink:href="#DejaVuSans-20"/>
      <use x="1045.125" xlink:href="#DejaVuSans-6e"/>
      <use x="1108.503906" xlink:href="#DejaVuSans-61"/>
      <use x="1169.783203" xlink:href="#DejaVuSans-6d"/>
      <use x="1267.195312" xlink:href="#DejaVuSans-65"/>
      <use x="1328.71875" xlink:href="#DejaVuSans-20"/>
      <use x="1360.505859" xlink:href="#DejaVuSans-72"/>
      <use x="1401.619141" xlink:href="#DejaVuSans-61"/>
      <use x="1462.898438" xlink:href="#DejaVuSans-74"/>
      <use x="1502.107422" xlink:href="#DejaVuSans-69"/>
      <use x="1529.890625" xlink:href="#DejaVuSans-6f"/>
      <use x="1591.072266" xlink:href="#DejaVuSans-20"/>
      <use x="1622.859375" xlink:href="#DejaVuSans-69"/>
      <use x="1650.642578" xlink:href="#DejaVuSans-6e"/>
      <use x="1714.021484" xlink:href="#DejaVuSans-20"/>
      <use x="1745.808594" xlink:href="#DejaVuSans-74"/>
      <use x="1785.017578" xlink:href="#DejaVuSans-68"/>
      <use x="1848.396484" xlink:href="#DejaVuSans-65"/>
      <use x="1909.919922" xlink:href="#DejaVuSans-20"/>
      <use x="1941.707031" xlink:href="#DejaVuSans-63"/>
      <use x="1996.6875" xlink:href="#DejaVuSans-6c"/>
      <use x="2024.470703" xlink:href="#DejaVuSans-75"/>
      <use x="2087.849609" xlink:href="#DejaVuSans-73"/>
      <use x="2139.949219" xlink:href="#DejaVuSans-74"/>
      <use x="2179.158203" xlink:href="#DejaVuSans-65"/>
      <use x="2240.681641" xlink:href="#DejaVuSans-72"/>
      <use x="2281.794922" xlink:href="#DejaVuSans-29"/>
     </g>
    </g>
   </g>
   <g id="matplotlib.axis_2">
    <g id="ytick_1">
     <g id="line2d_9">
      <path clip-path="url(#p439409540c)" d="M 135 504 
L 972 504 
" style="fill:none;stroke:#999999;stroke-dasharray:1.5,2.475;stroke-dashoffset:0;stroke-width:1.5;"/>
     </g>
     <g id="text_10">
      <!-- 0% -->
      <g style="fill:#262626;" transform="translate(96.324297 510.268711)scale(0.165 -0.165)">
       <defs>
        <path d="M 4653 2053 
Q 4381 2053 4226 1822 
Q 4072 1591 4072 1178 
Q 4072 772 4226 539 
Q 4381 306 4653 306 
Q 4919 306 5073 539 
Q 5228 772 5228 1178 
Q 5228 1588 5073 1820 
Q 4919 2053 4653 2053 
z
M 4653 2450 
Q 5147 2450 5437 2106 
Q 5728 1763 5728 1178 
Q 5728 594 5436 251 
Q 5144 -91 4653 -91 
Q 4153 -91 3862 251 
Q 3572 594 3572 1178 
Q 3572 1766 3864 2108 
Q 4156 2450 4653 2450 
z
M 1428 4353 
Q 1159 4353 1004 4120 
Q 850 3888 850 3481 
Q 850 3069 1003 2837 
Q 1156 2606 1428 2606 
Q 1700 2606 1854 2837 
Q 2009 3069 2009 3481 
Q 2009 3884 1853 4118 
Q 1697 4353 1428 4353 
z
M 4250 4750 
L 4750 4750 
L 1831 -91 
L 1331 -91 
L 4250 4750 
z
M 1428 4750 
Q 1922 4750 2215 4408 
Q 2509 4066 2509 3481 
Q 2509 2891 2217 2550 
Q 1925 2209 1428 2209 
Q 931 2209 642 2551 
Q 353 2894 353 3481 
Q 353 4063 643 4406 
Q 934 4750 1428 4750 
z
" id="DejaVuSans-25" transform="scale(0.015625)"/>
       </defs>
       <use xlink:href="#DejaVuSans-30"/>
       <use x="63.623047" xlink:href="#DejaVuSans-25"/>
      </g>
     </g>
    </g>
    <g id="ytick_2">
     <g id="line2d_10">
      <path clip-path="url(#p439409540c)" d="M 135 417.024 
L 972 417.024 
" style="fill:none;stroke:#999999;stroke-dasharray:1.5,2.475;stroke-dashoffset:0;stroke-width:1.5;"/>
     </g>
     <g id="text_11">
      <!-- 20% -->
      <g style="fill:#262626;" transform="translate(85.826172 423.292711)scale(0.165 -0.165)">
       <defs>
        <path d="M 1228 531 
L 3431 531 
L 3431 0 
L 469 0 
L 469 531 
Q 828 903 1448 1529 
Q 2069 2156 2228 2338 
Q 2531 2678 2651 2914 
Q 2772 3150 2772 3378 
Q 2772 3750 2511 3984 
Q 2250 4219 1831 4219 
Q 1534 4219 1204 4116 
Q 875 4013 500 3803 
L 500 4441 
Q 881 4594 1212 4672 
Q 1544 4750 1819 4750 
Q 2544 4750 2975 4387 
Q 3406 4025 3406 3419 
Q 3406 3131 3298 2873 
Q 3191 2616 2906 2266 
Q 2828 2175 2409 1742 
Q 1991 1309 1228 531 
z
" id="DejaVuSans-32" transform="scale(0.015625)"/>
       </defs>
       <use xlink:href="#DejaVuSans-32"/>
       <use x="63.623047" xlink:href="#DejaVuSans-30"/>
       <use x="127.246094" xlink:href="#DejaVuSans-25"/>
      </g>
     </g>
    </g>
    <g id="ytick_3">
     <g id="line2d_11">
      <path clip-path="url(#p439409540c)" d="M 135 330.048 
L 972 330.048 
" style="fill:none;stroke:#999999;stroke-dasharray:1.5,2.475;stroke-dashoffset:0;stroke-width:1.5;"/>
     </g>
     <g id="text_12">
      <!-- 40% -->
      <g style="fill:#262626;" transform="translate(85.826172 336.316711)scale(0.165 -0.165)">
       <use xlink:href="#DejaVuSans-34"/>
       <use x="63.623047" xlink:href="#DejaVuSans-30"/>
       <use x="127.246094" xlink:href="#DejaVuSans-25"/>
      </g>
     </g>
    </g>
    <g id="ytick_4">
     <g id="line2d_12">
      <path clip-path="url(#p439409540c)" d="M 135 243.072 
L 972 243.072 
" style="fill:none;stroke:#999999;stroke-dasharray:1.5,2.475;stroke-dashoffset:0;stroke-width:1.5;"/>
     </g>
     <g id="text_13">
      <!-- 60% -->
      <g style="fill:#262626;" transform="translate(85.826172 249.340711)scale(0.165 -0.165)">
       <use xlink:href="#DejaVuSans-36"/>
       <use x="63.623047" xlink:href="#DejaVuSans-30"/>
       <use x="127.246094" xlink:href="#DejaVuSans-25"/>
      </g>
     </g>
    </g>
    <g id="ytick_5">
     <g id="line2d_13">
      <path clip-path="url(#p439409540c)" d="M 135 156.096 
L 972 156.096 
" style="fill:none;stroke:#999999;stroke-dasharray:1.5,2.475;stroke-dashoffset:0;stroke-width:1.5;"/>
     </g>
     <g id="text_14">
      <!-- 80% -->
      <g style="fill:#262626;" transform="translate(85.826172 162.364711)scale(0.165 -0.165)">
       <use xlink:href="#DejaVuSans-38"/>
       <use x="63.623047" xlink:href="#DejaVuSans-30"/>
       <use x="127.246094" xlink:href="#DejaVuSans-25"/>
      </g>
     </g>
    </g>
    <g id="ytick_6">
     <g id="line2d_14">
      <path clip-path="url(#p439409540c)" d="M 135 69.12 
L 972 69.12 
" style="fill:none;stroke:#999999;stroke-dasharray:1.5,2.475;stroke-dashoffset:0;stroke-width:1.5;"/>
     </g>
     <g id="text_15">
      <!-- 100% -->
      <g style="fill:#262626;" transform="translate(75.328047 75.388711)scale(0.165 -0.165)">
       <use xlink:href="#DejaVuSans-31"/>
       <use x="63.623047" xlink:href="#DejaVuSans-30"/>
       <use x="127.246094" xlink:href="#DejaVuSans-30"/>
       <use x="190.869141" xlink:href="#DejaVuSans-25"/>
      </g>
     </g>
    </g>
    <g id="text_16">
     <!-- Proportion -->
     <g style="fill:#262626;" transform="translate(67.584609 332.992969)rotate(-90)scale(0.18 -0.18)">
      <defs>
       <path d="M 1259 4147 
L 1259 2394 
L 2053 2394 
Q 2494 2394 2734 2622 
Q 2975 2850 2975 3272 
Q 2975 3691 2734 3919 
Q 2494 4147 2053 4147 
L 1259 4147 
z
M 628 4666 
L 2053 4666 
Q 2838 4666 3239 4311 
Q 3641 3956 3641 3272 
Q 3641 2581 3239 2228 
Q 2838 1875 2053 1875 
L 1259 1875 
L 1259 0 
L 628 0 
L 628 4666 
z
" id="DejaVuSans-50" transform="scale(0.015625)"/>
       <path d="M 1159 525 
L 1159 -1331 
L 581 -1331 
L 581 3500 
L 1159 3500 
L 1159 2969 
Q 1341 3281 1617 3432 
Q 1894 3584 2278 3584 
Q 2916 3584 3314 3078 
Q 3713 2572 3713 1747 
Q 3713 922 3314 415 
Q 2916 -91 2278 -91 
Q 1894 -91 1617 61 
Q 1341 213 1159 525 
z
M 3116 1747 
Q 3116 2381 2855 2742 
Q 2594 3103 2138 3103 
Q 1681 3103 1420 2742 
Q 1159 2381 1159 1747 
Q 1159 1113 1420 752 
Q 1681 391 2138 391 
Q 2594 391 2855 752 
Q 3116 1113 3116 1747 
z
" id="DejaVuSans-70" transform="scale(0.015625)"/>
      </defs>
      <use xlink:href="#DejaVuSans-50"/>
      <use x="58.552734" xlink:href="#DejaVuSans-72"/>
      <use x="97.416016" xlink:href="#DejaVuSans-6f"/>
      <use x="158.597656" xlink:href="#DejaVuSans-70"/>
      <use x="222.074219" xlink:href="#DejaVuSans-6f"/>
      <use x="283.255859" xlink:href="#DejaVuSans-72"/>
      <use x="324.369141" xlink:href="#DejaVuSans-74"/>
      <use x="363.578125" xlink:href="#DejaVuSans-69"/>
      <use x="391.361328" xlink:href="#DejaVuSans-6f"/>
      <use x="452.542969" xlink:href="#DejaVuSans-6e"/>
     </g>
    </g>
   </g>
   <g id="line2d_15">
    <path clip-path="url(#p439409540c)" d="M 933.954545 69.12 
L 933.954545 69.963772 
L 883.227273 69.963772 
L 883.227273 70.048149 
L 883.227273 70.132526 
L 849.409091 70.132526 
L 849.409091 70.216903 
L 849.409091 83.042235 
L 832.5 83.126612 
L 832.5 83.21099 
L 807.136364 83.295367 
L 807.136364 84.307893 
L 797.381119 84.307893 
L 797.381119 84.39227 
L 797.381119 84.476647 
L 790.594862 84.561024 
L 790.594862 84.645402 
L 788.61236 84.729779 
L 788.61236 84.814156 
L 781.772727 84.814156 
L 781.772727 84.898533 
L 781.772727 88.357998 
L 769.836898 88.442375 
L 769.836898 88.611129 
L 764.863636 88.611129 
L 764.863636 88.695506 
L 764.863636 88.948638 
L 760.413876 89.033015 
L 760.413876 89.201769 
L 752.785714 89.201769 
L 752.785714 89.286147 
L 752.785714 91.564331 
L 747.954545 91.564331 
L 747.954545 91.648708 
L 747.954545 91.733085 
L 743.727273 91.817462 
L 743.727273 91.901839 
L 739.997326 91.986217 
L 739.997326 92.070594 
L 736.681818 92.070594 
L 736.681818 92.154971 
L 736.681818 92.661234 
L 732.794671 92.745611 
L 732.794671 92.829988 
L 726.433884 92.829988 
L 726.433884 92.914366 
L 726.433884 93.842515 
L 722.590909 93.926892 
L 722.590909 94.095646 
L 719.339161 94.180023 
L 719.339161 94.433155 
L 715.709302 94.517532 
L 715.709302 94.601909 
L 714.136364 94.601909 
L 714.136364 94.686286 
L 714.136364 95.108172 
L 707.016746 95.192549 
L 707.016746 95.276927 
L 704.474026 95.276927 
L 704.474026 95.361304 
L 704.474026 95.445681 
L 702.373518 95.445681 
L 702.373518 95.530058 
L 702.373518 95.698813 
L 699.106061 95.78319 
L 699.106061 95.951944 
L 697.810345 95.951944 
L 697.810345 96.036321 
L 697.810345 96.120698 
L 693.325175 96.205076 
L 693.325175 96.289453 
L 688.37013 96.37383 
L 688.37013 96.458207 
L 680.318182 96.542584 
L 680.318182 199.482747 
L 673.554545 199.567125 
L 673.554545 199.651502 
L 670.746998 199.735879 
L 670.746998 199.820256 
L 669.525145 199.904633 
L 669.525145 199.98901 
L 667.945676 200.073388 
L 667.945676 200.157765 
L 665.824675 200.242142 
L 665.824675 200.326519 
L 663.954545 200.410896 
L 663.954545 200.495274 
L 660.027273 200.579651 
L 660.027273 200.664028 
L 658.262846 200.748405 
L 658.262846 201.001537 
L 656.162338 201.001537 
L 656.162338 201.085914 
L 656.162338 201.170291 
L 652.136364 201.254668 
L 652.136364 201.423423 
L 650.47861 201.423423 
L 650.47861 201.5078 
L 650.47861 201.760931 
L 646.5 201.760931 
L 646.5 201.845308 
L 646.5 201.929686 
L 643.329545 202.014063 
L 643.329545 202.09844 
L 641.297203 202.09844 
L 641.297203 202.182817 
L 641.297203 202.604703 
L 638.045455 202.604703 
L 638.045455 202.68908 
L 638.045455 202.773458 
L 636.20751 202.857835 
L 636.20751 202.942212 
L 634.202479 202.942212 
L 634.202479 203.026589 
L 634.202479 204.292247 
L 632.462264 204.376624 
L 632.462264 204.461001 
L 631.227273 204.461001 
L 631.227273 204.545378 
L 631.227273 204.629756 
L 629.590909 204.714133 
L 629.590909 204.967264 
L 627.354672 205.051641 
L 627.354672 205.136019 
L 626.921053 205.136019 
L 626.921053 205.220396 
L 626.921053 205.304773 
L 625.688811 205.38915 
L 625.688811 205.473527 
L 623.954545 205.557905 
L 623.954545 207.076694 
L 619.445455 207.161071 
L 619.445455 207.414203 
L 616.909091 207.414203 
L 616.909091 207.49858 
L 616.909091 207.667334 
L 615.756198 207.751711 
L 615.756198 207.836088 
L 614.152174 207.920466 
L 614.152174 208.173597 
L 607.850649 208.257974 
L 607.850649 212.983097 
L 603.458678 212.983097 
L 603.458678 213.067474 
L 603.458678 213.151851 
L 602.276224 213.151851 
L 602.276224 213.236228 
L 602.276224 213.320605 
L 600.222488 213.404983 
L 600.222488 213.742491 
L 598.5 213.826868 
L 598.5 214.08 
L 595.772727 214.08 
L 595.772727 214.164377 
L 595.772727 214.67064 
L 590.799465 214.755017 
L 590.799465 215.261281 
L 588.086777 215.345658 
L 588.086777 215.598789 
L 586.378788 215.683166 
L 586.378788 215.851921 
L 581.681818 215.936298 
L 581.681818 216.020675 
L 579.623596 216.105052 
L 579.623596 216.18943 
L 578.863636 216.18943 
L 578.863636 216.273807 
L 578.863636 229.774156 
L 575.365204 229.858533 
L 575.365204 229.94291 
L 571.616883 230.027288 
L 571.616883 230.111665 
L 570.041502 230.196042 
L 570.041502 230.533551 
L 567.590909 230.533551 
L 567.590909 230.617928 
L 567.590909 230.702305 
L 566.440631 230.702305 
L 566.440631 230.786682 
L 566.440631 230.871059 
L 563.255245 230.871059 
L 563.255245 230.955437 
L 563.255245 231.208568 
L 559.538961 231.292945 
L 559.538961 231.714831 
L 557.873041 231.799208 
L 557.873041 231.967963 
L 553.5 232.05234 
L 553.5 235.596182 
L 548.80303 235.596182 
L 548.80303 235.680559 
L 548.80303 235.849313 
L 546.825359 235.93369 
L 546.825359 236.608708 
L 543.744755 236.693085 
L 543.744755 236.777462 
L 541.971074 236.777462 
L 541.971074 236.861839 
L 541.971074 237.789988 
L 538.281818 237.874366 
L 538.281818 238.127497 
L 535.383117 238.127497 
L 535.383117 238.211874 
L 535.383117 238.886892 
L 534.154854 238.971269 
L 534.154854 239.055646 
L 533.045455 239.140023 
L 533.045455 239.2244 
L 531.120321 239.308778 
L 531.120321 239.646286 
L 528.136364 239.730664 
L 528.136364 239.983795 
L 525.93083 240.068172 
L 525.93083 240.321304 
L 525.030612 240.321304 
L 525.030612 240.405681 
L 525.030612 240.490058 
L 524.234266 240.490058 
L 524.234266 240.574435 
L 524.234266 241.080698 
L 522.888715 241.080698 
L 522.888715 241.165076 
L 522.888715 241.249453 
L 519.47561 241.33383 
L 519.47561 241.502584 
L 516.200535 241.586962 
L 516.200535 241.755716 
L 511.227273 241.840093 
L 511.227273 298.204051 
L 503.875494 298.288428 
L 503.875494 298.457183 
L 503.362579 298.457183 
L 503.362579 298.54156 
L 503.362579 298.625937 
L 501.280749 298.710314 
L 501.280749 298.794692 
L 499.149351 298.794692 
L 499.149351 298.879069 
L 499.149351 298.963446 
L 497.7 298.963446 
L 497.7 299.047823 
L 497.7 299.1322 
L 497.017953 299.216577 
L 497.017953 299.300955 
L 495.855372 299.385332 
L 495.855372 299.975972 
L 493.42823 300.060349 
L 493.42823 300.229104 
L 490.090909 300.313481 
L 490.090909 301.072875 
L 485.213287 301.157253 
L 485.213287 301.747893 
L 483.045455 301.83227 
L 483.045455 301.916647 
L 481.820158 302.001024 
L 481.820158 302.085402 
L 478.798879 302.169779 
L 478.798879 302.254156 
L 477.409091 302.254156 
L 477.409091 302.338533 
L 477.409091 304.194831 
L 476.541958 304.279208 
L 476.541958 304.363586 
L 474.238636 304.447963 
L 474.238636 304.53234 
L 471.441176 304.53234 
L 471.441176 304.616717 
L 471.441176 304.954226 
L 469.604895 305.038603 
L 469.604895 305.12298 
L 462.915584 305.207357 
L 462.915584 308.919953 
L 461.720244 309.004331 
L 461.720244 309.088708 
L 458.832907 309.173085 
L 458.832907 309.257462 
L 457.118182 309.257462 
L 457.118182 309.341839 
L 457.118182 309.510594 
L 454.863636 309.510594 
L 454.863636 309.594971 
L 454.863636 309.763725 
L 453.996503 309.763725 
L 453.996503 309.848102 
L 453.996503 309.93248 
L 453.66441 309.93248 
L 453.66441 310.016857 
L 453.66441 310.185611 
L 452.920063 310.185611 
L 452.920063 310.269988 
L 452.920063 310.354366 
L 451.548128 310.438743 
L 451.548128 310.52312 
L 449.739669 310.607497 
L 449.739669 312.295041 
L 443.590909 312.379418 
L 443.590909 312.885681 
L 441.601604 312.970058 
L 441.601604 313.054435 
L 441.366029 313.138813 
L 441.366029 313.22319 
L 440.0311 313.307567 
L 440.0311 313.898207 
L 438.75974 313.898207 
L 438.75974 313.982584 
L 438.75974 314.066962 
L 437.709486 314.066962 
L 437.709486 314.151339 
L 437.709486 314.910733 
L 436.075758 314.995111 
L 436.075758 315.163865 
L 431.65508 315.248242 
L 431.65508 315.416997 
L 426.681818 315.501374 
L 426.681818 340.139511 
L 422.168716 340.223888 
L 422.168716 340.308265 
L 421.045455 340.392643 
L 421.045455 340.47702 
L 419.177784 340.561397 
L 419.177784 340.645774 
L 418.995868 340.645774 
L 418.995868 340.730151 
L 418.995868 340.814529 
L 417.935737 340.898906 
L 417.935737 340.983283 
L 416.536364 340.983283 
L 416.536364 341.06766 
L 416.536364 341.405169 
L 414.603896 341.405169 
L 414.603896 341.489546 
L 414.603896 341.911432 
L 411.762032 341.911432 
L 411.762032 341.995809 
L 411.762032 342.080186 
L 410.492263 342.080186 
L 410.492263 342.164563 
L 410.492263 342.248941 
L 408.564935 342.333318 
L 408.564935 342.417695 
L 407.171329 342.417695 
L 407.171329 342.502072 
L 407.171329 343.430221 
L 404.941558 343.514598 
L 404.941558 343.683353 
L 403.623967 343.76773 
L 403.623967 344.189616 
L 402.136364 344.189616 
L 402.136364 344.273993 
L 402.136364 344.35837 
L 398.5 344.442747 
L 398.5 346.636554 
L 395.750554 346.720931 
L 395.750554 346.889686 
L 394.977273 346.974063 
L 394.977273 347.142817 
L 393.598814 347.142817 
L 393.598814 347.227194 
L 393.598814 347.311572 
L 391.227273 347.395949 
L 391.227273 347.480326 
L 390.448052 347.564703 
L 390.448052 347.902212 
L 386.633971 347.986589 
L 386.633971 348.324098 
L 384.409091 348.408475 
L 384.409091 348.745984 
L 382.5 348.830361 
L 382.396104 348.999115 
L 379.712121 349.083492 
L 379.712121 349.16787 
L 375.954545 349.16787 
L 375.954545 349.252247 
L 375.954545 361.065052 
L 374.344156 361.14943 
L 374.344156 361.233807 
L 370.318182 361.318184 
L 370.318182 361.402561 
L 369.409091 361.486938 
L 369.409091 361.571315 
L 368.15035 361.571315 
L 368.15035 361.655693 
L 368.15035 361.824447 
L 366.292208 361.824447 
L 366.292208 361.908824 
L 366.292208 362.077579 
L 364.212453 362.161956 
L 364.212453 362.246333 
L 360.924242 362.33071 
L 360.924242 362.499464 
L 357.508264 362.499464 
L 357.508264 362.583842 
L 357.508264 363.849499 
L 354.214286 363.933877 
L 354.214286 364.102631 
L 352.082888 364.102631 
L 352.082888 364.187008 
L 352.082888 364.44014 
L 349.488142 364.44014 
L 349.488142 364.524517 
L 349.488142 364.777648 
L 342.136364 364.862026 
L 342.136364 370.599674 
L 335.372727 370.684051 
L 335.372727 370.852806 
L 333.236842 370.852806 
L 333.236842 370.937183 
L 333.236842 371.105937 
L 329.129371 371.105937 
L 329.129371 371.190314 
L 329.129371 371.443446 
L 325.227273 371.443446 
L 325.227273 371.527823 
L 325.227273 371.696577 
L 322.243316 371.696577 
L 322.243316 371.780955 
L 322.243316 371.865332 
L 317.980519 371.865332 
L 317.980519 371.949709 
L 317.980519 374.649779 
L 314.609937 374.734156 
L 314.609937 374.818533 
L 308.318182 374.90291 
L 308.318182 375.409173 
L 303.954545 375.493551 
L 303.954545 375.662305 
L 299.863636 375.746682 
L 299.863636 377.349849 
L 293.603872 377.434226 
L 293.603872 377.518603 
L 290.108392 377.60298 
L 290.108392 377.687357 
L 288.334711 377.771735 
L 288.334711 377.856112 
L 285.772727 377.856112 
L 285.772727 377.940489 
L 285.772727 379.206147 
L 274.5 379.290524 
L 274.5 379.543655 
L 269.015971 379.628033 
L 269.015971 379.71241 
L 265.27686 379.796787 
L 265.27686 379.965541 
L 257.590909 380.049919 
L 257.590909 380.30305 
L 245.512987 380.387427 
L 245.512987 380.556182 
L 229.409091 380.640559 
L 229.409091 380.978068 
L 173.045455 381.062445 
L 173.045455 504 
L 173.045455 504 
" style="fill:none;stroke:#9467bd;stroke-linecap:round;stroke-width:2.25;"/>
   </g>
   <g id="line2d_16">
    <path clip-path="url(#p439409540c)" d="M 933.954545 69.12 
L 933.954545 69.288754 
L 849.409091 69.288754 
L 849.409091 69.373132 
L 849.409091 76.038929 
L 807.136364 76.123306 
L 807.136364 76.545192 
L 781.772727 76.545192 
L 781.772727 76.629569 
L 781.772727 78.654622 
L 752.785714 78.738999 
L 752.785714 79.751525 
L 736.681818 79.835902 
L 736.681818 80.257788 
L 728.62987 80.342165 
L 728.62987 80.426542 
L 726.433884 80.426542 
L 726.433884 80.51092 
L 726.433884 80.679674 
L 719.339161 80.764051 
L 719.339161 80.848428 
L 714.136364 80.848428 
L 714.136364 80.932806 
L 714.136364 81.185937 
L 710.157754 81.270314 
L 710.157754 81.354692 
L 702.373518 81.439069 
L 702.373518 81.6922 
L 696.681818 81.776577 
L 696.681818 81.860955 
L 694.811688 81.945332 
L 694.811688 82.029709 
L 688.122378 82.114086 
L 688.122378 82.198463 
L 686.017875 82.282841 
L 686.017875 82.367218 
L 680.318182 82.367218 
L 680.318182 82.451595 
L 680.318182 165.141234 
L 667.311189 165.225611 
L 667.311189 165.309988 
L 660.027273 165.394366 
L 660.027273 165.478743 
L 656.162338 165.56312 
L 656.162338 165.900629 
L 653.619617 165.900629 
L 653.619617 165.985006 
L 653.619617 166.069383 
L 650.47861 166.069383 
L 650.47861 166.15376 
L 650.47861 166.322515 
L 646.5 166.322515 
L 646.5 166.406892 
L 646.5 166.660023 
L 644.084416 166.7444 
L 644.084416 166.913155 
L 641.297203 166.913155 
L 641.297203 166.997532 
L 641.297203 167.335041 
L 638.045455 167.335041 
L 638.045455 167.419418 
L 638.045455 167.503795 
L 634.202479 167.503795 
L 634.202479 167.588172 
L 634.202479 168.516321 
L 630.305378 168.600698 
L 630.305378 168.685076 
L 629.590909 168.685076 
L 629.590909 168.769453 
L 629.590909 168.938207 
L 625.967532 169.022584 
L 625.967532 169.106962 
L 623.954545 169.106962 
L 623.954545 169.191339 
L 623.954545 170.625751 
L 619.445455 170.710128 
L 619.445455 170.878882 
L 615.283217 170.96326 
L 615.283217 171.047637 
L 614.152174 171.047637 
L 614.152174 171.132014 
L 614.152174 171.300768 
L 612.177069 171.385146 
L 612.177069 171.469523 
L 607.850649 171.5539 
L 607.850649 175.519627 
L 603.458678 175.604005 
L 603.458678 175.772759 
L 600.222488 175.857136 
L 600.222488 176.194645 
L 597.309917 176.279022 
L 597.309917 176.363399 
L 595.772727 176.363399 
L 595.772727 176.447776 
L 595.772727 177.122794 
L 592.857367 177.207171 
L 592.857367 177.54468 
L 590.799465 177.54468 
L 590.799465 177.629057 
L 590.799465 177.713434 
L 590.318182 177.797811 
L 590.318182 177.882189 
L 588.086777 177.882189 
L 588.086777 177.966566 
L 588.086777 178.050943 
L 586.11039 178.13532 
L 586.11039 178.219697 
L 578.863636 178.219697 
L 578.863636 178.304075 
L 578.863636 190.11688 
L 575.189226 190.201257 
L 575.113776 190.370012 
L 571.616883 190.454389 
L 571.616883 190.538766 
L 570.041502 190.538766 
L 570.041502 190.623143 
L 570.041502 190.70752 
L 565.772727 190.791898 
L 565.772727 190.876275 
L 564.033072 190.960652 
L 564.033072 191.045029 
L 563.255245 191.045029 
L 563.255245 191.129406 
L 563.255245 191.382538 
L 557.873041 191.466915 
L 557.873041 191.551292 
L 553.5 191.551292 
L 553.5 191.635669 
L 553.5 194.166985 
L 550.55074 194.251362 
L 550.55074 194.335739 
L 548.80303 194.420116 
L 548.80303 194.504494 
L 546.825359 194.504494 
L 546.825359 194.588871 
L 546.825359 194.842002 
L 541.971074 194.92638 
L 541.971074 196.023283 
L 538.281818 196.023283 
L 538.281818 196.10766 
L 538.281818 196.276414 
L 535.383117 196.276414 
L 535.383117 196.360792 
L 535.383117 196.6983 
L 533.045455 196.782678 
L 533.045455 196.867055 
L 531.120321 196.867055 
L 531.120321 196.951432 
L 531.120321 197.457695 
L 528.136364 197.457695 
L 528.136364 197.542072 
L 528.136364 197.710827 
L 525.93083 197.710827 
L 525.93083 197.795204 
L 525.93083 198.048335 
L 524.234266 198.132712 
L 524.234266 198.385844 
L 521.795455 198.470221 
L 521.795455 198.554598 
L 517.990909 198.638976 
L 517.990909 198.80773 
L 511.227273 198.892107 
L 511.227273 250.446566 
L 499.149351 250.530943 
L 499.149351 250.784075 
L 495.855372 250.868452 
L 495.855372 251.037206 
L 491.097403 251.121583 
L 491.097403 251.20596 
L 490.090909 251.290338 
L 490.090909 252.049732 
L 487.904389 252.134109 
L 487.904389 252.302864 
L 485.213287 252.387241 
L 485.213287 252.893504 
L 482.567797 252.977881 
L 482.567797 253.062258 
L 481.820158 253.146636 
L 481.820158 253.399767 
L 480.483471 253.399767 
L 480.483471 253.484144 
L 480.483471 253.652899 
L 479.019481 253.737276 
L 479.019481 253.821653 
L 477.409091 253.821653 
L 477.409091 253.90603 
L 477.409091 255.593574 
L 474.39559 255.677951 
L 474.39559 255.762328 
L 473.651515 255.762328 
L 473.651515 255.846705 
L 473.651515 256.184214 
L 471.441176 256.184214 
L 471.441176 256.268591 
L 471.441176 256.859232 
L 467.870629 256.943609 
L 467.870629 257.027986 
L 467.590909 257.027986 
L 467.590909 257.112363 
L 467.590909 257.281118 
L 465.702797 257.365495 
L 465.702797 257.449872 
L 463.981283 257.534249 
L 463.981283 257.618626 
L 462.915584 257.618626 
L 462.915584 257.703003 
L 462.915584 262.174994 
L 459.764822 262.174994 
L 459.764822 262.259371 
L 459.764822 262.343749 
L 458.386364 262.428126 
L 458.386364 262.59688 
L 457.118182 262.681257 
L 457.118182 263.018766 
L 454.863636 263.018766 
L 454.863636 263.103143 
L 454.863636 263.18752 
L 452.920063 263.18752 
L 452.920063 263.271898 
L 452.920063 263.440652 
L 451.003113 263.525029 
L 451.003113 263.609406 
L 449.739669 263.609406 
L 449.739669 263.693783 
L 449.739669 265.128196 
L 447.818182 265.128196 
L 447.818182 265.212573 
L 447.818182 265.29695 
L 446.192308 265.29695 
L 446.192308 265.381327 
L 446.192308 265.718836 
L 445.240576 265.718836 
L 445.240576 265.803213 
L 445.240576 265.88759 
L 443.590909 265.971967 
L 443.590909 266.478231 
L 440.0311 266.562608 
L 440.0311 267.322002 
L 437.709486 267.40638 
L 437.709486 268.081397 
L 436.075758 268.081397 
L 436.075758 268.165774 
L 436.075758 268.418906 
L 433.185315 268.503283 
L 433.185315 268.58766 
L 432.078337 268.58766 
L 432.078337 268.672037 
L 432.078337 269.009546 
L 426.681818 269.093923 
L 426.681818 296.938393 
L 421.505566 297.022771 
L 421.505566 297.191525 
L 418.995868 297.275902 
L 418.995868 297.360279 
L 417.935737 297.360279 
L 417.935737 297.444657 
L 417.935737 297.529034 
L 416.536364 297.529034 
L 416.536364 297.613411 
L 416.536364 297.697788 
L 414.603896 297.697788 
L 414.603896 297.782165 
L 414.603896 298.035297 
L 411.762032 298.119674 
L 411.762032 298.457183 
L 410.492263 298.54156 
L 410.492263 298.625937 
L 408.302372 298.710314 
L 408.302372 298.794692 
L 407.171329 298.794692 
L 407.171329 298.879069 
L 407.171329 299.469709 
L 405.514866 299.554086 
L 405.514866 299.638463 
L 404.941558 299.722841 
L 404.941558 299.807218 
L 403.623967 299.807218 
L 403.623967 299.891595 
L 403.623967 300.397858 
L 402.525974 300.482235 
L 402.525974 300.566612 
L 401.675416 300.65099 
L 401.675416 300.735367 
L 400.182497 300.819744 
L 400.182497 300.904121 
L 398.5 300.988498 
L 398.5 303.9417 
L 395.978469 304.026077 
L 395.978469 304.110454 
L 395.218067 304.194831 
L 395.218067 304.279208 
L 393.598814 304.363586 
L 393.598814 304.785471 
L 390.448052 304.869849 
L 390.448052 305.460489 
L 389.481818 305.460489 
L 389.481818 305.544866 
L 389.481818 305.629243 
L 388.90619 305.71362 
L 388.90619 305.797998 
L 387.660839 305.797998 
L 387.660839 305.882375 
L 387.660839 305.966752 
L 386.633971 305.966752 
L 386.633971 306.051129 
L 386.633971 306.304261 
L 383.378049 306.388638 
L 383.378049 306.473015 
L 381.157343 306.557392 
L 381.157343 306.641769 
L 378.842931 306.726147 
L 378.842931 306.810524 
L 377.316351 306.894901 
L 377.316351 306.979278 
L 375.954545 306.979278 
L 375.954545 307.063655 
L 375.954545 320.901513 
L 372.628167 320.901513 
L 372.628167 320.985891 
L 372.628167 321.070268 
L 369.409091 321.154645 
L 369.409091 321.239022 
L 368.15035 321.239022 
L 368.15035 321.323399 
L 368.15035 321.492154 
L 366.292208 321.576531 
L 366.292208 321.91404 
L 364.77058 321.998417 
L 364.77058 322.082794 
L 363.272727 322.082794 
L 363.272727 322.167171 
L 363.272727 322.420303 
L 360.924242 322.420303 
L 360.924242 322.50468 
L 360.924242 322.757811 
L 359.935407 322.842189 
L 359.935407 323.010943 
L 359.390538 323.010943 
L 359.390538 323.09532 
L 359.390538 323.179697 
L 357.508264 323.179697 
L 357.508264 323.264075 
L 357.508264 325.20475 
L 354.214286 325.20475 
L 354.214286 325.289127 
L 354.214286 325.373504 
L 352.082888 325.457881 
L 352.082888 325.879767 
L 350.590909 325.964144 
L 350.590909 326.048522 
L 349.488142 326.132899 
L 349.488142 326.723539 
L 346.135135 326.807916 
L 346.135135 326.892293 
L 342.136364 326.976671 
L 342.136364 334.233108 
L 339.612619 334.317485 
L 339.612619 334.401863 
L 336.681818 334.48624 
L 336.681818 334.570617 
L 335.372727 334.654994 
L 335.372727 334.739371 
L 334.450413 334.823749 
L 334.450413 334.908126 
L 333.236842 334.908126 
L 333.236842 334.992503 
L 333.236842 335.245634 
L 332.474026 335.330012 
L 332.474026 335.414389 
L 331.993296 335.498766 
L 331.993296 335.583143 
L 329.129371 335.66752 
L 329.129371 336.764424 
L 326.184391 336.764424 
L 326.184391 336.848801 
L 326.184391 336.933178 
L 325.227273 336.933178 
L 325.227273 337.017555 
L 325.227273 337.101932 
L 321.640496 337.18631 
L 321.640496 337.270687 
L 317.980519 337.355064 
L 317.980519 341.911432 
L 314.939924 341.995809 
L 314.939924 342.080186 
L 311.392562 342.164563 
L 311.392562 342.417695 
L 308.318182 342.417695 
L 308.318182 342.502072 
L 308.318182 342.839581 
L 303.954545 342.839581 
L 303.954545 342.923958 
L 303.954545 343.008335 
L 299.863636 343.008335 
L 299.863636 343.092712 
L 299.863636 345.455274 
L 292.403743 345.539651 
L 292.403743 345.877159 
L 290.108392 345.961537 
L 290.108392 346.130291 
L 288.334711 346.214668 
L 288.334711 346.299045 
L 285.772727 346.299045 
L 285.772727 346.383423 
L 285.772727 348.155343 
L 278.765913 348.239721 
L 278.765913 348.324098 
L 274.5 348.324098 
L 274.5 348.408475 
L 274.5 349.252247 
L 269.668831 349.336624 
L 269.668831 349.589756 
L 265.27686 349.674133 
L 265.27686 350.180396 
L 262.564171 350.180396 
L 262.564171 350.264773 
L 262.564171 350.34915 
L 260.006494 350.433527 
L 260.006494 350.517905 
L 257.590909 350.517905 
L 257.590909 350.602282 
L 257.590909 351.108545 
L 254.209091 351.108545 
L 254.209091 351.192922 
L 254.209091 351.277299 
L 245.512987 351.361676 
L 245.512987 351.530431 
L 240.681818 351.614808 
L 240.681818 351.952317 
L 236.454545 351.952317 
L 236.454545 352.036694 
L 236.454545 352.289825 
L 229.409091 352.374203 
L 229.409091 352.627334 
L 173.045455 352.711711 
L 173.045455 504 
L 173.045455 504 
" style="fill:none;stroke:#d62728;stroke-linecap:round;stroke-width:2.25;"/>
   </g>
   <g id="line2d_17">
    <path clip-path="url(#p439409540c)" d="M 849.409091 69.12 
L 849.409091 75.279534 
L 807.136364 75.363912 
L 807.136364 75.785797 
L 781.772727 75.785797 
L 781.772727 75.870175 
L 781.772727 77.642095 
L 764.863636 77.642095 
L 764.863636 77.726473 
L 764.863636 77.81085 
L 752.785714 77.81085 
L 752.785714 77.895227 
L 752.785714 78.654622 
L 739.997326 78.738999 
L 739.997326 78.823376 
L 736.681818 78.823376 
L 736.681818 78.907753 
L 736.681818 79.076508 
L 728.62987 79.160885 
L 728.62987 79.245262 
L 726.433884 79.245262 
L 726.433884 79.329639 
L 726.433884 79.414016 
L 722.590909 79.498393 
L 722.590909 79.582771 
L 714.136364 79.667148 
L 714.136364 79.835902 
L 707.016746 79.920279 
L 707.016746 80.004657 
L 702.373518 80.004657 
L 702.373518 80.089034 
L 702.373518 80.173411 
L 696.681818 80.257788 
L 696.681818 80.342165 
L 686.017875 80.426542 
L 686.017875 80.51092 
L 680.318182 80.51092 
L 680.318182 80.595297 
L 680.318182 163.538068 
L 670.746998 163.622445 
L 670.746998 163.706822 
L 662.826019 163.791199 
L 662.826019 163.875576 
L 660.027273 163.959953 
L 660.027273 164.044331 
L 658.262846 164.044331 
L 658.262846 164.128708 
L 658.262846 164.213085 
L 656.162338 164.213085 
L 656.162338 164.297462 
L 656.162338 164.550594 
L 653.619617 164.550594 
L 653.619617 164.634971 
L 653.619617 164.719348 
L 650.47861 164.803725 
L 650.47861 164.97248 
L 646.5 164.97248 
L 646.5 165.056857 
L 646.5 165.225611 
L 644.084416 165.225611 
L 644.084416 165.309988 
L 644.084416 165.478743 
L 641.297203 165.478743 
L 641.297203 165.56312 
L 641.297203 166.069383 
L 638.045455 166.069383 
L 638.045455 166.15376 
L 638.045455 166.238137 
L 634.202479 166.322515 
L 634.202479 167.503795 
L 631.227273 167.588172 
L 631.227273 167.672549 
L 629.590909 167.756927 
L 629.590909 168.010058 
L 623.954545 168.094435 
L 623.954545 169.44447 
L 619.445455 169.528847 
L 619.445455 169.613225 
L 614.152174 169.697602 
L 614.152174 169.866356 
L 612.177069 169.950733 
L 612.177069 170.035111 
L 609.863636 170.119488 
L 609.863636 170.203865 
L 607.850649 170.203865 
L 607.850649 170.288242 
L 607.850649 174.169593 
L 603.458678 174.169593 
L 603.458678 174.25397 
L 603.458678 174.338347 
L 601.281355 174.422724 
L 601.281355 174.507101 
L 600.222488 174.507101 
L 600.222488 174.591478 
L 600.222488 174.84461 
L 598.5 174.928987 
L 598.5 175.013364 
L 595.772727 175.097742 
L 595.772727 175.772759 
L 592.857367 175.857136 
L 592.857367 176.194645 
L 590.799465 176.279022 
L 590.799465 176.616531 
L 590.318182 176.700908 
L 590.318182 176.785285 
L 588.086777 176.785285 
L 588.086777 176.869662 
L 588.086777 176.95404 
L 586.11039 177.038417 
L 586.11039 177.122794 
L 578.863636 177.207171 
L 578.863636 189.273108 
L 574.14482 189.357485 
L 574.14482 189.441863 
L 571.616883 189.52624 
L 571.616883 189.610617 
L 570.041502 189.694994 
L 570.041502 189.948126 
L 565.463979 190.032503 
L 565.463979 190.11688 
L 563.255245 190.11688 
L 563.255245 190.201257 
L 563.255245 190.454389 
L 559.538961 190.538766 
L 559.538961 190.70752 
L 553.5 190.791898 
L 553.5 193.323213 
L 548.80303 193.40759 
L 548.80303 193.491967 
L 546.825359 193.491967 
L 546.825359 193.576345 
L 546.825359 193.829476 
L 541.971074 193.829476 
L 541.971074 193.913853 
L 541.971074 194.92638 
L 538.281818 194.92638 
L 538.281818 195.010757 
L 538.281818 195.179511 
L 535.383117 195.179511 
L 535.383117 195.263888 
L 535.383117 195.601397 
L 531.120321 195.601397 
L 531.120321 195.685774 
L 531.120321 196.276414 
L 528.136364 196.360792 
L 528.136364 196.529546 
L 525.93083 196.613923 
L 525.93083 196.867055 
L 525.030612 196.867055 
L 525.030612 196.951432 
L 525.030612 197.035809 
L 524.234266 197.120186 
L 524.234266 197.373318 
L 521.795455 197.457695 
L 521.795455 197.626449 
L 519.47561 197.710827 
L 519.47561 197.795204 
L 517.990909 197.795204 
L 517.990909 197.879581 
L 517.990909 197.963958 
L 511.227273 197.963958 
L 511.227273 198.048335 
L 511.227273 248.843399 
L 500.318182 248.927776 
L 500.318182 249.096531 
L 499.149351 249.096531 
L 499.149351 249.180908 
L 499.149351 249.43404 
L 495.855372 249.518417 
L 495.855372 249.855925 
L 493.42823 249.940303 
L 493.42823 250.109057 
L 490.090909 250.193434 
L 490.090909 250.868452 
L 487.904389 250.868452 
L 487.904389 250.952829 
L 487.904389 251.037206 
L 485.213287 251.037206 
L 485.213287 251.121583 
L 485.213287 251.543469 
L 482.567797 251.627846 
L 482.567797 251.712224 
L 481.820158 251.796601 
L 481.820158 252.049732 
L 480.483471 252.049732 
L 480.483471 252.134109 
L 480.483471 252.302864 
L 479.019481 252.387241 
L 479.019481 252.471618 
L 477.409091 252.471618 
L 477.409091 252.555995 
L 477.409091 254.074785 
L 473.651515 254.074785 
L 473.651515 254.159162 
L 473.651515 254.327916 
L 471.441176 254.327916 
L 471.441176 254.412293 
L 471.441176 255.002934 
L 469.985588 255.087311 
L 469.985588 255.171688 
L 468.954545 255.171688 
L 468.954545 255.256065 
L 468.954545 255.340442 
L 467.590909 255.340442 
L 467.590909 255.42482 
L 467.590909 255.509197 
L 466.136364 255.593574 
L 466.136364 255.762328 
L 462.915584 255.762328 
L 462.915584 255.846705 
L 462.915584 260.571828 
L 459.764822 260.571828 
L 459.764822 260.656205 
L 459.764822 260.824959 
L 459.199301 260.824959 
L 459.199301 260.909336 
L 459.199301 260.993714 
L 457.830144 261.078091 
L 457.830144 261.162468 
L 457.118182 261.162468 
L 457.118182 261.246845 
L 457.118182 261.499977 
L 454.863636 261.584354 
L 454.863636 261.837485 
L 452.920063 261.837485 
L 452.920063 261.921863 
L 452.920063 262.090617 
L 451.003113 262.174994 
L 451.003113 262.259371 
L 449.739669 262.259371 
L 449.739669 262.343749 
L 449.739669 263.525029 
L 447.818182 263.609406 
L 447.818182 263.778161 
L 446.192308 263.778161 
L 446.192308 263.862538 
L 446.192308 264.200047 
L 445.240576 264.200047 
L 445.240576 264.284424 
L 445.240576 264.368801 
L 443.590909 264.453178 
L 443.590909 264.875064 
L 440.0311 264.875064 
L 440.0311 264.959441 
L 440.0311 265.550081 
L 437.709486 265.634459 
L 437.709486 266.056345 
L 436.075758 266.140722 
L 436.075758 266.478231 
L 432.078337 266.562608 
L 432.078337 266.984494 
L 426.681818 267.068871 
L 426.681818 294.828964 
L 421.896226 294.913341 
L 421.896226 294.997718 
L 421.505566 294.997718 
L 421.505566 295.082095 
L 421.505566 295.166473 
L 418.995868 295.25085 
L 418.995868 295.335227 
L 417.935737 295.335227 
L 417.935737 295.419604 
L 417.935737 295.503981 
L 415.964789 295.588359 
L 415.964789 295.672736 
L 414.603896 295.672736 
L 414.603896 295.757113 
L 414.603896 296.094622 
L 411.762032 296.178999 
L 411.762032 296.43213 
L 410.829545 296.516508 
L 410.829545 296.600885 
L 409.772727 296.685262 
L 409.772727 296.769639 
L 407.33224 296.854016 
L 407.33224 296.938393 
L 407.171329 296.938393 
L 407.171329 297.022771 
L 407.171329 297.697788 
L 404.941558 297.782165 
L 404.941558 297.866542 
L 403.623967 297.866542 
L 403.623967 297.95092 
L 403.623967 298.372806 
L 401.836921 298.457183 
L 401.836921 298.54156 
L 400.182497 298.625937 
L 400.182497 298.710314 
L 398.5 298.794692 
L 398.5 301.579139 
L 397.189218 301.663516 
L 397.189218 301.747893 
L 396.245455 301.83227 
L 396.245455 301.916647 
L 395.750554 302.001024 
L 395.750554 302.085402 
L 394.977273 302.169779 
L 394.977273 302.254156 
L 393.598814 302.254156 
L 393.598814 302.338533 
L 393.598814 302.760419 
L 391.562937 302.760419 
L 391.562937 302.844796 
L 391.562937 302.929173 
L 390.448052 302.929173 
L 390.448052 303.013551 
L 390.448052 303.435437 
L 389.481818 303.435437 
L 389.481818 303.519814 
L 389.481818 303.604191 
L 387.660839 303.688568 
L 387.660839 303.857322 
L 386.633971 303.857322 
L 386.633971 303.9417 
L 386.633971 304.110454 
L 383.378049 304.194831 
L 383.378049 304.279208 
L 381.92246 304.363586 
L 381.92246 304.447963 
L 380.566116 304.53234 
L 380.566116 304.616717 
L 378.37013 304.701094 
L 378.37013 304.785471 
L 375.954545 304.785471 
L 375.954545 304.869849 
L 375.954545 319.045215 
L 372.628167 319.129593 
L 372.628167 319.21397 
L 371.543478 319.298347 
L 371.543478 319.382724 
L 370.507322 319.467101 
L 370.507322 319.551478 
L 369.409091 319.551478 
L 369.409091 319.635856 
L 369.409091 319.720233 
L 368.15035 319.720233 
L 368.15035 319.80461 
L 368.15035 319.973364 
L 367.320116 319.973364 
L 367.320116 320.057742 
L 367.320116 320.142119 
L 366.292208 320.142119 
L 366.292208 320.226496 
L 366.292208 320.39525 
L 363.272727 320.479627 
L 363.272727 320.732759 
L 362.197997 320.817136 
L 362.197997 320.901513 
L 360.924242 320.901513 
L 360.924242 320.985891 
L 360.924242 321.154645 
L 359.935407 321.154645 
L 359.935407 321.239022 
L 359.935407 321.323399 
L 359.390538 321.323399 
L 359.390538 321.407776 
L 359.390538 321.492154 
L 357.508264 321.576531 
L 357.508264 323.601583 
L 354.214286 323.601583 
L 354.214286 323.68596 
L 354.214286 323.770338 
L 352.082888 323.770338 
L 352.082888 323.854715 
L 352.082888 324.192224 
L 350.188312 324.276601 
L 350.188312 324.360978 
L 349.488142 324.445355 
L 349.488142 325.035995 
L 348.793486 325.120373 
L 348.793486 325.20475 
L 343.227273 325.289127 
L 343.227273 325.373504 
L 342.136364 325.373504 
L 342.136364 325.457881 
L 342.136364 333.136205 
L 339.612619 333.220582 
L 339.612619 333.304959 
L 336.097403 333.389336 
L 336.097403 333.473714 
L 334.450413 333.558091 
L 334.450413 333.642468 
L 333.236842 333.642468 
L 333.236842 333.726845 
L 333.236842 334.064354 
L 331.568182 334.148731 
L 331.568182 334.233108 
L 329.342164 334.317485 
L 329.342164 334.401863 
L 329.129371 334.401863 
L 329.129371 334.48624 
L 329.129371 335.498766 
L 326.184391 335.498766 
L 326.184391 335.583143 
L 326.184391 335.66752 
L 325.227273 335.66752 
L 325.227273 335.751898 
L 325.227273 335.920652 
L 323.348485 336.005029 
L 323.348485 336.089406 
L 317.980519 336.089406 
L 317.980519 336.173783 
L 317.980519 340.561397 
L 314.939924 340.645774 
L 314.939924 340.730151 
L 311.392562 340.814529 
L 311.392562 341.06766 
L 308.318182 341.06766 
L 308.318182 341.152037 
L 308.318182 341.489546 
L 303.954545 341.573923 
L 303.954545 341.742678 
L 299.863636 341.742678 
L 299.863636 341.827055 
L 299.863636 344.189616 
L 292.403743 344.273993 
L 292.403743 344.695879 
L 290.108392 344.780256 
L 290.108392 344.94901 
L 285.772727 345.033388 
L 285.772727 346.636554 
L 279.839713 346.720931 
L 279.839713 346.805308 
L 275.056423 346.889686 
L 275.056423 346.974063 
L 274.5 346.974063 
L 274.5 347.05844 
L 274.5 347.902212 
L 269.668831 347.902212 
L 269.668831 347.986589 
L 269.668831 348.070966 
L 265.27686 348.155343 
L 265.27686 348.577229 
L 261.266798 348.661607 
L 261.266798 348.745984 
L 257.590909 348.830361 
L 257.590909 349.336624 
L 254.209091 349.336624 
L 254.209091 349.421001 
L 254.209091 349.505378 
L 245.512987 349.589756 
L 245.512987 349.75851 
L 240.681818 349.842887 
L 240.681818 350.180396 
L 236.454545 350.264773 
L 236.454545 350.602282 
L 229.409091 350.686659 
L 229.409091 350.93979 
L 223.772727 351.024168 
L 223.772727 351.108545 
L 173.045455 351.108545 
L 173.045455 351.192922 
L 173.045455 504 
L 173.045455 504 
" style="fill:none;stroke:#2ca02c;stroke-linecap:round;stroke-width:2.25;"/>
   </g>
   <g id="line2d_18">
    <path clip-path="url(#p439409540c)" d="M 849.409091 69.12 
L 849.409091 70.891921 
L 781.772727 70.891921 
L 781.772727 70.976298 
L 781.772727 71.145052 
L 731.045455 71.22943 
L 731.045455 71.313807 
L 714.136364 71.398184 
L 714.136364 71.482561 
L 680.318182 71.482561 
L 680.318182 71.566938 
L 680.318182 127.593388 
L 656.162338 127.593388 
L 656.162338 127.677765 
L 656.162338 127.762142 
L 653.619617 127.762142 
L 653.619617 127.846519 
L 653.619617 128.015274 
L 650.47861 128.015274 
L 650.47861 128.099651 
L 650.47861 128.184028 
L 646.5 128.268405 
L 646.5 128.521537 
L 641.297203 128.521537 
L 641.297203 128.605914 
L 641.297203 128.690291 
L 634.202479 128.774668 
L 634.202479 129.365308 
L 629.02094 129.449686 
L 629.02094 129.534063 
L 623.954545 129.534063 
L 623.954545 129.61844 
L 623.954545 130.040326 
L 613.319897 130.124703 
L 613.319897 130.20908 
L 607.850649 130.20908 
L 607.850649 130.293458 
L 607.850649 132.740396 
L 598.5 132.824773 
L 598.5 132.90915 
L 595.772727 132.90915 
L 595.772727 132.993527 
L 595.772727 133.162282 
L 592.857367 133.246659 
L 592.857367 133.331036 
L 588.642388 133.415413 
L 588.642388 133.49979 
L 588.086777 133.49979 
L 588.086777 133.584168 
L 588.086777 133.752922 
L 586.378788 133.752922 
L 586.378788 133.837299 
L 586.378788 133.921676 
L 578.863636 134.006054 
L 578.863636 142.696903 
L 573.523923 142.781281 
L 573.523923 142.865658 
L 571.616883 142.950035 
L 571.616883 143.034412 
L 570.041502 143.118789 
L 570.041502 143.287544 
L 563.255245 143.371921 
L 563.255245 143.70943 
L 559.538961 143.793807 
L 559.538961 144.046938 
L 557.873041 144.131315 
L 557.873041 144.215693 
L 553.5 144.215693 
L 553.5 144.30007 
L 553.5 145.903236 
L 546.825359 145.903236 
L 546.825359 145.987614 
L 546.825359 146.071991 
L 541.971074 146.156368 
L 541.971074 147.00014 
L 538.281818 147.084517 
L 538.281818 147.253271 
L 536.750429 147.337648 
L 536.750429 147.422026 
L 535.383117 147.422026 
L 535.383117 147.506403 
L 535.383117 147.675157 
L 531.120321 147.675157 
L 531.120321 147.759534 
L 531.120321 148.012666 
L 528.136364 148.012666 
L 528.136364 148.097043 
L 528.136364 148.265797 
L 525.93083 148.265797 
L 525.93083 148.350175 
L 525.93083 148.518929 
L 524.234266 148.603306 
L 524.234266 148.772061 
L 523.524793 148.856438 
L 523.524793 148.940815 
L 522.888715 149.025192 
L 522.888715 149.193946 
L 511.227273 149.278324 
L 511.227273 192.22631 
L 504.325603 192.310687 
L 504.325603 192.395064 
L 499.991996 192.479441 
L 499.991996 192.563818 
L 497.7 192.563818 
L 497.7 192.648196 
L 497.618346 192.81695 
L 495.855372 192.81695 
L 495.855372 192.901327 
L 495.855372 192.985704 
L 493.42823 193.070081 
L 493.42823 193.323213 
L 490.090909 193.323213 
L 490.090909 193.40759 
L 490.090909 193.491967 
L 485.213287 193.576345 
L 485.213287 194.082608 
L 483.045455 194.166985 
L 483.045455 194.335739 
L 481.820158 194.335739 
L 481.820158 194.420116 
L 481.820158 194.504494 
L 479.019481 194.588871 
L 479.019481 194.673248 
L 477.409091 194.673248 
L 477.409091 194.757625 
L 477.409091 196.10766 
L 473.651515 196.192037 
L 473.651515 196.360792 
L 472.797521 196.445169 
L 472.797521 196.529546 
L 471.441176 196.529546 
L 471.441176 196.613923 
L 471.441176 196.6983 
L 468.954545 196.782678 
L 468.954545 197.120186 
L 462.915584 197.120186 
L 462.915584 197.204563 
L 462.915584 201.085914 
L 460.752374 201.170291 
L 460.752374 201.254668 
L 454.863636 201.339045 
L 454.863636 201.5078 
L 449.739669 201.5078 
L 449.739669 201.592177 
L 449.739669 202.520326 
L 445.240576 202.604703 
L 445.240576 202.68908 
L 443.590909 202.68908 
L 443.590909 202.773458 
L 443.590909 202.942212 
L 440.0311 203.026589 
L 440.0311 203.279721 
L 437.709486 203.279721 
L 437.709486 203.364098 
L 437.709486 203.617229 
L 426.681818 203.701607 
L 426.681818 229.014761 
L 418.995868 229.099139 
L 418.995868 229.183516 
L 417.935737 229.183516 
L 417.935737 229.267893 
L 417.935737 229.35227 
L 416.536364 229.35227 
L 416.536364 229.436647 
L 416.536364 229.689779 
L 414.603896 229.689779 
L 414.603896 229.774156 
L 414.603896 229.94291 
L 411.762032 230.027288 
L 411.762032 230.702305 
L 410.492263 230.786682 
L 410.492263 230.955437 
L 409.772727 231.039814 
L 409.772727 231.208568 
L 408.986258 231.292945 
L 408.986258 231.377322 
L 407.171329 231.377322 
L 407.171329 231.4617 
L 407.171329 232.221094 
L 403.623967 232.305471 
L 403.623967 232.811735 
L 402.136364 232.896112 
L 402.136364 233.064866 
L 398.5 233.064866 
L 398.5 233.149243 
L 398.5 234.836787 
L 394.977273 234.921164 
L 394.977273 235.005541 
L 393.598814 235.089919 
L 393.598814 235.680559 
L 390.448052 235.680559 
L 390.448052 235.764936 
L 390.448052 236.271199 
L 389.382353 236.355576 
L 389.382353 236.439953 
L 387.660839 236.524331 
L 387.660839 236.861839 
L 386.633971 236.861839 
L 386.633971 236.946217 
L 386.633971 237.283725 
L 382.951411 237.368102 
L 382.951411 237.621234 
L 381.513699 237.705611 
L 381.513699 237.789988 
L 377.659664 237.874366 
L 377.659664 237.958743 
L 375.954545 237.958743 
L 375.954545 238.04312 
L 375.954545 251.543469 
L 374.126536 251.627846 
L 374.126536 251.712224 
L 372.486014 251.796601 
L 372.486014 251.880978 
L 371.543478 251.965355 
L 371.543478 252.134109 
L 369.409091 252.218487 
L 369.409091 252.387241 
L 368.15035 252.471618 
L 368.15035 252.555995 
L 367.320116 252.555995 
L 367.320116 252.640373 
L 367.320116 252.72475 
L 366.292208 252.809127 
L 366.292208 253.31539 
L 363.272727 253.31539 
L 363.272727 253.399767 
L 363.272727 253.990407 
L 362.197997 254.074785 
L 362.197997 254.159162 
L 360.924242 254.243539 
L 360.924242 254.665425 
L 357.508264 254.665425 
L 357.508264 254.749802 
L 357.508264 257.365495 
L 356.397043 257.449872 
L 356.397043 257.534249 
L 354.214286 257.534249 
L 354.214286 257.618626 
L 354.214286 257.787381 
L 353.409091 257.871758 
L 353.409091 258.124889 
L 352.082888 258.124889 
L 352.082888 258.209267 
L 352.082888 258.462398 
L 349.488142 258.546775 
L 349.488142 259.221793 
L 347.921053 259.30617 
L 347.921053 259.390547 
L 346.260532 259.474924 
L 346.260532 259.559302 
L 345.734043 259.559302 
L 345.734043 259.643679 
L 345.734043 259.728056 
L 344.517926 259.812433 
L 344.517926 259.89681 
L 343.271202 259.981187 
L 343.271202 260.065565 
L 342.136364 260.065565 
L 342.136364 260.149942 
L 342.136364 269.600186 
L 340.222127 269.684563 
L 340.222127 269.768941 
L 336.681818 269.853318 
L 336.681818 269.937695 
L 335.372727 269.937695 
L 335.372727 270.022072 
L 335.372727 270.190827 
L 333.236842 270.275204 
L 333.236842 270.865844 
L 330.863636 270.950221 
L 330.863636 271.118976 
L 329.129371 271.118976 
L 329.129371 271.203353 
L 329.129371 271.793993 
L 327.966734 271.87837 
L 327.966734 271.962747 
L 326.764463 272.047125 
L 326.764463 272.131502 
L 325.227273 272.215879 
L 325.227273 272.637765 
L 323.348485 272.722142 
L 323.348485 273.059651 
L 322.732489 273.059651 
L 322.732489 273.144028 
L 322.732489 273.228405 
L 321.515521 273.312782 
L 321.515521 273.481537 
L 317.980519 273.565914 
L 317.980519 279.050431 
L 314.609937 279.134808 
L 314.609937 279.219185 
L 313.854254 279.303562 
L 313.854254 279.387939 
L 312.982759 279.472317 
L 312.982759 279.641071 
L 312.296791 279.725448 
L 312.296791 279.809825 
L 311.392562 279.809825 
L 311.392562 279.894203 
L 311.392562 280.231711 
L 309.32768 280.316088 
L 309.32768 280.400466 
L 308.318182 280.400466 
L 308.318182 280.484843 
L 308.318182 280.906729 
L 305.37747 280.991106 
L 305.37747 281.328615 
L 303.115385 281.412992 
L 303.115385 281.497369 
L 299.863636 281.581746 
L 299.863636 286.306868 
L 297.27551 286.391246 
L 297.27551 286.475623 
L 296.77051 286.56 
L 296.77051 286.644377 
L 296.020661 286.728754 
L 296.020661 286.813132 
L 295.166667 286.897509 
L 295.166667 286.981886 
L 293.824675 287.066263 
L 293.824675 287.15064 
L 293.110005 287.235017 
L 293.110005 287.319395 
L 292.403743 287.403772 
L 292.403743 288.331921 
L 290.108392 288.416298 
L 290.108392 288.838184 
L 286.923006 288.922561 
L 286.923006 289.006938 
L 285.772727 289.006938 
L 285.772727 289.091315 
L 285.772727 291.96014 
L 281.746753 292.044517 
L 281.746753 292.213271 
L 279.839713 292.297648 
L 279.839713 292.972666 
L 278.452774 293.057043 
L 278.452774 293.14142 
L 277.473787 293.225797 
L 277.473787 293.310175 
L 274.5 293.310175 
L 274.5 293.394552 
L 274.5 295.082095 
L 272.371583 295.166473 
L 272.371583 295.25085 
L 271.227273 295.335227 
L 271.227273 295.588359 
L 269.668831 295.588359 
L 269.668831 295.672736 
L 269.668831 296.010244 
L 267.736364 296.094622 
L 267.736364 296.178999 
L 265.27686 296.263376 
L 265.27686 297.107148 
L 263.900271 297.191525 
L 263.900271 297.275902 
L 262.564171 297.360279 
L 262.564171 297.444657 
L 261.266798 297.444657 
L 261.266798 297.529034 
L 261.266798 297.782165 
L 259.023883 297.866542 
L 259.023883 297.95092 
L 257.590909 297.95092 
L 257.590909 298.035297 
L 257.590909 298.794692 
L 254.209091 298.879069 
L 254.209091 299.1322 
L 251.087413 299.216577 
L 251.087413 300.397858 
L 248.19697 300.482235 
L 248.19697 300.566612 
L 245.512987 300.566612 
L 245.512987 300.65099 
L 245.512987 301.157253 
L 240.681818 301.24163 
L 240.681818 301.747893 
L 236.454545 301.83227 
L 236.454545 302.338533 
L 232.724599 302.338533 
L 232.724599 302.42291 
L 232.724599 302.591665 
L 229.409091 302.676042 
L 229.409091 303.182305 
L 226.442584 303.182305 
L 226.442584 303.266682 
L 226.442584 303.351059 
L 223.772727 303.351059 
L 223.772727 303.435437 
L 223.772727 303.688568 
L 221.357143 303.688568 
L 221.357143 303.772945 
L 221.357143 304.026077 
L 219.161157 304.026077 
L 219.161157 304.110454 
L 219.161157 304.279208 
L 217.156126 304.363586 
L 217.156126 304.447963 
L 213.627273 304.53234 
L 213.627273 304.701094 
L 206.863636 304.785471 
L 206.863636 304.869849 
L 196.639535 304.954226 
L 196.639535 305.038603 
L 173.045455 305.038603 
L 173.045455 305.12298 
L 173.045455 504 
L 173.045455 504 
" style="fill:none;stroke:#ff7f0e;stroke-linecap:round;stroke-width:2.25;"/>
   </g>
   <g id="line2d_19">
    <path clip-path="url(#p439409540c)" d="M 680.318182 69.12 
L 680.318182 70.132526 
L 511.227273 70.132526 
L 511.227273 70.216903 
L 511.227273 70.723166 
L 375.954545 70.807544 
L 375.954545 70.891921 
L 285.772727 70.976298 
L 285.772727 71.060675 
L 232.724599 71.145052 
L 232.724599 71.22943 
L 208.029781 71.313807 
L 208.029781 71.398184 
L 202.032468 71.482561 
L 202.032468 71.566938 
L 199.744019 71.651315 
L 199.744019 71.735693 
L 197.790466 71.735693 
L 197.790466 71.82007 
L 197.790466 71.904447 
L 194.181818 71.988824 
L 194.181818 72.073201 
L 186.572727 72.157579 
L 186.572727 72.241956 
L 185.570707 72.326333 
L 185.570707 72.41071 
L 181.716783 72.495087 
L 181.716783 72.579464 
L 180.790076 72.663842 
L 180.790076 72.748219 
L 179.590909 72.832596 
L 179.590909 72.916973 
L 176.932602 73.00135 
L 176.932602 73.085728 
L 175.501981 73.170105 
L 175.501981 73.254482 
L 174.321612 73.338859 
L 174.321612 73.423236 
L 173.534864 73.507614 
L 173.534864 73.591991 
L 173.045455 73.591991 
L 173.045455 73.676368 
L 173.045455 504 
L 173.045455 504 
" style="fill:none;stroke:#1f77b4;stroke-linecap:round;stroke-width:2.25;"/>
   </g>
   <g id="line2d_20">
    <path clip-path="url(#p439409540c)" d="M 223.772727 504 
L 223.772727 69.12 
" style="fill:none;stroke:#ff0000;stroke-dasharray:11.1,4.8;stroke-dashoffset:0;stroke-width:3;"/>
   </g>
   <g id="patch_3">
    <path d="M 135 504 
L 135 69.12 
" style="fill:none;stroke:#cccccc;stroke-linecap:square;stroke-linejoin:miter;stroke-width:1.875;"/>
   </g>
   <g id="patch_4">
    <path d="M 972 504 
L 972 69.12 
" style="fill:none;stroke:#cccccc;stroke-linecap:square;stroke-linejoin:miter;stroke-width:1.875;"/>
   </g>
   <g id="patch_5">
    <path d="M 135 504 
L 972 504 
" style="fill:none;stroke:#cccccc;stroke-linecap:square;stroke-linejoin:miter;stroke-width:1.875;"/>
   </g>
   <g id="patch_6">
    <path d="M 135 69.12 
L 972 69.12 
" style="fill:none;stroke:#cccccc;stroke-linecap:square;stroke-linejoin:miter;stroke-width:1.875;"/>
   </g>
   <g id="text_17">
    <!-- CDF logical job name distribution - logical job name size &gt; 1 -->
    <g style="fill:#262626;" transform="translate(281.534063 63.12)scale(0.18 -0.18)">
     <defs>
      <path d="M 4122 4306 
L 4122 3641 
Q 3803 3938 3442 4084 
Q 3081 4231 2675 4231 
Q 1875 4231 1450 3742 
Q 1025 3253 1025 2328 
Q 1025 1406 1450 917 
Q 1875 428 2675 428 
Q 3081 428 3442 575 
Q 3803 722 4122 1019 
L 4122 359 
Q 3791 134 3420 21 
Q 3050 -91 2638 -91 
Q 1578 -91 968 557 
Q 359 1206 359 2328 
Q 359 3453 968 4101 
Q 1578 4750 2638 4750 
Q 3056 4750 3426 4639 
Q 3797 4528 4122 4306 
z
" id="DejaVuSans-43" transform="scale(0.015625)"/>
      <path d="M 1259 4147 
L 1259 519 
L 2022 519 
Q 2988 519 3436 956 
Q 3884 1394 3884 2338 
Q 3884 3275 3436 3711 
Q 2988 4147 2022 4147 
L 1259 4147 
z
M 628 4666 
L 1925 4666 
Q 3281 4666 3915 4102 
Q 4550 3538 4550 2338 
Q 4550 1131 3912 565 
Q 3275 0 1925 0 
L 628 0 
L 628 4666 
z
" id="DejaVuSans-44" transform="scale(0.015625)"/>
      <path d="M 2906 2969 
L 2906 4863 
L 3481 4863 
L 3481 0 
L 2906 0 
L 2906 525 
Q 2725 213 2448 61 
Q 2172 -91 1784 -91 
Q 1150 -91 751 415 
Q 353 922 353 1747 
Q 353 2572 751 3078 
Q 1150 3584 1784 3584 
Q 2172 3584 2448 3432 
Q 2725 3281 2906 2969 
z
M 947 1747 
Q 947 1113 1208 752 
Q 1469 391 1925 391 
Q 2381 391 2643 752 
Q 2906 1113 2906 1747 
Q 2906 2381 2643 2742 
Q 2381 3103 1925 3103 
Q 1469 3103 1208 2742 
Q 947 2381 947 1747 
z
" id="DejaVuSans-64" transform="scale(0.015625)"/>
      <path d="M 313 2009 
L 1997 2009 
L 1997 1497 
L 313 1497 
L 313 2009 
z
" id="DejaVuSans-2d" transform="scale(0.015625)"/>
      <path d="M 353 3500 
L 3084 3500 
L 3084 2975 
L 922 459 
L 3084 459 
L 3084 0 
L 275 0 
L 275 525 
L 2438 3041 
L 353 3041 
L 353 3500 
z
" id="DejaVuSans-7a" transform="scale(0.015625)"/>
      <path d="M 678 3150 
L 678 3719 
L 4684 2266 
L 4684 1747 
L 678 294 
L 678 863 
L 3897 2003 
L 678 3150 
z
" id="DejaVuSans-3e" transform="scale(0.015625)"/>
     </defs>
     <use xlink:href="#DejaVuSans-43"/>
     <use x="69.824219" xlink:href="#DejaVuSans-44"/>
     <use x="146.826172" xlink:href="#DejaVuSans-46"/>
     <use x="204.345703" xlink:href="#DejaVuSans-20"/>
     <use x="236.132812" xlink:href="#DejaVuSans-6c"/>
     <use x="263.916016" xlink:href="#DejaVuSans-6f"/>
     <use x="325.097656" xlink:href="#DejaVuSans-67"/>
     <use x="388.574219" xlink:href="#DejaVuSans-69"/>
     <use x="416.357422" xlink:href="#DejaVuSans-63"/>
     <use x="471.337891" xlink:href="#DejaVuSans-61"/>
     <use x="532.617188" xlink:href="#DejaVuSans-6c"/>
     <use x="560.400391" xlink:href="#DejaVuSans-20"/>
     <use x="592.1875" xlink:href="#DejaVuSans-6a"/>
     <use x="619.970703" xlink:href="#DejaVuSans-6f"/>
     <use x="681.152344" xlink:href="#DejaVuSans-62"/>
     <use x="744.628906" xlink:href="#DejaVuSans-20"/>
     <use x="776.416016" xlink:href="#DejaVuSans-6e"/>
     <use x="839.794922" xlink:href="#DejaVuSans-61"/>
     <use x="901.074219" xlink:href="#DejaVuSans-6d"/>
     <use x="998.486328" xlink:href="#DejaVuSans-65"/>
     <use x="1060.009766" xlink:href="#DejaVuSans-20"/>
     <use x="1091.796875" xlink:href="#DejaVuSans-64"/>
     <use x="1155.273438" xlink:href="#DejaVuSans-69"/>
     <use x="1183.056641" xlink:href="#DejaVuSans-73"/>
     <use x="1235.15625" xlink:href="#DejaVuSans-74"/>
     <use x="1274.365234" xlink:href="#DejaVuSans-72"/>
     <use x="1315.478516" xlink:href="#DejaVuSans-69"/>
     <use x="1343.261719" xlink:href="#DejaVuSans-62"/>
     <use x="1406.738281" xlink:href="#DejaVuSans-75"/>
     <use x="1470.117188" xlink:href="#DejaVuSans-74"/>
     <use x="1509.326172" xlink:href="#DejaVuSans-69"/>
     <use x="1537.109375" xlink:href="#DejaVuSans-6f"/>
     <use x="1598.291016" xlink:href="#DejaVuSans-6e"/>
     <use x="1661.669922" xlink:href="#DejaVuSans-20"/>
     <use x="1693.457031" xlink:href="#DejaVuSans-2d"/>
     <use x="1729.541016" xlink:href="#DejaVuSans-20"/>
     <use x="1761.328125" xlink:href="#DejaVuSans-6c"/>
     <use x="1789.111328" xlink:href="#DejaVuSans-6f"/>
     <use x="1850.292969" xlink:href="#DejaVuSans-67"/>
     <use x="1913.769531" xlink:href="#DejaVuSans-69"/>
     <use x="1941.552734" xlink:href="#DejaVuSans-63"/>
     <use x="1996.533203" xlink:href="#DejaVuSans-61"/>
     <use x="2057.8125" xlink:href="#DejaVuSans-6c"/>
     <use x="2085.595703" xlink:href="#DejaVuSans-20"/>
     <use x="2117.382812" xlink:href="#DejaVuSans-6a"/>
     <use x="2145.166016" xlink:href="#DejaVuSans-6f"/>
     <use x="2206.347656" xlink:href="#DejaVuSans-62"/>
     <use x="2269.824219" xlink:href="#DejaVuSans-20"/>
     <use x="2301.611328" xlink:href="#DejaVuSans-6e"/>
     <use x="2364.990234" xlink:href="#DejaVuSans-61"/>
     <use x="2426.269531" xlink:href="#DejaVuSans-6d"/>
     <use x="2523.681641" xlink:href="#DejaVuSans-65"/>
     <use x="2585.205078" xlink:href="#DejaVuSans-20"/>
     <use x="2616.992188" xlink:href="#DejaVuSans-73"/>
     <use x="2669.091797" xlink:href="#DejaVuSans-69"/>
     <use x="2696.875" xlink:href="#DejaVuSans-7a"/>
     <use x="2749.365234" xlink:href="#DejaVuSans-65"/>
     <use x="2810.888672" xlink:href="#DejaVuSans-20"/>
     <use x="2842.675781" xlink:href="#DejaVuSans-3e"/>
     <use x="2926.464844" xlink:href="#DejaVuSans-20"/>
     <use x="2958.251953" xlink:href="#DejaVuSans-31"/>
    </g>
   </g>
   <g id="legend_1">
    <g id="patch_7">
     <path d="M 849.846563 495.75 
L 960.45 495.75 
Q 963.75 495.75 963.75 492.45 
L 963.75 347.334844 
Q 963.75 344.034844 960.45 344.034844 
L 849.846563 344.034844 
Q 846.546563 344.034844 846.546563 347.334844 
L 846.546563 492.45 
Q 846.546563 495.75 849.846563 495.75 
z
" style="fill:#ffffff;opacity:0.8;stroke:#cccccc;stroke-linejoin:miter;stroke-width:1.5;"/>
    </g>
    <g id="text_18">
     <!-- Experiment -->
     <g style="fill:#262626;" transform="translate(853.146563 364.312031)scale(0.18 -0.18)">
      <defs>
       <path d="M 628 4666 
L 3578 4666 
L 3578 4134 
L 1259 4134 
L 1259 2753 
L 3481 2753 
L 3481 2222 
L 1259 2222 
L 1259 531 
L 3634 531 
L 3634 0 
L 628 0 
L 628 4666 
z
" id="DejaVuSans-45" transform="scale(0.015625)"/>
       <path d="M 3513 3500 
L 2247 1797 
L 3578 0 
L 2900 0 
L 1881 1375 
L 863 0 
L 184 0 
L 1544 1831 
L 300 3500 
L 978 3500 
L 1906 2253 
L 2834 3500 
L 3513 3500 
z
" id="DejaVuSans-78" transform="scale(0.015625)"/>
      </defs>
      <use xlink:href="#DejaVuSans-45"/>
      <use x="63.183594" xlink:href="#DejaVuSans-78"/>
      <use x="122.363281" xlink:href="#DejaVuSans-70"/>
      <use x="185.839844" xlink:href="#DejaVuSans-65"/>
      <use x="247.363281" xlink:href="#DejaVuSans-72"/>
      <use x="288.476562" xlink:href="#DejaVuSans-69"/>
      <use x="316.259766" xlink:href="#DejaVuSans-6d"/>
      <use x="413.671875" xlink:href="#DejaVuSans-65"/>
      <use x="475.195312" xlink:href="#DejaVuSans-6e"/>
      <use x="538.574219" xlink:href="#DejaVuSans-74"/>
     </g>
    </g>
    <g id="line2d_21">
     <path d="M 854.615742 383.067891 
L 887.615742 383.067891 
" style="fill:none;stroke:#9467bd;stroke-linecap:round;stroke-width:2.25;"/>
    </g>
    <g id="line2d_22"/>
    <g id="text_19">
     <!-- k = 10 -->
     <g style="fill:#262626;" transform="translate(900.815742 388.842891)scale(0.165 -0.165)">
      <defs>
       <path d="M 581 4863 
L 1159 4863 
L 1159 1991 
L 2875 3500 
L 3609 3500 
L 1753 1863 
L 3688 0 
L 2938 0 
L 1159 1709 
L 1159 0 
L 581 0 
L 581 4863 
z
" id="DejaVuSans-6b" transform="scale(0.015625)"/>
       <path d="M 678 2906 
L 4684 2906 
L 4684 2381 
L 678 2381 
L 678 2906 
z
M 678 1631 
L 4684 1631 
L 4684 1100 
L 678 1100 
L 678 1631 
z
" id="DejaVuSans-3d" transform="scale(0.015625)"/>
      </defs>
      <use xlink:href="#DejaVuSans-6b"/>
      <use x="57.910156" xlink:href="#DejaVuSans-20"/>
      <use x="89.697266" xlink:href="#DejaVuSans-3d"/>
      <use x="173.486328" xlink:href="#DejaVuSans-20"/>
      <use x="205.273438" xlink:href="#DejaVuSans-31"/>
      <use x="268.896484" xlink:href="#DejaVuSans-30"/>
     </g>
    </g>
    <g id="line2d_23">
     <path d="M 854.615742 407.286797 
L 887.615742 407.286797 
" style="fill:none;stroke:#d62728;stroke-linecap:round;stroke-width:2.25;"/>
    </g>
    <g id="line2d_24"/>
    <g id="text_20">
     <!-- k = 8 -->
     <g style="fill:#262626;" transform="translate(900.815742 413.061797)scale(0.165 -0.165)">
      <use xlink:href="#DejaVuSans-6b"/>
      <use x="57.910156" xlink:href="#DejaVuSans-20"/>
      <use x="89.697266" xlink:href="#DejaVuSans-3d"/>
      <use x="173.486328" xlink:href="#DejaVuSans-20"/>
      <use x="205.273438" xlink:href="#DejaVuSans-38"/>
     </g>
    </g>
    <g id="line2d_25">
     <path d="M 854.615742 431.505703 
L 887.615742 431.505703 
" style="fill:none;stroke:#2ca02c;stroke-linecap:round;stroke-width:2.25;"/>
    </g>
    <g id="line2d_26"/>
    <g id="text_21">
     <!-- k = 6 -->
     <g style="fill:#262626;" transform="translate(900.815742 437.280703)scale(0.165 -0.165)">
      <use xlink:href="#DejaVuSans-6b"/>
      <use x="57.910156" xlink:href="#DejaVuSans-20"/>
      <use x="89.697266" xlink:href="#DejaVuSans-3d"/>
      <use x="173.486328" xlink:href="#DejaVuSans-20"/>
      <use x="205.273438" xlink:href="#DejaVuSans-36"/>
     </g>
    </g>
    <g id="line2d_27">
     <path d="M 854.615742 455.724609 
L 887.615742 455.724609 
" style="fill:none;stroke:#ff7f0e;stroke-linecap:round;stroke-width:2.25;"/>
    </g>
    <g id="line2d_28"/>
    <g id="text_22">
     <!-- k = 4 -->
     <g style="fill:#262626;" transform="translate(900.815742 461.499609)scale(0.165 -0.165)">
      <use xlink:href="#DejaVuSans-6b"/>
      <use x="57.910156" xlink:href="#DejaVuSans-20"/>
      <use x="89.697266" xlink:href="#DejaVuSans-3d"/>
      <use x="173.486328" xlink:href="#DejaVuSans-20"/>
      <use x="205.273438" xlink:href="#DejaVuSans-34"/>
     </g>
    </g>
    <g id="line2d_29">
     <path d="M 854.615742 479.943516 
L 887.615742 479.943516 
" style="fill:none;stroke:#1f77b4;stroke-linecap:round;stroke-width:2.25;"/>
    </g>
    <g id="line2d_30"/>
    <g id="text_23">
     <!-- k = 2 -->
     <g style="fill:#262626;" transform="translate(900.815742 485.718516)scale(0.165 -0.165)">
      <use xlink:href="#DejaVuSans-6b"/>
      <use x="57.910156" xlink:href="#DejaVuSans-20"/>
      <use x="89.697266" xlink:href="#DejaVuSans-3d"/>
      <use x="173.486328" xlink:href="#DejaVuSans-20"/>
      <use x="205.273438" xlink:href="#DejaVuSans-32"/>
     </g>
    </g>
   </g>
  </g>
 </g>
 <defs>
  <clipPath id="p439409540c">
   <rect height="434.88" width="837" x="135" y="69.12"/>
  </clipPath>
 </defs>
</svg>
