<?xml version="1.0" encoding="utf-8" standalone="no"?>
<!DOCTYPE svg PUBLIC "-//W3C//DTD SVG 1.1//EN"
  "http://www.w3.org/Graphics/SVG/1.1/DTD/svg11.dtd">
<svg height="576pt" version="1.1" viewBox="0 0 1080 576" width="1080pt" xmlns="http://www.w3.org/2000/svg" xmlns:xlink="http://www.w3.org/1999/xlink">
 <metadata>
  <rdf:RDF xmlns:cc="http://creativecommons.org/ns#" xmlns:dc="http://purl.org/dc/elements/1.1/" xmlns:rdf="http://www.w3.org/1999/02/22-rdf-syntax-ns#">
   <cc:Work>
    <dc:type rdf:resource="http://purl.org/dc/dcmitype/StillImage"/>
    <dc:date>2022-01-25T16:09:15.682976</dc:date>
    <dc:format>image/svg+xml</dc:format>
    <dc:creator>
     <cc:Agent>
      <dc:title>Matplotlib v3.4.3, https://matplotlib.org/</dc:title>
     </cc:Agent>
    </dc:creator>
   </cc:Work>
  </rdf:RDF>
 </metadata>
 <defs>
  <style type="text/css">*{stroke-linecap:butt;stroke-linejoin:round;}</style>
 </defs>
 <g id="figure_1">
  <g id="patch_1">
   <path d="M 0 576 
L 1080 576 
L 1080 0 
L 0 0 
z
" style="fill:#ffffff;"/>
  </g>
  <g id="axes_1">
   <g id="patch_2">
    <path d="M 135 504 
L 972 504 
L 972 69.12 
L 135 69.12 
z
" style="fill:#ffffff;"/>
   </g>
   <g id="matplotlib.axis_1">
    <g id="xtick_1">
     <g id="line2d_1">
      <path clip-path="url(#p8eb7efb380)" d="M 883.227273 504 
L 883.227273 69.12 
" style="fill:none;stroke:#999999;stroke-dasharray:1.5,2.475;stroke-dashoffset:0;stroke-width:1.5;"/>
     </g>
     <g id="text_1">
      <!-- 0.3 -->
      <g style="fill:#262626;" transform="translate(870.107195 529.037422)scale(0.165 -0.165)">
       <defs>
        <path d="M 2034 4250 
Q 1547 4250 1301 3770 
Q 1056 3291 1056 2328 
Q 1056 1369 1301 889 
Q 1547 409 2034 409 
Q 2525 409 2770 889 
Q 3016 1369 3016 2328 
Q 3016 3291 2770 3770 
Q 2525 4250 2034 4250 
z
M 2034 4750 
Q 2819 4750 3233 4129 
Q 3647 3509 3647 2328 
Q 3647 1150 3233 529 
Q 2819 -91 2034 -91 
Q 1250 -91 836 529 
Q 422 1150 422 2328 
Q 422 3509 836 4129 
Q 1250 4750 2034 4750 
z
" id="DejaVuSans-30" transform="scale(0.015625)"/>
        <path d="M 684 794 
L 1344 794 
L 1344 0 
L 684 0 
L 684 794 
z
" id="DejaVuSans-2e" transform="scale(0.015625)"/>
        <path d="M 2597 2516 
Q 3050 2419 3304 2112 
Q 3559 1806 3559 1356 
Q 3559 666 3084 287 
Q 2609 -91 1734 -91 
Q 1441 -91 1130 -33 
Q 819 25 488 141 
L 488 750 
Q 750 597 1062 519 
Q 1375 441 1716 441 
Q 2309 441 2620 675 
Q 2931 909 2931 1356 
Q 2931 1769 2642 2001 
Q 2353 2234 1838 2234 
L 1294 2234 
L 1294 2753 
L 1863 2753 
Q 2328 2753 2575 2939 
Q 2822 3125 2822 3475 
Q 2822 3834 2567 4026 
Q 2313 4219 1838 4219 
Q 1578 4219 1281 4162 
Q 984 4106 628 3988 
L 628 4550 
Q 988 4650 1302 4700 
Q 1616 4750 1894 4750 
Q 2613 4750 3031 4423 
Q 3450 4097 3450 3541 
Q 3450 3153 3228 2886 
Q 3006 2619 2597 2516 
z
" id="DejaVuSans-33" transform="scale(0.015625)"/>
       </defs>
       <use xlink:href="#DejaVuSans-30"/>
       <use x="63.623047" xlink:href="#DejaVuSans-2e"/>
       <use x="95.410156" xlink:href="#DejaVuSans-33"/>
      </g>
     </g>
    </g>
    <g id="xtick_2">
     <g id="line2d_2">
      <path clip-path="url(#p8eb7efb380)" d="M 781.772727 504 
L 781.772727 69.12 
" style="fill:none;stroke:#999999;stroke-dasharray:1.5,2.475;stroke-dashoffset:0;stroke-width:1.5;"/>
     </g>
     <g id="text_2">
      <!-- 0.4 -->
      <g style="fill:#262626;" transform="translate(768.652649 529.037422)scale(0.165 -0.165)">
       <defs>
        <path d="M 2419 4116 
L 825 1625 
L 2419 1625 
L 2419 4116 
z
M 2253 4666 
L 3047 4666 
L 3047 1625 
L 3713 1625 
L 3713 1100 
L 3047 1100 
L 3047 0 
L 2419 0 
L 2419 1100 
L 313 1100 
L 313 1709 
L 2253 4666 
z
" id="DejaVuSans-34" transform="scale(0.015625)"/>
       </defs>
       <use xlink:href="#DejaVuSans-30"/>
       <use x="63.623047" xlink:href="#DejaVuSans-2e"/>
       <use x="95.410156" xlink:href="#DejaVuSans-34"/>
      </g>
     </g>
    </g>
    <g id="xtick_3">
     <g id="line2d_3">
      <path clip-path="url(#p8eb7efb380)" d="M 680.318182 504 
L 680.318182 69.12 
" style="fill:none;stroke:#999999;stroke-dasharray:1.5,2.475;stroke-dashoffset:0;stroke-width:1.5;"/>
     </g>
     <g id="text_3">
      <!-- 0.5 -->
      <g style="fill:#262626;" transform="translate(667.198104 529.037422)scale(0.165 -0.165)">
       <defs>
        <path d="M 691 4666 
L 3169 4666 
L 3169 4134 
L 1269 4134 
L 1269 2991 
Q 1406 3038 1543 3061 
Q 1681 3084 1819 3084 
Q 2600 3084 3056 2656 
Q 3513 2228 3513 1497 
Q 3513 744 3044 326 
Q 2575 -91 1722 -91 
Q 1428 -91 1123 -41 
Q 819 9 494 109 
L 494 744 
Q 775 591 1075 516 
Q 1375 441 1709 441 
Q 2250 441 2565 725 
Q 2881 1009 2881 1497 
Q 2881 1984 2565 2268 
Q 2250 2553 1709 2553 
Q 1456 2553 1204 2497 
Q 953 2441 691 2322 
L 691 4666 
z
" id="DejaVuSans-35" transform="scale(0.015625)"/>
       </defs>
       <use xlink:href="#DejaVuSans-30"/>
       <use x="63.623047" xlink:href="#DejaVuSans-2e"/>
       <use x="95.410156" xlink:href="#DejaVuSans-35"/>
      </g>
     </g>
    </g>
    <g id="xtick_4">
     <g id="line2d_4">
      <path clip-path="url(#p8eb7efb380)" d="M 578.863636 504 
L 578.863636 69.12 
" style="fill:none;stroke:#999999;stroke-dasharray:1.5,2.475;stroke-dashoffset:0;stroke-width:1.5;"/>
     </g>
     <g id="text_4">
      <!-- 0.6 -->
      <g style="fill:#262626;" transform="translate(565.743558 529.037422)scale(0.165 -0.165)">
       <defs>
        <path d="M 2113 2584 
Q 1688 2584 1439 2293 
Q 1191 2003 1191 1497 
Q 1191 994 1439 701 
Q 1688 409 2113 409 
Q 2538 409 2786 701 
Q 3034 994 3034 1497 
Q 3034 2003 2786 2293 
Q 2538 2584 2113 2584 
z
M 3366 4563 
L 3366 3988 
Q 3128 4100 2886 4159 
Q 2644 4219 2406 4219 
Q 1781 4219 1451 3797 
Q 1122 3375 1075 2522 
Q 1259 2794 1537 2939 
Q 1816 3084 2150 3084 
Q 2853 3084 3261 2657 
Q 3669 2231 3669 1497 
Q 3669 778 3244 343 
Q 2819 -91 2113 -91 
Q 1303 -91 875 529 
Q 447 1150 447 2328 
Q 447 3434 972 4092 
Q 1497 4750 2381 4750 
Q 2619 4750 2861 4703 
Q 3103 4656 3366 4563 
z
" id="DejaVuSans-36" transform="scale(0.015625)"/>
       </defs>
       <use xlink:href="#DejaVuSans-30"/>
       <use x="63.623047" xlink:href="#DejaVuSans-2e"/>
       <use x="95.410156" xlink:href="#DejaVuSans-36"/>
      </g>
     </g>
    </g>
    <g id="xtick_5">
     <g id="line2d_5">
      <path clip-path="url(#p8eb7efb380)" d="M 477.409091 504 
L 477.409091 69.12 
" style="fill:none;stroke:#999999;stroke-dasharray:1.5,2.475;stroke-dashoffset:0;stroke-width:1.5;"/>
     </g>
     <g id="text_5">
      <!-- 0.7 -->
      <g style="fill:#262626;" transform="translate(464.289013 529.037422)scale(0.165 -0.165)">
       <defs>
        <path d="M 525 4666 
L 3525 4666 
L 3525 4397 
L 1831 0 
L 1172 0 
L 2766 4134 
L 525 4134 
L 525 4666 
z
" id="DejaVuSans-37" transform="scale(0.015625)"/>
       </defs>
       <use xlink:href="#DejaVuSans-30"/>
       <use x="63.623047" xlink:href="#DejaVuSans-2e"/>
       <use x="95.410156" xlink:href="#DejaVuSans-37"/>
      </g>
     </g>
    </g>
    <g id="xtick_6">
     <g id="line2d_6">
      <path clip-path="url(#p8eb7efb380)" d="M 375.954545 504 
L 375.954545 69.12 
" style="fill:none;stroke:#999999;stroke-dasharray:1.5,2.475;stroke-dashoffset:0;stroke-width:1.5;"/>
     </g>
     <g id="text_6">
      <!-- 0.8 -->
      <g style="fill:#262626;" transform="translate(362.834467 529.037422)scale(0.165 -0.165)">
       <defs>
        <path d="M 2034 2216 
Q 1584 2216 1326 1975 
Q 1069 1734 1069 1313 
Q 1069 891 1326 650 
Q 1584 409 2034 409 
Q 2484 409 2743 651 
Q 3003 894 3003 1313 
Q 3003 1734 2745 1975 
Q 2488 2216 2034 2216 
z
M 1403 2484 
Q 997 2584 770 2862 
Q 544 3141 544 3541 
Q 544 4100 942 4425 
Q 1341 4750 2034 4750 
Q 2731 4750 3128 4425 
Q 3525 4100 3525 3541 
Q 3525 3141 3298 2862 
Q 3072 2584 2669 2484 
Q 3125 2378 3379 2068 
Q 3634 1759 3634 1313 
Q 3634 634 3220 271 
Q 2806 -91 2034 -91 
Q 1263 -91 848 271 
Q 434 634 434 1313 
Q 434 1759 690 2068 
Q 947 2378 1403 2484 
z
M 1172 3481 
Q 1172 3119 1398 2916 
Q 1625 2713 2034 2713 
Q 2441 2713 2670 2916 
Q 2900 3119 2900 3481 
Q 2900 3844 2670 4047 
Q 2441 4250 2034 4250 
Q 1625 4250 1398 4047 
Q 1172 3844 1172 3481 
z
" id="DejaVuSans-38" transform="scale(0.015625)"/>
       </defs>
       <use xlink:href="#DejaVuSans-30"/>
       <use x="63.623047" xlink:href="#DejaVuSans-2e"/>
       <use x="95.410156" xlink:href="#DejaVuSans-38"/>
      </g>
     </g>
    </g>
    <g id="xtick_7">
     <g id="line2d_7">
      <path clip-path="url(#p8eb7efb380)" d="M 274.5 504 
L 274.5 69.12 
" style="fill:none;stroke:#999999;stroke-dasharray:1.5,2.475;stroke-dashoffset:0;stroke-width:1.5;"/>
     </g>
     <g id="text_7">
      <!-- 0.9 -->
      <g style="fill:#262626;" transform="translate(261.379922 529.037422)scale(0.165 -0.165)">
       <defs>
        <path d="M 703 97 
L 703 672 
Q 941 559 1184 500 
Q 1428 441 1663 441 
Q 2288 441 2617 861 
Q 2947 1281 2994 2138 
Q 2813 1869 2534 1725 
Q 2256 1581 1919 1581 
Q 1219 1581 811 2004 
Q 403 2428 403 3163 
Q 403 3881 828 4315 
Q 1253 4750 1959 4750 
Q 2769 4750 3195 4129 
Q 3622 3509 3622 2328 
Q 3622 1225 3098 567 
Q 2575 -91 1691 -91 
Q 1453 -91 1209 -44 
Q 966 3 703 97 
z
M 1959 2075 
Q 2384 2075 2632 2365 
Q 2881 2656 2881 3163 
Q 2881 3666 2632 3958 
Q 2384 4250 1959 4250 
Q 1534 4250 1286 3958 
Q 1038 3666 1038 3163 
Q 1038 2656 1286 2365 
Q 1534 2075 1959 2075 
z
" id="DejaVuSans-39" transform="scale(0.015625)"/>
       </defs>
       <use xlink:href="#DejaVuSans-30"/>
       <use x="63.623047" xlink:href="#DejaVuSans-2e"/>
       <use x="95.410156" xlink:href="#DejaVuSans-39"/>
      </g>
     </g>
    </g>
    <g id="xtick_8">
     <g id="line2d_8">
      <path clip-path="url(#p8eb7efb380)" d="M 173.045455 504 
L 173.045455 69.12 
" style="fill:none;stroke:#999999;stroke-dasharray:1.5,2.475;stroke-dashoffset:0;stroke-width:1.5;"/>
     </g>
     <g id="text_8">
      <!-- 1.0 -->
      <g style="fill:#262626;" transform="translate(159.925376 529.037422)scale(0.165 -0.165)">
       <defs>
        <path d="M 794 531 
L 1825 531 
L 1825 4091 
L 703 3866 
L 703 4441 
L 1819 4666 
L 2450 4666 
L 2450 531 
L 3481 531 
L 3481 0 
L 794 0 
L 794 531 
z
" id="DejaVuSans-31" transform="scale(0.015625)"/>
       </defs>
       <use xlink:href="#DejaVuSans-31"/>
       <use x="63.623047" xlink:href="#DejaVuSans-2e"/>
       <use x="95.410156" xlink:href="#DejaVuSans-30"/>
      </g>
     </g>
    </g>
    <g id="text_9">
     <!-- F (largest logical job name ratio in the cluster) -->
     <g style="fill:#262626;" transform="translate(344.631094 550.146094)scale(0.18 -0.18)">
      <defs>
       <path d="M 628 4666 
L 3309 4666 
L 3309 4134 
L 1259 4134 
L 1259 2759 
L 3109 2759 
L 3109 2228 
L 1259 2228 
L 1259 0 
L 628 0 
L 628 4666 
z
" id="DejaVuSans-46" transform="scale(0.015625)"/>
       <path id="DejaVuSans-20" transform="scale(0.015625)"/>
       <path d="M 1984 4856 
Q 1566 4138 1362 3434 
Q 1159 2731 1159 2009 
Q 1159 1288 1364 580 
Q 1569 -128 1984 -844 
L 1484 -844 
Q 1016 -109 783 600 
Q 550 1309 550 2009 
Q 550 2706 781 3412 
Q 1013 4119 1484 4856 
L 1984 4856 
z
" id="DejaVuSans-28" transform="scale(0.015625)"/>
       <path d="M 603 4863 
L 1178 4863 
L 1178 0 
L 603 0 
L 603 4863 
z
" id="DejaVuSans-6c" transform="scale(0.015625)"/>
       <path d="M 2194 1759 
Q 1497 1759 1228 1600 
Q 959 1441 959 1056 
Q 959 750 1161 570 
Q 1363 391 1709 391 
Q 2188 391 2477 730 
Q 2766 1069 2766 1631 
L 2766 1759 
L 2194 1759 
z
M 3341 1997 
L 3341 0 
L 2766 0 
L 2766 531 
Q 2569 213 2275 61 
Q 1981 -91 1556 -91 
Q 1019 -91 701 211 
Q 384 513 384 1019 
Q 384 1609 779 1909 
Q 1175 2209 1959 2209 
L 2766 2209 
L 2766 2266 
Q 2766 2663 2505 2880 
Q 2244 3097 1772 3097 
Q 1472 3097 1187 3025 
Q 903 2953 641 2809 
L 641 3341 
Q 956 3463 1253 3523 
Q 1550 3584 1831 3584 
Q 2591 3584 2966 3190 
Q 3341 2797 3341 1997 
z
" id="DejaVuSans-61" transform="scale(0.015625)"/>
       <path d="M 2631 2963 
Q 2534 3019 2420 3045 
Q 2306 3072 2169 3072 
Q 1681 3072 1420 2755 
Q 1159 2438 1159 1844 
L 1159 0 
L 581 0 
L 581 3500 
L 1159 3500 
L 1159 2956 
Q 1341 3275 1631 3429 
Q 1922 3584 2338 3584 
Q 2397 3584 2469 3576 
Q 2541 3569 2628 3553 
L 2631 2963 
z
" id="DejaVuSans-72" transform="scale(0.015625)"/>
       <path d="M 2906 1791 
Q 2906 2416 2648 2759 
Q 2391 3103 1925 3103 
Q 1463 3103 1205 2759 
Q 947 2416 947 1791 
Q 947 1169 1205 825 
Q 1463 481 1925 481 
Q 2391 481 2648 825 
Q 2906 1169 2906 1791 
z
M 3481 434 
Q 3481 -459 3084 -895 
Q 2688 -1331 1869 -1331 
Q 1566 -1331 1297 -1286 
Q 1028 -1241 775 -1147 
L 775 -588 
Q 1028 -725 1275 -790 
Q 1522 -856 1778 -856 
Q 2344 -856 2625 -561 
Q 2906 -266 2906 331 
L 2906 616 
Q 2728 306 2450 153 
Q 2172 0 1784 0 
Q 1141 0 747 490 
Q 353 981 353 1791 
Q 353 2603 747 3093 
Q 1141 3584 1784 3584 
Q 2172 3584 2450 3431 
Q 2728 3278 2906 2969 
L 2906 3500 
L 3481 3500 
L 3481 434 
z
" id="DejaVuSans-67" transform="scale(0.015625)"/>
       <path d="M 3597 1894 
L 3597 1613 
L 953 1613 
Q 991 1019 1311 708 
Q 1631 397 2203 397 
Q 2534 397 2845 478 
Q 3156 559 3463 722 
L 3463 178 
Q 3153 47 2828 -22 
Q 2503 -91 2169 -91 
Q 1331 -91 842 396 
Q 353 884 353 1716 
Q 353 2575 817 3079 
Q 1281 3584 2069 3584 
Q 2775 3584 3186 3129 
Q 3597 2675 3597 1894 
z
M 3022 2063 
Q 3016 2534 2758 2815 
Q 2500 3097 2075 3097 
Q 1594 3097 1305 2825 
Q 1016 2553 972 2059 
L 3022 2063 
z
" id="DejaVuSans-65" transform="scale(0.015625)"/>
       <path d="M 2834 3397 
L 2834 2853 
Q 2591 2978 2328 3040 
Q 2066 3103 1784 3103 
Q 1356 3103 1142 2972 
Q 928 2841 928 2578 
Q 928 2378 1081 2264 
Q 1234 2150 1697 2047 
L 1894 2003 
Q 2506 1872 2764 1633 
Q 3022 1394 3022 966 
Q 3022 478 2636 193 
Q 2250 -91 1575 -91 
Q 1294 -91 989 -36 
Q 684 19 347 128 
L 347 722 
Q 666 556 975 473 
Q 1284 391 1588 391 
Q 1994 391 2212 530 
Q 2431 669 2431 922 
Q 2431 1156 2273 1281 
Q 2116 1406 1581 1522 
L 1381 1569 
Q 847 1681 609 1914 
Q 372 2147 372 2553 
Q 372 3047 722 3315 
Q 1072 3584 1716 3584 
Q 2034 3584 2315 3537 
Q 2597 3491 2834 3397 
z
" id="DejaVuSans-73" transform="scale(0.015625)"/>
       <path d="M 1172 4494 
L 1172 3500 
L 2356 3500 
L 2356 3053 
L 1172 3053 
L 1172 1153 
Q 1172 725 1289 603 
Q 1406 481 1766 481 
L 2356 481 
L 2356 0 
L 1766 0 
Q 1100 0 847 248 
Q 594 497 594 1153 
L 594 3053 
L 172 3053 
L 172 3500 
L 594 3500 
L 594 4494 
L 1172 4494 
z
" id="DejaVuSans-74" transform="scale(0.015625)"/>
       <path d="M 1959 3097 
Q 1497 3097 1228 2736 
Q 959 2375 959 1747 
Q 959 1119 1226 758 
Q 1494 397 1959 397 
Q 2419 397 2687 759 
Q 2956 1122 2956 1747 
Q 2956 2369 2687 2733 
Q 2419 3097 1959 3097 
z
M 1959 3584 
Q 2709 3584 3137 3096 
Q 3566 2609 3566 1747 
Q 3566 888 3137 398 
Q 2709 -91 1959 -91 
Q 1206 -91 779 398 
Q 353 888 353 1747 
Q 353 2609 779 3096 
Q 1206 3584 1959 3584 
z
" id="DejaVuSans-6f" transform="scale(0.015625)"/>
       <path d="M 603 3500 
L 1178 3500 
L 1178 0 
L 603 0 
L 603 3500 
z
M 603 4863 
L 1178 4863 
L 1178 4134 
L 603 4134 
L 603 4863 
z
" id="DejaVuSans-69" transform="scale(0.015625)"/>
       <path d="M 3122 3366 
L 3122 2828 
Q 2878 2963 2633 3030 
Q 2388 3097 2138 3097 
Q 1578 3097 1268 2742 
Q 959 2388 959 1747 
Q 959 1106 1268 751 
Q 1578 397 2138 397 
Q 2388 397 2633 464 
Q 2878 531 3122 666 
L 3122 134 
Q 2881 22 2623 -34 
Q 2366 -91 2075 -91 
Q 1284 -91 818 406 
Q 353 903 353 1747 
Q 353 2603 823 3093 
Q 1294 3584 2113 3584 
Q 2378 3584 2631 3529 
Q 2884 3475 3122 3366 
z
" id="DejaVuSans-63" transform="scale(0.015625)"/>
       <path d="M 603 3500 
L 1178 3500 
L 1178 -63 
Q 1178 -731 923 -1031 
Q 669 -1331 103 -1331 
L -116 -1331 
L -116 -844 
L 38 -844 
Q 366 -844 484 -692 
Q 603 -541 603 -63 
L 603 3500 
z
M 603 4863 
L 1178 4863 
L 1178 4134 
L 603 4134 
L 603 4863 
z
" id="DejaVuSans-6a" transform="scale(0.015625)"/>
       <path d="M 3116 1747 
Q 3116 2381 2855 2742 
Q 2594 3103 2138 3103 
Q 1681 3103 1420 2742 
Q 1159 2381 1159 1747 
Q 1159 1113 1420 752 
Q 1681 391 2138 391 
Q 2594 391 2855 752 
Q 3116 1113 3116 1747 
z
M 1159 2969 
Q 1341 3281 1617 3432 
Q 1894 3584 2278 3584 
Q 2916 3584 3314 3078 
Q 3713 2572 3713 1747 
Q 3713 922 3314 415 
Q 2916 -91 2278 -91 
Q 1894 -91 1617 61 
Q 1341 213 1159 525 
L 1159 0 
L 581 0 
L 581 4863 
L 1159 4863 
L 1159 2969 
z
" id="DejaVuSans-62" transform="scale(0.015625)"/>
       <path d="M 3513 2113 
L 3513 0 
L 2938 0 
L 2938 2094 
Q 2938 2591 2744 2837 
Q 2550 3084 2163 3084 
Q 1697 3084 1428 2787 
Q 1159 2491 1159 1978 
L 1159 0 
L 581 0 
L 581 3500 
L 1159 3500 
L 1159 2956 
Q 1366 3272 1645 3428 
Q 1925 3584 2291 3584 
Q 2894 3584 3203 3211 
Q 3513 2838 3513 2113 
z
" id="DejaVuSans-6e" transform="scale(0.015625)"/>
       <path d="M 3328 2828 
Q 3544 3216 3844 3400 
Q 4144 3584 4550 3584 
Q 5097 3584 5394 3201 
Q 5691 2819 5691 2113 
L 5691 0 
L 5113 0 
L 5113 2094 
Q 5113 2597 4934 2840 
Q 4756 3084 4391 3084 
Q 3944 3084 3684 2787 
Q 3425 2491 3425 1978 
L 3425 0 
L 2847 0 
L 2847 2094 
Q 2847 2600 2669 2842 
Q 2491 3084 2119 3084 
Q 1678 3084 1418 2786 
Q 1159 2488 1159 1978 
L 1159 0 
L 581 0 
L 581 3500 
L 1159 3500 
L 1159 2956 
Q 1356 3278 1631 3431 
Q 1906 3584 2284 3584 
Q 2666 3584 2933 3390 
Q 3200 3197 3328 2828 
z
" id="DejaVuSans-6d" transform="scale(0.015625)"/>
       <path d="M 3513 2113 
L 3513 0 
L 2938 0 
L 2938 2094 
Q 2938 2591 2744 2837 
Q 2550 3084 2163 3084 
Q 1697 3084 1428 2787 
Q 1159 2491 1159 1978 
L 1159 0 
L 581 0 
L 581 4863 
L 1159 4863 
L 1159 2956 
Q 1366 3272 1645 3428 
Q 1925 3584 2291 3584 
Q 2894 3584 3203 3211 
Q 3513 2838 3513 2113 
z
" id="DejaVuSans-68" transform="scale(0.015625)"/>
       <path d="M 544 1381 
L 544 3500 
L 1119 3500 
L 1119 1403 
Q 1119 906 1312 657 
Q 1506 409 1894 409 
Q 2359 409 2629 706 
Q 2900 1003 2900 1516 
L 2900 3500 
L 3475 3500 
L 3475 0 
L 2900 0 
L 2900 538 
Q 2691 219 2414 64 
Q 2138 -91 1772 -91 
Q 1169 -91 856 284 
Q 544 659 544 1381 
z
M 1991 3584 
L 1991 3584 
z
" id="DejaVuSans-75" transform="scale(0.015625)"/>
       <path d="M 513 4856 
L 1013 4856 
Q 1481 4119 1714 3412 
Q 1947 2706 1947 2009 
Q 1947 1309 1714 600 
Q 1481 -109 1013 -844 
L 513 -844 
Q 928 -128 1133 580 
Q 1338 1288 1338 2009 
Q 1338 2731 1133 3434 
Q 928 4138 513 4856 
z
" id="DejaVuSans-29" transform="scale(0.015625)"/>
      </defs>
      <use xlink:href="#DejaVuSans-46"/>
      <use x="57.519531" xlink:href="#DejaVuSans-20"/>
      <use x="89.306641" xlink:href="#DejaVuSans-28"/>
      <use x="128.320312" xlink:href="#DejaVuSans-6c"/>
      <use x="156.103516" xlink:href="#DejaVuSans-61"/>
      <use x="217.382812" xlink:href="#DejaVuSans-72"/>
      <use x="256.746094" xlink:href="#DejaVuSans-67"/>
      <use x="320.222656" xlink:href="#DejaVuSans-65"/>
      <use x="381.746094" xlink:href="#DejaVuSans-73"/>
      <use x="433.845703" xlink:href="#DejaVuSans-74"/>
      <use x="473.054688" xlink:href="#DejaVuSans-20"/>
      <use x="504.841797" xlink:href="#DejaVuSans-6c"/>
      <use x="532.625" xlink:href="#DejaVuSans-6f"/>
      <use x="593.806641" xlink:href="#DejaVuSans-67"/>
      <use x="657.283203" xlink:href="#DejaVuSans-69"/>
      <use x="685.066406" xlink:href="#DejaVuSans-63"/>
      <use x="740.046875" xlink:href="#DejaVuSans-61"/>
      <use x="801.326172" xlink:href="#DejaVuSans-6c"/>
      <use x="829.109375" xlink:href="#DejaVuSans-20"/>
      <use x="860.896484" xlink:href="#DejaVuSans-6a"/>
      <use x="888.679688" xlink:href="#DejaVuSans-6f"/>
      <use x="949.861328" xlink:href="#DejaVuSans-62"/>
      <use x="1013.337891" xlink:href="#DejaVuSans-20"/>
      <use x="1045.125" xlink:href="#DejaVuSans-6e"/>
      <use x="1108.503906" xlink:href="#DejaVuSans-61"/>
      <use x="1169.783203" xlink:href="#DejaVuSans-6d"/>
      <use x="1267.195312" xlink:href="#DejaVuSans-65"/>
      <use x="1328.71875" xlink:href="#DejaVuSans-20"/>
      <use x="1360.505859" xlink:href="#DejaVuSans-72"/>
      <use x="1401.619141" xlink:href="#DejaVuSans-61"/>
      <use x="1462.898438" xlink:href="#DejaVuSans-74"/>
      <use x="1502.107422" xlink:href="#DejaVuSans-69"/>
      <use x="1529.890625" xlink:href="#DejaVuSans-6f"/>
      <use x="1591.072266" xlink:href="#DejaVuSans-20"/>
      <use x="1622.859375" xlink:href="#DejaVuSans-69"/>
      <use x="1650.642578" xlink:href="#DejaVuSans-6e"/>
      <use x="1714.021484" xlink:href="#DejaVuSans-20"/>
      <use x="1745.808594" xlink:href="#DejaVuSans-74"/>
      <use x="1785.017578" xlink:href="#DejaVuSans-68"/>
      <use x="1848.396484" xlink:href="#DejaVuSans-65"/>
      <use x="1909.919922" xlink:href="#DejaVuSans-20"/>
      <use x="1941.707031" xlink:href="#DejaVuSans-63"/>
      <use x="1996.6875" xlink:href="#DejaVuSans-6c"/>
      <use x="2024.470703" xlink:href="#DejaVuSans-75"/>
      <use x="2087.849609" xlink:href="#DejaVuSans-73"/>
      <use x="2139.949219" xlink:href="#DejaVuSans-74"/>
      <use x="2179.158203" xlink:href="#DejaVuSans-65"/>
      <use x="2240.681641" xlink:href="#DejaVuSans-72"/>
      <use x="2281.794922" xlink:href="#DejaVuSans-29"/>
     </g>
    </g>
   </g>
   <g id="matplotlib.axis_2">
    <g id="ytick_1">
     <g id="line2d_9">
      <path clip-path="url(#p8eb7efb380)" d="M 135 504 
L 972 504 
" style="fill:none;stroke:#999999;stroke-dasharray:1.5,2.475;stroke-dashoffset:0;stroke-width:1.5;"/>
     </g>
     <g id="text_10">
      <!-- 0% -->
      <g style="fill:#262626;" transform="translate(96.324297 510.268711)scale(0.165 -0.165)">
       <defs>
        <path d="M 4653 2053 
Q 4381 2053 4226 1822 
Q 4072 1591 4072 1178 
Q 4072 772 4226 539 
Q 4381 306 4653 306 
Q 4919 306 5073 539 
Q 5228 772 5228 1178 
Q 5228 1588 5073 1820 
Q 4919 2053 4653 2053 
z
M 4653 2450 
Q 5147 2450 5437 2106 
Q 5728 1763 5728 1178 
Q 5728 594 5436 251 
Q 5144 -91 4653 -91 
Q 4153 -91 3862 251 
Q 3572 594 3572 1178 
Q 3572 1766 3864 2108 
Q 4156 2450 4653 2450 
z
M 1428 4353 
Q 1159 4353 1004 4120 
Q 850 3888 850 3481 
Q 850 3069 1003 2837 
Q 1156 2606 1428 2606 
Q 1700 2606 1854 2837 
Q 2009 3069 2009 3481 
Q 2009 3884 1853 4118 
Q 1697 4353 1428 4353 
z
M 4250 4750 
L 4750 4750 
L 1831 -91 
L 1331 -91 
L 4250 4750 
z
M 1428 4750 
Q 1922 4750 2215 4408 
Q 2509 4066 2509 3481 
Q 2509 2891 2217 2550 
Q 1925 2209 1428 2209 
Q 931 2209 642 2551 
Q 353 2894 353 3481 
Q 353 4063 643 4406 
Q 934 4750 1428 4750 
z
" id="DejaVuSans-25" transform="scale(0.015625)"/>
       </defs>
       <use xlink:href="#DejaVuSans-30"/>
       <use x="63.623047" xlink:href="#DejaVuSans-25"/>
      </g>
     </g>
    </g>
    <g id="ytick_2">
     <g id="line2d_10">
      <path clip-path="url(#p8eb7efb380)" d="M 135 417.024 
L 972 417.024 
" style="fill:none;stroke:#999999;stroke-dasharray:1.5,2.475;stroke-dashoffset:0;stroke-width:1.5;"/>
     </g>
     <g id="text_11">
      <!-- 20% -->
      <g style="fill:#262626;" transform="translate(85.826172 423.292711)scale(0.165 -0.165)">
       <defs>
        <path d="M 1228 531 
L 3431 531 
L 3431 0 
L 469 0 
L 469 531 
Q 828 903 1448 1529 
Q 2069 2156 2228 2338 
Q 2531 2678 2651 2914 
Q 2772 3150 2772 3378 
Q 2772 3750 2511 3984 
Q 2250 4219 1831 4219 
Q 1534 4219 1204 4116 
Q 875 4013 500 3803 
L 500 4441 
Q 881 4594 1212 4672 
Q 1544 4750 1819 4750 
Q 2544 4750 2975 4387 
Q 3406 4025 3406 3419 
Q 3406 3131 3298 2873 
Q 3191 2616 2906 2266 
Q 2828 2175 2409 1742 
Q 1991 1309 1228 531 
z
" id="DejaVuSans-32" transform="scale(0.015625)"/>
       </defs>
       <use xlink:href="#DejaVuSans-32"/>
       <use x="63.623047" xlink:href="#DejaVuSans-30"/>
       <use x="127.246094" xlink:href="#DejaVuSans-25"/>
      </g>
     </g>
    </g>
    <g id="ytick_3">
     <g id="line2d_11">
      <path clip-path="url(#p8eb7efb380)" d="M 135 330.048 
L 972 330.048 
" style="fill:none;stroke:#999999;stroke-dasharray:1.5,2.475;stroke-dashoffset:0;stroke-width:1.5;"/>
     </g>
     <g id="text_12">
      <!-- 40% -->
      <g style="fill:#262626;" transform="translate(85.826172 336.316711)scale(0.165 -0.165)">
       <use xlink:href="#DejaVuSans-34"/>
       <use x="63.623047" xlink:href="#DejaVuSans-30"/>
       <use x="127.246094" xlink:href="#DejaVuSans-25"/>
      </g>
     </g>
    </g>
    <g id="ytick_4">
     <g id="line2d_12">
      <path clip-path="url(#p8eb7efb380)" d="M 135 243.072 
L 972 243.072 
" style="fill:none;stroke:#999999;stroke-dasharray:1.5,2.475;stroke-dashoffset:0;stroke-width:1.5;"/>
     </g>
     <g id="text_13">
      <!-- 60% -->
      <g style="fill:#262626;" transform="translate(85.826172 249.340711)scale(0.165 -0.165)">
       <use xlink:href="#DejaVuSans-36"/>
       <use x="63.623047" xlink:href="#DejaVuSans-30"/>
       <use x="127.246094" xlink:href="#DejaVuSans-25"/>
      </g>
     </g>
    </g>
    <g id="ytick_5">
     <g id="line2d_13">
      <path clip-path="url(#p8eb7efb380)" d="M 135 156.096 
L 972 156.096 
" style="fill:none;stroke:#999999;stroke-dasharray:1.5,2.475;stroke-dashoffset:0;stroke-width:1.5;"/>
     </g>
     <g id="text_14">
      <!-- 80% -->
      <g style="fill:#262626;" transform="translate(85.826172 162.364711)scale(0.165 -0.165)">
       <use xlink:href="#DejaVuSans-38"/>
       <use x="63.623047" xlink:href="#DejaVuSans-30"/>
       <use x="127.246094" xlink:href="#DejaVuSans-25"/>
      </g>
     </g>
    </g>
    <g id="ytick_6">
     <g id="line2d_14">
      <path clip-path="url(#p8eb7efb380)" d="M 135 69.12 
L 972 69.12 
" style="fill:none;stroke:#999999;stroke-dasharray:1.5,2.475;stroke-dashoffset:0;stroke-width:1.5;"/>
     </g>
     <g id="text_15">
      <!-- 100% -->
      <g style="fill:#262626;" transform="translate(75.328047 75.388711)scale(0.165 -0.165)">
       <use xlink:href="#DejaVuSans-31"/>
       <use x="63.623047" xlink:href="#DejaVuSans-30"/>
       <use x="127.246094" xlink:href="#DejaVuSans-30"/>
       <use x="190.869141" xlink:href="#DejaVuSans-25"/>
      </g>
     </g>
    </g>
    <g id="text_16">
     <!-- Proportion -->
     <g style="fill:#262626;" transform="translate(67.584609 332.992969)rotate(-90)scale(0.18 -0.18)">
      <defs>
       <path d="M 1259 4147 
L 1259 2394 
L 2053 2394 
Q 2494 2394 2734 2622 
Q 2975 2850 2975 3272 
Q 2975 3691 2734 3919 
Q 2494 4147 2053 4147 
L 1259 4147 
z
M 628 4666 
L 2053 4666 
Q 2838 4666 3239 4311 
Q 3641 3956 3641 3272 
Q 3641 2581 3239 2228 
Q 2838 1875 2053 1875 
L 1259 1875 
L 1259 0 
L 628 0 
L 628 4666 
z
" id="DejaVuSans-50" transform="scale(0.015625)"/>
       <path d="M 1159 525 
L 1159 -1331 
L 581 -1331 
L 581 3500 
L 1159 3500 
L 1159 2969 
Q 1341 3281 1617 3432 
Q 1894 3584 2278 3584 
Q 2916 3584 3314 3078 
Q 3713 2572 3713 1747 
Q 3713 922 3314 415 
Q 2916 -91 2278 -91 
Q 1894 -91 1617 61 
Q 1341 213 1159 525 
z
M 3116 1747 
Q 3116 2381 2855 2742 
Q 2594 3103 2138 3103 
Q 1681 3103 1420 2742 
Q 1159 2381 1159 1747 
Q 1159 1113 1420 752 
Q 1681 391 2138 391 
Q 2594 391 2855 752 
Q 3116 1113 3116 1747 
z
" id="DejaVuSans-70" transform="scale(0.015625)"/>
      </defs>
      <use xlink:href="#DejaVuSans-50"/>
      <use x="58.552734" xlink:href="#DejaVuSans-72"/>
      <use x="97.416016" xlink:href="#DejaVuSans-6f"/>
      <use x="158.597656" xlink:href="#DejaVuSans-70"/>
      <use x="222.074219" xlink:href="#DejaVuSans-6f"/>
      <use x="283.255859" xlink:href="#DejaVuSans-72"/>
      <use x="324.369141" xlink:href="#DejaVuSans-74"/>
      <use x="363.578125" xlink:href="#DejaVuSans-69"/>
      <use x="391.361328" xlink:href="#DejaVuSans-6f"/>
      <use x="452.542969" xlink:href="#DejaVuSans-6e"/>
     </g>
    </g>
   </g>
   <g id="line2d_15">
    <path clip-path="url(#p8eb7efb380)" d="M 933.954545 69.12 
L 933.954545 69.50912 
L 849.409091 69.586943 
L 849.409091 75.540472 
L 829.516043 75.618296 
L 829.516043 75.657208 
L 807.136364 75.657208 
L 807.136364 75.735032 
L 807.136364 76.124152 
L 793.045455 76.201976 
L 793.045455 76.240888 
L 788.61236 76.318712 
L 788.61236 76.357623 
L 781.772727 76.357623 
L 781.772727 76.435447 
L 781.772727 77.991926 
L 769.836898 78.030838 
L 769.836898 78.069749 
L 769.836898 78.108661 
L 764.863636 78.108661 
L 764.863636 78.186485 
L 764.863636 78.264309 
L 760.413876 78.303221 
L 760.413876 78.342133 
L 760.413876 78.381045 
L 752.785714 78.381045 
L 752.785714 78.458869 
L 752.785714 79.47058 
L 746.48419 79.548404 
L 746.48419 79.587316 
L 739.997326 79.66514 
L 739.997326 79.704052 
L 736.681818 79.704052 
L 736.681818 79.781875 
L 736.681818 79.976435 
L 726.433884 80.054259 
L 726.433884 80.521203 
L 722.590909 80.560115 
L 722.590909 80.599026 
L 722.590909 80.637938 
L 719.339161 80.67685 
L 719.339161 80.715762 
L 719.339161 80.793586 
L 714.136364 80.87141 
L 714.136364 81.104882 
L 704.474026 81.182706 
L 704.474026 81.26053 
L 702.373518 81.26053 
L 702.373518 81.338354 
L 702.373518 81.377266 
L 699.106061 81.416178 
L 699.106061 81.455089 
L 699.106061 81.494001 
L 695.690083 81.571825 
L 695.690083 81.610737 
L 688.37013 81.688561 
L 688.37013 81.727473 
L 680.318182 81.766385 
L 680.318182 81.805297 
L 680.318182 129.238969 
L 672.746947 129.316793 
L 672.746947 129.355705 
L 669.525145 129.433529 
L 669.525145 129.472441 
L 667.311189 129.550265 
L 667.311189 129.589177 
L 663.954545 129.667001 
L 663.954545 129.705913 
L 658.884123 129.783737 
L 658.884123 129.822649 
L 658.262846 129.822649 
L 658.262846 129.900472 
L 658.262846 129.939384 
L 653.619617 130.017208 
L 653.619617 130.05612 
L 650.47861 130.133944 
L 650.47861 130.289592 
L 644.59475 130.367416 
L 644.59475 130.406328 
L 641.297203 130.44524 
L 641.297203 130.484152 
L 641.297203 130.678712 
L 636.837662 130.756535 
L 636.837662 130.795447 
L 634.202479 130.834359 
L 634.202479 130.873271 
L 634.202479 131.456951 
L 631.227273 131.534775 
L 631.227273 131.612598 
L 629.590909 131.65151 
L 629.590909 131.690422 
L 629.590909 131.768246 
L 626.921053 131.84607 
L 626.921053 131.923894 
L 625.312705 132.001718 
L 625.312705 132.04063 
L 623.954545 132.04063 
L 623.954545 132.118454 
L 623.954545 132.741045 
L 619.445455 132.779957 
L 619.445455 132.818869 
L 619.445455 132.896693 
L 616.909091 132.896693 
L 616.909091 132.974517 
L 616.909091 133.013429 
L 614.591815 133.091253 
L 614.591815 133.130165 
L 614.152174 133.130165 
L 614.152174 133.207989 
L 614.152174 133.246901 
L 607.850649 133.285812 
L 607.850649 133.324724 
L 607.850649 135.464882 
L 602.276224 135.542706 
L 602.276224 135.62053 
L 600.222488 135.659442 
L 600.222488 135.698354 
L 600.222488 135.815089 
L 598.5 135.854001 
L 598.5 135.892913 
L 598.5 135.970737 
L 595.772727 135.970737 
L 595.772727 136.048561 
L 595.772727 136.243121 
L 590.799465 136.282033 
L 590.799465 136.320945 
L 590.799465 136.515505 
L 588.086777 136.554417 
L 588.086777 136.593329 
L 588.086777 136.671152 
L 586.378788 136.710064 
L 586.378788 136.748976 
L 586.378788 136.787888 
L 581.498819 136.865712 
L 581.498819 136.904624 
L 578.863636 136.943536 
L 578.863636 136.982448 
L 578.863636 143.208361 
L 573.62987 143.286185 
L 573.62987 143.325097 
L 570.041502 143.402921 
L 570.041502 143.558568 
L 566.440631 143.636392 
L 566.440631 143.714216 
L 563.255245 143.714216 
L 563.255245 143.79204 
L 563.255245 143.869864 
L 559.538961 143.908776 
L 559.538961 143.947688 
L 559.538961 144.103336 
L 557.873041 144.142248 
L 557.873041 144.18116 
L 557.873041 144.220072 
L 553.5 144.258984 
L 553.5 144.297895 
L 553.5 145.893286 
L 548.80303 145.893286 
L 548.80303 145.97111 
L 548.80303 146.010021 
L 546.825359 146.048933 
L 546.825359 146.087845 
L 546.825359 146.360229 
L 541.971074 146.438053 
L 541.971074 146.904996 
L 538.281818 146.943908 
L 538.281818 146.98282 
L 538.281818 147.060644 
L 535.383117 147.060644 
L 535.383117 147.138468 
L 535.383117 147.410852 
L 533.772727 147.488676 
L 533.772727 147.527588 
L 531.120321 147.605412 
L 531.120321 147.761059 
L 528.136364 147.799971 
L 528.136364 147.838883 
L 528.136364 147.916707 
L 525.93083 147.955619 
L 525.93083 147.994531 
L 525.93083 148.072355 
L 524.234266 148.150179 
L 524.234266 148.422563 
L 520.492528 148.500387 
L 520.492528 148.539298 
L 518.422631 148.617122 
L 518.422631 148.656034 
L 513.289357 148.733858 
L 513.289357 148.77277 
L 511.227273 148.77277 
L 511.227273 148.850594 
L 511.227273 174.765956 
L 503.875494 174.804868 
L 503.875494 174.84378 
L 503.875494 174.882691 
L 501.701024 174.960515 
L 501.701024 174.999427 
L 499.149351 175.038339 
L 499.149351 175.077251 
L 499.149351 175.116163 
L 497.136364 175.193987 
L 497.136364 175.232899 
L 495.855372 175.310723 
L 495.855372 175.583107 
L 493.42823 175.622019 
L 493.42823 175.660931 
L 493.42823 175.699843 
L 490.090909 175.738754 
L 490.090909 175.777666 
L 490.090909 176.088962 
L 485.213287 176.127874 
L 485.213287 176.166786 
L 485.213287 176.400258 
L 482.567797 176.478082 
L 482.567797 176.516994 
L 478.798879 176.594817 
L 478.798879 176.633729 
L 477.409091 176.633729 
L 477.409091 176.711553 
L 477.409091 177.528704 
L 475.250484 177.606528 
L 475.250484 177.64544 
L 471.441176 177.684352 
L 471.441176 177.723264 
L 471.441176 177.878912 
L 467.590909 177.956736 
L 467.590909 177.995648 
L 462.915584 177.995648 
L 462.915584 178.073472 
L 462.915584 179.707774 
L 461.126263 179.785598 
L 461.126263 179.82451 
L 457.118182 179.863422 
L 457.118182 179.902334 
L 457.118182 179.980157 
L 454.863636 179.980157 
L 454.863636 180.057981 
L 454.863636 180.096893 
L 453.66441 180.174717 
L 453.66441 180.291453 
L 452.413043 180.369277 
L 452.413043 180.408189 
L 449.739669 180.486013 
L 449.739669 181.264252 
L 443.590909 181.303164 
L 443.590909 181.342076 
L 443.590909 181.536636 
L 441.450518 181.61446 
L 441.366029 181.692283 
L 440.0311 181.731195 
L 440.0311 181.770107 
L 440.0311 182.003579 
L 437.709486 182.081403 
L 437.709486 182.470523 
L 436.075758 182.509435 
L 436.075758 182.548346 
L 436.075758 182.587258 
L 431.65508 182.62617 
L 431.65508 182.665082 
L 431.65508 182.703994 
L 426.681818 182.742906 
L 426.681818 182.781818 
L 426.681818 194.105197 
L 421.896226 194.183021 
L 421.896226 194.221933 
L 419.177784 194.299757 
L 419.177784 194.338669 
L 418.170531 194.416492 
L 418.170531 194.455404 
L 416.536364 194.494316 
L 416.536364 194.533228 
L 416.536364 194.688876 
L 414.603896 194.688876 
L 414.603896 194.7667 
L 414.603896 194.922348 
L 410.492263 195.000172 
L 410.492263 195.077996 
L 407.171329 195.15582 
L 407.171329 195.622763 
L 404.941558 195.661675 
L 404.941558 195.700587 
L 404.941558 195.739499 
L 403.623967 195.778411 
L 403.623967 195.817323 
L 403.623967 195.972971 
L 400.800557 196.050795 
L 400.800557 196.089707 
L 398.5 196.089707 
L 398.5 196.16753 
L 398.5 197.101417 
L 395.750554 197.140329 
L 395.750554 197.179241 
L 395.750554 197.218153 
L 394.977273 197.257065 
L 394.977273 197.295977 
L 394.977273 197.334889 
L 392.863636 197.412713 
L 392.863636 197.451625 
L 390.448052 197.529449 
L 390.448052 197.685097 
L 386.633971 197.724009 
L 386.633971 197.762921 
L 386.633971 197.879656 
L 384.409091 197.918568 
L 384.409091 197.95748 
L 384.409091 198.074216 
L 382.396104 198.15204 
L 382.396104 198.190952 
L 375.954545 198.268776 
L 375.954545 203.755361 
L 373.555283 203.833185 
L 373.555283 203.872097 
L 369.409091 203.949921 
L 369.409091 203.988833 
L 368.15035 203.988833 
L 368.15035 204.066657 
L 368.15035 204.105569 
L 366.292208 204.105569 
L 366.292208 204.183393 
L 366.292208 204.222305 
L 363.272727 204.300129 
L 363.272727 204.339041 
L 357.508264 204.416865 
L 357.508264 205.039456 
L 354.214286 205.078368 
L 354.214286 205.11728 
L 354.214286 205.156192 
L 352.082888 205.156192 
L 352.082888 205.234016 
L 352.082888 205.31184 
L 349.488142 205.31184 
L 349.488142 205.389664 
L 349.488142 205.467487 
L 342.136364 205.506399 
L 342.136364 205.545311 
L 342.136364 208.152412 
L 335.372727 208.191324 
L 335.372727 208.230236 
L 335.372727 208.269148 
L 333.236842 208.269148 
L 333.236842 208.346972 
L 333.236842 208.385884 
L 329.129371 208.385884 
L 329.129371 208.463708 
L 329.129371 208.541532 
L 325.227273 208.541532 
L 325.227273 208.619356 
L 325.227273 208.658268 
L 317.980519 208.736092 
L 317.980519 210.020186 
L 311.392562 210.09801 
L 311.392562 210.136922 
L 308.318182 210.136922 
L 308.318182 210.214746 
L 308.318182 210.370394 
L 303.954545 210.409306 
L 303.954545 210.448218 
L 303.954545 210.48713 
L 299.863636 210.526042 
L 299.863636 210.564953 
L 299.863636 211.265369 
L 292.403743 211.343193 
L 292.403743 211.382105 
L 288.334711 211.459928 
L 288.334711 211.49884 
L 285.772727 211.49884 
L 285.772727 211.576664 
L 285.772727 212.121432 
L 274.5 212.160344 
L 274.5 212.199256 
L 274.5 212.277079 
L 268.159091 212.354903 
L 268.159091 212.393815 
L 260.006494 212.471639 
L 260.006494 212.510551 
L 257.590909 212.510551 
L 257.590909 212.588375 
L 257.590909 212.627287 
L 245.512987 212.666199 
L 245.512987 212.705111 
L 245.512987 212.744023 
L 229.409091 212.782935 
L 229.409091 212.821847 
L 229.409091 212.938583 
L 173.045455 212.977495 
L 173.045455 213.016407 
L 173.045455 504 
L 173.045455 504 
" style="fill:none;stroke:#9467bd;stroke-linecap:round;stroke-width:2.25;"/>
   </g>
   <g id="line2d_16">
    <path clip-path="url(#p8eb7efb380)" d="M 933.954545 69.12 
L 933.954545 69.197824 
L 849.409091 69.197824 
L 849.409091 69.275648 
L 849.409091 72.31078 
L 807.136364 72.349692 
L 807.136364 72.388604 
L 807.136364 72.544252 
L 781.772727 72.544252 
L 781.772727 72.622076 
L 781.772727 73.517051 
L 752.785714 73.555963 
L 752.785714 73.594875 
L 752.785714 74.022906 
L 736.681818 74.061818 
L 736.681818 74.10073 
L 736.681818 74.256378 
L 726.433884 74.334202 
L 726.433884 74.450938 
L 714.136364 74.528762 
L 714.136364 74.684409 
L 707.016746 74.762233 
L 707.016746 74.801145 
L 702.373518 74.801145 
L 702.373518 74.878969 
L 702.373518 74.917881 
L 695.690083 74.995705 
L 695.690083 75.034617 
L 688.122378 75.112441 
L 688.122378 75.151353 
L 680.318182 75.229177 
L 680.318182 113.401804 
L 661.530303 113.479628 
L 661.530303 113.51854 
L 656.162338 113.596364 
L 656.162338 113.752011 
L 650.47861 113.829835 
L 650.47861 113.946571 
L 646.5 113.946571 
L 646.5 114.024395 
L 646.5 114.102219 
L 644.084416 114.141131 
L 644.084416 114.180043 
L 644.084416 114.218955 
L 641.297203 114.218955 
L 641.297203 114.296779 
L 641.297203 114.413515 
L 634.202479 114.491339 
L 634.202479 114.958282 
L 629.590909 115.036106 
L 629.590909 115.152842 
L 623.954545 115.230666 
L 623.954545 115.931081 
L 619.445455 115.969993 
L 619.445455 116.008905 
L 619.445455 116.047817 
L 614.152174 116.125641 
L 614.152174 116.242377 
L 609.863636 116.3202 
L 609.863636 116.359112 
L 607.850649 116.359112 
L 607.850649 116.436936 
L 607.850649 118.187974 
L 603.458678 118.226886 
L 603.458678 118.265798 
L 603.458678 118.30471 
L 600.222488 118.343622 
L 600.222488 118.382534 
L 600.222488 118.49927 
L 595.772727 118.577094 
L 595.772727 118.927301 
L 592.857367 118.966213 
L 592.857367 119.005125 
L 592.857367 119.121861 
L 590.488636 119.199685 
L 590.488636 119.238597 
L 588.086777 119.277509 
L 588.086777 119.316421 
L 588.086777 119.355333 
L 578.863636 119.433157 
L 578.863636 124.919742 
L 575.113776 124.997566 
L 575.113776 125.036478 
L 570.041502 125.114302 
L 570.041502 125.192126 
L 565.463979 125.26995 
L 565.463979 125.308862 
L 563.255245 125.347774 
L 563.255245 125.386686 
L 563.255245 125.503422 
L 553.5 125.581246 
L 553.5 126.787516 
L 549.977273 126.86534 
L 549.977273 126.904252 
L 546.825359 126.943164 
L 546.825359 126.982076 
L 546.825359 127.098812 
L 541.971074 127.137724 
L 541.971074 127.176636 
L 541.971074 127.643579 
L 538.281818 127.643579 
L 538.281818 127.721403 
L 538.281818 127.760315 
L 535.383117 127.760315 
L 535.383117 127.838139 
L 535.383117 127.954875 
L 531.120321 128.032699 
L 531.120321 128.305082 
L 528.136364 128.305082 
L 528.136364 128.382906 
L 528.136364 128.421818 
L 525.93083 128.421818 
L 525.93083 128.499642 
L 525.93083 128.577466 
L 524.234266 128.616378 
L 524.234266 128.65529 
L 524.234266 128.733114 
L 519.47561 128.810938 
L 519.47561 128.84985 
L 515.301752 128.927674 
L 515.301752 128.966586 
L 511.227273 128.966586 
L 511.227273 129.044409 
L 511.227273 152.74179 
L 499.149351 152.780702 
L 499.149351 152.819613 
L 499.149351 152.897437 
L 495.855372 152.936349 
L 495.855372 152.975261 
L 495.855372 153.014173 
L 490.242243 153.091997 
L 490.242243 153.130909 
L 490.090909 153.130909 
L 490.090909 153.208733 
L 490.090909 153.481117 
L 487.904389 153.520029 
L 487.904389 153.558941 
L 487.904389 153.597853 
L 485.213287 153.636764 
L 485.213287 153.675676 
L 485.213287 153.870236 
L 482.358093 153.94806 
L 482.358093 153.986972 
L 481.820158 153.986972 
L 481.820158 154.064796 
L 481.820158 154.103708 
L 480.483471 154.103708 
L 480.483471 154.181532 
L 480.483471 154.220444 
L 477.409091 154.298268 
L 477.409091 155.115419 
L 473.651515 155.193243 
L 473.651515 155.387802 
L 471.441176 155.387802 
L 471.441176 155.465626 
L 471.441176 155.699098 
L 467.590909 155.776922 
L 467.590909 155.893658 
L 465.527027 155.971482 
L 465.527027 156.010394 
L 462.915584 156.049306 
L 462.915584 156.088218 
L 462.915584 158.150551 
L 459.199301 158.228375 
L 459.199301 158.267287 
L 457.830144 158.345111 
L 457.830144 158.384023 
L 457.118182 158.384023 
L 457.118182 158.461847 
L 457.118182 158.539671 
L 452.920063 158.617495 
L 452.920063 158.73423 
L 449.739669 158.812054 
L 449.739669 159.51247 
L 446.192308 159.590293 
L 446.192308 159.784853 
L 444.543534 159.862677 
L 444.543534 159.901589 
L 443.590909 159.901589 
L 443.590909 159.979413 
L 443.590909 160.135061 
L 440.0311 160.173973 
L 440.0311 160.212885 
L 440.0311 160.52418 
L 437.709486 160.563092 
L 437.709486 160.602004 
L 437.709486 160.874388 
L 436.075758 160.874388 
L 436.075758 160.952212 
L 436.075758 161.030036 
L 432.078337 161.10786 
L 432.078337 161.302419 
L 426.681818 161.341331 
L 426.681818 161.380243 
L 426.681818 174.182276 
L 421.505566 174.221188 
L 421.505566 174.2601 
L 421.505566 174.299012 
L 417.935737 174.376836 
L 417.935737 174.45466 
L 414.603896 174.532484 
L 414.603896 174.688132 
L 411.762032 174.727044 
L 411.762032 174.765956 
L 411.762032 174.882691 
L 409.309465 174.960515 
L 409.309465 174.999427 
L 407.171329 175.038339 
L 407.171329 175.077251 
L 407.171329 175.349635 
L 405.384108 175.427459 
L 405.384108 175.466371 
L 403.623967 175.505283 
L 403.623967 175.544195 
L 403.623967 175.777666 
L 402.136364 175.85549 
L 402.136364 175.894402 
L 400.182497 175.972226 
L 400.182497 176.011138 
L 398.5 176.05005 
L 398.5 176.088962 
L 398.5 177.411969 
L 395.750554 177.489792 
L 395.750554 177.528704 
L 393.598814 177.606528 
L 393.598814 177.801088 
L 390.448052 177.84 
L 390.448052 177.878912 
L 390.448052 178.112384 
L 389.161646 178.190208 
L 389.161646 178.22912 
L 387.660839 178.268031 
L 387.660839 178.306943 
L 387.660839 178.345855 
L 386.633971 178.345855 
L 386.633971 178.423679 
L 386.633971 178.501503 
L 381.92246 178.579327 
L 381.92246 178.618239 
L 378.842931 178.696063 
L 378.842931 178.734975 
L 375.954545 178.812799 
L 375.954545 185.233271 
L 371.005543 185.311095 
L 371.005543 185.350007 
L 368.15035 185.388919 
L 368.15035 185.427831 
L 368.15035 185.505655 
L 366.292208 185.544567 
L 366.292208 185.583479 
L 366.292208 185.700215 
L 363.272727 185.778039 
L 363.272727 185.933686 
L 360.924242 185.933686 
L 360.924242 186.01151 
L 360.924242 186.089334 
L 359.935407 186.128246 
L 359.935407 186.167158 
L 359.935407 186.20607 
L 357.508264 186.283894 
L 357.508264 187.217781 
L 353.409091 187.295605 
L 353.409091 187.334517 
L 352.082888 187.334517 
L 352.082888 187.412341 
L 352.082888 187.529077 
L 350.188312 187.606901 
L 350.188312 187.645812 
L 349.488142 187.645812 
L 349.488142 187.723636 
L 349.488142 187.918196 
L 343.227273 187.99602 
L 343.227273 188.034932 
L 342.136364 188.034932 
L 342.136364 188.112756 
L 342.136364 191.38136 
L 339.061983 191.459184 
L 339.061983 191.498096 
L 335.372727 191.57592 
L 335.372727 191.614832 
L 333.236842 191.692656 
L 333.236842 191.848304 
L 332.108477 191.926127 
L 332.108477 191.965039 
L 329.129371 192.042863 
L 329.129371 192.548719 
L 325.227273 192.626543 
L 325.227273 192.704366 
L 320.081028 192.78219 
L 320.081028 192.821102 
L 317.980519 192.821102 
L 317.980519 192.898926 
L 317.980519 194.922348 
L 313.954545 195.000172 
L 313.954545 195.039084 
L 311.392562 195.039084 
L 311.392562 195.116908 
L 311.392562 195.15582 
L 308.318182 195.15582 
L 308.318182 195.233644 
L 308.318182 195.350379 
L 299.863636 195.428203 
L 299.863636 196.55665 
L 292.403743 196.595562 
L 292.403743 196.634474 
L 292.403743 196.75121 
L 290.108392 196.790122 
L 290.108392 196.829034 
L 290.108392 196.867946 
L 285.772727 196.94577 
L 285.772727 197.801832 
L 274.5 197.879656 
L 274.5 198.307688 
L 269.668831 198.3466 
L 269.668831 198.385512 
L 269.668831 198.463336 
L 265.27686 198.502248 
L 265.27686 198.54116 
L 265.27686 198.735719 
L 261.266798 198.813543 
L 261.266798 198.852455 
L 257.590909 198.891367 
L 257.590909 198.930279 
L 257.590909 199.163751 
L 251.087413 199.241575 
L 251.087413 199.280487 
L 241.595823 199.358311 
L 241.595823 199.397223 
L 240.681818 199.397223 
L 240.681818 199.475047 
L 240.681818 199.55287 
L 236.454545 199.55287 
L 236.454545 199.630694 
L 236.454545 199.708518 
L 229.409091 199.74743 
L 229.409091 199.786342 
L 229.409091 199.864166 
L 173.045455 199.903078 
L 173.045455 199.94199 
L 173.045455 504 
L 173.045455 504 
" style="fill:none;stroke:#d62728;stroke-linecap:round;stroke-width:2.25;"/>
   </g>
   <g id="line2d_17">
    <path clip-path="url(#p8eb7efb380)" d="M 849.409091 69.12 
L 849.409091 71.960573 
L 807.136364 71.999485 
L 807.136364 72.038397 
L 807.136364 72.194044 
L 781.772727 72.194044 
L 781.772727 72.271868 
L 781.772727 73.050107 
L 752.785714 73.127931 
L 752.785714 73.517051 
L 736.681818 73.594875 
L 736.681818 73.711611 
L 726.433884 73.789435 
L 726.433884 73.867258 
L 719.339161 73.945082 
L 719.339161 73.983994 
L 710.157754 74.061818 
L 710.157754 74.10073 
L 702.373518 74.139642 
L 702.373518 74.178554 
L 702.373518 74.217466 
L 688.122378 74.29529 
L 688.122378 74.334202 
L 680.318182 74.373114 
L 680.318182 74.412026 
L 680.318182 112.662477 
L 664.946281 112.740301 
L 664.946281 112.779213 
L 660.027273 112.857037 
L 660.027273 112.895948 
L 656.162338 112.973772 
L 656.162338 113.12942 
L 652.136364 113.207244 
L 652.136364 113.246156 
L 646.5 113.32398 
L 646.5 113.440716 
L 644.084416 113.440716 
L 644.084416 113.51854 
L 644.084416 113.557452 
L 641.297203 113.557452 
L 641.297203 113.635276 
L 641.297203 113.829835 
L 637.189731 113.907659 
L 637.189731 113.946571 
L 634.202479 113.946571 
L 634.202479 114.024395 
L 634.202479 114.491339 
L 630.305378 114.569162 
L 630.305378 114.608074 
L 629.590909 114.608074 
L 629.590909 114.685898 
L 629.590909 114.72481 
L 623.954545 114.763722 
L 623.954545 114.802634 
L 623.954545 115.386314 
L 616.909091 115.464137 
L 616.909091 115.503049 
L 613.319897 115.580873 
L 613.319897 115.619785 
L 609.863636 115.697609 
L 609.863636 115.736521 
L 607.850649 115.736521 
L 607.850649 115.814345 
L 607.850649 117.565383 
L 602.276224 117.643207 
L 602.276224 117.682119 
L 600.222488 117.721031 
L 600.222488 117.759943 
L 600.222488 117.876679 
L 597.309917 117.954503 
L 597.309917 117.993414 
L 595.772727 117.993414 
L 595.772727 118.071238 
L 595.772727 118.30471 
L 592.857367 118.343622 
L 592.857367 118.382534 
L 592.857367 118.49927 
L 590.799465 118.538182 
L 590.799465 118.577094 
L 590.799465 118.69383 
L 588.086777 118.771654 
L 588.086777 118.849477 
L 580.04334 118.927301 
L 580.04334 118.966213 
L 578.863636 118.966213 
L 578.863636 119.044037 
L 578.863636 124.530623 
L 573.147887 124.608447 
L 573.147887 124.647359 
L 570.041502 124.725183 
L 570.041502 124.841918 
L 563.255245 124.919742 
L 563.255245 125.07539 
L 559.538961 125.114302 
L 559.538961 125.153214 
L 559.538961 125.192126 
L 553.5 125.231038 
L 553.5 125.26995 
L 553.5 126.398397 
L 546.825359 126.47622 
L 546.825359 126.631868 
L 541.971074 126.631868 
L 541.971074 126.709692 
L 541.971074 127.137724 
L 538.281818 127.137724 
L 538.281818 127.215548 
L 538.281818 127.25446 
L 535.383117 127.25446 
L 535.383117 127.332283 
L 535.383117 127.449019 
L 531.120321 127.449019 
L 531.120321 127.526843 
L 531.120321 127.760315 
L 528.136364 127.799227 
L 528.136364 127.838139 
L 528.136364 127.877051 
L 525.93083 127.915963 
L 525.93083 127.954875 
L 525.93083 128.032699 
L 524.754545 128.110523 
L 524.754545 128.149435 
L 524.234266 128.149435 
L 524.234266 128.227258 
L 524.234266 128.26617 
L 521.795455 128.305082 
L 521.795455 128.343994 
L 521.795455 128.382906 
L 517.990909 128.46073 
L 517.990909 128.538554 
L 511.227273 128.538554 
L 511.227273 128.616378 
L 511.227273 152.002462 
L 500.318182 152.041374 
L 500.318182 152.080286 
L 500.318182 152.119198 
L 499.149351 152.119198 
L 499.149351 152.197022 
L 499.149351 152.274846 
L 495.855372 152.313758 
L 495.855372 152.35267 
L 495.855372 152.469406 
L 493.42823 152.508318 
L 493.42823 152.54723 
L 493.42823 152.586142 
L 490.090909 152.625054 
L 490.090909 152.663966 
L 490.090909 152.936349 
L 485.213287 153.014173 
L 485.213287 153.247645 
L 482.445841 153.325469 
L 482.445841 153.364381 
L 481.820158 153.364381 
L 481.820158 153.442205 
L 481.820158 153.481117 
L 480.483471 153.481117 
L 480.483471 153.558941 
L 480.483471 153.597853 
L 477.409091 153.675676 
L 477.409091 154.415004 
L 473.651515 154.415004 
L 473.651515 154.492827 
L 473.651515 154.531739 
L 471.441176 154.531739 
L 471.441176 154.609563 
L 471.441176 154.843035 
L 468.954545 154.920859 
L 468.954545 154.998683 
L 466.425408 155.076507 
L 466.425408 155.115419 
L 462.915584 155.193243 
L 462.915584 157.411224 
L 459.764822 157.411224 
L 459.764822 157.489048 
L 459.764822 157.52796 
L 458.386364 157.605784 
L 458.386364 157.644696 
L 457.118182 157.683608 
L 457.118182 157.72252 
L 457.118182 157.839256 
L 454.863636 157.878168 
L 454.863636 157.917079 
L 454.863636 157.994903 
L 452.920063 157.994903 
L 452.920063 158.072727 
L 452.920063 158.111639 
L 449.739669 158.189463 
L 449.739669 158.773142 
L 447.818182 158.812054 
L 447.818182 158.850966 
L 447.818182 158.889878 
L 446.192308 158.889878 
L 446.192308 158.967702 
L 446.192308 159.084438 
L 444.543534 159.162262 
L 444.543534 159.201174 
L 443.590909 159.201174 
L 443.590909 159.278998 
L 443.590909 159.395734 
L 440.0311 159.395734 
L 440.0311 159.473558 
L 440.0311 159.707029 
L 437.709486 159.745941 
L 437.709486 159.784853 
L 437.709486 159.940501 
L 436.075758 159.979413 
L 436.075758 160.018325 
L 436.075758 160.135061 
L 432.078337 160.173973 
L 432.078337 160.212885 
L 432.078337 160.368533 
L 426.681818 160.407445 
L 426.681818 160.446356 
L 426.681818 173.209477 
L 421.505566 173.287301 
L 421.505566 173.365125 
L 417.935737 173.442949 
L 417.935737 173.520773 
L 414.603896 173.598597 
L 414.603896 173.793157 
L 411.762032 173.832069 
L 411.762032 173.870981 
L 411.762032 173.948805 
L 410.492263 174.026628 
L 410.492263 174.06554 
L 407.33224 174.143364 
L 407.33224 174.182276 
L 407.171329 174.182276 
L 407.171329 174.2601 
L 407.171329 174.532484 
L 403.623967 174.610308 
L 403.623967 174.84378 
L 401.110183 174.921603 
L 401.110183 174.960515 
L 398.5 175.038339 
L 398.5 176.322434 
L 396.502301 176.400258 
L 396.502301 176.43917 
L 395.750554 176.516994 
L 395.750554 176.555906 
L 393.598814 176.633729 
L 393.598814 176.867201 
L 390.448052 176.945025 
L 390.448052 177.178497 
L 389.26006 177.256321 
L 389.26006 177.295233 
L 386.633971 177.373057 
L 386.633971 177.489792 
L 382.718182 177.567616 
L 382.718182 177.606528 
L 380.566116 177.684352 
L 380.566116 177.723264 
L 375.954545 177.801088 
L 375.954545 184.377208 
L 372.331169 184.455032 
L 372.331169 184.493944 
L 370.507322 184.571768 
L 370.507322 184.61068 
L 368.15035 184.688504 
L 368.15035 184.80524 
L 366.292208 184.883064 
L 366.292208 184.9998 
L 363.272727 185.038712 
L 363.272727 185.077623 
L 363.272727 185.155447 
L 360.924242 185.233271 
L 360.924242 185.350007 
L 359.390538 185.427831 
L 359.390538 185.505655 
L 357.508264 185.544567 
L 357.508264 185.583479 
L 357.508264 186.478454 
L 352.082888 186.556278 
L 352.082888 186.750838 
L 349.562654 186.828661 
L 349.488142 187.139957 
L 343.427134 187.217781 
L 343.427134 187.256693 
L 342.136364 187.295605 
L 342.136364 187.334517 
L 342.136364 190.875505 
L 339.061983 190.953329 
L 339.061983 190.992241 
L 334.450413 191.070064 
L 334.450413 191.108976 
L 333.236842 191.108976 
L 333.236842 191.1868 
L 333.236842 191.303536 
L 330.863636 191.38136 
L 330.863636 191.420272 
L 329.129371 191.459184 
L 329.129371 191.498096 
L 329.129371 191.965039 
L 325.227273 192.042863 
L 325.227273 192.159599 
L 317.980519 192.237423 
L 317.980519 194.299757 
L 313.954545 194.377581 
L 313.954545 194.416492 
L 311.392562 194.416492 
L 311.392562 194.494316 
L 311.392562 194.533228 
L 308.318182 194.533228 
L 308.318182 194.611052 
L 308.318182 194.727788 
L 303.954545 194.7667 
L 303.954545 194.805612 
L 303.954545 194.844524 
L 299.863636 194.844524 
L 299.863636 194.922348 
L 299.863636 195.972971 
L 292.403743 196.011883 
L 292.403743 196.050795 
L 292.403743 196.206442 
L 290.108392 196.245354 
L 290.108392 196.284266 
L 290.108392 196.323178 
L 285.772727 196.36209 
L 285.772727 196.401002 
L 285.772727 197.101417 
L 275.784235 197.179241 
L 275.784235 197.218153 
L 274.5 197.257065 
L 274.5 197.295977 
L 274.5 197.685097 
L 267.421776 197.762921 
L 267.421776 197.801832 
L 265.27686 197.801832 
L 265.27686 197.879656 
L 265.27686 197.996392 
L 260.006494 198.074216 
L 260.006494 198.113128 
L 257.590909 198.113128 
L 257.590909 198.190952 
L 257.590909 198.3466 
L 251.087413 198.424424 
L 251.087413 198.463336 
L 241.595823 198.54116 
L 241.595823 198.580072 
L 240.681818 198.580072 
L 240.681818 198.657895 
L 240.681818 198.735719 
L 236.454545 198.774631 
L 236.454545 198.813543 
L 236.454545 198.930279 
L 229.409091 198.969191 
L 229.409091 199.008103 
L 229.409091 199.085927 
L 173.045455 199.163751 
L 173.045455 504 
L 173.045455 504 
" style="fill:none;stroke:#2ca02c;stroke-linecap:round;stroke-width:2.25;"/>
   </g>
   <g id="line2d_18">
    <path clip-path="url(#p8eb7efb380)" d="M 849.409091 69.12 
L 849.409091 69.937151 
L 781.772727 69.937151 
L 781.772727 70.014975 
L 781.772727 70.053887 
L 719.339161 70.131711 
L 719.339161 70.170623 
L 680.318182 70.209535 
L 680.318182 70.248447 
L 680.318182 96.085984 
L 653.619617 96.163808 
L 653.619617 96.280544 
L 648.613636 96.358368 
L 648.613636 96.39728 
L 646.5 96.39728 
L 646.5 96.475104 
L 646.5 96.514016 
L 636.837662 96.59184 
L 636.837662 96.630752 
L 634.202479 96.630752 
L 634.202479 96.708576 
L 634.202479 96.903135 
L 623.954545 96.980959 
L 623.954545 97.214431 
L 607.850649 97.292255 
L 607.850649 98.459613 
L 595.772727 98.537437 
L 595.772727 98.654173 
L 592.096838 98.731997 
L 592.096838 98.770909 
L 588.086777 98.809821 
L 588.086777 98.848733 
L 588.086777 98.926557 
L 581.498819 99.004381 
L 581.498819 99.043293 
L 578.863636 99.043293 
L 578.863636 99.121117 
L 578.863636 103.051224 
L 573.147887 103.129048 
L 573.147887 103.16796 
L 570.041502 103.245784 
L 570.041502 103.323608 
L 563.255245 103.36252 
L 563.255245 103.401432 
L 563.255245 103.518168 
L 559.538961 103.557079 
L 559.538961 103.595991 
L 559.538961 103.673815 
L 553.5 103.751639 
L 553.5 104.529878 
L 545.045455 104.607702 
L 545.045455 104.646614 
L 541.971074 104.646614 
L 541.971074 104.724438 
L 541.971074 105.035734 
L 538.281818 105.074646 
L 538.281818 105.113558 
L 538.281818 105.15247 
L 535.383117 105.230293 
L 535.383117 105.347029 
L 531.120321 105.347029 
L 531.120321 105.424853 
L 531.120321 105.502677 
L 528.136364 105.502677 
L 528.136364 105.580501 
L 528.136364 105.619413 
L 525.93083 105.619413 
L 525.93083 105.697237 
L 525.93083 105.736149 
L 524.234266 105.775061 
L 524.234266 105.813973 
L 524.234266 105.852885 
L 523.198311 105.930709 
L 523.198311 105.969621 
L 521.795455 106.047445 
L 521.795455 106.086356 
L 511.227273 106.086356 
L 511.227273 106.16418 
L 511.227273 125.892541 
L 500.318182 125.970365 
L 500.318182 126.009277 
L 497.7 126.048189 
L 497.7 126.087101 
L 497.618346 126.164925 
L 494.730599 126.242749 
L 494.730599 126.281661 
L 493.42823 126.281661 
L 493.42823 126.359485 
L 493.42823 126.398397 
L 487.904389 126.47622 
L 487.904389 126.515132 
L 485.213287 126.515132 
L 485.213287 126.592956 
L 485.213287 126.748604 
L 483.045455 126.787516 
L 483.045455 126.826428 
L 483.045455 126.86534 
L 480.483471 126.943164 
L 480.483471 126.982076 
L 477.409091 127.020988 
L 477.409091 127.0599 
L 477.409091 127.682491 
L 473.651515 127.721403 
L 473.651515 127.760315 
L 473.651515 127.799227 
L 471.441176 127.877051 
L 471.441176 127.954875 
L 468.954545 127.993787 
L 468.954545 128.032699 
L 468.954545 128.149435 
L 462.915584 128.149435 
L 462.915584 128.227258 
L 462.915584 129.978296 
L 457.118182 130.05612 
L 457.118182 130.095032 
L 449.739669 130.172856 
L 449.739669 130.6398 
L 443.590909 130.717623 
L 443.590909 130.834359 
L 440.0311 130.873271 
L 440.0311 130.912183 
L 440.0311 130.990007 
L 437.709486 130.990007 
L 437.709486 131.067831 
L 437.709486 131.145655 
L 426.681818 131.184567 
L 426.681818 131.223479 
L 426.681818 142.858153 
L 417.935737 142.935977 
L 417.935737 143.013801 
L 416.536364 143.013801 
L 416.536364 143.091625 
L 416.536364 143.169449 
L 414.603896 143.169449 
L 414.603896 143.247273 
L 414.603896 143.286185 
L 411.762032 143.325097 
L 411.762032 143.364009 
L 411.762032 143.636392 
L 410.492263 143.675304 
L 410.492263 143.714216 
L 410.492263 143.753128 
L 409.772727 143.79204 
L 409.772727 143.830952 
L 409.772727 143.869864 
L 407.171329 143.947688 
L 407.171329 144.336807 
L 403.623967 144.375719 
L 403.623967 144.414631 
L 403.623967 144.609191 
L 402.136364 144.648103 
L 402.136364 144.687015 
L 402.136364 144.725927 
L 398.5 144.725927 
L 398.5 144.803751 
L 398.5 145.543078 
L 394.612853 145.620902 
L 394.612853 145.659814 
L 393.598814 145.659814 
L 393.598814 145.737638 
L 393.598814 145.932198 
L 390.448052 145.932198 
L 390.448052 146.010021 
L 390.448052 146.204581 
L 388.90619 146.282405 
L 388.90619 146.321317 
L 387.660839 146.321317 
L 387.660839 146.399141 
L 387.660839 146.476965 
L 386.633971 146.476965 
L 386.633971 146.554789 
L 386.633971 146.671525 
L 382.951411 146.710437 
L 382.951411 146.749349 
L 382.951411 146.827173 
L 379.712121 146.904996 
L 379.712121 146.943908 
L 375.954545 146.98282 
L 375.954545 147.021732 
L 375.954545 153.247645 
L 373.096671 153.325469 
L 373.096671 153.364381 
L 371.543478 153.442205 
L 371.543478 153.520029 
L 369.409091 153.558941 
L 369.409091 153.597853 
L 369.409091 153.636764 
L 367.320116 153.714588 
L 367.320116 153.792412 
L 366.292208 153.831324 
L 366.292208 153.870236 
L 366.292208 154.064796 
L 363.272727 154.064796 
L 363.272727 154.14262 
L 363.272727 154.376092 
L 361.798097 154.453916 
L 361.798097 154.492827 
L 360.924242 154.492827 
L 360.924242 154.570651 
L 360.924242 154.687387 
L 357.508264 154.687387 
L 357.508264 154.765211 
L 357.508264 155.93257 
L 354.214286 156.010394 
L 354.214286 156.12713 
L 353.409091 156.166042 
L 353.409091 156.204953 
L 353.409091 156.282777 
L 352.082888 156.282777 
L 352.082888 156.360601 
L 352.082888 156.438425 
L 349.488142 156.477337 
L 349.488142 156.516249 
L 349.488142 156.788633 
L 346.967532 156.866457 
L 346.967532 156.905369 
L 345.734043 156.944281 
L 345.734043 156.983193 
L 345.734043 157.022105 
L 343.427134 157.099928 
L 343.427134 157.13884 
L 342.136364 157.177752 
L 342.136364 157.216664 
L 342.136364 161.574803 
L 338.685529 161.652627 
L 338.685529 161.691539 
L 335.372727 161.730451 
L 335.372727 161.769363 
L 335.372727 161.847187 
L 333.236842 161.886099 
L 333.236842 161.925011 
L 333.236842 162.158482 
L 330.863636 162.197394 
L 330.863636 162.236306 
L 330.863636 162.275218 
L 329.129371 162.275218 
L 329.129371 162.353042 
L 329.129371 162.586514 
L 327.842081 162.664338 
L 327.842081 162.70325 
L 325.227273 162.781074 
L 325.227273 162.975634 
L 323.348485 163.014545 
L 323.348485 163.053457 
L 323.348485 163.170193 
L 322.243316 163.248017 
L 322.243316 163.286929 
L 321 163.364753 
L 321 163.403665 
L 317.980519 163.403665 
L 317.980519 163.481489 
L 317.980519 165.932942 
L 313.954545 166.010766 
L 313.854254 166.08859 
L 312.982759 166.127502 
L 312.982759 166.166414 
L 312.982759 166.205326 
L 311.392562 166.28315 
L 311.392562 166.477709 
L 308.318182 166.555533 
L 308.318182 166.789005 
L 305.37747 166.827917 
L 305.37747 166.866829 
L 305.37747 166.983565 
L 301.876623 167.061389 
L 301.876623 167.100301 
L 299.863636 167.100301 
L 299.863636 167.178125 
L 299.863636 169.27937 
L 296.959403 169.357194 
L 296.959403 169.396106 
L 296.020661 169.47393 
L 296.020661 169.512842 
L 294.790909 169.590666 
L 294.790909 169.629578 
L 293.110005 169.707402 
L 293.110005 169.746314 
L 292.403743 169.785225 
L 292.403743 169.824137 
L 292.403743 170.213257 
L 290.108392 170.252169 
L 290.108392 170.291081 
L 290.108392 170.446729 
L 285.772727 170.524553 
L 285.772727 171.886471 
L 281.746753 171.925383 
L 281.746753 171.964295 
L 281.746753 172.003207 
L 279.839713 172.042119 
L 279.839713 172.081031 
L 279.839713 172.353414 
L 278.328473 172.431238 
L 278.328473 172.47015 
L 274.5 172.509062 
L 274.5 172.547974 
L 274.5 173.326213 
L 272.108815 173.404037 
L 272.108815 173.442949 
L 271.227273 173.442949 
L 271.227273 173.520773 
L 271.227273 173.559685 
L 269.668831 173.559685 
L 269.668831 173.637509 
L 269.668831 173.754245 
L 266.984848 173.832069 
L 266.984848 173.870981 
L 265.27686 173.870981 
L 265.27686 173.948805 
L 265.27686 174.2601 
L 262.941887 174.337924 
L 262.941887 174.376836 
L 261.266798 174.415748 
L 261.266798 174.45466 
L 261.266798 174.571396 
L 257.590909 174.64922 
L 257.590909 175.038339 
L 254.209091 175.077251 
L 254.209091 175.116163 
L 254.209091 175.193987 
L 251.087413 175.232899 
L 251.087413 175.271811 
L 251.087413 175.777666 
L 245.512987 175.85549 
L 245.512987 176.127874 
L 240.681818 176.166786 
L 240.681818 176.205698 
L 240.681818 176.400258 
L 236.454545 176.43917 
L 236.454545 176.478082 
L 236.454545 176.672641 
L 232.724599 176.672641 
L 232.724599 176.750465 
L 232.724599 176.789377 
L 229.409091 176.828289 
L 229.409091 176.867201 
L 229.409091 177.061761 
L 223.772727 177.139585 
L 223.772727 177.295233 
L 221.357143 177.295233 
L 221.357143 177.373057 
L 221.357143 177.45088 
L 219.161157 177.45088 
L 219.161157 177.528704 
L 219.161157 177.567616 
L 214.175676 177.64544 
L 214.175676 177.684352 
L 209.279221 177.762176 
L 209.279221 177.801088 
L 196.639535 177.878912 
L 196.639535 177.917824 
L 173.045455 177.917824 
L 173.045455 177.995648 
L 173.045455 504 
L 173.045455 504 
" style="fill:none;stroke:#ff7f0e;stroke-linecap:round;stroke-width:2.25;"/>
   </g>
   <g id="line2d_19">
    <path clip-path="url(#p8eb7efb380)" d="M 680.318182 69.12 
L 680.318182 69.586943 
L 511.227273 69.586943 
L 511.227273 69.664767 
L 511.227273 69.859327 
L 342.136364 69.937151 
L 342.136364 69.976063 
L 232.724599 70.053887 
L 232.724599 70.092799 
L 205.772727 70.170623 
L 205.772727 70.209535 
L 199.744019 70.287359 
L 199.744019 70.326271 
L 194.631528 70.404094 
L 194.631528 70.443006 
L 186.572727 70.52083 
L 186.572727 70.559742 
L 182.185504 70.637566 
L 182.185504 70.676478 
L 180.790076 70.754302 
L 180.790076 70.793214 
L 177.678082 70.871038 
L 177.678082 70.90995 
L 175.501981 70.987774 
L 175.501981 71.026686 
L 173.768065 71.10451 
L 173.768065 71.143422 
L 173.045455 71.182334 
L 173.045455 71.221246 
L 173.045455 504 
L 173.045455 504 
" style="fill:none;stroke:#1f77b4;stroke-linecap:round;stroke-width:2.25;"/>
   </g>
   <g id="line2d_20">
    <path clip-path="url(#p8eb7efb380)" d="M 223.772727 504 
L 223.772727 69.12 
" style="fill:none;stroke:#ff0000;stroke-dasharray:11.1,4.8;stroke-dashoffset:0;stroke-width:3;"/>
   </g>
   <g id="patch_3">
    <path d="M 135 504 
L 135 69.12 
" style="fill:none;stroke:#cccccc;stroke-linecap:square;stroke-linejoin:miter;stroke-width:1.875;"/>
   </g>
   <g id="patch_4">
    <path d="M 972 504 
L 972 69.12 
" style="fill:none;stroke:#cccccc;stroke-linecap:square;stroke-linejoin:miter;stroke-width:1.875;"/>
   </g>
   <g id="patch_5">
    <path d="M 135 504 
L 972 504 
" style="fill:none;stroke:#cccccc;stroke-linecap:square;stroke-linejoin:miter;stroke-width:1.875;"/>
   </g>
   <g id="patch_6">
    <path d="M 135 69.12 
L 972 69.12 
" style="fill:none;stroke:#cccccc;stroke-linecap:square;stroke-linejoin:miter;stroke-width:1.875;"/>
   </g>
   <g id="text_17">
    <!-- CDF logical job name distribution - all sizes -->
    <g style="fill:#262626;" transform="translate(359.468437 63.12)scale(0.18 -0.18)">
     <defs>
      <path d="M 4122 4306 
L 4122 3641 
Q 3803 3938 3442 4084 
Q 3081 4231 2675 4231 
Q 1875 4231 1450 3742 
Q 1025 3253 1025 2328 
Q 1025 1406 1450 917 
Q 1875 428 2675 428 
Q 3081 428 3442 575 
Q 3803 722 4122 1019 
L 4122 359 
Q 3791 134 3420 21 
Q 3050 -91 2638 -91 
Q 1578 -91 968 557 
Q 359 1206 359 2328 
Q 359 3453 968 4101 
Q 1578 4750 2638 4750 
Q 3056 4750 3426 4639 
Q 3797 4528 4122 4306 
z
" id="DejaVuSans-43" transform="scale(0.015625)"/>
      <path d="M 1259 4147 
L 1259 519 
L 2022 519 
Q 2988 519 3436 956 
Q 3884 1394 3884 2338 
Q 3884 3275 3436 3711 
Q 2988 4147 2022 4147 
L 1259 4147 
z
M 628 4666 
L 1925 4666 
Q 3281 4666 3915 4102 
Q 4550 3538 4550 2338 
Q 4550 1131 3912 565 
Q 3275 0 1925 0 
L 628 0 
L 628 4666 
z
" id="DejaVuSans-44" transform="scale(0.015625)"/>
      <path d="M 2906 2969 
L 2906 4863 
L 3481 4863 
L 3481 0 
L 2906 0 
L 2906 525 
Q 2725 213 2448 61 
Q 2172 -91 1784 -91 
Q 1150 -91 751 415 
Q 353 922 353 1747 
Q 353 2572 751 3078 
Q 1150 3584 1784 3584 
Q 2172 3584 2448 3432 
Q 2725 3281 2906 2969 
z
M 947 1747 
Q 947 1113 1208 752 
Q 1469 391 1925 391 
Q 2381 391 2643 752 
Q 2906 1113 2906 1747 
Q 2906 2381 2643 2742 
Q 2381 3103 1925 3103 
Q 1469 3103 1208 2742 
Q 947 2381 947 1747 
z
" id="DejaVuSans-64" transform="scale(0.015625)"/>
      <path d="M 313 2009 
L 1997 2009 
L 1997 1497 
L 313 1497 
L 313 2009 
z
" id="DejaVuSans-2d" transform="scale(0.015625)"/>
      <path d="M 353 3500 
L 3084 3500 
L 3084 2975 
L 922 459 
L 3084 459 
L 3084 0 
L 275 0 
L 275 525 
L 2438 3041 
L 353 3041 
L 353 3500 
z
" id="DejaVuSans-7a" transform="scale(0.015625)"/>
     </defs>
     <use xlink:href="#DejaVuSans-43"/>
     <use x="69.824219" xlink:href="#DejaVuSans-44"/>
     <use x="146.826172" xlink:href="#DejaVuSans-46"/>
     <use x="204.345703" xlink:href="#DejaVuSans-20"/>
     <use x="236.132812" xlink:href="#DejaVuSans-6c"/>
     <use x="263.916016" xlink:href="#DejaVuSans-6f"/>
     <use x="325.097656" xlink:href="#DejaVuSans-67"/>
     <use x="388.574219" xlink:href="#DejaVuSans-69"/>
     <use x="416.357422" xlink:href="#DejaVuSans-63"/>
     <use x="471.337891" xlink:href="#DejaVuSans-61"/>
     <use x="532.617188" xlink:href="#DejaVuSans-6c"/>
     <use x="560.400391" xlink:href="#DejaVuSans-20"/>
     <use x="592.1875" xlink:href="#DejaVuSans-6a"/>
     <use x="619.970703" xlink:href="#DejaVuSans-6f"/>
     <use x="681.152344" xlink:href="#DejaVuSans-62"/>
     <use x="744.628906" xlink:href="#DejaVuSans-20"/>
     <use x="776.416016" xlink:href="#DejaVuSans-6e"/>
     <use x="839.794922" xlink:href="#DejaVuSans-61"/>
     <use x="901.074219" xlink:href="#DejaVuSans-6d"/>
     <use x="998.486328" xlink:href="#DejaVuSans-65"/>
     <use x="1060.009766" xlink:href="#DejaVuSans-20"/>
     <use x="1091.796875" xlink:href="#DejaVuSans-64"/>
     <use x="1155.273438" xlink:href="#DejaVuSans-69"/>
     <use x="1183.056641" xlink:href="#DejaVuSans-73"/>
     <use x="1235.15625" xlink:href="#DejaVuSans-74"/>
     <use x="1274.365234" xlink:href="#DejaVuSans-72"/>
     <use x="1315.478516" xlink:href="#DejaVuSans-69"/>
     <use x="1343.261719" xlink:href="#DejaVuSans-62"/>
     <use x="1406.738281" xlink:href="#DejaVuSans-75"/>
     <use x="1470.117188" xlink:href="#DejaVuSans-74"/>
     <use x="1509.326172" xlink:href="#DejaVuSans-69"/>
     <use x="1537.109375" xlink:href="#DejaVuSans-6f"/>
     <use x="1598.291016" xlink:href="#DejaVuSans-6e"/>
     <use x="1661.669922" xlink:href="#DejaVuSans-20"/>
     <use x="1693.457031" xlink:href="#DejaVuSans-2d"/>
     <use x="1729.541016" xlink:href="#DejaVuSans-20"/>
     <use x="1761.328125" xlink:href="#DejaVuSans-61"/>
     <use x="1822.607422" xlink:href="#DejaVuSans-6c"/>
     <use x="1850.390625" xlink:href="#DejaVuSans-6c"/>
     <use x="1878.173828" xlink:href="#DejaVuSans-20"/>
     <use x="1909.960938" xlink:href="#DejaVuSans-73"/>
     <use x="1962.060547" xlink:href="#DejaVuSans-69"/>
     <use x="1989.84375" xlink:href="#DejaVuSans-7a"/>
     <use x="2042.333984" xlink:href="#DejaVuSans-65"/>
     <use x="2103.857422" xlink:href="#DejaVuSans-73"/>
    </g>
   </g>
   <g id="legend_1">
    <g id="patch_7">
     <path d="M 849.846563 495.75 
L 960.45 495.75 
Q 963.75 495.75 963.75 492.45 
L 963.75 347.334844 
Q 963.75 344.034844 960.45 344.034844 
L 849.846563 344.034844 
Q 846.546563 344.034844 846.546563 347.334844 
L 846.546563 492.45 
Q 846.546563 495.75 849.846563 495.75 
z
" style="fill:#ffffff;opacity:0.8;stroke:#cccccc;stroke-linejoin:miter;stroke-width:1.5;"/>
    </g>
    <g id="text_18">
     <!-- Experiment -->
     <g style="fill:#262626;" transform="translate(853.146563 364.312031)scale(0.18 -0.18)">
      <defs>
       <path d="M 628 4666 
L 3578 4666 
L 3578 4134 
L 1259 4134 
L 1259 2753 
L 3481 2753 
L 3481 2222 
L 1259 2222 
L 1259 531 
L 3634 531 
L 3634 0 
L 628 0 
L 628 4666 
z
" id="DejaVuSans-45" transform="scale(0.015625)"/>
       <path d="M 3513 3500 
L 2247 1797 
L 3578 0 
L 2900 0 
L 1881 1375 
L 863 0 
L 184 0 
L 1544 1831 
L 300 3500 
L 978 3500 
L 1906 2253 
L 2834 3500 
L 3513 3500 
z
" id="DejaVuSans-78" transform="scale(0.015625)"/>
      </defs>
      <use xlink:href="#DejaVuSans-45"/>
      <use x="63.183594" xlink:href="#DejaVuSans-78"/>
      <use x="122.363281" xlink:href="#DejaVuSans-70"/>
      <use x="185.839844" xlink:href="#DejaVuSans-65"/>
      <use x="247.363281" xlink:href="#DejaVuSans-72"/>
      <use x="288.476562" xlink:href="#DejaVuSans-69"/>
      <use x="316.259766" xlink:href="#DejaVuSans-6d"/>
      <use x="413.671875" xlink:href="#DejaVuSans-65"/>
      <use x="475.195312" xlink:href="#DejaVuSans-6e"/>
      <use x="538.574219" xlink:href="#DejaVuSans-74"/>
     </g>
    </g>
    <g id="line2d_21">
     <path d="M 854.615742 383.067891 
L 887.615742 383.067891 
" style="fill:none;stroke:#9467bd;stroke-linecap:round;stroke-width:2.25;"/>
    </g>
    <g id="line2d_22"/>
    <g id="text_19">
     <!-- k = 10 -->
     <g style="fill:#262626;" transform="translate(900.815742 388.842891)scale(0.165 -0.165)">
      <defs>
       <path d="M 581 4863 
L 1159 4863 
L 1159 1991 
L 2875 3500 
L 3609 3500 
L 1753 1863 
L 3688 0 
L 2938 0 
L 1159 1709 
L 1159 0 
L 581 0 
L 581 4863 
z
" id="DejaVuSans-6b" transform="scale(0.015625)"/>
       <path d="M 678 2906 
L 4684 2906 
L 4684 2381 
L 678 2381 
L 678 2906 
z
M 678 1631 
L 4684 1631 
L 4684 1100 
L 678 1100 
L 678 1631 
z
" id="DejaVuSans-3d" transform="scale(0.015625)"/>
      </defs>
      <use xlink:href="#DejaVuSans-6b"/>
      <use x="57.910156" xlink:href="#DejaVuSans-20"/>
      <use x="89.697266" xlink:href="#DejaVuSans-3d"/>
      <use x="173.486328" xlink:href="#DejaVuSans-20"/>
      <use x="205.273438" xlink:href="#DejaVuSans-31"/>
      <use x="268.896484" xlink:href="#DejaVuSans-30"/>
     </g>
    </g>
    <g id="line2d_23">
     <path d="M 854.615742 407.286797 
L 887.615742 407.286797 
" style="fill:none;stroke:#d62728;stroke-linecap:round;stroke-width:2.25;"/>
    </g>
    <g id="line2d_24"/>
    <g id="text_20">
     <!-- k = 8 -->
     <g style="fill:#262626;" transform="translate(900.815742 413.061797)scale(0.165 -0.165)">
      <use xlink:href="#DejaVuSans-6b"/>
      <use x="57.910156" xlink:href="#DejaVuSans-20"/>
      <use x="89.697266" xlink:href="#DejaVuSans-3d"/>
      <use x="173.486328" xlink:href="#DejaVuSans-20"/>
      <use x="205.273438" xlink:href="#DejaVuSans-38"/>
     </g>
    </g>
    <g id="line2d_25">
     <path d="M 854.615742 431.505703 
L 887.615742 431.505703 
" style="fill:none;stroke:#2ca02c;stroke-linecap:round;stroke-width:2.25;"/>
    </g>
    <g id="line2d_26"/>
    <g id="text_21">
     <!-- k = 6 -->
     <g style="fill:#262626;" transform="translate(900.815742 437.280703)scale(0.165 -0.165)">
      <use xlink:href="#DejaVuSans-6b"/>
      <use x="57.910156" xlink:href="#DejaVuSans-20"/>
      <use x="89.697266" xlink:href="#DejaVuSans-3d"/>
      <use x="173.486328" xlink:href="#DejaVuSans-20"/>
      <use x="205.273438" xlink:href="#DejaVuSans-36"/>
     </g>
    </g>
    <g id="line2d_27">
     <path d="M 854.615742 455.724609 
L 887.615742 455.724609 
" style="fill:none;stroke:#ff7f0e;stroke-linecap:round;stroke-width:2.25;"/>
    </g>
    <g id="line2d_28"/>
    <g id="text_22">
     <!-- k = 4 -->
     <g style="fill:#262626;" transform="translate(900.815742 461.499609)scale(0.165 -0.165)">
      <use xlink:href="#DejaVuSans-6b"/>
      <use x="57.910156" xlink:href="#DejaVuSans-20"/>
      <use x="89.697266" xlink:href="#DejaVuSans-3d"/>
      <use x="173.486328" xlink:href="#DejaVuSans-20"/>
      <use x="205.273438" xlink:href="#DejaVuSans-34"/>
     </g>
    </g>
    <g id="line2d_29">
     <path d="M 854.615742 479.943516 
L 887.615742 479.943516 
" style="fill:none;stroke:#1f77b4;stroke-linecap:round;stroke-width:2.25;"/>
    </g>
    <g id="line2d_30"/>
    <g id="text_23">
     <!-- k = 2 -->
     <g style="fill:#262626;" transform="translate(900.815742 485.718516)scale(0.165 -0.165)">
      <use xlink:href="#DejaVuSans-6b"/>
      <use x="57.910156" xlink:href="#DejaVuSans-20"/>
      <use x="89.697266" xlink:href="#DejaVuSans-3d"/>
      <use x="173.486328" xlink:href="#DejaVuSans-20"/>
      <use x="205.273438" xlink:href="#DejaVuSans-32"/>
     </g>
    </g>
   </g>
  </g>
 </g>
 <defs>
  <clipPath id="p8eb7efb380">
   <rect height="434.88" width="837" x="135" y="69.12"/>
  </clipPath>
 </defs>
</svg>
