<?xml version="1.0" encoding="utf-8" standalone="no"?>
<!DOCTYPE svg PUBLIC "-//W3C//DTD SVG 1.1//EN"
  "http://www.w3.org/Graphics/SVG/1.1/DTD/svg11.dtd">
<!-- Created with matplotlib (https://matplotlib.org/) -->
<svg height="576pt" version="1.1" viewBox="0 0 1080 576" width="1080pt" xmlns="http://www.w3.org/2000/svg" xmlns:xlink="http://www.w3.org/1999/xlink">
 <metadata>
  <rdf:RDF xmlns:cc="http://creativecommons.org/ns#" xmlns:dc="http://purl.org/dc/elements/1.1/" xmlns:rdf="http://www.w3.org/1999/02/22-rdf-syntax-ns#">
   <cc:Work>
    <dc:type rdf:resource="http://purl.org/dc/dcmitype/StillImage"/>
    <dc:date>2021-10-28T16:36:03.963549</dc:date>
    <dc:format>image/svg+xml</dc:format>
    <dc:creator>
     <cc:Agent>
      <dc:title>Matplotlib v3.3.2, https://matplotlib.org/</dc:title>
     </cc:Agent>
    </dc:creator>
   </cc:Work>
  </rdf:RDF>
 </metadata>
 <defs>
  <style type="text/css">*{stroke-linecap:butt;stroke-linejoin:round;}</style>
 </defs>
 <g id="figure_1">
  <g id="patch_1">
   <path d="M 0 576 
L 1080 576 
L 1080 0 
L 0 0 
z
" style="fill:#ffffff;"/>
  </g>
  <g id="axes_1">
   <g id="patch_2">
    <path d="M 135 504 
L 972 504 
L 972 69.12 
L 135 69.12 
z
" style="fill:#ffffff;"/>
   </g>
   <g id="matplotlib.axis_1">
    <g id="xtick_1">
     <g id="line2d_1">
      <path clip-path="url(#p36190b5eb5)" d="M 883.227273 504 
L 883.227273 69.12 
" style="fill:none;stroke:#999999;stroke-dasharray:1.5,2.475;stroke-dashoffset:0;stroke-width:1.5;"/>
     </g>
     <g id="text_1">
      <!-- 0.3 -->
      <g style="fill:#262626;" transform="translate(870.107195 529.037422)scale(0.165 -0.165)">
       <defs>
        <path d="M 31.78125 66.40625 
Q 24.171875 66.40625 20.328125 58.90625 
Q 16.5 51.421875 16.5 36.375 
Q 16.5 21.390625 20.328125 13.890625 
Q 24.171875 6.390625 31.78125 6.390625 
Q 39.453125 6.390625 43.28125 13.890625 
Q 47.125 21.390625 47.125 36.375 
Q 47.125 51.421875 43.28125 58.90625 
Q 39.453125 66.40625 31.78125 66.40625 
z
M 31.78125 74.21875 
Q 44.046875 74.21875 50.515625 64.515625 
Q 56.984375 54.828125 56.984375 36.375 
Q 56.984375 17.96875 50.515625 8.265625 
Q 44.046875 -1.421875 31.78125 -1.421875 
Q 19.53125 -1.421875 13.0625 8.265625 
Q 6.59375 17.96875 6.59375 36.375 
Q 6.59375 54.828125 13.0625 64.515625 
Q 19.53125 74.21875 31.78125 74.21875 
z
" id="DejaVuSans-48"/>
        <path d="M 10.6875 12.40625 
L 21 12.40625 
L 21 0 
L 10.6875 0 
z
" id="DejaVuSans-46"/>
        <path d="M 40.578125 39.3125 
Q 47.65625 37.796875 51.625 33 
Q 55.609375 28.21875 55.609375 21.1875 
Q 55.609375 10.40625 48.1875 4.484375 
Q 40.765625 -1.421875 27.09375 -1.421875 
Q 22.515625 -1.421875 17.65625 -0.515625 
Q 12.796875 0.390625 7.625 2.203125 
L 7.625 11.71875 
Q 11.71875 9.328125 16.59375 8.109375 
Q 21.484375 6.890625 26.8125 6.890625 
Q 36.078125 6.890625 40.9375 10.546875 
Q 45.796875 14.203125 45.796875 21.1875 
Q 45.796875 27.640625 41.28125 31.265625 
Q 36.765625 34.90625 28.71875 34.90625 
L 20.21875 34.90625 
L 20.21875 43.015625 
L 29.109375 43.015625 
Q 36.375 43.015625 40.234375 45.921875 
Q 44.09375 48.828125 44.09375 54.296875 
Q 44.09375 59.90625 40.109375 62.90625 
Q 36.140625 65.921875 28.71875 65.921875 
Q 24.65625 65.921875 20.015625 65.03125 
Q 15.375 64.15625 9.8125 62.3125 
L 9.8125 71.09375 
Q 15.4375 72.65625 20.34375 73.4375 
Q 25.25 74.21875 29.59375 74.21875 
Q 40.828125 74.21875 47.359375 69.109375 
Q 53.90625 64.015625 53.90625 55.328125 
Q 53.90625 49.265625 50.4375 45.09375 
Q 46.96875 40.921875 40.578125 39.3125 
z
" id="DejaVuSans-51"/>
       </defs>
       <use xlink:href="#DejaVuSans-48"/>
       <use x="63.623047" xlink:href="#DejaVuSans-46"/>
       <use x="95.410156" xlink:href="#DejaVuSans-51"/>
      </g>
     </g>
    </g>
    <g id="xtick_2">
     <g id="line2d_2">
      <path clip-path="url(#p36190b5eb5)" d="M 781.772727 504 
L 781.772727 69.12 
" style="fill:none;stroke:#999999;stroke-dasharray:1.5,2.475;stroke-dashoffset:0;stroke-width:1.5;"/>
     </g>
     <g id="text_2">
      <!-- 0.4 -->
      <g style="fill:#262626;" transform="translate(768.652649 529.037422)scale(0.165 -0.165)">
       <defs>
        <path d="M 37.796875 64.3125 
L 12.890625 25.390625 
L 37.796875 25.390625 
z
M 35.203125 72.90625 
L 47.609375 72.90625 
L 47.609375 25.390625 
L 58.015625 25.390625 
L 58.015625 17.1875 
L 47.609375 17.1875 
L 47.609375 0 
L 37.796875 0 
L 37.796875 17.1875 
L 4.890625 17.1875 
L 4.890625 26.703125 
z
" id="DejaVuSans-52"/>
       </defs>
       <use xlink:href="#DejaVuSans-48"/>
       <use x="63.623047" xlink:href="#DejaVuSans-46"/>
       <use x="95.410156" xlink:href="#DejaVuSans-52"/>
      </g>
     </g>
    </g>
    <g id="xtick_3">
     <g id="line2d_3">
      <path clip-path="url(#p36190b5eb5)" d="M 680.318182 504 
L 680.318182 69.12 
" style="fill:none;stroke:#999999;stroke-dasharray:1.5,2.475;stroke-dashoffset:0;stroke-width:1.5;"/>
     </g>
     <g id="text_3">
      <!-- 0.5 -->
      <g style="fill:#262626;" transform="translate(667.198104 529.037422)scale(0.165 -0.165)">
       <defs>
        <path d="M 10.796875 72.90625 
L 49.515625 72.90625 
L 49.515625 64.59375 
L 19.828125 64.59375 
L 19.828125 46.734375 
Q 21.96875 47.46875 24.109375 47.828125 
Q 26.265625 48.1875 28.421875 48.1875 
Q 40.625 48.1875 47.75 41.5 
Q 54.890625 34.8125 54.890625 23.390625 
Q 54.890625 11.625 47.5625 5.09375 
Q 40.234375 -1.421875 26.90625 -1.421875 
Q 22.3125 -1.421875 17.546875 -0.640625 
Q 12.796875 0.140625 7.71875 1.703125 
L 7.71875 11.625 
Q 12.109375 9.234375 16.796875 8.0625 
Q 21.484375 6.890625 26.703125 6.890625 
Q 35.15625 6.890625 40.078125 11.328125 
Q 45.015625 15.765625 45.015625 23.390625 
Q 45.015625 31 40.078125 35.4375 
Q 35.15625 39.890625 26.703125 39.890625 
Q 22.75 39.890625 18.8125 39.015625 
Q 14.890625 38.140625 10.796875 36.28125 
z
" id="DejaVuSans-53"/>
       </defs>
       <use xlink:href="#DejaVuSans-48"/>
       <use x="63.623047" xlink:href="#DejaVuSans-46"/>
       <use x="95.410156" xlink:href="#DejaVuSans-53"/>
      </g>
     </g>
    </g>
    <g id="xtick_4">
     <g id="line2d_4">
      <path clip-path="url(#p36190b5eb5)" d="M 578.863636 504 
L 578.863636 69.12 
" style="fill:none;stroke:#999999;stroke-dasharray:1.5,2.475;stroke-dashoffset:0;stroke-width:1.5;"/>
     </g>
     <g id="text_4">
      <!-- 0.6 -->
      <g style="fill:#262626;" transform="translate(565.743558 529.037422)scale(0.165 -0.165)">
       <defs>
        <path d="M 33.015625 40.375 
Q 26.375 40.375 22.484375 35.828125 
Q 18.609375 31.296875 18.609375 23.390625 
Q 18.609375 15.53125 22.484375 10.953125 
Q 26.375 6.390625 33.015625 6.390625 
Q 39.65625 6.390625 43.53125 10.953125 
Q 47.40625 15.53125 47.40625 23.390625 
Q 47.40625 31.296875 43.53125 35.828125 
Q 39.65625 40.375 33.015625 40.375 
z
M 52.59375 71.296875 
L 52.59375 62.3125 
Q 48.875 64.0625 45.09375 64.984375 
Q 41.3125 65.921875 37.59375 65.921875 
Q 27.828125 65.921875 22.671875 59.328125 
Q 17.53125 52.734375 16.796875 39.40625 
Q 19.671875 43.65625 24.015625 45.921875 
Q 28.375 48.1875 33.59375 48.1875 
Q 44.578125 48.1875 50.953125 41.515625 
Q 57.328125 34.859375 57.328125 23.390625 
Q 57.328125 12.15625 50.6875 5.359375 
Q 44.046875 -1.421875 33.015625 -1.421875 
Q 20.359375 -1.421875 13.671875 8.265625 
Q 6.984375 17.96875 6.984375 36.375 
Q 6.984375 53.65625 15.1875 63.9375 
Q 23.390625 74.21875 37.203125 74.21875 
Q 40.921875 74.21875 44.703125 73.484375 
Q 48.484375 72.75 52.59375 71.296875 
z
" id="DejaVuSans-54"/>
       </defs>
       <use xlink:href="#DejaVuSans-48"/>
       <use x="63.623047" xlink:href="#DejaVuSans-46"/>
       <use x="95.410156" xlink:href="#DejaVuSans-54"/>
      </g>
     </g>
    </g>
    <g id="xtick_5">
     <g id="line2d_5">
      <path clip-path="url(#p36190b5eb5)" d="M 477.409091 504 
L 477.409091 69.12 
" style="fill:none;stroke:#999999;stroke-dasharray:1.5,2.475;stroke-dashoffset:0;stroke-width:1.5;"/>
     </g>
     <g id="text_5">
      <!-- 0.7 -->
      <g style="fill:#262626;" transform="translate(464.289013 529.037422)scale(0.165 -0.165)">
       <defs>
        <path d="M 8.203125 72.90625 
L 55.078125 72.90625 
L 55.078125 68.703125 
L 28.609375 0 
L 18.3125 0 
L 43.21875 64.59375 
L 8.203125 64.59375 
z
" id="DejaVuSans-55"/>
       </defs>
       <use xlink:href="#DejaVuSans-48"/>
       <use x="63.623047" xlink:href="#DejaVuSans-46"/>
       <use x="95.410156" xlink:href="#DejaVuSans-55"/>
      </g>
     </g>
    </g>
    <g id="xtick_6">
     <g id="line2d_6">
      <path clip-path="url(#p36190b5eb5)" d="M 375.954545 504 
L 375.954545 69.12 
" style="fill:none;stroke:#999999;stroke-dasharray:1.5,2.475;stroke-dashoffset:0;stroke-width:1.5;"/>
     </g>
     <g id="text_6">
      <!-- 0.8 -->
      <g style="fill:#262626;" transform="translate(362.834467 529.037422)scale(0.165 -0.165)">
       <defs>
        <path d="M 31.78125 34.625 
Q 24.75 34.625 20.71875 30.859375 
Q 16.703125 27.09375 16.703125 20.515625 
Q 16.703125 13.921875 20.71875 10.15625 
Q 24.75 6.390625 31.78125 6.390625 
Q 38.8125 6.390625 42.859375 10.171875 
Q 46.921875 13.96875 46.921875 20.515625 
Q 46.921875 27.09375 42.890625 30.859375 
Q 38.875 34.625 31.78125 34.625 
z
M 21.921875 38.8125 
Q 15.578125 40.375 12.03125 44.71875 
Q 8.5 49.078125 8.5 55.328125 
Q 8.5 64.0625 14.71875 69.140625 
Q 20.953125 74.21875 31.78125 74.21875 
Q 42.671875 74.21875 48.875 69.140625 
Q 55.078125 64.0625 55.078125 55.328125 
Q 55.078125 49.078125 51.53125 44.71875 
Q 48 40.375 41.703125 38.8125 
Q 48.828125 37.15625 52.796875 32.3125 
Q 56.78125 27.484375 56.78125 20.515625 
Q 56.78125 9.90625 50.3125 4.234375 
Q 43.84375 -1.421875 31.78125 -1.421875 
Q 19.734375 -1.421875 13.25 4.234375 
Q 6.78125 9.90625 6.78125 20.515625 
Q 6.78125 27.484375 10.78125 32.3125 
Q 14.796875 37.15625 21.921875 38.8125 
z
M 18.3125 54.390625 
Q 18.3125 48.734375 21.84375 45.5625 
Q 25.390625 42.390625 31.78125 42.390625 
Q 38.140625 42.390625 41.71875 45.5625 
Q 45.3125 48.734375 45.3125 54.390625 
Q 45.3125 60.0625 41.71875 63.234375 
Q 38.140625 66.40625 31.78125 66.40625 
Q 25.390625 66.40625 21.84375 63.234375 
Q 18.3125 60.0625 18.3125 54.390625 
z
" id="DejaVuSans-56"/>
       </defs>
       <use xlink:href="#DejaVuSans-48"/>
       <use x="63.623047" xlink:href="#DejaVuSans-46"/>
       <use x="95.410156" xlink:href="#DejaVuSans-56"/>
      </g>
     </g>
    </g>
    <g id="xtick_7">
     <g id="line2d_7">
      <path clip-path="url(#p36190b5eb5)" d="M 274.5 504 
L 274.5 69.12 
" style="fill:none;stroke:#999999;stroke-dasharray:1.5,2.475;stroke-dashoffset:0;stroke-width:1.5;"/>
     </g>
     <g id="text_7">
      <!-- 0.9 -->
      <g style="fill:#262626;" transform="translate(261.379922 529.037422)scale(0.165 -0.165)">
       <defs>
        <path d="M 10.984375 1.515625 
L 10.984375 10.5 
Q 14.703125 8.734375 18.5 7.8125 
Q 22.3125 6.890625 25.984375 6.890625 
Q 35.75 6.890625 40.890625 13.453125 
Q 46.046875 20.015625 46.78125 33.40625 
Q 43.953125 29.203125 39.59375 26.953125 
Q 35.25 24.703125 29.984375 24.703125 
Q 19.046875 24.703125 12.671875 31.3125 
Q 6.296875 37.9375 6.296875 49.421875 
Q 6.296875 60.640625 12.9375 67.421875 
Q 19.578125 74.21875 30.609375 74.21875 
Q 43.265625 74.21875 49.921875 64.515625 
Q 56.59375 54.828125 56.59375 36.375 
Q 56.59375 19.140625 48.40625 8.859375 
Q 40.234375 -1.421875 26.421875 -1.421875 
Q 22.703125 -1.421875 18.890625 -0.6875 
Q 15.09375 0.046875 10.984375 1.515625 
z
M 30.609375 32.421875 
Q 37.25 32.421875 41.125 36.953125 
Q 45.015625 41.5 45.015625 49.421875 
Q 45.015625 57.28125 41.125 61.84375 
Q 37.25 66.40625 30.609375 66.40625 
Q 23.96875 66.40625 20.09375 61.84375 
Q 16.21875 57.28125 16.21875 49.421875 
Q 16.21875 41.5 20.09375 36.953125 
Q 23.96875 32.421875 30.609375 32.421875 
z
" id="DejaVuSans-57"/>
       </defs>
       <use xlink:href="#DejaVuSans-48"/>
       <use x="63.623047" xlink:href="#DejaVuSans-46"/>
       <use x="95.410156" xlink:href="#DejaVuSans-57"/>
      </g>
     </g>
    </g>
    <g id="xtick_8">
     <g id="line2d_8">
      <path clip-path="url(#p36190b5eb5)" d="M 173.045455 504 
L 173.045455 69.12 
" style="fill:none;stroke:#999999;stroke-dasharray:1.5,2.475;stroke-dashoffset:0;stroke-width:1.5;"/>
     </g>
     <g id="text_8">
      <!-- 1.0 -->
      <g style="fill:#262626;" transform="translate(159.925376 529.037422)scale(0.165 -0.165)">
       <defs>
        <path d="M 12.40625 8.296875 
L 28.515625 8.296875 
L 28.515625 63.921875 
L 10.984375 60.40625 
L 10.984375 69.390625 
L 28.421875 72.90625 
L 38.28125 72.90625 
L 38.28125 8.296875 
L 54.390625 8.296875 
L 54.390625 0 
L 12.40625 0 
z
" id="DejaVuSans-49"/>
       </defs>
       <use xlink:href="#DejaVuSans-49"/>
       <use x="63.623047" xlink:href="#DejaVuSans-46"/>
       <use x="95.410156" xlink:href="#DejaVuSans-48"/>
      </g>
     </g>
    </g>
    <g id="text_9">
     <!-- F (largest logical job name ratio in the cluster) -->
     <g style="fill:#262626;" transform="translate(344.631094 550.146094)scale(0.18 -0.18)">
      <defs>
       <path d="M 9.8125 72.90625 
L 51.703125 72.90625 
L 51.703125 64.59375 
L 19.671875 64.59375 
L 19.671875 43.109375 
L 48.578125 43.109375 
L 48.578125 34.8125 
L 19.671875 34.8125 
L 19.671875 0 
L 9.8125 0 
z
" id="DejaVuSans-70"/>
       <path id="DejaVuSans-32"/>
       <path d="M 31 75.875 
Q 24.46875 64.65625 21.28125 53.65625 
Q 18.109375 42.671875 18.109375 31.390625 
Q 18.109375 20.125 21.3125 9.0625 
Q 24.515625 -2 31 -13.1875 
L 23.1875 -13.1875 
Q 15.875 -1.703125 12.234375 9.375 
Q 8.59375 20.453125 8.59375 31.390625 
Q 8.59375 42.28125 12.203125 53.3125 
Q 15.828125 64.359375 23.1875 75.875 
z
" id="DejaVuSans-40"/>
       <path d="M 9.421875 75.984375 
L 18.40625 75.984375 
L 18.40625 0 
L 9.421875 0 
z
" id="DejaVuSans-108"/>
       <path d="M 34.28125 27.484375 
Q 23.390625 27.484375 19.1875 25 
Q 14.984375 22.515625 14.984375 16.5 
Q 14.984375 11.71875 18.140625 8.90625 
Q 21.296875 6.109375 26.703125 6.109375 
Q 34.1875 6.109375 38.703125 11.40625 
Q 43.21875 16.703125 43.21875 25.484375 
L 43.21875 27.484375 
z
M 52.203125 31.203125 
L 52.203125 0 
L 43.21875 0 
L 43.21875 8.296875 
Q 40.140625 3.328125 35.546875 0.953125 
Q 30.953125 -1.421875 24.3125 -1.421875 
Q 15.921875 -1.421875 10.953125 3.296875 
Q 6 8.015625 6 15.921875 
Q 6 25.140625 12.171875 29.828125 
Q 18.359375 34.515625 30.609375 34.515625 
L 43.21875 34.515625 
L 43.21875 35.40625 
Q 43.21875 41.609375 39.140625 45 
Q 35.0625 48.390625 27.6875 48.390625 
Q 23 48.390625 18.546875 47.265625 
Q 14.109375 46.140625 10.015625 43.890625 
L 10.015625 52.203125 
Q 14.9375 54.109375 19.578125 55.046875 
Q 24.21875 56 28.609375 56 
Q 40.484375 56 46.34375 49.84375 
Q 52.203125 43.703125 52.203125 31.203125 
z
" id="DejaVuSans-97"/>
       <path d="M 41.109375 46.296875 
Q 39.59375 47.171875 37.8125 47.578125 
Q 36.03125 48 33.890625 48 
Q 26.265625 48 22.1875 43.046875 
Q 18.109375 38.09375 18.109375 28.8125 
L 18.109375 0 
L 9.078125 0 
L 9.078125 54.6875 
L 18.109375 54.6875 
L 18.109375 46.1875 
Q 20.953125 51.171875 25.484375 53.578125 
Q 30.03125 56 36.53125 56 
Q 37.453125 56 38.578125 55.875 
Q 39.703125 55.765625 41.0625 55.515625 
z
" id="DejaVuSans-114"/>
       <path d="M 45.40625 27.984375 
Q 45.40625 37.75 41.375 43.109375 
Q 37.359375 48.484375 30.078125 48.484375 
Q 22.859375 48.484375 18.828125 43.109375 
Q 14.796875 37.75 14.796875 27.984375 
Q 14.796875 18.265625 18.828125 12.890625 
Q 22.859375 7.515625 30.078125 7.515625 
Q 37.359375 7.515625 41.375 12.890625 
Q 45.40625 18.265625 45.40625 27.984375 
z
M 54.390625 6.78125 
Q 54.390625 -7.171875 48.1875 -13.984375 
Q 42 -20.796875 29.203125 -20.796875 
Q 24.46875 -20.796875 20.265625 -20.09375 
Q 16.0625 -19.390625 12.109375 -17.921875 
L 12.109375 -9.1875 
Q 16.0625 -11.328125 19.921875 -12.34375 
Q 23.78125 -13.375 27.78125 -13.375 
Q 36.625 -13.375 41.015625 -8.765625 
Q 45.40625 -4.15625 45.40625 5.171875 
L 45.40625 9.625 
Q 42.625 4.78125 38.28125 2.390625 
Q 33.9375 0 27.875 0 
Q 17.828125 0 11.671875 7.65625 
Q 5.515625 15.328125 5.515625 27.984375 
Q 5.515625 40.671875 11.671875 48.328125 
Q 17.828125 56 27.875 56 
Q 33.9375 56 38.28125 53.609375 
Q 42.625 51.21875 45.40625 46.390625 
L 45.40625 54.6875 
L 54.390625 54.6875 
z
" id="DejaVuSans-103"/>
       <path d="M 56.203125 29.59375 
L 56.203125 25.203125 
L 14.890625 25.203125 
Q 15.484375 15.921875 20.484375 11.0625 
Q 25.484375 6.203125 34.421875 6.203125 
Q 39.59375 6.203125 44.453125 7.46875 
Q 49.3125 8.734375 54.109375 11.28125 
L 54.109375 2.78125 
Q 49.265625 0.734375 44.1875 -0.34375 
Q 39.109375 -1.421875 33.890625 -1.421875 
Q 20.796875 -1.421875 13.15625 6.1875 
Q 5.515625 13.8125 5.515625 26.8125 
Q 5.515625 40.234375 12.765625 48.109375 
Q 20.015625 56 32.328125 56 
Q 43.359375 56 49.78125 48.890625 
Q 56.203125 41.796875 56.203125 29.59375 
z
M 47.21875 32.234375 
Q 47.125 39.59375 43.09375 43.984375 
Q 39.0625 48.390625 32.421875 48.390625 
Q 24.90625 48.390625 20.390625 44.140625 
Q 15.875 39.890625 15.1875 32.171875 
z
" id="DejaVuSans-101"/>
       <path d="M 44.28125 53.078125 
L 44.28125 44.578125 
Q 40.484375 46.53125 36.375 47.5 
Q 32.28125 48.484375 27.875 48.484375 
Q 21.1875 48.484375 17.84375 46.4375 
Q 14.5 44.390625 14.5 40.28125 
Q 14.5 37.15625 16.890625 35.375 
Q 19.28125 33.59375 26.515625 31.984375 
L 29.59375 31.296875 
Q 39.15625 29.25 43.1875 25.515625 
Q 47.21875 21.78125 47.21875 15.09375 
Q 47.21875 7.46875 41.1875 3.015625 
Q 35.15625 -1.421875 24.609375 -1.421875 
Q 20.21875 -1.421875 15.453125 -0.5625 
Q 10.6875 0.296875 5.421875 2 
L 5.421875 11.28125 
Q 10.40625 8.6875 15.234375 7.390625 
Q 20.0625 6.109375 24.8125 6.109375 
Q 31.15625 6.109375 34.5625 8.28125 
Q 37.984375 10.453125 37.984375 14.40625 
Q 37.984375 18.0625 35.515625 20.015625 
Q 33.0625 21.96875 24.703125 23.78125 
L 21.578125 24.515625 
Q 13.234375 26.265625 9.515625 29.90625 
Q 5.8125 33.546875 5.8125 39.890625 
Q 5.8125 47.609375 11.28125 51.796875 
Q 16.75 56 26.8125 56 
Q 31.78125 56 36.171875 55.265625 
Q 40.578125 54.546875 44.28125 53.078125 
z
" id="DejaVuSans-115"/>
       <path d="M 18.3125 70.21875 
L 18.3125 54.6875 
L 36.8125 54.6875 
L 36.8125 47.703125 
L 18.3125 47.703125 
L 18.3125 18.015625 
Q 18.3125 11.328125 20.140625 9.421875 
Q 21.96875 7.515625 27.59375 7.515625 
L 36.8125 7.515625 
L 36.8125 0 
L 27.59375 0 
Q 17.1875 0 13.234375 3.875 
Q 9.28125 7.765625 9.28125 18.015625 
L 9.28125 47.703125 
L 2.6875 47.703125 
L 2.6875 54.6875 
L 9.28125 54.6875 
L 9.28125 70.21875 
z
" id="DejaVuSans-116"/>
       <path d="M 30.609375 48.390625 
Q 23.390625 48.390625 19.1875 42.75 
Q 14.984375 37.109375 14.984375 27.296875 
Q 14.984375 17.484375 19.15625 11.84375 
Q 23.34375 6.203125 30.609375 6.203125 
Q 37.796875 6.203125 41.984375 11.859375 
Q 46.1875 17.53125 46.1875 27.296875 
Q 46.1875 37.015625 41.984375 42.703125 
Q 37.796875 48.390625 30.609375 48.390625 
z
M 30.609375 56 
Q 42.328125 56 49.015625 48.375 
Q 55.71875 40.765625 55.71875 27.296875 
Q 55.71875 13.875 49.015625 6.21875 
Q 42.328125 -1.421875 30.609375 -1.421875 
Q 18.84375 -1.421875 12.171875 6.21875 
Q 5.515625 13.875 5.515625 27.296875 
Q 5.515625 40.765625 12.171875 48.375 
Q 18.84375 56 30.609375 56 
z
" id="DejaVuSans-111"/>
       <path d="M 9.421875 54.6875 
L 18.40625 54.6875 
L 18.40625 0 
L 9.421875 0 
z
M 9.421875 75.984375 
L 18.40625 75.984375 
L 18.40625 64.59375 
L 9.421875 64.59375 
z
" id="DejaVuSans-105"/>
       <path d="M 48.78125 52.59375 
L 48.78125 44.1875 
Q 44.96875 46.296875 41.140625 47.34375 
Q 37.3125 48.390625 33.40625 48.390625 
Q 24.65625 48.390625 19.8125 42.84375 
Q 14.984375 37.3125 14.984375 27.296875 
Q 14.984375 17.28125 19.8125 11.734375 
Q 24.65625 6.203125 33.40625 6.203125 
Q 37.3125 6.203125 41.140625 7.25 
Q 44.96875 8.296875 48.78125 10.40625 
L 48.78125 2.09375 
Q 45.015625 0.34375 40.984375 -0.53125 
Q 36.96875 -1.421875 32.421875 -1.421875 
Q 20.0625 -1.421875 12.78125 6.34375 
Q 5.515625 14.109375 5.515625 27.296875 
Q 5.515625 40.671875 12.859375 48.328125 
Q 20.21875 56 33.015625 56 
Q 37.15625 56 41.109375 55.140625 
Q 45.0625 54.296875 48.78125 52.59375 
z
" id="DejaVuSans-99"/>
       <path d="M 9.421875 54.6875 
L 18.40625 54.6875 
L 18.40625 -0.984375 
Q 18.40625 -11.421875 14.421875 -16.109375 
Q 10.453125 -20.796875 1.609375 -20.796875 
L -1.8125 -20.796875 
L -1.8125 -13.1875 
L 0.59375 -13.1875 
Q 5.71875 -13.1875 7.5625 -10.8125 
Q 9.421875 -8.453125 9.421875 -0.984375 
z
M 9.421875 75.984375 
L 18.40625 75.984375 
L 18.40625 64.59375 
L 9.421875 64.59375 
z
" id="DejaVuSans-106"/>
       <path d="M 48.6875 27.296875 
Q 48.6875 37.203125 44.609375 42.84375 
Q 40.53125 48.484375 33.40625 48.484375 
Q 26.265625 48.484375 22.1875 42.84375 
Q 18.109375 37.203125 18.109375 27.296875 
Q 18.109375 17.390625 22.1875 11.75 
Q 26.265625 6.109375 33.40625 6.109375 
Q 40.53125 6.109375 44.609375 11.75 
Q 48.6875 17.390625 48.6875 27.296875 
z
M 18.109375 46.390625 
Q 20.953125 51.265625 25.265625 53.625 
Q 29.59375 56 35.59375 56 
Q 45.5625 56 51.78125 48.09375 
Q 58.015625 40.1875 58.015625 27.296875 
Q 58.015625 14.40625 51.78125 6.484375 
Q 45.5625 -1.421875 35.59375 -1.421875 
Q 29.59375 -1.421875 25.265625 0.953125 
Q 20.953125 3.328125 18.109375 8.203125 
L 18.109375 0 
L 9.078125 0 
L 9.078125 75.984375 
L 18.109375 75.984375 
z
" id="DejaVuSans-98"/>
       <path d="M 54.890625 33.015625 
L 54.890625 0 
L 45.90625 0 
L 45.90625 32.71875 
Q 45.90625 40.484375 42.875 44.328125 
Q 39.84375 48.1875 33.796875 48.1875 
Q 26.515625 48.1875 22.3125 43.546875 
Q 18.109375 38.921875 18.109375 30.90625 
L 18.109375 0 
L 9.078125 0 
L 9.078125 54.6875 
L 18.109375 54.6875 
L 18.109375 46.1875 
Q 21.34375 51.125 25.703125 53.5625 
Q 30.078125 56 35.796875 56 
Q 45.21875 56 50.046875 50.171875 
Q 54.890625 44.34375 54.890625 33.015625 
z
" id="DejaVuSans-110"/>
       <path d="M 52 44.1875 
Q 55.375 50.25 60.0625 53.125 
Q 64.75 56 71.09375 56 
Q 79.640625 56 84.28125 50.015625 
Q 88.921875 44.046875 88.921875 33.015625 
L 88.921875 0 
L 79.890625 0 
L 79.890625 32.71875 
Q 79.890625 40.578125 77.09375 44.375 
Q 74.3125 48.1875 68.609375 48.1875 
Q 61.625 48.1875 57.5625 43.546875 
Q 53.515625 38.921875 53.515625 30.90625 
L 53.515625 0 
L 44.484375 0 
L 44.484375 32.71875 
Q 44.484375 40.625 41.703125 44.40625 
Q 38.921875 48.1875 33.109375 48.1875 
Q 26.21875 48.1875 22.15625 43.53125 
Q 18.109375 38.875 18.109375 30.90625 
L 18.109375 0 
L 9.078125 0 
L 9.078125 54.6875 
L 18.109375 54.6875 
L 18.109375 46.1875 
Q 21.1875 51.21875 25.484375 53.609375 
Q 29.78125 56 35.6875 56 
Q 41.65625 56 45.828125 52.96875 
Q 50 49.953125 52 44.1875 
z
" id="DejaVuSans-109"/>
       <path d="M 54.890625 33.015625 
L 54.890625 0 
L 45.90625 0 
L 45.90625 32.71875 
Q 45.90625 40.484375 42.875 44.328125 
Q 39.84375 48.1875 33.796875 48.1875 
Q 26.515625 48.1875 22.3125 43.546875 
Q 18.109375 38.921875 18.109375 30.90625 
L 18.109375 0 
L 9.078125 0 
L 9.078125 75.984375 
L 18.109375 75.984375 
L 18.109375 46.1875 
Q 21.34375 51.125 25.703125 53.5625 
Q 30.078125 56 35.796875 56 
Q 45.21875 56 50.046875 50.171875 
Q 54.890625 44.34375 54.890625 33.015625 
z
" id="DejaVuSans-104"/>
       <path d="M 8.5 21.578125 
L 8.5 54.6875 
L 17.484375 54.6875 
L 17.484375 21.921875 
Q 17.484375 14.15625 20.5 10.265625 
Q 23.53125 6.390625 29.59375 6.390625 
Q 36.859375 6.390625 41.078125 11.03125 
Q 45.3125 15.671875 45.3125 23.6875 
L 45.3125 54.6875 
L 54.296875 54.6875 
L 54.296875 0 
L 45.3125 0 
L 45.3125 8.40625 
Q 42.046875 3.421875 37.71875 1 
Q 33.40625 -1.421875 27.6875 -1.421875 
Q 18.265625 -1.421875 13.375 4.4375 
Q 8.5 10.296875 8.5 21.578125 
z
M 31.109375 56 
z
" id="DejaVuSans-117"/>
       <path d="M 8.015625 75.875 
L 15.828125 75.875 
Q 23.140625 64.359375 26.78125 53.3125 
Q 30.421875 42.28125 30.421875 31.390625 
Q 30.421875 20.453125 26.78125 9.375 
Q 23.140625 -1.703125 15.828125 -13.1875 
L 8.015625 -13.1875 
Q 14.5 -2 17.703125 9.0625 
Q 20.90625 20.125 20.90625 31.390625 
Q 20.90625 42.671875 17.703125 53.65625 
Q 14.5 64.65625 8.015625 75.875 
z
" id="DejaVuSans-41"/>
      </defs>
      <use xlink:href="#DejaVuSans-70"/>
      <use x="57.519531" xlink:href="#DejaVuSans-32"/>
      <use x="89.306641" xlink:href="#DejaVuSans-40"/>
      <use x="128.320312" xlink:href="#DejaVuSans-108"/>
      <use x="156.103516" xlink:href="#DejaVuSans-97"/>
      <use x="217.382812" xlink:href="#DejaVuSans-114"/>
      <use x="256.746094" xlink:href="#DejaVuSans-103"/>
      <use x="320.222656" xlink:href="#DejaVuSans-101"/>
      <use x="381.746094" xlink:href="#DejaVuSans-115"/>
      <use x="433.845703" xlink:href="#DejaVuSans-116"/>
      <use x="473.054688" xlink:href="#DejaVuSans-32"/>
      <use x="504.841797" xlink:href="#DejaVuSans-108"/>
      <use x="532.625" xlink:href="#DejaVuSans-111"/>
      <use x="593.806641" xlink:href="#DejaVuSans-103"/>
      <use x="657.283203" xlink:href="#DejaVuSans-105"/>
      <use x="685.066406" xlink:href="#DejaVuSans-99"/>
      <use x="740.046875" xlink:href="#DejaVuSans-97"/>
      <use x="801.326172" xlink:href="#DejaVuSans-108"/>
      <use x="829.109375" xlink:href="#DejaVuSans-32"/>
      <use x="860.896484" xlink:href="#DejaVuSans-106"/>
      <use x="888.679688" xlink:href="#DejaVuSans-111"/>
      <use x="949.861328" xlink:href="#DejaVuSans-98"/>
      <use x="1013.337891" xlink:href="#DejaVuSans-32"/>
      <use x="1045.125" xlink:href="#DejaVuSans-110"/>
      <use x="1108.503906" xlink:href="#DejaVuSans-97"/>
      <use x="1169.783203" xlink:href="#DejaVuSans-109"/>
      <use x="1267.195312" xlink:href="#DejaVuSans-101"/>
      <use x="1328.71875" xlink:href="#DejaVuSans-32"/>
      <use x="1360.505859" xlink:href="#DejaVuSans-114"/>
      <use x="1401.619141" xlink:href="#DejaVuSans-97"/>
      <use x="1462.898438" xlink:href="#DejaVuSans-116"/>
      <use x="1502.107422" xlink:href="#DejaVuSans-105"/>
      <use x="1529.890625" xlink:href="#DejaVuSans-111"/>
      <use x="1591.072266" xlink:href="#DejaVuSans-32"/>
      <use x="1622.859375" xlink:href="#DejaVuSans-105"/>
      <use x="1650.642578" xlink:href="#DejaVuSans-110"/>
      <use x="1714.021484" xlink:href="#DejaVuSans-32"/>
      <use x="1745.808594" xlink:href="#DejaVuSans-116"/>
      <use x="1785.017578" xlink:href="#DejaVuSans-104"/>
      <use x="1848.396484" xlink:href="#DejaVuSans-101"/>
      <use x="1909.919922" xlink:href="#DejaVuSans-32"/>
      <use x="1941.707031" xlink:href="#DejaVuSans-99"/>
      <use x="1996.6875" xlink:href="#DejaVuSans-108"/>
      <use x="2024.470703" xlink:href="#DejaVuSans-117"/>
      <use x="2087.849609" xlink:href="#DejaVuSans-115"/>
      <use x="2139.949219" xlink:href="#DejaVuSans-116"/>
      <use x="2179.158203" xlink:href="#DejaVuSans-101"/>
      <use x="2240.681641" xlink:href="#DejaVuSans-114"/>
      <use x="2281.794922" xlink:href="#DejaVuSans-41"/>
     </g>
    </g>
   </g>
   <g id="matplotlib.axis_2">
    <g id="ytick_1">
     <g id="line2d_9">
      <path clip-path="url(#p36190b5eb5)" d="M 135 504 
L 972 504 
" style="fill:none;stroke:#999999;stroke-dasharray:1.5,2.475;stroke-dashoffset:0;stroke-width:1.5;"/>
     </g>
     <g id="text_10">
      <!-- 0% -->
      <g style="fill:#262626;" transform="translate(96.324297 510.268711)scale(0.165 -0.165)">
       <defs>
        <path d="M 72.703125 32.078125 
Q 68.453125 32.078125 66.03125 28.46875 
Q 63.625 24.859375 63.625 18.40625 
Q 63.625 12.0625 66.03125 8.421875 
Q 68.453125 4.78125 72.703125 4.78125 
Q 76.859375 4.78125 79.265625 8.421875 
Q 81.6875 12.0625 81.6875 18.40625 
Q 81.6875 24.8125 79.265625 28.4375 
Q 76.859375 32.078125 72.703125 32.078125 
z
M 72.703125 38.28125 
Q 80.421875 38.28125 84.953125 32.90625 
Q 89.5 27.546875 89.5 18.40625 
Q 89.5 9.28125 84.9375 3.921875 
Q 80.375 -1.421875 72.703125 -1.421875 
Q 64.890625 -1.421875 60.34375 3.921875 
Q 55.8125 9.28125 55.8125 18.40625 
Q 55.8125 27.59375 60.375 32.9375 
Q 64.9375 38.28125 72.703125 38.28125 
z
M 22.3125 68.015625 
Q 18.109375 68.015625 15.6875 64.375 
Q 13.28125 60.75 13.28125 54.390625 
Q 13.28125 47.953125 15.671875 44.328125 
Q 18.0625 40.71875 22.3125 40.71875 
Q 26.5625 40.71875 28.96875 44.328125 
Q 31.390625 47.953125 31.390625 54.390625 
Q 31.390625 60.6875 28.953125 64.34375 
Q 26.515625 68.015625 22.3125 68.015625 
z
M 66.40625 74.21875 
L 74.21875 74.21875 
L 28.609375 -1.421875 
L 20.796875 -1.421875 
z
M 22.3125 74.21875 
Q 30.03125 74.21875 34.609375 68.875 
Q 39.203125 63.53125 39.203125 54.390625 
Q 39.203125 45.171875 34.640625 39.84375 
Q 30.078125 34.515625 22.3125 34.515625 
Q 14.546875 34.515625 10.03125 39.859375 
Q 5.515625 45.21875 5.515625 54.390625 
Q 5.515625 63.484375 10.046875 68.84375 
Q 14.59375 74.21875 22.3125 74.21875 
z
" id="DejaVuSans-37"/>
       </defs>
       <use xlink:href="#DejaVuSans-48"/>
       <use x="63.623047" xlink:href="#DejaVuSans-37"/>
      </g>
     </g>
    </g>
    <g id="ytick_2">
     <g id="line2d_10">
      <path clip-path="url(#p36190b5eb5)" d="M 135 417.024 
L 972 417.024 
" style="fill:none;stroke:#999999;stroke-dasharray:1.5,2.475;stroke-dashoffset:0;stroke-width:1.5;"/>
     </g>
     <g id="text_11">
      <!-- 20% -->
      <g style="fill:#262626;" transform="translate(85.826172 423.292711)scale(0.165 -0.165)">
       <defs>
        <path d="M 19.1875 8.296875 
L 53.609375 8.296875 
L 53.609375 0 
L 7.328125 0 
L 7.328125 8.296875 
Q 12.9375 14.109375 22.625 23.890625 
Q 32.328125 33.6875 34.8125 36.53125 
Q 39.546875 41.84375 41.421875 45.53125 
Q 43.3125 49.21875 43.3125 52.78125 
Q 43.3125 58.59375 39.234375 62.25 
Q 35.15625 65.921875 28.609375 65.921875 
Q 23.96875 65.921875 18.8125 64.3125 
Q 13.671875 62.703125 7.8125 59.421875 
L 7.8125 69.390625 
Q 13.765625 71.78125 18.9375 73 
Q 24.125 74.21875 28.421875 74.21875 
Q 39.75 74.21875 46.484375 68.546875 
Q 53.21875 62.890625 53.21875 53.421875 
Q 53.21875 48.921875 51.53125 44.890625 
Q 49.859375 40.875 45.40625 35.40625 
Q 44.1875 33.984375 37.640625 27.21875 
Q 31.109375 20.453125 19.1875 8.296875 
z
" id="DejaVuSans-50"/>
       </defs>
       <use xlink:href="#DejaVuSans-50"/>
       <use x="63.623047" xlink:href="#DejaVuSans-48"/>
       <use x="127.246094" xlink:href="#DejaVuSans-37"/>
      </g>
     </g>
    </g>
    <g id="ytick_3">
     <g id="line2d_11">
      <path clip-path="url(#p36190b5eb5)" d="M 135 330.048 
L 972 330.048 
" style="fill:none;stroke:#999999;stroke-dasharray:1.5,2.475;stroke-dashoffset:0;stroke-width:1.5;"/>
     </g>
     <g id="text_12">
      <!-- 40% -->
      <g style="fill:#262626;" transform="translate(85.826172 336.316711)scale(0.165 -0.165)">
       <use xlink:href="#DejaVuSans-52"/>
       <use x="63.623047" xlink:href="#DejaVuSans-48"/>
       <use x="127.246094" xlink:href="#DejaVuSans-37"/>
      </g>
     </g>
    </g>
    <g id="ytick_4">
     <g id="line2d_12">
      <path clip-path="url(#p36190b5eb5)" d="M 135 243.072 
L 972 243.072 
" style="fill:none;stroke:#999999;stroke-dasharray:1.5,2.475;stroke-dashoffset:0;stroke-width:1.5;"/>
     </g>
     <g id="text_13">
      <!-- 60% -->
      <g style="fill:#262626;" transform="translate(85.826172 249.340711)scale(0.165 -0.165)">
       <use xlink:href="#DejaVuSans-54"/>
       <use x="63.623047" xlink:href="#DejaVuSans-48"/>
       <use x="127.246094" xlink:href="#DejaVuSans-37"/>
      </g>
     </g>
    </g>
    <g id="ytick_5">
     <g id="line2d_13">
      <path clip-path="url(#p36190b5eb5)" d="M 135 156.096 
L 972 156.096 
" style="fill:none;stroke:#999999;stroke-dasharray:1.5,2.475;stroke-dashoffset:0;stroke-width:1.5;"/>
     </g>
     <g id="text_14">
      <!-- 80% -->
      <g style="fill:#262626;" transform="translate(85.826172 162.364711)scale(0.165 -0.165)">
       <use xlink:href="#DejaVuSans-56"/>
       <use x="63.623047" xlink:href="#DejaVuSans-48"/>
       <use x="127.246094" xlink:href="#DejaVuSans-37"/>
      </g>
     </g>
    </g>
    <g id="ytick_6">
     <g id="line2d_14">
      <path clip-path="url(#p36190b5eb5)" d="M 135 69.12 
L 972 69.12 
" style="fill:none;stroke:#999999;stroke-dasharray:1.5,2.475;stroke-dashoffset:0;stroke-width:1.5;"/>
     </g>
     <g id="text_15">
      <!-- 100% -->
      <g style="fill:#262626;" transform="translate(75.328047 75.388711)scale(0.165 -0.165)">
       <use xlink:href="#DejaVuSans-49"/>
       <use x="63.623047" xlink:href="#DejaVuSans-48"/>
       <use x="127.246094" xlink:href="#DejaVuSans-48"/>
       <use x="190.869141" xlink:href="#DejaVuSans-37"/>
      </g>
     </g>
    </g>
    <g id="text_16">
     <!-- Proportion -->
     <g style="fill:#262626;" transform="translate(67.584609 332.992969)rotate(-90)scale(0.18 -0.18)">
      <defs>
       <path d="M 19.671875 64.796875 
L 19.671875 37.40625 
L 32.078125 37.40625 
Q 38.96875 37.40625 42.71875 40.96875 
Q 46.484375 44.53125 46.484375 51.125 
Q 46.484375 57.671875 42.71875 61.234375 
Q 38.96875 64.796875 32.078125 64.796875 
z
M 9.8125 72.90625 
L 32.078125 72.90625 
Q 44.34375 72.90625 50.609375 67.359375 
Q 56.890625 61.8125 56.890625 51.125 
Q 56.890625 40.328125 50.609375 34.8125 
Q 44.34375 29.296875 32.078125 29.296875 
L 19.671875 29.296875 
L 19.671875 0 
L 9.8125 0 
z
" id="DejaVuSans-80"/>
       <path d="M 18.109375 8.203125 
L 18.109375 -20.796875 
L 9.078125 -20.796875 
L 9.078125 54.6875 
L 18.109375 54.6875 
L 18.109375 46.390625 
Q 20.953125 51.265625 25.265625 53.625 
Q 29.59375 56 35.59375 56 
Q 45.5625 56 51.78125 48.09375 
Q 58.015625 40.1875 58.015625 27.296875 
Q 58.015625 14.40625 51.78125 6.484375 
Q 45.5625 -1.421875 35.59375 -1.421875 
Q 29.59375 -1.421875 25.265625 0.953125 
Q 20.953125 3.328125 18.109375 8.203125 
z
M 48.6875 27.296875 
Q 48.6875 37.203125 44.609375 42.84375 
Q 40.53125 48.484375 33.40625 48.484375 
Q 26.265625 48.484375 22.1875 42.84375 
Q 18.109375 37.203125 18.109375 27.296875 
Q 18.109375 17.390625 22.1875 11.75 
Q 26.265625 6.109375 33.40625 6.109375 
Q 40.53125 6.109375 44.609375 11.75 
Q 48.6875 17.390625 48.6875 27.296875 
z
" id="DejaVuSans-112"/>
      </defs>
      <use xlink:href="#DejaVuSans-80"/>
      <use x="58.552734" xlink:href="#DejaVuSans-114"/>
      <use x="97.416016" xlink:href="#DejaVuSans-111"/>
      <use x="158.597656" xlink:href="#DejaVuSans-112"/>
      <use x="222.074219" xlink:href="#DejaVuSans-111"/>
      <use x="283.255859" xlink:href="#DejaVuSans-114"/>
      <use x="324.369141" xlink:href="#DejaVuSans-116"/>
      <use x="363.578125" xlink:href="#DejaVuSans-105"/>
      <use x="391.361328" xlink:href="#DejaVuSans-111"/>
      <use x="452.542969" xlink:href="#DejaVuSans-110"/>
     </g>
    </g>
   </g>
   <g id="line2d_15">
    <path clip-path="url(#p36190b5eb5)" d="M 933.954545 69.12 
L 933.954545 70.892609 
L 897.720779 70.977019 
L 897.720779 71.399068 
L 849.409091 71.483478 
L 849.409091 86.846087 
L 825.253247 86.930497 
L 825.253247 87.099317 
L 818.665289 87.099317 
L 818.665289 87.183727 
L 818.665289 87.352547 
L 813.811005 87.352547 
L 813.811005 87.436957 
L 813.811005 87.521366 
L 807.136364 87.521366 
L 807.136364 87.605776 
L 807.136364 88.534286 
L 801.097403 88.534286 
L 801.097403 88.618696 
L 801.097403 88.703106 
L 797.381119 88.787516 
L 797.381119 88.787516 
L 797.381119 88.956335 
L 794.863636 88.956335 
L 794.863636 89.040745 
L 794.863636 89.125155 
L 793.045455 89.125155 
L 793.045455 89.209565 
L 793.045455 89.378385 
L 781.772727 89.462795 
L 781.772727 97.903789 
L 772.549587 97.988199 
L 772.549587 98.072609 
L 766.925721 98.157019 
L 766.925721 98.241429 
L 764.863636 98.325839 
L 764.863636 98.832298 
L 760.413876 98.916708 
L 760.413876 99.169938 
L 755.161699 99.254348 
L 755.161699 99.338758 
L 752.785714 99.338758 
L 752.785714 99.423168 
L 752.785714 101.955466 
L 744.692893 102.039876 
L 744.692893 102.124286 
L 743.727273 102.124286 
L 743.727273 102.208696 
L 743.727273 102.630745 
L 741.190909 102.715155 
L 741.190909 102.799565 
L 736.681818 102.883975 
L 736.681818 104.318944 
L 731.045455 104.403354 
L 731.045455 104.572174 
L 729.409091 104.656584 
L 729.409091 104.740994 
L 726.433884 104.825404 
L 726.433884 105.500683 
L 719.339161 105.500683 
L 719.339161 105.585093 
L 719.339161 105.922733 
L 716.551948 105.922733 
L 716.551948 106.007143 
L 716.551948 106.175963 
L 714.136364 106.260373 
L 714.136364 106.682422 
L 712.424051 106.766832 
L 712.424051 106.851242 
L 710.157754 106.935652 
L 710.157754 107.188882 
L 707.016746 107.273292 
L 707.016746 107.695342 
L 702.373518 107.779752 
L 702.373518 108.032981 
L 700.609091 108.117391 
L 700.609091 108.286211 
L 695.690083 108.286211 
L 695.690083 108.370621 
L 695.690083 108.455031 
L 694.409091 108.539441 
L 694.409091 108.623851 
L 691.111219 108.708261 
L 691.111219 108.792671 
L 687.889417 108.877081 
L 687.889417 108.961491 
L 680.318182 108.961491 
L 680.318182 109.045901 
L 680.318182 217.175031 
L 676.055386 217.259441 
L 676.055386 217.343851 
L 666.9689 217.428261 
L 666.9689 217.512671 
L 664.946281 217.597081 
L 664.946281 217.765901 
L 663.954545 217.850311 
L 663.954545 218.01913 
L 661.530303 218.10354 
L 661.530303 218.27236 
L 660.027273 218.35677 
L 660.027273 218.52559 
L 658.262846 218.61 
L 658.262846 218.69441 
L 656.162338 218.77882 
L 656.162338 219.11646 
L 653.619617 219.20087 
L 653.619617 219.707329 
L 650.47861 219.707329 
L 650.47861 219.791739 
L 650.47861 219.876149 
L 648.613636 219.876149 
L 648.613636 219.960559 
L 648.613636 220.044969 
L 647.179762 220.129379 
L 647.179762 220.213789 
L 645.333856 220.298199 
L 645.333856 220.382609 
L 644.084416 220.382609 
L 644.084416 220.467019 
L 644.084416 220.551429 
L 641.297203 220.551429 
L 641.297203 220.635839 
L 641.297203 221.142298 
L 639.736364 221.226708 
L 639.736364 221.311118 
L 638.045455 221.311118 
L 638.045455 221.395528 
L 638.045455 221.564348 
L 636.20751 221.648758 
L 636.20751 221.733168 
L 634.202479 221.817578 
L 634.202479 222.746087 
L 632.006494 222.746087 
L 632.006494 222.830497 
L 632.006494 222.914907 
L 631.227273 222.914907 
L 631.227273 222.999317 
L 631.227273 223.083727 
L 629.590909 223.168137 
L 629.590909 223.336957 
L 628.555659 223.336957 
L 628.555659 223.421366 
L 628.555659 223.505776 
L 623.954545 223.505776 
L 623.954545 223.590186 
L 623.954545 226.375714 
L 619.445455 226.375714 
L 619.445455 226.460124 
L 619.445455 226.628944 
L 616.909091 226.713354 
L 616.909091 226.882174 
L 614.936364 226.966584 
L 614.936364 227.050994 
L 614.152174 227.050994 
L 614.152174 227.135404 
L 614.152174 227.304224 
L 611.429293 227.388634 
L 611.429293 227.473043 
L 607.850649 227.557453 
L 607.850649 231.355901 
L 601.409091 231.440311 
L 601.409091 231.52472 
L 600.222488 231.52472 
L 600.222488 231.60913 
L 600.222488 232.2 
L 598.5 232.28441 
L 598.5 232.45323 
L 597.309917 232.53764 
L 597.309917 232.70646 
L 595.772727 232.70646 
L 595.772727 232.79087 
L 595.772727 233.803789 
L 593.710643 233.888199 
L 593.710643 233.972609 
L 590.799465 234.057019 
L 590.799465 234.225839 
L 589.931405 234.310248 
L 589.931405 234.394658 
L 589.269231 234.479068 
L 589.269231 234.647888 
L 587.14564 234.732298 
L 587.14564 234.816708 
L 586.378788 234.816708 
L 586.378788 234.901118 
L 586.378788 235.069938 
L 585.204545 235.154348 
L 585.204545 235.238758 
L 583.180851 235.323168 
L 583.180851 235.407578 
L 582.423445 235.491988 
L 582.423445 235.660807 
L 578.863636 235.745217 
L 578.863636 250.601366 
L 571.616883 250.685776 
L 571.616883 250.770186 
L 567.590909 250.854596 
L 567.590909 251.445466 
L 563.255245 251.529876 
L 563.255245 252.711615 
L 559.538961 252.796025 
L 559.538961 252.880435 
L 558.572727 252.964845 
L 558.572727 253.049255 
L 557.873041 253.049255 
L 557.873041 253.133665 
L 557.873041 253.386894 
L 553.5 253.386894 
L 553.5 253.471304 
L 553.5 256.341242 
L 546.825359 256.341242 
L 546.825359 256.425652 
L 546.825359 256.678882 
L 545.735622 256.678882 
L 545.735622 256.763292 
L 545.735622 256.847702 
L 541.971074 256.847702 
L 541.971074 256.932112 
L 541.971074 257.945031 
L 538.281818 258.029441 
L 538.281818 258.367081 
L 535.383117 258.451491 
L 535.383117 258.87354 
L 531.120321 258.95795 
L 531.120321 259.21118 
L 528.136364 259.21118 
L 528.136364 259.29559 
L 528.136364 259.63323 
L 525.93083 259.63323 
L 525.93083 259.71764 
L 525.93083 260.05528 
L 524.234266 260.139689 
L 524.234266 260.139689 
L 524.234266 260.308509 
L 522.888715 260.308509 
L 522.888715 260.392919 
L 522.888715 260.477329 
L 521.795455 260.477329 
L 521.795455 260.561739 
L 521.795455 260.646149 
L 518.913223 260.730559 
L 518.913223 260.814969 
L 511.227273 260.899379 
L 511.227273 318.213727 
L 505.309091 318.298137 
L 505.309091 318.382547 
L 504.325603 318.466957 
L 504.325603 318.551366 
L 503.875494 318.551366 
L 503.875494 318.635776 
L 503.875494 318.720186 
L 501.701024 318.804596 
L 501.701024 318.889006 
L 500.318182 318.973416 
L 500.318182 319.057826 
L 499.149351 319.142236 
L 499.149351 319.226646 
L 498.465695 319.226646 
L 498.465695 319.311056 
L 498.465695 319.395466 
L 497.7 319.395466 
L 497.7 319.479876 
L 497.7 319.564286 
L 496.836557 319.648696 
L 496.836557 319.733106 
L 495.855372 319.733106 
L 495.855372 319.817516 
L 495.855372 319.901925 
L 494.730599 319.986335 
L 494.730599 320.070745 
L 492.439394 320.155155 
L 492.439394 320.323975 
L 491.334225 320.323975 
L 491.334225 320.408385 
L 491.334225 320.492795 
L 490.090909 320.492795 
L 490.090909 320.577205 
L 490.090909 320.746025 
L 487.904389 320.746025 
L 487.904389 320.830435 
L 487.904389 320.914845 
L 485.213287 320.914845 
L 485.213287 320.999255 
L 485.213287 321.336894 
L 483.807125 321.421304 
L 483.807125 321.505714 
L 481.820158 321.505714 
L 481.820158 321.590124 
L 481.820158 321.843354 
L 479.323328 321.927764 
L 479.323328 322.012174 
L 478.394086 322.096584 
L 478.394086 322.180994 
L 477.409091 322.265404 
L 477.409091 324.122422 
L 475.250484 324.206832 
L 475.250484 324.291242 
L 473.651515 324.375652 
L 473.651515 324.544472 
L 472.419523 324.628882 
L 472.419523 324.713292 
L 471.441176 324.797702 
L 471.441176 324.797702 
L 471.441176 324.882112 
L 468.954545 324.882112 
L 468.954545 324.966522 
L 468.954545 325.135342 
L 467.116601 325.219752 
L 467.116601 325.304161 
L 465.726446 325.388571 
L 465.702797 325.557391 
L 463.981283 325.641801 
L 463.981283 325.726211 
L 462.915584 325.726211 
L 462.915584 325.810621 
L 462.915584 330.284348 
L 461.126263 330.284348 
L 461.126263 330.368758 
L 461.126263 330.453168 
L 459.199301 330.537578 
L 459.199301 330.621988 
L 458.386364 330.621988 
L 458.386364 330.706398 
L 458.386364 330.790807 
L 457.118182 330.875217 
L 457.118182 331.297267 
L 454.863636 331.297267 
L 454.863636 331.381677 
L 454.863636 331.634907 
L 453.380383 331.719317 
L 453.380383 331.803727 
L 452.920063 331.803727 
L 452.920063 331.888137 
L 452.920063 332.056957 
L 450.710526 332.141366 
L 450.710526 332.225776 
L 449.739669 332.310186 
L 449.739669 333.576335 
L 447.818182 333.660745 
L 447.818182 333.745155 
L 446.192308 333.745155 
L 446.192308 333.829565 
L 446.192308 334.082795 
L 445.240576 334.167205 
L 445.240576 334.251615 
L 443.590909 334.251615 
L 443.590909 334.336025 
L 443.590909 334.504845 
L 440.0311 334.589255 
L 440.0311 334.758075 
L 438.75974 334.842484 
L 438.75974 334.926894 
L 437.709486 334.926894 
L 437.709486 335.011304 
L 437.709486 335.180124 
L 436.075758 335.180124 
L 436.075758 335.264534 
L 436.075758 335.517764 
L 435.550223 335.602174 
L 435.550223 335.686584 
L 433.185315 335.770994 
L 433.185315 335.855404 
L 432.078337 335.855404 
L 432.078337 335.939814 
L 432.078337 336.024224 
L 430.467436 336.108634 
L 430.467436 336.193043 
L 426.681818 336.277453 
L 426.681818 358.308447 
L 422.232057 358.392857 
L 422.232057 358.477267 
L 418.995868 358.561677 
L 418.995868 358.730497 
L 416.536364 358.814907 
L 416.536364 359.490186 
L 414.603896 359.574596 
L 414.603896 359.827826 
L 413.332536 359.827826 
L 413.332536 359.912236 
L 413.332536 359.996646 
L 411.762032 359.996646 
L 411.762032 360.081056 
L 411.762032 360.165466 
L 410.312504 360.249876 
L 410.312504 360.334286 
L 408.564935 360.418696 
L 408.564935 360.503106 
L 407.171329 360.503106 
L 407.171329 360.587516 
L 407.171329 361.347205 
L 402.360523 361.431615 
L 402.360523 361.516025 
L 400.800557 361.600435 
L 400.800557 361.684845 
L 398.5 361.769255 
L 398.5 363.035404 
L 393.598814 363.035404 
L 393.598814 363.119814 
L 393.598814 363.373043 
L 392.087139 363.457453 
L 392.087139 363.541863 
L 390.448052 363.541863 
L 390.448052 363.626273 
L 390.448052 364.217143 
L 388.90619 364.301553 
L 388.90619 364.385963 
L 386.633971 364.385963 
L 386.633971 364.470373 
L 386.633971 364.639193 
L 385.392178 364.723602 
L 385.392178 364.808012 
L 384.409091 364.808012 
L 384.409091 364.892422 
L 384.409091 364.976832 
L 380.566116 365.061242 
L 380.566116 365.145652 
L 375.954545 365.230062 
L 375.954545 375.696894 
L 368.15035 375.781304 
L 368.15035 375.950124 
L 364.1917 376.034534 
L 364.1917 376.118944 
L 359.935407 376.203354 
L 359.935407 376.287764 
L 357.508264 376.287764 
L 357.508264 376.372174 
L 357.508264 377.047453 
L 352.082888 377.131863 
L 352.082888 377.553913 
L 349.488142 377.553913 
L 349.488142 377.638323 
L 349.488142 377.722733 
L 347.848894 377.807143 
L 347.848894 377.891553 
L 342.136364 377.891553 
L 342.136364 377.975963 
L 342.136364 382.28087 
L 333.236842 382.36528 
L 333.236842 382.534099 
L 329.129371 382.534099 
L 329.129371 382.618509 
L 329.129371 382.871739 
L 317.980519 382.956149 
L 317.980519 385.488447 
L 308.318182 385.572857 
L 308.318182 385.657267 
L 299.863636 385.657267 
L 299.863636 385.741677 
L 299.863636 387.261056 
L 285.772727 387.345466 
L 285.772727 389.118075 
L 279.839713 389.202484 
L 279.839713 389.286894 
L 274.5 389.286894 
L 274.5 389.371304 
L 274.5 390.046584 
L 265.27686 390.130994 
L 265.27686 390.637453 
L 257.590909 390.721863 
L 257.590909 390.975093 
L 251.087413 390.975093 
L 251.087413 391.059503 
L 251.087413 391.228323 
L 238.5 391.312733 
L 238.5 391.397143 
L 226.442584 391.481553 
L 226.442584 391.565963 
L 173.045455 391.650373 
L 173.045455 504 
L 173.045455 504 
" style="fill:none;stroke:#8172b3;stroke-linecap:round;stroke-width:2.25;"/>
   </g>
   <g id="line2d_16">
    <path clip-path="url(#p36190b5eb5)" d="M 933.954545 69.12 
L 933.954545 69.45764 
L 849.409091 69.54205 
L 849.409091 76.716894 
L 825.253247 76.801304 
L 825.253247 76.885714 
L 807.136364 76.885714 
L 807.136364 76.970124 
L 807.136364 77.054534 
L 781.772727 77.138944 
L 781.772727 79.586832 
L 760.413876 79.671242 
L 760.413876 79.924472 
L 752.785714 79.924472 
L 752.785714 80.008882 
L 752.785714 80.768571 
L 736.681818 80.852981 
L 736.681818 81.021801 
L 722.590909 81.106211 
L 722.590909 81.275031 
L 719.339161 81.275031 
L 719.339161 81.359441 
L 719.339161 81.697081 
L 716.551948 81.697081 
L 716.551948 81.781491 
L 716.551948 82.03472 
L 714.136364 82.03472 
L 714.136364 82.11913 
L 714.136364 82.20354 
L 710.157754 82.28795 
L 710.157754 82.37236 
L 707.016746 82.37236 
L 707.016746 82.45677 
L 707.016746 82.62559 
L 700.082054 82.71 
L 700.082054 82.79441 
L 698.435065 82.87882 
L 698.435065 82.96323 
L 694.811688 83.04764 
L 694.811688 83.13205 
L 692.690687 83.21646 
L 692.690687 83.30087 
L 680.318182 83.38528 
L 680.318182 168.048447 
L 666.608108 168.132857 
L 666.608108 168.217267 
L 665.824675 168.301677 
L 665.824675 168.386087 
L 664.946281 168.386087 
L 664.946281 168.470497 
L 664.946281 168.554907 
L 663.954545 168.554907 
L 663.954545 168.639317 
L 663.954545 168.723727 
L 660.425134 168.808137 
L 660.425134 168.892547 
L 658.262846 168.976957 
L 658.262846 169.061366 
L 656.162338 169.061366 
L 656.162338 169.145776 
L 656.162338 169.230186 
L 653.619617 169.230186 
L 653.619617 169.314596 
L 653.619617 169.483416 
L 650.47861 169.567826 
L 650.47861 169.652236 
L 645.573474 169.736646 
L 645.573474 169.821056 
L 641.297203 169.905466 
L 641.297203 170.243106 
L 638.045455 170.327516 
L 638.045455 170.496335 
L 634.202479 170.580745 
L 634.202479 171.424845 
L 631.227273 171.509255 
L 631.227273 171.593665 
L 629.590909 171.678075 
L 629.590909 171.846894 
L 623.954545 171.931304 
L 623.954545 174.379193 
L 619.445455 174.463602 
L 619.445455 174.801242 
L 617.777709 174.885652 
L 617.777709 174.970062 
L 616.909091 174.970062 
L 616.909091 175.054472 
L 616.909091 175.392112 
L 614.152174 175.476522 
L 614.152174 175.560932 
L 607.850649 175.645342 
L 607.850649 179.106149 
L 603.458678 179.190559 
L 603.458678 179.274969 
L 600.222488 179.359379 
L 600.222488 180.034658 
L 598.5 180.034658 
L 598.5 180.119068 
L 598.5 180.203478 
L 597.0346 180.203478 
L 597.0346 180.287888 
L 597.0346 180.372298 
L 595.772727 180.456708 
L 595.772727 180.963168 
L 591.343239 181.047578 
L 591.343239 181.131988 
L 590.799465 181.131988 
L 590.799465 181.216398 
L 590.799465 181.300807 
L 588.842772 181.385217 
L 588.842772 181.469627 
L 588.086777 181.469627 
L 588.086777 181.554037 
L 588.086777 181.638447 
L 586.378788 181.722857 
L 586.378788 181.807267 
L 585.204545 181.891677 
L 585.204545 182.060497 
L 578.863636 182.144907 
L 578.863636 196.325776 
L 571.616883 196.325776 
L 571.616883 196.410186 
L 571.616883 196.494596 
L 570.041502 196.579006 
L 570.041502 197.001056 
L 567.590909 197.001056 
L 567.590909 197.085466 
L 567.590909 197.254286 
L 565.772727 197.338696 
L 565.772727 197.338696 
L 565.772727 197.423106 
L 563.255245 197.423106 
L 563.255245 197.507516 
L 563.255245 197.760745 
L 553.5 197.845155 
L 553.5 200.293043 
L 548.80303 200.293043 
L 548.80303 200.377453 
L 548.80303 200.461863 
L 546.825359 200.461863 
L 546.825359 200.546273 
L 546.825359 200.799503 
L 541.971074 200.883913 
L 541.971074 201.728012 
L 538.281818 201.728012 
L 538.281818 201.812422 
L 538.281818 202.318882 
L 536.145933 202.403292 
L 536.145933 202.487702 
L 535.383117 202.487702 
L 535.383117 202.572112 
L 535.383117 203.247391 
L 533.772727 203.331801 
L 533.772727 203.416211 
L 531.518182 203.500621 
L 531.518182 203.585031 
L 531.120321 203.585031 
L 531.120321 203.669441 
L 531.120321 203.753851 
L 528.136364 203.838261 
L 528.136364 204.260311 
L 525.93083 204.34472 
L 525.93083 204.42913 
L 522.888715 204.51354 
L 522.888715 204.68236 
L 522.315201 204.68236 
L 522.315201 204.76677 
L 522.315201 204.85118 
L 519.47561 204.93559 
L 519.47561 205.02 
L 514.678108 205.10441 
L 514.678108 205.18882 
L 511.227273 205.27323 
L 511.227273 262.165528 
L 504.325603 262.249938 
L 504.325603 262.334348 
L 502.087224 262.418758 
L 502.087224 262.503168 
L 499.149351 262.587578 
L 499.149351 262.756398 
L 497.7 262.840807 
L 497.7 263.094037 
L 495.855372 263.178447 
L 495.855372 263.262857 
L 493.42823 263.347267 
L 493.42823 263.769317 
L 488.448187 263.853727 
L 488.448187 263.938137 
L 487.904389 263.938137 
L 487.904389 264.022547 
L 487.904389 264.106957 
L 485.213287 264.106957 
L 485.213287 264.191366 
L 485.213287 265.119876 
L 481.820158 265.204286 
L 481.820158 265.457516 
L 478.798879 265.541925 
L 478.798879 265.626335 
L 477.409091 265.626335 
L 477.409091 265.710745 
L 477.409091 267.061304 
L 473.651515 267.145714 
L 473.651515 267.230124 
L 471.441176 267.314534 
L 471.441176 267.736584 
L 467.590909 267.820994 
L 467.590909 267.989814 
L 465.702797 268.074224 
L 465.702797 268.158634 
L 462.915584 268.158634 
L 462.915584 268.243043 
L 462.915584 272.63236 
L 459.764822 272.71677 
L 459.764822 272.88559 
L 458.386364 272.97 
L 458.386364 273.05441 
L 457.118182 273.05441 
L 457.118182 273.13882 
L 457.118182 273.39205 
L 454.863636 273.39205 
L 454.863636 273.47646 
L 454.863636 273.898509 
L 452.920063 273.982919 
L 452.920063 274.067329 
L 449.739669 274.151739 
L 449.739669 275.333478 
L 447.818182 275.333478 
L 447.818182 275.417888 
L 447.818182 275.502298 
L 446.192308 275.502298 
L 446.192308 275.586708 
L 446.192308 276.008758 
L 444.798701 276.093168 
L 444.798701 276.177578 
L 443.590909 276.177578 
L 443.590909 276.261988 
L 443.590909 276.768447 
L 442.210575 276.852857 
L 442.210575 276.937267 
L 440.772727 277.021677 
L 440.772727 277.106087 
L 440.0311 277.106087 
L 440.0311 277.190497 
L 440.0311 277.359317 
L 438.75974 277.443727 
L 438.75974 277.528137 
L 437.709486 277.528137 
L 437.709486 277.612547 
L 437.709486 277.781366 
L 436.827273 277.781366 
L 436.827273 277.865776 
L 436.827273 277.950186 
L 436.075758 277.950186 
L 436.075758 278.034596 
L 436.075758 278.119006 
L 434.863636 278.119006 
L 434.863636 278.203416 
L 434.863636 278.287826 
L 433.928571 278.372236 
L 433.928571 278.456646 
L 430.98074 278.541056 
L 430.98074 278.625466 
L 426.681818 278.625466 
L 426.681818 278.709876 
L 426.681818 304.708137 
L 423.550505 304.708137 
L 423.550505 304.792547 
L 423.550505 304.876957 
L 421.896226 304.876957 
L 421.896226 304.961366 
L 421.896226 305.045776 
L 421.505566 305.130186 
L 421.505566 305.214596 
L 419.826781 305.299006 
L 419.826781 305.383416 
L 418.995868 305.467826 
L 418.995868 305.636646 
L 417.935737 305.636646 
L 417.935737 305.721056 
L 417.935737 305.805466 
L 416.536364 305.889876 
L 416.536364 306.311925 
L 415.152893 306.396335 
L 415.152893 306.480745 
L 414.603896 306.480745 
L 414.603896 306.565155 
L 414.603896 306.649565 
L 414 306.649565 
L 414 306.733975 
L 413.969144 306.902795 
L 412.847107 306.902795 
L 412.847107 306.987205 
L 412.847107 307.071615 
L 411.762032 307.071615 
L 411.762032 307.156025 
L 411.762032 307.409255 
L 411.025253 307.493665 
L 411.025253 307.578075 
L 410.829545 307.578075 
L 410.829545 307.662484 
L 410.829545 307.746894 
L 409.772727 307.831304 
L 409.772727 307.915714 
L 408.302372 308.000124 
L 408.302372 308.084534 
L 407.171329 308.084534 
L 407.171329 308.168944 
L 407.171329 308.928634 
L 404.941558 309.013043 
L 404.941558 309.097453 
L 403.623967 309.181863 
L 403.623967 309.519503 
L 399.983254 309.603913 
L 399.983254 309.688323 
L 398.5 309.772733 
L 398.5 311.967391 
L 396.082257 312.051801 
L 396.082257 312.136211 
L 393.598814 312.220621 
L 393.598814 312.895901 
L 392.406634 312.980311 
L 392.406634 313.06472 
L 390.448052 313.06472 
L 390.448052 313.14913 
L 390.448052 313.48677 
L 388.636364 313.57118 
L 388.636364 313.65559 
L 386.633971 313.74 
L 386.633971 314.24646 
L 384.409091 314.33087 
L 384.409091 314.668509 
L 382.951411 314.668509 
L 382.951411 314.752919 
L 382.951411 315.090559 
L 381.513699 315.174969 
L 381.513699 315.259379 
L 381.157343 315.343789 
L 381.157343 315.428199 
L 380.095547 315.512609 
L 380.095547 315.597019 
L 378.895257 315.681429 
L 378.895257 315.765839 
L 375.954545 315.850248 
L 375.954545 329.187019 
L 372.486014 329.271429 
L 372.486014 329.355839 
L 371.543478 329.440248 
L 371.543478 329.524658 
L 369.409091 329.609068 
L 369.409091 329.693478 
L 368.15035 329.777888 
L 368.15035 330.199938 
L 366.292208 330.284348 
L 366.292208 330.790807 
L 365.459248 330.875217 
L 365.459248 330.959627 
L 363.272727 331.044037 
L 363.272727 331.381677 
L 360.924242 331.466087 
L 360.924242 331.634907 
L 360.194616 331.719317 
L 360.194616 331.803727 
L 359.935407 331.803727 
L 359.935407 331.888137 
L 359.935407 331.972547 
L 357.508264 332.056957 
L 357.508264 333.407516 
L 355.143357 333.491925 
L 355.143357 333.576335 
L 354.214286 333.576335 
L 354.214286 333.660745 
L 354.214286 333.745155 
L 353.409091 333.829565 
L 353.409091 333.913975 
L 352.082888 333.998385 
L 352.082888 334.336025 
L 350.590909 334.420435 
L 350.590909 334.504845 
L 349.488142 334.504845 
L 349.488142 334.589255 
L 349.488142 334.673665 
L 347.967085 334.673665 
L 347.967085 334.758075 
L 347.967085 334.842484 
L 346.888062 334.926894 
L 346.888062 335.011304 
L 345.734043 335.095714 
L 345.734043 335.180124 
L 342.136364 335.180124 
L 342.136364 335.264534 
L 342.136364 342.692609 
L 339.612619 342.777019 
L 339.612619 342.861429 
L 338.204017 342.945839 
L 338.204017 343.030248 
L 335.372727 343.114658 
L 335.372727 343.367888 
L 329.129371 343.452298 
L 329.129371 344.127578 
L 325.227273 344.127578 
L 325.227273 344.211988 
L 325.227273 344.380807 
L 317.980519 344.465217 
L 317.980519 348.432484 
L 311.392562 348.432484 
L 311.392562 348.516894 
L 311.392562 348.685714 
L 308.318182 348.770124 
L 308.318182 348.938944 
L 306.538278 348.938944 
L 306.538278 349.023354 
L 306.538278 349.192174 
L 305.37747 349.192174 
L 305.37747 349.276584 
L 305.37747 349.360994 
L 299.863636 349.445404 
L 299.863636 351.724472 
L 294.790909 351.808882 
L 294.790909 351.977702 
L 292.403743 351.977702 
L 292.403743 352.062112 
L 292.403743 352.230932 
L 285.772727 352.230932 
L 285.772727 352.315342 
L 285.772727 354.17236 
L 279.839713 354.25677 
L 279.839713 354.42559 
L 274.5 354.51 
L 274.5 355.860559 
L 265.27686 355.944969 
L 265.27686 356.704658 
L 259.389749 356.789068 
L 259.389749 356.873478 
L 257.590909 356.873478 
L 257.590909 356.957888 
L 257.590909 357.042298 
L 251.087413 357.042298 
L 251.087413 357.126708 
L 251.087413 357.379938 
L 245.512987 357.464348 
L 245.512987 357.633168 
L 236.454545 357.717578 
L 236.454545 357.801988 
L 229.409091 357.886398 
L 229.409091 357.886398 
L 229.409091 358.055217 
L 226.442584 358.055217 
L 226.442584 358.139627 
L 226.442584 358.224037 
L 219.161157 358.308447 
L 219.161157 358.392857 
L 205.772727 358.477267 
L 205.772727 358.561677 
L 173.045455 358.561677 
L 173.045455 358.646087 
L 173.045455 504 
L 173.045455 504 
" style="fill:none;stroke:#c44e52;stroke-linecap:round;stroke-width:2.25;"/>
   </g>
   <g id="line2d_17">
    <path clip-path="url(#p36190b5eb5)" d="M 933.954545 69.12 
L 933.954545 69.28882 
L 849.409091 69.28882 
L 849.409091 69.37323 
L 849.409091 74.184596 
L 807.136364 74.269006 
L 807.136364 74.353416 
L 781.772727 74.353416 
L 781.772727 74.437826 
L 781.772727 76.379255 
L 764.863636 76.463665 
L 764.863636 76.548075 
L 760.413876 76.548075 
L 760.413876 76.632484 
L 760.413876 76.716894 
L 752.785714 76.716894 
L 752.785714 76.801304 
L 752.785714 77.476584 
L 736.681818 77.476584 
L 736.681818 77.560994 
L 736.681818 77.645404 
L 726.433884 77.729814 
L 726.433884 77.814224 
L 722.590909 77.814224 
L 722.590909 77.898634 
L 722.590909 77.983043 
L 719.339161 77.983043 
L 719.339161 78.067453 
L 719.339161 78.489503 
L 716.551948 78.489503 
L 716.551948 78.573913 
L 716.551948 78.658323 
L 714.136364 78.658323 
L 714.136364 78.742733 
L 714.136364 78.827143 
L 707.016746 78.911553 
L 707.016746 79.080373 
L 694.811688 79.164783 
L 694.811688 79.249193 
L 680.318182 79.333602 
L 680.318182 158.847764 
L 667.44324 158.932174 
L 667.44324 159.016584 
L 665.824675 159.100994 
L 665.824675 159.185404 
L 663.954545 159.269814 
L 663.954545 159.354224 
L 660.425134 159.438634 
L 660.425134 159.523043 
L 659.181818 159.607453 
L 659.181818 159.691863 
L 658.262846 159.691863 
L 658.262846 159.776273 
L 658.262846 159.860683 
L 656.162338 159.945093 
L 656.162338 160.029503 
L 653.619617 160.029503 
L 653.619617 160.113913 
L 653.619617 160.367143 
L 648.613636 160.451553 
L 648.613636 160.535963 
L 646.5 160.535963 
L 646.5 160.620373 
L 646.5 160.704783 
L 644.084416 160.704783 
L 644.084416 160.789193 
L 644.084416 160.873602 
L 641.297203 160.873602 
L 641.297203 160.958012 
L 641.297203 161.211242 
L 638.045455 161.295652 
L 638.045455 161.548882 
L 635.369965 161.633292 
L 635.369965 161.717702 
L 634.202479 161.717702 
L 634.202479 161.802112 
L 634.202479 162.392981 
L 631.675592 162.477391 
L 631.675592 162.561801 
L 630.585561 162.646211 
L 630.585561 162.730621 
L 629.590909 162.730621 
L 629.590909 162.815031 
L 629.590909 162.983851 
L 624.979339 163.068261 
L 624.979339 163.152671 
L 623.954545 163.152671 
L 623.954545 163.237081 
L 623.954545 165.178509 
L 619.445455 165.178509 
L 619.445455 165.262919 
L 619.445455 165.347329 
L 618.830579 165.347329 
L 618.830579 165.431739 
L 618.830579 165.516149 
L 616.909091 165.600559 
L 616.909091 165.853789 
L 610.901914 165.938199 
L 610.901914 166.022609 
L 607.850649 166.022609 
L 607.850649 166.107019 
L 607.850649 169.483416 
L 603.458678 169.567826 
L 603.458678 169.652236 
L 600.222488 169.736646 
L 600.222488 170.327516 
L 598.5 170.327516 
L 598.5 170.411925 
L 598.5 170.496335 
L 595.772727 170.580745 
L 595.772727 171.087205 
L 593.710643 171.171615 
L 593.710643 171.256025 
L 590.799465 171.256025 
L 590.799465 171.340435 
L 590.799465 171.424845 
L 589.358934 171.509255 
L 589.269231 171.678075 
L 587.14564 171.762484 
L 587.14564 171.846894 
L 586.378788 171.846894 
L 586.378788 171.931304 
L 586.378788 172.015714 
L 585.204545 172.015714 
L 585.204545 172.100124 
L 585.204545 172.184534 
L 581.681818 172.268944 
L 581.681818 172.353354 
L 578.863636 172.353354 
L 578.863636 172.437764 
L 578.863636 186.112174 
L 572.210879 186.196584 
L 572.210879 186.280994 
L 571.616883 186.280994 
L 571.616883 186.365404 
L 571.616883 186.449814 
L 570.041502 186.449814 
L 570.041502 186.534224 
L 570.041502 186.956273 
L 567.590909 187.040683 
L 567.590909 187.293913 
L 565.772727 187.378323 
L 565.772727 187.378323 
L 565.772727 187.462733 
L 563.255245 187.462733 
L 563.255245 187.547143 
L 563.255245 187.631553 
L 555.411832 187.715963 
L 555.411832 187.800373 
L 553.5 187.884783 
L 553.5 190.248261 
L 549.876623 190.332671 
L 549.876623 190.417081 
L 548.80303 190.501491 
L 548.80303 190.670311 
L 546.825359 190.75472 
L 546.825359 191.09236 
L 541.971074 191.09236 
L 541.971074 191.17677 
L 541.971074 192.10528 
L 538.281818 192.10528 
L 538.281818 192.189689 
L 538.281818 192.442919 
L 535.383117 192.442919 
L 535.383117 192.527329 
L 535.383117 193.118199 
L 531.120321 193.202609 
L 531.120321 193.455839 
L 528.136364 193.540248 
L 528.136364 193.877888 
L 526.95666 193.962298 
L 526.95666 194.046708 
L 524.754545 194.131118 
L 524.754545 194.215528 
L 524.234266 194.215528 
L 524.234266 194.299938 
L 524.234266 194.384348 
L 522.888715 194.384348 
L 522.888715 194.468758 
L 522.888715 194.553168 
L 521.795455 194.637578 
L 521.795455 194.721988 
L 516.901464 194.806398 
L 516.901464 194.890807 
L 511.227273 194.890807 
L 511.227273 194.975217 
L 511.227273 252.205155 
L 504.964646 252.289565 
L 504.964646 252.373975 
L 504.325603 252.458385 
L 504.325603 252.542795 
L 499.197987 252.627205 
L 499.149351 252.964845 
L 497.7 252.964845 
L 497.7 253.049255 
L 497.7 253.302484 
L 495.855372 253.386894 
L 495.855372 253.471304 
L 493.42823 253.555714 
L 493.42823 253.977764 
L 485.213287 254.062174 
L 485.213287 254.990683 
L 481.820158 254.990683 
L 481.820158 255.075093 
L 481.820158 255.159503 
L 477.409091 255.243913 
L 477.409091 256.847702 
L 473.651515 256.932112 
L 473.651515 257.016522 
L 471.441176 257.100932 
L 471.441176 257.522981 
L 469.32864 257.607391 
L 469.32864 257.691801 
L 467.590909 257.776211 
L 467.590909 257.860621 
L 464.900996 257.945031 
L 464.900996 258.029441 
L 462.915584 258.029441 
L 462.915584 258.113851 
L 462.915584 262.249938 
L 458.832907 262.334348 
L 458.832907 262.418758 
L 457.830144 262.503168 
L 457.830144 262.587578 
L 457.118182 262.587578 
L 457.118182 262.671988 
L 457.118182 262.925217 
L 454.863636 263.009627 
L 454.863636 263.684907 
L 452.920063 263.684907 
L 452.920063 263.769317 
L 452.920063 263.938137 
L 452.045455 263.938137 
L 452.045455 264.022547 
L 452.045455 264.106957 
L 449.739669 264.106957 
L 449.739669 264.191366 
L 449.739669 265.119876 
L 446.192308 265.204286 
L 446.192308 265.710745 
L 443.590909 265.795155 
L 443.590909 266.132795 
L 440.772727 266.217205 
L 440.772727 266.301615 
L 440.0311 266.301615 
L 440.0311 266.386025 
L 440.0311 266.723665 
L 437.709486 266.808075 
L 437.709486 266.976894 
L 436.827273 266.976894 
L 436.827273 267.061304 
L 436.827273 267.145714 
L 436.075758 267.145714 
L 436.075758 267.230124 
L 436.075758 267.314534 
L 434.863636 267.314534 
L 434.863636 267.398944 
L 434.863636 267.483354 
L 433.928571 267.567764 
L 433.928571 267.652174 
L 432.868071 267.736584 
L 432.868071 267.820994 
L 432.078337 267.820994 
L 432.078337 267.905404 
L 432.078337 268.074224 
L 426.681818 268.158634 
L 426.681818 294.578944 
L 421.896226 294.663354 
L 421.896226 294.747764 
L 418.995868 294.832174 
L 418.995868 295.000994 
L 417.287879 295.085404 
L 417.287879 295.169814 
L 416.536364 295.254224 
L 416.536364 295.507453 
L 415.65415 295.507453 
L 415.65415 295.591863 
L 415.65415 295.676273 
L 414.603896 295.760683 
L 414.603896 296.013913 
L 413.674825 296.098323 
L 413.674825 296.182733 
L 412.693548 296.267143 
L 412.693548 296.351553 
L 411.762032 296.351553 
L 411.762032 296.435963 
L 411.762032 296.858012 
L 411.025253 296.942422 
L 411.025253 297.026832 
L 410.686732 297.111242 
L 410.686732 297.195652 
L 409.772727 297.195652 
L 409.772727 297.280062 
L 409.772727 297.364472 
L 407.171329 297.448882 
L 407.171329 298.630621 
L 404.941558 298.715031 
L 404.941558 298.799441 
L 403.854545 298.883851 
L 403.854545 298.968261 
L 403.623967 298.968261 
L 403.623967 299.052671 
L 403.601526 299.47472 
L 402.136364 299.55913 
L 402.136364 299.64354 
L 400.800557 299.72795 
L 400.800557 299.81236 
L 398.5 299.81236 
L 398.5 299.89677 
L 398.5 302.429068 
L 394.612853 302.513478 
L 394.612853 302.597888 
L 393.598814 302.682298 
L 393.598814 303.357578 
L 392.406634 303.441988 
L 392.406634 303.526398 
L 390.448052 303.610807 
L 390.448052 303.948447 
L 386.633971 304.032857 
L 386.562393 304.370497 
L 384.409091 304.454907 
L 384.409091 304.708137 
L 384.125381 304.792547 
L 384.125381 304.876957 
L 382.951411 304.961366 
L 382.951411 305.383416 
L 381.157343 305.467826 
L 381.157343 305.552236 
L 379.393683 305.636646 
L 379.393683 305.721056 
L 375.954545 305.805466 
L 375.954545 319.986335 
L 372.880165 320.070745 
L 372.880165 320.155155 
L 371.543478 320.239565 
L 371.543478 320.323975 
L 369.409091 320.408385 
L 369.409091 320.492795 
L 368.834928 320.577205 
L 368.834928 320.661615 
L 368.15035 320.661615 
L 368.15035 320.746025 
L 368.15035 320.914845 
L 367.320116 320.914845 
L 367.320116 320.999255 
L 367.320116 321.083665 
L 366.292208 321.083665 
L 366.292208 321.168075 
L 366.292208 321.590124 
L 365.27512 321.674534 
L 365.27512 321.758944 
L 363.272727 321.843354 
L 363.272727 322.012174 
L 361.227273 322.096584 
L 361.227273 322.180994 
L 360.346154 322.265404 
L 360.346154 322.349814 
L 359.935407 322.434224 
L 359.935407 322.603043 
L 359.390538 322.603043 
L 359.390538 322.687453 
L 359.390538 322.771863 
L 357.508264 322.771863 
L 357.508264 322.856273 
L 357.508264 324.206832 
L 354.214286 324.206832 
L 354.214286 324.291242 
L 354.214286 324.460062 
L 353.409091 324.460062 
L 353.409091 324.544472 
L 353.409091 324.628882 
L 352.082888 324.628882 
L 352.082888 324.713292 
L 352.082888 324.966522 
L 350.590909 325.050932 
L 350.590909 325.135342 
L 349.488142 325.135342 
L 349.488142 325.219752 
L 349.488142 325.472981 
L 347.967085 325.557391 
L 347.967085 325.810621 
L 345.587199 325.895031 
L 345.539304 326.063851 
L 342.136364 326.148261 
L 342.136364 333.491925 
L 339.82005 333.576335 
L 339.82005 333.660745 
L 339.364382 333.745155 
L 339.364382 333.829565 
L 338.543616 333.913975 
L 338.543616 333.998385 
L 335.372727 334.082795 
L 335.372727 334.336025 
L 333.236842 334.420435 
L 333.236842 334.504845 
L 331.568182 334.589255 
L 331.568182 334.673665 
L 329.129371 334.673665 
L 329.129371 334.758075 
L 329.129371 335.517764 
L 327.432806 335.602174 
L 327.432806 335.686584 
L 325.227273 335.686584 
L 325.227273 335.770994 
L 325.227273 335.939814 
L 324.147969 335.939814 
L 324.147969 336.024224 
L 324.147969 336.108634 
L 317.980519 336.193043 
L 317.980519 340.32913 
L 311.392562 340.41354 
L 311.392562 340.66677 
L 308.318182 340.66677 
L 308.318182 340.75118 
L 308.318182 340.83559 
L 306.538278 340.83559 
L 306.538278 340.92 
L 306.538278 341.08882 
L 305.37747 341.08882 
L 305.37747 341.17323 
L 305.37747 341.34205 
L 299.863636 341.42646 
L 299.863636 344.043168 
L 294.790909 344.043168 
L 294.790909 344.127578 
L 294.790909 344.211988 
L 292.403743 344.211988 
L 292.403743 344.296398 
L 292.403743 344.465217 
L 285.772727 344.465217 
L 285.772727 344.549627 
L 285.772727 346.406646 
L 279.839713 346.491056 
L 279.839713 346.744286 
L 277.101399 346.828696 
L 277.101399 346.913106 
L 274.5 346.913106 
L 274.5 346.997516 
L 274.5 348.094845 
L 268.75729 348.179255 
L 268.75729 348.263665 
L 265.27686 348.263665 
L 265.27686 348.348075 
L 265.27686 348.938944 
L 259.389749 349.023354 
L 259.389749 349.107764 
L 257.590909 349.107764 
L 257.590909 349.192174 
L 257.590909 349.445404 
L 251.087413 349.445404 
L 251.087413 349.529814 
L 251.087413 349.783043 
L 245.512987 349.867453 
L 245.512987 350.036273 
L 240.681818 350.120683 
L 240.681818 350.289503 
L 236.454545 350.289503 
L 236.454545 350.373913 
L 236.454545 350.458323 
L 229.409091 350.542733 
L 229.409091 350.542733 
L 229.409091 350.711553 
L 226.442584 350.795963 
L 226.442584 350.880373 
L 219.161157 350.964783 
L 219.161157 351.049193 
L 215.318182 351.133602 
L 215.318182 351.218012 
L 173.045455 351.302422 
L 173.045455 504 
L 173.045455 504 
" style="fill:none;stroke:#55a868;stroke-linecap:round;stroke-width:2.25;"/>
   </g>
   <g id="line2d_18">
    <path clip-path="url(#p36190b5eb5)" d="M 849.409091 69.12 
L 849.409091 70.217329 
L 781.772727 70.217329 
L 781.772727 70.301739 
L 781.772727 70.470559 
L 710.157754 70.554969 
L 710.157754 70.639379 
L 680.318182 70.639379 
L 680.318182 70.723789 
L 680.318182 130.401615 
L 664.946281 130.486025 
L 664.946281 130.570435 
L 660.027273 130.570435 
L 660.027273 130.654845 
L 660.027273 130.739255 
L 653.619617 130.739255 
L 653.619617 130.823665 
L 653.619617 131.161304 
L 650.47861 131.245714 
L 650.47861 131.330124 
L 644.084416 131.414534 
L 644.084416 131.667764 
L 639.187961 131.752174 
L 639.187961 131.836584 
L 638.045455 131.836584 
L 638.045455 131.920994 
L 638.045455 132.005404 
L 634.202479 132.005404 
L 634.202479 132.089814 
L 634.202479 132.427453 
L 627.841693 132.511863 
L 627.841693 132.596273 
L 623.954545 132.680683 
L 623.954545 133.440373 
L 616.909091 133.524783 
L 616.909091 133.524783 
L 616.909091 133.609193 
L 607.850649 133.693602 
L 607.850649 136.057081 
L 600.222488 136.141491 
L 600.222488 136.310311 
L 595.772727 136.39472 
L 595.772727 136.73236 
L 588.086777 136.81677 
L 588.086777 136.98559 
L 585.204545 137.07 
L 585.204545 137.15441 
L 578.863636 137.23882 
L 578.863636 148.043292 
L 571.616883 148.043292 
L 571.616883 148.127702 
L 571.616883 148.212112 
L 570.041502 148.212112 
L 570.041502 148.296522 
L 570.041502 148.380932 
L 567.590909 148.465342 
L 567.590909 148.718571 
L 565.772727 148.802981 
L 565.772727 148.802981 
L 565.772727 148.971801 
L 563.255245 148.971801 
L 563.255245 149.056211 
L 563.255245 149.478261 
L 560.959893 149.478261 
L 560.959893 149.562671 
L 560.959893 149.647081 
L 557.342975 149.731491 
L 557.342975 149.815901 
L 553.5 149.815901 
L 553.5 149.900311 
L 553.5 151.672919 
L 548.80303 151.757329 
L 548.80303 152.010559 
L 546.825359 152.010559 
L 546.825359 152.094969 
L 546.825359 152.432609 
L 541.971074 152.432609 
L 541.971074 152.517019 
L 541.971074 153.023478 
L 538.281818 153.023478 
L 538.281818 153.107888 
L 538.281818 153.276708 
L 536.464722 153.361118 
L 536.464722 153.445528 
L 535.383117 153.445528 
L 535.383117 153.529938 
L 535.383117 153.867578 
L 533.045455 153.951988 
L 533.045455 154.036398 
L 531.120321 154.120807 
L 531.120321 154.458447 
L 528.136364 154.458447 
L 528.136364 154.542857 
L 528.136364 154.711677 
L 525.93083 154.711677 
L 525.93083 154.796087 
L 525.93083 155.049317 
L 523.524793 155.133727 
L 523.524793 155.218137 
L 521.322252 155.302547 
L 521.322252 155.386957 
L 520.126794 155.471366 
L 520.126794 155.555776 
L 512.767964 155.640186 
L 512.767964 155.724596 
L 511.227273 155.724596 
L 511.227273 155.809006 
L 511.227273 206.117329 
L 506.396104 206.201739 
L 506.396104 206.286149 
L 499.763482 206.370559 
L 499.763482 206.454969 
L 495.855372 206.539379 
L 495.855372 206.792609 
L 493.42823 206.792609 
L 493.42823 206.877019 
L 493.42823 207.299068 
L 490.090909 207.383478 
L 490.090909 207.636708 
L 487.194047 207.721118 
L 487.194047 207.805528 
L 487.071429 207.805528 
L 487.071429 207.889938 
L 487.071429 207.974348 
L 485.213287 207.974348 
L 485.213287 208.058758 
L 485.213287 208.480807 
L 481.820158 208.480807 
L 481.820158 208.565217 
L 481.820158 208.734037 
L 477.755352 208.818447 
L 477.755352 208.902857 
L 477.409091 208.902857 
L 477.409091 208.987267 
L 477.409091 210.169006 
L 473.651515 210.253416 
L 473.651515 210.337826 
L 471.441176 210.337826 
L 471.441176 210.422236 
L 471.441176 210.506646 
L 467.590909 210.591056 
L 467.590909 210.675466 
L 462.915584 210.759876 
L 462.915584 214.558323 
L 457.118182 214.558323 
L 457.118182 214.642733 
L 457.118182 214.727143 
L 454.863636 214.811553 
L 454.863636 215.064783 
L 452.920063 215.149193 
L 452.920063 215.233602 
L 449.739669 215.318012 
L 449.739669 216.330932 
L 445.240576 216.330932 
L 445.240576 216.415342 
L 445.240576 216.499752 
L 443.590909 216.499752 
L 443.590909 216.584161 
L 443.590909 216.921801 
L 441.038593 217.006211 
L 441.038593 217.090621 
L 440.0311 217.090621 
L 440.0311 217.175031 
L 440.0311 217.428261 
L 436.827273 217.512671 
L 436.827273 217.765901 
L 435.193106 217.850311 
L 435.193106 217.93472 
L 433.185315 218.01913 
L 433.185315 218.18795 
L 432.446281 218.27236 
L 432.446281 218.35677 
L 426.681818 218.35677 
L 426.681818 218.44118 
L 426.681818 242.413602 
L 421.505566 242.498012 
L 421.505566 242.666832 
L 418.995868 242.666832 
L 418.995868 242.751242 
L 418.995868 242.920062 
L 417.935737 243.004472 
L 417.935737 243.088882 
L 416.536364 243.088882 
L 416.536364 243.173292 
L 416.536364 243.426522 
L 415.294063 243.510932 
L 415.294063 243.595342 
L 412.847107 243.679752 
L 412.847107 243.764161 
L 411.762032 243.848571 
L 411.762032 244.017391 
L 409.772727 244.101801 
L 409.772727 244.270621 
L 407.171329 244.355031 
L 407.171329 245.11472 
L 404.941558 245.19913 
L 404.941558 245.28354 
L 403.623967 245.36795 
L 403.623967 245.53677 
L 402.753859 245.53677 
L 402.753859 245.62118 
L 402.753859 245.70559 
L 402.136364 245.70559 
L 402.136364 245.79 
L 402.136364 245.95882 
L 399.105247 246.04323 
L 399.105247 246.12764 
L 398.5 246.12764 
L 398.5 246.21205 
L 398.5 248.659938 
L 396.245455 248.744348 
L 396.245455 248.828758 
L 395.411582 248.913168 
L 395.411582 248.997578 
L 393.598814 249.081988 
L 393.598814 249.419627 
L 392.406634 249.419627 
L 392.406634 249.504037 
L 392.406634 249.588447 
L 390.448052 249.588447 
L 390.448052 249.672857 
L 390.448052 250.094907 
L 388.90619 250.179317 
L 388.90619 250.263727 
L 386.633971 250.348137 
L 386.633971 250.685776 
L 384.409091 250.770186 
L 384.409091 251.023416 
L 382.951411 251.107826 
L 382.951411 251.276646 
L 380.566116 251.361056 
L 380.566116 251.445466 
L 375.954545 251.529876 
L 375.954545 267.820994 
L 372.331169 267.905404 
L 372.331169 267.989814 
L 369.409091 268.074224 
L 369.409091 268.243043 
L 368.15035 268.243043 
L 368.15035 268.327453 
L 368.15035 268.833913 
L 367.320116 268.918323 
L 367.320116 269.002733 
L 366.292208 269.087143 
L 366.292208 269.424783 
L 363.272727 269.509193 
L 363.272727 270.100062 
L 360.924242 270.100062 
L 360.924242 270.184472 
L 360.924242 270.690932 
L 357.508264 270.775342 
L 357.508264 272.125901 
L 354.214286 272.210311 
L 354.214286 272.54795 
L 352.082888 272.63236 
L 352.082888 273.22323 
L 350.590909 273.30764 
L 350.590909 273.47646 
L 350.080232 273.56087 
L 350.080232 273.64528 
L 349.488142 273.64528 
L 349.488142 273.729689 
L 349.488142 273.982919 
L 347.967085 274.067329 
L 347.967085 274.320559 
L 346.33278 274.404969 
L 346.33278 274.489379 
L 345.326758 274.573789 
L 345.326758 274.658199 
L 343.632743 274.742609 
L 343.632743 274.827019 
L 342.136364 274.911429 
L 342.136364 283.436832 
L 339.995972 283.521242 
L 339.995972 283.605652 
L 338.685529 283.605652 
L 338.685529 283.690062 
L 338.631889 283.943292 
L 337.566339 284.027702 
L 337.566339 284.112112 
L 335.372727 284.196522 
L 335.372727 284.618571 
L 333.236842 284.702981 
L 333.236842 285.293851 
L 331.568182 285.378261 
L 331.568182 285.631491 
L 329.129371 285.631491 
L 329.129371 285.715901 
L 329.129371 287.23528 
L 327.432806 287.319689 
L 327.432806 287.404099 
L 325.227273 287.488509 
L 325.227273 288.163789 
L 324.470149 288.248199 
L 324.470149 288.332609 
L 324.147969 288.332609 
L 324.147969 288.417019 
L 324.078111 288.585839 
L 322.243316 288.670248 
L 322.243316 288.754658 
L 321.515521 288.839068 
L 321.515521 288.923478 
L 320.732451 289.007888 
L 320.732451 289.092298 
L 317.980519 289.176708 
L 317.980519 294.747764 
L 312.982759 294.832174 
L 312.982759 295.169814 
L 311.392562 295.254224 
L 311.392562 295.254224 
L 311.392562 295.760683 
L 309.249491 295.845093 
L 309.249491 295.929503 
L 308.318182 295.929503 
L 308.318182 296.013913 
L 308.318182 296.773602 
L 306.112138 296.858012 
L 306.100596 297.026832 
L 305.37747 297.026832 
L 305.37747 297.111242 
L 305.37747 297.702112 
L 304.84965 297.786522 
L 304.84965 297.870932 
L 304.560606 297.870932 
L 304.560606 297.955342 
L 304.560606 298.039752 
L 302.561896 298.124161 
L 302.561896 298.377391 
L 299.863636 298.461801 
L 299.863636 301.838199 
L 296.77051 301.922609 
L 296.77051 302.007019 
L 294.790909 302.091429 
L 294.790909 302.513478 
L 292.403743 302.597888 
L 292.403743 302.935528 
L 290.108392 302.935528 
L 290.108392 303.019938 
L 290.108392 303.357578 
L 288.334711 303.441988 
L 288.334711 303.610807 
L 285.772727 303.610807 
L 285.772727 303.695217 
L 285.772727 306.396335 
L 283.322134 306.480745 
L 283.322134 306.649565 
L 281.746753 306.733975 
L 281.746753 306.902795 
L 279.839713 306.902795 
L 279.839713 306.987205 
L 279.839713 307.324845 
L 277.998433 307.324845 
L 277.998433 307.409255 
L 277.998433 307.578075 
L 276.570501 307.662484 
L 276.570501 307.831304 
L 274.5 307.915714 
L 274.5 310.279193 
L 272.510695 310.279193 
L 272.510695 310.363602 
L 272.510695 310.448012 
L 269.668831 310.448012 
L 269.668831 310.532422 
L 269.668831 310.701242 
L 266.984848 310.785652 
L 266.984848 310.870062 
L 265.27686 310.870062 
L 265.27686 310.954472 
L 265.27686 312.136211 
L 262.04067 312.220621 
L 262.04067 312.389441 
L 260.006494 312.473851 
L 260.006494 312.558261 
L 257.590909 312.558261 
L 257.590909 312.642671 
L 257.590909 312.980311 
L 253.141148 312.980311 
L 253.141148 313.06472 
L 253.141148 313.14913 
L 251.087413 313.14913 
L 251.087413 313.23354 
L 251.087413 314.07764 
L 245.512987 314.16205 
L 245.512987 314.24646 
L 236.454545 314.33087 
L 236.454545 314.668509 
L 229.409091 314.752919 
L 229.409091 315.174969 
L 226.442584 315.259379 
L 226.442584 315.428199 
L 223.772727 315.428199 
L 223.772727 315.512609 
L 223.772727 315.597019 
L 219.161157 315.681429 
L 219.161157 315.850248 
L 217.156126 315.850248 
L 217.156126 315.934658 
L 217.156126 316.103478 
L 215.318182 316.187888 
L 215.318182 316.272298 
L 210.621212 316.356708 
L 210.621212 316.441118 
L 206.863636 316.525528 
L 206.863636 316.609938 
L 173.045455 316.694348 
L 173.045455 504 
L 173.045455 504 
" style="fill:none;stroke:#dd8452;stroke-linecap:round;stroke-width:2.25;"/>
   </g>
   <g id="line2d_19">
    <path clip-path="url(#p36190b5eb5)" d="M 680.318182 69.12 
L 680.318182 70.639379 
L 511.227273 70.639379 
L 511.227273 70.723789 
L 511.227273 71.061429 
L 426.681818 71.061429 
L 426.681818 71.145839 
L 426.681818 71.230248 
L 375.954545 71.230248 
L 375.954545 71.314658 
L 375.954545 71.483478 
L 292.403743 71.567888 
L 292.403743 71.652298 
L 223.772727 71.736708 
L 223.772727 71.821118 
L 201.227273 71.905528 
L 201.227273 71.989938 
L 195.590909 72.074348 
L 195.590909 72.158758 
L 191.491736 72.243168 
L 191.491736 72.327578 
L 189.677347 72.411988 
L 189.677347 72.496398 
L 184.57438 72.580807 
L 184.57438 72.665217 
L 179.466628 72.749627 
L 179.466628 72.834037 
L 175.673811 72.918447 
L 175.581818 73.087267 
L 175.095041 73.171677 
L 175.020239 73.340497 
L 174.407261 73.424907 
L 174.389223 73.593727 
L 173.045455 73.593727 
L 173.045455 73.678137 
L 173.045455 504 
L 173.045455 504 
" style="fill:none;stroke:#4c72b0;stroke-linecap:round;stroke-width:2.25;"/>
   </g>
   <g id="line2d_20">
    <path clip-path="url(#p36190b5eb5)" d="M 223.772727 504 
L 223.772727 69.12 
" style="fill:none;stroke:#ff0000;stroke-dasharray:11.1,4.8;stroke-dashoffset:0;stroke-width:3;"/>
   </g>
   <g id="patch_3">
    <path d="M 135 504 
L 135 69.12 
" style="fill:none;stroke:#cccccc;stroke-linecap:square;stroke-linejoin:miter;stroke-width:1.875;"/>
   </g>
   <g id="patch_4">
    <path d="M 972 504 
L 972 69.12 
" style="fill:none;stroke:#cccccc;stroke-linecap:square;stroke-linejoin:miter;stroke-width:1.875;"/>
   </g>
   <g id="patch_5">
    <path d="M 135 504 
L 972 504 
" style="fill:none;stroke:#cccccc;stroke-linecap:square;stroke-linejoin:miter;stroke-width:1.875;"/>
   </g>
   <g id="patch_6">
    <path d="M 135 69.12 
L 972 69.12 
" style="fill:none;stroke:#cccccc;stroke-linecap:square;stroke-linejoin:miter;stroke-width:1.875;"/>
   </g>
   <g id="text_17">
    <!-- CDF logical job name distribution - logical job name size &gt; 1 -->
    <g style="fill:#262626;" transform="translate(281.534063 63.12)scale(0.18 -0.18)">
     <defs>
      <path d="M 64.40625 67.28125 
L 64.40625 56.890625 
Q 59.421875 61.53125 53.78125 63.8125 
Q 48.140625 66.109375 41.796875 66.109375 
Q 29.296875 66.109375 22.65625 58.46875 
Q 16.015625 50.828125 16.015625 36.375 
Q 16.015625 21.96875 22.65625 14.328125 
Q 29.296875 6.6875 41.796875 6.6875 
Q 48.140625 6.6875 53.78125 8.984375 
Q 59.421875 11.28125 64.40625 15.921875 
L 64.40625 5.609375 
Q 59.234375 2.09375 53.4375 0.328125 
Q 47.65625 -1.421875 41.21875 -1.421875 
Q 24.65625 -1.421875 15.125 8.703125 
Q 5.609375 18.84375 5.609375 36.375 
Q 5.609375 53.953125 15.125 64.078125 
Q 24.65625 74.21875 41.21875 74.21875 
Q 47.75 74.21875 53.53125 72.484375 
Q 59.328125 70.75 64.40625 67.28125 
z
" id="DejaVuSans-67"/>
      <path d="M 19.671875 64.796875 
L 19.671875 8.109375 
L 31.59375 8.109375 
Q 46.6875 8.109375 53.6875 14.9375 
Q 60.6875 21.78125 60.6875 36.53125 
Q 60.6875 51.171875 53.6875 57.984375 
Q 46.6875 64.796875 31.59375 64.796875 
z
M 9.8125 72.90625 
L 30.078125 72.90625 
Q 51.265625 72.90625 61.171875 64.09375 
Q 71.09375 55.28125 71.09375 36.53125 
Q 71.09375 17.671875 61.125 8.828125 
Q 51.171875 0 30.078125 0 
L 9.8125 0 
z
" id="DejaVuSans-68"/>
      <path d="M 45.40625 46.390625 
L 45.40625 75.984375 
L 54.390625 75.984375 
L 54.390625 0 
L 45.40625 0 
L 45.40625 8.203125 
Q 42.578125 3.328125 38.25 0.953125 
Q 33.9375 -1.421875 27.875 -1.421875 
Q 17.96875 -1.421875 11.734375 6.484375 
Q 5.515625 14.40625 5.515625 27.296875 
Q 5.515625 40.1875 11.734375 48.09375 
Q 17.96875 56 27.875 56 
Q 33.9375 56 38.25 53.625 
Q 42.578125 51.265625 45.40625 46.390625 
z
M 14.796875 27.296875 
Q 14.796875 17.390625 18.875 11.75 
Q 22.953125 6.109375 30.078125 6.109375 
Q 37.203125 6.109375 41.296875 11.75 
Q 45.40625 17.390625 45.40625 27.296875 
Q 45.40625 37.203125 41.296875 42.84375 
Q 37.203125 48.484375 30.078125 48.484375 
Q 22.953125 48.484375 18.875 42.84375 
Q 14.796875 37.203125 14.796875 27.296875 
z
" id="DejaVuSans-100"/>
      <path d="M 4.890625 31.390625 
L 31.203125 31.390625 
L 31.203125 23.390625 
L 4.890625 23.390625 
z
" id="DejaVuSans-45"/>
      <path d="M 5.515625 54.6875 
L 48.1875 54.6875 
L 48.1875 46.484375 
L 14.40625 7.171875 
L 48.1875 7.171875 
L 48.1875 0 
L 4.296875 0 
L 4.296875 8.203125 
L 38.09375 47.515625 
L 5.515625 47.515625 
z
" id="DejaVuSans-122"/>
      <path d="M 10.59375 49.21875 
L 10.59375 58.109375 
L 73.1875 35.40625 
L 73.1875 27.296875 
L 10.59375 4.59375 
L 10.59375 13.484375 
L 60.890625 31.296875 
z
" id="DejaVuSans-62"/>
     </defs>
     <use xlink:href="#DejaVuSans-67"/>
     <use x="69.824219" xlink:href="#DejaVuSans-68"/>
     <use x="146.826172" xlink:href="#DejaVuSans-70"/>
     <use x="204.345703" xlink:href="#DejaVuSans-32"/>
     <use x="236.132812" xlink:href="#DejaVuSans-108"/>
     <use x="263.916016" xlink:href="#DejaVuSans-111"/>
     <use x="325.097656" xlink:href="#DejaVuSans-103"/>
     <use x="388.574219" xlink:href="#DejaVuSans-105"/>
     <use x="416.357422" xlink:href="#DejaVuSans-99"/>
     <use x="471.337891" xlink:href="#DejaVuSans-97"/>
     <use x="532.617188" xlink:href="#DejaVuSans-108"/>
     <use x="560.400391" xlink:href="#DejaVuSans-32"/>
     <use x="592.1875" xlink:href="#DejaVuSans-106"/>
     <use x="619.970703" xlink:href="#DejaVuSans-111"/>
     <use x="681.152344" xlink:href="#DejaVuSans-98"/>
     <use x="744.628906" xlink:href="#DejaVuSans-32"/>
     <use x="776.416016" xlink:href="#DejaVuSans-110"/>
     <use x="839.794922" xlink:href="#DejaVuSans-97"/>
     <use x="901.074219" xlink:href="#DejaVuSans-109"/>
     <use x="998.486328" xlink:href="#DejaVuSans-101"/>
     <use x="1060.009766" xlink:href="#DejaVuSans-32"/>
     <use x="1091.796875" xlink:href="#DejaVuSans-100"/>
     <use x="1155.273438" xlink:href="#DejaVuSans-105"/>
     <use x="1183.056641" xlink:href="#DejaVuSans-115"/>
     <use x="1235.15625" xlink:href="#DejaVuSans-116"/>
     <use x="1274.365234" xlink:href="#DejaVuSans-114"/>
     <use x="1315.478516" xlink:href="#DejaVuSans-105"/>
     <use x="1343.261719" xlink:href="#DejaVuSans-98"/>
     <use x="1406.738281" xlink:href="#DejaVuSans-117"/>
     <use x="1470.117188" xlink:href="#DejaVuSans-116"/>
     <use x="1509.326172" xlink:href="#DejaVuSans-105"/>
     <use x="1537.109375" xlink:href="#DejaVuSans-111"/>
     <use x="1598.291016" xlink:href="#DejaVuSans-110"/>
     <use x="1661.669922" xlink:href="#DejaVuSans-32"/>
     <use x="1693.457031" xlink:href="#DejaVuSans-45"/>
     <use x="1729.541016" xlink:href="#DejaVuSans-32"/>
     <use x="1761.328125" xlink:href="#DejaVuSans-108"/>
     <use x="1789.111328" xlink:href="#DejaVuSans-111"/>
     <use x="1850.292969" xlink:href="#DejaVuSans-103"/>
     <use x="1913.769531" xlink:href="#DejaVuSans-105"/>
     <use x="1941.552734" xlink:href="#DejaVuSans-99"/>
     <use x="1996.533203" xlink:href="#DejaVuSans-97"/>
     <use x="2057.8125" xlink:href="#DejaVuSans-108"/>
     <use x="2085.595703" xlink:href="#DejaVuSans-32"/>
     <use x="2117.382812" xlink:href="#DejaVuSans-106"/>
     <use x="2145.166016" xlink:href="#DejaVuSans-111"/>
     <use x="2206.347656" xlink:href="#DejaVuSans-98"/>
     <use x="2269.824219" xlink:href="#DejaVuSans-32"/>
     <use x="2301.611328" xlink:href="#DejaVuSans-110"/>
     <use x="2364.990234" xlink:href="#DejaVuSans-97"/>
     <use x="2426.269531" xlink:href="#DejaVuSans-109"/>
     <use x="2523.681641" xlink:href="#DejaVuSans-101"/>
     <use x="2585.205078" xlink:href="#DejaVuSans-32"/>
     <use x="2616.992188" xlink:href="#DejaVuSans-115"/>
     <use x="2669.091797" xlink:href="#DejaVuSans-105"/>
     <use x="2696.875" xlink:href="#DejaVuSans-122"/>
     <use x="2749.365234" xlink:href="#DejaVuSans-101"/>
     <use x="2810.888672" xlink:href="#DejaVuSans-32"/>
     <use x="2842.675781" xlink:href="#DejaVuSans-62"/>
     <use x="2926.464844" xlink:href="#DejaVuSans-32"/>
     <use x="2958.251953" xlink:href="#DejaVuSans-49"/>
    </g>
   </g>
   <g id="legend_1">
    <g id="patch_7">
     <path d="M 849.846563 495.75 
L 960.45 495.75 
Q 963.75 495.75 963.75 492.45 
L 963.75 347.334844 
Q 963.75 344.034844 960.45 344.034844 
L 849.846563 344.034844 
Q 846.546563 344.034844 846.546563 347.334844 
L 846.546563 492.45 
Q 846.546563 495.75 849.846563 495.75 
z
" style="fill:#ffffff;opacity:0.8;stroke:#cccccc;stroke-linejoin:miter;stroke-width:1.5;"/>
    </g>
    <g id="text_18">
     <!-- Experiment -->
     <g style="fill:#262626;" transform="translate(853.146563 364.312031)scale(0.18 -0.18)">
      <defs>
       <path d="M 9.8125 72.90625 
L 55.90625 72.90625 
L 55.90625 64.59375 
L 19.671875 64.59375 
L 19.671875 43.015625 
L 54.390625 43.015625 
L 54.390625 34.71875 
L 19.671875 34.71875 
L 19.671875 8.296875 
L 56.78125 8.296875 
L 56.78125 0 
L 9.8125 0 
z
" id="DejaVuSans-69"/>
       <path d="M 54.890625 54.6875 
L 35.109375 28.078125 
L 55.90625 0 
L 45.3125 0 
L 29.390625 21.484375 
L 13.484375 0 
L 2.875 0 
L 24.125 28.609375 
L 4.6875 54.6875 
L 15.28125 54.6875 
L 29.78125 35.203125 
L 44.28125 54.6875 
z
" id="DejaVuSans-120"/>
      </defs>
      <use xlink:href="#DejaVuSans-69"/>
      <use x="63.183594" xlink:href="#DejaVuSans-120"/>
      <use x="122.363281" xlink:href="#DejaVuSans-112"/>
      <use x="185.839844" xlink:href="#DejaVuSans-101"/>
      <use x="247.363281" xlink:href="#DejaVuSans-114"/>
      <use x="288.476562" xlink:href="#DejaVuSans-105"/>
      <use x="316.259766" xlink:href="#DejaVuSans-109"/>
      <use x="413.671875" xlink:href="#DejaVuSans-101"/>
      <use x="475.195312" xlink:href="#DejaVuSans-110"/>
      <use x="538.574219" xlink:href="#DejaVuSans-116"/>
     </g>
    </g>
    <g id="line2d_21">
     <path d="M 854.615742 383.067891 
L 887.615742 383.067891 
" style="fill:none;stroke:#8172b3;stroke-linecap:round;stroke-width:2.25;"/>
    </g>
    <g id="line2d_22"/>
    <g id="text_19">
     <!-- k = 10 -->
     <g style="fill:#262626;" transform="translate(900.815742 388.842891)scale(0.165 -0.165)">
      <defs>
       <path d="M 9.078125 75.984375 
L 18.109375 75.984375 
L 18.109375 31.109375 
L 44.921875 54.6875 
L 56.390625 54.6875 
L 27.390625 29.109375 
L 57.625 0 
L 45.90625 0 
L 18.109375 26.703125 
L 18.109375 0 
L 9.078125 0 
z
" id="DejaVuSans-107"/>
       <path d="M 10.59375 45.40625 
L 73.1875 45.40625 
L 73.1875 37.203125 
L 10.59375 37.203125 
z
M 10.59375 25.484375 
L 73.1875 25.484375 
L 73.1875 17.1875 
L 10.59375 17.1875 
z
" id="DejaVuSans-61"/>
      </defs>
      <use xlink:href="#DejaVuSans-107"/>
      <use x="57.910156" xlink:href="#DejaVuSans-32"/>
      <use x="89.697266" xlink:href="#DejaVuSans-61"/>
      <use x="173.486328" xlink:href="#DejaVuSans-32"/>
      <use x="205.273438" xlink:href="#DejaVuSans-49"/>
      <use x="268.896484" xlink:href="#DejaVuSans-48"/>
     </g>
    </g>
    <g id="line2d_23">
     <path d="M 854.615742 407.286797 
L 887.615742 407.286797 
" style="fill:none;stroke:#c44e52;stroke-linecap:round;stroke-width:2.25;"/>
    </g>
    <g id="line2d_24"/>
    <g id="text_20">
     <!-- k = 8 -->
     <g style="fill:#262626;" transform="translate(900.815742 413.061797)scale(0.165 -0.165)">
      <use xlink:href="#DejaVuSans-107"/>
      <use x="57.910156" xlink:href="#DejaVuSans-32"/>
      <use x="89.697266" xlink:href="#DejaVuSans-61"/>
      <use x="173.486328" xlink:href="#DejaVuSans-32"/>
      <use x="205.273438" xlink:href="#DejaVuSans-56"/>
     </g>
    </g>
    <g id="line2d_25">
     <path d="M 854.615742 431.505703 
L 887.615742 431.505703 
" style="fill:none;stroke:#55a868;stroke-linecap:round;stroke-width:2.25;"/>
    </g>
    <g id="line2d_26"/>
    <g id="text_21">
     <!-- k = 6 -->
     <g style="fill:#262626;" transform="translate(900.815742 437.280703)scale(0.165 -0.165)">
      <use xlink:href="#DejaVuSans-107"/>
      <use x="57.910156" xlink:href="#DejaVuSans-32"/>
      <use x="89.697266" xlink:href="#DejaVuSans-61"/>
      <use x="173.486328" xlink:href="#DejaVuSans-32"/>
      <use x="205.273438" xlink:href="#DejaVuSans-54"/>
     </g>
    </g>
    <g id="line2d_27">
     <path d="M 854.615742 455.724609 
L 887.615742 455.724609 
" style="fill:none;stroke:#dd8452;stroke-linecap:round;stroke-width:2.25;"/>
    </g>
    <g id="line2d_28"/>
    <g id="text_22">
     <!-- k = 4 -->
     <g style="fill:#262626;" transform="translate(900.815742 461.499609)scale(0.165 -0.165)">
      <use xlink:href="#DejaVuSans-107"/>
      <use x="57.910156" xlink:href="#DejaVuSans-32"/>
      <use x="89.697266" xlink:href="#DejaVuSans-61"/>
      <use x="173.486328" xlink:href="#DejaVuSans-32"/>
      <use x="205.273438" xlink:href="#DejaVuSans-52"/>
     </g>
    </g>
    <g id="line2d_29">
     <path d="M 854.615742 479.943516 
L 887.615742 479.943516 
" style="fill:none;stroke:#4c72b0;stroke-linecap:round;stroke-width:2.25;"/>
    </g>
    <g id="line2d_30"/>
    <g id="text_23">
     <!-- k = 2 -->
     <g style="fill:#262626;" transform="translate(900.815742 485.718516)scale(0.165 -0.165)">
      <use xlink:href="#DejaVuSans-107"/>
      <use x="57.910156" xlink:href="#DejaVuSans-32"/>
      <use x="89.697266" xlink:href="#DejaVuSans-61"/>
      <use x="173.486328" xlink:href="#DejaVuSans-32"/>
      <use x="205.273438" xlink:href="#DejaVuSans-50"/>
     </g>
    </g>
   </g>
  </g>
 </g>
 <defs>
  <clipPath id="p36190b5eb5">
   <rect height="434.88" width="837" x="135" y="69.12"/>
  </clipPath>
 </defs>
</svg>
