<?xml version="1.0" encoding="utf-8" standalone="no"?>
<!DOCTYPE svg PUBLIC "-//W3C//DTD SVG 1.1//EN"
  "http://www.w3.org/Graphics/SVG/1.1/DTD/svg11.dtd">
<!-- Created with matplotlib (https://matplotlib.org/) -->
<svg height="576pt" version="1.1" viewBox="0 0 1080 576" width="1080pt" xmlns="http://www.w3.org/2000/svg" xmlns:xlink="http://www.w3.org/1999/xlink">
 <metadata>
  <rdf:RDF xmlns:cc="http://creativecommons.org/ns#" xmlns:dc="http://purl.org/dc/elements/1.1/" xmlns:rdf="http://www.w3.org/1999/02/22-rdf-syntax-ns#">
   <cc:Work>
    <dc:type rdf:resource="http://purl.org/dc/dcmitype/StillImage"/>
    <dc:date>2021-10-28T16:36:03.225248</dc:date>
    <dc:format>image/svg+xml</dc:format>
    <dc:creator>
     <cc:Agent>
      <dc:title>Matplotlib v3.3.2, https://matplotlib.org/</dc:title>
     </cc:Agent>
    </dc:creator>
   </cc:Work>
  </rdf:RDF>
 </metadata>
 <defs>
  <style type="text/css">*{stroke-linecap:butt;stroke-linejoin:round;}</style>
 </defs>
 <g id="figure_1">
  <g id="patch_1">
   <path d="M 0 576 
L 1080 576 
L 1080 0 
L 0 0 
z
" style="fill:#ffffff;"/>
  </g>
  <g id="axes_1">
   <g id="patch_2">
    <path d="M 135 504 
L 972 504 
L 972 69.12 
L 135 69.12 
z
" style="fill:#ffffff;"/>
   </g>
   <g id="matplotlib.axis_1">
    <g id="xtick_1">
     <g id="line2d_1">
      <path clip-path="url(#pe2e5bbc383)" d="M 883.227273 504 
L 883.227273 69.12 
" style="fill:none;stroke:#999999;stroke-dasharray:1.5,2.475;stroke-dashoffset:0;stroke-width:1.5;"/>
     </g>
     <g id="text_1">
      <!-- 0.3 -->
      <g style="fill:#262626;" transform="translate(870.107195 529.037422)scale(0.165 -0.165)">
       <defs>
        <path d="M 31.78125 66.40625 
Q 24.171875 66.40625 20.328125 58.90625 
Q 16.5 51.421875 16.5 36.375 
Q 16.5 21.390625 20.328125 13.890625 
Q 24.171875 6.390625 31.78125 6.390625 
Q 39.453125 6.390625 43.28125 13.890625 
Q 47.125 21.390625 47.125 36.375 
Q 47.125 51.421875 43.28125 58.90625 
Q 39.453125 66.40625 31.78125 66.40625 
z
M 31.78125 74.21875 
Q 44.046875 74.21875 50.515625 64.515625 
Q 56.984375 54.828125 56.984375 36.375 
Q 56.984375 17.96875 50.515625 8.265625 
Q 44.046875 -1.421875 31.78125 -1.421875 
Q 19.53125 -1.421875 13.0625 8.265625 
Q 6.59375 17.96875 6.59375 36.375 
Q 6.59375 54.828125 13.0625 64.515625 
Q 19.53125 74.21875 31.78125 74.21875 
z
" id="DejaVuSans-48"/>
        <path d="M 10.6875 12.40625 
L 21 12.40625 
L 21 0 
L 10.6875 0 
z
" id="DejaVuSans-46"/>
        <path d="M 40.578125 39.3125 
Q 47.65625 37.796875 51.625 33 
Q 55.609375 28.21875 55.609375 21.1875 
Q 55.609375 10.40625 48.1875 4.484375 
Q 40.765625 -1.421875 27.09375 -1.421875 
Q 22.515625 -1.421875 17.65625 -0.515625 
Q 12.796875 0.390625 7.625 2.203125 
L 7.625 11.71875 
Q 11.71875 9.328125 16.59375 8.109375 
Q 21.484375 6.890625 26.8125 6.890625 
Q 36.078125 6.890625 40.9375 10.546875 
Q 45.796875 14.203125 45.796875 21.1875 
Q 45.796875 27.640625 41.28125 31.265625 
Q 36.765625 34.90625 28.71875 34.90625 
L 20.21875 34.90625 
L 20.21875 43.015625 
L 29.109375 43.015625 
Q 36.375 43.015625 40.234375 45.921875 
Q 44.09375 48.828125 44.09375 54.296875 
Q 44.09375 59.90625 40.109375 62.90625 
Q 36.140625 65.921875 28.71875 65.921875 
Q 24.65625 65.921875 20.015625 65.03125 
Q 15.375 64.15625 9.8125 62.3125 
L 9.8125 71.09375 
Q 15.4375 72.65625 20.34375 73.4375 
Q 25.25 74.21875 29.59375 74.21875 
Q 40.828125 74.21875 47.359375 69.109375 
Q 53.90625 64.015625 53.90625 55.328125 
Q 53.90625 49.265625 50.4375 45.09375 
Q 46.96875 40.921875 40.578125 39.3125 
z
" id="DejaVuSans-51"/>
       </defs>
       <use xlink:href="#DejaVuSans-48"/>
       <use x="63.623047" xlink:href="#DejaVuSans-46"/>
       <use x="95.410156" xlink:href="#DejaVuSans-51"/>
      </g>
     </g>
    </g>
    <g id="xtick_2">
     <g id="line2d_2">
      <path clip-path="url(#pe2e5bbc383)" d="M 781.772727 504 
L 781.772727 69.12 
" style="fill:none;stroke:#999999;stroke-dasharray:1.5,2.475;stroke-dashoffset:0;stroke-width:1.5;"/>
     </g>
     <g id="text_2">
      <!-- 0.4 -->
      <g style="fill:#262626;" transform="translate(768.652649 529.037422)scale(0.165 -0.165)">
       <defs>
        <path d="M 37.796875 64.3125 
L 12.890625 25.390625 
L 37.796875 25.390625 
z
M 35.203125 72.90625 
L 47.609375 72.90625 
L 47.609375 25.390625 
L 58.015625 25.390625 
L 58.015625 17.1875 
L 47.609375 17.1875 
L 47.609375 0 
L 37.796875 0 
L 37.796875 17.1875 
L 4.890625 17.1875 
L 4.890625 26.703125 
z
" id="DejaVuSans-52"/>
       </defs>
       <use xlink:href="#DejaVuSans-48"/>
       <use x="63.623047" xlink:href="#DejaVuSans-46"/>
       <use x="95.410156" xlink:href="#DejaVuSans-52"/>
      </g>
     </g>
    </g>
    <g id="xtick_3">
     <g id="line2d_3">
      <path clip-path="url(#pe2e5bbc383)" d="M 680.318182 504 
L 680.318182 69.12 
" style="fill:none;stroke:#999999;stroke-dasharray:1.5,2.475;stroke-dashoffset:0;stroke-width:1.5;"/>
     </g>
     <g id="text_3">
      <!-- 0.5 -->
      <g style="fill:#262626;" transform="translate(667.198104 529.037422)scale(0.165 -0.165)">
       <defs>
        <path d="M 10.796875 72.90625 
L 49.515625 72.90625 
L 49.515625 64.59375 
L 19.828125 64.59375 
L 19.828125 46.734375 
Q 21.96875 47.46875 24.109375 47.828125 
Q 26.265625 48.1875 28.421875 48.1875 
Q 40.625 48.1875 47.75 41.5 
Q 54.890625 34.8125 54.890625 23.390625 
Q 54.890625 11.625 47.5625 5.09375 
Q 40.234375 -1.421875 26.90625 -1.421875 
Q 22.3125 -1.421875 17.546875 -0.640625 
Q 12.796875 0.140625 7.71875 1.703125 
L 7.71875 11.625 
Q 12.109375 9.234375 16.796875 8.0625 
Q 21.484375 6.890625 26.703125 6.890625 
Q 35.15625 6.890625 40.078125 11.328125 
Q 45.015625 15.765625 45.015625 23.390625 
Q 45.015625 31 40.078125 35.4375 
Q 35.15625 39.890625 26.703125 39.890625 
Q 22.75 39.890625 18.8125 39.015625 
Q 14.890625 38.140625 10.796875 36.28125 
z
" id="DejaVuSans-53"/>
       </defs>
       <use xlink:href="#DejaVuSans-48"/>
       <use x="63.623047" xlink:href="#DejaVuSans-46"/>
       <use x="95.410156" xlink:href="#DejaVuSans-53"/>
      </g>
     </g>
    </g>
    <g id="xtick_4">
     <g id="line2d_4">
      <path clip-path="url(#pe2e5bbc383)" d="M 578.863636 504 
L 578.863636 69.12 
" style="fill:none;stroke:#999999;stroke-dasharray:1.5,2.475;stroke-dashoffset:0;stroke-width:1.5;"/>
     </g>
     <g id="text_4">
      <!-- 0.6 -->
      <g style="fill:#262626;" transform="translate(565.743558 529.037422)scale(0.165 -0.165)">
       <defs>
        <path d="M 33.015625 40.375 
Q 26.375 40.375 22.484375 35.828125 
Q 18.609375 31.296875 18.609375 23.390625 
Q 18.609375 15.53125 22.484375 10.953125 
Q 26.375 6.390625 33.015625 6.390625 
Q 39.65625 6.390625 43.53125 10.953125 
Q 47.40625 15.53125 47.40625 23.390625 
Q 47.40625 31.296875 43.53125 35.828125 
Q 39.65625 40.375 33.015625 40.375 
z
M 52.59375 71.296875 
L 52.59375 62.3125 
Q 48.875 64.0625 45.09375 64.984375 
Q 41.3125 65.921875 37.59375 65.921875 
Q 27.828125 65.921875 22.671875 59.328125 
Q 17.53125 52.734375 16.796875 39.40625 
Q 19.671875 43.65625 24.015625 45.921875 
Q 28.375 48.1875 33.59375 48.1875 
Q 44.578125 48.1875 50.953125 41.515625 
Q 57.328125 34.859375 57.328125 23.390625 
Q 57.328125 12.15625 50.6875 5.359375 
Q 44.046875 -1.421875 33.015625 -1.421875 
Q 20.359375 -1.421875 13.671875 8.265625 
Q 6.984375 17.96875 6.984375 36.375 
Q 6.984375 53.65625 15.1875 63.9375 
Q 23.390625 74.21875 37.203125 74.21875 
Q 40.921875 74.21875 44.703125 73.484375 
Q 48.484375 72.75 52.59375 71.296875 
z
" id="DejaVuSans-54"/>
       </defs>
       <use xlink:href="#DejaVuSans-48"/>
       <use x="63.623047" xlink:href="#DejaVuSans-46"/>
       <use x="95.410156" xlink:href="#DejaVuSans-54"/>
      </g>
     </g>
    </g>
    <g id="xtick_5">
     <g id="line2d_5">
      <path clip-path="url(#pe2e5bbc383)" d="M 477.409091 504 
L 477.409091 69.12 
" style="fill:none;stroke:#999999;stroke-dasharray:1.5,2.475;stroke-dashoffset:0;stroke-width:1.5;"/>
     </g>
     <g id="text_5">
      <!-- 0.7 -->
      <g style="fill:#262626;" transform="translate(464.289013 529.037422)scale(0.165 -0.165)">
       <defs>
        <path d="M 8.203125 72.90625 
L 55.078125 72.90625 
L 55.078125 68.703125 
L 28.609375 0 
L 18.3125 0 
L 43.21875 64.59375 
L 8.203125 64.59375 
z
" id="DejaVuSans-55"/>
       </defs>
       <use xlink:href="#DejaVuSans-48"/>
       <use x="63.623047" xlink:href="#DejaVuSans-46"/>
       <use x="95.410156" xlink:href="#DejaVuSans-55"/>
      </g>
     </g>
    </g>
    <g id="xtick_6">
     <g id="line2d_6">
      <path clip-path="url(#pe2e5bbc383)" d="M 375.954545 504 
L 375.954545 69.12 
" style="fill:none;stroke:#999999;stroke-dasharray:1.5,2.475;stroke-dashoffset:0;stroke-width:1.5;"/>
     </g>
     <g id="text_6">
      <!-- 0.8 -->
      <g style="fill:#262626;" transform="translate(362.834467 529.037422)scale(0.165 -0.165)">
       <defs>
        <path d="M 31.78125 34.625 
Q 24.75 34.625 20.71875 30.859375 
Q 16.703125 27.09375 16.703125 20.515625 
Q 16.703125 13.921875 20.71875 10.15625 
Q 24.75 6.390625 31.78125 6.390625 
Q 38.8125 6.390625 42.859375 10.171875 
Q 46.921875 13.96875 46.921875 20.515625 
Q 46.921875 27.09375 42.890625 30.859375 
Q 38.875 34.625 31.78125 34.625 
z
M 21.921875 38.8125 
Q 15.578125 40.375 12.03125 44.71875 
Q 8.5 49.078125 8.5 55.328125 
Q 8.5 64.0625 14.71875 69.140625 
Q 20.953125 74.21875 31.78125 74.21875 
Q 42.671875 74.21875 48.875 69.140625 
Q 55.078125 64.0625 55.078125 55.328125 
Q 55.078125 49.078125 51.53125 44.71875 
Q 48 40.375 41.703125 38.8125 
Q 48.828125 37.15625 52.796875 32.3125 
Q 56.78125 27.484375 56.78125 20.515625 
Q 56.78125 9.90625 50.3125 4.234375 
Q 43.84375 -1.421875 31.78125 -1.421875 
Q 19.734375 -1.421875 13.25 4.234375 
Q 6.78125 9.90625 6.78125 20.515625 
Q 6.78125 27.484375 10.78125 32.3125 
Q 14.796875 37.15625 21.921875 38.8125 
z
M 18.3125 54.390625 
Q 18.3125 48.734375 21.84375 45.5625 
Q 25.390625 42.390625 31.78125 42.390625 
Q 38.140625 42.390625 41.71875 45.5625 
Q 45.3125 48.734375 45.3125 54.390625 
Q 45.3125 60.0625 41.71875 63.234375 
Q 38.140625 66.40625 31.78125 66.40625 
Q 25.390625 66.40625 21.84375 63.234375 
Q 18.3125 60.0625 18.3125 54.390625 
z
" id="DejaVuSans-56"/>
       </defs>
       <use xlink:href="#DejaVuSans-48"/>
       <use x="63.623047" xlink:href="#DejaVuSans-46"/>
       <use x="95.410156" xlink:href="#DejaVuSans-56"/>
      </g>
     </g>
    </g>
    <g id="xtick_7">
     <g id="line2d_7">
      <path clip-path="url(#pe2e5bbc383)" d="M 274.5 504 
L 274.5 69.12 
" style="fill:none;stroke:#999999;stroke-dasharray:1.5,2.475;stroke-dashoffset:0;stroke-width:1.5;"/>
     </g>
     <g id="text_7">
      <!-- 0.9 -->
      <g style="fill:#262626;" transform="translate(261.379922 529.037422)scale(0.165 -0.165)">
       <defs>
        <path d="M 10.984375 1.515625 
L 10.984375 10.5 
Q 14.703125 8.734375 18.5 7.8125 
Q 22.3125 6.890625 25.984375 6.890625 
Q 35.75 6.890625 40.890625 13.453125 
Q 46.046875 20.015625 46.78125 33.40625 
Q 43.953125 29.203125 39.59375 26.953125 
Q 35.25 24.703125 29.984375 24.703125 
Q 19.046875 24.703125 12.671875 31.3125 
Q 6.296875 37.9375 6.296875 49.421875 
Q 6.296875 60.640625 12.9375 67.421875 
Q 19.578125 74.21875 30.609375 74.21875 
Q 43.265625 74.21875 49.921875 64.515625 
Q 56.59375 54.828125 56.59375 36.375 
Q 56.59375 19.140625 48.40625 8.859375 
Q 40.234375 -1.421875 26.421875 -1.421875 
Q 22.703125 -1.421875 18.890625 -0.6875 
Q 15.09375 0.046875 10.984375 1.515625 
z
M 30.609375 32.421875 
Q 37.25 32.421875 41.125 36.953125 
Q 45.015625 41.5 45.015625 49.421875 
Q 45.015625 57.28125 41.125 61.84375 
Q 37.25 66.40625 30.609375 66.40625 
Q 23.96875 66.40625 20.09375 61.84375 
Q 16.21875 57.28125 16.21875 49.421875 
Q 16.21875 41.5 20.09375 36.953125 
Q 23.96875 32.421875 30.609375 32.421875 
z
" id="DejaVuSans-57"/>
       </defs>
       <use xlink:href="#DejaVuSans-48"/>
       <use x="63.623047" xlink:href="#DejaVuSans-46"/>
       <use x="95.410156" xlink:href="#DejaVuSans-57"/>
      </g>
     </g>
    </g>
    <g id="xtick_8">
     <g id="line2d_8">
      <path clip-path="url(#pe2e5bbc383)" d="M 173.045455 504 
L 173.045455 69.12 
" style="fill:none;stroke:#999999;stroke-dasharray:1.5,2.475;stroke-dashoffset:0;stroke-width:1.5;"/>
     </g>
     <g id="text_8">
      <!-- 1.0 -->
      <g style="fill:#262626;" transform="translate(159.925376 529.037422)scale(0.165 -0.165)">
       <defs>
        <path d="M 12.40625 8.296875 
L 28.515625 8.296875 
L 28.515625 63.921875 
L 10.984375 60.40625 
L 10.984375 69.390625 
L 28.421875 72.90625 
L 38.28125 72.90625 
L 38.28125 8.296875 
L 54.390625 8.296875 
L 54.390625 0 
L 12.40625 0 
z
" id="DejaVuSans-49"/>
       </defs>
       <use xlink:href="#DejaVuSans-49"/>
       <use x="63.623047" xlink:href="#DejaVuSans-46"/>
       <use x="95.410156" xlink:href="#DejaVuSans-48"/>
      </g>
     </g>
    </g>
    <g id="text_9">
     <!-- F (largest logical job name ratio in the cluster) -->
     <g style="fill:#262626;" transform="translate(344.631094 550.146094)scale(0.18 -0.18)">
      <defs>
       <path d="M 9.8125 72.90625 
L 51.703125 72.90625 
L 51.703125 64.59375 
L 19.671875 64.59375 
L 19.671875 43.109375 
L 48.578125 43.109375 
L 48.578125 34.8125 
L 19.671875 34.8125 
L 19.671875 0 
L 9.8125 0 
z
" id="DejaVuSans-70"/>
       <path id="DejaVuSans-32"/>
       <path d="M 31 75.875 
Q 24.46875 64.65625 21.28125 53.65625 
Q 18.109375 42.671875 18.109375 31.390625 
Q 18.109375 20.125 21.3125 9.0625 
Q 24.515625 -2 31 -13.1875 
L 23.1875 -13.1875 
Q 15.875 -1.703125 12.234375 9.375 
Q 8.59375 20.453125 8.59375 31.390625 
Q 8.59375 42.28125 12.203125 53.3125 
Q 15.828125 64.359375 23.1875 75.875 
z
" id="DejaVuSans-40"/>
       <path d="M 9.421875 75.984375 
L 18.40625 75.984375 
L 18.40625 0 
L 9.421875 0 
z
" id="DejaVuSans-108"/>
       <path d="M 34.28125 27.484375 
Q 23.390625 27.484375 19.1875 25 
Q 14.984375 22.515625 14.984375 16.5 
Q 14.984375 11.71875 18.140625 8.90625 
Q 21.296875 6.109375 26.703125 6.109375 
Q 34.1875 6.109375 38.703125 11.40625 
Q 43.21875 16.703125 43.21875 25.484375 
L 43.21875 27.484375 
z
M 52.203125 31.203125 
L 52.203125 0 
L 43.21875 0 
L 43.21875 8.296875 
Q 40.140625 3.328125 35.546875 0.953125 
Q 30.953125 -1.421875 24.3125 -1.421875 
Q 15.921875 -1.421875 10.953125 3.296875 
Q 6 8.015625 6 15.921875 
Q 6 25.140625 12.171875 29.828125 
Q 18.359375 34.515625 30.609375 34.515625 
L 43.21875 34.515625 
L 43.21875 35.40625 
Q 43.21875 41.609375 39.140625 45 
Q 35.0625 48.390625 27.6875 48.390625 
Q 23 48.390625 18.546875 47.265625 
Q 14.109375 46.140625 10.015625 43.890625 
L 10.015625 52.203125 
Q 14.9375 54.109375 19.578125 55.046875 
Q 24.21875 56 28.609375 56 
Q 40.484375 56 46.34375 49.84375 
Q 52.203125 43.703125 52.203125 31.203125 
z
" id="DejaVuSans-97"/>
       <path d="M 41.109375 46.296875 
Q 39.59375 47.171875 37.8125 47.578125 
Q 36.03125 48 33.890625 48 
Q 26.265625 48 22.1875 43.046875 
Q 18.109375 38.09375 18.109375 28.8125 
L 18.109375 0 
L 9.078125 0 
L 9.078125 54.6875 
L 18.109375 54.6875 
L 18.109375 46.1875 
Q 20.953125 51.171875 25.484375 53.578125 
Q 30.03125 56 36.53125 56 
Q 37.453125 56 38.578125 55.875 
Q 39.703125 55.765625 41.0625 55.515625 
z
" id="DejaVuSans-114"/>
       <path d="M 45.40625 27.984375 
Q 45.40625 37.75 41.375 43.109375 
Q 37.359375 48.484375 30.078125 48.484375 
Q 22.859375 48.484375 18.828125 43.109375 
Q 14.796875 37.75 14.796875 27.984375 
Q 14.796875 18.265625 18.828125 12.890625 
Q 22.859375 7.515625 30.078125 7.515625 
Q 37.359375 7.515625 41.375 12.890625 
Q 45.40625 18.265625 45.40625 27.984375 
z
M 54.390625 6.78125 
Q 54.390625 -7.171875 48.1875 -13.984375 
Q 42 -20.796875 29.203125 -20.796875 
Q 24.46875 -20.796875 20.265625 -20.09375 
Q 16.0625 -19.390625 12.109375 -17.921875 
L 12.109375 -9.1875 
Q 16.0625 -11.328125 19.921875 -12.34375 
Q 23.78125 -13.375 27.78125 -13.375 
Q 36.625 -13.375 41.015625 -8.765625 
Q 45.40625 -4.15625 45.40625 5.171875 
L 45.40625 9.625 
Q 42.625 4.78125 38.28125 2.390625 
Q 33.9375 0 27.875 0 
Q 17.828125 0 11.671875 7.65625 
Q 5.515625 15.328125 5.515625 27.984375 
Q 5.515625 40.671875 11.671875 48.328125 
Q 17.828125 56 27.875 56 
Q 33.9375 56 38.28125 53.609375 
Q 42.625 51.21875 45.40625 46.390625 
L 45.40625 54.6875 
L 54.390625 54.6875 
z
" id="DejaVuSans-103"/>
       <path d="M 56.203125 29.59375 
L 56.203125 25.203125 
L 14.890625 25.203125 
Q 15.484375 15.921875 20.484375 11.0625 
Q 25.484375 6.203125 34.421875 6.203125 
Q 39.59375 6.203125 44.453125 7.46875 
Q 49.3125 8.734375 54.109375 11.28125 
L 54.109375 2.78125 
Q 49.265625 0.734375 44.1875 -0.34375 
Q 39.109375 -1.421875 33.890625 -1.421875 
Q 20.796875 -1.421875 13.15625 6.1875 
Q 5.515625 13.8125 5.515625 26.8125 
Q 5.515625 40.234375 12.765625 48.109375 
Q 20.015625 56 32.328125 56 
Q 43.359375 56 49.78125 48.890625 
Q 56.203125 41.796875 56.203125 29.59375 
z
M 47.21875 32.234375 
Q 47.125 39.59375 43.09375 43.984375 
Q 39.0625 48.390625 32.421875 48.390625 
Q 24.90625 48.390625 20.390625 44.140625 
Q 15.875 39.890625 15.1875 32.171875 
z
" id="DejaVuSans-101"/>
       <path d="M 44.28125 53.078125 
L 44.28125 44.578125 
Q 40.484375 46.53125 36.375 47.5 
Q 32.28125 48.484375 27.875 48.484375 
Q 21.1875 48.484375 17.84375 46.4375 
Q 14.5 44.390625 14.5 40.28125 
Q 14.5 37.15625 16.890625 35.375 
Q 19.28125 33.59375 26.515625 31.984375 
L 29.59375 31.296875 
Q 39.15625 29.25 43.1875 25.515625 
Q 47.21875 21.78125 47.21875 15.09375 
Q 47.21875 7.46875 41.1875 3.015625 
Q 35.15625 -1.421875 24.609375 -1.421875 
Q 20.21875 -1.421875 15.453125 -0.5625 
Q 10.6875 0.296875 5.421875 2 
L 5.421875 11.28125 
Q 10.40625 8.6875 15.234375 7.390625 
Q 20.0625 6.109375 24.8125 6.109375 
Q 31.15625 6.109375 34.5625 8.28125 
Q 37.984375 10.453125 37.984375 14.40625 
Q 37.984375 18.0625 35.515625 20.015625 
Q 33.0625 21.96875 24.703125 23.78125 
L 21.578125 24.515625 
Q 13.234375 26.265625 9.515625 29.90625 
Q 5.8125 33.546875 5.8125 39.890625 
Q 5.8125 47.609375 11.28125 51.796875 
Q 16.75 56 26.8125 56 
Q 31.78125 56 36.171875 55.265625 
Q 40.578125 54.546875 44.28125 53.078125 
z
" id="DejaVuSans-115"/>
       <path d="M 18.3125 70.21875 
L 18.3125 54.6875 
L 36.8125 54.6875 
L 36.8125 47.703125 
L 18.3125 47.703125 
L 18.3125 18.015625 
Q 18.3125 11.328125 20.140625 9.421875 
Q 21.96875 7.515625 27.59375 7.515625 
L 36.8125 7.515625 
L 36.8125 0 
L 27.59375 0 
Q 17.1875 0 13.234375 3.875 
Q 9.28125 7.765625 9.28125 18.015625 
L 9.28125 47.703125 
L 2.6875 47.703125 
L 2.6875 54.6875 
L 9.28125 54.6875 
L 9.28125 70.21875 
z
" id="DejaVuSans-116"/>
       <path d="M 30.609375 48.390625 
Q 23.390625 48.390625 19.1875 42.75 
Q 14.984375 37.109375 14.984375 27.296875 
Q 14.984375 17.484375 19.15625 11.84375 
Q 23.34375 6.203125 30.609375 6.203125 
Q 37.796875 6.203125 41.984375 11.859375 
Q 46.1875 17.53125 46.1875 27.296875 
Q 46.1875 37.015625 41.984375 42.703125 
Q 37.796875 48.390625 30.609375 48.390625 
z
M 30.609375 56 
Q 42.328125 56 49.015625 48.375 
Q 55.71875 40.765625 55.71875 27.296875 
Q 55.71875 13.875 49.015625 6.21875 
Q 42.328125 -1.421875 30.609375 -1.421875 
Q 18.84375 -1.421875 12.171875 6.21875 
Q 5.515625 13.875 5.515625 27.296875 
Q 5.515625 40.765625 12.171875 48.375 
Q 18.84375 56 30.609375 56 
z
" id="DejaVuSans-111"/>
       <path d="M 9.421875 54.6875 
L 18.40625 54.6875 
L 18.40625 0 
L 9.421875 0 
z
M 9.421875 75.984375 
L 18.40625 75.984375 
L 18.40625 64.59375 
L 9.421875 64.59375 
z
" id="DejaVuSans-105"/>
       <path d="M 48.78125 52.59375 
L 48.78125 44.1875 
Q 44.96875 46.296875 41.140625 47.34375 
Q 37.3125 48.390625 33.40625 48.390625 
Q 24.65625 48.390625 19.8125 42.84375 
Q 14.984375 37.3125 14.984375 27.296875 
Q 14.984375 17.28125 19.8125 11.734375 
Q 24.65625 6.203125 33.40625 6.203125 
Q 37.3125 6.203125 41.140625 7.25 
Q 44.96875 8.296875 48.78125 10.40625 
L 48.78125 2.09375 
Q 45.015625 0.34375 40.984375 -0.53125 
Q 36.96875 -1.421875 32.421875 -1.421875 
Q 20.0625 -1.421875 12.78125 6.34375 
Q 5.515625 14.109375 5.515625 27.296875 
Q 5.515625 40.671875 12.859375 48.328125 
Q 20.21875 56 33.015625 56 
Q 37.15625 56 41.109375 55.140625 
Q 45.0625 54.296875 48.78125 52.59375 
z
" id="DejaVuSans-99"/>
       <path d="M 9.421875 54.6875 
L 18.40625 54.6875 
L 18.40625 -0.984375 
Q 18.40625 -11.421875 14.421875 -16.109375 
Q 10.453125 -20.796875 1.609375 -20.796875 
L -1.8125 -20.796875 
L -1.8125 -13.1875 
L 0.59375 -13.1875 
Q 5.71875 -13.1875 7.5625 -10.8125 
Q 9.421875 -8.453125 9.421875 -0.984375 
z
M 9.421875 75.984375 
L 18.40625 75.984375 
L 18.40625 64.59375 
L 9.421875 64.59375 
z
" id="DejaVuSans-106"/>
       <path d="M 48.6875 27.296875 
Q 48.6875 37.203125 44.609375 42.84375 
Q 40.53125 48.484375 33.40625 48.484375 
Q 26.265625 48.484375 22.1875 42.84375 
Q 18.109375 37.203125 18.109375 27.296875 
Q 18.109375 17.390625 22.1875 11.75 
Q 26.265625 6.109375 33.40625 6.109375 
Q 40.53125 6.109375 44.609375 11.75 
Q 48.6875 17.390625 48.6875 27.296875 
z
M 18.109375 46.390625 
Q 20.953125 51.265625 25.265625 53.625 
Q 29.59375 56 35.59375 56 
Q 45.5625 56 51.78125 48.09375 
Q 58.015625 40.1875 58.015625 27.296875 
Q 58.015625 14.40625 51.78125 6.484375 
Q 45.5625 -1.421875 35.59375 -1.421875 
Q 29.59375 -1.421875 25.265625 0.953125 
Q 20.953125 3.328125 18.109375 8.203125 
L 18.109375 0 
L 9.078125 0 
L 9.078125 75.984375 
L 18.109375 75.984375 
z
" id="DejaVuSans-98"/>
       <path d="M 54.890625 33.015625 
L 54.890625 0 
L 45.90625 0 
L 45.90625 32.71875 
Q 45.90625 40.484375 42.875 44.328125 
Q 39.84375 48.1875 33.796875 48.1875 
Q 26.515625 48.1875 22.3125 43.546875 
Q 18.109375 38.921875 18.109375 30.90625 
L 18.109375 0 
L 9.078125 0 
L 9.078125 54.6875 
L 18.109375 54.6875 
L 18.109375 46.1875 
Q 21.34375 51.125 25.703125 53.5625 
Q 30.078125 56 35.796875 56 
Q 45.21875 56 50.046875 50.171875 
Q 54.890625 44.34375 54.890625 33.015625 
z
" id="DejaVuSans-110"/>
       <path d="M 52 44.1875 
Q 55.375 50.25 60.0625 53.125 
Q 64.75 56 71.09375 56 
Q 79.640625 56 84.28125 50.015625 
Q 88.921875 44.046875 88.921875 33.015625 
L 88.921875 0 
L 79.890625 0 
L 79.890625 32.71875 
Q 79.890625 40.578125 77.09375 44.375 
Q 74.3125 48.1875 68.609375 48.1875 
Q 61.625 48.1875 57.5625 43.546875 
Q 53.515625 38.921875 53.515625 30.90625 
L 53.515625 0 
L 44.484375 0 
L 44.484375 32.71875 
Q 44.484375 40.625 41.703125 44.40625 
Q 38.921875 48.1875 33.109375 48.1875 
Q 26.21875 48.1875 22.15625 43.53125 
Q 18.109375 38.875 18.109375 30.90625 
L 18.109375 0 
L 9.078125 0 
L 9.078125 54.6875 
L 18.109375 54.6875 
L 18.109375 46.1875 
Q 21.1875 51.21875 25.484375 53.609375 
Q 29.78125 56 35.6875 56 
Q 41.65625 56 45.828125 52.96875 
Q 50 49.953125 52 44.1875 
z
" id="DejaVuSans-109"/>
       <path d="M 54.890625 33.015625 
L 54.890625 0 
L 45.90625 0 
L 45.90625 32.71875 
Q 45.90625 40.484375 42.875 44.328125 
Q 39.84375 48.1875 33.796875 48.1875 
Q 26.515625 48.1875 22.3125 43.546875 
Q 18.109375 38.921875 18.109375 30.90625 
L 18.109375 0 
L 9.078125 0 
L 9.078125 75.984375 
L 18.109375 75.984375 
L 18.109375 46.1875 
Q 21.34375 51.125 25.703125 53.5625 
Q 30.078125 56 35.796875 56 
Q 45.21875 56 50.046875 50.171875 
Q 54.890625 44.34375 54.890625 33.015625 
z
" id="DejaVuSans-104"/>
       <path d="M 8.5 21.578125 
L 8.5 54.6875 
L 17.484375 54.6875 
L 17.484375 21.921875 
Q 17.484375 14.15625 20.5 10.265625 
Q 23.53125 6.390625 29.59375 6.390625 
Q 36.859375 6.390625 41.078125 11.03125 
Q 45.3125 15.671875 45.3125 23.6875 
L 45.3125 54.6875 
L 54.296875 54.6875 
L 54.296875 0 
L 45.3125 0 
L 45.3125 8.40625 
Q 42.046875 3.421875 37.71875 1 
Q 33.40625 -1.421875 27.6875 -1.421875 
Q 18.265625 -1.421875 13.375 4.4375 
Q 8.5 10.296875 8.5 21.578125 
z
M 31.109375 56 
z
" id="DejaVuSans-117"/>
       <path d="M 8.015625 75.875 
L 15.828125 75.875 
Q 23.140625 64.359375 26.78125 53.3125 
Q 30.421875 42.28125 30.421875 31.390625 
Q 30.421875 20.453125 26.78125 9.375 
Q 23.140625 -1.703125 15.828125 -13.1875 
L 8.015625 -13.1875 
Q 14.5 -2 17.703125 9.0625 
Q 20.90625 20.125 20.90625 31.390625 
Q 20.90625 42.671875 17.703125 53.65625 
Q 14.5 64.65625 8.015625 75.875 
z
" id="DejaVuSans-41"/>
      </defs>
      <use xlink:href="#DejaVuSans-70"/>
      <use x="57.519531" xlink:href="#DejaVuSans-32"/>
      <use x="89.306641" xlink:href="#DejaVuSans-40"/>
      <use x="128.320312" xlink:href="#DejaVuSans-108"/>
      <use x="156.103516" xlink:href="#DejaVuSans-97"/>
      <use x="217.382812" xlink:href="#DejaVuSans-114"/>
      <use x="256.746094" xlink:href="#DejaVuSans-103"/>
      <use x="320.222656" xlink:href="#DejaVuSans-101"/>
      <use x="381.746094" xlink:href="#DejaVuSans-115"/>
      <use x="433.845703" xlink:href="#DejaVuSans-116"/>
      <use x="473.054688" xlink:href="#DejaVuSans-32"/>
      <use x="504.841797" xlink:href="#DejaVuSans-108"/>
      <use x="532.625" xlink:href="#DejaVuSans-111"/>
      <use x="593.806641" xlink:href="#DejaVuSans-103"/>
      <use x="657.283203" xlink:href="#DejaVuSans-105"/>
      <use x="685.066406" xlink:href="#DejaVuSans-99"/>
      <use x="740.046875" xlink:href="#DejaVuSans-97"/>
      <use x="801.326172" xlink:href="#DejaVuSans-108"/>
      <use x="829.109375" xlink:href="#DejaVuSans-32"/>
      <use x="860.896484" xlink:href="#DejaVuSans-106"/>
      <use x="888.679688" xlink:href="#DejaVuSans-111"/>
      <use x="949.861328" xlink:href="#DejaVuSans-98"/>
      <use x="1013.337891" xlink:href="#DejaVuSans-32"/>
      <use x="1045.125" xlink:href="#DejaVuSans-110"/>
      <use x="1108.503906" xlink:href="#DejaVuSans-97"/>
      <use x="1169.783203" xlink:href="#DejaVuSans-109"/>
      <use x="1267.195312" xlink:href="#DejaVuSans-101"/>
      <use x="1328.71875" xlink:href="#DejaVuSans-32"/>
      <use x="1360.505859" xlink:href="#DejaVuSans-114"/>
      <use x="1401.619141" xlink:href="#DejaVuSans-97"/>
      <use x="1462.898438" xlink:href="#DejaVuSans-116"/>
      <use x="1502.107422" xlink:href="#DejaVuSans-105"/>
      <use x="1529.890625" xlink:href="#DejaVuSans-111"/>
      <use x="1591.072266" xlink:href="#DejaVuSans-32"/>
      <use x="1622.859375" xlink:href="#DejaVuSans-105"/>
      <use x="1650.642578" xlink:href="#DejaVuSans-110"/>
      <use x="1714.021484" xlink:href="#DejaVuSans-32"/>
      <use x="1745.808594" xlink:href="#DejaVuSans-116"/>
      <use x="1785.017578" xlink:href="#DejaVuSans-104"/>
      <use x="1848.396484" xlink:href="#DejaVuSans-101"/>
      <use x="1909.919922" xlink:href="#DejaVuSans-32"/>
      <use x="1941.707031" xlink:href="#DejaVuSans-99"/>
      <use x="1996.6875" xlink:href="#DejaVuSans-108"/>
      <use x="2024.470703" xlink:href="#DejaVuSans-117"/>
      <use x="2087.849609" xlink:href="#DejaVuSans-115"/>
      <use x="2139.949219" xlink:href="#DejaVuSans-116"/>
      <use x="2179.158203" xlink:href="#DejaVuSans-101"/>
      <use x="2240.681641" xlink:href="#DejaVuSans-114"/>
      <use x="2281.794922" xlink:href="#DejaVuSans-41"/>
     </g>
    </g>
   </g>
   <g id="matplotlib.axis_2">
    <g id="ytick_1">
     <g id="line2d_9">
      <path clip-path="url(#pe2e5bbc383)" d="M 135 504 
L 972 504 
" style="fill:none;stroke:#999999;stroke-dasharray:1.5,2.475;stroke-dashoffset:0;stroke-width:1.5;"/>
     </g>
     <g id="text_10">
      <!-- 0% -->
      <g style="fill:#262626;" transform="translate(96.324297 510.268711)scale(0.165 -0.165)">
       <defs>
        <path d="M 72.703125 32.078125 
Q 68.453125 32.078125 66.03125 28.46875 
Q 63.625 24.859375 63.625 18.40625 
Q 63.625 12.0625 66.03125 8.421875 
Q 68.453125 4.78125 72.703125 4.78125 
Q 76.859375 4.78125 79.265625 8.421875 
Q 81.6875 12.0625 81.6875 18.40625 
Q 81.6875 24.8125 79.265625 28.4375 
Q 76.859375 32.078125 72.703125 32.078125 
z
M 72.703125 38.28125 
Q 80.421875 38.28125 84.953125 32.90625 
Q 89.5 27.546875 89.5 18.40625 
Q 89.5 9.28125 84.9375 3.921875 
Q 80.375 -1.421875 72.703125 -1.421875 
Q 64.890625 -1.421875 60.34375 3.921875 
Q 55.8125 9.28125 55.8125 18.40625 
Q 55.8125 27.59375 60.375 32.9375 
Q 64.9375 38.28125 72.703125 38.28125 
z
M 22.3125 68.015625 
Q 18.109375 68.015625 15.6875 64.375 
Q 13.28125 60.75 13.28125 54.390625 
Q 13.28125 47.953125 15.671875 44.328125 
Q 18.0625 40.71875 22.3125 40.71875 
Q 26.5625 40.71875 28.96875 44.328125 
Q 31.390625 47.953125 31.390625 54.390625 
Q 31.390625 60.6875 28.953125 64.34375 
Q 26.515625 68.015625 22.3125 68.015625 
z
M 66.40625 74.21875 
L 74.21875 74.21875 
L 28.609375 -1.421875 
L 20.796875 -1.421875 
z
M 22.3125 74.21875 
Q 30.03125 74.21875 34.609375 68.875 
Q 39.203125 63.53125 39.203125 54.390625 
Q 39.203125 45.171875 34.640625 39.84375 
Q 30.078125 34.515625 22.3125 34.515625 
Q 14.546875 34.515625 10.03125 39.859375 
Q 5.515625 45.21875 5.515625 54.390625 
Q 5.515625 63.484375 10.046875 68.84375 
Q 14.59375 74.21875 22.3125 74.21875 
z
" id="DejaVuSans-37"/>
       </defs>
       <use xlink:href="#DejaVuSans-48"/>
       <use x="63.623047" xlink:href="#DejaVuSans-37"/>
      </g>
     </g>
    </g>
    <g id="ytick_2">
     <g id="line2d_10">
      <path clip-path="url(#pe2e5bbc383)" d="M 135 417.024 
L 972 417.024 
" style="fill:none;stroke:#999999;stroke-dasharray:1.5,2.475;stroke-dashoffset:0;stroke-width:1.5;"/>
     </g>
     <g id="text_11">
      <!-- 20% -->
      <g style="fill:#262626;" transform="translate(85.826172 423.292711)scale(0.165 -0.165)">
       <defs>
        <path d="M 19.1875 8.296875 
L 53.609375 8.296875 
L 53.609375 0 
L 7.328125 0 
L 7.328125 8.296875 
Q 12.9375 14.109375 22.625 23.890625 
Q 32.328125 33.6875 34.8125 36.53125 
Q 39.546875 41.84375 41.421875 45.53125 
Q 43.3125 49.21875 43.3125 52.78125 
Q 43.3125 58.59375 39.234375 62.25 
Q 35.15625 65.921875 28.609375 65.921875 
Q 23.96875 65.921875 18.8125 64.3125 
Q 13.671875 62.703125 7.8125 59.421875 
L 7.8125 69.390625 
Q 13.765625 71.78125 18.9375 73 
Q 24.125 74.21875 28.421875 74.21875 
Q 39.75 74.21875 46.484375 68.546875 
Q 53.21875 62.890625 53.21875 53.421875 
Q 53.21875 48.921875 51.53125 44.890625 
Q 49.859375 40.875 45.40625 35.40625 
Q 44.1875 33.984375 37.640625 27.21875 
Q 31.109375 20.453125 19.1875 8.296875 
z
" id="DejaVuSans-50"/>
       </defs>
       <use xlink:href="#DejaVuSans-50"/>
       <use x="63.623047" xlink:href="#DejaVuSans-48"/>
       <use x="127.246094" xlink:href="#DejaVuSans-37"/>
      </g>
     </g>
    </g>
    <g id="ytick_3">
     <g id="line2d_11">
      <path clip-path="url(#pe2e5bbc383)" d="M 135 330.048 
L 972 330.048 
" style="fill:none;stroke:#999999;stroke-dasharray:1.5,2.475;stroke-dashoffset:0;stroke-width:1.5;"/>
     </g>
     <g id="text_12">
      <!-- 40% -->
      <g style="fill:#262626;" transform="translate(85.826172 336.316711)scale(0.165 -0.165)">
       <use xlink:href="#DejaVuSans-52"/>
       <use x="63.623047" xlink:href="#DejaVuSans-48"/>
       <use x="127.246094" xlink:href="#DejaVuSans-37"/>
      </g>
     </g>
    </g>
    <g id="ytick_4">
     <g id="line2d_12">
      <path clip-path="url(#pe2e5bbc383)" d="M 135 243.072 
L 972 243.072 
" style="fill:none;stroke:#999999;stroke-dasharray:1.5,2.475;stroke-dashoffset:0;stroke-width:1.5;"/>
     </g>
     <g id="text_13">
      <!-- 60% -->
      <g style="fill:#262626;" transform="translate(85.826172 249.340711)scale(0.165 -0.165)">
       <use xlink:href="#DejaVuSans-54"/>
       <use x="63.623047" xlink:href="#DejaVuSans-48"/>
       <use x="127.246094" xlink:href="#DejaVuSans-37"/>
      </g>
     </g>
    </g>
    <g id="ytick_5">
     <g id="line2d_13">
      <path clip-path="url(#pe2e5bbc383)" d="M 135 156.096 
L 972 156.096 
" style="fill:none;stroke:#999999;stroke-dasharray:1.5,2.475;stroke-dashoffset:0;stroke-width:1.5;"/>
     </g>
     <g id="text_14">
      <!-- 80% -->
      <g style="fill:#262626;" transform="translate(85.826172 162.364711)scale(0.165 -0.165)">
       <use xlink:href="#DejaVuSans-56"/>
       <use x="63.623047" xlink:href="#DejaVuSans-48"/>
       <use x="127.246094" xlink:href="#DejaVuSans-37"/>
      </g>
     </g>
    </g>
    <g id="ytick_6">
     <g id="line2d_14">
      <path clip-path="url(#pe2e5bbc383)" d="M 135 69.12 
L 972 69.12 
" style="fill:none;stroke:#999999;stroke-dasharray:1.5,2.475;stroke-dashoffset:0;stroke-width:1.5;"/>
     </g>
     <g id="text_15">
      <!-- 100% -->
      <g style="fill:#262626;" transform="translate(75.328047 75.388711)scale(0.165 -0.165)">
       <use xlink:href="#DejaVuSans-49"/>
       <use x="63.623047" xlink:href="#DejaVuSans-48"/>
       <use x="127.246094" xlink:href="#DejaVuSans-48"/>
       <use x="190.869141" xlink:href="#DejaVuSans-37"/>
      </g>
     </g>
    </g>
    <g id="text_16">
     <!-- Proportion -->
     <g style="fill:#262626;" transform="translate(67.584609 332.992969)rotate(-90)scale(0.18 -0.18)">
      <defs>
       <path d="M 19.671875 64.796875 
L 19.671875 37.40625 
L 32.078125 37.40625 
Q 38.96875 37.40625 42.71875 40.96875 
Q 46.484375 44.53125 46.484375 51.125 
Q 46.484375 57.671875 42.71875 61.234375 
Q 38.96875 64.796875 32.078125 64.796875 
z
M 9.8125 72.90625 
L 32.078125 72.90625 
Q 44.34375 72.90625 50.609375 67.359375 
Q 56.890625 61.8125 56.890625 51.125 
Q 56.890625 40.328125 50.609375 34.8125 
Q 44.34375 29.296875 32.078125 29.296875 
L 19.671875 29.296875 
L 19.671875 0 
L 9.8125 0 
z
" id="DejaVuSans-80"/>
       <path d="M 18.109375 8.203125 
L 18.109375 -20.796875 
L 9.078125 -20.796875 
L 9.078125 54.6875 
L 18.109375 54.6875 
L 18.109375 46.390625 
Q 20.953125 51.265625 25.265625 53.625 
Q 29.59375 56 35.59375 56 
Q 45.5625 56 51.78125 48.09375 
Q 58.015625 40.1875 58.015625 27.296875 
Q 58.015625 14.40625 51.78125 6.484375 
Q 45.5625 -1.421875 35.59375 -1.421875 
Q 29.59375 -1.421875 25.265625 0.953125 
Q 20.953125 3.328125 18.109375 8.203125 
z
M 48.6875 27.296875 
Q 48.6875 37.203125 44.609375 42.84375 
Q 40.53125 48.484375 33.40625 48.484375 
Q 26.265625 48.484375 22.1875 42.84375 
Q 18.109375 37.203125 18.109375 27.296875 
Q 18.109375 17.390625 22.1875 11.75 
Q 26.265625 6.109375 33.40625 6.109375 
Q 40.53125 6.109375 44.609375 11.75 
Q 48.6875 17.390625 48.6875 27.296875 
z
" id="DejaVuSans-112"/>
      </defs>
      <use xlink:href="#DejaVuSans-80"/>
      <use x="58.552734" xlink:href="#DejaVuSans-114"/>
      <use x="97.416016" xlink:href="#DejaVuSans-111"/>
      <use x="158.597656" xlink:href="#DejaVuSans-112"/>
      <use x="222.074219" xlink:href="#DejaVuSans-111"/>
      <use x="283.255859" xlink:href="#DejaVuSans-114"/>
      <use x="324.369141" xlink:href="#DejaVuSans-116"/>
      <use x="363.578125" xlink:href="#DejaVuSans-105"/>
      <use x="391.361328" xlink:href="#DejaVuSans-111"/>
      <use x="452.542969" xlink:href="#DejaVuSans-110"/>
     </g>
    </g>
   </g>
   <g id="line2d_15">
    <path clip-path="url(#pe2e5bbc383)" d="M 933.954545 69.12 
L 933.954545 69.941192 
L 897.720779 69.980297 
L 897.720779 70.019401 
L 897.720779 70.175819 
L 849.409091 70.214923 
L 849.409091 70.254028 
L 849.409091 77.331923 
L 825.253247 77.371028 
L 825.253247 77.410132 
L 825.253247 77.449237 
L 818.665289 77.449237 
L 818.665289 77.527445 
L 818.665289 77.56655 
L 807.136364 77.644759 
L 807.136364 78.114011 
L 797.381119 78.19222 
L 797.381119 78.309533 
L 793.045455 78.387742 
L 793.045455 78.505055 
L 781.772727 78.54416 
L 781.772727 78.583264 
L 781.772727 82.454599 
L 767.778997 82.532808 
L 767.778997 82.571913 
L 764.863636 82.650121 
L 764.863636 82.884748 
L 760.413876 82.923852 
L 760.413876 82.962957 
L 760.413876 83.041165 
L 752.785714 83.119374 
L 752.785714 84.33161 
L 743.727273 84.409819 
L 743.727273 84.644446 
L 739.997326 84.722654 
L 739.997326 84.761759 
L 736.681818 84.761759 
L 736.681818 84.839968 
L 736.681818 85.426534 
L 731.045455 85.465638 
L 731.045455 85.504742 
L 731.045455 85.543847 
L 728.174099 85.622056 
L 728.174099 85.66116 
L 726.433884 85.66116 
L 726.433884 85.739369 
L 726.433884 85.973995 
L 719.339161 85.973995 
L 719.339161 86.052204 
L 719.339161 86.169517 
L 716.551948 86.169517 
L 716.551948 86.247726 
L 716.551948 86.28683 
L 714.136364 86.325935 
L 714.136364 86.365039 
L 714.136364 86.521457 
L 711.061983 86.599665 
L 711.061983 86.63877 
L 710.157754 86.63877 
L 710.157754 86.716979 
L 710.157754 86.756083 
L 707.016746 86.795187 
L 707.016746 86.834292 
L 707.016746 86.990709 
L 702.373518 87.029814 
L 702.373518 87.068918 
L 702.373518 87.147127 
L 700.609091 87.186231 
L 700.609091 87.225336 
L 700.609091 87.26444 
L 694.811688 87.342649 
L 694.811688 87.381753 
L 691.111219 87.459962 
L 691.111219 87.499067 
L 680.318182 87.577275 
L 680.318182 137.709112 
L 674.055556 137.787321 
L 674.055556 137.826426 
L 664.946281 137.904634 
L 664.946281 137.982843 
L 663.954545 138.021948 
L 663.954545 138.061052 
L 663.954545 138.100156 
L 661.530303 138.139261 
L 661.530303 138.178365 
L 661.530303 138.21747 
L 660.027273 138.256574 
L 660.027273 138.295678 
L 660.027273 138.334783 
L 657.604478 138.412992 
L 657.604478 138.452096 
L 656.162338 138.452096 
L 656.162338 138.530305 
L 656.162338 138.608514 
L 653.619617 138.647618 
L 653.619617 138.686722 
L 653.619617 138.882244 
L 648.613636 138.960453 
L 648.613636 139.038662 
L 646.5 139.116871 
L 646.5 139.155975 
L 644.084416 139.19508 
L 644.084416 139.234184 
L 644.084416 139.273288 
L 641.297203 139.273288 
L 641.297203 139.351497 
L 641.297203 139.547019 
L 638.045455 139.625228 
L 638.045455 139.742541 
L 635.820574 139.82075 
L 635.820574 139.859854 
L 634.202479 139.859854 
L 634.202479 139.938063 
L 634.202479 140.290003 
L 631.227273 140.368211 
L 631.227273 140.44642 
L 629.590909 140.485525 
L 629.590909 140.524629 
L 629.590909 140.563733 
L 623.954545 140.641942 
L 623.954545 141.971492 
L 619.445455 141.971492 
L 619.445455 142.049701 
L 619.445455 142.088805 
L 616.909091 142.127909 
L 616.909091 142.167014 
L 616.909091 142.206118 
L 614.152174 142.284327 
L 614.152174 142.40164 
L 609.92115 142.479849 
L 609.92115 142.518953 
L 607.850649 142.518953 
L 607.850649 142.597162 
L 607.850649 144.278651 
L 600.222488 144.35686 
L 600.222488 144.669695 
L 598.5 144.7088 
L 598.5 144.747904 
L 598.5 144.787008 
L 597.309917 144.826113 
L 597.309917 144.865217 
L 597.309917 144.904322 
L 595.772727 144.904322 
L 595.772727 144.98253 
L 595.772727 145.412679 
L 592.857367 145.490888 
L 592.857367 145.529992 
L 589.981943 145.608201 
L 589.931405 145.686409 
L 589.269231 145.725514 
L 589.269231 145.764618 
L 589.269231 145.803723 
L 586.378788 145.881931 
L 586.378788 145.999245 
L 584.347666 146.077453 
L 584.347666 146.116558 
L 582.423445 146.194767 
L 582.423445 146.272975 
L 578.863636 146.31208 
L 578.863636 146.351184 
L 578.863636 153.194454 
L 570.041502 153.272663 
L 570.041502 153.311767 
L 567.590909 153.311767 
L 567.590909 153.389976 
L 567.590909 153.585498 
L 563.255245 153.624602 
L 563.255245 153.663707 
L 563.255245 154.172064 
L 559.111424 154.250272 
L 559.111424 154.289377 
L 557.873041 154.328481 
L 557.873041 154.367586 
L 557.873041 154.484899 
L 553.5 154.484899 
L 553.5 154.563108 
L 553.5 155.853553 
L 546.825359 155.853553 
L 546.825359 155.931762 
L 546.825359 156.00997 
L 541.971074 156.088179 
L 541.971074 156.596536 
L 538.281818 156.635641 
L 538.281818 156.674745 
L 538.281818 156.792058 
L 535.383117 156.831163 
L 535.383117 156.870267 
L 535.383117 157.026685 
L 531.120321 157.065789 
L 531.120321 157.104893 
L 531.120321 157.183102 
L 528.136364 157.183102 
L 528.136364 157.261311 
L 528.136364 157.378624 
L 525.93083 157.378624 
L 525.93083 157.456833 
L 525.93083 157.574146 
L 524.234266 157.613251 
L 524.234266 157.652355 
L 524.234266 157.691459 
L 521.795455 157.769668 
L 521.795455 157.847877 
L 517.990909 157.926086 
L 517.990909 157.96519 
L 511.227273 157.96519 
L 511.227273 158.043399 
L 511.227273 184.517076 
L 504.723776 184.595285 
L 504.723776 184.634389 
L 503.875494 184.673493 
L 503.875494 184.712598 
L 503.875494 184.751702 
L 501.495422 184.829911 
L 501.495422 184.869015 
L 499.149351 184.947224 
L 499.149351 184.986329 
L 497.7 185.064537 
L 497.7 185.142746 
L 495.855372 185.220955 
L 495.855372 185.299164 
L 493.42823 185.377373 
L 493.42823 185.416477 
L 491.334225 185.494686 
L 491.334225 185.572895 
L 490.090909 185.572895 
L 490.090909 185.651103 
L 490.090909 185.690208 
L 485.213287 185.768417 
L 485.213287 185.963938 
L 481.820158 186.042147 
L 481.820158 186.198565 
L 478.798879 186.276774 
L 478.798879 186.315878 
L 477.409091 186.394087 
L 477.409091 187.254384 
L 474.667076 187.332592 
L 474.667076 187.371697 
L 472.797521 187.449906 
L 472.797521 187.48901 
L 471.441176 187.528114 
L 471.441176 187.567219 
L 471.441176 187.606323 
L 468.954545 187.606323 
L 468.954545 187.684532 
L 468.954545 187.723636 
L 466.729665 187.801845 
L 466.729665 187.84095 
L 464.086777 187.919158 
L 463.981283 187.997367 
L 462.915584 187.997367 
L 462.915584 188.075576 
L 462.915584 190.109005 
L 460.00134 190.187213 
L 460.00134 190.226318 
L 458.386364 190.265422 
L 458.386364 190.304527 
L 458.386364 190.343631 
L 457.118182 190.382735 
L 457.118182 190.42184 
L 457.118182 190.578257 
L 454.863636 190.578257 
L 454.863636 190.656466 
L 454.863636 190.734675 
L 452.920063 190.812884 
L 452.920063 190.930197 
L 450.527972 191.008406 
L 450.527972 191.04751 
L 449.739669 191.04751 
L 449.739669 191.125719 
L 449.739669 191.634076 
L 446.192308 191.712285 
L 446.192308 191.868702 
L 443.590909 191.946911 
L 443.590909 192.064224 
L 440.0311 192.103329 
L 440.0311 192.142433 
L 440.0311 192.181538 
L 437.709486 192.259746 
L 437.709486 192.37706 
L 436.075758 192.37706 
L 436.075758 192.455268 
L 436.075758 192.533477 
L 433.928571 192.611686 
L 433.928571 192.65079 
L 432.078337 192.689895 
L 432.078337 192.728999 
L 432.078337 192.768104 
L 427.01776 192.846312 
L 427.01776 192.885417 
L 426.681818 192.924521 
L 426.681818 192.963626 
L 426.681818 203.091664 
L 421.045455 203.169873 
L 421.045455 203.208978 
L 417.935737 203.287186 
L 417.935737 203.326291 
L 416.536364 203.326291 
L 416.536364 203.4045 
L 416.536364 203.639126 
L 414.603896 203.67823 
L 414.603896 203.717335 
L 414.603896 203.795544 
L 411.762032 203.873752 
L 411.762032 203.951961 
L 409.772727 204.03017 
L 409.772727 204.069274 
L 407.171329 204.108379 
L 407.171329 204.147483 
L 407.171329 204.499423 
L 402.136364 204.577632 
L 402.136364 204.616736 
L 398.5 204.694945 
L 398.5 205.281511 
L 393.598814 205.281511 
L 393.598814 205.359719 
L 393.598814 205.437928 
L 390.448052 205.516137 
L 390.448052 205.828972 
L 386.633971 205.907181 
L 386.633971 206.024494 
L 384.409091 206.102703 
L 384.409091 206.180912 
L 377.35151 206.259121 
L 377.35151 206.298225 
L 375.954545 206.298225 
L 375.954545 206.376434 
L 375.954545 211.14717 
L 368.15035 211.186275 
L 368.15035 211.225379 
L 368.15035 211.264483 
L 363.272727 211.342692 
L 363.272727 211.381797 
L 357.508264 211.420901 
L 357.508264 211.460005 
L 357.508264 211.772841 
L 352.082888 211.811945 
L 352.082888 211.851049 
L 352.082888 212.007467 
L 347.967085 212.085676 
L 347.967085 212.12478 
L 342.136364 212.163885 
L 342.136364 212.202989 
L 342.136364 214.197313 
L 333.236842 214.236418 
L 333.236842 214.275522 
L 333.236842 214.314626 
L 329.129371 214.314626 
L 329.129371 214.392835 
L 329.129371 214.471044 
L 317.980519 214.510148 
L 317.980519 214.549253 
L 317.980519 215.68328 
L 299.863636 215.761489 
L 299.863636 216.504473 
L 285.772727 216.543577 
L 285.772727 216.582681 
L 285.772727 217.364769 
L 274.5 217.442978 
L 274.5 217.794918 
L 265.27686 217.834022 
L 265.27686 217.873127 
L 265.27686 218.068649 
L 257.590909 218.107753 
L 257.590909 218.146857 
L 257.590909 218.225066 
L 251.087413 218.225066 
L 251.087413 218.303275 
L 251.087413 218.342379 
L 229.409091 218.420588 
L 229.409091 218.459692 
L 173.045455 218.537901 
L 173.045455 504 
L 173.045455 504 
" style="fill:none;stroke:#8172b3;stroke-linecap:round;stroke-width:2.25;"/>
   </g>
   <g id="line2d_16">
    <path clip-path="url(#pe2e5bbc383)" d="M 933.954545 69.12 
L 933.954545 69.276418 
L 849.409091 69.315522 
L 849.409091 69.354626 
L 849.409091 72.639396 
L 807.136364 72.717605 
L 807.136364 72.795813 
L 781.772727 72.834918 
L 781.772727 72.874022 
L 781.772727 73.968945 
L 760.413876 74.00805 
L 760.413876 74.047154 
L 760.413876 74.125363 
L 752.785714 74.125363 
L 752.785714 74.203572 
L 752.785714 74.516407 
L 736.681818 74.555511 
L 736.681818 74.594616 
L 736.681818 74.63372 
L 722.590909 74.672824 
L 722.590909 74.711929 
L 722.590909 74.751033 
L 719.339161 74.751033 
L 719.339161 74.829242 
L 719.339161 74.946555 
L 716.551948 74.946555 
L 716.551948 75.024764 
L 716.551948 75.102973 
L 712.022727 75.181182 
L 712.022727 75.220286 
L 707.016746 75.25939 
L 707.016746 75.298495 
L 707.016746 75.376704 
L 699.106061 75.454912 
L 699.106061 75.494017 
L 694.811688 75.572226 
L 694.811688 75.61133 
L 689.541322 75.689539 
L 689.541322 75.728643 
L 680.318182 75.728643 
L 680.318182 75.806852 
L 680.318182 114.950353 
L 666.227273 115.028562 
L 666.227273 115.067667 
L 664.946281 115.106771 
L 664.946281 115.145875 
L 664.946281 115.18498 
L 661.054661 115.263189 
L 661.054661 115.302293 
L 658.262846 115.380502 
L 658.262846 115.419606 
L 653.619617 115.497815 
L 653.619617 115.615128 
L 646.5 115.693337 
L 646.5 115.732441 
L 641.297203 115.81065 
L 641.297203 115.967068 
L 638.045455 116.006172 
L 638.045455 116.045277 
L 638.045455 116.084381 
L 634.202479 116.123485 
L 634.202479 116.16259 
L 634.202479 116.514529 
L 630.585561 116.592738 
L 630.585561 116.631842 
L 627.319539 116.710051 
L 627.319539 116.749156 
L 623.954545 116.749156 
L 623.954545 116.827364 
L 623.954545 117.883183 
L 619.445455 117.922288 
L 619.445455 117.961392 
L 619.445455 118.078705 
L 616.909091 118.156914 
L 616.909091 118.352436 
L 613.57177 118.430645 
L 613.57177 118.469749 
L 607.850649 118.469749 
L 607.850649 118.547958 
L 607.850649 120.073029 
L 602.276224 120.151238 
L 602.276224 120.190343 
L 600.222488 120.190343 
L 600.222488 120.268551 
L 600.222488 120.503178 
L 597.0346 120.581387 
L 597.0346 120.659595 
L 595.772727 120.6987 
L 595.772727 120.737804 
L 595.772727 120.933326 
L 590.799465 121.011535 
L 590.799465 121.089744 
L 588.086777 121.167953 
L 588.086777 121.246161 
L 585.741911 121.32437 
L 585.741911 121.363475 
L 580.902924 121.441683 
L 580.902924 121.480788 
L 578.863636 121.480788 
L 578.863636 121.558996 
L 578.863636 128.050326 
L 570.793388 128.128535 
L 570.793388 128.16764 
L 570.041502 128.16764 
L 570.041502 128.245848 
L 570.041502 128.363162 
L 567.590909 128.363162 
L 567.590909 128.44137 
L 567.590909 128.480475 
L 563.255245 128.558684 
L 563.255245 128.715101 
L 553.5 128.754206 
L 553.5 128.79331 
L 553.5 129.888233 
L 546.825359 129.966442 
L 546.825359 130.122859 
L 541.971074 130.161964 
L 541.971074 130.201068 
L 541.971074 130.553008 
L 538.281818 130.553008 
L 538.281818 130.631217 
L 538.281818 130.826739 
L 535.383117 130.904947 
L 535.383117 131.256887 
L 533.045455 131.335096 
L 533.045455 131.3742 
L 531.120321 131.413305 
L 531.120321 131.452409 
L 531.120321 131.491513 
L 528.136364 131.530618 
L 528.136364 131.569722 
L 528.136364 131.72614 
L 524.234266 131.804349 
L 524.234266 131.843453 
L 522.315201 131.921662 
L 522.315201 131.999871 
L 518.422631 132.078079 
L 518.422631 132.117184 
L 511.227273 132.195393 
L 511.227273 158.551756 
L 502.772727 158.629965 
L 502.772727 158.669069 
L 499.149351 158.747278 
L 499.149351 158.825487 
L 497.7 158.864591 
L 497.7 158.903696 
L 497.7 158.981905 
L 494.730599 159.060113 
L 494.730599 159.099218 
L 493.42823 159.099218 
L 493.42823 159.177426 
L 493.42823 159.29474 
L 487.904389 159.372948 
L 487.904389 159.451157 
L 485.213287 159.451157 
L 485.213287 159.529366 
L 485.213287 159.92041 
L 481.820158 159.959514 
L 481.820158 159.998619 
L 481.820158 160.076828 
L 477.409091 160.155036 
L 477.409091 160.819811 
L 473.122279 160.89802 
L 473.122279 160.937124 
L 471.441176 160.937124 
L 471.441176 161.015333 
L 471.441176 161.132646 
L 467.590909 161.171751 
L 467.590909 161.210855 
L 467.590909 161.24996 
L 462.915584 161.328168 
L 462.915584 163.400701 
L 459.764822 163.439806 
L 459.764822 163.47891 
L 459.764822 163.518015 
L 457.118182 163.596223 
L 457.118182 163.752641 
L 454.863636 163.752641 
L 454.863636 163.83085 
L 454.863636 163.987267 
L 452.045455 164.065476 
L 452.045455 164.104581 
L 449.739669 164.104581 
L 449.739669 164.182789 
L 449.739669 164.652042 
L 446.192308 164.730251 
L 446.192308 164.964877 
L 443.590909 165.043086 
L 443.590909 165.316817 
L 441.038593 165.395026 
L 441.038593 165.43413 
L 440.0311 165.473234 
L 440.0311 165.512339 
L 440.0311 165.590548 
L 437.709486 165.668756 
L 437.709486 165.78607 
L 436.075758 165.864278 
L 436.075758 165.942487 
L 434.215572 166.020696 
L 434.215572 166.0598 
L 430.98074 166.138009 
L 430.98074 166.177114 
L 426.681818 166.177114 
L 426.681818 166.255322 
L 426.681818 178.260372 
L 421.896226 178.338581 
L 421.896226 178.41679 
L 420.178322 178.494999 
L 420.178322 178.534103 
L 418.995868 178.612312 
L 418.995868 178.690521 
L 417.287879 178.768729 
L 417.287879 178.807834 
L 416.536364 178.807834 
L 416.536364 178.886043 
L 416.536364 179.003356 
L 414.603896 179.081565 
L 414.603896 179.159773 
L 413.969144 179.237982 
L 413.969144 179.277087 
L 411.762032 179.355295 
L 411.762032 179.511713 
L 410.829545 179.589922 
L 410.829545 179.668131 
L 408.564935 179.746339 
L 408.564935 179.785444 
L 407.171329 179.824548 
L 407.171329 179.863653 
L 407.171329 180.215592 
L 404.433014 180.293801 
L 404.433014 180.332905 
L 403.623967 180.332905 
L 403.623967 180.411114 
L 403.623967 180.489323 
L 399.310988 180.567532 
L 399.310988 180.606636 
L 398.5 180.606636 
L 398.5 180.684845 
L 398.5 181.62335 
L 394.400826 181.701559 
L 394.400826 181.740664 
L 393.598814 181.740664 
L 393.598814 181.818872 
L 393.598814 182.053499 
L 390.448052 182.131708 
L 390.448052 182.32723 
L 388.252066 182.405438 
L 388.252066 182.444543 
L 386.633971 182.444543 
L 386.633971 182.522752 
L 386.633971 182.679169 
L 384.409091 182.718274 
L 384.409091 182.757378 
L 384.409091 182.874691 
L 382.951411 182.874691 
L 382.951411 182.9529 
L 382.951411 183.070213 
L 381.329621 183.148422 
L 381.329621 183.187526 
L 380.095547 183.265735 
L 380.095547 183.304839 
L 377.590909 183.383048 
L 377.590909 183.422153 
L 375.954545 183.461257 
L 375.954545 183.500361 
L 375.954545 189.600647 
L 372.331169 189.678856 
L 372.331169 189.717961 
L 369.409091 189.796169 
L 369.409091 189.835274 
L 368.15035 189.874378 
L 368.15035 189.913483 
L 368.15035 190.0699 
L 366.292208 190.109005 
L 366.292208 190.148109 
L 366.292208 190.343631 
L 364.986486 190.42184 
L 364.986486 190.460944 
L 363.272727 190.460944 
L 363.272727 190.539153 
L 363.272727 190.617362 
L 360.924242 190.656466 
L 360.924242 190.695571 
L 360.924242 190.734675 
L 359.935407 190.812884 
L 359.935407 190.891093 
L 357.508264 190.930197 
L 357.508264 190.969301 
L 357.508264 191.555867 
L 354.214286 191.634076 
L 354.214286 191.712285 
L 352.488868 191.790494 
L 352.488868 191.829598 
L 352.082888 191.829598 
L 352.082888 191.907807 
L 352.082888 191.986016 
L 349.488142 192.064224 
L 349.488142 192.142433 
L 347.666015 192.220642 
L 347.666015 192.259746 
L 345.734043 192.337955 
L 345.734043 192.37706 
L 342.136364 192.37706 
L 342.136364 192.455268 
L 342.136364 195.857351 
L 339.364382 195.93556 
L 339.364382 195.974664 
L 335.372727 196.052873 
L 335.372727 196.170186 
L 329.129371 196.209291 
L 329.129371 196.248395 
L 329.129371 196.522126 
L 325.227273 196.522126 
L 325.227273 196.600335 
L 325.227273 196.639439 
L 317.980519 196.678543 
L 317.980519 196.717648 
L 317.980519 198.51645 
L 311.392562 198.51645 
L 311.392562 198.594659 
L 311.392562 198.633763 
L 308.318182 198.672868 
L 308.318182 198.711972 
L 308.318182 198.751076 
L 306.538278 198.751076 
L 306.538278 198.829285 
L 306.538278 198.86839 
L 303.115385 198.946598 
L 303.115385 198.985703 
L 299.863636 198.985703 
L 299.863636 199.063912 
L 299.863636 200.041521 
L 294.790909 200.080626 
L 294.790909 200.11973 
L 294.790909 200.158835 
L 292.403743 200.158835 
L 292.403743 200.237043 
L 292.403743 200.276148 
L 285.772727 200.276148 
L 285.772727 200.354357 
L 285.772727 201.175549 
L 279.839713 201.214653 
L 279.839713 201.253758 
L 279.839713 201.292862 
L 274.5 201.331967 
L 274.5 201.371071 
L 274.5 201.957637 
L 265.27686 201.996741 
L 265.27686 202.035846 
L 265.27686 202.348681 
L 257.590909 202.42689 
L 257.590909 202.505098 
L 251.087413 202.505098 
L 251.087413 202.583307 
L 251.087413 202.661516 
L 245.512987 202.70062 
L 245.512987 202.739725 
L 245.512987 202.778829 
L 229.409091 202.857038 
L 229.409091 202.974351 
L 223.772727 203.05256 
L 223.772727 203.091664 
L 205.772727 203.169873 
L 205.772727 203.208978 
L 173.045455 203.208978 
L 173.045455 203.287186 
L 173.045455 504 
L 173.045455 504 
" style="fill:none;stroke:#c44e52;stroke-linecap:round;stroke-width:2.25;"/>
   </g>
   <g id="line2d_17">
    <path clip-path="url(#pe2e5bbc383)" d="M 933.954545 69.12 
L 933.954545 69.198209 
L 849.409091 69.198209 
L 849.409091 69.276418 
L 849.409091 71.466264 
L 781.772727 71.544473 
L 781.772727 72.482978 
L 760.413876 72.561187 
L 760.413876 72.639396 
L 752.785714 72.639396 
L 752.785714 72.717605 
L 752.785714 72.991335 
L 732.794671 73.069544 
L 732.794671 73.108649 
L 722.590909 73.147753 
L 722.590909 73.186857 
L 722.590909 73.225962 
L 719.339161 73.225962 
L 719.339161 73.30417 
L 719.339161 73.460588 
L 714.136364 73.538797 
L 714.136364 73.617006 
L 707.016746 73.65611 
L 707.016746 73.695214 
L 707.016746 73.734319 
L 692.690687 73.812528 
L 692.690687 73.851632 
L 680.318182 73.851632 
L 680.318182 73.929841 
L 680.318182 110.687974 
L 666.608108 110.766183 
L 666.608108 110.805287 
L 663.954545 110.883496 
L 663.954545 110.9226 
L 660.027273 111.000809 
L 660.027273 111.039914 
L 658.262846 111.079018 
L 658.262846 111.118122 
L 658.262846 111.157227 
L 653.619617 111.235436 
L 653.619617 111.391853 
L 646.5 111.470062 
L 646.5 111.548271 
L 641.297203 111.62648 
L 641.297203 111.782897 
L 638.045455 111.822002 
L 638.045455 111.861106 
L 638.045455 111.939315 
L 634.202479 112.017524 
L 634.202479 112.330359 
L 631.227273 112.408568 
L 631.227273 112.447672 
L 629.590909 112.486776 
L 629.590909 112.525881 
L 629.590909 112.60409 
L 623.954545 112.682298 
L 623.954545 113.620804 
L 618.830579 113.699013 
L 618.830579 113.777221 
L 616.909091 113.816326 
L 616.909091 113.85543 
L 616.909091 113.933639 
L 607.850649 114.011848 
L 607.850649 115.615128 
L 602.276224 115.693337 
L 602.276224 115.732441 
L 600.222488 115.732441 
L 600.222488 115.81065 
L 600.222488 116.006172 
L 597.0346 116.084381 
L 597.0346 116.123485 
L 595.772727 116.123485 
L 595.772727 116.201694 
L 595.772727 116.358112 
L 590.799465 116.43632 
L 590.799465 116.514529 
L 589.269231 116.592738 
L 589.269231 116.631842 
L 586.378788 116.710051 
L 586.378788 116.78826 
L 582.099089 116.866469 
L 582.099089 116.905573 
L 578.863636 116.944678 
L 578.863636 116.983782 
L 578.863636 123.318694 
L 571.616883 123.396903 
L 571.616883 123.475112 
L 570.041502 123.475112 
L 570.041502 123.553321 
L 570.041502 123.709738 
L 567.590909 123.748843 
L 567.590909 123.787947 
L 567.590909 123.866156 
L 563.255245 123.944365 
L 563.255245 124.022574 
L 553.932827 124.100782 
L 553.932827 124.139887 
L 553.5 124.178991 
L 553.5 124.218095 
L 553.5 125.23481 
L 549.409091 125.313019 
L 549.409091 125.352123 
L 547.735537 125.430332 
L 547.735537 125.469436 
L 546.825359 125.469436 
L 546.825359 125.547645 
L 546.825359 125.625854 
L 541.971074 125.625854 
L 541.971074 125.704063 
L 541.971074 126.095107 
L 538.281818 126.095107 
L 538.281818 126.173315 
L 538.281818 126.251524 
L 535.383117 126.251524 
L 535.383117 126.329733 
L 535.383117 126.564359 
L 531.120321 126.603464 
L 531.120321 126.642568 
L 531.120321 126.720777 
L 528.136364 126.759881 
L 528.136364 126.798986 
L 528.136364 126.916299 
L 525.93083 126.994508 
L 525.93083 127.033612 
L 524.234266 127.072716 
L 524.234266 127.111821 
L 524.234266 127.150925 
L 522.315201 127.229134 
L 522.315201 127.268238 
L 516.901464 127.346447 
L 516.901464 127.385552 
L 511.227273 127.385552 
L 511.227273 127.46376 
L 511.227273 153.937437 
L 504.723776 154.015646 
L 504.723776 154.05475 
L 499.197987 154.132959 
L 499.149351 154.289377 
L 497.7 154.289377 
L 497.7 154.367586 
L 497.7 154.445794 
L 494.730599 154.524003 
L 494.730599 154.563108 
L 493.42823 154.563108 
L 493.42823 154.641316 
L 493.42823 154.75863 
L 485.213287 154.797734 
L 485.213287 154.836838 
L 485.213287 155.227882 
L 479.323328 155.306091 
L 479.323328 155.345196 
L 477.409091 155.345196 
L 477.409091 155.423404 
L 477.409091 156.088179 
L 472.419523 156.166388 
L 472.419523 156.205492 
L 471.441176 156.244597 
L 471.441176 156.283701 
L 471.441176 156.401014 
L 468.954545 156.479223 
L 468.954545 156.518327 
L 464.900996 156.596536 
L 464.900996 156.635641 
L 462.915584 156.635641 
L 462.915584 156.713849 
L 462.915584 158.590861 
L 458.386364 158.669069 
L 458.386364 158.708174 
L 457.118182 158.747278 
L 457.118182 158.786383 
L 457.118182 158.903696 
L 454.863636 158.9428 
L 454.863636 158.981905 
L 454.863636 159.255635 
L 452.920063 159.255635 
L 452.920063 159.333844 
L 452.920063 159.372948 
L 449.739669 159.451157 
L 449.739669 159.92041 
L 446.192308 159.959514 
L 446.192308 159.998619 
L 446.192308 160.194141 
L 443.590909 160.233245 
L 443.590909 160.27235 
L 443.590909 160.389663 
L 440.0311 160.467872 
L 440.0311 160.663394 
L 437.709486 160.702498 
L 437.709486 160.741602 
L 437.709486 160.780707 
L 436.075758 160.858916 
L 436.075758 160.937124 
L 434.215572 161.015333 
L 434.215572 161.054438 
L 432.868071 161.132646 
L 432.868071 161.171751 
L 432.078337 161.171751 
L 432.078337 161.24996 
L 432.078337 161.289064 
L 426.681818 161.328168 
L 426.681818 161.367273 
L 426.681818 173.567845 
L 421.045455 173.646053 
L 421.045455 173.685158 
L 417.935737 173.763367 
L 417.935737 173.802471 
L 416.536364 173.88068 
L 416.536364 173.997993 
L 415.152893 174.076202 
L 415.152893 174.115306 
L 414.603896 174.115306 
L 414.603896 174.193515 
L 414.603896 174.232619 
L 412.847107 174.310828 
L 412.847107 174.349933 
L 411.762032 174.389037 
L 411.762032 174.428141 
L 411.762032 174.623663 
L 410.829545 174.701872 
L 410.829545 174.740977 
L 409.772727 174.780081 
L 409.772727 174.819185 
L 409.772727 174.85829 
L 407.171329 174.897394 
L 407.171329 174.936499 
L 407.171329 175.444856 
L 404.433014 175.523064 
L 404.433014 175.562169 
L 403.623967 175.601273 
L 403.623967 175.640378 
L 403.601526 175.8359 
L 401.318182 175.914108 
L 401.318182 175.953213 
L 398.5 175.992317 
L 398.5 176.031422 
L 398.5 177.204554 
L 394.400826 177.282762 
L 394.400826 177.321867 
L 393.598814 177.321867 
L 393.598814 177.400076 
L 393.598814 177.634702 
L 392.012099 177.712911 
L 392.012099 177.752015 
L 390.448052 177.752015 
L 390.448052 177.830224 
L 390.448052 177.908433 
L 386.633971 177.947537 
L 386.633971 177.986641 
L 386.562393 178.103955 
L 384.409091 178.143059 
L 384.409091 178.182163 
L 384.409091 178.260372 
L 383.177846 178.338581 
L 383.177846 178.377685 
L 382.951411 178.377685 
L 382.951411 178.455894 
L 382.951411 178.573207 
L 380.566116 178.651416 
L 380.566116 178.690521 
L 375.954545 178.768729 
L 375.954545 185.338268 
L 371.923239 185.416477 
L 371.923239 185.455581 
L 369.409091 185.53379 
L 369.409091 185.572895 
L 368.15035 185.651103 
L 368.15035 185.768417 
L 366.292208 185.846625 
L 366.292208 186.081252 
L 364.986486 186.15946 
L 364.986486 186.198565 
L 361.461039 186.276774 
L 361.461039 186.315878 
L 360.346154 186.394087 
L 360.346154 186.433191 
L 359.935407 186.472296 
L 359.935407 186.5114 
L 359.935407 186.550504 
L 357.508264 186.628713 
L 357.508264 187.293488 
L 354.214286 187.293488 
L 354.214286 187.371697 
L 354.214286 187.410801 
L 352.082888 187.48901 
L 352.082888 187.645428 
L 349.488142 187.723636 
L 349.488142 187.880054 
L 347.967085 187.919158 
L 347.967085 187.958263 
L 347.967085 188.036472 
L 345.539304 188.11468 
L 345.539304 188.153785 
L 342.136364 188.192889 
L 342.136364 188.231994 
L 342.136364 191.594972 
L 339.612619 191.67318 
L 339.612619 191.712285 
L 338.543616 191.790494 
L 338.543616 191.829598 
L 335.372727 191.868702 
L 335.372727 191.907807 
L 335.372727 191.986016 
L 332.18984 192.064224 
L 332.18984 192.103329 
L 329.129371 192.142433 
L 329.129371 192.181538 
L 329.129371 192.533477 
L 325.227273 192.611686 
L 325.227273 192.728999 
L 323.348485 192.807208 
L 323.348485 192.846312 
L 317.980519 192.846312 
L 317.980519 192.924521 
L 317.980519 194.762428 
L 311.392562 194.801532 
L 311.392562 194.840637 
L 311.392562 194.918845 
L 306.538278 194.997054 
L 306.538278 195.114367 
L 305.37747 195.114367 
L 305.37747 195.192576 
L 305.37747 195.231681 
L 299.863636 195.270785 
L 299.863636 195.309889 
L 299.863636 196.483021 
L 292.403743 196.56123 
L 292.403743 196.678543 
L 285.772727 196.678543 
L 285.772727 196.756752 
L 285.772727 197.577944 
L 279.839713 197.617049 
L 279.839713 197.656153 
L 279.839713 197.734362 
L 274.5 197.812571 
L 274.5 198.360032 
L 265.27686 198.438241 
L 265.27686 198.751076 
L 257.590909 198.829285 
L 257.590909 198.985703 
L 251.087413 198.985703 
L 251.087413 199.063912 
L 251.087413 199.14212 
L 245.512987 199.181225 
L 245.512987 199.220329 
L 245.512987 199.259434 
L 240.681818 199.298538 
L 240.681818 199.337642 
L 240.681818 199.376747 
L 229.409091 199.454955 
L 229.409091 199.572269 
L 223.772727 199.650477 
L 223.772727 199.689582 
L 215.318182 199.767791 
L 215.318182 199.806895 
L 173.045455 199.845999 
L 173.045455 199.885104 
L 173.045455 504 
L 173.045455 504 
" style="fill:none;stroke:#55a868;stroke-linecap:round;stroke-width:2.25;"/>
   </g>
   <g id="line2d_18">
    <path clip-path="url(#pe2e5bbc383)" d="M 849.409091 69.12 
L 849.409091 69.628357 
L 781.772727 69.628357 
L 781.772727 69.706566 
L 781.772727 69.74567 
L 680.318182 69.823879 
L 680.318182 97.509792 
L 660.027273 97.588001 
L 660.027273 97.66621 
L 653.619617 97.66621 
L 653.619617 97.744419 
L 653.619617 97.861732 
L 646.5 97.939941 
L 646.5 97.979045 
L 644.084416 97.979045 
L 644.084416 98.057254 
L 644.084416 98.096358 
L 638.045455 98.174567 
L 638.045455 98.252776 
L 634.202479 98.252776 
L 634.202479 98.330985 
L 634.202479 98.448298 
L 625.477887 98.526507 
L 625.477887 98.565611 
L 623.954545 98.565611 
L 623.954545 98.64382 
L 623.954545 98.917551 
L 612.681818 98.995759 
L 612.681818 99.034864 
L 607.850649 99.034864 
L 607.850649 99.113073 
L 607.850649 100.129787 
L 600.222488 100.168891 
L 600.222488 100.207996 
L 600.222488 100.2471 
L 595.772727 100.286204 
L 595.772727 100.325309 
L 595.772727 100.442622 
L 588.086777 100.481726 
L 588.086777 100.520831 
L 588.086777 100.559935 
L 581.681818 100.638144 
L 581.681818 100.677248 
L 578.863636 100.677248 
L 578.863636 100.755457 
L 578.863636 105.682611 
L 570.041502 105.76082 
L 570.041502 105.839029 
L 567.590909 105.878133 
L 567.590909 105.917238 
L 567.590909 105.995446 
L 565.772727 106.034551 
L 565.772727 106.073655 
L 565.772727 106.11276 
L 563.255245 106.11276 
L 563.255245 106.190968 
L 563.255245 106.347386 
L 559.538961 106.425595 
L 559.538961 106.464699 
L 553.5 106.503804 
L 553.5 106.542908 
L 553.5 107.3641 
L 548.80303 107.403205 
L 548.80303 107.442309 
L 548.80303 107.520518 
L 546.825359 107.520518 
L 546.825359 107.598727 
L 546.825359 107.71604 
L 541.971074 107.71604 
L 541.971074 107.794249 
L 541.971074 107.989771 
L 538.281818 107.989771 
L 538.281818 108.067979 
L 538.281818 108.107084 
L 535.383117 108.185293 
L 535.383117 108.380815 
L 532.631185 108.459023 
L 532.631185 108.498128 
L 531.120321 108.498128 
L 531.120321 108.576337 
L 531.120321 108.654545 
L 528.136364 108.654545 
L 528.136364 108.732754 
L 528.136364 108.771859 
L 525.93083 108.771859 
L 525.93083 108.850067 
L 525.93083 108.928276 
L 522.888715 109.006485 
L 522.888715 109.045589 
L 520.126794 109.123798 
L 520.126794 109.162903 
L 511.227273 109.241111 
L 511.227273 132.586436 
L 505.683308 132.664645 
L 505.683308 132.70375 
L 495.855372 132.781958 
L 495.855372 132.899272 
L 493.42823 132.899272 
L 493.42823 132.97748 
L 493.42823 133.133898 
L 490.090909 133.173002 
L 490.090909 133.212107 
L 490.090909 133.290316 
L 487.071429 133.368524 
L 487.071429 133.446733 
L 485.213287 133.446733 
L 485.213287 133.524942 
L 485.213287 133.68136 
L 481.820158 133.68136 
L 481.820158 133.759568 
L 481.820158 133.798673 
L 477.409091 133.876882 
L 477.409091 134.463448 
L 471.441176 134.541656 
L 471.441176 134.619865 
L 465.702797 134.698074 
L 465.702797 134.737178 
L 462.915584 134.737178 
L 462.915584 134.815387 
L 462.915584 136.496876 
L 455.78763 136.575085 
L 455.78763 136.614189 
L 454.863636 136.653294 
L 454.863636 136.692398 
L 454.863636 136.731503 
L 452.045455 136.809711 
L 452.045455 136.848816 
L 449.739669 136.848816 
L 449.739669 136.927025 
L 449.739669 137.318069 
L 443.590909 137.396277 
L 443.590909 137.591799 
L 440.0311 137.670008 
L 440.0311 137.826426 
L 436.827273 137.86553 
L 436.827273 137.904634 
L 436.827273 137.982843 
L 434.863636 138.061052 
L 434.863636 138.100156 
L 432.580338 138.178365 
L 432.580338 138.21747 
L 426.681818 138.256574 
L 426.681818 138.295678 
L 426.681818 149.401327 
L 421.505566 149.440432 
L 421.505566 149.479536 
L 421.505566 149.51864 
L 418.995868 149.51864 
L 418.995868 149.596849 
L 418.995868 149.635954 
L 416.536364 149.714162 
L 416.536364 149.87058 
L 414.603896 149.948789 
L 414.603896 149.987893 
L 411.762032 150.066102 
L 411.762032 150.144311 
L 409.772727 150.183415 
L 409.772727 150.22252 
L 409.772727 150.261624 
L 407.171329 150.300728 
L 407.171329 150.339833 
L 407.171329 150.652668 
L 404.433014 150.730877 
L 404.433014 150.769981 
L 402.753859 150.84819 
L 402.753859 150.926399 
L 402.136364 150.926399 
L 402.136364 151.004607 
L 402.136364 151.043712 
L 398.5 151.121921 
L 398.5 152.295053 
L 395.750554 152.373261 
L 395.750554 152.412366 
L 393.598814 152.490575 
L 393.598814 152.646992 
L 390.448052 152.725201 
L 390.448052 152.959827 
L 388.252066 153.038036 
L 388.252066 153.077141 
L 386.633971 153.077141 
L 386.633971 153.155349 
L 386.633971 153.233558 
L 384.409091 153.272663 
L 384.409091 153.311767 
L 384.409091 153.389976 
L 382.951411 153.42908 
L 382.951411 153.468185 
L 382.951411 153.507289 
L 379.125 153.585498 
L 379.125 153.624602 
L 375.954545 153.624602 
L 375.954545 153.702811 
L 375.954545 161.171751 
L 370.318182 161.24996 
L 370.318182 161.289064 
L 368.15035 161.367273 
L 368.15035 161.641004 
L 367.186869 161.719212 
L 367.186869 161.758317 
L 366.292208 161.758317 
L 366.292208 161.836525 
L 366.292208 161.914734 
L 363.272727 161.953839 
L 363.272727 161.992943 
L 363.272727 162.227569 
L 360.924242 162.227569 
L 360.924242 162.305778 
L 360.924242 162.5013 
L 357.508264 162.540405 
L 357.508264 162.579509 
L 357.508264 163.166075 
L 354.214286 163.205179 
L 354.214286 163.244284 
L 354.214286 163.361597 
L 352.082888 163.400701 
L 352.082888 163.439806 
L 352.082888 163.674432 
L 350.590909 163.713537 
L 350.590909 163.752641 
L 350.590909 163.791745 
L 349.488142 163.869954 
L 349.488142 164.026372 
L 347.967085 164.065476 
L 347.967085 164.104581 
L 347.967085 164.182789 
L 345.734043 164.260998 
L 345.734043 164.300103 
L 343.632743 164.378311 
L 343.632743 164.417416 
L 342.136364 164.45652 
L 342.136364 164.495624 
L 342.136364 168.406064 
L 338.685529 168.484273 
L 338.631889 168.640691 
L 336.681818 168.718899 
L 336.681818 168.758004 
L 335.372727 168.758004 
L 335.372727 168.836213 
L 335.372727 168.953526 
L 333.236842 168.99263 
L 333.236842 169.031735 
L 333.236842 169.266361 
L 331.568182 169.305465 
L 331.568182 169.34457 
L 331.568182 169.422779 
L 329.129371 169.422779 
L 329.129371 169.500987 
L 329.129371 170.165762 
L 327.038961 170.243971 
L 327.038961 170.283075 
L 325.227273 170.283075 
L 325.227273 170.361284 
L 325.227273 170.59591 
L 324.147969 170.674119 
L 324.078111 170.791432 
L 321.845455 170.869641 
L 321.845455 170.908746 
L 320.732451 170.986954 
L 320.732451 171.026059 
L 317.980519 171.065163 
L 317.980519 171.104268 
L 317.980519 173.646053 
L 312.982759 173.685158 
L 312.982759 173.724262 
L 312.982759 173.841575 
L 311.392562 173.88068 
L 311.392562 173.919784 
L 311.392562 174.115306 
L 308.318182 174.193515 
L 308.318182 174.584559 
L 306.100596 174.662768 
L 306.100596 174.701872 
L 305.37747 174.701872 
L 305.37747 174.780081 
L 305.37747 175.014707 
L 304.560606 175.092916 
L 304.560606 175.171125 
L 302.561896 175.210229 
L 302.561896 175.249334 
L 302.561896 175.327542 
L 299.863636 175.366647 
L 299.863636 175.405751 
L 299.863636 176.930823 
L 296.020661 177.009032 
L 296.020661 177.048136 
L 294.790909 177.048136 
L 294.790909 177.126345 
L 294.790909 177.243658 
L 292.403743 177.282762 
L 292.403743 177.321867 
L 292.403743 177.43918 
L 290.108392 177.43918 
L 290.108392 177.517389 
L 290.108392 177.634702 
L 288.334711 177.673806 
L 288.334711 177.712911 
L 288.334711 177.752015 
L 285.772727 177.752015 
L 285.772727 177.830224 
L 285.772727 179.04246 
L 283.322134 179.081565 
L 283.322134 179.120669 
L 283.322134 179.159773 
L 281.746753 179.198878 
L 281.746753 179.237982 
L 281.746753 179.277087 
L 279.839713 179.277087 
L 279.839713 179.355295 
L 279.839713 179.472609 
L 277.998433 179.472609 
L 277.998433 179.550817 
L 277.998433 179.589922 
L 276.570501 179.629026 
L 276.570501 179.668131 
L 276.570501 179.707235 
L 274.5 179.746339 
L 274.5 179.785444 
L 274.5 180.841262 
L 269.668831 180.919471 
L 269.668831 181.036784 
L 265.27686 181.114993 
L 265.27686 181.701559 
L 262.04067 181.740664 
L 262.04067 181.779768 
L 262.04067 181.818872 
L 257.590909 181.897081 
L 257.590909 182.092603 
L 251.087413 182.170812 
L 251.087413 182.60096 
L 240.681818 182.679169 
L 240.681818 182.718274 
L 236.454545 182.718274 
L 236.454545 182.796482 
L 236.454545 182.874691 
L 229.409091 182.913796 
L 229.409091 182.9529 
L 229.409091 183.109318 
L 226.442584 183.148422 
L 226.442584 183.187526 
L 226.442584 183.226631 
L 221.357143 183.304839 
L 221.357143 183.343944 
L 217.156126 183.422153 
L 217.156126 183.539466 
L 213.627273 183.617675 
L 213.627273 183.656779 
L 206.863636 183.734988 
L 206.863636 183.774092 
L 173.045455 183.813197 
L 173.045455 183.852301 
L 173.045455 504 
L 173.045455 504 
" style="fill:none;stroke:#dd8452;stroke-linecap:round;stroke-width:2.25;"/>
   </g>
   <g id="line2d_19">
    <path clip-path="url(#pe2e5bbc383)" d="M 680.318182 69.12 
L 680.318182 69.823879 
L 511.227273 69.823879 
L 511.227273 69.902088 
L 511.227273 70.019401 
L 375.954545 70.09761 
L 375.954545 70.214923 
L 285.772727 70.293132 
L 285.772727 70.332236 
L 201.227273 70.410445 
L 201.227273 70.44955 
L 195.100791 70.527758 
L 195.100791 70.566863 
L 189.677347 70.645071 
L 189.677347 70.684176 
L 183.090459 70.762385 
L 183.090459 70.801489 
L 175.673811 70.879698 
L 175.581818 70.957907 
L 175.020239 71.036115 
L 175.020239 71.07522 
L 174.389223 71.153429 
L 174.389223 71.192533 
L 173.045455 71.192533 
L 173.045455 71.270742 
L 173.045455 504 
L 173.045455 504 
" style="fill:none;stroke:#4c72b0;stroke-linecap:round;stroke-width:2.25;"/>
   </g>
   <g id="line2d_20">
    <path clip-path="url(#pe2e5bbc383)" d="M 223.772727 504 
L 223.772727 69.12 
" style="fill:none;stroke:#ff0000;stroke-dasharray:11.1,4.8;stroke-dashoffset:0;stroke-width:3;"/>
   </g>
   <g id="patch_3">
    <path d="M 135 504 
L 135 69.12 
" style="fill:none;stroke:#cccccc;stroke-linecap:square;stroke-linejoin:miter;stroke-width:1.875;"/>
   </g>
   <g id="patch_4">
    <path d="M 972 504 
L 972 69.12 
" style="fill:none;stroke:#cccccc;stroke-linecap:square;stroke-linejoin:miter;stroke-width:1.875;"/>
   </g>
   <g id="patch_5">
    <path d="M 135 504 
L 972 504 
" style="fill:none;stroke:#cccccc;stroke-linecap:square;stroke-linejoin:miter;stroke-width:1.875;"/>
   </g>
   <g id="patch_6">
    <path d="M 135 69.12 
L 972 69.12 
" style="fill:none;stroke:#cccccc;stroke-linecap:square;stroke-linejoin:miter;stroke-width:1.875;"/>
   </g>
   <g id="text_17">
    <!-- CDF logical job name distribution - all sizes -->
    <g style="fill:#262626;" transform="translate(359.468437 63.12)scale(0.18 -0.18)">
     <defs>
      <path d="M 64.40625 67.28125 
L 64.40625 56.890625 
Q 59.421875 61.53125 53.78125 63.8125 
Q 48.140625 66.109375 41.796875 66.109375 
Q 29.296875 66.109375 22.65625 58.46875 
Q 16.015625 50.828125 16.015625 36.375 
Q 16.015625 21.96875 22.65625 14.328125 
Q 29.296875 6.6875 41.796875 6.6875 
Q 48.140625 6.6875 53.78125 8.984375 
Q 59.421875 11.28125 64.40625 15.921875 
L 64.40625 5.609375 
Q 59.234375 2.09375 53.4375 0.328125 
Q 47.65625 -1.421875 41.21875 -1.421875 
Q 24.65625 -1.421875 15.125 8.703125 
Q 5.609375 18.84375 5.609375 36.375 
Q 5.609375 53.953125 15.125 64.078125 
Q 24.65625 74.21875 41.21875 74.21875 
Q 47.75 74.21875 53.53125 72.484375 
Q 59.328125 70.75 64.40625 67.28125 
z
" id="DejaVuSans-67"/>
      <path d="M 19.671875 64.796875 
L 19.671875 8.109375 
L 31.59375 8.109375 
Q 46.6875 8.109375 53.6875 14.9375 
Q 60.6875 21.78125 60.6875 36.53125 
Q 60.6875 51.171875 53.6875 57.984375 
Q 46.6875 64.796875 31.59375 64.796875 
z
M 9.8125 72.90625 
L 30.078125 72.90625 
Q 51.265625 72.90625 61.171875 64.09375 
Q 71.09375 55.28125 71.09375 36.53125 
Q 71.09375 17.671875 61.125 8.828125 
Q 51.171875 0 30.078125 0 
L 9.8125 0 
z
" id="DejaVuSans-68"/>
      <path d="M 45.40625 46.390625 
L 45.40625 75.984375 
L 54.390625 75.984375 
L 54.390625 0 
L 45.40625 0 
L 45.40625 8.203125 
Q 42.578125 3.328125 38.25 0.953125 
Q 33.9375 -1.421875 27.875 -1.421875 
Q 17.96875 -1.421875 11.734375 6.484375 
Q 5.515625 14.40625 5.515625 27.296875 
Q 5.515625 40.1875 11.734375 48.09375 
Q 17.96875 56 27.875 56 
Q 33.9375 56 38.25 53.625 
Q 42.578125 51.265625 45.40625 46.390625 
z
M 14.796875 27.296875 
Q 14.796875 17.390625 18.875 11.75 
Q 22.953125 6.109375 30.078125 6.109375 
Q 37.203125 6.109375 41.296875 11.75 
Q 45.40625 17.390625 45.40625 27.296875 
Q 45.40625 37.203125 41.296875 42.84375 
Q 37.203125 48.484375 30.078125 48.484375 
Q 22.953125 48.484375 18.875 42.84375 
Q 14.796875 37.203125 14.796875 27.296875 
z
" id="DejaVuSans-100"/>
      <path d="M 4.890625 31.390625 
L 31.203125 31.390625 
L 31.203125 23.390625 
L 4.890625 23.390625 
z
" id="DejaVuSans-45"/>
      <path d="M 5.515625 54.6875 
L 48.1875 54.6875 
L 48.1875 46.484375 
L 14.40625 7.171875 
L 48.1875 7.171875 
L 48.1875 0 
L 4.296875 0 
L 4.296875 8.203125 
L 38.09375 47.515625 
L 5.515625 47.515625 
z
" id="DejaVuSans-122"/>
     </defs>
     <use xlink:href="#DejaVuSans-67"/>
     <use x="69.824219" xlink:href="#DejaVuSans-68"/>
     <use x="146.826172" xlink:href="#DejaVuSans-70"/>
     <use x="204.345703" xlink:href="#DejaVuSans-32"/>
     <use x="236.132812" xlink:href="#DejaVuSans-108"/>
     <use x="263.916016" xlink:href="#DejaVuSans-111"/>
     <use x="325.097656" xlink:href="#DejaVuSans-103"/>
     <use x="388.574219" xlink:href="#DejaVuSans-105"/>
     <use x="416.357422" xlink:href="#DejaVuSans-99"/>
     <use x="471.337891" xlink:href="#DejaVuSans-97"/>
     <use x="532.617188" xlink:href="#DejaVuSans-108"/>
     <use x="560.400391" xlink:href="#DejaVuSans-32"/>
     <use x="592.1875" xlink:href="#DejaVuSans-106"/>
     <use x="619.970703" xlink:href="#DejaVuSans-111"/>
     <use x="681.152344" xlink:href="#DejaVuSans-98"/>
     <use x="744.628906" xlink:href="#DejaVuSans-32"/>
     <use x="776.416016" xlink:href="#DejaVuSans-110"/>
     <use x="839.794922" xlink:href="#DejaVuSans-97"/>
     <use x="901.074219" xlink:href="#DejaVuSans-109"/>
     <use x="998.486328" xlink:href="#DejaVuSans-101"/>
     <use x="1060.009766" xlink:href="#DejaVuSans-32"/>
     <use x="1091.796875" xlink:href="#DejaVuSans-100"/>
     <use x="1155.273438" xlink:href="#DejaVuSans-105"/>
     <use x="1183.056641" xlink:href="#DejaVuSans-115"/>
     <use x="1235.15625" xlink:href="#DejaVuSans-116"/>
     <use x="1274.365234" xlink:href="#DejaVuSans-114"/>
     <use x="1315.478516" xlink:href="#DejaVuSans-105"/>
     <use x="1343.261719" xlink:href="#DejaVuSans-98"/>
     <use x="1406.738281" xlink:href="#DejaVuSans-117"/>
     <use x="1470.117188" xlink:href="#DejaVuSans-116"/>
     <use x="1509.326172" xlink:href="#DejaVuSans-105"/>
     <use x="1537.109375" xlink:href="#DejaVuSans-111"/>
     <use x="1598.291016" xlink:href="#DejaVuSans-110"/>
     <use x="1661.669922" xlink:href="#DejaVuSans-32"/>
     <use x="1693.457031" xlink:href="#DejaVuSans-45"/>
     <use x="1729.541016" xlink:href="#DejaVuSans-32"/>
     <use x="1761.328125" xlink:href="#DejaVuSans-97"/>
     <use x="1822.607422" xlink:href="#DejaVuSans-108"/>
     <use x="1850.390625" xlink:href="#DejaVuSans-108"/>
     <use x="1878.173828" xlink:href="#DejaVuSans-32"/>
     <use x="1909.960938" xlink:href="#DejaVuSans-115"/>
     <use x="1962.060547" xlink:href="#DejaVuSans-105"/>
     <use x="1989.84375" xlink:href="#DejaVuSans-122"/>
     <use x="2042.333984" xlink:href="#DejaVuSans-101"/>
     <use x="2103.857422" xlink:href="#DejaVuSans-115"/>
    </g>
   </g>
   <g id="legend_1">
    <g id="patch_7">
     <path d="M 849.846563 495.75 
L 960.45 495.75 
Q 963.75 495.75 963.75 492.45 
L 963.75 347.334844 
Q 963.75 344.034844 960.45 344.034844 
L 849.846563 344.034844 
Q 846.546563 344.034844 846.546563 347.334844 
L 846.546563 492.45 
Q 846.546563 495.75 849.846563 495.75 
z
" style="fill:#ffffff;opacity:0.8;stroke:#cccccc;stroke-linejoin:miter;stroke-width:1.5;"/>
    </g>
    <g id="text_18">
     <!-- Experiment -->
     <g style="fill:#262626;" transform="translate(853.146563 364.312031)scale(0.18 -0.18)">
      <defs>
       <path d="M 9.8125 72.90625 
L 55.90625 72.90625 
L 55.90625 64.59375 
L 19.671875 64.59375 
L 19.671875 43.015625 
L 54.390625 43.015625 
L 54.390625 34.71875 
L 19.671875 34.71875 
L 19.671875 8.296875 
L 56.78125 8.296875 
L 56.78125 0 
L 9.8125 0 
z
" id="DejaVuSans-69"/>
       <path d="M 54.890625 54.6875 
L 35.109375 28.078125 
L 55.90625 0 
L 45.3125 0 
L 29.390625 21.484375 
L 13.484375 0 
L 2.875 0 
L 24.125 28.609375 
L 4.6875 54.6875 
L 15.28125 54.6875 
L 29.78125 35.203125 
L 44.28125 54.6875 
z
" id="DejaVuSans-120"/>
      </defs>
      <use xlink:href="#DejaVuSans-69"/>
      <use x="63.183594" xlink:href="#DejaVuSans-120"/>
      <use x="122.363281" xlink:href="#DejaVuSans-112"/>
      <use x="185.839844" xlink:href="#DejaVuSans-101"/>
      <use x="247.363281" xlink:href="#DejaVuSans-114"/>
      <use x="288.476562" xlink:href="#DejaVuSans-105"/>
      <use x="316.259766" xlink:href="#DejaVuSans-109"/>
      <use x="413.671875" xlink:href="#DejaVuSans-101"/>
      <use x="475.195312" xlink:href="#DejaVuSans-110"/>
      <use x="538.574219" xlink:href="#DejaVuSans-116"/>
     </g>
    </g>
    <g id="line2d_21">
     <path d="M 854.615742 383.067891 
L 887.615742 383.067891 
" style="fill:none;stroke:#8172b3;stroke-linecap:round;stroke-width:2.25;"/>
    </g>
    <g id="line2d_22"/>
    <g id="text_19">
     <!-- k = 10 -->
     <g style="fill:#262626;" transform="translate(900.815742 388.842891)scale(0.165 -0.165)">
      <defs>
       <path d="M 9.078125 75.984375 
L 18.109375 75.984375 
L 18.109375 31.109375 
L 44.921875 54.6875 
L 56.390625 54.6875 
L 27.390625 29.109375 
L 57.625 0 
L 45.90625 0 
L 18.109375 26.703125 
L 18.109375 0 
L 9.078125 0 
z
" id="DejaVuSans-107"/>
       <path d="M 10.59375 45.40625 
L 73.1875 45.40625 
L 73.1875 37.203125 
L 10.59375 37.203125 
z
M 10.59375 25.484375 
L 73.1875 25.484375 
L 73.1875 17.1875 
L 10.59375 17.1875 
z
" id="DejaVuSans-61"/>
      </defs>
      <use xlink:href="#DejaVuSans-107"/>
      <use x="57.910156" xlink:href="#DejaVuSans-32"/>
      <use x="89.697266" xlink:href="#DejaVuSans-61"/>
      <use x="173.486328" xlink:href="#DejaVuSans-32"/>
      <use x="205.273438" xlink:href="#DejaVuSans-49"/>
      <use x="268.896484" xlink:href="#DejaVuSans-48"/>
     </g>
    </g>
    <g id="line2d_23">
     <path d="M 854.615742 407.286797 
L 887.615742 407.286797 
" style="fill:none;stroke:#c44e52;stroke-linecap:round;stroke-width:2.25;"/>
    </g>
    <g id="line2d_24"/>
    <g id="text_20">
     <!-- k = 8 -->
     <g style="fill:#262626;" transform="translate(900.815742 413.061797)scale(0.165 -0.165)">
      <use xlink:href="#DejaVuSans-107"/>
      <use x="57.910156" xlink:href="#DejaVuSans-32"/>
      <use x="89.697266" xlink:href="#DejaVuSans-61"/>
      <use x="173.486328" xlink:href="#DejaVuSans-32"/>
      <use x="205.273438" xlink:href="#DejaVuSans-56"/>
     </g>
    </g>
    <g id="line2d_25">
     <path d="M 854.615742 431.505703 
L 887.615742 431.505703 
" style="fill:none;stroke:#55a868;stroke-linecap:round;stroke-width:2.25;"/>
    </g>
    <g id="line2d_26"/>
    <g id="text_21">
     <!-- k = 6 -->
     <g style="fill:#262626;" transform="translate(900.815742 437.280703)scale(0.165 -0.165)">
      <use xlink:href="#DejaVuSans-107"/>
      <use x="57.910156" xlink:href="#DejaVuSans-32"/>
      <use x="89.697266" xlink:href="#DejaVuSans-61"/>
      <use x="173.486328" xlink:href="#DejaVuSans-32"/>
      <use x="205.273438" xlink:href="#DejaVuSans-54"/>
     </g>
    </g>
    <g id="line2d_27">
     <path d="M 854.615742 455.724609 
L 887.615742 455.724609 
" style="fill:none;stroke:#dd8452;stroke-linecap:round;stroke-width:2.25;"/>
    </g>
    <g id="line2d_28"/>
    <g id="text_22">
     <!-- k = 4 -->
     <g style="fill:#262626;" transform="translate(900.815742 461.499609)scale(0.165 -0.165)">
      <use xlink:href="#DejaVuSans-107"/>
      <use x="57.910156" xlink:href="#DejaVuSans-32"/>
      <use x="89.697266" xlink:href="#DejaVuSans-61"/>
      <use x="173.486328" xlink:href="#DejaVuSans-32"/>
      <use x="205.273438" xlink:href="#DejaVuSans-52"/>
     </g>
    </g>
    <g id="line2d_29">
     <path d="M 854.615742 479.943516 
L 887.615742 479.943516 
" style="fill:none;stroke:#4c72b0;stroke-linecap:round;stroke-width:2.25;"/>
    </g>
    <g id="line2d_30"/>
    <g id="text_23">
     <!-- k = 2 -->
     <g style="fill:#262626;" transform="translate(900.815742 485.718516)scale(0.165 -0.165)">
      <use xlink:href="#DejaVuSans-107"/>
      <use x="57.910156" xlink:href="#DejaVuSans-32"/>
      <use x="89.697266" xlink:href="#DejaVuSans-61"/>
      <use x="173.486328" xlink:href="#DejaVuSans-32"/>
      <use x="205.273438" xlink:href="#DejaVuSans-50"/>
     </g>
    </g>
   </g>
  </g>
 </g>
 <defs>
  <clipPath id="pe2e5bbc383">
   <rect height="434.88" width="837" x="135" y="69.12"/>
  </clipPath>
 </defs>
</svg>
