<?xml version="1.0" encoding="utf-8" standalone="no"?>
<!DOCTYPE svg PUBLIC "-//W3C//DTD SVG 1.1//EN"
  "http://www.w3.org/Graphics/SVG/1.1/DTD/svg11.dtd">
<!-- Created with matplotlib (https://matplotlib.org/) -->
<svg height="720pt" version="1.1" viewBox="0 0 1440 720" width="1440pt" xmlns="http://www.w3.org/2000/svg" xmlns:xlink="http://www.w3.org/1999/xlink">
 <metadata>
  <rdf:RDF xmlns:cc="http://creativecommons.org/ns#" xmlns:dc="http://purl.org/dc/elements/1.1/" xmlns:rdf="http://www.w3.org/1999/02/22-rdf-syntax-ns#">
   <cc:Work>
    <dc:type rdf:resource="http://purl.org/dc/dcmitype/StillImage"/>
    <dc:date>2021-10-28T17:38:05.191651</dc:date>
    <dc:format>image/svg+xml</dc:format>
    <dc:creator>
     <cc:Agent>
      <dc:title>Matplotlib v3.3.2, https://matplotlib.org/</dc:title>
     </cc:Agent>
    </dc:creator>
   </cc:Work>
  </rdf:RDF>
 </metadata>
 <defs>
  <style type="text/css">*{stroke-linecap:butt;stroke-linejoin:round;}</style>
 </defs>
 <g id="figure_1">
  <g id="patch_1">
   <path d="M 0 720 
L 1440 720 
L 1440 0 
L 0 0 
z
" style="fill:#ffffff;"/>
  </g>
  <g id="axes_1">
   <g id="patch_2">
    <path d="M 90.69 648.06 
L 1420.56 648.06 
L 1420.56 19.44 
L 90.69 19.44 
z
" style="fill:#ffffff;"/>
   </g>
   <g id="matplotlib.axis_1">
    <g id="xtick_1">
     <g id="text_1">
      <!-- Q1 -->
      <g style="fill:#262626;" transform="translate(245.180391 673.097422)scale(0.165 -0.165)">
       <defs>
        <path d="M 39.40625 66.21875 
Q 28.65625 66.21875 22.328125 58.203125 
Q 16.015625 50.203125 16.015625 36.375 
Q 16.015625 22.609375 22.328125 14.59375 
Q 28.65625 6.59375 39.40625 6.59375 
Q 50.140625 6.59375 56.421875 14.59375 
Q 62.703125 22.609375 62.703125 36.375 
Q 62.703125 50.203125 56.421875 58.203125 
Q 50.140625 66.21875 39.40625 66.21875 
z
M 53.21875 1.3125 
L 66.21875 -12.890625 
L 54.296875 -12.890625 
L 43.5 -1.21875 
Q 41.890625 -1.3125 41.03125 -1.359375 
Q 40.1875 -1.421875 39.40625 -1.421875 
Q 24.03125 -1.421875 14.8125 8.859375 
Q 5.609375 19.140625 5.609375 36.375 
Q 5.609375 53.65625 14.8125 63.9375 
Q 24.03125 74.21875 39.40625 74.21875 
Q 54.734375 74.21875 63.90625 63.9375 
Q 73.09375 53.65625 73.09375 36.375 
Q 73.09375 23.6875 67.984375 14.640625 
Q 62.890625 5.609375 53.21875 1.3125 
z
" id="DejaVuSans-81"/>
        <path d="M 12.40625 8.296875 
L 28.515625 8.296875 
L 28.515625 63.921875 
L 10.984375 60.40625 
L 10.984375 69.390625 
L 28.421875 72.90625 
L 38.28125 72.90625 
L 38.28125 8.296875 
L 54.390625 8.296875 
L 54.390625 0 
L 12.40625 0 
z
" id="DejaVuSans-49"/>
       </defs>
       <use xlink:href="#DejaVuSans-81"/>
       <use x="78.710938" xlink:href="#DejaVuSans-49"/>
      </g>
     </g>
    </g>
    <g id="xtick_2">
     <g id="text_2">
      <!-- Q2 -->
      <g style="fill:#262626;" transform="translate(577.647891 673.097422)scale(0.165 -0.165)">
       <defs>
        <path d="M 19.1875 8.296875 
L 53.609375 8.296875 
L 53.609375 0 
L 7.328125 0 
L 7.328125 8.296875 
Q 12.9375 14.109375 22.625 23.890625 
Q 32.328125 33.6875 34.8125 36.53125 
Q 39.546875 41.84375 41.421875 45.53125 
Q 43.3125 49.21875 43.3125 52.78125 
Q 43.3125 58.59375 39.234375 62.25 
Q 35.15625 65.921875 28.609375 65.921875 
Q 23.96875 65.921875 18.8125 64.3125 
Q 13.671875 62.703125 7.8125 59.421875 
L 7.8125 69.390625 
Q 13.765625 71.78125 18.9375 73 
Q 24.125 74.21875 28.421875 74.21875 
Q 39.75 74.21875 46.484375 68.546875 
Q 53.21875 62.890625 53.21875 53.421875 
Q 53.21875 48.921875 51.53125 44.890625 
Q 49.859375 40.875 45.40625 35.40625 
Q 44.1875 33.984375 37.640625 27.21875 
Q 31.109375 20.453125 19.1875 8.296875 
z
" id="DejaVuSans-50"/>
       </defs>
       <use xlink:href="#DejaVuSans-81"/>
       <use x="78.710938" xlink:href="#DejaVuSans-50"/>
      </g>
     </g>
    </g>
    <g id="xtick_3">
     <g id="text_3">
      <!-- Q3 -->
      <g style="fill:#262626;" transform="translate(910.115391 673.097422)scale(0.165 -0.165)">
       <defs>
        <path d="M 40.578125 39.3125 
Q 47.65625 37.796875 51.625 33 
Q 55.609375 28.21875 55.609375 21.1875 
Q 55.609375 10.40625 48.1875 4.484375 
Q 40.765625 -1.421875 27.09375 -1.421875 
Q 22.515625 -1.421875 17.65625 -0.515625 
Q 12.796875 0.390625 7.625 2.203125 
L 7.625 11.71875 
Q 11.71875 9.328125 16.59375 8.109375 
Q 21.484375 6.890625 26.8125 6.890625 
Q 36.078125 6.890625 40.9375 10.546875 
Q 45.796875 14.203125 45.796875 21.1875 
Q 45.796875 27.640625 41.28125 31.265625 
Q 36.765625 34.90625 28.71875 34.90625 
L 20.21875 34.90625 
L 20.21875 43.015625 
L 29.109375 43.015625 
Q 36.375 43.015625 40.234375 45.921875 
Q 44.09375 48.828125 44.09375 54.296875 
Q 44.09375 59.90625 40.109375 62.90625 
Q 36.140625 65.921875 28.71875 65.921875 
Q 24.65625 65.921875 20.015625 65.03125 
Q 15.375 64.15625 9.8125 62.3125 
L 9.8125 71.09375 
Q 15.4375 72.65625 20.34375 73.4375 
Q 25.25 74.21875 29.59375 74.21875 
Q 40.828125 74.21875 47.359375 69.109375 
Q 53.90625 64.015625 53.90625 55.328125 
Q 53.90625 49.265625 50.4375 45.09375 
Q 46.96875 40.921875 40.578125 39.3125 
z
" id="DejaVuSans-51"/>
       </defs>
       <use xlink:href="#DejaVuSans-81"/>
       <use x="78.710938" xlink:href="#DejaVuSans-51"/>
      </g>
     </g>
    </g>
    <g id="xtick_4">
     <g id="text_4">
      <!-- Q4 -->
      <g style="fill:#262626;" transform="translate(1242.582891 673.097422)scale(0.165 -0.165)">
       <defs>
        <path d="M 37.796875 64.3125 
L 12.890625 25.390625 
L 37.796875 25.390625 
z
M 35.203125 72.90625 
L 47.609375 72.90625 
L 47.609375 25.390625 
L 58.015625 25.390625 
L 58.015625 17.1875 
L 47.609375 17.1875 
L 47.609375 0 
L 37.796875 0 
L 37.796875 17.1875 
L 4.890625 17.1875 
L 4.890625 26.703125 
z
" id="DejaVuSans-52"/>
       </defs>
       <use xlink:href="#DejaVuSans-81"/>
       <use x="78.710938" xlink:href="#DejaVuSans-52"/>
      </g>
     </g>
    </g>
    <g id="text_5">
     <!-- memory request - Quartiles -->
     <g style="fill:#262626;" transform="translate(631.226719 694.206094)scale(0.18 -0.18)">
      <defs>
       <path d="M 52 44.1875 
Q 55.375 50.25 60.0625 53.125 
Q 64.75 56 71.09375 56 
Q 79.640625 56 84.28125 50.015625 
Q 88.921875 44.046875 88.921875 33.015625 
L 88.921875 0 
L 79.890625 0 
L 79.890625 32.71875 
Q 79.890625 40.578125 77.09375 44.375 
Q 74.3125 48.1875 68.609375 48.1875 
Q 61.625 48.1875 57.5625 43.546875 
Q 53.515625 38.921875 53.515625 30.90625 
L 53.515625 0 
L 44.484375 0 
L 44.484375 32.71875 
Q 44.484375 40.625 41.703125 44.40625 
Q 38.921875 48.1875 33.109375 48.1875 
Q 26.21875 48.1875 22.15625 43.53125 
Q 18.109375 38.875 18.109375 30.90625 
L 18.109375 0 
L 9.078125 0 
L 9.078125 54.6875 
L 18.109375 54.6875 
L 18.109375 46.1875 
Q 21.1875 51.21875 25.484375 53.609375 
Q 29.78125 56 35.6875 56 
Q 41.65625 56 45.828125 52.96875 
Q 50 49.953125 52 44.1875 
z
" id="DejaVuSans-109"/>
       <path d="M 56.203125 29.59375 
L 56.203125 25.203125 
L 14.890625 25.203125 
Q 15.484375 15.921875 20.484375 11.0625 
Q 25.484375 6.203125 34.421875 6.203125 
Q 39.59375 6.203125 44.453125 7.46875 
Q 49.3125 8.734375 54.109375 11.28125 
L 54.109375 2.78125 
Q 49.265625 0.734375 44.1875 -0.34375 
Q 39.109375 -1.421875 33.890625 -1.421875 
Q 20.796875 -1.421875 13.15625 6.1875 
Q 5.515625 13.8125 5.515625 26.8125 
Q 5.515625 40.234375 12.765625 48.109375 
Q 20.015625 56 32.328125 56 
Q 43.359375 56 49.78125 48.890625 
Q 56.203125 41.796875 56.203125 29.59375 
z
M 47.21875 32.234375 
Q 47.125 39.59375 43.09375 43.984375 
Q 39.0625 48.390625 32.421875 48.390625 
Q 24.90625 48.390625 20.390625 44.140625 
Q 15.875 39.890625 15.1875 32.171875 
z
" id="DejaVuSans-101"/>
       <path d="M 30.609375 48.390625 
Q 23.390625 48.390625 19.1875 42.75 
Q 14.984375 37.109375 14.984375 27.296875 
Q 14.984375 17.484375 19.15625 11.84375 
Q 23.34375 6.203125 30.609375 6.203125 
Q 37.796875 6.203125 41.984375 11.859375 
Q 46.1875 17.53125 46.1875 27.296875 
Q 46.1875 37.015625 41.984375 42.703125 
Q 37.796875 48.390625 30.609375 48.390625 
z
M 30.609375 56 
Q 42.328125 56 49.015625 48.375 
Q 55.71875 40.765625 55.71875 27.296875 
Q 55.71875 13.875 49.015625 6.21875 
Q 42.328125 -1.421875 30.609375 -1.421875 
Q 18.84375 -1.421875 12.171875 6.21875 
Q 5.515625 13.875 5.515625 27.296875 
Q 5.515625 40.765625 12.171875 48.375 
Q 18.84375 56 30.609375 56 
z
" id="DejaVuSans-111"/>
       <path d="M 41.109375 46.296875 
Q 39.59375 47.171875 37.8125 47.578125 
Q 36.03125 48 33.890625 48 
Q 26.265625 48 22.1875 43.046875 
Q 18.109375 38.09375 18.109375 28.8125 
L 18.109375 0 
L 9.078125 0 
L 9.078125 54.6875 
L 18.109375 54.6875 
L 18.109375 46.1875 
Q 20.953125 51.171875 25.484375 53.578125 
Q 30.03125 56 36.53125 56 
Q 37.453125 56 38.578125 55.875 
Q 39.703125 55.765625 41.0625 55.515625 
z
" id="DejaVuSans-114"/>
       <path d="M 32.171875 -5.078125 
Q 28.375 -14.84375 24.75 -17.8125 
Q 21.140625 -20.796875 15.09375 -20.796875 
L 7.90625 -20.796875 
L 7.90625 -13.28125 
L 13.1875 -13.28125 
Q 16.890625 -13.28125 18.9375 -11.515625 
Q 21 -9.765625 23.484375 -3.21875 
L 25.09375 0.875 
L 2.984375 54.6875 
L 12.5 54.6875 
L 29.59375 11.921875 
L 46.6875 54.6875 
L 56.203125 54.6875 
z
" id="DejaVuSans-121"/>
       <path id="DejaVuSans-32"/>
       <path d="M 14.796875 27.296875 
Q 14.796875 17.390625 18.875 11.75 
Q 22.953125 6.109375 30.078125 6.109375 
Q 37.203125 6.109375 41.296875 11.75 
Q 45.40625 17.390625 45.40625 27.296875 
Q 45.40625 37.203125 41.296875 42.84375 
Q 37.203125 48.484375 30.078125 48.484375 
Q 22.953125 48.484375 18.875 42.84375 
Q 14.796875 37.203125 14.796875 27.296875 
z
M 45.40625 8.203125 
Q 42.578125 3.328125 38.25 0.953125 
Q 33.9375 -1.421875 27.875 -1.421875 
Q 17.96875 -1.421875 11.734375 6.484375 
Q 5.515625 14.40625 5.515625 27.296875 
Q 5.515625 40.1875 11.734375 48.09375 
Q 17.96875 56 27.875 56 
Q 33.9375 56 38.25 53.625 
Q 42.578125 51.265625 45.40625 46.390625 
L 45.40625 54.6875 
L 54.390625 54.6875 
L 54.390625 -20.796875 
L 45.40625 -20.796875 
z
" id="DejaVuSans-113"/>
       <path d="M 8.5 21.578125 
L 8.5 54.6875 
L 17.484375 54.6875 
L 17.484375 21.921875 
Q 17.484375 14.15625 20.5 10.265625 
Q 23.53125 6.390625 29.59375 6.390625 
Q 36.859375 6.390625 41.078125 11.03125 
Q 45.3125 15.671875 45.3125 23.6875 
L 45.3125 54.6875 
L 54.296875 54.6875 
L 54.296875 0 
L 45.3125 0 
L 45.3125 8.40625 
Q 42.046875 3.421875 37.71875 1 
Q 33.40625 -1.421875 27.6875 -1.421875 
Q 18.265625 -1.421875 13.375 4.4375 
Q 8.5 10.296875 8.5 21.578125 
z
M 31.109375 56 
z
" id="DejaVuSans-117"/>
       <path d="M 44.28125 53.078125 
L 44.28125 44.578125 
Q 40.484375 46.53125 36.375 47.5 
Q 32.28125 48.484375 27.875 48.484375 
Q 21.1875 48.484375 17.84375 46.4375 
Q 14.5 44.390625 14.5 40.28125 
Q 14.5 37.15625 16.890625 35.375 
Q 19.28125 33.59375 26.515625 31.984375 
L 29.59375 31.296875 
Q 39.15625 29.25 43.1875 25.515625 
Q 47.21875 21.78125 47.21875 15.09375 
Q 47.21875 7.46875 41.1875 3.015625 
Q 35.15625 -1.421875 24.609375 -1.421875 
Q 20.21875 -1.421875 15.453125 -0.5625 
Q 10.6875 0.296875 5.421875 2 
L 5.421875 11.28125 
Q 10.40625 8.6875 15.234375 7.390625 
Q 20.0625 6.109375 24.8125 6.109375 
Q 31.15625 6.109375 34.5625 8.28125 
Q 37.984375 10.453125 37.984375 14.40625 
Q 37.984375 18.0625 35.515625 20.015625 
Q 33.0625 21.96875 24.703125 23.78125 
L 21.578125 24.515625 
Q 13.234375 26.265625 9.515625 29.90625 
Q 5.8125 33.546875 5.8125 39.890625 
Q 5.8125 47.609375 11.28125 51.796875 
Q 16.75 56 26.8125 56 
Q 31.78125 56 36.171875 55.265625 
Q 40.578125 54.546875 44.28125 53.078125 
z
" id="DejaVuSans-115"/>
       <path d="M 18.3125 70.21875 
L 18.3125 54.6875 
L 36.8125 54.6875 
L 36.8125 47.703125 
L 18.3125 47.703125 
L 18.3125 18.015625 
Q 18.3125 11.328125 20.140625 9.421875 
Q 21.96875 7.515625 27.59375 7.515625 
L 36.8125 7.515625 
L 36.8125 0 
L 27.59375 0 
Q 17.1875 0 13.234375 3.875 
Q 9.28125 7.765625 9.28125 18.015625 
L 9.28125 47.703125 
L 2.6875 47.703125 
L 2.6875 54.6875 
L 9.28125 54.6875 
L 9.28125 70.21875 
z
" id="DejaVuSans-116"/>
       <path d="M 4.890625 31.390625 
L 31.203125 31.390625 
L 31.203125 23.390625 
L 4.890625 23.390625 
z
" id="DejaVuSans-45"/>
       <path d="M 34.28125 27.484375 
Q 23.390625 27.484375 19.1875 25 
Q 14.984375 22.515625 14.984375 16.5 
Q 14.984375 11.71875 18.140625 8.90625 
Q 21.296875 6.109375 26.703125 6.109375 
Q 34.1875 6.109375 38.703125 11.40625 
Q 43.21875 16.703125 43.21875 25.484375 
L 43.21875 27.484375 
z
M 52.203125 31.203125 
L 52.203125 0 
L 43.21875 0 
L 43.21875 8.296875 
Q 40.140625 3.328125 35.546875 0.953125 
Q 30.953125 -1.421875 24.3125 -1.421875 
Q 15.921875 -1.421875 10.953125 3.296875 
Q 6 8.015625 6 15.921875 
Q 6 25.140625 12.171875 29.828125 
Q 18.359375 34.515625 30.609375 34.515625 
L 43.21875 34.515625 
L 43.21875 35.40625 
Q 43.21875 41.609375 39.140625 45 
Q 35.0625 48.390625 27.6875 48.390625 
Q 23 48.390625 18.546875 47.265625 
Q 14.109375 46.140625 10.015625 43.890625 
L 10.015625 52.203125 
Q 14.9375 54.109375 19.578125 55.046875 
Q 24.21875 56 28.609375 56 
Q 40.484375 56 46.34375 49.84375 
Q 52.203125 43.703125 52.203125 31.203125 
z
" id="DejaVuSans-97"/>
       <path d="M 9.421875 54.6875 
L 18.40625 54.6875 
L 18.40625 0 
L 9.421875 0 
z
M 9.421875 75.984375 
L 18.40625 75.984375 
L 18.40625 64.59375 
L 9.421875 64.59375 
z
" id="DejaVuSans-105"/>
       <path d="M 9.421875 75.984375 
L 18.40625 75.984375 
L 18.40625 0 
L 9.421875 0 
z
" id="DejaVuSans-108"/>
      </defs>
      <use xlink:href="#DejaVuSans-109"/>
      <use x="97.412109" xlink:href="#DejaVuSans-101"/>
      <use x="158.935547" xlink:href="#DejaVuSans-109"/>
      <use x="256.347656" xlink:href="#DejaVuSans-111"/>
      <use x="317.529297" xlink:href="#DejaVuSans-114"/>
      <use x="358.642578" xlink:href="#DejaVuSans-121"/>
      <use x="417.822266" xlink:href="#DejaVuSans-32"/>
      <use x="449.609375" xlink:href="#DejaVuSans-114"/>
      <use x="488.472656" xlink:href="#DejaVuSans-101"/>
      <use x="549.996094" xlink:href="#DejaVuSans-113"/>
      <use x="613.472656" xlink:href="#DejaVuSans-117"/>
      <use x="676.851562" xlink:href="#DejaVuSans-101"/>
      <use x="738.375" xlink:href="#DejaVuSans-115"/>
      <use x="790.474609" xlink:href="#DejaVuSans-116"/>
      <use x="829.683594" xlink:href="#DejaVuSans-32"/>
      <use x="861.470703" xlink:href="#DejaVuSans-45"/>
      <use x="897.554688" xlink:href="#DejaVuSans-32"/>
      <use x="929.341797" xlink:href="#DejaVuSans-81"/>
      <use x="1008.052734" xlink:href="#DejaVuSans-117"/>
      <use x="1071.431641" xlink:href="#DejaVuSans-97"/>
      <use x="1132.710938" xlink:href="#DejaVuSans-114"/>
      <use x="1173.824219" xlink:href="#DejaVuSans-116"/>
      <use x="1213.033203" xlink:href="#DejaVuSans-105"/>
      <use x="1240.816406" xlink:href="#DejaVuSans-108"/>
      <use x="1268.599609" xlink:href="#DejaVuSans-101"/>
      <use x="1330.123047" xlink:href="#DejaVuSans-115"/>
     </g>
    </g>
   </g>
   <g id="matplotlib.axis_2">
    <g id="ytick_1">
     <g id="line2d_1">
      <path clip-path="url(#pb879db32f0)" d="M 90.69 610.217118 
L 1420.56 610.217118 
" style="fill:none;stroke:#999999;stroke-dasharray:1.5,2.475;stroke-dashoffset:0;stroke-width:1.5;"/>
     </g>
     <g id="text_6">
      <!-- 0.15 -->
      <g style="fill:#262626;" transform="translate(41.451719 616.485829)scale(0.165 -0.165)">
       <defs>
        <path d="M 31.78125 66.40625 
Q 24.171875 66.40625 20.328125 58.90625 
Q 16.5 51.421875 16.5 36.375 
Q 16.5 21.390625 20.328125 13.890625 
Q 24.171875 6.390625 31.78125 6.390625 
Q 39.453125 6.390625 43.28125 13.890625 
Q 47.125 21.390625 47.125 36.375 
Q 47.125 51.421875 43.28125 58.90625 
Q 39.453125 66.40625 31.78125 66.40625 
z
M 31.78125 74.21875 
Q 44.046875 74.21875 50.515625 64.515625 
Q 56.984375 54.828125 56.984375 36.375 
Q 56.984375 17.96875 50.515625 8.265625 
Q 44.046875 -1.421875 31.78125 -1.421875 
Q 19.53125 -1.421875 13.0625 8.265625 
Q 6.59375 17.96875 6.59375 36.375 
Q 6.59375 54.828125 13.0625 64.515625 
Q 19.53125 74.21875 31.78125 74.21875 
z
" id="DejaVuSans-48"/>
        <path d="M 10.6875 12.40625 
L 21 12.40625 
L 21 0 
L 10.6875 0 
z
" id="DejaVuSans-46"/>
        <path d="M 10.796875 72.90625 
L 49.515625 72.90625 
L 49.515625 64.59375 
L 19.828125 64.59375 
L 19.828125 46.734375 
Q 21.96875 47.46875 24.109375 47.828125 
Q 26.265625 48.1875 28.421875 48.1875 
Q 40.625 48.1875 47.75 41.5 
Q 54.890625 34.8125 54.890625 23.390625 
Q 54.890625 11.625 47.5625 5.09375 
Q 40.234375 -1.421875 26.90625 -1.421875 
Q 22.3125 -1.421875 17.546875 -0.640625 
Q 12.796875 0.140625 7.71875 1.703125 
L 7.71875 11.625 
Q 12.109375 9.234375 16.796875 8.0625 
Q 21.484375 6.890625 26.703125 6.890625 
Q 35.15625 6.890625 40.078125 11.328125 
Q 45.015625 15.765625 45.015625 23.390625 
Q 45.015625 31 40.078125 35.4375 
Q 35.15625 39.890625 26.703125 39.890625 
Q 22.75 39.890625 18.8125 39.015625 
Q 14.890625 38.140625 10.796875 36.28125 
z
" id="DejaVuSans-53"/>
       </defs>
       <use xlink:href="#DejaVuSans-48"/>
       <use x="63.623047" xlink:href="#DejaVuSans-46"/>
       <use x="95.410156" xlink:href="#DejaVuSans-49"/>
       <use x="159.033203" xlink:href="#DejaVuSans-53"/>
      </g>
     </g>
    </g>
    <g id="ytick_2">
     <g id="line2d_2">
      <path clip-path="url(#pb879db32f0)" d="M 90.69 530.696744 
L 1420.56 530.696744 
" style="fill:none;stroke:#999999;stroke-dasharray:1.5,2.475;stroke-dashoffset:0;stroke-width:1.5;"/>
     </g>
     <g id="text_7">
      <!-- 0.20 -->
      <g style="fill:#262626;" transform="translate(41.451719 536.965455)scale(0.165 -0.165)">
       <use xlink:href="#DejaVuSans-48"/>
       <use x="63.623047" xlink:href="#DejaVuSans-46"/>
       <use x="95.410156" xlink:href="#DejaVuSans-50"/>
       <use x="159.033203" xlink:href="#DejaVuSans-48"/>
      </g>
     </g>
    </g>
    <g id="ytick_3">
     <g id="line2d_3">
      <path clip-path="url(#pb879db32f0)" d="M 90.69 451.17637 
L 1420.56 451.17637 
" style="fill:none;stroke:#999999;stroke-dasharray:1.5,2.475;stroke-dashoffset:0;stroke-width:1.5;"/>
     </g>
     <g id="text_8">
      <!-- 0.25 -->
      <g style="fill:#262626;" transform="translate(41.451719 457.445081)scale(0.165 -0.165)">
       <use xlink:href="#DejaVuSans-48"/>
       <use x="63.623047" xlink:href="#DejaVuSans-46"/>
       <use x="95.410156" xlink:href="#DejaVuSans-50"/>
       <use x="159.033203" xlink:href="#DejaVuSans-53"/>
      </g>
     </g>
    </g>
    <g id="ytick_4">
     <g id="line2d_4">
      <path clip-path="url(#pb879db32f0)" d="M 90.69 371.655996 
L 1420.56 371.655996 
" style="fill:none;stroke:#999999;stroke-dasharray:1.5,2.475;stroke-dashoffset:0;stroke-width:1.5;"/>
     </g>
     <g id="text_9">
      <!-- 0.30 -->
      <g style="fill:#262626;" transform="translate(41.451719 377.924707)scale(0.165 -0.165)">
       <use xlink:href="#DejaVuSans-48"/>
       <use x="63.623047" xlink:href="#DejaVuSans-46"/>
       <use x="95.410156" xlink:href="#DejaVuSans-51"/>
       <use x="159.033203" xlink:href="#DejaVuSans-48"/>
      </g>
     </g>
    </g>
    <g id="ytick_5">
     <g id="line2d_5">
      <path clip-path="url(#pb879db32f0)" d="M 90.69 292.135623 
L 1420.56 292.135623 
" style="fill:none;stroke:#999999;stroke-dasharray:1.5,2.475;stroke-dashoffset:0;stroke-width:1.5;"/>
     </g>
     <g id="text_10">
      <!-- 0.35 -->
      <g style="fill:#262626;" transform="translate(41.451719 298.404334)scale(0.165 -0.165)">
       <use xlink:href="#DejaVuSans-48"/>
       <use x="63.623047" xlink:href="#DejaVuSans-46"/>
       <use x="95.410156" xlink:href="#DejaVuSans-51"/>
       <use x="159.033203" xlink:href="#DejaVuSans-53"/>
      </g>
     </g>
    </g>
    <g id="ytick_6">
     <g id="line2d_6">
      <path clip-path="url(#pb879db32f0)" d="M 90.69 212.615249 
L 1420.56 212.615249 
" style="fill:none;stroke:#999999;stroke-dasharray:1.5,2.475;stroke-dashoffset:0;stroke-width:1.5;"/>
     </g>
     <g id="text_11">
      <!-- 0.40 -->
      <g style="fill:#262626;" transform="translate(41.451719 218.88396)scale(0.165 -0.165)">
       <use xlink:href="#DejaVuSans-48"/>
       <use x="63.623047" xlink:href="#DejaVuSans-46"/>
       <use x="95.410156" xlink:href="#DejaVuSans-52"/>
       <use x="159.033203" xlink:href="#DejaVuSans-48"/>
      </g>
     </g>
    </g>
    <g id="ytick_7">
     <g id="line2d_7">
      <path clip-path="url(#pb879db32f0)" d="M 90.69 133.094875 
L 1420.56 133.094875 
" style="fill:none;stroke:#999999;stroke-dasharray:1.5,2.475;stroke-dashoffset:0;stroke-width:1.5;"/>
     </g>
     <g id="text_12">
      <!-- 0.45 -->
      <g style="fill:#262626;" transform="translate(41.451719 139.363586)scale(0.165 -0.165)">
       <use xlink:href="#DejaVuSans-48"/>
       <use x="63.623047" xlink:href="#DejaVuSans-46"/>
       <use x="95.410156" xlink:href="#DejaVuSans-52"/>
       <use x="159.033203" xlink:href="#DejaVuSans-53"/>
      </g>
     </g>
    </g>
    <g id="ytick_8">
     <g id="line2d_8">
      <path clip-path="url(#pb879db32f0)" d="M 90.69 53.574502 
L 1420.56 53.574502 
" style="fill:none;stroke:#999999;stroke-dasharray:1.5,2.475;stroke-dashoffset:0;stroke-width:1.5;"/>
     </g>
     <g id="text_13">
      <!-- 0.50 -->
      <g style="fill:#262626;" transform="translate(41.451719 59.843213)scale(0.165 -0.165)">
       <use xlink:href="#DejaVuSans-48"/>
       <use x="63.623047" xlink:href="#DejaVuSans-46"/>
       <use x="95.410156" xlink:href="#DejaVuSans-53"/>
       <use x="159.033203" xlink:href="#DejaVuSans-48"/>
      </g>
     </g>
    </g>
    <g id="text_14">
     <!-- proportion -->
     <g style="fill:#262626;" transform="translate(33.708281 380.627344)rotate(-90)scale(0.18 -0.18)">
      <defs>
       <path d="M 18.109375 8.203125 
L 18.109375 -20.796875 
L 9.078125 -20.796875 
L 9.078125 54.6875 
L 18.109375 54.6875 
L 18.109375 46.390625 
Q 20.953125 51.265625 25.265625 53.625 
Q 29.59375 56 35.59375 56 
Q 45.5625 56 51.78125 48.09375 
Q 58.015625 40.1875 58.015625 27.296875 
Q 58.015625 14.40625 51.78125 6.484375 
Q 45.5625 -1.421875 35.59375 -1.421875 
Q 29.59375 -1.421875 25.265625 0.953125 
Q 20.953125 3.328125 18.109375 8.203125 
z
M 48.6875 27.296875 
Q 48.6875 37.203125 44.609375 42.84375 
Q 40.53125 48.484375 33.40625 48.484375 
Q 26.265625 48.484375 22.1875 42.84375 
Q 18.109375 37.203125 18.109375 27.296875 
Q 18.109375 17.390625 22.1875 11.75 
Q 26.265625 6.109375 33.40625 6.109375 
Q 40.53125 6.109375 44.609375 11.75 
Q 48.6875 17.390625 48.6875 27.296875 
z
" id="DejaVuSans-112"/>
       <path d="M 54.890625 33.015625 
L 54.890625 0 
L 45.90625 0 
L 45.90625 32.71875 
Q 45.90625 40.484375 42.875 44.328125 
Q 39.84375 48.1875 33.796875 48.1875 
Q 26.515625 48.1875 22.3125 43.546875 
Q 18.109375 38.921875 18.109375 30.90625 
L 18.109375 0 
L 9.078125 0 
L 9.078125 54.6875 
L 18.109375 54.6875 
L 18.109375 46.1875 
Q 21.34375 51.125 25.703125 53.5625 
Q 30.078125 56 35.796875 56 
Q 45.21875 56 50.046875 50.171875 
Q 54.890625 44.34375 54.890625 33.015625 
z
" id="DejaVuSans-110"/>
      </defs>
      <use xlink:href="#DejaVuSans-112"/>
      <use x="63.476562" xlink:href="#DejaVuSans-114"/>
      <use x="102.339844" xlink:href="#DejaVuSans-111"/>
      <use x="163.521484" xlink:href="#DejaVuSans-112"/>
      <use x="226.998047" xlink:href="#DejaVuSans-111"/>
      <use x="288.179688" xlink:href="#DejaVuSans-114"/>
      <use x="329.292969" xlink:href="#DejaVuSans-116"/>
      <use x="368.501953" xlink:href="#DejaVuSans-105"/>
      <use x="396.285156" xlink:href="#DejaVuSans-111"/>
      <use x="457.466797" xlink:href="#DejaVuSans-110"/>
     </g>
    </g>
   </g>
   <g id="patch_3">
    <path clip-path="url(#pb879db32f0)" d="M 124.468698 504.737155 
L 176.599602 504.737155 
L 176.599602 468.381596 
L 124.468698 468.381596 
L 124.468698 504.737155 
z
" style="fill:#96cac1;stroke:#666666;stroke-linejoin:miter;stroke-width:2.25;"/>
   </g>
   <g id="patch_4">
    <path clip-path="url(#pb879db32f0)" d="M 177.663498 507.118941 
L 229.794402 507.118941 
L 229.794402 474.481688 
L 177.663498 474.481688 
L 177.663498 507.118941 
z
" style="fill:#f6f6bc;stroke:#666666;stroke-linejoin:miter;stroke-width:2.25;"/>
   </g>
   <g id="patch_5">
    <path clip-path="url(#pb879db32f0)" d="M 230.858298 525.797255 
L 282.989202 525.797255 
L 282.989202 447.97625 
L 230.858298 447.97625 
L 230.858298 525.797255 
z
" style="fill:#c1bed6;stroke:#666666;stroke-linejoin:miter;stroke-width:2.25;"/>
   </g>
   <g id="patch_6">
    <path clip-path="url(#pb879db32f0)" d="M 284.053098 508.75169 
L 336.184002 508.75169 
L 336.184002 450.444114 
L 284.053098 450.444114 
L 284.053098 508.75169 
z
" style="fill:#ea8e83;stroke:#666666;stroke-linejoin:miter;stroke-width:2.25;"/>
   </g>
   <g id="patch_7">
    <path clip-path="url(#pb879db32f0)" d="M 456.936198 563.291549 
L 509.067102 563.291549 
L 509.067102 488.408574 
L 456.936198 488.408574 
L 456.936198 563.291549 
z
" style="fill:#96cac1;stroke:#666666;stroke-linejoin:miter;stroke-width:2.25;"/>
   </g>
   <g id="patch_8">
    <path clip-path="url(#pb879db32f0)" d="M 510.130998 522.440504 
L 562.261902 522.440504 
L 562.261902 450.390362 
L 510.130998 450.390362 
L 510.130998 522.440504 
z
" style="fill:#f6f6bc;stroke:#666666;stroke-linejoin:miter;stroke-width:2.25;"/>
   </g>
   <g id="patch_9">
    <path clip-path="url(#pb879db32f0)" d="M 563.325798 509.444401 
L 615.456702 509.444401 
L 615.456702 450.775019 
L 563.325798 450.775019 
L 563.325798 509.444401 
z
" style="fill:#c1bed6;stroke:#666666;stroke-linejoin:miter;stroke-width:2.25;"/>
   </g>
   <g id="patch_10">
    <path clip-path="url(#pb879db32f0)" d="M 616.520598 527.821222 
L 668.651502 527.821222 
L 668.651502 454.016731 
L 616.520598 454.016731 
L 616.520598 527.821222 
z
" style="fill:#ea8e83;stroke:#666666;stroke-linejoin:miter;stroke-width:2.25;"/>
   </g>
   <g id="patch_11">
    <path clip-path="url(#pb879db32f0)" d="M 789.403698 574.093145 
L 841.534602 574.093145 
L 841.534602 491.631575 
L 789.403698 491.631575 
L 789.403698 574.093145 
z
" style="fill:#96cac1;stroke:#666666;stroke-linejoin:miter;stroke-width:2.25;"/>
   </g>
   <g id="patch_12">
    <path clip-path="url(#pb879db32f0)" d="M 842.598498 496.620912 
L 894.729402 496.620912 
L 894.729402 444.106576 
L 842.598498 444.106576 
L 842.598498 496.620912 
z
" style="fill:#f6f6bc;stroke:#666666;stroke-linejoin:miter;stroke-width:2.25;"/>
   </g>
   <g id="patch_13">
    <path clip-path="url(#pb879db32f0)" d="M 895.793298 538.390951 
L 947.924202 538.390951 
L 947.924202 418.710076 
L 895.793298 418.710076 
L 895.793298 538.390951 
z
" style="fill:#c1bed6;stroke:#666666;stroke-linejoin:miter;stroke-width:2.25;"/>
   </g>
   <g id="patch_14">
    <path clip-path="url(#pb879db32f0)" d="M 948.988098 515.241674 
L 1001.119002 515.241674 
L 1001.119002 445.823297 
L 948.988098 445.823297 
L 948.988098 515.241674 
z
" style="fill:#ea8e83;stroke:#666666;stroke-linejoin:miter;stroke-width:2.25;"/>
   </g>
   <g id="patch_15">
    <path clip-path="url(#pb879db32f0)" d="M 1121.871198 356.283735 
L 1174.002102 356.283735 
L 1174.002102 162.583632 
L 1121.871198 162.583632 
L 1121.871198 356.283735 
z
" style="fill:#96cac1;stroke:#666666;stroke-linejoin:miter;stroke-width:2.25;"/>
   </g>
   <g id="patch_16">
    <path clip-path="url(#pb879db32f0)" d="M 1175.065998 445.769975 
L 1227.196902 445.769975 
L 1227.196902 283.464406 
L 1175.065998 283.464406 
L 1175.065998 445.769975 
z
" style="fill:#f6f6bc;stroke:#666666;stroke-linejoin:miter;stroke-width:2.25;"/>
   </g>
   <g id="patch_17">
    <path clip-path="url(#pb879db32f0)" d="M 1228.260798 437.981799 
L 1280.391702 437.981799 
L 1280.391702 345.413362 
L 1228.260798 345.413362 
L 1228.260798 437.981799 
z
" style="fill:#c1bed6;stroke:#666666;stroke-linejoin:miter;stroke-width:2.25;"/>
   </g>
   <g id="patch_18">
    <path clip-path="url(#pb879db32f0)" d="M 1281.455598 406.14993 
L 1333.586502 406.14993 
L 1333.586502 332.108861 
L 1281.455598 332.108861 
L 1281.455598 406.14993 
z
" style="fill:#ea8e83;stroke:#666666;stroke-linejoin:miter;stroke-width:2.25;"/>
   </g>
   <g id="patch_19">
    <path clip-path="url(#pb879db32f0)" d="M 256.92375 848.778239 
L 256.92375 848.778239 
L 256.92375 848.778239 
L 256.92375 848.778239 
z
" style="fill:#96cac1;stroke:#666666;stroke-linejoin:miter;stroke-width:1.125;"/>
   </g>
   <g id="patch_20">
    <path clip-path="url(#pb879db32f0)" d="M 256.92375 848.778239 
L 256.92375 848.778239 
L 256.92375 848.778239 
L 256.92375 848.778239 
z
" style="fill:#f6f6bc;stroke:#666666;stroke-linejoin:miter;stroke-width:1.125;"/>
   </g>
   <g id="patch_21">
    <path clip-path="url(#pb879db32f0)" d="M 256.92375 848.778239 
L 256.92375 848.778239 
L 256.92375 848.778239 
L 256.92375 848.778239 
z
" style="fill:#c1bed6;stroke:#666666;stroke-linejoin:miter;stroke-width:1.125;"/>
   </g>
   <g id="patch_22">
    <path clip-path="url(#pb879db32f0)" d="M 256.92375 848.778239 
L 256.92375 848.778239 
L 256.92375 848.778239 
L 256.92375 848.778239 
z
" style="fill:#ea8e83;stroke:#666666;stroke-linejoin:miter;stroke-width:1.125;"/>
   </g>
   <g id="patch_23">
    <path clip-path="url(#pb879db32f0)" d="M 256.92375 848.778239 
L 256.92375 848.778239 
L 256.92375 848.778239 
L 256.92375 848.778239 
z
" style="fill:#8aafc9;stroke:#666666;stroke-linejoin:miter;stroke-width:1.125;"/>
   </g>
   <g id="line2d_9">
    <path clip-path="url(#pb879db32f0)" d="M 150.53415 504.737155 
L 150.53415 522.914934 
" style="fill:none;stroke:#666666;stroke-linecap:round;stroke-width:2.25;"/>
   </g>
   <g id="line2d_10">
    <path clip-path="url(#pb879db32f0)" d="M 150.53415 468.381596 
L 150.53415 450.203817 
" style="fill:none;stroke:#666666;stroke-linecap:round;stroke-width:2.25;"/>
   </g>
   <g id="line2d_11">
    <path clip-path="url(#pb879db32f0)" d="M 137.501424 522.914934 
L 163.566876 522.914934 
" style="fill:none;stroke:#666666;stroke-linecap:round;stroke-width:2.25;"/>
   </g>
   <g id="line2d_12">
    <path clip-path="url(#pb879db32f0)" d="M 137.501424 450.203817 
L 163.566876 450.203817 
" style="fill:none;stroke:#666666;stroke-linecap:round;stroke-width:2.25;"/>
   </g>
   <g id="line2d_13"/>
   <g id="line2d_14">
    <path clip-path="url(#pb879db32f0)" d="M 203.72895 507.118941 
L 203.72895 521.915353 
" style="fill:none;stroke:#666666;stroke-linecap:round;stroke-width:2.25;"/>
   </g>
   <g id="line2d_15">
    <path clip-path="url(#pb879db32f0)" d="M 203.72895 474.481688 
L 203.72895 440.809676 
" style="fill:none;stroke:#666666;stroke-linecap:round;stroke-width:2.25;"/>
   </g>
   <g id="line2d_16">
    <path clip-path="url(#pb879db32f0)" d="M 190.696224 521.915353 
L 216.761676 521.915353 
" style="fill:none;stroke:#666666;stroke-linecap:round;stroke-width:2.25;"/>
   </g>
   <g id="line2d_17">
    <path clip-path="url(#pb879db32f0)" d="M 190.696224 440.809676 
L 216.761676 440.809676 
" style="fill:none;stroke:#666666;stroke-linecap:round;stroke-width:2.25;"/>
   </g>
   <g id="line2d_18"/>
   <g id="line2d_19">
    <path clip-path="url(#pb879db32f0)" d="M 256.92375 525.797255 
L 256.92375 537.369782 
" style="fill:none;stroke:#666666;stroke-linecap:round;stroke-width:2.25;"/>
   </g>
   <g id="line2d_20">
    <path clip-path="url(#pb879db32f0)" d="M 256.92375 447.97625 
L 256.92375 390.28239 
" style="fill:none;stroke:#666666;stroke-linecap:round;stroke-width:2.25;"/>
   </g>
   <g id="line2d_21">
    <path clip-path="url(#pb879db32f0)" d="M 243.891024 537.369782 
L 269.956476 537.369782 
" style="fill:none;stroke:#666666;stroke-linecap:round;stroke-width:2.25;"/>
   </g>
   <g id="line2d_22">
    <path clip-path="url(#pb879db32f0)" d="M 243.891024 390.28239 
L 269.956476 390.28239 
" style="fill:none;stroke:#666666;stroke-linecap:round;stroke-width:2.25;"/>
   </g>
   <g id="line2d_23"/>
   <g id="line2d_24">
    <path clip-path="url(#pb879db32f0)" d="M 310.11855 508.75169 
L 310.11855 537.369782 
" style="fill:none;stroke:#666666;stroke-linecap:round;stroke-width:2.25;"/>
   </g>
   <g id="line2d_25">
    <path clip-path="url(#pb879db32f0)" d="M 310.11855 450.444114 
L 310.11855 390.28239 
" style="fill:none;stroke:#666666;stroke-linecap:round;stroke-width:2.25;"/>
   </g>
   <g id="line2d_26">
    <path clip-path="url(#pb879db32f0)" d="M 297.085824 537.369782 
L 323.151276 537.369782 
" style="fill:none;stroke:#666666;stroke-linecap:round;stroke-width:2.25;"/>
   </g>
   <g id="line2d_27">
    <path clip-path="url(#pb879db32f0)" d="M 297.085824 390.28239 
L 323.151276 390.28239 
" style="fill:none;stroke:#666666;stroke-linecap:round;stroke-width:2.25;"/>
   </g>
   <g id="line2d_28"/>
   <g id="line2d_29">
    <path clip-path="url(#pb879db32f0)" d="M 483.00165 563.291549 
L 483.00165 600.733036 
" style="fill:none;stroke:#666666;stroke-linecap:round;stroke-width:2.25;"/>
   </g>
   <g id="line2d_30">
    <path clip-path="url(#pb879db32f0)" d="M 483.00165 488.408574 
L 483.00165 450.967087 
" style="fill:none;stroke:#666666;stroke-linecap:round;stroke-width:2.25;"/>
   </g>
   <g id="line2d_31">
    <path clip-path="url(#pb879db32f0)" d="M 469.968924 600.733036 
L 496.034376 600.733036 
" style="fill:none;stroke:#666666;stroke-linecap:round;stroke-width:2.25;"/>
   </g>
   <g id="line2d_32">
    <path clip-path="url(#pb879db32f0)" d="M 469.968924 450.967087 
L 496.034376 450.967087 
" style="fill:none;stroke:#666666;stroke-linecap:round;stroke-width:2.25;"/>
   </g>
   <g id="line2d_33"/>
   <g id="line2d_34">
    <path clip-path="url(#pb879db32f0)" d="M 536.19645 522.440504 
L 536.19645 599.972161 
" style="fill:none;stroke:#666666;stroke-linecap:round;stroke-width:2.25;"/>
   </g>
   <g id="line2d_35">
    <path clip-path="url(#pb879db32f0)" d="M 536.19645 450.390362 
L 536.19645 447.776464 
" style="fill:none;stroke:#666666;stroke-linecap:round;stroke-width:2.25;"/>
   </g>
   <g id="line2d_36">
    <path clip-path="url(#pb879db32f0)" d="M 523.163724 599.972161 
L 549.229176 599.972161 
" style="fill:none;stroke:#666666;stroke-linecap:round;stroke-width:2.25;"/>
   </g>
   <g id="line2d_37">
    <path clip-path="url(#pb879db32f0)" d="M 523.163724 447.776464 
L 549.229176 447.776464 
" style="fill:none;stroke:#666666;stroke-linecap:round;stroke-width:2.25;"/>
   </g>
   <g id="line2d_38"/>
   <g id="line2d_39">
    <path clip-path="url(#pb879db32f0)" d="M 589.39125 509.444401 
L 589.39125 520.50908 
" style="fill:none;stroke:#666666;stroke-linecap:round;stroke-width:2.25;"/>
   </g>
   <g id="line2d_40">
    <path clip-path="url(#pb879db32f0)" d="M 589.39125 450.775019 
L 589.39125 449.123349 
" style="fill:none;stroke:#666666;stroke-linecap:round;stroke-width:2.25;"/>
   </g>
   <g id="line2d_41">
    <path clip-path="url(#pb879db32f0)" d="M 576.358524 520.50908 
L 602.423976 520.50908 
" style="fill:none;stroke:#666666;stroke-linecap:round;stroke-width:2.25;"/>
   </g>
   <g id="line2d_42">
    <path clip-path="url(#pb879db32f0)" d="M 576.358524 449.123349 
L 602.423976 449.123349 
" style="fill:none;stroke:#666666;stroke-linecap:round;stroke-width:2.25;"/>
   </g>
   <g id="line2d_43">
    <defs>
     <path d="M -0 3.535534 
L 2.12132 0 
L -0 -3.535534 
L -2.12132 -0 
z
" id="me9bc117ebe" style="stroke:#666666;stroke-linejoin:miter;"/>
    </defs>
    <g clip-path="url(#pb879db32f0)">
     <use style="fill:#666666;stroke:#666666;stroke-linejoin:miter;" x="589.39125" xlink:href="#me9bc117ebe" y="609.661031"/>
    </g>
   </g>
   <g id="line2d_44">
    <path clip-path="url(#pb879db32f0)" d="M 642.58605 527.821222 
L 642.58605 609.661031 
" style="fill:none;stroke:#666666;stroke-linecap:round;stroke-width:2.25;"/>
   </g>
   <g id="line2d_45">
    <path clip-path="url(#pb879db32f0)" d="M 642.58605 454.016731 
L 642.58605 434.156552 
" style="fill:none;stroke:#666666;stroke-linecap:round;stroke-width:2.25;"/>
   </g>
   <g id="line2d_46">
    <path clip-path="url(#pb879db32f0)" d="M 629.553324 609.661031 
L 655.618776 609.661031 
" style="fill:none;stroke:#666666;stroke-linecap:round;stroke-width:2.25;"/>
   </g>
   <g id="line2d_47">
    <path clip-path="url(#pb879db32f0)" d="M 629.553324 434.156552 
L 655.618776 434.156552 
" style="fill:none;stroke:#666666;stroke-linecap:round;stroke-width:2.25;"/>
   </g>
   <g id="line2d_48"/>
   <g id="line2d_49">
    <path clip-path="url(#pb879db32f0)" d="M 815.46915 574.093145 
L 815.46915 615.323931 
" style="fill:none;stroke:#666666;stroke-linecap:round;stroke-width:2.25;"/>
   </g>
   <g id="line2d_50">
    <path clip-path="url(#pb879db32f0)" d="M 815.46915 491.631575 
L 815.46915 450.40079 
" style="fill:none;stroke:#666666;stroke-linecap:round;stroke-width:2.25;"/>
   </g>
   <g id="line2d_51">
    <path clip-path="url(#pb879db32f0)" d="M 802.436424 615.323931 
L 828.501876 615.323931 
" style="fill:none;stroke:#666666;stroke-linecap:round;stroke-width:2.25;"/>
   </g>
   <g id="line2d_52">
    <path clip-path="url(#pb879db32f0)" d="M 802.436424 450.40079 
L 828.501876 450.40079 
" style="fill:none;stroke:#666666;stroke-linecap:round;stroke-width:2.25;"/>
   </g>
   <g id="line2d_53"/>
   <g id="line2d_54">
    <path clip-path="url(#pb879db32f0)" d="M 868.66395 496.620912 
L 868.66395 496.620912 
" style="fill:none;stroke:#666666;stroke-linecap:round;stroke-width:2.25;"/>
   </g>
   <g id="line2d_55">
    <path clip-path="url(#pb879db32f0)" d="M 868.66395 444.106576 
L 868.66395 429.186152 
" style="fill:none;stroke:#666666;stroke-linecap:round;stroke-width:2.25;"/>
   </g>
   <g id="line2d_56">
    <path clip-path="url(#pb879db32f0)" d="M 855.631224 496.620912 
L 881.696676 496.620912 
" style="fill:none;stroke:#666666;stroke-linecap:round;stroke-width:2.25;"/>
   </g>
   <g id="line2d_57">
    <path clip-path="url(#pb879db32f0)" d="M 855.631224 429.186152 
L 881.696676 429.186152 
" style="fill:none;stroke:#666666;stroke-linecap:round;stroke-width:2.25;"/>
   </g>
   <g id="line2d_58">
    <g clip-path="url(#pb879db32f0)">
     <use style="fill:#666666;stroke:#666666;stroke-linejoin:miter;" x="868.66395" xlink:href="#me9bc117ebe" y="619.486364"/>
    </g>
   </g>
   <g id="line2d_59">
    <path clip-path="url(#pb879db32f0)" d="M 921.85875 538.390951 
L 921.85875 609.661031 
" style="fill:none;stroke:#666666;stroke-linecap:round;stroke-width:2.25;"/>
   </g>
   <g id="line2d_60">
    <path clip-path="url(#pb879db32f0)" d="M 921.85875 418.710076 
L 921.85875 384.673567 
" style="fill:none;stroke:#666666;stroke-linecap:round;stroke-width:2.25;"/>
   </g>
   <g id="line2d_61">
    <path clip-path="url(#pb879db32f0)" d="M 908.826024 609.661031 
L 934.891476 609.661031 
" style="fill:none;stroke:#666666;stroke-linecap:round;stroke-width:2.25;"/>
   </g>
   <g id="line2d_62">
    <path clip-path="url(#pb879db32f0)" d="M 908.826024 384.673567 
L 934.891476 384.673567 
" style="fill:none;stroke:#666666;stroke-linecap:round;stroke-width:2.25;"/>
   </g>
   <g id="line2d_63"/>
   <g id="line2d_64">
    <path clip-path="url(#pb879db32f0)" d="M 975.05355 515.241674 
L 975.05355 609.661031 
" style="fill:none;stroke:#666666;stroke-linecap:round;stroke-width:2.25;"/>
   </g>
   <g id="line2d_65">
    <path clip-path="url(#pb879db32f0)" d="M 975.05355 445.823297 
L 975.05355 402.535304 
" style="fill:none;stroke:#666666;stroke-linecap:round;stroke-width:2.25;"/>
   </g>
   <g id="line2d_66">
    <path clip-path="url(#pb879db32f0)" d="M 962.020824 609.661031 
L 988.086276 609.661031 
" style="fill:none;stroke:#666666;stroke-linecap:round;stroke-width:2.25;"/>
   </g>
   <g id="line2d_67">
    <path clip-path="url(#pb879db32f0)" d="M 962.020824 402.535304 
L 988.086276 402.535304 
" style="fill:none;stroke:#666666;stroke-linecap:round;stroke-width:2.25;"/>
   </g>
   <g id="line2d_68"/>
   <g id="line2d_69">
    <path clip-path="url(#pb879db32f0)" d="M 1147.93665 356.283735 
L 1147.93665 453.133787 
" style="fill:none;stroke:#666666;stroke-linecap:round;stroke-width:2.25;"/>
   </g>
   <g id="line2d_70">
    <path clip-path="url(#pb879db32f0)" d="M 1147.93665 162.583632 
L 1147.93665 65.73358 
" style="fill:none;stroke:#666666;stroke-linecap:round;stroke-width:2.25;"/>
   </g>
   <g id="line2d_71">
    <path clip-path="url(#pb879db32f0)" d="M 1134.903924 453.133787 
L 1160.969376 453.133787 
" style="fill:none;stroke:#666666;stroke-linecap:round;stroke-width:2.25;"/>
   </g>
   <g id="line2d_72">
    <path clip-path="url(#pb879db32f0)" d="M 1134.903924 65.73358 
L 1160.969376 65.73358 
" style="fill:none;stroke:#666666;stroke-linecap:round;stroke-width:2.25;"/>
   </g>
   <g id="line2d_73"/>
   <g id="line2d_74">
    <path clip-path="url(#pb879db32f0)" d="M 1201.13145 445.769975 
L 1201.13145 456.968382 
" style="fill:none;stroke:#666666;stroke-linecap:round;stroke-width:2.25;"/>
   </g>
   <g id="line2d_75">
    <path clip-path="url(#pb879db32f0)" d="M 1201.13145 283.464406 
L 1201.13145 63.331603 
" style="fill:none;stroke:#666666;stroke-linecap:round;stroke-width:2.25;"/>
   </g>
   <g id="line2d_76">
    <path clip-path="url(#pb879db32f0)" d="M 1188.098724 456.968382 
L 1214.164176 456.968382 
" style="fill:none;stroke:#666666;stroke-linecap:round;stroke-width:2.25;"/>
   </g>
   <g id="line2d_77">
    <path clip-path="url(#pb879db32f0)" d="M 1188.098724 63.331603 
L 1214.164176 63.331603 
" style="fill:none;stroke:#666666;stroke-linecap:round;stroke-width:2.25;"/>
   </g>
   <g id="line2d_78"/>
   <g id="line2d_79">
    <path clip-path="url(#pb879db32f0)" d="M 1254.32625 437.981799 
L 1254.32625 476.603898 
" style="fill:none;stroke:#666666;stroke-linecap:round;stroke-width:2.25;"/>
   </g>
   <g id="line2d_80">
    <path clip-path="url(#pb879db32f0)" d="M 1254.32625 345.413362 
L 1254.32625 337.986441 
" style="fill:none;stroke:#666666;stroke-linecap:round;stroke-width:2.25;"/>
   </g>
   <g id="line2d_81">
    <path clip-path="url(#pb879db32f0)" d="M 1241.293524 476.603898 
L 1267.358976 476.603898 
" style="fill:none;stroke:#666666;stroke-linecap:round;stroke-width:2.25;"/>
   </g>
   <g id="line2d_82">
    <path clip-path="url(#pb879db32f0)" d="M 1241.293524 337.986441 
L 1267.358976 337.986441 
" style="fill:none;stroke:#666666;stroke-linecap:round;stroke-width:2.25;"/>
   </g>
   <g id="line2d_83">
    <g clip-path="url(#pb879db32f0)">
     <use style="fill:#666666;stroke:#666666;stroke-linejoin:miter;" x="1254.32625" xlink:href="#me9bc117ebe" y="48.013636"/>
    </g>
   </g>
   <g id="line2d_84">
    <path clip-path="url(#pb879db32f0)" d="M 1307.52105 406.14993 
L 1307.52105 478.414195 
" style="fill:none;stroke:#666666;stroke-linecap:round;stroke-width:2.25;"/>
   </g>
   <g id="line2d_85">
    <path clip-path="url(#pb879db32f0)" d="M 1307.52105 332.108861 
L 1307.52105 322.019075 
" style="fill:none;stroke:#666666;stroke-linecap:round;stroke-width:2.25;"/>
   </g>
   <g id="line2d_86">
    <path clip-path="url(#pb879db32f0)" d="M 1294.488324 478.414195 
L 1320.553776 478.414195 
" style="fill:none;stroke:#666666;stroke-linecap:round;stroke-width:2.25;"/>
   </g>
   <g id="line2d_87">
    <path clip-path="url(#pb879db32f0)" d="M 1294.488324 322.019075 
L 1320.553776 322.019075 
" style="fill:none;stroke:#666666;stroke-linecap:round;stroke-width:2.25;"/>
   </g>
   <g id="line2d_88">
    <g clip-path="url(#pb879db32f0)">
     <use style="fill:#666666;stroke:#666666;stroke-linejoin:miter;" x="1307.52105" xlink:href="#me9bc117ebe" y="48.013636"/>
    </g>
   </g>
   <g id="line2d_89">
    <path clip-path="url(#pb879db32f0)" d="M 124.468698 486.559375 
L 176.599602 486.559375 
" style="fill:none;stroke:#666666;stroke-linecap:round;stroke-width:2.25;"/>
   </g>
   <g id="line2d_90">
    <path clip-path="url(#pb879db32f0)" d="M 177.663498 493.946248 
L 229.794402 493.946248 
" style="fill:none;stroke:#666666;stroke-linecap:round;stroke-width:2.25;"/>
   </g>
   <g id="line2d_91">
    <path clip-path="url(#pb879db32f0)" d="M 230.858298 488.892727 
L 282.989202 488.892727 
" style="fill:none;stroke:#666666;stroke-linecap:round;stroke-width:2.25;"/>
   </g>
   <g id="line2d_92">
    <path clip-path="url(#pb879db32f0)" d="M 284.053098 484.158762 
L 336.184002 484.158762 
" style="fill:none;stroke:#666666;stroke-linecap:round;stroke-width:2.25;"/>
   </g>
   <g id="line2d_93">
    <path clip-path="url(#pb879db32f0)" d="M 456.936198 525.850061 
L 509.067102 525.850061 
" style="fill:none;stroke:#666666;stroke-linecap:round;stroke-width:2.25;"/>
   </g>
   <g id="line2d_94">
    <path clip-path="url(#pb879db32f0)" d="M 510.130998 473.92914 
L 562.261902 473.92914 
" style="fill:none;stroke:#666666;stroke-linecap:round;stroke-width:2.25;"/>
   </g>
   <g id="line2d_95">
    <path clip-path="url(#pb879db32f0)" d="M 563.325798 464.700149 
L 615.456702 464.700149 
" style="fill:none;stroke:#666666;stroke-linecap:round;stroke-width:2.25;"/>
   </g>
   <g id="line2d_96">
    <path clip-path="url(#pb879db32f0)" d="M 616.520598 469.692342 
L 668.651502 469.692342 
" style="fill:none;stroke:#666666;stroke-linecap:round;stroke-width:2.25;"/>
   </g>
   <g id="line2d_97">
    <path clip-path="url(#pb879db32f0)" d="M 789.403698 532.86236 
L 841.534602 532.86236 
" style="fill:none;stroke:#666666;stroke-linecap:round;stroke-width:2.25;"/>
   </g>
   <g id="line2d_98">
    <path clip-path="url(#pb879db32f0)" d="M 842.598498 452.372906 
L 894.729402 452.372906 
" style="fill:none;stroke:#666666;stroke-linecap:round;stroke-width:2.25;"/>
   </g>
   <g id="line2d_99">
    <path clip-path="url(#pb879db32f0)" d="M 895.793298 485.062903 
L 947.924202 485.062903 
" style="fill:none;stroke:#666666;stroke-linecap:round;stroke-width:2.25;"/>
   </g>
   <g id="line2d_100">
    <path clip-path="url(#pb879db32f0)" d="M 948.988098 487.718503 
L 1001.119002 487.718503 
" style="fill:none;stroke:#666666;stroke-linecap:round;stroke-width:2.25;"/>
   </g>
   <g id="line2d_101">
    <path clip-path="url(#pb879db32f0)" d="M 1121.871198 259.433684 
L 1174.002102 259.433684 
" style="fill:none;stroke:#666666;stroke-linecap:round;stroke-width:2.25;"/>
   </g>
   <g id="line2d_102">
    <path clip-path="url(#pb879db32f0)" d="M 1175.065998 399.43959 
L 1227.196902 399.43959 
" style="fill:none;stroke:#666666;stroke-linecap:round;stroke-width:2.25;"/>
   </g>
   <g id="line2d_103">
    <path clip-path="url(#pb879db32f0)" d="M 1228.260798 378.988259 
L 1280.391702 378.988259 
" style="fill:none;stroke:#666666;stroke-linecap:round;stroke-width:2.25;"/>
   </g>
   <g id="line2d_104">
    <path clip-path="url(#pb879db32f0)" d="M 1281.455598 367.406729 
L 1333.586502 367.406729 
" style="fill:none;stroke:#666666;stroke-linecap:round;stroke-width:2.25;"/>
   </g>
   <g id="patch_24">
    <path d="M 90.69 648.06 
L 90.69 19.44 
" style="fill:none;stroke:#cccccc;stroke-linecap:square;stroke-linejoin:miter;stroke-width:1.875;"/>
   </g>
   <g id="patch_25">
    <path d="M 1420.56 648.06 
L 1420.56 19.44 
" style="fill:none;stroke:#cccccc;stroke-linecap:square;stroke-linejoin:miter;stroke-width:1.875;"/>
   </g>
   <g id="patch_26">
    <path d="M 90.69 648.06 
L 1420.56 648.06 
" style="fill:none;stroke:#cccccc;stroke-linecap:square;stroke-linejoin:miter;stroke-width:1.875;"/>
   </g>
   <g id="patch_27">
    <path d="M 90.69 19.44 
L 1420.56 19.44 
" style="fill:none;stroke:#cccccc;stroke-linecap:square;stroke-linejoin:miter;stroke-width:1.875;"/>
   </g>
   <g id="legend_1">
    <g id="patch_28">
     <path d="M 102.24 179.405156 
L 211.170937 179.405156 
Q 214.470937 179.405156 214.470937 176.105156 
L 214.470937 30.99 
Q 214.470937 27.69 211.170937 27.69 
L 102.24 27.69 
Q 98.94 27.69 98.94 30.99 
L 98.94 176.105156 
Q 98.94 179.405156 102.24 179.405156 
z
" style="fill:#ffffff;opacity:0.8;stroke:#cccccc;stroke-linejoin:miter;stroke-width:1.5;"/>
    </g>
    <g id="text_15">
     <!-- K-Means -->
     <g style="fill:#262626;" transform="translate(119.290781 47.967188)scale(0.18 -0.18)">
      <defs>
       <path d="M 9.8125 72.90625 
L 19.671875 72.90625 
L 19.671875 42.09375 
L 52.390625 72.90625 
L 65.09375 72.90625 
L 28.90625 38.921875 
L 67.671875 0 
L 54.6875 0 
L 19.671875 35.109375 
L 19.671875 0 
L 9.8125 0 
z
" id="DejaVuSans-75"/>
       <path d="M 9.8125 72.90625 
L 24.515625 72.90625 
L 43.109375 23.296875 
L 61.8125 72.90625 
L 76.515625 72.90625 
L 76.515625 0 
L 66.890625 0 
L 66.890625 64.015625 
L 48.09375 14.015625 
L 38.1875 14.015625 
L 19.390625 64.015625 
L 19.390625 0 
L 9.8125 0 
z
" id="DejaVuSans-77"/>
      </defs>
      <use xlink:href="#DejaVuSans-75"/>
      <use x="55.076172" xlink:href="#DejaVuSans-45"/>
      <use x="91.160156" xlink:href="#DejaVuSans-77"/>
      <use x="177.439453" xlink:href="#DejaVuSans-101"/>
      <use x="238.962891" xlink:href="#DejaVuSans-97"/>
      <use x="300.242188" xlink:href="#DejaVuSans-110"/>
      <use x="363.621094" xlink:href="#DejaVuSans-115"/>
     </g>
    </g>
    <g id="patch_29">
     <path d="M 105.54 72.498047 
L 138.54 72.498047 
L 138.54 60.948047 
L 105.54 60.948047 
z
" style="fill:#96cac1;stroke:#666666;stroke-linejoin:miter;stroke-width:1.125;"/>
    </g>
    <g id="text_16">
     <!-- K = 2 -->
     <g style="fill:#262626;" transform="translate(151.74 72.498047)scale(0.165 -0.165)">
      <defs>
       <path d="M 10.59375 45.40625 
L 73.1875 45.40625 
L 73.1875 37.203125 
L 10.59375 37.203125 
z
M 10.59375 25.484375 
L 73.1875 25.484375 
L 73.1875 17.1875 
L 10.59375 17.1875 
z
" id="DejaVuSans-61"/>
      </defs>
      <use xlink:href="#DejaVuSans-75"/>
      <use x="65.576172" xlink:href="#DejaVuSans-32"/>
      <use x="97.363281" xlink:href="#DejaVuSans-61"/>
      <use x="181.152344" xlink:href="#DejaVuSans-32"/>
      <use x="212.939453" xlink:href="#DejaVuSans-50"/>
     </g>
    </g>
    <g id="patch_30">
     <path d="M 105.54 96.716953 
L 138.54 96.716953 
L 138.54 85.166953 
L 105.54 85.166953 
z
" style="fill:#f6f6bc;stroke:#666666;stroke-linejoin:miter;stroke-width:1.125;"/>
    </g>
    <g id="text_17">
     <!-- K = 4 -->
     <g style="fill:#262626;" transform="translate(151.74 96.716953)scale(0.165 -0.165)">
      <use xlink:href="#DejaVuSans-75"/>
      <use x="65.576172" xlink:href="#DejaVuSans-32"/>
      <use x="97.363281" xlink:href="#DejaVuSans-61"/>
      <use x="181.152344" xlink:href="#DejaVuSans-32"/>
      <use x="212.939453" xlink:href="#DejaVuSans-52"/>
     </g>
    </g>
    <g id="patch_31">
     <path d="M 105.54 120.935859 
L 138.54 120.935859 
L 138.54 109.385859 
L 105.54 109.385859 
z
" style="fill:#c1bed6;stroke:#666666;stroke-linejoin:miter;stroke-width:1.125;"/>
    </g>
    <g id="text_18">
     <!-- K = 6 -->
     <g style="fill:#262626;" transform="translate(151.74 120.935859)scale(0.165 -0.165)">
      <defs>
       <path d="M 33.015625 40.375 
Q 26.375 40.375 22.484375 35.828125 
Q 18.609375 31.296875 18.609375 23.390625 
Q 18.609375 15.53125 22.484375 10.953125 
Q 26.375 6.390625 33.015625 6.390625 
Q 39.65625 6.390625 43.53125 10.953125 
Q 47.40625 15.53125 47.40625 23.390625 
Q 47.40625 31.296875 43.53125 35.828125 
Q 39.65625 40.375 33.015625 40.375 
z
M 52.59375 71.296875 
L 52.59375 62.3125 
Q 48.875 64.0625 45.09375 64.984375 
Q 41.3125 65.921875 37.59375 65.921875 
Q 27.828125 65.921875 22.671875 59.328125 
Q 17.53125 52.734375 16.796875 39.40625 
Q 19.671875 43.65625 24.015625 45.921875 
Q 28.375 48.1875 33.59375 48.1875 
Q 44.578125 48.1875 50.953125 41.515625 
Q 57.328125 34.859375 57.328125 23.390625 
Q 57.328125 12.15625 50.6875 5.359375 
Q 44.046875 -1.421875 33.015625 -1.421875 
Q 20.359375 -1.421875 13.671875 8.265625 
Q 6.984375 17.96875 6.984375 36.375 
Q 6.984375 53.65625 15.1875 63.9375 
Q 23.390625 74.21875 37.203125 74.21875 
Q 40.921875 74.21875 44.703125 73.484375 
Q 48.484375 72.75 52.59375 71.296875 
z
" id="DejaVuSans-54"/>
      </defs>
      <use xlink:href="#DejaVuSans-75"/>
      <use x="65.576172" xlink:href="#DejaVuSans-32"/>
      <use x="97.363281" xlink:href="#DejaVuSans-61"/>
      <use x="181.152344" xlink:href="#DejaVuSans-32"/>
      <use x="212.939453" xlink:href="#DejaVuSans-54"/>
     </g>
    </g>
    <g id="patch_32">
     <path d="M 105.54 145.154766 
L 138.54 145.154766 
L 138.54 133.604766 
L 105.54 133.604766 
z
" style="fill:#ea8e83;stroke:#666666;stroke-linejoin:miter;stroke-width:1.125;"/>
    </g>
    <g id="text_19">
     <!-- K = 8 -->
     <g style="fill:#262626;" transform="translate(151.74 145.154766)scale(0.165 -0.165)">
      <defs>
       <path d="M 31.78125 34.625 
Q 24.75 34.625 20.71875 30.859375 
Q 16.703125 27.09375 16.703125 20.515625 
Q 16.703125 13.921875 20.71875 10.15625 
Q 24.75 6.390625 31.78125 6.390625 
Q 38.8125 6.390625 42.859375 10.171875 
Q 46.921875 13.96875 46.921875 20.515625 
Q 46.921875 27.09375 42.890625 30.859375 
Q 38.875 34.625 31.78125 34.625 
z
M 21.921875 38.8125 
Q 15.578125 40.375 12.03125 44.71875 
Q 8.5 49.078125 8.5 55.328125 
Q 8.5 64.0625 14.71875 69.140625 
Q 20.953125 74.21875 31.78125 74.21875 
Q 42.671875 74.21875 48.875 69.140625 
Q 55.078125 64.0625 55.078125 55.328125 
Q 55.078125 49.078125 51.53125 44.71875 
Q 48 40.375 41.703125 38.8125 
Q 48.828125 37.15625 52.796875 32.3125 
Q 56.78125 27.484375 56.78125 20.515625 
Q 56.78125 9.90625 50.3125 4.234375 
Q 43.84375 -1.421875 31.78125 -1.421875 
Q 19.734375 -1.421875 13.25 4.234375 
Q 6.78125 9.90625 6.78125 20.515625 
Q 6.78125 27.484375 10.78125 32.3125 
Q 14.796875 37.15625 21.921875 38.8125 
z
M 18.3125 54.390625 
Q 18.3125 48.734375 21.84375 45.5625 
Q 25.390625 42.390625 31.78125 42.390625 
Q 38.140625 42.390625 41.71875 45.5625 
Q 45.3125 48.734375 45.3125 54.390625 
Q 45.3125 60.0625 41.71875 63.234375 
Q 38.140625 66.40625 31.78125 66.40625 
Q 25.390625 66.40625 21.84375 63.234375 
Q 18.3125 60.0625 18.3125 54.390625 
z
" id="DejaVuSans-56"/>
      </defs>
      <use xlink:href="#DejaVuSans-75"/>
      <use x="65.576172" xlink:href="#DejaVuSans-32"/>
      <use x="97.363281" xlink:href="#DejaVuSans-61"/>
      <use x="181.152344" xlink:href="#DejaVuSans-32"/>
      <use x="212.939453" xlink:href="#DejaVuSans-56"/>
     </g>
    </g>
    <g id="patch_33">
     <path d="M 105.54 169.373672 
L 138.54 169.373672 
L 138.54 157.823672 
L 105.54 157.823672 
z
" style="fill:#8aafc9;stroke:#666666;stroke-linejoin:miter;stroke-width:1.125;"/>
    </g>
    <g id="text_20">
     <!-- K = 10 -->
     <g style="fill:#262626;" transform="translate(151.74 169.373672)scale(0.165 -0.165)">
      <use xlink:href="#DejaVuSans-75"/>
      <use x="65.576172" xlink:href="#DejaVuSans-32"/>
      <use x="97.363281" xlink:href="#DejaVuSans-61"/>
      <use x="181.152344" xlink:href="#DejaVuSans-32"/>
      <use x="212.939453" xlink:href="#DejaVuSans-49"/>
      <use x="276.5625" xlink:href="#DejaVuSans-48"/>
     </g>
    </g>
   </g>
  </g>
 </g>
 <defs>
  <clipPath id="pb879db32f0">
   <rect height="628.62" width="1329.87" x="90.69" y="19.44"/>
  </clipPath>
 </defs>
</svg>
