<?xml version="1.0" encoding="utf-8" standalone="no"?>
<!DOCTYPE svg PUBLIC "-//W3C//DTD SVG 1.1//EN"
  "http://www.w3.org/Graphics/SVG/1.1/DTD/svg11.dtd">
<!-- Created with matplotlib (https://matplotlib.org/) -->
<svg height="720pt" version="1.1" viewBox="0 0 1440 720" width="1440pt" xmlns="http://www.w3.org/2000/svg" xmlns:xlink="http://www.w3.org/1999/xlink">
 <metadata>
  <rdf:RDF xmlns:cc="http://creativecommons.org/ns#" xmlns:dc="http://purl.org/dc/elements/1.1/" xmlns:rdf="http://www.w3.org/1999/02/22-rdf-syntax-ns#">
   <cc:Work>
    <dc:type rdf:resource="http://purl.org/dc/dcmitype/StillImage"/>
    <dc:date>2021-10-28T12:40:24.326705</dc:date>
    <dc:format>image/svg+xml</dc:format>
    <dc:creator>
     <cc:Agent>
      <dc:title>Matplotlib v3.3.2, https://matplotlib.org/</dc:title>
     </cc:Agent>
    </dc:creator>
   </cc:Work>
  </rdf:RDF>
 </metadata>
 <defs>
  <style type="text/css">*{stroke-linecap:butt;stroke-linejoin:round;}</style>
 </defs>
 <g id="figure_1">
  <g id="patch_1">
   <path d="M 0 720 
L 1440 720 
L 1440 0 
L 0 0 
z
" style="fill:#ffffff;"/>
  </g>
  <g id="axes_1">
   <g id="patch_2">
    <path d="M 180 630 
L 1296 630 
L 1296 86.4 
L 180 86.4 
z
" style="fill:#ffffff;"/>
   </g>
   <g id="matplotlib.axis_1">
    <g id="xtick_1">
     <g id="text_1">
      <!-- Free [0,1] -->
      <g style="fill:#262626;" transform="translate(251.914922 655.037422)scale(0.165 -0.165)">
       <defs>
        <path d="M 9.8125 72.90625 
L 51.703125 72.90625 
L 51.703125 64.59375 
L 19.671875 64.59375 
L 19.671875 43.109375 
L 48.578125 43.109375 
L 48.578125 34.8125 
L 19.671875 34.8125 
L 19.671875 0 
L 9.8125 0 
z
" id="DejaVuSans-70"/>
        <path d="M 41.109375 46.296875 
Q 39.59375 47.171875 37.8125 47.578125 
Q 36.03125 48 33.890625 48 
Q 26.265625 48 22.1875 43.046875 
Q 18.109375 38.09375 18.109375 28.8125 
L 18.109375 0 
L 9.078125 0 
L 9.078125 54.6875 
L 18.109375 54.6875 
L 18.109375 46.1875 
Q 20.953125 51.171875 25.484375 53.578125 
Q 30.03125 56 36.53125 56 
Q 37.453125 56 38.578125 55.875 
Q 39.703125 55.765625 41.0625 55.515625 
z
" id="DejaVuSans-114"/>
        <path d="M 56.203125 29.59375 
L 56.203125 25.203125 
L 14.890625 25.203125 
Q 15.484375 15.921875 20.484375 11.0625 
Q 25.484375 6.203125 34.421875 6.203125 
Q 39.59375 6.203125 44.453125 7.46875 
Q 49.3125 8.734375 54.109375 11.28125 
L 54.109375 2.78125 
Q 49.265625 0.734375 44.1875 -0.34375 
Q 39.109375 -1.421875 33.890625 -1.421875 
Q 20.796875 -1.421875 13.15625 6.1875 
Q 5.515625 13.8125 5.515625 26.8125 
Q 5.515625 40.234375 12.765625 48.109375 
Q 20.015625 56 32.328125 56 
Q 43.359375 56 49.78125 48.890625 
Q 56.203125 41.796875 56.203125 29.59375 
z
M 47.21875 32.234375 
Q 47.125 39.59375 43.09375 43.984375 
Q 39.0625 48.390625 32.421875 48.390625 
Q 24.90625 48.390625 20.390625 44.140625 
Q 15.875 39.890625 15.1875 32.171875 
z
" id="DejaVuSans-101"/>
        <path id="DejaVuSans-32"/>
        <path d="M 8.59375 75.984375 
L 29.296875 75.984375 
L 29.296875 69 
L 17.578125 69 
L 17.578125 -6.203125 
L 29.296875 -6.203125 
L 29.296875 -13.1875 
L 8.59375 -13.1875 
z
" id="DejaVuSans-91"/>
        <path d="M 31.78125 66.40625 
Q 24.171875 66.40625 20.328125 58.90625 
Q 16.5 51.421875 16.5 36.375 
Q 16.5 21.390625 20.328125 13.890625 
Q 24.171875 6.390625 31.78125 6.390625 
Q 39.453125 6.390625 43.28125 13.890625 
Q 47.125 21.390625 47.125 36.375 
Q 47.125 51.421875 43.28125 58.90625 
Q 39.453125 66.40625 31.78125 66.40625 
z
M 31.78125 74.21875 
Q 44.046875 74.21875 50.515625 64.515625 
Q 56.984375 54.828125 56.984375 36.375 
Q 56.984375 17.96875 50.515625 8.265625 
Q 44.046875 -1.421875 31.78125 -1.421875 
Q 19.53125 -1.421875 13.0625 8.265625 
Q 6.59375 17.96875 6.59375 36.375 
Q 6.59375 54.828125 13.0625 64.515625 
Q 19.53125 74.21875 31.78125 74.21875 
z
" id="DejaVuSans-48"/>
        <path d="M 11.71875 12.40625 
L 22.015625 12.40625 
L 22.015625 4 
L 14.015625 -11.625 
L 7.71875 -11.625 
L 11.71875 4 
z
" id="DejaVuSans-44"/>
        <path d="M 12.40625 8.296875 
L 28.515625 8.296875 
L 28.515625 63.921875 
L 10.984375 60.40625 
L 10.984375 69.390625 
L 28.421875 72.90625 
L 38.28125 72.90625 
L 38.28125 8.296875 
L 54.390625 8.296875 
L 54.390625 0 
L 12.40625 0 
z
" id="DejaVuSans-49"/>
        <path d="M 30.421875 75.984375 
L 30.421875 -13.1875 
L 9.71875 -13.1875 
L 9.71875 -6.203125 
L 21.390625 -6.203125 
L 21.390625 69 
L 9.71875 69 
L 9.71875 75.984375 
z
" id="DejaVuSans-93"/>
       </defs>
       <use xlink:href="#DejaVuSans-70"/>
       <use x="50.269531" xlink:href="#DejaVuSans-114"/>
       <use x="89.132812" xlink:href="#DejaVuSans-101"/>
       <use x="150.65625" xlink:href="#DejaVuSans-101"/>
       <use x="212.179688" xlink:href="#DejaVuSans-32"/>
       <use x="243.966797" xlink:href="#DejaVuSans-91"/>
       <use x="282.980469" xlink:href="#DejaVuSans-48"/>
       <use x="346.603516" xlink:href="#DejaVuSans-44"/>
       <use x="378.390625" xlink:href="#DejaVuSans-49"/>
       <use x="442.013672" xlink:href="#DejaVuSans-93"/>
      </g>
     </g>
    </g>
    <g id="xtick_2">
     <g id="text_2">
      <!-- Other [2,8] -->
      <g style="fill:#262626;" transform="translate(469.195547 655.037422)scale(0.165 -0.165)">
       <defs>
        <path d="M 39.40625 66.21875 
Q 28.65625 66.21875 22.328125 58.203125 
Q 16.015625 50.203125 16.015625 36.375 
Q 16.015625 22.609375 22.328125 14.59375 
Q 28.65625 6.59375 39.40625 6.59375 
Q 50.140625 6.59375 56.421875 14.59375 
Q 62.703125 22.609375 62.703125 36.375 
Q 62.703125 50.203125 56.421875 58.203125 
Q 50.140625 66.21875 39.40625 66.21875 
z
M 39.40625 74.21875 
Q 54.734375 74.21875 63.90625 63.9375 
Q 73.09375 53.65625 73.09375 36.375 
Q 73.09375 19.140625 63.90625 8.859375 
Q 54.734375 -1.421875 39.40625 -1.421875 
Q 24.03125 -1.421875 14.8125 8.828125 
Q 5.609375 19.09375 5.609375 36.375 
Q 5.609375 53.65625 14.8125 63.9375 
Q 24.03125 74.21875 39.40625 74.21875 
z
" id="DejaVuSans-79"/>
        <path d="M 18.3125 70.21875 
L 18.3125 54.6875 
L 36.8125 54.6875 
L 36.8125 47.703125 
L 18.3125 47.703125 
L 18.3125 18.015625 
Q 18.3125 11.328125 20.140625 9.421875 
Q 21.96875 7.515625 27.59375 7.515625 
L 36.8125 7.515625 
L 36.8125 0 
L 27.59375 0 
Q 17.1875 0 13.234375 3.875 
Q 9.28125 7.765625 9.28125 18.015625 
L 9.28125 47.703125 
L 2.6875 47.703125 
L 2.6875 54.6875 
L 9.28125 54.6875 
L 9.28125 70.21875 
z
" id="DejaVuSans-116"/>
        <path d="M 54.890625 33.015625 
L 54.890625 0 
L 45.90625 0 
L 45.90625 32.71875 
Q 45.90625 40.484375 42.875 44.328125 
Q 39.84375 48.1875 33.796875 48.1875 
Q 26.515625 48.1875 22.3125 43.546875 
Q 18.109375 38.921875 18.109375 30.90625 
L 18.109375 0 
L 9.078125 0 
L 9.078125 75.984375 
L 18.109375 75.984375 
L 18.109375 46.1875 
Q 21.34375 51.125 25.703125 53.5625 
Q 30.078125 56 35.796875 56 
Q 45.21875 56 50.046875 50.171875 
Q 54.890625 44.34375 54.890625 33.015625 
z
" id="DejaVuSans-104"/>
        <path d="M 19.1875 8.296875 
L 53.609375 8.296875 
L 53.609375 0 
L 7.328125 0 
L 7.328125 8.296875 
Q 12.9375 14.109375 22.625 23.890625 
Q 32.328125 33.6875 34.8125 36.53125 
Q 39.546875 41.84375 41.421875 45.53125 
Q 43.3125 49.21875 43.3125 52.78125 
Q 43.3125 58.59375 39.234375 62.25 
Q 35.15625 65.921875 28.609375 65.921875 
Q 23.96875 65.921875 18.8125 64.3125 
Q 13.671875 62.703125 7.8125 59.421875 
L 7.8125 69.390625 
Q 13.765625 71.78125 18.9375 73 
Q 24.125 74.21875 28.421875 74.21875 
Q 39.75 74.21875 46.484375 68.546875 
Q 53.21875 62.890625 53.21875 53.421875 
Q 53.21875 48.921875 51.53125 44.890625 
Q 49.859375 40.875 45.40625 35.40625 
Q 44.1875 33.984375 37.640625 27.21875 
Q 31.109375 20.453125 19.1875 8.296875 
z
" id="DejaVuSans-50"/>
        <path d="M 31.78125 34.625 
Q 24.75 34.625 20.71875 30.859375 
Q 16.703125 27.09375 16.703125 20.515625 
Q 16.703125 13.921875 20.71875 10.15625 
Q 24.75 6.390625 31.78125 6.390625 
Q 38.8125 6.390625 42.859375 10.171875 
Q 46.921875 13.96875 46.921875 20.515625 
Q 46.921875 27.09375 42.890625 30.859375 
Q 38.875 34.625 31.78125 34.625 
z
M 21.921875 38.8125 
Q 15.578125 40.375 12.03125 44.71875 
Q 8.5 49.078125 8.5 55.328125 
Q 8.5 64.0625 14.71875 69.140625 
Q 20.953125 74.21875 31.78125 74.21875 
Q 42.671875 74.21875 48.875 69.140625 
Q 55.078125 64.0625 55.078125 55.328125 
Q 55.078125 49.078125 51.53125 44.71875 
Q 48 40.375 41.703125 38.8125 
Q 48.828125 37.15625 52.796875 32.3125 
Q 56.78125 27.484375 56.78125 20.515625 
Q 56.78125 9.90625 50.3125 4.234375 
Q 43.84375 -1.421875 31.78125 -1.421875 
Q 19.734375 -1.421875 13.25 4.234375 
Q 6.78125 9.90625 6.78125 20.515625 
Q 6.78125 27.484375 10.78125 32.3125 
Q 14.796875 37.15625 21.921875 38.8125 
z
M 18.3125 54.390625 
Q 18.3125 48.734375 21.84375 45.5625 
Q 25.390625 42.390625 31.78125 42.390625 
Q 38.140625 42.390625 41.71875 45.5625 
Q 45.3125 48.734375 45.3125 54.390625 
Q 45.3125 60.0625 41.71875 63.234375 
Q 38.140625 66.40625 31.78125 66.40625 
Q 25.390625 66.40625 21.84375 63.234375 
Q 18.3125 60.0625 18.3125 54.390625 
z
" id="DejaVuSans-56"/>
       </defs>
       <use xlink:href="#DejaVuSans-79"/>
       <use x="78.710938" xlink:href="#DejaVuSans-116"/>
       <use x="117.919922" xlink:href="#DejaVuSans-104"/>
       <use x="181.298828" xlink:href="#DejaVuSans-101"/>
       <use x="242.822266" xlink:href="#DejaVuSans-114"/>
       <use x="283.935547" xlink:href="#DejaVuSans-32"/>
       <use x="315.722656" xlink:href="#DejaVuSans-91"/>
       <use x="354.736328" xlink:href="#DejaVuSans-50"/>
       <use x="418.359375" xlink:href="#DejaVuSans-44"/>
       <use x="450.146484" xlink:href="#DejaVuSans-56"/>
       <use x="513.769531" xlink:href="#DejaVuSans-93"/>
      </g>
     </g>
    </g>
    <g id="xtick_3">
     <g id="text_3">
      <!-- Production [9] -->
      <g style="fill:#262626;" transform="translate(679.802695 655.037422)scale(0.165 -0.165)">
       <defs>
        <path d="M 19.671875 64.796875 
L 19.671875 37.40625 
L 32.078125 37.40625 
Q 38.96875 37.40625 42.71875 40.96875 
Q 46.484375 44.53125 46.484375 51.125 
Q 46.484375 57.671875 42.71875 61.234375 
Q 38.96875 64.796875 32.078125 64.796875 
z
M 9.8125 72.90625 
L 32.078125 72.90625 
Q 44.34375 72.90625 50.609375 67.359375 
Q 56.890625 61.8125 56.890625 51.125 
Q 56.890625 40.328125 50.609375 34.8125 
Q 44.34375 29.296875 32.078125 29.296875 
L 19.671875 29.296875 
L 19.671875 0 
L 9.8125 0 
z
" id="DejaVuSans-80"/>
        <path d="M 30.609375 48.390625 
Q 23.390625 48.390625 19.1875 42.75 
Q 14.984375 37.109375 14.984375 27.296875 
Q 14.984375 17.484375 19.15625 11.84375 
Q 23.34375 6.203125 30.609375 6.203125 
Q 37.796875 6.203125 41.984375 11.859375 
Q 46.1875 17.53125 46.1875 27.296875 
Q 46.1875 37.015625 41.984375 42.703125 
Q 37.796875 48.390625 30.609375 48.390625 
z
M 30.609375 56 
Q 42.328125 56 49.015625 48.375 
Q 55.71875 40.765625 55.71875 27.296875 
Q 55.71875 13.875 49.015625 6.21875 
Q 42.328125 -1.421875 30.609375 -1.421875 
Q 18.84375 -1.421875 12.171875 6.21875 
Q 5.515625 13.875 5.515625 27.296875 
Q 5.515625 40.765625 12.171875 48.375 
Q 18.84375 56 30.609375 56 
z
" id="DejaVuSans-111"/>
        <path d="M 45.40625 46.390625 
L 45.40625 75.984375 
L 54.390625 75.984375 
L 54.390625 0 
L 45.40625 0 
L 45.40625 8.203125 
Q 42.578125 3.328125 38.25 0.953125 
Q 33.9375 -1.421875 27.875 -1.421875 
Q 17.96875 -1.421875 11.734375 6.484375 
Q 5.515625 14.40625 5.515625 27.296875 
Q 5.515625 40.1875 11.734375 48.09375 
Q 17.96875 56 27.875 56 
Q 33.9375 56 38.25 53.625 
Q 42.578125 51.265625 45.40625 46.390625 
z
M 14.796875 27.296875 
Q 14.796875 17.390625 18.875 11.75 
Q 22.953125 6.109375 30.078125 6.109375 
Q 37.203125 6.109375 41.296875 11.75 
Q 45.40625 17.390625 45.40625 27.296875 
Q 45.40625 37.203125 41.296875 42.84375 
Q 37.203125 48.484375 30.078125 48.484375 
Q 22.953125 48.484375 18.875 42.84375 
Q 14.796875 37.203125 14.796875 27.296875 
z
" id="DejaVuSans-100"/>
        <path d="M 8.5 21.578125 
L 8.5 54.6875 
L 17.484375 54.6875 
L 17.484375 21.921875 
Q 17.484375 14.15625 20.5 10.265625 
Q 23.53125 6.390625 29.59375 6.390625 
Q 36.859375 6.390625 41.078125 11.03125 
Q 45.3125 15.671875 45.3125 23.6875 
L 45.3125 54.6875 
L 54.296875 54.6875 
L 54.296875 0 
L 45.3125 0 
L 45.3125 8.40625 
Q 42.046875 3.421875 37.71875 1 
Q 33.40625 -1.421875 27.6875 -1.421875 
Q 18.265625 -1.421875 13.375 4.4375 
Q 8.5 10.296875 8.5 21.578125 
z
M 31.109375 56 
z
" id="DejaVuSans-117"/>
        <path d="M 48.78125 52.59375 
L 48.78125 44.1875 
Q 44.96875 46.296875 41.140625 47.34375 
Q 37.3125 48.390625 33.40625 48.390625 
Q 24.65625 48.390625 19.8125 42.84375 
Q 14.984375 37.3125 14.984375 27.296875 
Q 14.984375 17.28125 19.8125 11.734375 
Q 24.65625 6.203125 33.40625 6.203125 
Q 37.3125 6.203125 41.140625 7.25 
Q 44.96875 8.296875 48.78125 10.40625 
L 48.78125 2.09375 
Q 45.015625 0.34375 40.984375 -0.53125 
Q 36.96875 -1.421875 32.421875 -1.421875 
Q 20.0625 -1.421875 12.78125 6.34375 
Q 5.515625 14.109375 5.515625 27.296875 
Q 5.515625 40.671875 12.859375 48.328125 
Q 20.21875 56 33.015625 56 
Q 37.15625 56 41.109375 55.140625 
Q 45.0625 54.296875 48.78125 52.59375 
z
" id="DejaVuSans-99"/>
        <path d="M 9.421875 54.6875 
L 18.40625 54.6875 
L 18.40625 0 
L 9.421875 0 
z
M 9.421875 75.984375 
L 18.40625 75.984375 
L 18.40625 64.59375 
L 9.421875 64.59375 
z
" id="DejaVuSans-105"/>
        <path d="M 54.890625 33.015625 
L 54.890625 0 
L 45.90625 0 
L 45.90625 32.71875 
Q 45.90625 40.484375 42.875 44.328125 
Q 39.84375 48.1875 33.796875 48.1875 
Q 26.515625 48.1875 22.3125 43.546875 
Q 18.109375 38.921875 18.109375 30.90625 
L 18.109375 0 
L 9.078125 0 
L 9.078125 54.6875 
L 18.109375 54.6875 
L 18.109375 46.1875 
Q 21.34375 51.125 25.703125 53.5625 
Q 30.078125 56 35.796875 56 
Q 45.21875 56 50.046875 50.171875 
Q 54.890625 44.34375 54.890625 33.015625 
z
" id="DejaVuSans-110"/>
        <path d="M 10.984375 1.515625 
L 10.984375 10.5 
Q 14.703125 8.734375 18.5 7.8125 
Q 22.3125 6.890625 25.984375 6.890625 
Q 35.75 6.890625 40.890625 13.453125 
Q 46.046875 20.015625 46.78125 33.40625 
Q 43.953125 29.203125 39.59375 26.953125 
Q 35.25 24.703125 29.984375 24.703125 
Q 19.046875 24.703125 12.671875 31.3125 
Q 6.296875 37.9375 6.296875 49.421875 
Q 6.296875 60.640625 12.9375 67.421875 
Q 19.578125 74.21875 30.609375 74.21875 
Q 43.265625 74.21875 49.921875 64.515625 
Q 56.59375 54.828125 56.59375 36.375 
Q 56.59375 19.140625 48.40625 8.859375 
Q 40.234375 -1.421875 26.421875 -1.421875 
Q 22.703125 -1.421875 18.890625 -0.6875 
Q 15.09375 0.046875 10.984375 1.515625 
z
M 30.609375 32.421875 
Q 37.25 32.421875 41.125 36.953125 
Q 45.015625 41.5 45.015625 49.421875 
Q 45.015625 57.28125 41.125 61.84375 
Q 37.25 66.40625 30.609375 66.40625 
Q 23.96875 66.40625 20.09375 61.84375 
Q 16.21875 57.28125 16.21875 49.421875 
Q 16.21875 41.5 20.09375 36.953125 
Q 23.96875 32.421875 30.609375 32.421875 
z
" id="DejaVuSans-57"/>
       </defs>
       <use xlink:href="#DejaVuSans-80"/>
       <use x="58.552734" xlink:href="#DejaVuSans-114"/>
       <use x="97.416016" xlink:href="#DejaVuSans-111"/>
       <use x="158.597656" xlink:href="#DejaVuSans-100"/>
       <use x="222.074219" xlink:href="#DejaVuSans-117"/>
       <use x="285.453125" xlink:href="#DejaVuSans-99"/>
       <use x="340.433594" xlink:href="#DejaVuSans-116"/>
       <use x="379.642578" xlink:href="#DejaVuSans-105"/>
       <use x="407.425781" xlink:href="#DejaVuSans-111"/>
       <use x="468.607422" xlink:href="#DejaVuSans-110"/>
       <use x="531.986328" xlink:href="#DejaVuSans-32"/>
       <use x="563.773438" xlink:href="#DejaVuSans-91"/>
       <use x="602.787109" xlink:href="#DejaVuSans-57"/>
       <use x="666.410156" xlink:href="#DejaVuSans-93"/>
      </g>
     </g>
    </g>
    <g id="xtick_4">
     <g id="text_4">
      <!-- Monitoring [10] -->
      <g style="fill:#262626;" transform="translate(897.52418 655.037422)scale(0.165 -0.165)">
       <defs>
        <path d="M 9.8125 72.90625 
L 24.515625 72.90625 
L 43.109375 23.296875 
L 61.8125 72.90625 
L 76.515625 72.90625 
L 76.515625 0 
L 66.890625 0 
L 66.890625 64.015625 
L 48.09375 14.015625 
L 38.1875 14.015625 
L 19.390625 64.015625 
L 19.390625 0 
L 9.8125 0 
z
" id="DejaVuSans-77"/>
        <path d="M 45.40625 27.984375 
Q 45.40625 37.75 41.375 43.109375 
Q 37.359375 48.484375 30.078125 48.484375 
Q 22.859375 48.484375 18.828125 43.109375 
Q 14.796875 37.75 14.796875 27.984375 
Q 14.796875 18.265625 18.828125 12.890625 
Q 22.859375 7.515625 30.078125 7.515625 
Q 37.359375 7.515625 41.375 12.890625 
Q 45.40625 18.265625 45.40625 27.984375 
z
M 54.390625 6.78125 
Q 54.390625 -7.171875 48.1875 -13.984375 
Q 42 -20.796875 29.203125 -20.796875 
Q 24.46875 -20.796875 20.265625 -20.09375 
Q 16.0625 -19.390625 12.109375 -17.921875 
L 12.109375 -9.1875 
Q 16.0625 -11.328125 19.921875 -12.34375 
Q 23.78125 -13.375 27.78125 -13.375 
Q 36.625 -13.375 41.015625 -8.765625 
Q 45.40625 -4.15625 45.40625 5.171875 
L 45.40625 9.625 
Q 42.625 4.78125 38.28125 2.390625 
Q 33.9375 0 27.875 0 
Q 17.828125 0 11.671875 7.65625 
Q 5.515625 15.328125 5.515625 27.984375 
Q 5.515625 40.671875 11.671875 48.328125 
Q 17.828125 56 27.875 56 
Q 33.9375 56 38.28125 53.609375 
Q 42.625 51.21875 45.40625 46.390625 
L 45.40625 54.6875 
L 54.390625 54.6875 
z
" id="DejaVuSans-103"/>
       </defs>
       <use xlink:href="#DejaVuSans-77"/>
       <use x="86.279297" xlink:href="#DejaVuSans-111"/>
       <use x="147.460938" xlink:href="#DejaVuSans-110"/>
       <use x="210.839844" xlink:href="#DejaVuSans-105"/>
       <use x="238.623047" xlink:href="#DejaVuSans-116"/>
       <use x="277.832031" xlink:href="#DejaVuSans-111"/>
       <use x="339.013672" xlink:href="#DejaVuSans-114"/>
       <use x="380.126953" xlink:href="#DejaVuSans-105"/>
       <use x="407.910156" xlink:href="#DejaVuSans-110"/>
       <use x="471.289062" xlink:href="#DejaVuSans-103"/>
       <use x="534.765625" xlink:href="#DejaVuSans-32"/>
       <use x="566.552734" xlink:href="#DejaVuSans-91"/>
       <use x="605.566406" xlink:href="#DejaVuSans-49"/>
       <use x="669.189453" xlink:href="#DejaVuSans-48"/>
       <use x="732.8125" xlink:href="#DejaVuSans-93"/>
      </g>
     </g>
    </g>
    <g id="xtick_5">
     <g id="text_5">
      <!-- Infrastructure [11] -->
      <g style="fill:#262626;" transform="translate(1108.395586 655.037422)scale(0.165 -0.165)">
       <defs>
        <path d="M 9.8125 72.90625 
L 19.671875 72.90625 
L 19.671875 0 
L 9.8125 0 
z
" id="DejaVuSans-73"/>
        <path d="M 37.109375 75.984375 
L 37.109375 68.5 
L 28.515625 68.5 
Q 23.6875 68.5 21.796875 66.546875 
Q 19.921875 64.59375 19.921875 59.515625 
L 19.921875 54.6875 
L 34.71875 54.6875 
L 34.71875 47.703125 
L 19.921875 47.703125 
L 19.921875 0 
L 10.890625 0 
L 10.890625 47.703125 
L 2.296875 47.703125 
L 2.296875 54.6875 
L 10.890625 54.6875 
L 10.890625 58.5 
Q 10.890625 67.625 15.140625 71.796875 
Q 19.390625 75.984375 28.609375 75.984375 
z
" id="DejaVuSans-102"/>
        <path d="M 34.28125 27.484375 
Q 23.390625 27.484375 19.1875 25 
Q 14.984375 22.515625 14.984375 16.5 
Q 14.984375 11.71875 18.140625 8.90625 
Q 21.296875 6.109375 26.703125 6.109375 
Q 34.1875 6.109375 38.703125 11.40625 
Q 43.21875 16.703125 43.21875 25.484375 
L 43.21875 27.484375 
z
M 52.203125 31.203125 
L 52.203125 0 
L 43.21875 0 
L 43.21875 8.296875 
Q 40.140625 3.328125 35.546875 0.953125 
Q 30.953125 -1.421875 24.3125 -1.421875 
Q 15.921875 -1.421875 10.953125 3.296875 
Q 6 8.015625 6 15.921875 
Q 6 25.140625 12.171875 29.828125 
Q 18.359375 34.515625 30.609375 34.515625 
L 43.21875 34.515625 
L 43.21875 35.40625 
Q 43.21875 41.609375 39.140625 45 
Q 35.0625 48.390625 27.6875 48.390625 
Q 23 48.390625 18.546875 47.265625 
Q 14.109375 46.140625 10.015625 43.890625 
L 10.015625 52.203125 
Q 14.9375 54.109375 19.578125 55.046875 
Q 24.21875 56 28.609375 56 
Q 40.484375 56 46.34375 49.84375 
Q 52.203125 43.703125 52.203125 31.203125 
z
" id="DejaVuSans-97"/>
        <path d="M 44.28125 53.078125 
L 44.28125 44.578125 
Q 40.484375 46.53125 36.375 47.5 
Q 32.28125 48.484375 27.875 48.484375 
Q 21.1875 48.484375 17.84375 46.4375 
Q 14.5 44.390625 14.5 40.28125 
Q 14.5 37.15625 16.890625 35.375 
Q 19.28125 33.59375 26.515625 31.984375 
L 29.59375 31.296875 
Q 39.15625 29.25 43.1875 25.515625 
Q 47.21875 21.78125 47.21875 15.09375 
Q 47.21875 7.46875 41.1875 3.015625 
Q 35.15625 -1.421875 24.609375 -1.421875 
Q 20.21875 -1.421875 15.453125 -0.5625 
Q 10.6875 0.296875 5.421875 2 
L 5.421875 11.28125 
Q 10.40625 8.6875 15.234375 7.390625 
Q 20.0625 6.109375 24.8125 6.109375 
Q 31.15625 6.109375 34.5625 8.28125 
Q 37.984375 10.453125 37.984375 14.40625 
Q 37.984375 18.0625 35.515625 20.015625 
Q 33.0625 21.96875 24.703125 23.78125 
L 21.578125 24.515625 
Q 13.234375 26.265625 9.515625 29.90625 
Q 5.8125 33.546875 5.8125 39.890625 
Q 5.8125 47.609375 11.28125 51.796875 
Q 16.75 56 26.8125 56 
Q 31.78125 56 36.171875 55.265625 
Q 40.578125 54.546875 44.28125 53.078125 
z
" id="DejaVuSans-115"/>
       </defs>
       <use xlink:href="#DejaVuSans-73"/>
       <use x="29.492188" xlink:href="#DejaVuSans-110"/>
       <use x="92.871094" xlink:href="#DejaVuSans-102"/>
       <use x="128.076172" xlink:href="#DejaVuSans-114"/>
       <use x="169.189453" xlink:href="#DejaVuSans-97"/>
       <use x="230.46875" xlink:href="#DejaVuSans-115"/>
       <use x="282.568359" xlink:href="#DejaVuSans-116"/>
       <use x="321.777344" xlink:href="#DejaVuSans-114"/>
       <use x="362.890625" xlink:href="#DejaVuSans-117"/>
       <use x="426.269531" xlink:href="#DejaVuSans-99"/>
       <use x="481.25" xlink:href="#DejaVuSans-116"/>
       <use x="520.458984" xlink:href="#DejaVuSans-117"/>
       <use x="583.837891" xlink:href="#DejaVuSans-114"/>
       <use x="622.701172" xlink:href="#DejaVuSans-101"/>
       <use x="684.224609" xlink:href="#DejaVuSans-32"/>
       <use x="716.011719" xlink:href="#DejaVuSans-91"/>
       <use x="755.025391" xlink:href="#DejaVuSans-49"/>
       <use x="818.648438" xlink:href="#DejaVuSans-49"/>
       <use x="882.271484" xlink:href="#DejaVuSans-93"/>
      </g>
     </g>
    </g>
    <g id="text_6">
     <!-- priority label -->
     <g style="fill:#262626;" transform="translate(680.896406 676.146094)scale(0.18 -0.18)">
      <defs>
       <path d="M 18.109375 8.203125 
L 18.109375 -20.796875 
L 9.078125 -20.796875 
L 9.078125 54.6875 
L 18.109375 54.6875 
L 18.109375 46.390625 
Q 20.953125 51.265625 25.265625 53.625 
Q 29.59375 56 35.59375 56 
Q 45.5625 56 51.78125 48.09375 
Q 58.015625 40.1875 58.015625 27.296875 
Q 58.015625 14.40625 51.78125 6.484375 
Q 45.5625 -1.421875 35.59375 -1.421875 
Q 29.59375 -1.421875 25.265625 0.953125 
Q 20.953125 3.328125 18.109375 8.203125 
z
M 48.6875 27.296875 
Q 48.6875 37.203125 44.609375 42.84375 
Q 40.53125 48.484375 33.40625 48.484375 
Q 26.265625 48.484375 22.1875 42.84375 
Q 18.109375 37.203125 18.109375 27.296875 
Q 18.109375 17.390625 22.1875 11.75 
Q 26.265625 6.109375 33.40625 6.109375 
Q 40.53125 6.109375 44.609375 11.75 
Q 48.6875 17.390625 48.6875 27.296875 
z
" id="DejaVuSans-112"/>
       <path d="M 32.171875 -5.078125 
Q 28.375 -14.84375 24.75 -17.8125 
Q 21.140625 -20.796875 15.09375 -20.796875 
L 7.90625 -20.796875 
L 7.90625 -13.28125 
L 13.1875 -13.28125 
Q 16.890625 -13.28125 18.9375 -11.515625 
Q 21 -9.765625 23.484375 -3.21875 
L 25.09375 0.875 
L 2.984375 54.6875 
L 12.5 54.6875 
L 29.59375 11.921875 
L 46.6875 54.6875 
L 56.203125 54.6875 
z
" id="DejaVuSans-121"/>
       <path d="M 9.421875 75.984375 
L 18.40625 75.984375 
L 18.40625 0 
L 9.421875 0 
z
" id="DejaVuSans-108"/>
       <path d="M 48.6875 27.296875 
Q 48.6875 37.203125 44.609375 42.84375 
Q 40.53125 48.484375 33.40625 48.484375 
Q 26.265625 48.484375 22.1875 42.84375 
Q 18.109375 37.203125 18.109375 27.296875 
Q 18.109375 17.390625 22.1875 11.75 
Q 26.265625 6.109375 33.40625 6.109375 
Q 40.53125 6.109375 44.609375 11.75 
Q 48.6875 17.390625 48.6875 27.296875 
z
M 18.109375 46.390625 
Q 20.953125 51.265625 25.265625 53.625 
Q 29.59375 56 35.59375 56 
Q 45.5625 56 51.78125 48.09375 
Q 58.015625 40.1875 58.015625 27.296875 
Q 58.015625 14.40625 51.78125 6.484375 
Q 45.5625 -1.421875 35.59375 -1.421875 
Q 29.59375 -1.421875 25.265625 0.953125 
Q 20.953125 3.328125 18.109375 8.203125 
L 18.109375 0 
L 9.078125 0 
L 9.078125 75.984375 
L 18.109375 75.984375 
z
" id="DejaVuSans-98"/>
      </defs>
      <use xlink:href="#DejaVuSans-112"/>
      <use x="63.476562" xlink:href="#DejaVuSans-114"/>
      <use x="104.589844" xlink:href="#DejaVuSans-105"/>
      <use x="132.373047" xlink:href="#DejaVuSans-111"/>
      <use x="193.554688" xlink:href="#DejaVuSans-114"/>
      <use x="234.667969" xlink:href="#DejaVuSans-105"/>
      <use x="262.451172" xlink:href="#DejaVuSans-116"/>
      <use x="301.660156" xlink:href="#DejaVuSans-121"/>
      <use x="360.839844" xlink:href="#DejaVuSans-32"/>
      <use x="392.626953" xlink:href="#DejaVuSans-108"/>
      <use x="420.410156" xlink:href="#DejaVuSans-97"/>
      <use x="481.689453" xlink:href="#DejaVuSans-98"/>
      <use x="545.166016" xlink:href="#DejaVuSans-101"/>
      <use x="606.689453" xlink:href="#DejaVuSans-108"/>
     </g>
    </g>
   </g>
   <g id="matplotlib.axis_2">
    <g id="ytick_1">
     <g id="line2d_1">
      <path clip-path="url(#p3c60900309)" d="M 180 605.290909 
L 1296 605.290909 
" style="fill:none;stroke:#999999;stroke-dasharray:1.5,2.475;stroke-dashoffset:0;stroke-width:1.5;"/>
     </g>
     <g id="text_7">
      <!-- 0.0 -->
      <g style="fill:#262626;" transform="translate(141.259844 611.55962)scale(0.165 -0.165)">
       <defs>
        <path d="M 10.6875 12.40625 
L 21 12.40625 
L 21 0 
L 10.6875 0 
z
" id="DejaVuSans-46"/>
       </defs>
       <use xlink:href="#DejaVuSans-48"/>
       <use x="63.623047" xlink:href="#DejaVuSans-46"/>
       <use x="95.410156" xlink:href="#DejaVuSans-48"/>
      </g>
     </g>
    </g>
    <g id="ytick_2">
     <g id="line2d_2">
      <path clip-path="url(#p3c60900309)" d="M 180 519.65419 
L 1296 519.65419 
" style="fill:none;stroke:#999999;stroke-dasharray:1.5,2.475;stroke-dashoffset:0;stroke-width:1.5;"/>
     </g>
     <g id="text_8">
      <!-- 0.1 -->
      <g style="fill:#262626;" transform="translate(141.259844 525.922901)scale(0.165 -0.165)">
       <use xlink:href="#DejaVuSans-48"/>
       <use x="63.623047" xlink:href="#DejaVuSans-46"/>
       <use x="95.410156" xlink:href="#DejaVuSans-49"/>
      </g>
     </g>
    </g>
    <g id="ytick_3">
     <g id="line2d_3">
      <path clip-path="url(#p3c60900309)" d="M 180 434.017471 
L 1296 434.017471 
" style="fill:none;stroke:#999999;stroke-dasharray:1.5,2.475;stroke-dashoffset:0;stroke-width:1.5;"/>
     </g>
     <g id="text_9">
      <!-- 0.2 -->
      <g style="fill:#262626;" transform="translate(141.259844 440.286182)scale(0.165 -0.165)">
       <use xlink:href="#DejaVuSans-48"/>
       <use x="63.623047" xlink:href="#DejaVuSans-46"/>
       <use x="95.410156" xlink:href="#DejaVuSans-50"/>
      </g>
     </g>
    </g>
    <g id="ytick_4">
     <g id="line2d_4">
      <path clip-path="url(#p3c60900309)" d="M 180 348.380752 
L 1296 348.380752 
" style="fill:none;stroke:#999999;stroke-dasharray:1.5,2.475;stroke-dashoffset:0;stroke-width:1.5;"/>
     </g>
     <g id="text_10">
      <!-- 0.3 -->
      <g style="fill:#262626;" transform="translate(141.259844 354.649463)scale(0.165 -0.165)">
       <defs>
        <path d="M 40.578125 39.3125 
Q 47.65625 37.796875 51.625 33 
Q 55.609375 28.21875 55.609375 21.1875 
Q 55.609375 10.40625 48.1875 4.484375 
Q 40.765625 -1.421875 27.09375 -1.421875 
Q 22.515625 -1.421875 17.65625 -0.515625 
Q 12.796875 0.390625 7.625 2.203125 
L 7.625 11.71875 
Q 11.71875 9.328125 16.59375 8.109375 
Q 21.484375 6.890625 26.8125 6.890625 
Q 36.078125 6.890625 40.9375 10.546875 
Q 45.796875 14.203125 45.796875 21.1875 
Q 45.796875 27.640625 41.28125 31.265625 
Q 36.765625 34.90625 28.71875 34.90625 
L 20.21875 34.90625 
L 20.21875 43.015625 
L 29.109375 43.015625 
Q 36.375 43.015625 40.234375 45.921875 
Q 44.09375 48.828125 44.09375 54.296875 
Q 44.09375 59.90625 40.109375 62.90625 
Q 36.140625 65.921875 28.71875 65.921875 
Q 24.65625 65.921875 20.015625 65.03125 
Q 15.375 64.15625 9.8125 62.3125 
L 9.8125 71.09375 
Q 15.4375 72.65625 20.34375 73.4375 
Q 25.25 74.21875 29.59375 74.21875 
Q 40.828125 74.21875 47.359375 69.109375 
Q 53.90625 64.015625 53.90625 55.328125 
Q 53.90625 49.265625 50.4375 45.09375 
Q 46.96875 40.921875 40.578125 39.3125 
z
" id="DejaVuSans-51"/>
       </defs>
       <use xlink:href="#DejaVuSans-48"/>
       <use x="63.623047" xlink:href="#DejaVuSans-46"/>
       <use x="95.410156" xlink:href="#DejaVuSans-51"/>
      </g>
     </g>
    </g>
    <g id="ytick_5">
     <g id="line2d_5">
      <path clip-path="url(#p3c60900309)" d="M 180 262.744033 
L 1296 262.744033 
" style="fill:none;stroke:#999999;stroke-dasharray:1.5,2.475;stroke-dashoffset:0;stroke-width:1.5;"/>
     </g>
     <g id="text_11">
      <!-- 0.4 -->
      <g style="fill:#262626;" transform="translate(141.259844 269.012744)scale(0.165 -0.165)">
       <defs>
        <path d="M 37.796875 64.3125 
L 12.890625 25.390625 
L 37.796875 25.390625 
z
M 35.203125 72.90625 
L 47.609375 72.90625 
L 47.609375 25.390625 
L 58.015625 25.390625 
L 58.015625 17.1875 
L 47.609375 17.1875 
L 47.609375 0 
L 37.796875 0 
L 37.796875 17.1875 
L 4.890625 17.1875 
L 4.890625 26.703125 
z
" id="DejaVuSans-52"/>
       </defs>
       <use xlink:href="#DejaVuSans-48"/>
       <use x="63.623047" xlink:href="#DejaVuSans-46"/>
       <use x="95.410156" xlink:href="#DejaVuSans-52"/>
      </g>
     </g>
    </g>
    <g id="ytick_6">
     <g id="line2d_6">
      <path clip-path="url(#p3c60900309)" d="M 180 177.107314 
L 1296 177.107314 
" style="fill:none;stroke:#999999;stroke-dasharray:1.5,2.475;stroke-dashoffset:0;stroke-width:1.5;"/>
     </g>
     <g id="text_12">
      <!-- 0.5 -->
      <g style="fill:#262626;" transform="translate(141.259844 183.376025)scale(0.165 -0.165)">
       <defs>
        <path d="M 10.796875 72.90625 
L 49.515625 72.90625 
L 49.515625 64.59375 
L 19.828125 64.59375 
L 19.828125 46.734375 
Q 21.96875 47.46875 24.109375 47.828125 
Q 26.265625 48.1875 28.421875 48.1875 
Q 40.625 48.1875 47.75 41.5 
Q 54.890625 34.8125 54.890625 23.390625 
Q 54.890625 11.625 47.5625 5.09375 
Q 40.234375 -1.421875 26.90625 -1.421875 
Q 22.3125 -1.421875 17.546875 -0.640625 
Q 12.796875 0.140625 7.71875 1.703125 
L 7.71875 11.625 
Q 12.109375 9.234375 16.796875 8.0625 
Q 21.484375 6.890625 26.703125 6.890625 
Q 35.15625 6.890625 40.078125 11.328125 
Q 45.015625 15.765625 45.015625 23.390625 
Q 45.015625 31 40.078125 35.4375 
Q 35.15625 39.890625 26.703125 39.890625 
Q 22.75 39.890625 18.8125 39.015625 
Q 14.890625 38.140625 10.796875 36.28125 
z
" id="DejaVuSans-53"/>
       </defs>
       <use xlink:href="#DejaVuSans-48"/>
       <use x="63.623047" xlink:href="#DejaVuSans-46"/>
       <use x="95.410156" xlink:href="#DejaVuSans-53"/>
      </g>
     </g>
    </g>
    <g id="ytick_7">
     <g id="line2d_7">
      <path clip-path="url(#p3c60900309)" d="M 180 91.470595 
L 1296 91.470595 
" style="fill:none;stroke:#999999;stroke-dasharray:1.5,2.475;stroke-dashoffset:0;stroke-width:1.5;"/>
     </g>
     <g id="text_13">
      <!-- 0.6 -->
      <g style="fill:#262626;" transform="translate(141.259844 97.739306)scale(0.165 -0.165)">
       <defs>
        <path d="M 33.015625 40.375 
Q 26.375 40.375 22.484375 35.828125 
Q 18.609375 31.296875 18.609375 23.390625 
Q 18.609375 15.53125 22.484375 10.953125 
Q 26.375 6.390625 33.015625 6.390625 
Q 39.65625 6.390625 43.53125 10.953125 
Q 47.40625 15.53125 47.40625 23.390625 
Q 47.40625 31.296875 43.53125 35.828125 
Q 39.65625 40.375 33.015625 40.375 
z
M 52.59375 71.296875 
L 52.59375 62.3125 
Q 48.875 64.0625 45.09375 64.984375 
Q 41.3125 65.921875 37.59375 65.921875 
Q 27.828125 65.921875 22.671875 59.328125 
Q 17.53125 52.734375 16.796875 39.40625 
Q 19.671875 43.65625 24.015625 45.921875 
Q 28.375 48.1875 33.59375 48.1875 
Q 44.578125 48.1875 50.953125 41.515625 
Q 57.328125 34.859375 57.328125 23.390625 
Q 57.328125 12.15625 50.6875 5.359375 
Q 44.046875 -1.421875 33.015625 -1.421875 
Q 20.359375 -1.421875 13.671875 8.265625 
Q 6.984375 17.96875 6.984375 36.375 
Q 6.984375 53.65625 15.1875 63.9375 
Q 23.390625 74.21875 37.203125 74.21875 
Q 40.921875 74.21875 44.703125 73.484375 
Q 48.484375 72.75 52.59375 71.296875 
z
" id="DejaVuSans-54"/>
       </defs>
       <use xlink:href="#DejaVuSans-48"/>
       <use x="63.623047" xlink:href="#DejaVuSans-46"/>
       <use x="95.410156" xlink:href="#DejaVuSans-54"/>
      </g>
     </g>
    </g>
    <g id="text_14">
     <!-- proportion -->
     <g style="fill:#262626;" transform="translate(133.516406 405.077344)rotate(-90)scale(0.18 -0.18)">
      <use xlink:href="#DejaVuSans-112"/>
      <use x="63.476562" xlink:href="#DejaVuSans-114"/>
      <use x="102.339844" xlink:href="#DejaVuSans-111"/>
      <use x="163.521484" xlink:href="#DejaVuSans-112"/>
      <use x="226.998047" xlink:href="#DejaVuSans-111"/>
      <use x="288.179688" xlink:href="#DejaVuSans-114"/>
      <use x="329.292969" xlink:href="#DejaVuSans-116"/>
      <use x="368.501953" xlink:href="#DejaVuSans-105"/>
      <use x="396.285156" xlink:href="#DejaVuSans-111"/>
      <use x="457.466797" xlink:href="#DejaVuSans-110"/>
     </g>
    </g>
   </g>
   <g id="patch_3">
    <path clip-path="url(#p3c60900309)" d="M 202.67712 346.236023 
L 237.67488 346.236023 
L 237.67488 294.283314 
L 202.67712 294.283314 
L 202.67712 346.236023 
z
" style="fill:#96cac1;stroke:#666666;stroke-linejoin:miter;stroke-width:2.25;"/>
   </g>
   <g id="patch_4">
    <path clip-path="url(#p3c60900309)" d="M 238.38912 325.601802 
L 273.38688 325.601802 
L 273.38688 283.071976 
L 238.38912 283.071976 
L 238.38912 325.601802 
z
" style="fill:#f6f6bc;stroke:#666666;stroke-linejoin:miter;stroke-width:2.25;"/>
   </g>
   <g id="patch_5">
    <path clip-path="url(#p3c60900309)" d="M 274.10112 324.965942 
L 309.09888 324.965942 
L 309.09888 289.57063 
L 274.10112 289.57063 
L 274.10112 324.965942 
z
" style="fill:#c1bed6;stroke:#666666;stroke-linejoin:miter;stroke-width:2.25;"/>
   </g>
   <g id="patch_6">
    <path clip-path="url(#p3c60900309)" d="M 309.81312 318.074808 
L 344.81088 318.074808 
L 344.81088 281.407203 
L 309.81312 281.407203 
L 309.81312 318.074808 
z
" style="fill:#ea8e83;stroke:#666666;stroke-linejoin:miter;stroke-width:2.25;"/>
   </g>
   <g id="patch_7">
    <path clip-path="url(#p3c60900309)" d="M 345.52512 312.702014 
L 380.52288 312.702014 
L 380.52288 262.903739 
L 345.52512 262.903739 
L 345.52512 312.702014 
z
" style="fill:#8aafc9;stroke:#666666;stroke-linejoin:miter;stroke-width:2.25;"/>
   </g>
   <g id="patch_8">
    <path clip-path="url(#p3c60900309)" d="M 425.87712 409.220204 
L 460.87488 409.220204 
L 460.87488 231.825305 
L 425.87712 231.825305 
L 425.87712 409.220204 
z
" style="fill:#96cac1;stroke:#666666;stroke-linejoin:miter;stroke-width:2.25;"/>
   </g>
   <g id="patch_9">
    <path clip-path="url(#p3c60900309)" d="M 461.58912 234.305751 
L 496.58688 234.305751 
L 496.58688 133.978064 
L 461.58912 133.978064 
L 461.58912 234.305751 
z
" style="fill:#f6f6bc;stroke:#666666;stroke-linejoin:miter;stroke-width:2.25;"/>
   </g>
   <g id="patch_10">
    <path clip-path="url(#p3c60900309)" d="M 497.30112 292.686211 
L 532.29888 292.686211 
L 532.29888 143.303522 
L 497.30112 143.303522 
L 497.30112 292.686211 
z
" style="fill:#c1bed6;stroke:#666666;stroke-linejoin:miter;stroke-width:2.25;"/>
   </g>
   <g id="patch_11">
    <path clip-path="url(#p3c60900309)" d="M 533.01312 211.474779 
L 568.01088 211.474779 
L 568.01088 141.377954 
L 533.01312 141.377954 
L 533.01312 211.474779 
z
" style="fill:#ea8e83;stroke:#666666;stroke-linejoin:miter;stroke-width:2.25;"/>
   </g>
   <g id="patch_12">
    <path clip-path="url(#p3c60900309)" d="M 568.72512 170.493365 
L 603.72288 170.493365 
L 603.72288 137.366103 
L 568.72512 137.366103 
L 568.72512 170.493365 
z
" style="fill:#8aafc9;stroke:#666666;stroke-linejoin:miter;stroke-width:2.25;"/>
   </g>
   <g id="patch_13">
    <path clip-path="url(#p3c60900309)" d="M 649.07712 467.690678 
L 684.07488 467.690678 
L 684.07488 306.267708 
L 649.07712 306.267708 
L 649.07712 467.690678 
z
" style="fill:#96cac1;stroke:#666666;stroke-linejoin:miter;stroke-width:2.25;"/>
   </g>
   <g id="patch_14">
    <path clip-path="url(#p3c60900309)" d="M 684.78912 540.490736 
L 719.78688 540.490736 
L 719.78688 442.339275 
L 684.78912 442.339275 
L 684.78912 540.490736 
z
" style="fill:#f6f6bc;stroke:#666666;stroke-linejoin:miter;stroke-width:2.25;"/>
   </g>
   <g id="patch_15">
    <path clip-path="url(#p3c60900309)" d="M 720.50112 537.899048 
L 755.49888 537.899048 
L 755.49888 373.819726 
L 720.50112 373.819726 
L 720.50112 537.899048 
z
" style="fill:#c1bed6;stroke:#666666;stroke-linejoin:miter;stroke-width:2.25;"/>
   </g>
   <g id="patch_16">
    <path clip-path="url(#p3c60900309)" d="M 756.21312 548.637439 
L 791.21088 548.637439 
L 791.21088 446.030859 
L 756.21312 446.030859 
L 756.21312 548.637439 
z
" style="fill:#ea8e83;stroke:#666666;stroke-linejoin:miter;stroke-width:2.25;"/>
   </g>
   <g id="patch_17">
    <path clip-path="url(#p3c60900309)" d="M 791.92512 550.889109 
L 826.92288 550.889109 
L 826.92288 484.76955 
L 791.92512 484.76955 
L 791.92512 550.889109 
z
" style="fill:#8aafc9;stroke:#666666;stroke-linejoin:miter;stroke-width:2.25;"/>
   </g>
   <g id="patch_18">
    <path clip-path="url(#p3c60900309)" d="M 872.27712 571.651864 
L 907.27488 571.651864 
L 907.27488 505.036657 
L 872.27712 505.036657 
L 872.27712 571.651864 
z
" style="fill:#96cac1;stroke:#666666;stroke-linejoin:miter;stroke-width:2.25;"/>
   </g>
   <g id="patch_19">
    <path clip-path="url(#p3c60900309)" d="M 907.98912 605.065457 
L 942.98688 605.065457 
L 942.98688 571.445316 
L 907.98912 571.445316 
L 907.98912 605.065457 
z
" style="fill:#f6f6bc;stroke:#666666;stroke-linejoin:miter;stroke-width:2.25;"/>
   </g>
   <g id="patch_20">
    <path clip-path="url(#p3c60900309)" d="M 943.70112 605.040784 
L 978.69888 605.040784 
L 978.69888 582.053443 
L 943.70112 582.053443 
L 943.70112 605.040784 
z
" style="fill:#c1bed6;stroke:#666666;stroke-linejoin:miter;stroke-width:2.25;"/>
   </g>
   <g id="patch_21">
    <path clip-path="url(#p3c60900309)" d="M 979.41312 605.290909 
L 1014.41088 605.290909 
L 1014.41088 597.291718 
L 979.41312 597.291718 
L 979.41312 605.290909 
z
" style="fill:#ea8e83;stroke:#666666;stroke-linejoin:miter;stroke-width:2.25;"/>
   </g>
   <g id="patch_22">
    <path clip-path="url(#p3c60900309)" d="M 1015.12512 605.290909 
L 1050.12288 605.290909 
L 1050.12288 604.867984 
L 1015.12512 604.867984 
L 1015.12512 605.290909 
z
" style="fill:#8aafc9;stroke:#666666;stroke-linejoin:miter;stroke-width:2.25;"/>
   </g>
   <g id="patch_23">
    <path clip-path="url(#p3c60900309)" d="M 1095.47712 604.636194 
L 1130.47488 604.636194 
L 1130.47488 603.326764 
L 1095.47712 603.326764 
L 1095.47712 604.636194 
z
" style="fill:#96cac1;stroke:#666666;stroke-linejoin:miter;stroke-width:2.25;"/>
   </g>
   <g id="patch_24">
    <path clip-path="url(#p3c60900309)" d="M 1131.18912 605.290909 
L 1166.18688 605.290909 
L 1166.18688 604.634186 
L 1131.18912 604.634186 
L 1131.18912 605.290909 
z
" style="fill:#f6f6bc;stroke:#666666;stroke-linejoin:miter;stroke-width:2.25;"/>
   </g>
   <g id="patch_25">
    <path clip-path="url(#p3c60900309)" d="M 1166.90112 605.290909 
L 1201.89888 605.290909 
L 1201.89888 605.290909 
L 1166.90112 605.290909 
L 1166.90112 605.290909 
z
" style="fill:#c1bed6;stroke:#666666;stroke-linejoin:miter;stroke-width:2.25;"/>
   </g>
   <g id="patch_26">
    <path clip-path="url(#p3c60900309)" d="M 1202.61312 605.290909 
L 1237.61088 605.290909 
L 1237.61088 605.290909 
L 1202.61312 605.290909 
L 1202.61312 605.290909 
z
" style="fill:#ea8e83;stroke:#666666;stroke-linejoin:miter;stroke-width:2.25;"/>
   </g>
   <g id="patch_27">
    <path clip-path="url(#p3c60900309)" d="M 1238.32512 605.290909 
L 1273.32288 605.290909 
L 1273.32288 605.290909 
L 1238.32512 605.290909 
L 1238.32512 605.290909 
z
" style="fill:#8aafc9;stroke:#666666;stroke-linejoin:miter;stroke-width:2.25;"/>
   </g>
   <g id="patch_28">
    <path clip-path="url(#p3c60900309)" d="M 291.6 605.290909 
L 291.6 605.290909 
L 291.6 605.290909 
L 291.6 605.290909 
z
" style="fill:#96cac1;stroke:#666666;stroke-linejoin:miter;stroke-width:1.125;"/>
   </g>
   <g id="patch_29">
    <path clip-path="url(#p3c60900309)" d="M 291.6 605.290909 
L 291.6 605.290909 
L 291.6 605.290909 
L 291.6 605.290909 
z
" style="fill:#f6f6bc;stroke:#666666;stroke-linejoin:miter;stroke-width:1.125;"/>
   </g>
   <g id="patch_30">
    <path clip-path="url(#p3c60900309)" d="M 291.6 605.290909 
L 291.6 605.290909 
L 291.6 605.290909 
L 291.6 605.290909 
z
" style="fill:#c1bed6;stroke:#666666;stroke-linejoin:miter;stroke-width:1.125;"/>
   </g>
   <g id="patch_31">
    <path clip-path="url(#p3c60900309)" d="M 291.6 605.290909 
L 291.6 605.290909 
L 291.6 605.290909 
L 291.6 605.290909 
z
" style="fill:#ea8e83;stroke:#666666;stroke-linejoin:miter;stroke-width:1.125;"/>
   </g>
   <g id="patch_32">
    <path clip-path="url(#p3c60900309)" d="M 291.6 605.290909 
L 291.6 605.290909 
L 291.6 605.290909 
L 291.6 605.290909 
z
" style="fill:#8aafc9;stroke:#666666;stroke-linejoin:miter;stroke-width:1.125;"/>
   </g>
   <g id="line2d_8">
    <path clip-path="url(#p3c60900309)" d="M 220.176 346.236023 
L 220.176 372.212377 
" style="fill:none;stroke:#666666;stroke-linecap:round;stroke-width:2.25;"/>
   </g>
   <g id="line2d_9">
    <path clip-path="url(#p3c60900309)" d="M 220.176 294.283314 
L 220.176 268.30696 
" style="fill:none;stroke:#666666;stroke-linecap:round;stroke-width:2.25;"/>
   </g>
   <g id="line2d_10">
    <path clip-path="url(#p3c60900309)" d="M 211.42656 372.212377 
L 228.92544 372.212377 
" style="fill:none;stroke:#666666;stroke-linecap:round;stroke-width:2.25;"/>
   </g>
   <g id="line2d_11">
    <path clip-path="url(#p3c60900309)" d="M 211.42656 268.30696 
L 228.92544 268.30696 
" style="fill:none;stroke:#666666;stroke-linecap:round;stroke-width:2.25;"/>
   </g>
   <g id="line2d_12"/>
   <g id="line2d_13">
    <path clip-path="url(#p3c60900309)" d="M 255.888 325.601802 
L 255.888 371.497412 
" style="fill:none;stroke:#666666;stroke-linecap:round;stroke-width:2.25;"/>
   </g>
   <g id="line2d_14">
    <path clip-path="url(#p3c60900309)" d="M 255.888 283.071976 
L 255.888 262.470151 
" style="fill:none;stroke:#666666;stroke-linecap:round;stroke-width:2.25;"/>
   </g>
   <g id="line2d_15">
    <path clip-path="url(#p3c60900309)" d="M 247.13856 371.497412 
L 264.63744 371.497412 
" style="fill:none;stroke:#666666;stroke-linecap:round;stroke-width:2.25;"/>
   </g>
   <g id="line2d_16">
    <path clip-path="url(#p3c60900309)" d="M 247.13856 262.470151 
L 264.63744 262.470151 
" style="fill:none;stroke:#666666;stroke-linecap:round;stroke-width:2.25;"/>
   </g>
   <g id="line2d_17"/>
   <g id="line2d_18">
    <path clip-path="url(#p3c60900309)" d="M 291.6 324.965942 
L 291.6 368.74193 
" style="fill:none;stroke:#666666;stroke-linecap:round;stroke-width:2.25;"/>
   </g>
   <g id="line2d_19">
    <path clip-path="url(#p3c60900309)" d="M 291.6 289.57063 
L 291.6 260.579863 
" style="fill:none;stroke:#666666;stroke-linecap:round;stroke-width:2.25;"/>
   </g>
   <g id="line2d_20">
    <path clip-path="url(#p3c60900309)" d="M 282.85056 368.74193 
L 300.34944 368.74193 
" style="fill:none;stroke:#666666;stroke-linecap:round;stroke-width:2.25;"/>
   </g>
   <g id="line2d_21">
    <path clip-path="url(#p3c60900309)" d="M 282.85056 260.579863 
L 300.34944 260.579863 
" style="fill:none;stroke:#666666;stroke-linecap:round;stroke-width:2.25;"/>
   </g>
   <g id="line2d_22"/>
   <g id="line2d_23">
    <path clip-path="url(#p3c60900309)" d="M 327.312 318.074808 
L 327.312 368.74193 
" style="fill:none;stroke:#666666;stroke-linecap:round;stroke-width:2.25;"/>
   </g>
   <g id="line2d_24">
    <path clip-path="url(#p3c60900309)" d="M 327.312 281.407203 
L 327.312 259.804347 
" style="fill:none;stroke:#666666;stroke-linecap:round;stroke-width:2.25;"/>
   </g>
   <g id="line2d_25">
    <path clip-path="url(#p3c60900309)" d="M 318.56256 368.74193 
L 336.06144 368.74193 
" style="fill:none;stroke:#666666;stroke-linecap:round;stroke-width:2.25;"/>
   </g>
   <g id="line2d_26">
    <path clip-path="url(#p3c60900309)" d="M 318.56256 259.804347 
L 336.06144 259.804347 
" style="fill:none;stroke:#666666;stroke-linecap:round;stroke-width:2.25;"/>
   </g>
   <g id="line2d_27">
    <defs>
     <path d="M -0 3.535534 
L 2.12132 0 
L -0 -3.535534 
L -2.12132 -0 
z
" id="m26bbb9789a" style="stroke:#666666;stroke-linejoin:miter;"/>
    </defs>
    <g clip-path="url(#p3c60900309)">
     <use style="fill:#666666;stroke:#666666;stroke-linejoin:miter;" x="327.312" xlink:href="#m26bbb9789a" y="212.562007"/>
    </g>
   </g>
   <g id="line2d_28">
    <path clip-path="url(#p3c60900309)" d="M 363.024 312.702014 
L 363.024 368.74193 
" style="fill:none;stroke:#666666;stroke-linecap:round;stroke-width:2.25;"/>
   </g>
   <g id="line2d_29">
    <path clip-path="url(#p3c60900309)" d="M 363.024 262.903739 
L 363.024 207.107439 
" style="fill:none;stroke:#666666;stroke-linecap:round;stroke-width:2.25;"/>
   </g>
   <g id="line2d_30">
    <path clip-path="url(#p3c60900309)" d="M 354.27456 368.74193 
L 371.77344 368.74193 
" style="fill:none;stroke:#666666;stroke-linecap:round;stroke-width:2.25;"/>
   </g>
   <g id="line2d_31">
    <path clip-path="url(#p3c60900309)" d="M 354.27456 207.107439 
L 371.77344 207.107439 
" style="fill:none;stroke:#666666;stroke-linecap:round;stroke-width:2.25;"/>
   </g>
   <g id="line2d_32"/>
   <g id="line2d_33">
    <path clip-path="url(#p3c60900309)" d="M 443.376 409.220204 
L 443.376 497.917653 
" style="fill:none;stroke:#666666;stroke-linecap:round;stroke-width:2.25;"/>
   </g>
   <g id="line2d_34">
    <path clip-path="url(#p3c60900309)" d="M 443.376 231.825305 
L 443.376 143.127856 
" style="fill:none;stroke:#666666;stroke-linecap:round;stroke-width:2.25;"/>
   </g>
   <g id="line2d_35">
    <path clip-path="url(#p3c60900309)" d="M 434.62656 497.917653 
L 452.12544 497.917653 
" style="fill:none;stroke:#666666;stroke-linecap:round;stroke-width:2.25;"/>
   </g>
   <g id="line2d_36">
    <path clip-path="url(#p3c60900309)" d="M 434.62656 143.127856 
L 452.12544 143.127856 
" style="fill:none;stroke:#666666;stroke-linecap:round;stroke-width:2.25;"/>
   </g>
   <g id="line2d_37"/>
   <g id="line2d_38">
    <path clip-path="url(#p3c60900309)" d="M 479.088 234.305751 
L 479.088 234.305751 
" style="fill:none;stroke:#666666;stroke-linecap:round;stroke-width:2.25;"/>
   </g>
   <g id="line2d_39">
    <path clip-path="url(#p3c60900309)" d="M 479.088 133.978064 
L 479.088 133.271149 
" style="fill:none;stroke:#666666;stroke-linecap:round;stroke-width:2.25;"/>
   </g>
   <g id="line2d_40">
    <path clip-path="url(#p3c60900309)" d="M 470.33856 234.305751 
L 487.83744 234.305751 
" style="fill:none;stroke:#666666;stroke-linecap:round;stroke-width:2.25;"/>
   </g>
   <g id="line2d_41">
    <path clip-path="url(#p3c60900309)" d="M 470.33856 133.271149 
L 487.83744 133.271149 
" style="fill:none;stroke:#666666;stroke-linecap:round;stroke-width:2.25;"/>
   </g>
   <g id="line2d_42">
    <g clip-path="url(#p3c60900309)">
     <use style="fill:#666666;stroke:#666666;stroke-linejoin:miter;" x="479.088" xlink:href="#m26bbb9789a" y="500.21518"/>
    </g>
   </g>
   <g id="line2d_43">
    <path clip-path="url(#p3c60900309)" d="M 514.8 292.686211 
L 514.8 509.473601 
" style="fill:none;stroke:#666666;stroke-linecap:round;stroke-width:2.25;"/>
   </g>
   <g id="line2d_44">
    <path clip-path="url(#p3c60900309)" d="M 514.8 143.303522 
L 514.8 125.390153 
" style="fill:none;stroke:#666666;stroke-linecap:round;stroke-width:2.25;"/>
   </g>
   <g id="line2d_45">
    <path clip-path="url(#p3c60900309)" d="M 506.05056 509.473601 
L 523.54944 509.473601 
" style="fill:none;stroke:#666666;stroke-linecap:round;stroke-width:2.25;"/>
   </g>
   <g id="line2d_46">
    <path clip-path="url(#p3c60900309)" d="M 506.05056 125.390153 
L 523.54944 125.390153 
" style="fill:none;stroke:#666666;stroke-linecap:round;stroke-width:2.25;"/>
   </g>
   <g id="line2d_47"/>
   <g id="line2d_48">
    <path clip-path="url(#p3c60900309)" d="M 550.512 211.474779 
L 550.512 211.474779 
" style="fill:none;stroke:#666666;stroke-linecap:round;stroke-width:2.25;"/>
   </g>
   <g id="line2d_49">
    <path clip-path="url(#p3c60900309)" d="M 550.512 141.377954 
L 550.512 111.109091 
" style="fill:none;stroke:#666666;stroke-linecap:round;stroke-width:2.25;"/>
   </g>
   <g id="line2d_50">
    <path clip-path="url(#p3c60900309)" d="M 541.76256 211.474779 
L 559.26144 211.474779 
" style="fill:none;stroke:#666666;stroke-linecap:round;stroke-width:2.25;"/>
   </g>
   <g id="line2d_51">
    <path clip-path="url(#p3c60900309)" d="M 541.76256 111.109091 
L 559.26144 111.109091 
" style="fill:none;stroke:#666666;stroke-linecap:round;stroke-width:2.25;"/>
   </g>
   <g id="line2d_52">
    <g clip-path="url(#p3c60900309)">
     <use style="fill:#666666;stroke:#666666;stroke-linejoin:miter;" x="550.512" xlink:href="#m26bbb9789a" y="509.473601"/>
     <use style="fill:#666666;stroke:#666666;stroke-linejoin:miter;" x="550.512" xlink:href="#m26bbb9789a" y="339.122728"/>
    </g>
   </g>
   <g id="line2d_53">
    <path clip-path="url(#p3c60900309)" d="M 586.224 170.493365 
L 586.224 174.38003 
" style="fill:none;stroke:#666666;stroke-linecap:round;stroke-width:2.25;"/>
   </g>
   <g id="line2d_54">
    <path clip-path="url(#p3c60900309)" d="M 586.224 137.366103 
L 586.224 112.530661 
" style="fill:none;stroke:#666666;stroke-linecap:round;stroke-width:2.25;"/>
   </g>
   <g id="line2d_55">
    <path clip-path="url(#p3c60900309)" d="M 577.47456 174.38003 
L 594.97344 174.38003 
" style="fill:none;stroke:#666666;stroke-linecap:round;stroke-width:2.25;"/>
   </g>
   <g id="line2d_56">
    <path clip-path="url(#p3c60900309)" d="M 577.47456 112.530661 
L 594.97344 112.530661 
" style="fill:none;stroke:#666666;stroke-linecap:round;stroke-width:2.25;"/>
   </g>
   <g id="line2d_57">
    <g clip-path="url(#p3c60900309)">
     <use style="fill:#666666;stroke:#666666;stroke-linejoin:miter;" x="586.224" xlink:href="#m26bbb9789a" y="509.473601"/>
     <use style="fill:#666666;stroke:#666666;stroke-linejoin:miter;" x="586.224" xlink:href="#m26bbb9789a" y="339.122728"/>
    </g>
   </g>
   <g id="line2d_58">
    <path clip-path="url(#p3c60900309)" d="M 666.576 467.690678 
L 666.576 548.402164 
" style="fill:none;stroke:#666666;stroke-linecap:round;stroke-width:2.25;"/>
   </g>
   <g id="line2d_59">
    <path clip-path="url(#p3c60900309)" d="M 666.576 306.267708 
L 666.576 225.556222 
" style="fill:none;stroke:#666666;stroke-linecap:round;stroke-width:2.25;"/>
   </g>
   <g id="line2d_60">
    <path clip-path="url(#p3c60900309)" d="M 657.82656 548.402164 
L 675.32544 548.402164 
" style="fill:none;stroke:#666666;stroke-linecap:round;stroke-width:2.25;"/>
   </g>
   <g id="line2d_61">
    <path clip-path="url(#p3c60900309)" d="M 657.82656 225.556222 
L 675.32544 225.556222 
" style="fill:none;stroke:#666666;stroke-linecap:round;stroke-width:2.25;"/>
   </g>
   <g id="line2d_62"/>
   <g id="line2d_63">
    <path clip-path="url(#p3c60900309)" d="M 702.288 540.490736 
L 702.288 551.666715 
" style="fill:none;stroke:#666666;stroke-linecap:round;stroke-width:2.25;"/>
   </g>
   <g id="line2d_64">
    <path clip-path="url(#p3c60900309)" d="M 702.288 442.339275 
L 702.288 442.339275 
" style="fill:none;stroke:#666666;stroke-linecap:round;stroke-width:2.25;"/>
   </g>
   <g id="line2d_65">
    <path clip-path="url(#p3c60900309)" d="M 693.53856 551.666715 
L 711.03744 551.666715 
" style="fill:none;stroke:#666666;stroke-linecap:round;stroke-width:2.25;"/>
   </g>
   <g id="line2d_66">
    <path clip-path="url(#p3c60900309)" d="M 693.53856 442.339275 
L 711.03744 442.339275 
" style="fill:none;stroke:#666666;stroke-linecap:round;stroke-width:2.25;"/>
   </g>
   <g id="line2d_67">
    <g clip-path="url(#p3c60900309)">
     <use style="fill:#666666;stroke:#666666;stroke-linejoin:miter;" x="702.288" xlink:href="#m26bbb9789a" y="224.391392"/>
    </g>
   </g>
   <g id="line2d_68">
    <path clip-path="url(#p3c60900309)" d="M 738 537.899048 
L 738 552.127599 
" style="fill:none;stroke:#666666;stroke-linecap:round;stroke-width:2.25;"/>
   </g>
   <g id="line2d_69">
    <path clip-path="url(#p3c60900309)" d="M 738 373.819726 
L 738 228.010259 
" style="fill:none;stroke:#666666;stroke-linecap:round;stroke-width:2.25;"/>
   </g>
   <g id="line2d_70">
    <path clip-path="url(#p3c60900309)" d="M 729.25056 552.127599 
L 746.74944 552.127599 
" style="fill:none;stroke:#666666;stroke-linecap:round;stroke-width:2.25;"/>
   </g>
   <g id="line2d_71">
    <path clip-path="url(#p3c60900309)" d="M 729.25056 228.010259 
L 746.74944 228.010259 
" style="fill:none;stroke:#666666;stroke-linecap:round;stroke-width:2.25;"/>
   </g>
   <g id="line2d_72"/>
   <g id="line2d_73">
    <path clip-path="url(#p3c60900309)" d="M 773.712 548.637439 
L 773.712 578.018069 
" style="fill:none;stroke:#666666;stroke-linecap:round;stroke-width:2.25;"/>
   </g>
   <g id="line2d_74">
    <path clip-path="url(#p3c60900309)" d="M 773.712 446.030859 
L 773.712 335.265219 
" style="fill:none;stroke:#666666;stroke-linecap:round;stroke-width:2.25;"/>
   </g>
   <g id="line2d_75">
    <path clip-path="url(#p3c60900309)" d="M 764.96256 578.018069 
L 782.46144 578.018069 
" style="fill:none;stroke:#666666;stroke-linecap:round;stroke-width:2.25;"/>
   </g>
   <g id="line2d_76">
    <path clip-path="url(#p3c60900309)" d="M 764.96256 335.265219 
L 782.46144 335.265219 
" style="fill:none;stroke:#666666;stroke-linecap:round;stroke-width:2.25;"/>
   </g>
   <g id="line2d_77">
    <g clip-path="url(#p3c60900309)">
     <use style="fill:#666666;stroke:#666666;stroke-linejoin:miter;" x="773.712" xlink:href="#m26bbb9789a" y="228.010259"/>
    </g>
   </g>
   <g id="line2d_78">
    <path clip-path="url(#p3c60900309)" d="M 809.424 550.889109 
L 809.424 578.018069 
" style="fill:none;stroke:#666666;stroke-linecap:round;stroke-width:2.25;"/>
   </g>
   <g id="line2d_79">
    <path clip-path="url(#p3c60900309)" d="M 809.424 484.76955 
L 809.424 480.307589 
" style="fill:none;stroke:#666666;stroke-linecap:round;stroke-width:2.25;"/>
   </g>
   <g id="line2d_80">
    <path clip-path="url(#p3c60900309)" d="M 800.67456 578.018069 
L 818.17344 578.018069 
" style="fill:none;stroke:#666666;stroke-linecap:round;stroke-width:2.25;"/>
   </g>
   <g id="line2d_81">
    <path clip-path="url(#p3c60900309)" d="M 800.67456 480.307589 
L 818.17344 480.307589 
" style="fill:none;stroke:#666666;stroke-linecap:round;stroke-width:2.25;"/>
   </g>
   <g id="line2d_82">
    <g clip-path="url(#p3c60900309)">
     <use style="fill:#666666;stroke:#666666;stroke-linejoin:miter;" x="809.424" xlink:href="#m26bbb9789a" y="228.010259"/>
     <use style="fill:#666666;stroke:#666666;stroke-linejoin:miter;" x="809.424" xlink:href="#m26bbb9789a" y="335.265219"/>
    </g>
   </g>
   <g id="line2d_83">
    <path clip-path="url(#p3c60900309)" d="M 889.776 571.651864 
L 889.776 604.959467 
" style="fill:none;stroke:#666666;stroke-linecap:round;stroke-width:2.25;"/>
   </g>
   <g id="line2d_84">
    <path clip-path="url(#p3c60900309)" d="M 889.776 505.036657 
L 889.776 471.729054 
" style="fill:none;stroke:#666666;stroke-linecap:round;stroke-width:2.25;"/>
   </g>
   <g id="line2d_85">
    <path clip-path="url(#p3c60900309)" d="M 881.02656 604.959467 
L 898.52544 604.959467 
" style="fill:none;stroke:#666666;stroke-linecap:round;stroke-width:2.25;"/>
   </g>
   <g id="line2d_86">
    <path clip-path="url(#p3c60900309)" d="M 881.02656 471.729054 
L 898.52544 471.729054 
" style="fill:none;stroke:#666666;stroke-linecap:round;stroke-width:2.25;"/>
   </g>
   <g id="line2d_87"/>
   <g id="line2d_88">
    <path clip-path="url(#p3c60900309)" d="M 925.488 605.065457 
L 925.488 605.290909 
" style="fill:none;stroke:#666666;stroke-linecap:round;stroke-width:2.25;"/>
   </g>
   <g id="line2d_89">
    <path clip-path="url(#p3c60900309)" d="M 925.488 571.445316 
L 925.488 571.445316 
" style="fill:none;stroke:#666666;stroke-linecap:round;stroke-width:2.25;"/>
   </g>
   <g id="line2d_90">
    <path clip-path="url(#p3c60900309)" d="M 916.73856 605.290909 
L 934.23744 605.290909 
" style="fill:none;stroke:#666666;stroke-linecap:round;stroke-width:2.25;"/>
   </g>
   <g id="line2d_91">
    <path clip-path="url(#p3c60900309)" d="M 916.73856 571.445316 
L 934.23744 571.445316 
" style="fill:none;stroke:#666666;stroke-linecap:round;stroke-width:2.25;"/>
   </g>
   <g id="line2d_92">
    <g clip-path="url(#p3c60900309)">
     <use style="fill:#666666;stroke:#666666;stroke-linejoin:miter;" x="925.488" xlink:href="#m26bbb9789a" y="471.319355"/>
    </g>
   </g>
   <g id="line2d_93">
    <path clip-path="url(#p3c60900309)" d="M 961.2 605.040784 
L 961.2 605.290909 
" style="fill:none;stroke:#666666;stroke-linecap:round;stroke-width:2.25;"/>
   </g>
   <g id="line2d_94">
    <path clip-path="url(#p3c60900309)" d="M 961.2 582.053443 
L 961.2 574.43083 
" style="fill:none;stroke:#666666;stroke-linecap:round;stroke-width:2.25;"/>
   </g>
   <g id="line2d_95">
    <path clip-path="url(#p3c60900309)" d="M 952.45056 605.290909 
L 969.94944 605.290909 
" style="fill:none;stroke:#666666;stroke-linecap:round;stroke-width:2.25;"/>
   </g>
   <g id="line2d_96">
    <path clip-path="url(#p3c60900309)" d="M 952.45056 574.43083 
L 969.94944 574.43083 
" style="fill:none;stroke:#666666;stroke-linecap:round;stroke-width:2.25;"/>
   </g>
   <g id="line2d_97">
    <g clip-path="url(#p3c60900309)">
     <use style="fill:#666666;stroke:#666666;stroke-linejoin:miter;" x="961.2" xlink:href="#m26bbb9789a" y="461.564947"/>
    </g>
   </g>
   <g id="line2d_98">
    <path clip-path="url(#p3c60900309)" d="M 996.912 605.290909 
L 996.912 605.290909 
" style="fill:none;stroke:#666666;stroke-linecap:round;stroke-width:2.25;"/>
   </g>
   <g id="line2d_99">
    <path clip-path="url(#p3c60900309)" d="M 996.912 597.291718 
L 996.912 597.291718 
" style="fill:none;stroke:#666666;stroke-linecap:round;stroke-width:2.25;"/>
   </g>
   <g id="line2d_100">
    <path clip-path="url(#p3c60900309)" d="M 988.16256 605.290909 
L 1005.66144 605.290909 
" style="fill:none;stroke:#666666;stroke-linecap:round;stroke-width:2.25;"/>
   </g>
   <g id="line2d_101">
    <path clip-path="url(#p3c60900309)" d="M 988.16256 597.291718 
L 1005.66144 597.291718 
" style="fill:none;stroke:#666666;stroke-linecap:round;stroke-width:2.25;"/>
   </g>
   <g id="line2d_102">
    <g clip-path="url(#p3c60900309)">
     <use style="fill:#666666;stroke:#666666;stroke-linejoin:miter;" x="996.912" xlink:href="#m26bbb9789a" y="461.564947"/>
     <use style="fill:#666666;stroke:#666666;stroke-linejoin:miter;" x="996.912" xlink:href="#m26bbb9789a" y="574.43083"/>
    </g>
   </g>
   <g id="line2d_103">
    <path clip-path="url(#p3c60900309)" d="M 1032.624 605.290909 
L 1032.624 605.290909 
" style="fill:none;stroke:#666666;stroke-linecap:round;stroke-width:2.25;"/>
   </g>
   <g id="line2d_104">
    <path clip-path="url(#p3c60900309)" d="M 1032.624 604.867984 
L 1032.624 604.846447 
" style="fill:none;stroke:#666666;stroke-linecap:round;stroke-width:2.25;"/>
   </g>
   <g id="line2d_105">
    <path clip-path="url(#p3c60900309)" d="M 1023.87456 605.290909 
L 1041.37344 605.290909 
" style="fill:none;stroke:#666666;stroke-linecap:round;stroke-width:2.25;"/>
   </g>
   <g id="line2d_106">
    <path clip-path="url(#p3c60900309)" d="M 1023.87456 604.846447 
L 1041.37344 604.846447 
" style="fill:none;stroke:#666666;stroke-linecap:round;stroke-width:2.25;"/>
   </g>
   <g id="line2d_107">
    <g clip-path="url(#p3c60900309)">
     <use style="fill:#666666;stroke:#666666;stroke-linejoin:miter;" x="1032.624" xlink:href="#m26bbb9789a" y="461.564947"/>
     <use style="fill:#666666;stroke:#666666;stroke-linejoin:miter;" x="1032.624" xlink:href="#m26bbb9789a" y="574.43083"/>
    </g>
   </g>
   <g id="line2d_108">
    <path clip-path="url(#p3c60900309)" d="M 1112.976 604.636194 
L 1112.976 605.290909 
" style="fill:none;stroke:#666666;stroke-linecap:round;stroke-width:2.25;"/>
   </g>
   <g id="line2d_109">
    <path clip-path="url(#p3c60900309)" d="M 1112.976 603.326764 
L 1112.976 602.672049 
" style="fill:none;stroke:#666666;stroke-linecap:round;stroke-width:2.25;"/>
   </g>
   <g id="line2d_110">
    <path clip-path="url(#p3c60900309)" d="M 1104.22656 605.290909 
L 1121.72544 605.290909 
" style="fill:none;stroke:#666666;stroke-linecap:round;stroke-width:2.25;"/>
   </g>
   <g id="line2d_111">
    <path clip-path="url(#p3c60900309)" d="M 1104.22656 602.672049 
L 1121.72544 602.672049 
" style="fill:none;stroke:#666666;stroke-linecap:round;stroke-width:2.25;"/>
   </g>
   <g id="line2d_112"/>
   <g id="line2d_113">
    <path clip-path="url(#p3c60900309)" d="M 1148.688 605.290909 
L 1148.688 605.290909 
" style="fill:none;stroke:#666666;stroke-linecap:round;stroke-width:2.25;"/>
   </g>
   <g id="line2d_114">
    <path clip-path="url(#p3c60900309)" d="M 1148.688 604.634186 
L 1148.688 604.634186 
" style="fill:none;stroke:#666666;stroke-linecap:round;stroke-width:2.25;"/>
   </g>
   <g id="line2d_115">
    <path clip-path="url(#p3c60900309)" d="M 1139.93856 605.290909 
L 1157.43744 605.290909 
" style="fill:none;stroke:#666666;stroke-linecap:round;stroke-width:2.25;"/>
   </g>
   <g id="line2d_116">
    <path clip-path="url(#p3c60900309)" d="M 1139.93856 604.634186 
L 1157.43744 604.634186 
" style="fill:none;stroke:#666666;stroke-linecap:round;stroke-width:2.25;"/>
   </g>
   <g id="line2d_117">
    <g clip-path="url(#p3c60900309)">
     <use style="fill:#666666;stroke:#666666;stroke-linejoin:miter;" x="1148.688" xlink:href="#m26bbb9789a" y="602.664016"/>
    </g>
   </g>
   <g id="line2d_118">
    <path clip-path="url(#p3c60900309)" d="M 1184.4 605.290909 
L 1184.4 605.290909 
" style="fill:none;stroke:#666666;stroke-linecap:round;stroke-width:2.25;"/>
   </g>
   <g id="line2d_119">
    <path clip-path="url(#p3c60900309)" d="M 1184.4 605.290909 
L 1184.4 605.290909 
" style="fill:none;stroke:#666666;stroke-linecap:round;stroke-width:2.25;"/>
   </g>
   <g id="line2d_120">
    <path clip-path="url(#p3c60900309)" d="M 1175.65056 605.290909 
L 1193.14944 605.290909 
" style="fill:none;stroke:#666666;stroke-linecap:round;stroke-width:2.25;"/>
   </g>
   <g id="line2d_121">
    <path clip-path="url(#p3c60900309)" d="M 1175.65056 605.290909 
L 1193.14944 605.290909 
" style="fill:none;stroke:#666666;stroke-linecap:round;stroke-width:2.25;"/>
   </g>
   <g id="line2d_122">
    <g clip-path="url(#p3c60900309)">
     <use style="fill:#666666;stroke:#666666;stroke-linejoin:miter;" x="1184.4" xlink:href="#m26bbb9789a" y="602.296618"/>
    </g>
   </g>
   <g id="line2d_123">
    <path clip-path="url(#p3c60900309)" d="M 1220.112 605.290909 
L 1220.112 605.290909 
" style="fill:none;stroke:#666666;stroke-linecap:round;stroke-width:2.25;"/>
   </g>
   <g id="line2d_124">
    <path clip-path="url(#p3c60900309)" d="M 1220.112 605.290909 
L 1220.112 605.290909 
" style="fill:none;stroke:#666666;stroke-linecap:round;stroke-width:2.25;"/>
   </g>
   <g id="line2d_125">
    <path clip-path="url(#p3c60900309)" d="M 1211.36256 605.290909 
L 1228.86144 605.290909 
" style="fill:none;stroke:#666666;stroke-linecap:round;stroke-width:2.25;"/>
   </g>
   <g id="line2d_126">
    <path clip-path="url(#p3c60900309)" d="M 1211.36256 605.290909 
L 1228.86144 605.290909 
" style="fill:none;stroke:#666666;stroke-linecap:round;stroke-width:2.25;"/>
   </g>
   <g id="line2d_127">
    <g clip-path="url(#p3c60900309)">
     <use style="fill:#666666;stroke:#666666;stroke-linejoin:miter;" x="1220.112" xlink:href="#m26bbb9789a" y="602.296618"/>
    </g>
   </g>
   <g id="line2d_128">
    <path clip-path="url(#p3c60900309)" d="M 1255.824 605.290909 
L 1255.824 605.290909 
" style="fill:none;stroke:#666666;stroke-linecap:round;stroke-width:2.25;"/>
   </g>
   <g id="line2d_129">
    <path clip-path="url(#p3c60900309)" d="M 1255.824 605.290909 
L 1255.824 605.290909 
" style="fill:none;stroke:#666666;stroke-linecap:round;stroke-width:2.25;"/>
   </g>
   <g id="line2d_130">
    <path clip-path="url(#p3c60900309)" d="M 1247.07456 605.290909 
L 1264.57344 605.290909 
" style="fill:none;stroke:#666666;stroke-linecap:round;stroke-width:2.25;"/>
   </g>
   <g id="line2d_131">
    <path clip-path="url(#p3c60900309)" d="M 1247.07456 605.290909 
L 1264.57344 605.290909 
" style="fill:none;stroke:#666666;stroke-linecap:round;stroke-width:2.25;"/>
   </g>
   <g id="line2d_132">
    <g clip-path="url(#p3c60900309)">
     <use style="fill:#666666;stroke:#666666;stroke-linejoin:miter;" x="1255.824" xlink:href="#m26bbb9789a" y="602.296618"/>
    </g>
   </g>
   <g id="line2d_133">
    <path clip-path="url(#p3c60900309)" d="M 202.67712 320.259668 
L 237.67488 320.259668 
" style="fill:none;stroke:#666666;stroke-linecap:round;stroke-width:2.25;"/>
   </g>
   <g id="line2d_134">
    <path clip-path="url(#p3c60900309)" d="M 238.38912 300.121258 
L 273.38688 300.121258 
" style="fill:none;stroke:#666666;stroke-linecap:round;stroke-width:2.25;"/>
   </g>
   <g id="line2d_135">
    <path clip-path="url(#p3c60900309)" d="M 274.10112 306.753507 
L 309.09888 306.753507 
" style="fill:none;stroke:#666666;stroke-linecap:round;stroke-width:2.25;"/>
   </g>
   <g id="line2d_136">
    <path clip-path="url(#p3c60900309)" d="M 309.81312 302.827768 
L 344.81088 302.827768 
" style="fill:none;stroke:#666666;stroke-linecap:round;stroke-width:2.25;"/>
   </g>
   <g id="line2d_137">
    <path clip-path="url(#p3c60900309)" d="M 345.52512 296.021516 
L 380.52288 296.021516 
" style="fill:none;stroke:#666666;stroke-linecap:round;stroke-width:2.25;"/>
   </g>
   <g id="line2d_138">
    <path clip-path="url(#p3c60900309)" d="M 425.87712 320.522755 
L 460.87488 320.522755 
" style="fill:none;stroke:#666666;stroke-linecap:round;stroke-width:2.25;"/>
   </g>
   <g id="line2d_139">
    <path clip-path="url(#p3c60900309)" d="M 461.58912 139.941489 
L 496.58688 139.941489 
" style="fill:none;stroke:#666666;stroke-linecap:round;stroke-width:2.25;"/>
   </g>
   <g id="line2d_140">
    <path clip-path="url(#p3c60900309)" d="M 497.30112 150.204984 
L 532.29888 150.204984 
" style="fill:none;stroke:#666666;stroke-linecap:round;stroke-width:2.25;"/>
   </g>
   <g id="line2d_141">
    <path clip-path="url(#p3c60900309)" d="M 533.01312 154.591504 
L 568.01088 154.591504 
" style="fill:none;stroke:#666666;stroke-linecap:round;stroke-width:2.25;"/>
   </g>
   <g id="line2d_142">
    <path clip-path="url(#p3c60900309)" d="M 568.72512 153.122965 
L 603.72288 153.122965 
" style="fill:none;stroke:#666666;stroke-linecap:round;stroke-width:2.25;"/>
   </g>
   <g id="line2d_143">
    <path clip-path="url(#p3c60900309)" d="M 649.07712 386.979193 
L 684.07488 386.979193 
" style="fill:none;stroke:#666666;stroke-linecap:round;stroke-width:2.25;"/>
   </g>
   <g id="line2d_144">
    <path clip-path="url(#p3c60900309)" d="M 684.78912 525.87699 
L 719.78688 525.87699 
" style="fill:none;stroke:#666666;stroke-linecap:round;stroke-width:2.25;"/>
   </g>
   <g id="line2d_145">
    <path clip-path="url(#p3c60900309)" d="M 720.50112 499.188787 
L 755.49888 499.188787 
" style="fill:none;stroke:#666666;stroke-linecap:round;stroke-width:2.25;"/>
   </g>
   <g id="line2d_146">
    <path clip-path="url(#p3c60900309)" d="M 756.21312 523.504677 
L 791.21088 523.504677 
" style="fill:none;stroke:#666666;stroke-linecap:round;stroke-width:2.25;"/>
   </g>
   <g id="line2d_147">
    <path clip-path="url(#p3c60900309)" d="M 791.92512 540.499806 
L 826.92288 540.499806 
" style="fill:none;stroke:#666666;stroke-linecap:round;stroke-width:2.25;"/>
   </g>
   <g id="line2d_148">
    <path clip-path="url(#p3c60900309)" d="M 872.27712 538.34426 
L 907.27488 538.34426 
" style="fill:none;stroke:#666666;stroke-linecap:round;stroke-width:2.25;"/>
   </g>
   <g id="line2d_149">
    <path clip-path="url(#p3c60900309)" d="M 907.98912 604.905471 
L 942.98688 604.905471 
" style="fill:none;stroke:#666666;stroke-linecap:round;stroke-width:2.25;"/>
   </g>
   <g id="line2d_150">
    <path clip-path="url(#p3c60900309)" d="M 943.70112 604.9587 
L 978.69888 604.9587 
" style="fill:none;stroke:#666666;stroke-linecap:round;stroke-width:2.25;"/>
   </g>
   <g id="line2d_151">
    <path clip-path="url(#p3c60900309)" d="M 979.41312 605.0442 
L 1014.41088 605.0442 
" style="fill:none;stroke:#666666;stroke-linecap:round;stroke-width:2.25;"/>
   </g>
   <g id="line2d_152">
    <path clip-path="url(#p3c60900309)" d="M 1015.12512 605.027992 
L 1050.12288 605.027992 
" style="fill:none;stroke:#666666;stroke-linecap:round;stroke-width:2.25;"/>
   </g>
   <g id="line2d_153">
    <path clip-path="url(#p3c60900309)" d="M 1095.47712 603.981479 
L 1130.47488 603.981479 
" style="fill:none;stroke:#666666;stroke-linecap:round;stroke-width:2.25;"/>
   </g>
   <g id="line2d_154">
    <path clip-path="url(#p3c60900309)" d="M 1131.18912 605.290909 
L 1166.18688 605.290909 
" style="fill:none;stroke:#666666;stroke-linecap:round;stroke-width:2.25;"/>
   </g>
   <g id="line2d_155">
    <path clip-path="url(#p3c60900309)" d="M 1166.90112 605.290909 
L 1201.89888 605.290909 
" style="fill:none;stroke:#666666;stroke-linecap:round;stroke-width:2.25;"/>
   </g>
   <g id="line2d_156">
    <path clip-path="url(#p3c60900309)" d="M 1202.61312 605.290909 
L 1237.61088 605.290909 
" style="fill:none;stroke:#666666;stroke-linecap:round;stroke-width:2.25;"/>
   </g>
   <g id="line2d_157">
    <path clip-path="url(#p3c60900309)" d="M 1238.32512 605.290909 
L 1273.32288 605.290909 
" style="fill:none;stroke:#666666;stroke-linecap:round;stroke-width:2.25;"/>
   </g>
   <g id="patch_33">
    <path d="M 180 630 
L 180 86.4 
" style="fill:none;stroke:#cccccc;stroke-linecap:square;stroke-linejoin:miter;stroke-width:1.875;"/>
   </g>
   <g id="patch_34">
    <path d="M 1296 630 
L 1296 86.4 
" style="fill:none;stroke:#cccccc;stroke-linecap:square;stroke-linejoin:miter;stroke-width:1.875;"/>
   </g>
   <g id="patch_35">
    <path d="M 180 630 
L 1296 630 
" style="fill:none;stroke:#cccccc;stroke-linecap:square;stroke-linejoin:miter;stroke-width:1.875;"/>
   </g>
   <g id="patch_36">
    <path d="M 180 86.4 
L 1296 86.4 
" style="fill:none;stroke:#cccccc;stroke-linecap:square;stroke-linejoin:miter;stroke-width:1.875;"/>
   </g>
   <g id="legend_1">
    <g id="patch_37">
     <path d="M 1175.519062 246.365156 
L 1284.45 246.365156 
Q 1287.75 246.365156 1287.75 243.065156 
L 1287.75 97.95 
Q 1287.75 94.65 1284.45 94.65 
L 1175.519062 94.65 
Q 1172.219062 94.65 1172.219062 97.95 
L 1172.219062 243.065156 
Q 1172.219062 246.365156 1175.519062 246.365156 
z
" style="fill:#ffffff;opacity:0.8;stroke:#cccccc;stroke-linejoin:miter;stroke-width:1.5;"/>
    </g>
    <g id="text_15">
     <!-- K-Means -->
     <g style="fill:#262626;" transform="translate(1192.569844 114.927187)scale(0.18 -0.18)">
      <defs>
       <path d="M 9.8125 72.90625 
L 19.671875 72.90625 
L 19.671875 42.09375 
L 52.390625 72.90625 
L 65.09375 72.90625 
L 28.90625 38.921875 
L 67.671875 0 
L 54.6875 0 
L 19.671875 35.109375 
L 19.671875 0 
L 9.8125 0 
z
" id="DejaVuSans-75"/>
       <path d="M 4.890625 31.390625 
L 31.203125 31.390625 
L 31.203125 23.390625 
L 4.890625 23.390625 
z
" id="DejaVuSans-45"/>
      </defs>
      <use xlink:href="#DejaVuSans-75"/>
      <use x="55.076172" xlink:href="#DejaVuSans-45"/>
      <use x="91.160156" xlink:href="#DejaVuSans-77"/>
      <use x="177.439453" xlink:href="#DejaVuSans-101"/>
      <use x="238.962891" xlink:href="#DejaVuSans-97"/>
      <use x="300.242188" xlink:href="#DejaVuSans-110"/>
      <use x="363.621094" xlink:href="#DejaVuSans-115"/>
     </g>
    </g>
    <g id="patch_38">
     <path d="M 1178.819062 139.458047 
L 1211.819062 139.458047 
L 1211.819062 127.908047 
L 1178.819062 127.908047 
z
" style="fill:#96cac1;stroke:#666666;stroke-linejoin:miter;stroke-width:1.125;"/>
    </g>
    <g id="text_16">
     <!-- K = 2 -->
     <g style="fill:#262626;" transform="translate(1225.019062 139.458047)scale(0.165 -0.165)">
      <defs>
       <path d="M 10.59375 45.40625 
L 73.1875 45.40625 
L 73.1875 37.203125 
L 10.59375 37.203125 
z
M 10.59375 25.484375 
L 73.1875 25.484375 
L 73.1875 17.1875 
L 10.59375 17.1875 
z
" id="DejaVuSans-61"/>
      </defs>
      <use xlink:href="#DejaVuSans-75"/>
      <use x="65.576172" xlink:href="#DejaVuSans-32"/>
      <use x="97.363281" xlink:href="#DejaVuSans-61"/>
      <use x="181.152344" xlink:href="#DejaVuSans-32"/>
      <use x="212.939453" xlink:href="#DejaVuSans-50"/>
     </g>
    </g>
    <g id="patch_39">
     <path d="M 1178.819062 163.676953 
L 1211.819062 163.676953 
L 1211.819062 152.126953 
L 1178.819062 152.126953 
z
" style="fill:#f6f6bc;stroke:#666666;stroke-linejoin:miter;stroke-width:1.125;"/>
    </g>
    <g id="text_17">
     <!-- K = 4 -->
     <g style="fill:#262626;" transform="translate(1225.019062 163.676953)scale(0.165 -0.165)">
      <use xlink:href="#DejaVuSans-75"/>
      <use x="65.576172" xlink:href="#DejaVuSans-32"/>
      <use x="97.363281" xlink:href="#DejaVuSans-61"/>
      <use x="181.152344" xlink:href="#DejaVuSans-32"/>
      <use x="212.939453" xlink:href="#DejaVuSans-52"/>
     </g>
    </g>
    <g id="patch_40">
     <path d="M 1178.819062 187.895859 
L 1211.819062 187.895859 
L 1211.819062 176.345859 
L 1178.819062 176.345859 
z
" style="fill:#c1bed6;stroke:#666666;stroke-linejoin:miter;stroke-width:1.125;"/>
    </g>
    <g id="text_18">
     <!-- K = 6 -->
     <g style="fill:#262626;" transform="translate(1225.019062 187.895859)scale(0.165 -0.165)">
      <use xlink:href="#DejaVuSans-75"/>
      <use x="65.576172" xlink:href="#DejaVuSans-32"/>
      <use x="97.363281" xlink:href="#DejaVuSans-61"/>
      <use x="181.152344" xlink:href="#DejaVuSans-32"/>
      <use x="212.939453" xlink:href="#DejaVuSans-54"/>
     </g>
    </g>
    <g id="patch_41">
     <path d="M 1178.819062 212.114766 
L 1211.819062 212.114766 
L 1211.819062 200.564766 
L 1178.819062 200.564766 
z
" style="fill:#ea8e83;stroke:#666666;stroke-linejoin:miter;stroke-width:1.125;"/>
    </g>
    <g id="text_19">
     <!-- K = 8 -->
     <g style="fill:#262626;" transform="translate(1225.019062 212.114766)scale(0.165 -0.165)">
      <use xlink:href="#DejaVuSans-75"/>
      <use x="65.576172" xlink:href="#DejaVuSans-32"/>
      <use x="97.363281" xlink:href="#DejaVuSans-61"/>
      <use x="181.152344" xlink:href="#DejaVuSans-32"/>
      <use x="212.939453" xlink:href="#DejaVuSans-56"/>
     </g>
    </g>
    <g id="patch_42">
     <path d="M 1178.819062 236.333672 
L 1211.819062 236.333672 
L 1211.819062 224.783672 
L 1178.819062 224.783672 
z
" style="fill:#8aafc9;stroke:#666666;stroke-linejoin:miter;stroke-width:1.125;"/>
    </g>
    <g id="text_20">
     <!-- K = 10 -->
     <g style="fill:#262626;" transform="translate(1225.019062 236.333672)scale(0.165 -0.165)">
      <use xlink:href="#DejaVuSans-75"/>
      <use x="65.576172" xlink:href="#DejaVuSans-32"/>
      <use x="97.363281" xlink:href="#DejaVuSans-61"/>
      <use x="181.152344" xlink:href="#DejaVuSans-32"/>
      <use x="212.939453" xlink:href="#DejaVuSans-49"/>
      <use x="276.5625" xlink:href="#DejaVuSans-48"/>
     </g>
    </g>
   </g>
  </g>
 </g>
 <defs>
  <clipPath id="p3c60900309">
   <rect height="543.6" width="1116" x="180" y="86.4"/>
  </clipPath>
 </defs>
</svg>
