<?xml version="1.0" encoding="utf-8" standalone="no"?>
<!DOCTYPE svg PUBLIC "-//W3C//DTD SVG 1.1//EN"
  "http://www.w3.org/Graphics/SVG/1.1/DTD/svg11.dtd">
<!-- Created with matplotlib (https://matplotlib.org/) -->
<svg height="720pt" version="1.1" viewBox="0 0 1440 720" width="1440pt" xmlns="http://www.w3.org/2000/svg" xmlns:xlink="http://www.w3.org/1999/xlink">
 <metadata>
  <rdf:RDF xmlns:cc="http://creativecommons.org/ns#" xmlns:dc="http://purl.org/dc/elements/1.1/" xmlns:rdf="http://www.w3.org/1999/02/22-rdf-syntax-ns#">
   <cc:Work>
    <dc:type rdf:resource="http://purl.org/dc/dcmitype/StillImage"/>
    <dc:date>2021-10-28T17:57:46.789414</dc:date>
    <dc:format>image/svg+xml</dc:format>
    <dc:creator>
     <cc:Agent>
      <dc:title>Matplotlib v3.3.2, https://matplotlib.org/</dc:title>
     </cc:Agent>
    </dc:creator>
   </cc:Work>
  </rdf:RDF>
 </metadata>
 <defs>
  <style type="text/css">*{stroke-linecap:butt;stroke-linejoin:round;}</style>
 </defs>
 <g id="figure_1">
  <g id="patch_1">
   <path d="M 0 720 
L 1440 720 
L 1440 0 
L 0 0 
z
" style="fill:#ffffff;"/>
  </g>
  <g id="axes_1">
   <g id="patch_2">
    <path d="M 80.19 648.06 
L 1420.56 648.06 
L 1420.56 19.44 
L 80.19 19.44 
z
" style="fill:#ffffff;"/>
   </g>
   <g id="matplotlib.axis_1">
    <g id="xtick_1">
     <g id="text_1">
      <!-- 0.0 -->
      <g style="fill:#262626;" transform="translate(234.616172 673.097422)scale(0.165 -0.165)">
       <defs>
        <path d="M 31.78125 66.40625 
Q 24.171875 66.40625 20.328125 58.90625 
Q 16.5 51.421875 16.5 36.375 
Q 16.5 21.390625 20.328125 13.890625 
Q 24.171875 6.390625 31.78125 6.390625 
Q 39.453125 6.390625 43.28125 13.890625 
Q 47.125 21.390625 47.125 36.375 
Q 47.125 51.421875 43.28125 58.90625 
Q 39.453125 66.40625 31.78125 66.40625 
z
M 31.78125 74.21875 
Q 44.046875 74.21875 50.515625 64.515625 
Q 56.984375 54.828125 56.984375 36.375 
Q 56.984375 17.96875 50.515625 8.265625 
Q 44.046875 -1.421875 31.78125 -1.421875 
Q 19.53125 -1.421875 13.0625 8.265625 
Q 6.59375 17.96875 6.59375 36.375 
Q 6.59375 54.828125 13.0625 64.515625 
Q 19.53125 74.21875 31.78125 74.21875 
z
" id="DejaVuSans-48"/>
        <path d="M 10.6875 12.40625 
L 21 12.40625 
L 21 0 
L 10.6875 0 
z
" id="DejaVuSans-46"/>
       </defs>
       <use xlink:href="#DejaVuSans-48"/>
       <use x="63.623047" xlink:href="#DejaVuSans-46"/>
       <use x="95.410156" xlink:href="#DejaVuSans-48"/>
      </g>
     </g>
    </g>
    <g id="xtick_2">
     <g id="text_2">
      <!-- 1.0 -->
      <g style="fill:#262626;" transform="translate(569.708672 673.097422)scale(0.165 -0.165)">
       <defs>
        <path d="M 12.40625 8.296875 
L 28.515625 8.296875 
L 28.515625 63.921875 
L 10.984375 60.40625 
L 10.984375 69.390625 
L 28.421875 72.90625 
L 38.28125 72.90625 
L 38.28125 8.296875 
L 54.390625 8.296875 
L 54.390625 0 
L 12.40625 0 
z
" id="DejaVuSans-49"/>
       </defs>
       <use xlink:href="#DejaVuSans-49"/>
       <use x="63.623047" xlink:href="#DejaVuSans-46"/>
       <use x="95.410156" xlink:href="#DejaVuSans-48"/>
      </g>
     </g>
    </g>
    <g id="xtick_3">
     <g id="text_3">
      <!-- 2.0 -->
      <g style="fill:#262626;" transform="translate(904.801172 673.097422)scale(0.165 -0.165)">
       <defs>
        <path d="M 19.1875 8.296875 
L 53.609375 8.296875 
L 53.609375 0 
L 7.328125 0 
L 7.328125 8.296875 
Q 12.9375 14.109375 22.625 23.890625 
Q 32.328125 33.6875 34.8125 36.53125 
Q 39.546875 41.84375 41.421875 45.53125 
Q 43.3125 49.21875 43.3125 52.78125 
Q 43.3125 58.59375 39.234375 62.25 
Q 35.15625 65.921875 28.609375 65.921875 
Q 23.96875 65.921875 18.8125 64.3125 
Q 13.671875 62.703125 7.8125 59.421875 
L 7.8125 69.390625 
Q 13.765625 71.78125 18.9375 73 
Q 24.125 74.21875 28.421875 74.21875 
Q 39.75 74.21875 46.484375 68.546875 
Q 53.21875 62.890625 53.21875 53.421875 
Q 53.21875 48.921875 51.53125 44.890625 
Q 49.859375 40.875 45.40625 35.40625 
Q 44.1875 33.984375 37.640625 27.21875 
Q 31.109375 20.453125 19.1875 8.296875 
z
" id="DejaVuSans-50"/>
       </defs>
       <use xlink:href="#DejaVuSans-50"/>
       <use x="63.623047" xlink:href="#DejaVuSans-46"/>
       <use x="95.410156" xlink:href="#DejaVuSans-48"/>
      </g>
     </g>
    </g>
    <g id="xtick_4">
     <g id="text_4">
      <!-- 3.0 -->
      <g style="fill:#262626;" transform="translate(1239.893672 673.097422)scale(0.165 -0.165)">
       <defs>
        <path d="M 40.578125 39.3125 
Q 47.65625 37.796875 51.625 33 
Q 55.609375 28.21875 55.609375 21.1875 
Q 55.609375 10.40625 48.1875 4.484375 
Q 40.765625 -1.421875 27.09375 -1.421875 
Q 22.515625 -1.421875 17.65625 -0.515625 
Q 12.796875 0.390625 7.625 2.203125 
L 7.625 11.71875 
Q 11.71875 9.328125 16.59375 8.109375 
Q 21.484375 6.890625 26.8125 6.890625 
Q 36.078125 6.890625 40.9375 10.546875 
Q 45.796875 14.203125 45.796875 21.1875 
Q 45.796875 27.640625 41.28125 31.265625 
Q 36.765625 34.90625 28.71875 34.90625 
L 20.21875 34.90625 
L 20.21875 43.015625 
L 29.109375 43.015625 
Q 36.375 43.015625 40.234375 45.921875 
Q 44.09375 48.828125 44.09375 54.296875 
Q 44.09375 59.90625 40.109375 62.90625 
Q 36.140625 65.921875 28.71875 65.921875 
Q 24.65625 65.921875 20.015625 65.03125 
Q 15.375 64.15625 9.8125 62.3125 
L 9.8125 71.09375 
Q 15.4375 72.65625 20.34375 73.4375 
Q 25.25 74.21875 29.59375 74.21875 
Q 40.828125 74.21875 47.359375 69.109375 
Q 53.90625 64.015625 53.90625 55.328125 
Q 53.90625 49.265625 50.4375 45.09375 
Q 46.96875 40.921875 40.578125 39.3125 
z
" id="DejaVuSans-51"/>
       </defs>
       <use xlink:href="#DejaVuSans-51"/>
       <use x="63.623047" xlink:href="#DejaVuSans-46"/>
       <use x="95.410156" xlink:href="#DejaVuSans-48"/>
      </g>
     </g>
    </g>
    <g id="text_5">
     <!-- scheduling class -->
     <g style="fill:#262626;" transform="translate(676.459687 694.206094)scale(0.18 -0.18)">
      <defs>
       <path d="M 44.28125 53.078125 
L 44.28125 44.578125 
Q 40.484375 46.53125 36.375 47.5 
Q 32.28125 48.484375 27.875 48.484375 
Q 21.1875 48.484375 17.84375 46.4375 
Q 14.5 44.390625 14.5 40.28125 
Q 14.5 37.15625 16.890625 35.375 
Q 19.28125 33.59375 26.515625 31.984375 
L 29.59375 31.296875 
Q 39.15625 29.25 43.1875 25.515625 
Q 47.21875 21.78125 47.21875 15.09375 
Q 47.21875 7.46875 41.1875 3.015625 
Q 35.15625 -1.421875 24.609375 -1.421875 
Q 20.21875 -1.421875 15.453125 -0.5625 
Q 10.6875 0.296875 5.421875 2 
L 5.421875 11.28125 
Q 10.40625 8.6875 15.234375 7.390625 
Q 20.0625 6.109375 24.8125 6.109375 
Q 31.15625 6.109375 34.5625 8.28125 
Q 37.984375 10.453125 37.984375 14.40625 
Q 37.984375 18.0625 35.515625 20.015625 
Q 33.0625 21.96875 24.703125 23.78125 
L 21.578125 24.515625 
Q 13.234375 26.265625 9.515625 29.90625 
Q 5.8125 33.546875 5.8125 39.890625 
Q 5.8125 47.609375 11.28125 51.796875 
Q 16.75 56 26.8125 56 
Q 31.78125 56 36.171875 55.265625 
Q 40.578125 54.546875 44.28125 53.078125 
z
" id="DejaVuSans-115"/>
       <path d="M 48.78125 52.59375 
L 48.78125 44.1875 
Q 44.96875 46.296875 41.140625 47.34375 
Q 37.3125 48.390625 33.40625 48.390625 
Q 24.65625 48.390625 19.8125 42.84375 
Q 14.984375 37.3125 14.984375 27.296875 
Q 14.984375 17.28125 19.8125 11.734375 
Q 24.65625 6.203125 33.40625 6.203125 
Q 37.3125 6.203125 41.140625 7.25 
Q 44.96875 8.296875 48.78125 10.40625 
L 48.78125 2.09375 
Q 45.015625 0.34375 40.984375 -0.53125 
Q 36.96875 -1.421875 32.421875 -1.421875 
Q 20.0625 -1.421875 12.78125 6.34375 
Q 5.515625 14.109375 5.515625 27.296875 
Q 5.515625 40.671875 12.859375 48.328125 
Q 20.21875 56 33.015625 56 
Q 37.15625 56 41.109375 55.140625 
Q 45.0625 54.296875 48.78125 52.59375 
z
" id="DejaVuSans-99"/>
       <path d="M 54.890625 33.015625 
L 54.890625 0 
L 45.90625 0 
L 45.90625 32.71875 
Q 45.90625 40.484375 42.875 44.328125 
Q 39.84375 48.1875 33.796875 48.1875 
Q 26.515625 48.1875 22.3125 43.546875 
Q 18.109375 38.921875 18.109375 30.90625 
L 18.109375 0 
L 9.078125 0 
L 9.078125 75.984375 
L 18.109375 75.984375 
L 18.109375 46.1875 
Q 21.34375 51.125 25.703125 53.5625 
Q 30.078125 56 35.796875 56 
Q 45.21875 56 50.046875 50.171875 
Q 54.890625 44.34375 54.890625 33.015625 
z
" id="DejaVuSans-104"/>
       <path d="M 56.203125 29.59375 
L 56.203125 25.203125 
L 14.890625 25.203125 
Q 15.484375 15.921875 20.484375 11.0625 
Q 25.484375 6.203125 34.421875 6.203125 
Q 39.59375 6.203125 44.453125 7.46875 
Q 49.3125 8.734375 54.109375 11.28125 
L 54.109375 2.78125 
Q 49.265625 0.734375 44.1875 -0.34375 
Q 39.109375 -1.421875 33.890625 -1.421875 
Q 20.796875 -1.421875 13.15625 6.1875 
Q 5.515625 13.8125 5.515625 26.8125 
Q 5.515625 40.234375 12.765625 48.109375 
Q 20.015625 56 32.328125 56 
Q 43.359375 56 49.78125 48.890625 
Q 56.203125 41.796875 56.203125 29.59375 
z
M 47.21875 32.234375 
Q 47.125 39.59375 43.09375 43.984375 
Q 39.0625 48.390625 32.421875 48.390625 
Q 24.90625 48.390625 20.390625 44.140625 
Q 15.875 39.890625 15.1875 32.171875 
z
" id="DejaVuSans-101"/>
       <path d="M 45.40625 46.390625 
L 45.40625 75.984375 
L 54.390625 75.984375 
L 54.390625 0 
L 45.40625 0 
L 45.40625 8.203125 
Q 42.578125 3.328125 38.25 0.953125 
Q 33.9375 -1.421875 27.875 -1.421875 
Q 17.96875 -1.421875 11.734375 6.484375 
Q 5.515625 14.40625 5.515625 27.296875 
Q 5.515625 40.1875 11.734375 48.09375 
Q 17.96875 56 27.875 56 
Q 33.9375 56 38.25 53.625 
Q 42.578125 51.265625 45.40625 46.390625 
z
M 14.796875 27.296875 
Q 14.796875 17.390625 18.875 11.75 
Q 22.953125 6.109375 30.078125 6.109375 
Q 37.203125 6.109375 41.296875 11.75 
Q 45.40625 17.390625 45.40625 27.296875 
Q 45.40625 37.203125 41.296875 42.84375 
Q 37.203125 48.484375 30.078125 48.484375 
Q 22.953125 48.484375 18.875 42.84375 
Q 14.796875 37.203125 14.796875 27.296875 
z
" id="DejaVuSans-100"/>
       <path d="M 8.5 21.578125 
L 8.5 54.6875 
L 17.484375 54.6875 
L 17.484375 21.921875 
Q 17.484375 14.15625 20.5 10.265625 
Q 23.53125 6.390625 29.59375 6.390625 
Q 36.859375 6.390625 41.078125 11.03125 
Q 45.3125 15.671875 45.3125 23.6875 
L 45.3125 54.6875 
L 54.296875 54.6875 
L 54.296875 0 
L 45.3125 0 
L 45.3125 8.40625 
Q 42.046875 3.421875 37.71875 1 
Q 33.40625 -1.421875 27.6875 -1.421875 
Q 18.265625 -1.421875 13.375 4.4375 
Q 8.5 10.296875 8.5 21.578125 
z
M 31.109375 56 
z
" id="DejaVuSans-117"/>
       <path d="M 9.421875 75.984375 
L 18.40625 75.984375 
L 18.40625 0 
L 9.421875 0 
z
" id="DejaVuSans-108"/>
       <path d="M 9.421875 54.6875 
L 18.40625 54.6875 
L 18.40625 0 
L 9.421875 0 
z
M 9.421875 75.984375 
L 18.40625 75.984375 
L 18.40625 64.59375 
L 9.421875 64.59375 
z
" id="DejaVuSans-105"/>
       <path d="M 54.890625 33.015625 
L 54.890625 0 
L 45.90625 0 
L 45.90625 32.71875 
Q 45.90625 40.484375 42.875 44.328125 
Q 39.84375 48.1875 33.796875 48.1875 
Q 26.515625 48.1875 22.3125 43.546875 
Q 18.109375 38.921875 18.109375 30.90625 
L 18.109375 0 
L 9.078125 0 
L 9.078125 54.6875 
L 18.109375 54.6875 
L 18.109375 46.1875 
Q 21.34375 51.125 25.703125 53.5625 
Q 30.078125 56 35.796875 56 
Q 45.21875 56 50.046875 50.171875 
Q 54.890625 44.34375 54.890625 33.015625 
z
" id="DejaVuSans-110"/>
       <path d="M 45.40625 27.984375 
Q 45.40625 37.75 41.375 43.109375 
Q 37.359375 48.484375 30.078125 48.484375 
Q 22.859375 48.484375 18.828125 43.109375 
Q 14.796875 37.75 14.796875 27.984375 
Q 14.796875 18.265625 18.828125 12.890625 
Q 22.859375 7.515625 30.078125 7.515625 
Q 37.359375 7.515625 41.375 12.890625 
Q 45.40625 18.265625 45.40625 27.984375 
z
M 54.390625 6.78125 
Q 54.390625 -7.171875 48.1875 -13.984375 
Q 42 -20.796875 29.203125 -20.796875 
Q 24.46875 -20.796875 20.265625 -20.09375 
Q 16.0625 -19.390625 12.109375 -17.921875 
L 12.109375 -9.1875 
Q 16.0625 -11.328125 19.921875 -12.34375 
Q 23.78125 -13.375 27.78125 -13.375 
Q 36.625 -13.375 41.015625 -8.765625 
Q 45.40625 -4.15625 45.40625 5.171875 
L 45.40625 9.625 
Q 42.625 4.78125 38.28125 2.390625 
Q 33.9375 0 27.875 0 
Q 17.828125 0 11.671875 7.65625 
Q 5.515625 15.328125 5.515625 27.984375 
Q 5.515625 40.671875 11.671875 48.328125 
Q 17.828125 56 27.875 56 
Q 33.9375 56 38.28125 53.609375 
Q 42.625 51.21875 45.40625 46.390625 
L 45.40625 54.6875 
L 54.390625 54.6875 
z
" id="DejaVuSans-103"/>
       <path id="DejaVuSans-32"/>
       <path d="M 34.28125 27.484375 
Q 23.390625 27.484375 19.1875 25 
Q 14.984375 22.515625 14.984375 16.5 
Q 14.984375 11.71875 18.140625 8.90625 
Q 21.296875 6.109375 26.703125 6.109375 
Q 34.1875 6.109375 38.703125 11.40625 
Q 43.21875 16.703125 43.21875 25.484375 
L 43.21875 27.484375 
z
M 52.203125 31.203125 
L 52.203125 0 
L 43.21875 0 
L 43.21875 8.296875 
Q 40.140625 3.328125 35.546875 0.953125 
Q 30.953125 -1.421875 24.3125 -1.421875 
Q 15.921875 -1.421875 10.953125 3.296875 
Q 6 8.015625 6 15.921875 
Q 6 25.140625 12.171875 29.828125 
Q 18.359375 34.515625 30.609375 34.515625 
L 43.21875 34.515625 
L 43.21875 35.40625 
Q 43.21875 41.609375 39.140625 45 
Q 35.0625 48.390625 27.6875 48.390625 
Q 23 48.390625 18.546875 47.265625 
Q 14.109375 46.140625 10.015625 43.890625 
L 10.015625 52.203125 
Q 14.9375 54.109375 19.578125 55.046875 
Q 24.21875 56 28.609375 56 
Q 40.484375 56 46.34375 49.84375 
Q 52.203125 43.703125 52.203125 31.203125 
z
" id="DejaVuSans-97"/>
      </defs>
      <use xlink:href="#DejaVuSans-115"/>
      <use x="52.099609" xlink:href="#DejaVuSans-99"/>
      <use x="107.080078" xlink:href="#DejaVuSans-104"/>
      <use x="170.458984" xlink:href="#DejaVuSans-101"/>
      <use x="231.982422" xlink:href="#DejaVuSans-100"/>
      <use x="295.458984" xlink:href="#DejaVuSans-117"/>
      <use x="358.837891" xlink:href="#DejaVuSans-108"/>
      <use x="386.621094" xlink:href="#DejaVuSans-105"/>
      <use x="414.404297" xlink:href="#DejaVuSans-110"/>
      <use x="477.783203" xlink:href="#DejaVuSans-103"/>
      <use x="541.259766" xlink:href="#DejaVuSans-32"/>
      <use x="573.046875" xlink:href="#DejaVuSans-99"/>
      <use x="628.027344" xlink:href="#DejaVuSans-108"/>
      <use x="655.810547" xlink:href="#DejaVuSans-97"/>
      <use x="717.089844" xlink:href="#DejaVuSans-115"/>
      <use x="769.189453" xlink:href="#DejaVuSans-115"/>
     </g>
    </g>
   </g>
   <g id="matplotlib.axis_2">
    <g id="ytick_1">
     <g id="line2d_1">
      <path clip-path="url(#p2ba198519f)" d="M 80.19 626.908014 
L 1420.56 626.908014 
" style="fill:none;stroke:#999999;stroke-dasharray:1.5,2.475;stroke-dashoffset:0;stroke-width:1.5;"/>
     </g>
     <g id="text_6">
      <!-- 0.0 -->
      <g style="fill:#262626;" transform="translate(41.449844 633.176725)scale(0.165 -0.165)">
       <use xlink:href="#DejaVuSans-48"/>
       <use x="63.623047" xlink:href="#DejaVuSans-46"/>
       <use x="95.410156" xlink:href="#DejaVuSans-48"/>
      </g>
     </g>
    </g>
    <g id="ytick_2">
     <g id="line2d_2">
      <path clip-path="url(#p2ba198519f)" d="M 80.19 504.088531 
L 1420.56 504.088531 
" style="fill:none;stroke:#999999;stroke-dasharray:1.5,2.475;stroke-dashoffset:0;stroke-width:1.5;"/>
     </g>
     <g id="text_7">
      <!-- 0.1 -->
      <g style="fill:#262626;" transform="translate(41.449844 510.357242)scale(0.165 -0.165)">
       <use xlink:href="#DejaVuSans-48"/>
       <use x="63.623047" xlink:href="#DejaVuSans-46"/>
       <use x="95.410156" xlink:href="#DejaVuSans-49"/>
      </g>
     </g>
    </g>
    <g id="ytick_3">
     <g id="line2d_3">
      <path clip-path="url(#p2ba198519f)" d="M 80.19 381.269049 
L 1420.56 381.269049 
" style="fill:none;stroke:#999999;stroke-dasharray:1.5,2.475;stroke-dashoffset:0;stroke-width:1.5;"/>
     </g>
     <g id="text_8">
      <!-- 0.2 -->
      <g style="fill:#262626;" transform="translate(41.449844 387.537759)scale(0.165 -0.165)">
       <use xlink:href="#DejaVuSans-48"/>
       <use x="63.623047" xlink:href="#DejaVuSans-46"/>
       <use x="95.410156" xlink:href="#DejaVuSans-50"/>
      </g>
     </g>
    </g>
    <g id="ytick_4">
     <g id="line2d_4">
      <path clip-path="url(#p2ba198519f)" d="M 80.19 258.449566 
L 1420.56 258.449566 
" style="fill:none;stroke:#999999;stroke-dasharray:1.5,2.475;stroke-dashoffset:0;stroke-width:1.5;"/>
     </g>
     <g id="text_9">
      <!-- 0.3 -->
      <g style="fill:#262626;" transform="translate(41.449844 264.718277)scale(0.165 -0.165)">
       <use xlink:href="#DejaVuSans-48"/>
       <use x="63.623047" xlink:href="#DejaVuSans-46"/>
       <use x="95.410156" xlink:href="#DejaVuSans-51"/>
      </g>
     </g>
    </g>
    <g id="ytick_5">
     <g id="line2d_5">
      <path clip-path="url(#p2ba198519f)" d="M 80.19 135.630083 
L 1420.56 135.630083 
" style="fill:none;stroke:#999999;stroke-dasharray:1.5,2.475;stroke-dashoffset:0;stroke-width:1.5;"/>
     </g>
     <g id="text_10">
      <!-- 0.4 -->
      <g style="fill:#262626;" transform="translate(41.449844 141.898794)scale(0.165 -0.165)">
       <defs>
        <path d="M 37.796875 64.3125 
L 12.890625 25.390625 
L 37.796875 25.390625 
z
M 35.203125 72.90625 
L 47.609375 72.90625 
L 47.609375 25.390625 
L 58.015625 25.390625 
L 58.015625 17.1875 
L 47.609375 17.1875 
L 47.609375 0 
L 37.796875 0 
L 37.796875 17.1875 
L 4.890625 17.1875 
L 4.890625 26.703125 
z
" id="DejaVuSans-52"/>
       </defs>
       <use xlink:href="#DejaVuSans-48"/>
       <use x="63.623047" xlink:href="#DejaVuSans-46"/>
       <use x="95.410156" xlink:href="#DejaVuSans-52"/>
      </g>
     </g>
    </g>
    <g id="text_11">
     <!-- proportion -->
     <g style="fill:#262626;" transform="translate(33.706406 380.627344)rotate(-90)scale(0.18 -0.18)">
      <defs>
       <path d="M 18.109375 8.203125 
L 18.109375 -20.796875 
L 9.078125 -20.796875 
L 9.078125 54.6875 
L 18.109375 54.6875 
L 18.109375 46.390625 
Q 20.953125 51.265625 25.265625 53.625 
Q 29.59375 56 35.59375 56 
Q 45.5625 56 51.78125 48.09375 
Q 58.015625 40.1875 58.015625 27.296875 
Q 58.015625 14.40625 51.78125 6.484375 
Q 45.5625 -1.421875 35.59375 -1.421875 
Q 29.59375 -1.421875 25.265625 0.953125 
Q 20.953125 3.328125 18.109375 8.203125 
z
M 48.6875 27.296875 
Q 48.6875 37.203125 44.609375 42.84375 
Q 40.53125 48.484375 33.40625 48.484375 
Q 26.265625 48.484375 22.1875 42.84375 
Q 18.109375 37.203125 18.109375 27.296875 
Q 18.109375 17.390625 22.1875 11.75 
Q 26.265625 6.109375 33.40625 6.109375 
Q 40.53125 6.109375 44.609375 11.75 
Q 48.6875 17.390625 48.6875 27.296875 
z
" id="DejaVuSans-112"/>
       <path d="M 41.109375 46.296875 
Q 39.59375 47.171875 37.8125 47.578125 
Q 36.03125 48 33.890625 48 
Q 26.265625 48 22.1875 43.046875 
Q 18.109375 38.09375 18.109375 28.8125 
L 18.109375 0 
L 9.078125 0 
L 9.078125 54.6875 
L 18.109375 54.6875 
L 18.109375 46.1875 
Q 20.953125 51.171875 25.484375 53.578125 
Q 30.03125 56 36.53125 56 
Q 37.453125 56 38.578125 55.875 
Q 39.703125 55.765625 41.0625 55.515625 
z
" id="DejaVuSans-114"/>
       <path d="M 30.609375 48.390625 
Q 23.390625 48.390625 19.1875 42.75 
Q 14.984375 37.109375 14.984375 27.296875 
Q 14.984375 17.484375 19.15625 11.84375 
Q 23.34375 6.203125 30.609375 6.203125 
Q 37.796875 6.203125 41.984375 11.859375 
Q 46.1875 17.53125 46.1875 27.296875 
Q 46.1875 37.015625 41.984375 42.703125 
Q 37.796875 48.390625 30.609375 48.390625 
z
M 30.609375 56 
Q 42.328125 56 49.015625 48.375 
Q 55.71875 40.765625 55.71875 27.296875 
Q 55.71875 13.875 49.015625 6.21875 
Q 42.328125 -1.421875 30.609375 -1.421875 
Q 18.84375 -1.421875 12.171875 6.21875 
Q 5.515625 13.875 5.515625 27.296875 
Q 5.515625 40.765625 12.171875 48.375 
Q 18.84375 56 30.609375 56 
z
" id="DejaVuSans-111"/>
       <path d="M 18.3125 70.21875 
L 18.3125 54.6875 
L 36.8125 54.6875 
L 36.8125 47.703125 
L 18.3125 47.703125 
L 18.3125 18.015625 
Q 18.3125 11.328125 20.140625 9.421875 
Q 21.96875 7.515625 27.59375 7.515625 
L 36.8125 7.515625 
L 36.8125 0 
L 27.59375 0 
Q 17.1875 0 13.234375 3.875 
Q 9.28125 7.765625 9.28125 18.015625 
L 9.28125 47.703125 
L 2.6875 47.703125 
L 2.6875 54.6875 
L 9.28125 54.6875 
L 9.28125 70.21875 
z
" id="DejaVuSans-116"/>
      </defs>
      <use xlink:href="#DejaVuSans-112"/>
      <use x="63.476562" xlink:href="#DejaVuSans-114"/>
      <use x="102.339844" xlink:href="#DejaVuSans-111"/>
      <use x="163.521484" xlink:href="#DejaVuSans-112"/>
      <use x="226.998047" xlink:href="#DejaVuSans-111"/>
      <use x="288.179688" xlink:href="#DejaVuSans-114"/>
      <use x="329.292969" xlink:href="#DejaVuSans-116"/>
      <use x="368.501953" xlink:href="#DejaVuSans-105"/>
      <use x="396.285156" xlink:href="#DejaVuSans-111"/>
      <use x="457.466797" xlink:href="#DejaVuSans-110"/>
     </g>
    </g>
   </g>
   <g id="patch_3">
    <path clip-path="url(#p2ba198519f)" d="M 114.235398 384.938537 
L 166.777902 384.938537 
L 166.777902 239.034857 
L 114.235398 239.034857 
L 114.235398 384.938537 
z
" style="fill:#96cac1;stroke:#666666;stroke-linejoin:miter;stroke-width:2.25;"/>
   </g>
   <g id="patch_4">
    <path clip-path="url(#p2ba198519f)" d="M 167.850198 268.841225 
L 220.392702 268.841225 
L 220.392702 164.488217 
L 167.850198 164.488217 
L 167.850198 268.841225 
z
" style="fill:#f6f6bc;stroke:#666666;stroke-linejoin:miter;stroke-width:2.25;"/>
   </g>
   <g id="patch_5">
    <path clip-path="url(#p2ba198519f)" d="M 221.464998 236.085638 
L 274.007502 236.085638 
L 274.007502 174.343629 
L 221.464998 174.343629 
L 221.464998 236.085638 
z
" style="fill:#c1bed6;stroke:#666666;stroke-linejoin:miter;stroke-width:2.25;"/>
   </g>
   <g id="patch_6">
    <path clip-path="url(#p2ba198519f)" d="M 275.079798 225.63272 
L 327.622302 225.63272 
L 327.622302 156.326122 
L 275.079798 156.326122 
L 275.079798 225.63272 
z
" style="fill:#ea8e83;stroke:#666666;stroke-linejoin:miter;stroke-width:2.25;"/>
   </g>
   <g id="patch_7">
    <path clip-path="url(#p2ba198519f)" d="M 449.327898 250.118839 
L 501.870402 250.118839 
L 501.870402 232.706195 
L 449.327898 232.706195 
L 449.327898 250.118839 
z
" style="fill:#96cac1;stroke:#666666;stroke-linejoin:miter;stroke-width:2.25;"/>
   </g>
   <g id="patch_8">
    <path clip-path="url(#p2ba198519f)" d="M 502.942698 242.825227 
L 555.485202 242.825227 
L 555.485202 168.468385 
L 502.942698 168.468385 
L 502.942698 242.825227 
z
" style="fill:#f6f6bc;stroke:#666666;stroke-linejoin:miter;stroke-width:2.25;"/>
   </g>
   <g id="patch_9">
    <path clip-path="url(#p2ba198519f)" d="M 556.557498 227.497298 
L 609.100002 227.497298 
L 609.100002 128.509844 
L 556.557498 128.509844 
L 556.557498 227.497298 
z
" style="fill:#c1bed6;stroke:#666666;stroke-linejoin:miter;stroke-width:2.25;"/>
   </g>
   <g id="patch_10">
    <path clip-path="url(#p2ba198519f)" d="M 610.172298 250.704097 
L 662.714802 250.704097 
L 662.714802 137.406572 
L 610.172298 137.406572 
L 610.172298 250.704097 
z
" style="fill:#ea8e83;stroke:#666666;stroke-linejoin:miter;stroke-width:2.25;"/>
   </g>
   <g id="patch_11">
    <path clip-path="url(#p2ba198519f)" d="M 784.420398 253.374359 
L 836.962902 253.374359 
L 836.962902 219.448752 
L 784.420398 219.448752 
L 784.420398 253.374359 
z
" style="fill:#96cac1;stroke:#666666;stroke-linejoin:miter;stroke-width:2.25;"/>
   </g>
   <g id="patch_12">
    <path clip-path="url(#p2ba198519f)" d="M 838.035198 313.063931 
L 890.577702 313.063931 
L 890.577702 240.183613 
L 838.035198 240.183613 
L 838.035198 313.063931 
z
" style="fill:#f6f6bc;stroke:#666666;stroke-linejoin:miter;stroke-width:2.25;"/>
   </g>
   <g id="patch_13">
    <path clip-path="url(#p2ba198519f)" d="M 891.649998 342.915436 
L 944.192502 342.915436 
L 944.192502 267.597995 
L 891.649998 267.597995 
L 891.649998 342.915436 
z
" style="fill:#c1bed6;stroke:#666666;stroke-linejoin:miter;stroke-width:2.25;"/>
   </g>
   <g id="patch_14">
    <path clip-path="url(#p2ba198519f)" d="M 945.264798 344.187685 
L 997.807302 344.187685 
L 997.807302 284.841185 
L 945.264798 284.841185 
L 945.264798 344.187685 
z
" style="fill:#ea8e83;stroke:#666666;stroke-linejoin:miter;stroke-width:2.25;"/>
   </g>
   <g id="patch_15">
    <path clip-path="url(#p2ba198519f)" d="M 1119.512898 554.321817 
L 1172.055402 554.321817 
L 1172.055402 424.931101 
L 1119.512898 424.931101 
L 1119.512898 554.321817 
z
" style="fill:#96cac1;stroke:#666666;stroke-linejoin:miter;stroke-width:2.25;"/>
   </g>
   <g id="patch_16">
    <path clip-path="url(#p2ba198519f)" d="M 1173.127698 619.119192 
L 1225.670202 619.119192 
L 1225.670202 547.084355 
L 1173.127698 547.084355 
L 1173.127698 619.119192 
z
" style="fill:#f6f6bc;stroke:#666666;stroke-linejoin:miter;stroke-width:2.25;"/>
   </g>
   <g id="patch_17">
    <path clip-path="url(#p2ba198519f)" d="M 1226.742498 618.562691 
L 1279.285002 618.562691 
L 1279.285002 585.193452 
L 1226.742498 585.193452 
L 1226.742498 618.562691 
z
" style="fill:#c1bed6;stroke:#666666;stroke-linejoin:miter;stroke-width:2.25;"/>
   </g>
   <g id="patch_18">
    <path clip-path="url(#p2ba198519f)" d="M 1280.357298 619.13891 
L 1332.899802 619.13891 
L 1332.899802 598.876795 
L 1280.357298 598.876795 
L 1280.357298 619.13891 
z
" style="fill:#ea8e83;stroke:#666666;stroke-linejoin:miter;stroke-width:2.25;"/>
   </g>
   <g id="patch_19">
    <path clip-path="url(#p2ba198519f)" d="M 247.73625 626.908014 
L 247.73625 626.908014 
L 247.73625 626.908014 
L 247.73625 626.908014 
z
" style="fill:#96cac1;stroke:#666666;stroke-linejoin:miter;stroke-width:1.125;"/>
   </g>
   <g id="patch_20">
    <path clip-path="url(#p2ba198519f)" d="M 247.73625 626.908014 
L 247.73625 626.908014 
L 247.73625 626.908014 
L 247.73625 626.908014 
z
" style="fill:#f6f6bc;stroke:#666666;stroke-linejoin:miter;stroke-width:1.125;"/>
   </g>
   <g id="patch_21">
    <path clip-path="url(#p2ba198519f)" d="M 247.73625 626.908014 
L 247.73625 626.908014 
L 247.73625 626.908014 
L 247.73625 626.908014 
z
" style="fill:#c1bed6;stroke:#666666;stroke-linejoin:miter;stroke-width:1.125;"/>
   </g>
   <g id="patch_22">
    <path clip-path="url(#p2ba198519f)" d="M 247.73625 626.908014 
L 247.73625 626.908014 
L 247.73625 626.908014 
L 247.73625 626.908014 
z
" style="fill:#ea8e83;stroke:#666666;stroke-linejoin:miter;stroke-width:1.125;"/>
   </g>
   <g id="patch_23">
    <path clip-path="url(#p2ba198519f)" d="M 247.73625 626.908014 
L 247.73625 626.908014 
L 247.73625 626.908014 
L 247.73625 626.908014 
z
" style="fill:#8aafc9;stroke:#666666;stroke-linejoin:miter;stroke-width:1.125;"/>
   </g>
   <g id="line2d_6">
    <path clip-path="url(#p2ba198519f)" d="M 140.50665 384.938537 
L 140.50665 457.890377 
" style="fill:none;stroke:#666666;stroke-linecap:round;stroke-width:2.25;"/>
   </g>
   <g id="line2d_7">
    <path clip-path="url(#p2ba198519f)" d="M 140.50665 239.034857 
L 140.50665 166.083017 
" style="fill:none;stroke:#666666;stroke-linecap:round;stroke-width:2.25;"/>
   </g>
   <g id="line2d_8">
    <path clip-path="url(#p2ba198519f)" d="M 127.371024 457.890377 
L 153.642276 457.890377 
" style="fill:none;stroke:#666666;stroke-linecap:round;stroke-width:2.25;"/>
   </g>
   <g id="line2d_9">
    <path clip-path="url(#p2ba198519f)" d="M 127.371024 166.083017 
L 153.642276 166.083017 
" style="fill:none;stroke:#666666;stroke-linecap:round;stroke-width:2.25;"/>
   </g>
   <g id="line2d_10"/>
   <g id="line2d_11">
    <path clip-path="url(#p2ba198519f)" d="M 194.12145 268.841225 
L 194.12145 268.841225 
" style="fill:none;stroke:#666666;stroke-linecap:round;stroke-width:2.25;"/>
   </g>
   <g id="line2d_12">
    <path clip-path="url(#p2ba198519f)" d="M 194.12145 164.488217 
L 194.12145 146.113145 
" style="fill:none;stroke:#666666;stroke-linecap:round;stroke-width:2.25;"/>
   </g>
   <g id="line2d_13">
    <path clip-path="url(#p2ba198519f)" d="M 180.985824 268.841225 
L 207.257076 268.841225 
" style="fill:none;stroke:#666666;stroke-linecap:round;stroke-width:2.25;"/>
   </g>
   <g id="line2d_14">
    <path clip-path="url(#p2ba198519f)" d="M 180.985824 146.113145 
L 207.257076 146.113145 
" style="fill:none;stroke:#666666;stroke-linecap:round;stroke-width:2.25;"/>
   </g>
   <g id="line2d_15">
    <defs>
     <path d="M -0 3.535534 
L 2.12132 0 
L -0 -3.535534 
L -2.12132 -0 
z
" id="madf33f6c66" style="stroke:#666666;stroke-linejoin:miter;"/>
    </defs>
    <g clip-path="url(#p2ba198519f)">
     <use style="fill:#666666;stroke:#666666;stroke-linejoin:miter;" x="194.12145" xlink:href="#madf33f6c66" y="457.371918"/>
    </g>
   </g>
   <g id="line2d_16">
    <path clip-path="url(#p2ba198519f)" d="M 247.73625 236.085638 
L 247.73625 242.277605 
" style="fill:none;stroke:#666666;stroke-linecap:round;stroke-width:2.25;"/>
   </g>
   <g id="line2d_17">
    <path clip-path="url(#p2ba198519f)" d="M 247.73625 174.343629 
L 247.73625 134.251776 
" style="fill:none;stroke:#666666;stroke-linecap:round;stroke-width:2.25;"/>
   </g>
   <g id="line2d_18">
    <path clip-path="url(#p2ba198519f)" d="M 234.600624 242.277605 
L 260.871876 242.277605 
" style="fill:none;stroke:#666666;stroke-linecap:round;stroke-width:2.25;"/>
   </g>
   <g id="line2d_19">
    <path clip-path="url(#p2ba198519f)" d="M 234.600624 134.251776 
L 260.871876 134.251776 
" style="fill:none;stroke:#666666;stroke-linecap:round;stroke-width:2.25;"/>
   </g>
   <g id="line2d_20">
    <g clip-path="url(#p2ba198519f)">
     <use style="fill:#666666;stroke:#666666;stroke-linejoin:miter;" x="247.73625" xlink:href="#madf33f6c66" y="489.487614"/>
    </g>
   </g>
   <g id="line2d_21">
    <path clip-path="url(#p2ba198519f)" d="M 301.35105 225.63272 
L 301.35105 250.001665 
" style="fill:none;stroke:#666666;stroke-linecap:round;stroke-width:2.25;"/>
   </g>
   <g id="line2d_22">
    <path clip-path="url(#p2ba198519f)" d="M 301.35105 156.326122 
L 301.35105 131.22847 
" style="fill:none;stroke:#666666;stroke-linecap:round;stroke-width:2.25;"/>
   </g>
   <g id="line2d_23">
    <path clip-path="url(#p2ba198519f)" d="M 288.215424 250.001665 
L 314.486676 250.001665 
" style="fill:none;stroke:#666666;stroke-linecap:round;stroke-width:2.25;"/>
   </g>
   <g id="line2d_24">
    <path clip-path="url(#p2ba198519f)" d="M 288.215424 131.22847 
L 314.486676 131.22847 
" style="fill:none;stroke:#666666;stroke-linecap:round;stroke-width:2.25;"/>
   </g>
   <g id="line2d_25">
    <g clip-path="url(#p2ba198519f)">
     <use style="fill:#666666;stroke:#666666;stroke-linejoin:miter;" x="301.35105" xlink:href="#madf33f6c66" y="489.487614"/>
     <use style="fill:#666666;stroke:#666666;stroke-linejoin:miter;" x="301.35105" xlink:href="#madf33f6c66" y="48.013636"/>
    </g>
   </g>
   <g id="line2d_26">
    <path clip-path="url(#p2ba198519f)" d="M 475.59915 250.118839 
L 475.59915 258.82516 
" style="fill:none;stroke:#666666;stroke-linecap:round;stroke-width:2.25;"/>
   </g>
   <g id="line2d_27">
    <path clip-path="url(#p2ba198519f)" d="M 475.59915 232.706195 
L 475.59915 223.999874 
" style="fill:none;stroke:#666666;stroke-linecap:round;stroke-width:2.25;"/>
   </g>
   <g id="line2d_28">
    <path clip-path="url(#p2ba198519f)" d="M 462.463524 258.82516 
L 488.734776 258.82516 
" style="fill:none;stroke:#666666;stroke-linecap:round;stroke-width:2.25;"/>
   </g>
   <g id="line2d_29">
    <path clip-path="url(#p2ba198519f)" d="M 462.463524 223.999874 
L 488.734776 223.999874 
" style="fill:none;stroke:#666666;stroke-linecap:round;stroke-width:2.25;"/>
   </g>
   <g id="line2d_30"/>
   <g id="line2d_31">
    <path clip-path="url(#p2ba198519f)" d="M 529.21395 242.825227 
L 529.21395 257.696072 
" style="fill:none;stroke:#666666;stroke-linecap:round;stroke-width:2.25;"/>
   </g>
   <g id="line2d_32">
    <path clip-path="url(#p2ba198519f)" d="M 529.21395 168.468385 
L 529.21395 160.668853 
" style="fill:none;stroke:#666666;stroke-linecap:round;stroke-width:2.25;"/>
   </g>
   <g id="line2d_33">
    <path clip-path="url(#p2ba198519f)" d="M 516.078324 257.696072 
L 542.349576 257.696072 
" style="fill:none;stroke:#666666;stroke-linecap:round;stroke-width:2.25;"/>
   </g>
   <g id="line2d_34">
    <path clip-path="url(#p2ba198519f)" d="M 516.078324 160.668853 
L 542.349576 160.668853 
" style="fill:none;stroke:#666666;stroke-linecap:round;stroke-width:2.25;"/>
   </g>
   <g id="line2d_35"/>
   <g id="line2d_36">
    <path clip-path="url(#p2ba198519f)" d="M 582.82875 227.497298 
L 582.82875 283.357013 
" style="fill:none;stroke:#666666;stroke-linecap:round;stroke-width:2.25;"/>
   </g>
   <g id="line2d_37">
    <path clip-path="url(#p2ba198519f)" d="M 582.82875 128.509844 
L 582.82875 93.670402 
" style="fill:none;stroke:#666666;stroke-linecap:round;stroke-width:2.25;"/>
   </g>
   <g id="line2d_38">
    <path clip-path="url(#p2ba198519f)" d="M 569.693124 283.357013 
L 595.964376 283.357013 
" style="fill:none;stroke:#666666;stroke-linecap:round;stroke-width:2.25;"/>
   </g>
   <g id="line2d_39">
    <path clip-path="url(#p2ba198519f)" d="M 569.693124 93.670402 
L 595.964376 93.670402 
" style="fill:none;stroke:#666666;stroke-linecap:round;stroke-width:2.25;"/>
   </g>
   <g id="line2d_40"/>
   <g id="line2d_41">
    <path clip-path="url(#p2ba198519f)" d="M 636.44355 250.704097 
L 636.44355 313.992134 
" style="fill:none;stroke:#666666;stroke-linecap:round;stroke-width:2.25;"/>
   </g>
   <g id="line2d_42">
    <path clip-path="url(#p2ba198519f)" d="M 636.44355 137.406572 
L 636.44355 74.545261 
" style="fill:none;stroke:#666666;stroke-linecap:round;stroke-width:2.25;"/>
   </g>
   <g id="line2d_43">
    <path clip-path="url(#p2ba198519f)" d="M 623.307924 313.992134 
L 649.579176 313.992134 
" style="fill:none;stroke:#666666;stroke-linecap:round;stroke-width:2.25;"/>
   </g>
   <g id="line2d_44">
    <path clip-path="url(#p2ba198519f)" d="M 623.307924 74.545261 
L 649.579176 74.545261 
" style="fill:none;stroke:#666666;stroke-linecap:round;stroke-width:2.25;"/>
   </g>
   <g id="line2d_45"/>
   <g id="line2d_46">
    <path clip-path="url(#p2ba198519f)" d="M 810.69165 253.374359 
L 810.69165 270.337162 
" style="fill:none;stroke:#666666;stroke-linecap:round;stroke-width:2.25;"/>
   </g>
   <g id="line2d_47">
    <path clip-path="url(#p2ba198519f)" d="M 810.69165 219.448752 
L 810.69165 202.485948 
" style="fill:none;stroke:#666666;stroke-linecap:round;stroke-width:2.25;"/>
   </g>
   <g id="line2d_48">
    <path clip-path="url(#p2ba198519f)" d="M 797.556024 270.337162 
L 823.827276 270.337162 
" style="fill:none;stroke:#666666;stroke-linecap:round;stroke-width:2.25;"/>
   </g>
   <g id="line2d_49">
    <path clip-path="url(#p2ba198519f)" d="M 797.556024 202.485948 
L 823.827276 202.485948 
" style="fill:none;stroke:#666666;stroke-linecap:round;stroke-width:2.25;"/>
   </g>
   <g id="line2d_50"/>
   <g id="line2d_51">
    <path clip-path="url(#p2ba198519f)" d="M 864.30645 313.063931 
L 864.30645 342.86327 
" style="fill:none;stroke:#666666;stroke-linecap:round;stroke-width:2.25;"/>
   </g>
   <g id="line2d_52">
    <path clip-path="url(#p2ba198519f)" d="M 864.30645 240.183613 
L 864.30645 204.951509 
" style="fill:none;stroke:#666666;stroke-linecap:round;stroke-width:2.25;"/>
   </g>
   <g id="line2d_53">
    <path clip-path="url(#p2ba198519f)" d="M 851.170824 342.86327 
L 877.442076 342.86327 
" style="fill:none;stroke:#666666;stroke-linecap:round;stroke-width:2.25;"/>
   </g>
   <g id="line2d_54">
    <path clip-path="url(#p2ba198519f)" d="M 851.170824 204.951509 
L 877.442076 204.951509 
" style="fill:none;stroke:#666666;stroke-linecap:round;stroke-width:2.25;"/>
   </g>
   <g id="line2d_55"/>
   <g id="line2d_56">
    <path clip-path="url(#p2ba198519f)" d="M 917.92125 342.915436 
L 917.92125 361.352376 
" style="fill:none;stroke:#666666;stroke-linecap:round;stroke-width:2.25;"/>
   </g>
   <g id="line2d_57">
    <path clip-path="url(#p2ba198519f)" d="M 917.92125 267.597995 
L 917.92125 184.5861 
" style="fill:none;stroke:#666666;stroke-linecap:round;stroke-width:2.25;"/>
   </g>
   <g id="line2d_58">
    <path clip-path="url(#p2ba198519f)" d="M 904.785624 361.352376 
L 931.056876 361.352376 
" style="fill:none;stroke:#666666;stroke-linecap:round;stroke-width:2.25;"/>
   </g>
   <g id="line2d_59">
    <path clip-path="url(#p2ba198519f)" d="M 904.785624 184.5861 
L 931.056876 184.5861 
" style="fill:none;stroke:#666666;stroke-linecap:round;stroke-width:2.25;"/>
   </g>
   <g id="line2d_60"/>
   <g id="line2d_61">
    <path clip-path="url(#p2ba198519f)" d="M 971.53605 344.187685 
L 971.53605 361.352376 
" style="fill:none;stroke:#666666;stroke-linecap:round;stroke-width:2.25;"/>
   </g>
   <g id="line2d_62">
    <path clip-path="url(#p2ba198519f)" d="M 971.53605 284.841185 
L 971.53605 244.32572 
" style="fill:none;stroke:#666666;stroke-linecap:round;stroke-width:2.25;"/>
   </g>
   <g id="line2d_63">
    <path clip-path="url(#p2ba198519f)" d="M 958.400424 361.352376 
L 984.671676 361.352376 
" style="fill:none;stroke:#666666;stroke-linecap:round;stroke-width:2.25;"/>
   </g>
   <g id="line2d_64">
    <path clip-path="url(#p2ba198519f)" d="M 958.400424 244.32572 
L 984.671676 244.32572 
" style="fill:none;stroke:#666666;stroke-linecap:round;stroke-width:2.25;"/>
   </g>
   <g id="line2d_65">
    <g clip-path="url(#p2ba198519f)">
     <use style="fill:#666666;stroke:#666666;stroke-linejoin:miter;" x="971.53605" xlink:href="#madf33f6c66" y="184.5861"/>
    </g>
   </g>
   <g id="line2d_66">
    <path clip-path="url(#p2ba198519f)" d="M 1145.78415 554.321817 
L 1145.78415 619.017175 
" style="fill:none;stroke:#666666;stroke-linecap:round;stroke-width:2.25;"/>
   </g>
   <g id="line2d_67">
    <path clip-path="url(#p2ba198519f)" d="M 1145.78415 424.931101 
L 1145.78415 360.235743 
" style="fill:none;stroke:#666666;stroke-linecap:round;stroke-width:2.25;"/>
   </g>
   <g id="line2d_68">
    <path clip-path="url(#p2ba198519f)" d="M 1132.648524 619.017175 
L 1158.919776 619.017175 
" style="fill:none;stroke:#666666;stroke-linecap:round;stroke-width:2.25;"/>
   </g>
   <g id="line2d_69">
    <path clip-path="url(#p2ba198519f)" d="M 1132.648524 360.235743 
L 1158.919776 360.235743 
" style="fill:none;stroke:#666666;stroke-linecap:round;stroke-width:2.25;"/>
   </g>
   <g id="line2d_70"/>
   <g id="line2d_71">
    <path clip-path="url(#p2ba198519f)" d="M 1199.39895 619.119192 
L 1199.39895 619.392583 
" style="fill:none;stroke:#666666;stroke-linecap:round;stroke-width:2.25;"/>
   </g>
   <g id="line2d_72">
    <path clip-path="url(#p2ba198519f)" d="M 1199.39895 547.084355 
L 1199.39895 547.084355 
" style="fill:none;stroke:#666666;stroke-linecap:round;stroke-width:2.25;"/>
   </g>
   <g id="line2d_73">
    <path clip-path="url(#p2ba198519f)" d="M 1186.263324 619.392583 
L 1212.534576 619.392583 
" style="fill:none;stroke:#666666;stroke-linecap:round;stroke-width:2.25;"/>
   </g>
   <g id="line2d_74">
    <path clip-path="url(#p2ba198519f)" d="M 1186.263324 547.084355 
L 1212.534576 547.084355 
" style="fill:none;stroke:#666666;stroke-linecap:round;stroke-width:2.25;"/>
   </g>
   <g id="line2d_75">
    <g clip-path="url(#p2ba198519f)">
     <use style="fill:#666666;stroke:#666666;stroke-linejoin:miter;" x="1199.39895" xlink:href="#madf33f6c66" y="359.417729"/>
    </g>
   </g>
   <g id="line2d_76">
    <path clip-path="url(#p2ba198519f)" d="M 1253.01375 618.562691 
L 1253.01375 619.486364 
" style="fill:none;stroke:#666666;stroke-linecap:round;stroke-width:2.25;"/>
   </g>
   <g id="line2d_77">
    <path clip-path="url(#p2ba198519f)" d="M 1253.01375 585.193452 
L 1253.01375 577.116332 
" style="fill:none;stroke:#666666;stroke-linecap:round;stroke-width:2.25;"/>
   </g>
   <g id="line2d_78">
    <path clip-path="url(#p2ba198519f)" d="M 1239.878124 619.486364 
L 1266.149376 619.486364 
" style="fill:none;stroke:#666666;stroke-linecap:round;stroke-width:2.25;"/>
   </g>
   <g id="line2d_79">
    <path clip-path="url(#p2ba198519f)" d="M 1239.878124 577.116332 
L 1266.149376 577.116332 
" style="fill:none;stroke:#666666;stroke-linecap:round;stroke-width:2.25;"/>
   </g>
   <g id="line2d_80">
    <g clip-path="url(#p2ba198519f)">
     <use style="fill:#666666;stroke:#666666;stroke-linejoin:miter;" x="1253.01375" xlink:href="#madf33f6c66" y="322.006501"/>
    </g>
   </g>
   <g id="line2d_81">
    <path clip-path="url(#p2ba198519f)" d="M 1306.62855 619.13891 
L 1306.62855 619.319082 
" style="fill:none;stroke:#666666;stroke-linecap:round;stroke-width:2.25;"/>
   </g>
   <g id="line2d_82">
    <path clip-path="url(#p2ba198519f)" d="M 1306.62855 598.876795 
L 1306.62855 577.116332 
" style="fill:none;stroke:#666666;stroke-linecap:round;stroke-width:2.25;"/>
   </g>
   <g id="line2d_83">
    <path clip-path="url(#p2ba198519f)" d="M 1293.492924 619.319082 
L 1319.764176 619.319082 
" style="fill:none;stroke:#666666;stroke-linecap:round;stroke-width:2.25;"/>
   </g>
   <g id="line2d_84">
    <path clip-path="url(#p2ba198519f)" d="M 1293.492924 577.116332 
L 1319.764176 577.116332 
" style="fill:none;stroke:#666666;stroke-linecap:round;stroke-width:2.25;"/>
   </g>
   <g id="line2d_85">
    <g clip-path="url(#p2ba198519f)">
     <use style="fill:#666666;stroke:#666666;stroke-linejoin:miter;" x="1306.62855" xlink:href="#madf33f6c66" y="322.006501"/>
    </g>
   </g>
   <g id="line2d_86">
    <path clip-path="url(#p2ba198519f)" d="M 114.235398 311.986697 
L 166.777902 311.986697 
" style="fill:none;stroke:#666666;stroke-linecap:round;stroke-width:2.25;"/>
   </g>
   <g id="line2d_87">
    <path clip-path="url(#p2ba198519f)" d="M 167.850198 188.30545 
L 220.392702 188.30545 
" style="fill:none;stroke:#666666;stroke-linecap:round;stroke-width:2.25;"/>
   </g>
   <g id="line2d_88">
    <path clip-path="url(#p2ba198519f)" d="M 221.464998 196.01809 
L 274.007502 196.01809 
" style="fill:none;stroke:#666666;stroke-linecap:round;stroke-width:2.25;"/>
   </g>
   <g id="line2d_89">
    <path clip-path="url(#p2ba198519f)" d="M 275.079798 180.9655 
L 327.622302 180.9655 
" style="fill:none;stroke:#666666;stroke-linecap:round;stroke-width:2.25;"/>
   </g>
   <g id="line2d_90">
    <path clip-path="url(#p2ba198519f)" d="M 449.327898 241.412517 
L 501.870402 241.412517 
" style="fill:none;stroke:#666666;stroke-linecap:round;stroke-width:2.25;"/>
   </g>
   <g id="line2d_91">
    <path clip-path="url(#p2ba198519f)" d="M 502.942698 204.468254 
L 555.485202 204.468254 
" style="fill:none;stroke:#666666;stroke-linecap:round;stroke-width:2.25;"/>
   </g>
   <g id="line2d_92">
    <path clip-path="url(#p2ba198519f)" d="M 556.557498 166.214297 
L 609.100002 166.214297 
" style="fill:none;stroke:#666666;stroke-linecap:round;stroke-width:2.25;"/>
   </g>
   <g id="line2d_93">
    <path clip-path="url(#p2ba198519f)" d="M 610.172298 179.858125 
L 662.714802 179.858125 
" style="fill:none;stroke:#666666;stroke-linecap:round;stroke-width:2.25;"/>
   </g>
   <g id="line2d_94">
    <path clip-path="url(#p2ba198519f)" d="M 784.420398 236.411555 
L 836.962902 236.411555 
" style="fill:none;stroke:#666666;stroke-linecap:round;stroke-width:2.25;"/>
   </g>
   <g id="line2d_95">
    <path clip-path="url(#p2ba198519f)" d="M 838.035198 277.529233 
L 890.577702 277.529233 
" style="fill:none;stroke:#666666;stroke-linecap:round;stroke-width:2.25;"/>
   </g>
   <g id="line2d_96">
    <path clip-path="url(#p2ba198519f)" d="M 891.649998 335.498964 
L 944.192502 335.498964 
" style="fill:none;stroke:#666666;stroke-linecap:round;stroke-width:2.25;"/>
   </g>
   <g id="line2d_97">
    <path clip-path="url(#p2ba198519f)" d="M 945.264798 328.270399 
L 997.807302 328.270399 
" style="fill:none;stroke:#666666;stroke-linecap:round;stroke-width:2.25;"/>
   </g>
   <g id="line2d_98">
    <path clip-path="url(#p2ba198519f)" d="M 1119.512898 489.626459 
L 1172.055402 489.626459 
" style="fill:none;stroke:#666666;stroke-linecap:round;stroke-width:2.25;"/>
   </g>
   <g id="line2d_99">
    <path clip-path="url(#p2ba198519f)" d="M 1173.127698 614.333979 
L 1225.670202 614.333979 
" style="fill:none;stroke:#666666;stroke-linecap:round;stroke-width:2.25;"/>
   </g>
   <g id="line2d_100">
    <path clip-path="url(#p2ba198519f)" d="M 1226.742498 612.881583 
L 1279.285002 612.881583 
" style="fill:none;stroke:#666666;stroke-linecap:round;stroke-width:2.25;"/>
   </g>
   <g id="line2d_101">
    <path clip-path="url(#p2ba198519f)" d="M 1280.357298 616.393534 
L 1332.899802 616.393534 
" style="fill:none;stroke:#666666;stroke-linecap:round;stroke-width:2.25;"/>
   </g>
   <g id="patch_24">
    <path d="M 80.19 648.06 
L 80.19 19.44 
" style="fill:none;stroke:#cccccc;stroke-linecap:square;stroke-linejoin:miter;stroke-width:1.875;"/>
   </g>
   <g id="patch_25">
    <path d="M 1420.56 648.06 
L 1420.56 19.44 
" style="fill:none;stroke:#cccccc;stroke-linecap:square;stroke-linejoin:miter;stroke-width:1.875;"/>
   </g>
   <g id="patch_26">
    <path d="M 80.19 648.06 
L 1420.56 648.06 
" style="fill:none;stroke:#cccccc;stroke-linecap:square;stroke-linejoin:miter;stroke-width:1.875;"/>
   </g>
   <g id="patch_27">
    <path d="M 80.19 19.44 
L 1420.56 19.44 
" style="fill:none;stroke:#cccccc;stroke-linecap:square;stroke-linejoin:miter;stroke-width:1.875;"/>
   </g>
   <g id="legend_1">
    <g id="patch_28">
     <path d="M 1300.079063 179.405156 
L 1409.01 179.405156 
Q 1412.31 179.405156 1412.31 176.105156 
L 1412.31 30.99 
Q 1412.31 27.69 1409.01 27.69 
L 1300.079063 27.69 
Q 1296.779063 27.69 1296.779063 30.99 
L 1296.779063 176.105156 
Q 1296.779063 179.405156 1300.079063 179.405156 
z
" style="fill:#ffffff;opacity:0.8;stroke:#cccccc;stroke-linejoin:miter;stroke-width:1.5;"/>
    </g>
    <g id="text_12">
     <!-- K-Means -->
     <g style="fill:#262626;" transform="translate(1317.129844 47.967188)scale(0.18 -0.18)">
      <defs>
       <path d="M 9.8125 72.90625 
L 19.671875 72.90625 
L 19.671875 42.09375 
L 52.390625 72.90625 
L 65.09375 72.90625 
L 28.90625 38.921875 
L 67.671875 0 
L 54.6875 0 
L 19.671875 35.109375 
L 19.671875 0 
L 9.8125 0 
z
" id="DejaVuSans-75"/>
       <path d="M 4.890625 31.390625 
L 31.203125 31.390625 
L 31.203125 23.390625 
L 4.890625 23.390625 
z
" id="DejaVuSans-45"/>
       <path d="M 9.8125 72.90625 
L 24.515625 72.90625 
L 43.109375 23.296875 
L 61.8125 72.90625 
L 76.515625 72.90625 
L 76.515625 0 
L 66.890625 0 
L 66.890625 64.015625 
L 48.09375 14.015625 
L 38.1875 14.015625 
L 19.390625 64.015625 
L 19.390625 0 
L 9.8125 0 
z
" id="DejaVuSans-77"/>
      </defs>
      <use xlink:href="#DejaVuSans-75"/>
      <use x="55.076172" xlink:href="#DejaVuSans-45"/>
      <use x="91.160156" xlink:href="#DejaVuSans-77"/>
      <use x="177.439453" xlink:href="#DejaVuSans-101"/>
      <use x="238.962891" xlink:href="#DejaVuSans-97"/>
      <use x="300.242188" xlink:href="#DejaVuSans-110"/>
      <use x="363.621094" xlink:href="#DejaVuSans-115"/>
     </g>
    </g>
    <g id="patch_29">
     <path d="M 1303.379063 72.498047 
L 1336.379063 72.498047 
L 1336.379063 60.948047 
L 1303.379063 60.948047 
z
" style="fill:#96cac1;stroke:#666666;stroke-linejoin:miter;stroke-width:1.125;"/>
    </g>
    <g id="text_13">
     <!-- K = 2 -->
     <g style="fill:#262626;" transform="translate(1349.579063 72.498047)scale(0.165 -0.165)">
      <defs>
       <path d="M 10.59375 45.40625 
L 73.1875 45.40625 
L 73.1875 37.203125 
L 10.59375 37.203125 
z
M 10.59375 25.484375 
L 73.1875 25.484375 
L 73.1875 17.1875 
L 10.59375 17.1875 
z
" id="DejaVuSans-61"/>
      </defs>
      <use xlink:href="#DejaVuSans-75"/>
      <use x="65.576172" xlink:href="#DejaVuSans-32"/>
      <use x="97.363281" xlink:href="#DejaVuSans-61"/>
      <use x="181.152344" xlink:href="#DejaVuSans-32"/>
      <use x="212.939453" xlink:href="#DejaVuSans-50"/>
     </g>
    </g>
    <g id="patch_30">
     <path d="M 1303.379063 96.716953 
L 1336.379063 96.716953 
L 1336.379063 85.166953 
L 1303.379063 85.166953 
z
" style="fill:#f6f6bc;stroke:#666666;stroke-linejoin:miter;stroke-width:1.125;"/>
    </g>
    <g id="text_14">
     <!-- K = 4 -->
     <g style="fill:#262626;" transform="translate(1349.579063 96.716953)scale(0.165 -0.165)">
      <use xlink:href="#DejaVuSans-75"/>
      <use x="65.576172" xlink:href="#DejaVuSans-32"/>
      <use x="97.363281" xlink:href="#DejaVuSans-61"/>
      <use x="181.152344" xlink:href="#DejaVuSans-32"/>
      <use x="212.939453" xlink:href="#DejaVuSans-52"/>
     </g>
    </g>
    <g id="patch_31">
     <path d="M 1303.379063 120.935859 
L 1336.379063 120.935859 
L 1336.379063 109.385859 
L 1303.379063 109.385859 
z
" style="fill:#c1bed6;stroke:#666666;stroke-linejoin:miter;stroke-width:1.125;"/>
    </g>
    <g id="text_15">
     <!-- K = 6 -->
     <g style="fill:#262626;" transform="translate(1349.579063 120.935859)scale(0.165 -0.165)">
      <defs>
       <path d="M 33.015625 40.375 
Q 26.375 40.375 22.484375 35.828125 
Q 18.609375 31.296875 18.609375 23.390625 
Q 18.609375 15.53125 22.484375 10.953125 
Q 26.375 6.390625 33.015625 6.390625 
Q 39.65625 6.390625 43.53125 10.953125 
Q 47.40625 15.53125 47.40625 23.390625 
Q 47.40625 31.296875 43.53125 35.828125 
Q 39.65625 40.375 33.015625 40.375 
z
M 52.59375 71.296875 
L 52.59375 62.3125 
Q 48.875 64.0625 45.09375 64.984375 
Q 41.3125 65.921875 37.59375 65.921875 
Q 27.828125 65.921875 22.671875 59.328125 
Q 17.53125 52.734375 16.796875 39.40625 
Q 19.671875 43.65625 24.015625 45.921875 
Q 28.375 48.1875 33.59375 48.1875 
Q 44.578125 48.1875 50.953125 41.515625 
Q 57.328125 34.859375 57.328125 23.390625 
Q 57.328125 12.15625 50.6875 5.359375 
Q 44.046875 -1.421875 33.015625 -1.421875 
Q 20.359375 -1.421875 13.671875 8.265625 
Q 6.984375 17.96875 6.984375 36.375 
Q 6.984375 53.65625 15.1875 63.9375 
Q 23.390625 74.21875 37.203125 74.21875 
Q 40.921875 74.21875 44.703125 73.484375 
Q 48.484375 72.75 52.59375 71.296875 
z
" id="DejaVuSans-54"/>
      </defs>
      <use xlink:href="#DejaVuSans-75"/>
      <use x="65.576172" xlink:href="#DejaVuSans-32"/>
      <use x="97.363281" xlink:href="#DejaVuSans-61"/>
      <use x="181.152344" xlink:href="#DejaVuSans-32"/>
      <use x="212.939453" xlink:href="#DejaVuSans-54"/>
     </g>
    </g>
    <g id="patch_32">
     <path d="M 1303.379063 145.154766 
L 1336.379063 145.154766 
L 1336.379063 133.604766 
L 1303.379063 133.604766 
z
" style="fill:#ea8e83;stroke:#666666;stroke-linejoin:miter;stroke-width:1.125;"/>
    </g>
    <g id="text_16">
     <!-- K = 8 -->
     <g style="fill:#262626;" transform="translate(1349.579063 145.154766)scale(0.165 -0.165)">
      <defs>
       <path d="M 31.78125 34.625 
Q 24.75 34.625 20.71875 30.859375 
Q 16.703125 27.09375 16.703125 20.515625 
Q 16.703125 13.921875 20.71875 10.15625 
Q 24.75 6.390625 31.78125 6.390625 
Q 38.8125 6.390625 42.859375 10.171875 
Q 46.921875 13.96875 46.921875 20.515625 
Q 46.921875 27.09375 42.890625 30.859375 
Q 38.875 34.625 31.78125 34.625 
z
M 21.921875 38.8125 
Q 15.578125 40.375 12.03125 44.71875 
Q 8.5 49.078125 8.5 55.328125 
Q 8.5 64.0625 14.71875 69.140625 
Q 20.953125 74.21875 31.78125 74.21875 
Q 42.671875 74.21875 48.875 69.140625 
Q 55.078125 64.0625 55.078125 55.328125 
Q 55.078125 49.078125 51.53125 44.71875 
Q 48 40.375 41.703125 38.8125 
Q 48.828125 37.15625 52.796875 32.3125 
Q 56.78125 27.484375 56.78125 20.515625 
Q 56.78125 9.90625 50.3125 4.234375 
Q 43.84375 -1.421875 31.78125 -1.421875 
Q 19.734375 -1.421875 13.25 4.234375 
Q 6.78125 9.90625 6.78125 20.515625 
Q 6.78125 27.484375 10.78125 32.3125 
Q 14.796875 37.15625 21.921875 38.8125 
z
M 18.3125 54.390625 
Q 18.3125 48.734375 21.84375 45.5625 
Q 25.390625 42.390625 31.78125 42.390625 
Q 38.140625 42.390625 41.71875 45.5625 
Q 45.3125 48.734375 45.3125 54.390625 
Q 45.3125 60.0625 41.71875 63.234375 
Q 38.140625 66.40625 31.78125 66.40625 
Q 25.390625 66.40625 21.84375 63.234375 
Q 18.3125 60.0625 18.3125 54.390625 
z
" id="DejaVuSans-56"/>
      </defs>
      <use xlink:href="#DejaVuSans-75"/>
      <use x="65.576172" xlink:href="#DejaVuSans-32"/>
      <use x="97.363281" xlink:href="#DejaVuSans-61"/>
      <use x="181.152344" xlink:href="#DejaVuSans-32"/>
      <use x="212.939453" xlink:href="#DejaVuSans-56"/>
     </g>
    </g>
    <g id="patch_33">
     <path d="M 1303.379063 169.373672 
L 1336.379063 169.373672 
L 1336.379063 157.823672 
L 1303.379063 157.823672 
z
" style="fill:#8aafc9;stroke:#666666;stroke-linejoin:miter;stroke-width:1.125;"/>
    </g>
    <g id="text_17">
     <!-- K = 10 -->
     <g style="fill:#262626;" transform="translate(1349.579063 169.373672)scale(0.165 -0.165)">
      <use xlink:href="#DejaVuSans-75"/>
      <use x="65.576172" xlink:href="#DejaVuSans-32"/>
      <use x="97.363281" xlink:href="#DejaVuSans-61"/>
      <use x="181.152344" xlink:href="#DejaVuSans-32"/>
      <use x="212.939453" xlink:href="#DejaVuSans-49"/>
      <use x="276.5625" xlink:href="#DejaVuSans-48"/>
     </g>
    </g>
   </g>
  </g>
 </g>
 <defs>
  <clipPath id="p2ba198519f">
   <rect height="628.62" width="1340.37" x="80.19" y="19.44"/>
  </clipPath>
 </defs>
</svg>
