<?xml version="1.0" encoding="utf-8" standalone="no"?>
<!DOCTYPE svg PUBLIC "-//W3C//DTD SVG 1.1//EN"
  "http://www.w3.org/Graphics/SVG/1.1/DTD/svg11.dtd">
<svg height="720pt" version="1.1" viewBox="0 0 1440 720" width="1440pt" xmlns="http://www.w3.org/2000/svg" xmlns:xlink="http://www.w3.org/1999/xlink">
 <metadata>
  <rdf:RDF xmlns:cc="http://creativecommons.org/ns#" xmlns:dc="http://purl.org/dc/elements/1.1/" xmlns:rdf="http://www.w3.org/1999/02/22-rdf-syntax-ns#">
   <cc:Work>
    <dc:type rdf:resource="http://purl.org/dc/dcmitype/StillImage"/>
    <dc:date>2022-01-25T14:43:02.337110</dc:date>
    <dc:format>image/svg+xml</dc:format>
    <dc:creator>
     <cc:Agent>
      <dc:title>Matplotlib v3.4.3, https://matplotlib.org/</dc:title>
     </cc:Agent>
    </dc:creator>
   </cc:Work>
  </rdf:RDF>
 </metadata>
 <defs>
  <style type="text/css">*{stroke-linecap:butt;stroke-linejoin:round;}</style>
 </defs>
 <g id="figure_1">
  <g id="patch_1">
   <path d="M 0 720 
L 1440 720 
L 1440 0 
L 0 0 
z
" style="fill:#ffffff;"/>
  </g>
  <g id="axes_1">
   <g id="patch_2">
    <path d="M 56.835 670.54 
L 1427.04 670.54 
L 1427.04 12.96 
L 56.835 12.96 
z
" style="fill:#eaeaf2;"/>
   </g>
   <g id="matplotlib.axis_1">
    <g id="xtick_1">
     <g id="text_1">
      <!-- 0.0 -->
      <g style="fill:#262626;" transform="translate(219.363906 688.398281)scale(0.11 -0.11)">
       <defs>
        <path d="M 2034 4250 
Q 1547 4250 1301 3770 
Q 1056 3291 1056 2328 
Q 1056 1369 1301 889 
Q 1547 409 2034 409 
Q 2525 409 2770 889 
Q 3016 1369 3016 2328 
Q 3016 3291 2770 3770 
Q 2525 4250 2034 4250 
z
M 2034 4750 
Q 2819 4750 3233 4129 
Q 3647 3509 3647 2328 
Q 3647 1150 3233 529 
Q 2819 -91 2034 -91 
Q 1250 -91 836 529 
Q 422 1150 422 2328 
Q 422 3509 836 4129 
Q 1250 4750 2034 4750 
z
" id="DejaVuSans-30" transform="scale(0.015625)"/>
        <path d="M 684 794 
L 1344 794 
L 1344 0 
L 684 0 
L 684 794 
z
" id="DejaVuSans-2e" transform="scale(0.015625)"/>
       </defs>
       <use xlink:href="#DejaVuSans-30"/>
       <use x="63.623047" xlink:href="#DejaVuSans-2e"/>
       <use x="95.410156" xlink:href="#DejaVuSans-30"/>
      </g>
     </g>
    </g>
    <g id="xtick_2">
     <g id="text_2">
      <!-- 1.0 -->
      <g style="fill:#262626;" transform="translate(561.915156 688.398281)scale(0.11 -0.11)">
       <defs>
        <path d="M 794 531 
L 1825 531 
L 1825 4091 
L 703 3866 
L 703 4441 
L 1819 4666 
L 2450 4666 
L 2450 531 
L 3481 531 
L 3481 0 
L 794 0 
L 794 531 
z
" id="DejaVuSans-31" transform="scale(0.015625)"/>
       </defs>
       <use xlink:href="#DejaVuSans-31"/>
       <use x="63.623047" xlink:href="#DejaVuSans-2e"/>
       <use x="95.410156" xlink:href="#DejaVuSans-30"/>
      </g>
     </g>
    </g>
    <g id="xtick_3">
     <g id="text_3">
      <!-- 2.0 -->
      <g style="fill:#262626;" transform="translate(904.466406 688.398281)scale(0.11 -0.11)">
       <defs>
        <path d="M 1228 531 
L 3431 531 
L 3431 0 
L 469 0 
L 469 531 
Q 828 903 1448 1529 
Q 2069 2156 2228 2338 
Q 2531 2678 2651 2914 
Q 2772 3150 2772 3378 
Q 2772 3750 2511 3984 
Q 2250 4219 1831 4219 
Q 1534 4219 1204 4116 
Q 875 4013 500 3803 
L 500 4441 
Q 881 4594 1212 4672 
Q 1544 4750 1819 4750 
Q 2544 4750 2975 4387 
Q 3406 4025 3406 3419 
Q 3406 3131 3298 2873 
Q 3191 2616 2906 2266 
Q 2828 2175 2409 1742 
Q 1991 1309 1228 531 
z
" id="DejaVuSans-32" transform="scale(0.015625)"/>
       </defs>
       <use xlink:href="#DejaVuSans-32"/>
       <use x="63.623047" xlink:href="#DejaVuSans-2e"/>
       <use x="95.410156" xlink:href="#DejaVuSans-30"/>
      </g>
     </g>
    </g>
    <g id="xtick_4">
     <g id="text_4">
      <!-- 3.0 -->
      <g style="fill:#262626;" transform="translate(1247.017656 688.398281)scale(0.11 -0.11)">
       <defs>
        <path d="M 2597 2516 
Q 3050 2419 3304 2112 
Q 3559 1806 3559 1356 
Q 3559 666 3084 287 
Q 2609 -91 1734 -91 
Q 1441 -91 1130 -33 
Q 819 25 488 141 
L 488 750 
Q 750 597 1062 519 
Q 1375 441 1716 441 
Q 2309 441 2620 675 
Q 2931 909 2931 1356 
Q 2931 1769 2642 2001 
Q 2353 2234 1838 2234 
L 1294 2234 
L 1294 2753 
L 1863 2753 
Q 2328 2753 2575 2939 
Q 2822 3125 2822 3475 
Q 2822 3834 2567 4026 
Q 2313 4219 1838 4219 
Q 1578 4219 1281 4162 
Q 984 4106 628 3988 
L 628 4550 
Q 988 4650 1302 4700 
Q 1616 4750 1894 4750 
Q 2613 4750 3031 4423 
Q 3450 4097 3450 3541 
Q 3450 3153 3228 2886 
Q 3006 2619 2597 2516 
z
" id="DejaVuSans-33" transform="scale(0.015625)"/>
       </defs>
       <use xlink:href="#DejaVuSans-33"/>
       <use x="63.623047" xlink:href="#DejaVuSans-2e"/>
       <use x="95.410156" xlink:href="#DejaVuSans-30"/>
      </g>
     </g>
    </g>
    <g id="text_5">
     <!-- scheduling class -->
     <g style="fill:#262626;" transform="translate(692.660625 703.804062)scale(0.12 -0.12)">
      <defs>
       <path d="M 2834 3397 
L 2834 2853 
Q 2591 2978 2328 3040 
Q 2066 3103 1784 3103 
Q 1356 3103 1142 2972 
Q 928 2841 928 2578 
Q 928 2378 1081 2264 
Q 1234 2150 1697 2047 
L 1894 2003 
Q 2506 1872 2764 1633 
Q 3022 1394 3022 966 
Q 3022 478 2636 193 
Q 2250 -91 1575 -91 
Q 1294 -91 989 -36 
Q 684 19 347 128 
L 347 722 
Q 666 556 975 473 
Q 1284 391 1588 391 
Q 1994 391 2212 530 
Q 2431 669 2431 922 
Q 2431 1156 2273 1281 
Q 2116 1406 1581 1522 
L 1381 1569 
Q 847 1681 609 1914 
Q 372 2147 372 2553 
Q 372 3047 722 3315 
Q 1072 3584 1716 3584 
Q 2034 3584 2315 3537 
Q 2597 3491 2834 3397 
z
" id="DejaVuSans-73" transform="scale(0.015625)"/>
       <path d="M 3122 3366 
L 3122 2828 
Q 2878 2963 2633 3030 
Q 2388 3097 2138 3097 
Q 1578 3097 1268 2742 
Q 959 2388 959 1747 
Q 959 1106 1268 751 
Q 1578 397 2138 397 
Q 2388 397 2633 464 
Q 2878 531 3122 666 
L 3122 134 
Q 2881 22 2623 -34 
Q 2366 -91 2075 -91 
Q 1284 -91 818 406 
Q 353 903 353 1747 
Q 353 2603 823 3093 
Q 1294 3584 2113 3584 
Q 2378 3584 2631 3529 
Q 2884 3475 3122 3366 
z
" id="DejaVuSans-63" transform="scale(0.015625)"/>
       <path d="M 3513 2113 
L 3513 0 
L 2938 0 
L 2938 2094 
Q 2938 2591 2744 2837 
Q 2550 3084 2163 3084 
Q 1697 3084 1428 2787 
Q 1159 2491 1159 1978 
L 1159 0 
L 581 0 
L 581 4863 
L 1159 4863 
L 1159 2956 
Q 1366 3272 1645 3428 
Q 1925 3584 2291 3584 
Q 2894 3584 3203 3211 
Q 3513 2838 3513 2113 
z
" id="DejaVuSans-68" transform="scale(0.015625)"/>
       <path d="M 3597 1894 
L 3597 1613 
L 953 1613 
Q 991 1019 1311 708 
Q 1631 397 2203 397 
Q 2534 397 2845 478 
Q 3156 559 3463 722 
L 3463 178 
Q 3153 47 2828 -22 
Q 2503 -91 2169 -91 
Q 1331 -91 842 396 
Q 353 884 353 1716 
Q 353 2575 817 3079 
Q 1281 3584 2069 3584 
Q 2775 3584 3186 3129 
Q 3597 2675 3597 1894 
z
M 3022 2063 
Q 3016 2534 2758 2815 
Q 2500 3097 2075 3097 
Q 1594 3097 1305 2825 
Q 1016 2553 972 2059 
L 3022 2063 
z
" id="DejaVuSans-65" transform="scale(0.015625)"/>
       <path d="M 2906 2969 
L 2906 4863 
L 3481 4863 
L 3481 0 
L 2906 0 
L 2906 525 
Q 2725 213 2448 61 
Q 2172 -91 1784 -91 
Q 1150 -91 751 415 
Q 353 922 353 1747 
Q 353 2572 751 3078 
Q 1150 3584 1784 3584 
Q 2172 3584 2448 3432 
Q 2725 3281 2906 2969 
z
M 947 1747 
Q 947 1113 1208 752 
Q 1469 391 1925 391 
Q 2381 391 2643 752 
Q 2906 1113 2906 1747 
Q 2906 2381 2643 2742 
Q 2381 3103 1925 3103 
Q 1469 3103 1208 2742 
Q 947 2381 947 1747 
z
" id="DejaVuSans-64" transform="scale(0.015625)"/>
       <path d="M 544 1381 
L 544 3500 
L 1119 3500 
L 1119 1403 
Q 1119 906 1312 657 
Q 1506 409 1894 409 
Q 2359 409 2629 706 
Q 2900 1003 2900 1516 
L 2900 3500 
L 3475 3500 
L 3475 0 
L 2900 0 
L 2900 538 
Q 2691 219 2414 64 
Q 2138 -91 1772 -91 
Q 1169 -91 856 284 
Q 544 659 544 1381 
z
M 1991 3584 
L 1991 3584 
z
" id="DejaVuSans-75" transform="scale(0.015625)"/>
       <path d="M 603 4863 
L 1178 4863 
L 1178 0 
L 603 0 
L 603 4863 
z
" id="DejaVuSans-6c" transform="scale(0.015625)"/>
       <path d="M 603 3500 
L 1178 3500 
L 1178 0 
L 603 0 
L 603 3500 
z
M 603 4863 
L 1178 4863 
L 1178 4134 
L 603 4134 
L 603 4863 
z
" id="DejaVuSans-69" transform="scale(0.015625)"/>
       <path d="M 3513 2113 
L 3513 0 
L 2938 0 
L 2938 2094 
Q 2938 2591 2744 2837 
Q 2550 3084 2163 3084 
Q 1697 3084 1428 2787 
Q 1159 2491 1159 1978 
L 1159 0 
L 581 0 
L 581 3500 
L 1159 3500 
L 1159 2956 
Q 1366 3272 1645 3428 
Q 1925 3584 2291 3584 
Q 2894 3584 3203 3211 
Q 3513 2838 3513 2113 
z
" id="DejaVuSans-6e" transform="scale(0.015625)"/>
       <path d="M 2906 1791 
Q 2906 2416 2648 2759 
Q 2391 3103 1925 3103 
Q 1463 3103 1205 2759 
Q 947 2416 947 1791 
Q 947 1169 1205 825 
Q 1463 481 1925 481 
Q 2391 481 2648 825 
Q 2906 1169 2906 1791 
z
M 3481 434 
Q 3481 -459 3084 -895 
Q 2688 -1331 1869 -1331 
Q 1566 -1331 1297 -1286 
Q 1028 -1241 775 -1147 
L 775 -588 
Q 1028 -725 1275 -790 
Q 1522 -856 1778 -856 
Q 2344 -856 2625 -561 
Q 2906 -266 2906 331 
L 2906 616 
Q 2728 306 2450 153 
Q 2172 0 1784 0 
Q 1141 0 747 490 
Q 353 981 353 1791 
Q 353 2603 747 3093 
Q 1141 3584 1784 3584 
Q 2172 3584 2450 3431 
Q 2728 3278 2906 2969 
L 2906 3500 
L 3481 3500 
L 3481 434 
z
" id="DejaVuSans-67" transform="scale(0.015625)"/>
       <path id="DejaVuSans-20" transform="scale(0.015625)"/>
       <path d="M 2194 1759 
Q 1497 1759 1228 1600 
Q 959 1441 959 1056 
Q 959 750 1161 570 
Q 1363 391 1709 391 
Q 2188 391 2477 730 
Q 2766 1069 2766 1631 
L 2766 1759 
L 2194 1759 
z
M 3341 1997 
L 3341 0 
L 2766 0 
L 2766 531 
Q 2569 213 2275 61 
Q 1981 -91 1556 -91 
Q 1019 -91 701 211 
Q 384 513 384 1019 
Q 384 1609 779 1909 
Q 1175 2209 1959 2209 
L 2766 2209 
L 2766 2266 
Q 2766 2663 2505 2880 
Q 2244 3097 1772 3097 
Q 1472 3097 1187 3025 
Q 903 2953 641 2809 
L 641 3341 
Q 956 3463 1253 3523 
Q 1550 3584 1831 3584 
Q 2591 3584 2966 3190 
Q 3341 2797 3341 1997 
z
" id="DejaVuSans-61" transform="scale(0.015625)"/>
      </defs>
      <use xlink:href="#DejaVuSans-73"/>
      <use x="52.099609" xlink:href="#DejaVuSans-63"/>
      <use x="107.080078" xlink:href="#DejaVuSans-68"/>
      <use x="170.458984" xlink:href="#DejaVuSans-65"/>
      <use x="231.982422" xlink:href="#DejaVuSans-64"/>
      <use x="295.458984" xlink:href="#DejaVuSans-75"/>
      <use x="358.837891" xlink:href="#DejaVuSans-6c"/>
      <use x="386.621094" xlink:href="#DejaVuSans-69"/>
      <use x="414.404297" xlink:href="#DejaVuSans-6e"/>
      <use x="477.783203" xlink:href="#DejaVuSans-67"/>
      <use x="541.259766" xlink:href="#DejaVuSans-20"/>
      <use x="573.046875" xlink:href="#DejaVuSans-63"/>
      <use x="628.027344" xlink:href="#DejaVuSans-6c"/>
      <use x="655.810547" xlink:href="#DejaVuSans-61"/>
      <use x="717.089844" xlink:href="#DejaVuSans-73"/>
      <use x="769.189453" xlink:href="#DejaVuSans-73"/>
     </g>
    </g>
   </g>
   <g id="matplotlib.axis_2">
    <g id="ytick_1">
     <g id="line2d_1">
      <path clip-path="url(#p93379c720c)" d="M 56.835 647.704668 
L 1427.04 647.704668 
" style="fill:none;stroke:#ffffff;stroke-linecap:round;"/>
     </g>
     <g id="text_6">
      <!-- 0.0 -->
      <g style="fill:#262626;" transform="translate(29.841563 651.883809)scale(0.11 -0.11)">
       <use xlink:href="#DejaVuSans-30"/>
       <use x="63.623047" xlink:href="#DejaVuSans-2e"/>
       <use x="95.410156" xlink:href="#DejaVuSans-30"/>
      </g>
     </g>
    </g>
    <g id="ytick_2">
     <g id="line2d_2">
      <path clip-path="url(#p93379c720c)" d="M 56.835 503.976826 
L 1427.04 503.976826 
" style="fill:none;stroke:#ffffff;stroke-linecap:round;"/>
     </g>
     <g id="text_7">
      <!-- 0.1 -->
      <g style="fill:#262626;" transform="translate(29.841563 508.155967)scale(0.11 -0.11)">
       <use xlink:href="#DejaVuSans-30"/>
       <use x="63.623047" xlink:href="#DejaVuSans-2e"/>
       <use x="95.410156" xlink:href="#DejaVuSans-31"/>
      </g>
     </g>
    </g>
    <g id="ytick_3">
     <g id="line2d_3">
      <path clip-path="url(#p93379c720c)" d="M 56.835 360.248984 
L 1427.04 360.248984 
" style="fill:none;stroke:#ffffff;stroke-linecap:round;"/>
     </g>
     <g id="text_8">
      <!-- 0.2 -->
      <g style="fill:#262626;" transform="translate(29.841563 364.428125)scale(0.11 -0.11)">
       <use xlink:href="#DejaVuSans-30"/>
       <use x="63.623047" xlink:href="#DejaVuSans-2e"/>
       <use x="95.410156" xlink:href="#DejaVuSans-32"/>
      </g>
     </g>
    </g>
    <g id="ytick_4">
     <g id="line2d_4">
      <path clip-path="url(#p93379c720c)" d="M 56.835 216.521142 
L 1427.04 216.521142 
" style="fill:none;stroke:#ffffff;stroke-linecap:round;"/>
     </g>
     <g id="text_9">
      <!-- 0.3 -->
      <g style="fill:#262626;" transform="translate(29.841563 220.700283)scale(0.11 -0.11)">
       <use xlink:href="#DejaVuSans-30"/>
       <use x="63.623047" xlink:href="#DejaVuSans-2e"/>
       <use x="95.410156" xlink:href="#DejaVuSans-33"/>
      </g>
     </g>
    </g>
    <g id="ytick_5">
     <g id="line2d_5">
      <path clip-path="url(#p93379c720c)" d="M 56.835 72.7933 
L 1427.04 72.7933 
" style="fill:none;stroke:#ffffff;stroke-linecap:round;"/>
     </g>
     <g id="text_10">
      <!-- 0.4 -->
      <g style="fill:#262626;" transform="translate(29.841563 76.972441)scale(0.11 -0.11)">
       <defs>
        <path d="M 2419 4116 
L 825 1625 
L 2419 1625 
L 2419 4116 
z
M 2253 4666 
L 3047 4666 
L 3047 1625 
L 3713 1625 
L 3713 1100 
L 3047 1100 
L 3047 0 
L 2419 0 
L 2419 1100 
L 313 1100 
L 313 1709 
L 2253 4666 
z
" id="DejaVuSans-34" transform="scale(0.015625)"/>
       </defs>
       <use xlink:href="#DejaVuSans-30"/>
       <use x="63.623047" xlink:href="#DejaVuSans-2e"/>
       <use x="95.410156" xlink:href="#DejaVuSans-34"/>
      </g>
     </g>
    </g>
    <g id="text_11">
     <!-- proportion -->
     <g style="fill:#262626;" transform="translate(23.345938 373.001562)rotate(-90)scale(0.12 -0.12)">
      <defs>
       <path d="M 1159 525 
L 1159 -1331 
L 581 -1331 
L 581 3500 
L 1159 3500 
L 1159 2969 
Q 1341 3281 1617 3432 
Q 1894 3584 2278 3584 
Q 2916 3584 3314 3078 
Q 3713 2572 3713 1747 
Q 3713 922 3314 415 
Q 2916 -91 2278 -91 
Q 1894 -91 1617 61 
Q 1341 213 1159 525 
z
M 3116 1747 
Q 3116 2381 2855 2742 
Q 2594 3103 2138 3103 
Q 1681 3103 1420 2742 
Q 1159 2381 1159 1747 
Q 1159 1113 1420 752 
Q 1681 391 2138 391 
Q 2594 391 2855 752 
Q 3116 1113 3116 1747 
z
" id="DejaVuSans-70" transform="scale(0.015625)"/>
       <path d="M 2631 2963 
Q 2534 3019 2420 3045 
Q 2306 3072 2169 3072 
Q 1681 3072 1420 2755 
Q 1159 2438 1159 1844 
L 1159 0 
L 581 0 
L 581 3500 
L 1159 3500 
L 1159 2956 
Q 1341 3275 1631 3429 
Q 1922 3584 2338 3584 
Q 2397 3584 2469 3576 
Q 2541 3569 2628 3553 
L 2631 2963 
z
" id="DejaVuSans-72" transform="scale(0.015625)"/>
       <path d="M 1959 3097 
Q 1497 3097 1228 2736 
Q 959 2375 959 1747 
Q 959 1119 1226 758 
Q 1494 397 1959 397 
Q 2419 397 2687 759 
Q 2956 1122 2956 1747 
Q 2956 2369 2687 2733 
Q 2419 3097 1959 3097 
z
M 1959 3584 
Q 2709 3584 3137 3096 
Q 3566 2609 3566 1747 
Q 3566 888 3137 398 
Q 2709 -91 1959 -91 
Q 1206 -91 779 398 
Q 353 888 353 1747 
Q 353 2609 779 3096 
Q 1206 3584 1959 3584 
z
" id="DejaVuSans-6f" transform="scale(0.015625)"/>
       <path d="M 1172 4494 
L 1172 3500 
L 2356 3500 
L 2356 3053 
L 1172 3053 
L 1172 1153 
Q 1172 725 1289 603 
Q 1406 481 1766 481 
L 2356 481 
L 2356 0 
L 1766 0 
Q 1100 0 847 248 
Q 594 497 594 1153 
L 594 3053 
L 172 3053 
L 172 3500 
L 594 3500 
L 594 4494 
L 1172 4494 
z
" id="DejaVuSans-74" transform="scale(0.015625)"/>
      </defs>
      <use xlink:href="#DejaVuSans-70"/>
      <use x="63.476562" xlink:href="#DejaVuSans-72"/>
      <use x="102.339844" xlink:href="#DejaVuSans-6f"/>
      <use x="163.521484" xlink:href="#DejaVuSans-70"/>
      <use x="226.998047" xlink:href="#DejaVuSans-6f"/>
      <use x="288.179688" xlink:href="#DejaVuSans-72"/>
      <use x="329.292969" xlink:href="#DejaVuSans-74"/>
      <use x="368.501953" xlink:href="#DejaVuSans-69"/>
      <use x="396.285156" xlink:href="#DejaVuSans-6f"/>
      <use x="457.466797" xlink:href="#DejaVuSans-6e"/>
     </g>
    </g>
   </g>
   <g id="patch_3">
    <path clip-path="url(#p93379c720c)" d="M 91.638207 363.684628 
L 145.350243 363.684628 
L 145.350243 193.277769 
L 91.638207 193.277769 
L 91.638207 363.684628 
z
" style="fill:#96cac1;stroke:#666666;stroke-linejoin:miter;stroke-width:1.5;"/>
   </g>
   <g id="patch_4">
    <path clip-path="url(#p93379c720c)" d="M 146.446407 218.166908 
L 200.158443 218.166908 
L 200.158443 105.344489 
L 146.446407 105.344489 
L 146.446407 218.166908 
z
" style="fill:#f6f6bc;stroke:#666666;stroke-linejoin:miter;stroke-width:1.5;"/>
   </g>
   <g id="patch_5">
    <path clip-path="url(#p93379c720c)" d="M 201.254607 142.004884 
L 254.966643 142.004884 
L 254.966643 109.208423 
L 201.254607 109.208423 
L 201.254607 142.004884 
z
" style="fill:#c1bed6;stroke:#666666;stroke-linejoin:miter;stroke-width:1.5;"/>
   </g>
   <g id="patch_6">
    <path clip-path="url(#p93379c720c)" d="M 256.062807 174.915714 
L 309.774843 174.915714 
L 309.774843 104.128718 
L 256.062807 104.128718 
L 256.062807 174.915714 
z
" style="fill:#ea8e83;stroke:#666666;stroke-linejoin:miter;stroke-width:1.5;"/>
   </g>
   <g id="patch_7">
    <path clip-path="url(#p93379c720c)" d="M 434.189457 216.119347 
L 487.901493 216.119347 
L 487.901493 189.635278 
L 434.189457 189.635278 
L 434.189457 216.119347 
z
" style="fill:#96cac1;stroke:#666666;stroke-linejoin:miter;stroke-width:1.5;"/>
   </g>
   <g id="patch_8">
    <path clip-path="url(#p93379c720c)" d="M 488.997657 200.826191 
L 542.709693 200.826191 
L 542.709693 102.737892 
L 488.997657 102.737892 
L 488.997657 200.826191 
z
" style="fill:#f6f6bc;stroke:#666666;stroke-linejoin:miter;stroke-width:1.5;"/>
   </g>
   <g id="patch_9">
    <path clip-path="url(#p93379c720c)" d="M 543.805857 181.115892 
L 597.517893 181.115892 
L 597.517893 71.210676 
L 543.805857 71.210676 
L 543.805857 181.115892 
z
" style="fill:#c1bed6;stroke:#666666;stroke-linejoin:miter;stroke-width:1.5;"/>
   </g>
   <g id="patch_10">
    <path clip-path="url(#p93379c720c)" d="M 598.614057 154.277298 
L 652.326093 154.277298 
L 652.326093 64.481185 
L 598.614057 64.481185 
L 598.614057 154.277298 
z
" style="fill:#ea8e83;stroke:#666666;stroke-linejoin:miter;stroke-width:1.5;"/>
   </g>
   <g id="patch_11">
    <path clip-path="url(#p93379c720c)" d="M 776.740707 213.624623 
L 830.452743 213.624623 
L 830.452743 179.934326 
L 776.740707 179.934326 
L 776.740707 213.624623 
z
" style="fill:#96cac1;stroke:#666666;stroke-linejoin:miter;stroke-width:1.5;"/>
   </g>
   <g id="patch_12">
    <path clip-path="url(#p93379c720c)" d="M 831.548907 317.212384 
L 885.260943 317.212384 
L 885.260943 198.886215 
L 831.548907 198.886215 
L 831.548907 317.212384 
z
" style="fill:#f6f6bc;stroke:#666666;stroke-linejoin:miter;stroke-width:1.5;"/>
   </g>
   <g id="patch_13">
    <path clip-path="url(#p93379c720c)" d="M 886.357107 326.894539 
L 940.069143 326.894539 
L 940.069143 226.820102 
L 886.357107 226.820102 
L 886.357107 326.894539 
z
" style="fill:#c1bed6;stroke:#666666;stroke-linejoin:miter;stroke-width:1.5;"/>
   </g>
   <g id="patch_14">
    <path clip-path="url(#p93379c720c)" d="M 941.165307 338.745122 
L 994.877343 338.745122 
L 994.877343 273.883133 
L 941.165307 273.883133 
L 941.165307 338.745122 
z
" style="fill:#ea8e83;stroke:#666666;stroke-linejoin:miter;stroke-width:1.5;"/>
   </g>
   <g id="patch_15">
    <path clip-path="url(#p93379c720c)" d="M 1119.291957 557.002583 
L 1173.003993 557.002583 
L 1173.003993 393.801952 
L 1119.291957 393.801952 
L 1119.291957 557.002583 
z
" style="fill:#96cac1;stroke:#666666;stroke-linejoin:miter;stroke-width:1.5;"/>
   </g>
   <g id="patch_16">
    <path clip-path="url(#p93379c720c)" d="M 1174.100157 637.822948 
L 1227.812193 637.822948 
L 1227.812193 552.56647 
L 1174.100157 552.56647 
L 1174.100157 637.822948 
z
" style="fill:#f6f6bc;stroke:#666666;stroke-linejoin:miter;stroke-width:1.5;"/>
   </g>
   <g id="patch_17">
    <path clip-path="url(#p93379c720c)" d="M 1228.908357 638.115932 
L 1282.620393 638.115932 
L 1282.620393 624.204123 
L 1228.908357 624.204123 
L 1228.908357 638.115932 
z
" style="fill:#c1bed6;stroke:#666666;stroke-linejoin:miter;stroke-width:1.5;"/>
   </g>
   <g id="patch_18">
    <path clip-path="url(#p93379c720c)" d="M 1283.716557 639.174624 
L 1337.428593 639.174624 
L 1337.428593 605.669432 
L 1283.716557 605.669432 
L 1283.716557 639.174624 
z
" style="fill:#ea8e83;stroke:#666666;stroke-linejoin:miter;stroke-width:1.5;"/>
   </g>
   <g id="patch_19">
    <path clip-path="url(#p93379c720c)" d="M 228.110625 647.704668 
L 228.110625 647.704668 
L 228.110625 647.704668 
L 228.110625 647.704668 
z
" style="fill:#96cac1;stroke:#666666;stroke-linejoin:miter;stroke-width:0.75;"/>
   </g>
   <g id="patch_20">
    <path clip-path="url(#p93379c720c)" d="M 228.110625 647.704668 
L 228.110625 647.704668 
L 228.110625 647.704668 
L 228.110625 647.704668 
z
" style="fill:#f6f6bc;stroke:#666666;stroke-linejoin:miter;stroke-width:0.75;"/>
   </g>
   <g id="patch_21">
    <path clip-path="url(#p93379c720c)" d="M 228.110625 647.704668 
L 228.110625 647.704668 
L 228.110625 647.704668 
L 228.110625 647.704668 
z
" style="fill:#c1bed6;stroke:#666666;stroke-linejoin:miter;stroke-width:0.75;"/>
   </g>
   <g id="patch_22">
    <path clip-path="url(#p93379c720c)" d="M 228.110625 647.704668 
L 228.110625 647.704668 
L 228.110625 647.704668 
L 228.110625 647.704668 
z
" style="fill:#ea8e83;stroke:#666666;stroke-linejoin:miter;stroke-width:0.75;"/>
   </g>
   <g id="patch_23">
    <path clip-path="url(#p93379c720c)" d="M 228.110625 647.704668 
L 228.110625 647.704668 
L 228.110625 647.704668 
L 228.110625 647.704668 
z
" style="fill:#8aafc9;stroke:#666666;stroke-linejoin:miter;stroke-width:0.75;"/>
   </g>
   <g id="line2d_6">
    <path clip-path="url(#p93379c720c)" d="M 118.494225 363.684628 
L 118.494225 448.888057 
" style="fill:none;stroke:#666666;stroke-linecap:round;stroke-width:1.5;"/>
   </g>
   <g id="line2d_7">
    <path clip-path="url(#p93379c720c)" d="M 118.494225 193.277769 
L 118.494225 108.07434 
" style="fill:none;stroke:#666666;stroke-linecap:round;stroke-width:1.5;"/>
   </g>
   <g id="line2d_8">
    <path clip-path="url(#p93379c720c)" d="M 105.066216 448.888057 
L 131.922234 448.888057 
" style="fill:none;stroke:#666666;stroke-linecap:round;stroke-width:1.5;"/>
   </g>
   <g id="line2d_9">
    <path clip-path="url(#p93379c720c)" d="M 105.066216 108.07434 
L 131.922234 108.07434 
" style="fill:none;stroke:#666666;stroke-linecap:round;stroke-width:1.5;"/>
   </g>
   <g id="line2d_10"/>
   <g id="line2d_11">
    <path clip-path="url(#p93379c720c)" d="M 173.302425 218.166908 
L 173.302425 218.166908 
" style="fill:none;stroke:#666666;stroke-linecap:round;stroke-width:1.5;"/>
   </g>
   <g id="line2d_12">
    <path clip-path="url(#p93379c720c)" d="M 173.302425 105.344489 
L 173.302425 82.525533 
" style="fill:none;stroke:#666666;stroke-linecap:round;stroke-width:1.5;"/>
   </g>
   <g id="line2d_13">
    <path clip-path="url(#p93379c720c)" d="M 159.874416 218.166908 
L 186.730434 218.166908 
" style="fill:none;stroke:#666666;stroke-linecap:round;stroke-width:1.5;"/>
   </g>
   <g id="line2d_14">
    <path clip-path="url(#p93379c720c)" d="M 159.874416 82.525533 
L 186.730434 82.525533 
" style="fill:none;stroke:#666666;stroke-linecap:round;stroke-width:1.5;"/>
   </g>
   <g id="line2d_15">
    <defs>
     <path d="M -0 3.535534 
L 2.12132 0 
L -0 -3.535534 
L -2.12132 -0 
z
" id="ma47a372f51" style="stroke:#666666;stroke-linejoin:miter;"/>
    </defs>
    <g clip-path="url(#p93379c720c)">
     <use style="fill:#666666;stroke:#666666;stroke-linejoin:miter;" x="173.302425" xlink:href="#ma47a372f51" y="448.313442"/>
    </g>
   </g>
   <g id="line2d_16">
    <path clip-path="url(#p93379c720c)" d="M 228.110625 142.004884 
L 228.110625 149.586516 
" style="fill:none;stroke:#666666;stroke-linecap:round;stroke-width:1.5;"/>
   </g>
   <g id="line2d_17">
    <path clip-path="url(#p93379c720c)" d="M 228.110625 109.208423 
L 228.110625 71.486392 
" style="fill:none;stroke:#666666;stroke-linecap:round;stroke-width:1.5;"/>
   </g>
   <g id="line2d_18">
    <path clip-path="url(#p93379c720c)" d="M 214.682616 149.586516 
L 241.538634 149.586516 
" style="fill:none;stroke:#666666;stroke-linecap:round;stroke-width:1.5;"/>
   </g>
   <g id="line2d_19">
    <path clip-path="url(#p93379c720c)" d="M 214.682616 71.486392 
L 241.538634 71.486392 
" style="fill:none;stroke:#666666;stroke-linecap:round;stroke-width:1.5;"/>
   </g>
   <g id="line2d_20">
    <g clip-path="url(#p93379c720c)">
     <use style="fill:#666666;stroke:#666666;stroke-linejoin:miter;" x="228.110625" xlink:href="#ma47a372f51" y="447.735497"/>
    </g>
   </g>
   <g id="line2d_21">
    <path clip-path="url(#p93379c720c)" d="M 282.918825 174.915714 
L 282.918825 193.827273 
" style="fill:none;stroke:#666666;stroke-linecap:round;stroke-width:1.5;"/>
   </g>
   <g id="line2d_22">
    <path clip-path="url(#p93379c720c)" d="M 282.918825 104.128718 
L 282.918825 69.648676 
" style="fill:none;stroke:#666666;stroke-linecap:round;stroke-width:1.5;"/>
   </g>
   <g id="line2d_23">
    <path clip-path="url(#p93379c720c)" d="M 269.490816 193.827273 
L 296.346834 193.827273 
" style="fill:none;stroke:#666666;stroke-linecap:round;stroke-width:1.5;"/>
   </g>
   <g id="line2d_24">
    <path clip-path="url(#p93379c720c)" d="M 269.490816 69.648676 
L 296.346834 69.648676 
" style="fill:none;stroke:#666666;stroke-linecap:round;stroke-width:1.5;"/>
   </g>
   <g id="line2d_25">
    <g clip-path="url(#p93379c720c)">
     <use style="fill:#666666;stroke:#666666;stroke-linejoin:miter;" x="282.918825" xlink:href="#ma47a372f51" y="442.37918"/>
    </g>
   </g>
   <g id="line2d_26">
    <path clip-path="url(#p93379c720c)" d="M 461.045475 216.119347 
L 461.045475 229.361382 
" style="fill:none;stroke:#666666;stroke-linecap:round;stroke-width:1.5;"/>
   </g>
   <g id="line2d_27">
    <path clip-path="url(#p93379c720c)" d="M 461.045475 189.635278 
L 461.045475 176.393244 
" style="fill:none;stroke:#666666;stroke-linecap:round;stroke-width:1.5;"/>
   </g>
   <g id="line2d_28">
    <path clip-path="url(#p93379c720c)" d="M 447.617466 229.361382 
L 474.473484 229.361382 
" style="fill:none;stroke:#666666;stroke-linecap:round;stroke-width:1.5;"/>
   </g>
   <g id="line2d_29">
    <path clip-path="url(#p93379c720c)" d="M 447.617466 176.393244 
L 474.473484 176.393244 
" style="fill:none;stroke:#666666;stroke-linecap:round;stroke-width:1.5;"/>
   </g>
   <g id="line2d_30"/>
   <g id="line2d_31">
    <path clip-path="url(#p93379c720c)" d="M 515.853675 200.826191 
L 515.853675 228.152297 
" style="fill:none;stroke:#666666;stroke-linecap:round;stroke-width:1.5;"/>
   </g>
   <g id="line2d_32">
    <path clip-path="url(#p93379c720c)" d="M 515.853675 102.737892 
L 515.853675 59.969999 
" style="fill:none;stroke:#666666;stroke-linecap:round;stroke-width:1.5;"/>
   </g>
   <g id="line2d_33">
    <path clip-path="url(#p93379c720c)" d="M 502.425666 228.152297 
L 529.281684 228.152297 
" style="fill:none;stroke:#666666;stroke-linecap:round;stroke-width:1.5;"/>
   </g>
   <g id="line2d_34">
    <path clip-path="url(#p93379c720c)" d="M 502.425666 59.969999 
L 529.281684 59.969999 
" style="fill:none;stroke:#666666;stroke-linecap:round;stroke-width:1.5;"/>
   </g>
   <g id="line2d_35"/>
   <g id="line2d_36">
    <path clip-path="url(#p93379c720c)" d="M 570.661875 181.115892 
L 570.661875 231.102228 
" style="fill:none;stroke:#666666;stroke-linecap:round;stroke-width:1.5;"/>
   </g>
   <g id="line2d_37">
    <path clip-path="url(#p93379c720c)" d="M 570.661875 71.210676 
L 570.661875 57.75996 
" style="fill:none;stroke:#666666;stroke-linecap:round;stroke-width:1.5;"/>
   </g>
   <g id="line2d_38">
    <path clip-path="url(#p93379c720c)" d="M 557.233866 231.102228 
L 584.089884 231.102228 
" style="fill:none;stroke:#666666;stroke-linecap:round;stroke-width:1.5;"/>
   </g>
   <g id="line2d_39">
    <path clip-path="url(#p93379c720c)" d="M 557.233866 57.75996 
L 584.089884 57.75996 
" style="fill:none;stroke:#666666;stroke-linecap:round;stroke-width:1.5;"/>
   </g>
   <g id="line2d_40"/>
   <g id="line2d_41">
    <path clip-path="url(#p93379c720c)" d="M 625.470075 154.277298 
L 625.470075 255.719645 
" style="fill:none;stroke:#666666;stroke-linecap:round;stroke-width:1.5;"/>
   </g>
   <g id="line2d_42">
    <path clip-path="url(#p93379c720c)" d="M 625.470075 64.481185 
L 625.470075 42.85 
" style="fill:none;stroke:#666666;stroke-linecap:round;stroke-width:1.5;"/>
   </g>
   <g id="line2d_43">
    <path clip-path="url(#p93379c720c)" d="M 612.042066 255.719645 
L 638.898084 255.719645 
" style="fill:none;stroke:#666666;stroke-linecap:round;stroke-width:1.5;"/>
   </g>
   <g id="line2d_44">
    <path clip-path="url(#p93379c720c)" d="M 612.042066 42.85 
L 638.898084 42.85 
" style="fill:none;stroke:#666666;stroke-linecap:round;stroke-width:1.5;"/>
   </g>
   <g id="line2d_45"/>
   <g id="line2d_46">
    <path clip-path="url(#p93379c720c)" d="M 803.596725 213.624623 
L 803.596725 230.469771 
" style="fill:none;stroke:#666666;stroke-linecap:round;stroke-width:1.5;"/>
   </g>
   <g id="line2d_47">
    <path clip-path="url(#p93379c720c)" d="M 803.596725 179.934326 
L 803.596725 163.089178 
" style="fill:none;stroke:#666666;stroke-linecap:round;stroke-width:1.5;"/>
   </g>
   <g id="line2d_48">
    <path clip-path="url(#p93379c720c)" d="M 790.168716 230.469771 
L 817.024734 230.469771 
" style="fill:none;stroke:#666666;stroke-linecap:round;stroke-width:1.5;"/>
   </g>
   <g id="line2d_49">
    <path clip-path="url(#p93379c720c)" d="M 790.168716 163.089178 
L 817.024734 163.089178 
" style="fill:none;stroke:#666666;stroke-linecap:round;stroke-width:1.5;"/>
   </g>
   <g id="line2d_50"/>
   <g id="line2d_51">
    <path clip-path="url(#p93379c720c)" d="M 858.404925 317.212384 
L 858.404925 319.107557 
" style="fill:none;stroke:#666666;stroke-linecap:round;stroke-width:1.5;"/>
   </g>
   <g id="line2d_52">
    <path clip-path="url(#p93379c720c)" d="M 858.404925 198.886215 
L 858.404925 165.842539 
" style="fill:none;stroke:#666666;stroke-linecap:round;stroke-width:1.5;"/>
   </g>
   <g id="line2d_53">
    <path clip-path="url(#p93379c720c)" d="M 844.976916 319.107557 
L 871.832934 319.107557 
" style="fill:none;stroke:#666666;stroke-linecap:round;stroke-width:1.5;"/>
   </g>
   <g id="line2d_54">
    <path clip-path="url(#p93379c720c)" d="M 844.976916 165.842539 
L 871.832934 165.842539 
" style="fill:none;stroke:#666666;stroke-linecap:round;stroke-width:1.5;"/>
   </g>
   <g id="line2d_55"/>
   <g id="line2d_56">
    <path clip-path="url(#p93379c720c)" d="M 913.213125 326.894539 
L 913.213125 340.204531 
" style="fill:none;stroke:#666666;stroke-linecap:round;stroke-width:1.5;"/>
   </g>
   <g id="line2d_57">
    <path clip-path="url(#p93379c720c)" d="M 913.213125 226.820102 
L 913.213125 164.445837 
" style="fill:none;stroke:#666666;stroke-linecap:round;stroke-width:1.5;"/>
   </g>
   <g id="line2d_58">
    <path clip-path="url(#p93379c720c)" d="M 899.785116 340.204531 
L 926.641134 340.204531 
" style="fill:none;stroke:#666666;stroke-linecap:round;stroke-width:1.5;"/>
   </g>
   <g id="line2d_59">
    <path clip-path="url(#p93379c720c)" d="M 899.785116 164.445837 
L 926.641134 164.445837 
" style="fill:none;stroke:#666666;stroke-linecap:round;stroke-width:1.5;"/>
   </g>
   <g id="line2d_60"/>
   <g id="line2d_61">
    <path clip-path="url(#p93379c720c)" d="M 968.021325 338.745122 
L 968.021325 343.415994 
" style="fill:none;stroke:#666666;stroke-linecap:round;stroke-width:1.5;"/>
   </g>
   <g id="line2d_62">
    <path clip-path="url(#p93379c720c)" d="M 968.021325 273.883133 
L 968.021325 203.012944 
" style="fill:none;stroke:#666666;stroke-linecap:round;stroke-width:1.5;"/>
   </g>
   <g id="line2d_63">
    <path clip-path="url(#p93379c720c)" d="M 954.593316 343.415994 
L 981.449334 343.415994 
" style="fill:none;stroke:#666666;stroke-linecap:round;stroke-width:1.5;"/>
   </g>
   <g id="line2d_64">
    <path clip-path="url(#p93379c720c)" d="M 954.593316 203.012944 
L 981.449334 203.012944 
" style="fill:none;stroke:#666666;stroke-linecap:round;stroke-width:1.5;"/>
   </g>
   <g id="line2d_65">
    <g clip-path="url(#p93379c720c)">
     <use style="fill:#666666;stroke:#666666;stroke-linejoin:miter;" x="968.021325" xlink:href="#ma47a372f51" y="162.389877"/>
    </g>
   </g>
   <g id="line2d_66">
    <path clip-path="url(#p93379c720c)" d="M 1146.147975 557.002583 
L 1146.147975 638.602899 
" style="fill:none;stroke:#666666;stroke-linecap:round;stroke-width:1.5;"/>
   </g>
   <g id="line2d_67">
    <path clip-path="url(#p93379c720c)" d="M 1146.147975 393.801952 
L 1146.147975 312.201637 
" style="fill:none;stroke:#666666;stroke-linecap:round;stroke-width:1.5;"/>
   </g>
   <g id="line2d_68">
    <path clip-path="url(#p93379c720c)" d="M 1132.719966 638.602899 
L 1159.575984 638.602899 
" style="fill:none;stroke:#666666;stroke-linecap:round;stroke-width:1.5;"/>
   </g>
   <g id="line2d_69">
    <path clip-path="url(#p93379c720c)" d="M 1132.719966 312.201637 
L 1159.575984 312.201637 
" style="fill:none;stroke:#666666;stroke-linecap:round;stroke-width:1.5;"/>
   </g>
   <g id="line2d_70"/>
   <g id="line2d_71">
    <path clip-path="url(#p93379c720c)" d="M 1200.956175 637.822948 
L 1200.956175 638.971182 
" style="fill:none;stroke:#666666;stroke-linecap:round;stroke-width:1.5;"/>
   </g>
   <g id="line2d_72">
    <path clip-path="url(#p93379c720c)" d="M 1200.956175 552.56647 
L 1200.956175 552.56647 
" style="fill:none;stroke:#666666;stroke-linecap:round;stroke-width:1.5;"/>
   </g>
   <g id="line2d_73">
    <path clip-path="url(#p93379c720c)" d="M 1187.528166 638.971182 
L 1214.384184 638.971182 
" style="fill:none;stroke:#666666;stroke-linecap:round;stroke-width:1.5;"/>
   </g>
   <g id="line2d_74">
    <path clip-path="url(#p93379c720c)" d="M 1187.528166 552.56647 
L 1214.384184 552.56647 
" style="fill:none;stroke:#666666;stroke-linecap:round;stroke-width:1.5;"/>
   </g>
   <g id="line2d_75">
    <g clip-path="url(#p93379c720c)">
     <use style="fill:#666666;stroke:#666666;stroke-linejoin:miter;" x="1200.956175" xlink:href="#ma47a372f51" y="311.231975"/>
    </g>
   </g>
   <g id="line2d_76">
    <path clip-path="url(#p93379c720c)" d="M 1255.764375 638.115932 
L 1255.764375 640.206011 
" style="fill:none;stroke:#666666;stroke-linecap:round;stroke-width:1.5;"/>
   </g>
   <g id="line2d_77">
    <path clip-path="url(#p93379c720c)" d="M 1255.764375 624.204123 
L 1255.764375 621.761014 
" style="fill:none;stroke:#666666;stroke-linecap:round;stroke-width:1.5;"/>
   </g>
   <g id="line2d_78">
    <path clip-path="url(#p93379c720c)" d="M 1242.336366 640.206011 
L 1269.192384 640.206011 
" style="fill:none;stroke:#666666;stroke-linecap:round;stroke-width:1.5;"/>
   </g>
   <g id="line2d_79">
    <path clip-path="url(#p93379c720c)" d="M 1242.336366 621.761014 
L 1269.192384 621.761014 
" style="fill:none;stroke:#666666;stroke-linecap:round;stroke-width:1.5;"/>
   </g>
   <g id="line2d_80">
    <g clip-path="url(#p93379c720c)">
     <use style="fill:#666666;stroke:#666666;stroke-linejoin:miter;" x="1255.764375" xlink:href="#ma47a372f51" y="310.256691"/>
    </g>
   </g>
   <g id="line2d_81">
    <path clip-path="url(#p93379c720c)" d="M 1310.572575 639.174624 
L 1310.572575 640.65 
" style="fill:none;stroke:#666666;stroke-linecap:round;stroke-width:1.5;"/>
   </g>
   <g id="line2d_82">
    <path clip-path="url(#p93379c720c)" d="M 1310.572575 605.669432 
L 1310.572575 605.669432 
" style="fill:none;stroke:#666666;stroke-linecap:round;stroke-width:1.5;"/>
   </g>
   <g id="line2d_83">
    <path clip-path="url(#p93379c720c)" d="M 1297.144566 640.65 
L 1324.000584 640.65 
" style="fill:none;stroke:#666666;stroke-linecap:round;stroke-width:1.5;"/>
   </g>
   <g id="line2d_84">
    <path clip-path="url(#p93379c720c)" d="M 1297.144566 605.669432 
L 1324.000584 605.669432 
" style="fill:none;stroke:#666666;stroke-linecap:round;stroke-width:1.5;"/>
   </g>
   <g id="line2d_85">
    <g clip-path="url(#p93379c720c)">
     <use style="fill:#666666;stroke:#666666;stroke-linejoin:miter;" x="1310.572575" xlink:href="#ma47a372f51" y="293.051552"/>
     <use style="fill:#666666;stroke:#666666;stroke-linejoin:miter;" x="1310.572575" xlink:href="#ma47a372f51" y="551.427645"/>
    </g>
   </g>
   <g id="line2d_86">
    <path clip-path="url(#p93379c720c)" d="M 91.638207 278.481198 
L 145.350243 278.481198 
" style="fill:none;stroke:#666666;stroke-linecap:round;stroke-width:1.5;"/>
   </g>
   <g id="line2d_87">
    <path clip-path="url(#p93379c720c)" d="M 146.446407 127.201102 
L 200.158443 127.201102 
" style="fill:none;stroke:#666666;stroke-linecap:round;stroke-width:1.5;"/>
   </g>
   <g id="line2d_88">
    <path clip-path="url(#p93379c720c)" d="M 201.254607 118.726108 
L 254.966643 118.726108 
" style="fill:none;stroke:#666666;stroke-linecap:round;stroke-width:1.5;"/>
   </g>
   <g id="line2d_89">
    <path clip-path="url(#p93379c720c)" d="M 256.062807 121.573178 
L 309.774843 121.573178 
" style="fill:none;stroke:#666666;stroke-linecap:round;stroke-width:1.5;"/>
   </g>
   <g id="line2d_90">
    <path clip-path="url(#p93379c720c)" d="M 434.189457 202.877313 
L 487.901493 202.877313 
" style="fill:none;stroke:#666666;stroke-linecap:round;stroke-width:1.5;"/>
   </g>
   <g id="line2d_91">
    <path clip-path="url(#p93379c720c)" d="M 488.997657 154.355673 
L 542.709693 154.355673 
" style="fill:none;stroke:#666666;stroke-linecap:round;stroke-width:1.5;"/>
   </g>
   <g id="line2d_92">
    <path clip-path="url(#p93379c720c)" d="M 543.805857 115.004172 
L 597.517893 115.004172 
" style="fill:none;stroke:#666666;stroke-linecap:round;stroke-width:1.5;"/>
   </g>
   <g id="line2d_93">
    <path clip-path="url(#p93379c720c)" d="M 598.614057 102.645853 
L 652.326093 102.645853 
" style="fill:none;stroke:#666666;stroke-linecap:round;stroke-width:1.5;"/>
   </g>
   <g id="line2d_94">
    <path clip-path="url(#p93379c720c)" d="M 776.740707 196.779474 
L 830.452743 196.779474 
" style="fill:none;stroke:#666666;stroke-linecap:round;stroke-width:1.5;"/>
   </g>
   <g id="line2d_95">
    <path clip-path="url(#p93379c720c)" d="M 831.548907 263.240717 
L 885.260943 263.240717 
" style="fill:none;stroke:#666666;stroke-linecap:round;stroke-width:1.5;"/>
   </g>
   <g id="line2d_96">
    <path clip-path="url(#p93379c720c)" d="M 886.357107 306.303819 
L 940.069143 306.303819 
" style="fill:none;stroke:#666666;stroke-linecap:round;stroke-width:1.5;"/>
   </g>
   <g id="line2d_97">
    <path clip-path="url(#p93379c720c)" d="M 941.165307 315.208177 
L 994.877343 315.208177 
" style="fill:none;stroke:#666666;stroke-linecap:round;stroke-width:1.5;"/>
   </g>
   <g id="line2d_98">
    <path clip-path="url(#p93379c720c)" d="M 1119.291957 475.402268 
L 1173.003993 475.402268 
" style="fill:none;stroke:#666666;stroke-linecap:round;stroke-width:1.5;"/>
   </g>
   <g id="line2d_99">
    <path clip-path="url(#p93379c720c)" d="M 1174.100157 635.225753 
L 1227.812193 635.225753 
" style="fill:none;stroke:#666666;stroke-linecap:round;stroke-width:1.5;"/>
   </g>
   <g id="line2d_100">
    <path clip-path="url(#p93379c720c)" d="M 1228.908357 633.924611 
L 1282.620393 633.924611 
" style="fill:none;stroke:#666666;stroke-linecap:round;stroke-width:1.5;"/>
   </g>
   <g id="line2d_101">
    <path clip-path="url(#p93379c720c)" d="M 1283.716557 631.280994 
L 1337.428593 631.280994 
" style="fill:none;stroke:#666666;stroke-linecap:round;stroke-width:1.5;"/>
   </g>
   <g id="patch_24">
    <path d="M 56.835 670.54 
L 56.835 12.96 
" style="fill:none;stroke:#ffffff;stroke-linecap:square;stroke-linejoin:miter;stroke-width:1.25;"/>
   </g>
   <g id="patch_25">
    <path d="M 1427.04 670.54 
L 1427.04 12.96 
" style="fill:none;stroke:#ffffff;stroke-linecap:square;stroke-linejoin:miter;stroke-width:1.25;"/>
   </g>
   <g id="patch_26">
    <path d="M 56.835 670.54 
L 1427.04 670.54 
" style="fill:none;stroke:#ffffff;stroke-linecap:square;stroke-linejoin:miter;stroke-width:1.25;"/>
   </g>
   <g id="patch_27">
    <path d="M 56.835 12.96 
L 1427.04 12.96 
" style="fill:none;stroke:#ffffff;stroke-linecap:square;stroke-linejoin:miter;stroke-width:1.25;"/>
   </g>
   <g id="legend_1">
    <g id="patch_28">
     <path d="M 1346.719375 119.603438 
L 1419.34 119.603438 
Q 1421.54 119.603438 1421.54 117.403438 
L 1421.54 20.66 
Q 1421.54 18.46 1419.34 18.46 
L 1346.719375 18.46 
Q 1344.519375 18.46 1344.519375 20.66 
L 1344.519375 117.403438 
Q 1344.519375 119.603438 1346.719375 119.603438 
z
" style="fill:#eaeaf2;opacity:0.8;stroke:#cccccc;stroke-linejoin:miter;"/>
    </g>
    <g id="text_12">
     <!-- K-Means -->
     <g style="fill:#262626;" transform="translate(1358.086562 31.978125)scale(0.12 -0.12)">
      <defs>
       <path d="M 628 4666 
L 1259 4666 
L 1259 2694 
L 3353 4666 
L 4166 4666 
L 1850 2491 
L 4331 0 
L 3500 0 
L 1259 2247 
L 1259 0 
L 628 0 
L 628 4666 
z
" id="DejaVuSans-4b" transform="scale(0.015625)"/>
       <path d="M 313 2009 
L 1997 2009 
L 1997 1497 
L 313 1497 
L 313 2009 
z
" id="DejaVuSans-2d" transform="scale(0.015625)"/>
       <path d="M 628 4666 
L 1569 4666 
L 2759 1491 
L 3956 4666 
L 4897 4666 
L 4897 0 
L 4281 0 
L 4281 4097 
L 3078 897 
L 2444 897 
L 1241 4097 
L 1241 0 
L 628 0 
L 628 4666 
z
" id="DejaVuSans-4d" transform="scale(0.015625)"/>
      </defs>
      <use xlink:href="#DejaVuSans-4b"/>
      <use x="55.076172" xlink:href="#DejaVuSans-2d"/>
      <use x="91.160156" xlink:href="#DejaVuSans-4d"/>
      <use x="177.439453" xlink:href="#DejaVuSans-65"/>
      <use x="238.962891" xlink:href="#DejaVuSans-61"/>
      <use x="300.242188" xlink:href="#DejaVuSans-6e"/>
      <use x="363.621094" xlink:href="#DejaVuSans-73"/>
     </g>
    </g>
    <g id="patch_29">
     <path d="M 1348.919375 48.332031 
L 1370.919375 48.332031 
L 1370.919375 40.632031 
L 1348.919375 40.632031 
z
" style="fill:#96cac1;stroke:#666666;stroke-linejoin:miter;stroke-width:0.75;"/>
    </g>
    <g id="text_13">
     <!-- K = 2 -->
     <g style="fill:#262626;" transform="translate(1379.719375 48.332031)scale(0.11 -0.11)">
      <defs>
       <path d="M 678 2906 
L 4684 2906 
L 4684 2381 
L 678 2381 
L 678 2906 
z
M 678 1631 
L 4684 1631 
L 4684 1100 
L 678 1100 
L 678 1631 
z
" id="DejaVuSans-3d" transform="scale(0.015625)"/>
      </defs>
      <use xlink:href="#DejaVuSans-4b"/>
      <use x="65.576172" xlink:href="#DejaVuSans-20"/>
      <use x="97.363281" xlink:href="#DejaVuSans-3d"/>
      <use x="181.152344" xlink:href="#DejaVuSans-20"/>
      <use x="212.939453" xlink:href="#DejaVuSans-32"/>
     </g>
    </g>
    <g id="patch_30">
     <path d="M 1348.919375 64.477969 
L 1370.919375 64.477969 
L 1370.919375 56.777969 
L 1348.919375 56.777969 
z
" style="fill:#f6f6bc;stroke:#666666;stroke-linejoin:miter;stroke-width:0.75;"/>
    </g>
    <g id="text_14">
     <!-- K = 4 -->
     <g style="fill:#262626;" transform="translate(1379.719375 64.477969)scale(0.11 -0.11)">
      <use xlink:href="#DejaVuSans-4b"/>
      <use x="65.576172" xlink:href="#DejaVuSans-20"/>
      <use x="97.363281" xlink:href="#DejaVuSans-3d"/>
      <use x="181.152344" xlink:href="#DejaVuSans-20"/>
      <use x="212.939453" xlink:href="#DejaVuSans-34"/>
     </g>
    </g>
    <g id="patch_31">
     <path d="M 1348.919375 80.623906 
L 1370.919375 80.623906 
L 1370.919375 72.923906 
L 1348.919375 72.923906 
z
" style="fill:#c1bed6;stroke:#666666;stroke-linejoin:miter;stroke-width:0.75;"/>
    </g>
    <g id="text_15">
     <!-- K = 6 -->
     <g style="fill:#262626;" transform="translate(1379.719375 80.623906)scale(0.11 -0.11)">
      <defs>
       <path d="M 2113 2584 
Q 1688 2584 1439 2293 
Q 1191 2003 1191 1497 
Q 1191 994 1439 701 
Q 1688 409 2113 409 
Q 2538 409 2786 701 
Q 3034 994 3034 1497 
Q 3034 2003 2786 2293 
Q 2538 2584 2113 2584 
z
M 3366 4563 
L 3366 3988 
Q 3128 4100 2886 4159 
Q 2644 4219 2406 4219 
Q 1781 4219 1451 3797 
Q 1122 3375 1075 2522 
Q 1259 2794 1537 2939 
Q 1816 3084 2150 3084 
Q 2853 3084 3261 2657 
Q 3669 2231 3669 1497 
Q 3669 778 3244 343 
Q 2819 -91 2113 -91 
Q 1303 -91 875 529 
Q 447 1150 447 2328 
Q 447 3434 972 4092 
Q 1497 4750 2381 4750 
Q 2619 4750 2861 4703 
Q 3103 4656 3366 4563 
z
" id="DejaVuSans-36" transform="scale(0.015625)"/>
      </defs>
      <use xlink:href="#DejaVuSans-4b"/>
      <use x="65.576172" xlink:href="#DejaVuSans-20"/>
      <use x="97.363281" xlink:href="#DejaVuSans-3d"/>
      <use x="181.152344" xlink:href="#DejaVuSans-20"/>
      <use x="212.939453" xlink:href="#DejaVuSans-36"/>
     </g>
    </g>
    <g id="patch_32">
     <path d="M 1348.919375 96.769844 
L 1370.919375 96.769844 
L 1370.919375 89.069844 
L 1348.919375 89.069844 
z
" style="fill:#ea8e83;stroke:#666666;stroke-linejoin:miter;stroke-width:0.75;"/>
    </g>
    <g id="text_16">
     <!-- K = 8 -->
     <g style="fill:#262626;" transform="translate(1379.719375 96.769844)scale(0.11 -0.11)">
      <defs>
       <path d="M 2034 2216 
Q 1584 2216 1326 1975 
Q 1069 1734 1069 1313 
Q 1069 891 1326 650 
Q 1584 409 2034 409 
Q 2484 409 2743 651 
Q 3003 894 3003 1313 
Q 3003 1734 2745 1975 
Q 2488 2216 2034 2216 
z
M 1403 2484 
Q 997 2584 770 2862 
Q 544 3141 544 3541 
Q 544 4100 942 4425 
Q 1341 4750 2034 4750 
Q 2731 4750 3128 4425 
Q 3525 4100 3525 3541 
Q 3525 3141 3298 2862 
Q 3072 2584 2669 2484 
Q 3125 2378 3379 2068 
Q 3634 1759 3634 1313 
Q 3634 634 3220 271 
Q 2806 -91 2034 -91 
Q 1263 -91 848 271 
Q 434 634 434 1313 
Q 434 1759 690 2068 
Q 947 2378 1403 2484 
z
M 1172 3481 
Q 1172 3119 1398 2916 
Q 1625 2713 2034 2713 
Q 2441 2713 2670 2916 
Q 2900 3119 2900 3481 
Q 2900 3844 2670 4047 
Q 2441 4250 2034 4250 
Q 1625 4250 1398 4047 
Q 1172 3844 1172 3481 
z
" id="DejaVuSans-38" transform="scale(0.015625)"/>
      </defs>
      <use xlink:href="#DejaVuSans-4b"/>
      <use x="65.576172" xlink:href="#DejaVuSans-20"/>
      <use x="97.363281" xlink:href="#DejaVuSans-3d"/>
      <use x="181.152344" xlink:href="#DejaVuSans-20"/>
      <use x="212.939453" xlink:href="#DejaVuSans-38"/>
     </g>
    </g>
    <g id="patch_33">
     <path d="M 1348.919375 112.915781 
L 1370.919375 112.915781 
L 1370.919375 105.215781 
L 1348.919375 105.215781 
z
" style="fill:#8aafc9;stroke:#666666;stroke-linejoin:miter;stroke-width:0.75;"/>
    </g>
    <g id="text_17">
     <!-- K = 10 -->
     <g style="fill:#262626;" transform="translate(1379.719375 112.915781)scale(0.11 -0.11)">
      <use xlink:href="#DejaVuSans-4b"/>
      <use x="65.576172" xlink:href="#DejaVuSans-20"/>
      <use x="97.363281" xlink:href="#DejaVuSans-3d"/>
      <use x="181.152344" xlink:href="#DejaVuSans-20"/>
      <use x="212.939453" xlink:href="#DejaVuSans-31"/>
      <use x="276.5625" xlink:href="#DejaVuSans-30"/>
     </g>
    </g>
   </g>
  </g>
 </g>
 <defs>
  <clipPath id="p93379c720c">
   <rect height="657.58" width="1370.205" x="56.835" y="12.96"/>
  </clipPath>
 </defs>
</svg>
