<?xml version="1.0" encoding="utf-8" standalone="no"?>
<!DOCTYPE svg PUBLIC "-//W3C//DTD SVG 1.1//EN"
  "http://www.w3.org/Graphics/SVG/1.1/DTD/svg11.dtd">
<svg height="576pt" version="1.1" viewBox="0 0 1080 576" width="1080pt" xmlns="http://www.w3.org/2000/svg" xmlns:xlink="http://www.w3.org/1999/xlink">
 <metadata>
  <rdf:RDF xmlns:cc="http://creativecommons.org/ns#" xmlns:dc="http://purl.org/dc/elements/1.1/" xmlns:rdf="http://www.w3.org/1999/02/22-rdf-syntax-ns#">
   <cc:Work>
    <dc:type rdf:resource="http://purl.org/dc/dcmitype/StillImage"/>
    <dc:date>2022-01-25T16:05:01.452287</dc:date>
    <dc:format>image/svg+xml</dc:format>
    <dc:creator>
     <cc:Agent>
      <dc:title>Matplotlib v3.4.3, https://matplotlib.org/</dc:title>
     </cc:Agent>
    </dc:creator>
   </cc:Work>
  </rdf:RDF>
 </metadata>
 <defs>
  <style type="text/css">*{stroke-linecap:butt;stroke-linejoin:round;}</style>
 </defs>
 <g id="figure_1">
  <g id="patch_1">
   <path d="M 0 576 
L 1080 576 
L 1080 0 
L 0 0 
z
" style="fill:#ffffff;"/>
  </g>
  <g id="axes_1">
   <g id="patch_2">
    <path d="M 135 504 
L 972 504 
L 972 69.12 
L 135 69.12 
z
" style="fill:#ffffff;"/>
   </g>
   <g id="matplotlib.axis_1">
    <g id="xtick_1">
     <g id="line2d_1">
      <path clip-path="url(#p5430b6be0f)" d="M 883.227273 504 
L 883.227273 69.12 
" style="fill:none;stroke:#999999;stroke-dasharray:1.5,2.475;stroke-dashoffset:0;stroke-width:1.5;"/>
     </g>
     <g id="text_1">
      <!-- 0.3 -->
      <g style="fill:#262626;" transform="translate(870.107195 529.037422)scale(0.165 -0.165)">
       <defs>
        <path d="M 2034 4250 
Q 1547 4250 1301 3770 
Q 1056 3291 1056 2328 
Q 1056 1369 1301 889 
Q 1547 409 2034 409 
Q 2525 409 2770 889 
Q 3016 1369 3016 2328 
Q 3016 3291 2770 3770 
Q 2525 4250 2034 4250 
z
M 2034 4750 
Q 2819 4750 3233 4129 
Q 3647 3509 3647 2328 
Q 3647 1150 3233 529 
Q 2819 -91 2034 -91 
Q 1250 -91 836 529 
Q 422 1150 422 2328 
Q 422 3509 836 4129 
Q 1250 4750 2034 4750 
z
" id="DejaVuSans-30" transform="scale(0.015625)"/>
        <path d="M 684 794 
L 1344 794 
L 1344 0 
L 684 0 
L 684 794 
z
" id="DejaVuSans-2e" transform="scale(0.015625)"/>
        <path d="M 2597 2516 
Q 3050 2419 3304 2112 
Q 3559 1806 3559 1356 
Q 3559 666 3084 287 
Q 2609 -91 1734 -91 
Q 1441 -91 1130 -33 
Q 819 25 488 141 
L 488 750 
Q 750 597 1062 519 
Q 1375 441 1716 441 
Q 2309 441 2620 675 
Q 2931 909 2931 1356 
Q 2931 1769 2642 2001 
Q 2353 2234 1838 2234 
L 1294 2234 
L 1294 2753 
L 1863 2753 
Q 2328 2753 2575 2939 
Q 2822 3125 2822 3475 
Q 2822 3834 2567 4026 
Q 2313 4219 1838 4219 
Q 1578 4219 1281 4162 
Q 984 4106 628 3988 
L 628 4550 
Q 988 4650 1302 4700 
Q 1616 4750 1894 4750 
Q 2613 4750 3031 4423 
Q 3450 4097 3450 3541 
Q 3450 3153 3228 2886 
Q 3006 2619 2597 2516 
z
" id="DejaVuSans-33" transform="scale(0.015625)"/>
       </defs>
       <use xlink:href="#DejaVuSans-30"/>
       <use x="63.623047" xlink:href="#DejaVuSans-2e"/>
       <use x="95.410156" xlink:href="#DejaVuSans-33"/>
      </g>
     </g>
    </g>
    <g id="xtick_2">
     <g id="line2d_2">
      <path clip-path="url(#p5430b6be0f)" d="M 781.772727 504 
L 781.772727 69.12 
" style="fill:none;stroke:#999999;stroke-dasharray:1.5,2.475;stroke-dashoffset:0;stroke-width:1.5;"/>
     </g>
     <g id="text_2">
      <!-- 0.4 -->
      <g style="fill:#262626;" transform="translate(768.652649 529.037422)scale(0.165 -0.165)">
       <defs>
        <path d="M 2419 4116 
L 825 1625 
L 2419 1625 
L 2419 4116 
z
M 2253 4666 
L 3047 4666 
L 3047 1625 
L 3713 1625 
L 3713 1100 
L 3047 1100 
L 3047 0 
L 2419 0 
L 2419 1100 
L 313 1100 
L 313 1709 
L 2253 4666 
z
" id="DejaVuSans-34" transform="scale(0.015625)"/>
       </defs>
       <use xlink:href="#DejaVuSans-30"/>
       <use x="63.623047" xlink:href="#DejaVuSans-2e"/>
       <use x="95.410156" xlink:href="#DejaVuSans-34"/>
      </g>
     </g>
    </g>
    <g id="xtick_3">
     <g id="line2d_3">
      <path clip-path="url(#p5430b6be0f)" d="M 680.318182 504 
L 680.318182 69.12 
" style="fill:none;stroke:#999999;stroke-dasharray:1.5,2.475;stroke-dashoffset:0;stroke-width:1.5;"/>
     </g>
     <g id="text_3">
      <!-- 0.5 -->
      <g style="fill:#262626;" transform="translate(667.198104 529.037422)scale(0.165 -0.165)">
       <defs>
        <path d="M 691 4666 
L 3169 4666 
L 3169 4134 
L 1269 4134 
L 1269 2991 
Q 1406 3038 1543 3061 
Q 1681 3084 1819 3084 
Q 2600 3084 3056 2656 
Q 3513 2228 3513 1497 
Q 3513 744 3044 326 
Q 2575 -91 1722 -91 
Q 1428 -91 1123 -41 
Q 819 9 494 109 
L 494 744 
Q 775 591 1075 516 
Q 1375 441 1709 441 
Q 2250 441 2565 725 
Q 2881 1009 2881 1497 
Q 2881 1984 2565 2268 
Q 2250 2553 1709 2553 
Q 1456 2553 1204 2497 
Q 953 2441 691 2322 
L 691 4666 
z
" id="DejaVuSans-35" transform="scale(0.015625)"/>
       </defs>
       <use xlink:href="#DejaVuSans-30"/>
       <use x="63.623047" xlink:href="#DejaVuSans-2e"/>
       <use x="95.410156" xlink:href="#DejaVuSans-35"/>
      </g>
     </g>
    </g>
    <g id="xtick_4">
     <g id="line2d_4">
      <path clip-path="url(#p5430b6be0f)" d="M 578.863636 504 
L 578.863636 69.12 
" style="fill:none;stroke:#999999;stroke-dasharray:1.5,2.475;stroke-dashoffset:0;stroke-width:1.5;"/>
     </g>
     <g id="text_4">
      <!-- 0.6 -->
      <g style="fill:#262626;" transform="translate(565.743558 529.037422)scale(0.165 -0.165)">
       <defs>
        <path d="M 2113 2584 
Q 1688 2584 1439 2293 
Q 1191 2003 1191 1497 
Q 1191 994 1439 701 
Q 1688 409 2113 409 
Q 2538 409 2786 701 
Q 3034 994 3034 1497 
Q 3034 2003 2786 2293 
Q 2538 2584 2113 2584 
z
M 3366 4563 
L 3366 3988 
Q 3128 4100 2886 4159 
Q 2644 4219 2406 4219 
Q 1781 4219 1451 3797 
Q 1122 3375 1075 2522 
Q 1259 2794 1537 2939 
Q 1816 3084 2150 3084 
Q 2853 3084 3261 2657 
Q 3669 2231 3669 1497 
Q 3669 778 3244 343 
Q 2819 -91 2113 -91 
Q 1303 -91 875 529 
Q 447 1150 447 2328 
Q 447 3434 972 4092 
Q 1497 4750 2381 4750 
Q 2619 4750 2861 4703 
Q 3103 4656 3366 4563 
z
" id="DejaVuSans-36" transform="scale(0.015625)"/>
       </defs>
       <use xlink:href="#DejaVuSans-30"/>
       <use x="63.623047" xlink:href="#DejaVuSans-2e"/>
       <use x="95.410156" xlink:href="#DejaVuSans-36"/>
      </g>
     </g>
    </g>
    <g id="xtick_5">
     <g id="line2d_5">
      <path clip-path="url(#p5430b6be0f)" d="M 477.409091 504 
L 477.409091 69.12 
" style="fill:none;stroke:#999999;stroke-dasharray:1.5,2.475;stroke-dashoffset:0;stroke-width:1.5;"/>
     </g>
     <g id="text_5">
      <!-- 0.7 -->
      <g style="fill:#262626;" transform="translate(464.289013 529.037422)scale(0.165 -0.165)">
       <defs>
        <path d="M 525 4666 
L 3525 4666 
L 3525 4397 
L 1831 0 
L 1172 0 
L 2766 4134 
L 525 4134 
L 525 4666 
z
" id="DejaVuSans-37" transform="scale(0.015625)"/>
       </defs>
       <use xlink:href="#DejaVuSans-30"/>
       <use x="63.623047" xlink:href="#DejaVuSans-2e"/>
       <use x="95.410156" xlink:href="#DejaVuSans-37"/>
      </g>
     </g>
    </g>
    <g id="xtick_6">
     <g id="line2d_6">
      <path clip-path="url(#p5430b6be0f)" d="M 375.954545 504 
L 375.954545 69.12 
" style="fill:none;stroke:#999999;stroke-dasharray:1.5,2.475;stroke-dashoffset:0;stroke-width:1.5;"/>
     </g>
     <g id="text_6">
      <!-- 0.8 -->
      <g style="fill:#262626;" transform="translate(362.834467 529.037422)scale(0.165 -0.165)">
       <defs>
        <path d="M 2034 2216 
Q 1584 2216 1326 1975 
Q 1069 1734 1069 1313 
Q 1069 891 1326 650 
Q 1584 409 2034 409 
Q 2484 409 2743 651 
Q 3003 894 3003 1313 
Q 3003 1734 2745 1975 
Q 2488 2216 2034 2216 
z
M 1403 2484 
Q 997 2584 770 2862 
Q 544 3141 544 3541 
Q 544 4100 942 4425 
Q 1341 4750 2034 4750 
Q 2731 4750 3128 4425 
Q 3525 4100 3525 3541 
Q 3525 3141 3298 2862 
Q 3072 2584 2669 2484 
Q 3125 2378 3379 2068 
Q 3634 1759 3634 1313 
Q 3634 634 3220 271 
Q 2806 -91 2034 -91 
Q 1263 -91 848 271 
Q 434 634 434 1313 
Q 434 1759 690 2068 
Q 947 2378 1403 2484 
z
M 1172 3481 
Q 1172 3119 1398 2916 
Q 1625 2713 2034 2713 
Q 2441 2713 2670 2916 
Q 2900 3119 2900 3481 
Q 2900 3844 2670 4047 
Q 2441 4250 2034 4250 
Q 1625 4250 1398 4047 
Q 1172 3844 1172 3481 
z
" id="DejaVuSans-38" transform="scale(0.015625)"/>
       </defs>
       <use xlink:href="#DejaVuSans-30"/>
       <use x="63.623047" xlink:href="#DejaVuSans-2e"/>
       <use x="95.410156" xlink:href="#DejaVuSans-38"/>
      </g>
     </g>
    </g>
    <g id="xtick_7">
     <g id="line2d_7">
      <path clip-path="url(#p5430b6be0f)" d="M 274.5 504 
L 274.5 69.12 
" style="fill:none;stroke:#999999;stroke-dasharray:1.5,2.475;stroke-dashoffset:0;stroke-width:1.5;"/>
     </g>
     <g id="text_7">
      <!-- 0.9 -->
      <g style="fill:#262626;" transform="translate(261.379922 529.037422)scale(0.165 -0.165)">
       <defs>
        <path d="M 703 97 
L 703 672 
Q 941 559 1184 500 
Q 1428 441 1663 441 
Q 2288 441 2617 861 
Q 2947 1281 2994 2138 
Q 2813 1869 2534 1725 
Q 2256 1581 1919 1581 
Q 1219 1581 811 2004 
Q 403 2428 403 3163 
Q 403 3881 828 4315 
Q 1253 4750 1959 4750 
Q 2769 4750 3195 4129 
Q 3622 3509 3622 2328 
Q 3622 1225 3098 567 
Q 2575 -91 1691 -91 
Q 1453 -91 1209 -44 
Q 966 3 703 97 
z
M 1959 2075 
Q 2384 2075 2632 2365 
Q 2881 2656 2881 3163 
Q 2881 3666 2632 3958 
Q 2384 4250 1959 4250 
Q 1534 4250 1286 3958 
Q 1038 3666 1038 3163 
Q 1038 2656 1286 2365 
Q 1534 2075 1959 2075 
z
" id="DejaVuSans-39" transform="scale(0.015625)"/>
       </defs>
       <use xlink:href="#DejaVuSans-30"/>
       <use x="63.623047" xlink:href="#DejaVuSans-2e"/>
       <use x="95.410156" xlink:href="#DejaVuSans-39"/>
      </g>
     </g>
    </g>
    <g id="xtick_8">
     <g id="line2d_8">
      <path clip-path="url(#p5430b6be0f)" d="M 173.045455 504 
L 173.045455 69.12 
" style="fill:none;stroke:#999999;stroke-dasharray:1.5,2.475;stroke-dashoffset:0;stroke-width:1.5;"/>
     </g>
     <g id="text_8">
      <!-- 1.0 -->
      <g style="fill:#262626;" transform="translate(159.925376 529.037422)scale(0.165 -0.165)">
       <defs>
        <path d="M 794 531 
L 1825 531 
L 1825 4091 
L 703 3866 
L 703 4441 
L 1819 4666 
L 2450 4666 
L 2450 531 
L 3481 531 
L 3481 0 
L 794 0 
L 794 531 
z
" id="DejaVuSans-31" transform="scale(0.015625)"/>
       </defs>
       <use xlink:href="#DejaVuSans-31"/>
       <use x="63.623047" xlink:href="#DejaVuSans-2e"/>
       <use x="95.410156" xlink:href="#DejaVuSans-30"/>
      </g>
     </g>
    </g>
    <g id="text_9">
     <!-- F (largest ratio of users in a cluster) -->
     <g style="fill:#262626;" transform="translate(392.182031 550.146094)scale(0.18 -0.18)">
      <defs>
       <path d="M 628 4666 
L 3309 4666 
L 3309 4134 
L 1259 4134 
L 1259 2759 
L 3109 2759 
L 3109 2228 
L 1259 2228 
L 1259 0 
L 628 0 
L 628 4666 
z
" id="DejaVuSans-46" transform="scale(0.015625)"/>
       <path id="DejaVuSans-20" transform="scale(0.015625)"/>
       <path d="M 1984 4856 
Q 1566 4138 1362 3434 
Q 1159 2731 1159 2009 
Q 1159 1288 1364 580 
Q 1569 -128 1984 -844 
L 1484 -844 
Q 1016 -109 783 600 
Q 550 1309 550 2009 
Q 550 2706 781 3412 
Q 1013 4119 1484 4856 
L 1984 4856 
z
" id="DejaVuSans-28" transform="scale(0.015625)"/>
       <path d="M 603 4863 
L 1178 4863 
L 1178 0 
L 603 0 
L 603 4863 
z
" id="DejaVuSans-6c" transform="scale(0.015625)"/>
       <path d="M 2194 1759 
Q 1497 1759 1228 1600 
Q 959 1441 959 1056 
Q 959 750 1161 570 
Q 1363 391 1709 391 
Q 2188 391 2477 730 
Q 2766 1069 2766 1631 
L 2766 1759 
L 2194 1759 
z
M 3341 1997 
L 3341 0 
L 2766 0 
L 2766 531 
Q 2569 213 2275 61 
Q 1981 -91 1556 -91 
Q 1019 -91 701 211 
Q 384 513 384 1019 
Q 384 1609 779 1909 
Q 1175 2209 1959 2209 
L 2766 2209 
L 2766 2266 
Q 2766 2663 2505 2880 
Q 2244 3097 1772 3097 
Q 1472 3097 1187 3025 
Q 903 2953 641 2809 
L 641 3341 
Q 956 3463 1253 3523 
Q 1550 3584 1831 3584 
Q 2591 3584 2966 3190 
Q 3341 2797 3341 1997 
z
" id="DejaVuSans-61" transform="scale(0.015625)"/>
       <path d="M 2631 2963 
Q 2534 3019 2420 3045 
Q 2306 3072 2169 3072 
Q 1681 3072 1420 2755 
Q 1159 2438 1159 1844 
L 1159 0 
L 581 0 
L 581 3500 
L 1159 3500 
L 1159 2956 
Q 1341 3275 1631 3429 
Q 1922 3584 2338 3584 
Q 2397 3584 2469 3576 
Q 2541 3569 2628 3553 
L 2631 2963 
z
" id="DejaVuSans-72" transform="scale(0.015625)"/>
       <path d="M 2906 1791 
Q 2906 2416 2648 2759 
Q 2391 3103 1925 3103 
Q 1463 3103 1205 2759 
Q 947 2416 947 1791 
Q 947 1169 1205 825 
Q 1463 481 1925 481 
Q 2391 481 2648 825 
Q 2906 1169 2906 1791 
z
M 3481 434 
Q 3481 -459 3084 -895 
Q 2688 -1331 1869 -1331 
Q 1566 -1331 1297 -1286 
Q 1028 -1241 775 -1147 
L 775 -588 
Q 1028 -725 1275 -790 
Q 1522 -856 1778 -856 
Q 2344 -856 2625 -561 
Q 2906 -266 2906 331 
L 2906 616 
Q 2728 306 2450 153 
Q 2172 0 1784 0 
Q 1141 0 747 490 
Q 353 981 353 1791 
Q 353 2603 747 3093 
Q 1141 3584 1784 3584 
Q 2172 3584 2450 3431 
Q 2728 3278 2906 2969 
L 2906 3500 
L 3481 3500 
L 3481 434 
z
" id="DejaVuSans-67" transform="scale(0.015625)"/>
       <path d="M 3597 1894 
L 3597 1613 
L 953 1613 
Q 991 1019 1311 708 
Q 1631 397 2203 397 
Q 2534 397 2845 478 
Q 3156 559 3463 722 
L 3463 178 
Q 3153 47 2828 -22 
Q 2503 -91 2169 -91 
Q 1331 -91 842 396 
Q 353 884 353 1716 
Q 353 2575 817 3079 
Q 1281 3584 2069 3584 
Q 2775 3584 3186 3129 
Q 3597 2675 3597 1894 
z
M 3022 2063 
Q 3016 2534 2758 2815 
Q 2500 3097 2075 3097 
Q 1594 3097 1305 2825 
Q 1016 2553 972 2059 
L 3022 2063 
z
" id="DejaVuSans-65" transform="scale(0.015625)"/>
       <path d="M 2834 3397 
L 2834 2853 
Q 2591 2978 2328 3040 
Q 2066 3103 1784 3103 
Q 1356 3103 1142 2972 
Q 928 2841 928 2578 
Q 928 2378 1081 2264 
Q 1234 2150 1697 2047 
L 1894 2003 
Q 2506 1872 2764 1633 
Q 3022 1394 3022 966 
Q 3022 478 2636 193 
Q 2250 -91 1575 -91 
Q 1294 -91 989 -36 
Q 684 19 347 128 
L 347 722 
Q 666 556 975 473 
Q 1284 391 1588 391 
Q 1994 391 2212 530 
Q 2431 669 2431 922 
Q 2431 1156 2273 1281 
Q 2116 1406 1581 1522 
L 1381 1569 
Q 847 1681 609 1914 
Q 372 2147 372 2553 
Q 372 3047 722 3315 
Q 1072 3584 1716 3584 
Q 2034 3584 2315 3537 
Q 2597 3491 2834 3397 
z
" id="DejaVuSans-73" transform="scale(0.015625)"/>
       <path d="M 1172 4494 
L 1172 3500 
L 2356 3500 
L 2356 3053 
L 1172 3053 
L 1172 1153 
Q 1172 725 1289 603 
Q 1406 481 1766 481 
L 2356 481 
L 2356 0 
L 1766 0 
Q 1100 0 847 248 
Q 594 497 594 1153 
L 594 3053 
L 172 3053 
L 172 3500 
L 594 3500 
L 594 4494 
L 1172 4494 
z
" id="DejaVuSans-74" transform="scale(0.015625)"/>
       <path d="M 603 3500 
L 1178 3500 
L 1178 0 
L 603 0 
L 603 3500 
z
M 603 4863 
L 1178 4863 
L 1178 4134 
L 603 4134 
L 603 4863 
z
" id="DejaVuSans-69" transform="scale(0.015625)"/>
       <path d="M 1959 3097 
Q 1497 3097 1228 2736 
Q 959 2375 959 1747 
Q 959 1119 1226 758 
Q 1494 397 1959 397 
Q 2419 397 2687 759 
Q 2956 1122 2956 1747 
Q 2956 2369 2687 2733 
Q 2419 3097 1959 3097 
z
M 1959 3584 
Q 2709 3584 3137 3096 
Q 3566 2609 3566 1747 
Q 3566 888 3137 398 
Q 2709 -91 1959 -91 
Q 1206 -91 779 398 
Q 353 888 353 1747 
Q 353 2609 779 3096 
Q 1206 3584 1959 3584 
z
" id="DejaVuSans-6f" transform="scale(0.015625)"/>
       <path d="M 2375 4863 
L 2375 4384 
L 1825 4384 
Q 1516 4384 1395 4259 
Q 1275 4134 1275 3809 
L 1275 3500 
L 2222 3500 
L 2222 3053 
L 1275 3053 
L 1275 0 
L 697 0 
L 697 3053 
L 147 3053 
L 147 3500 
L 697 3500 
L 697 3744 
Q 697 4328 969 4595 
Q 1241 4863 1831 4863 
L 2375 4863 
z
" id="DejaVuSans-66" transform="scale(0.015625)"/>
       <path d="M 544 1381 
L 544 3500 
L 1119 3500 
L 1119 1403 
Q 1119 906 1312 657 
Q 1506 409 1894 409 
Q 2359 409 2629 706 
Q 2900 1003 2900 1516 
L 2900 3500 
L 3475 3500 
L 3475 0 
L 2900 0 
L 2900 538 
Q 2691 219 2414 64 
Q 2138 -91 1772 -91 
Q 1169 -91 856 284 
Q 544 659 544 1381 
z
M 1991 3584 
L 1991 3584 
z
" id="DejaVuSans-75" transform="scale(0.015625)"/>
       <path d="M 3513 2113 
L 3513 0 
L 2938 0 
L 2938 2094 
Q 2938 2591 2744 2837 
Q 2550 3084 2163 3084 
Q 1697 3084 1428 2787 
Q 1159 2491 1159 1978 
L 1159 0 
L 581 0 
L 581 3500 
L 1159 3500 
L 1159 2956 
Q 1366 3272 1645 3428 
Q 1925 3584 2291 3584 
Q 2894 3584 3203 3211 
Q 3513 2838 3513 2113 
z
" id="DejaVuSans-6e" transform="scale(0.015625)"/>
       <path d="M 3122 3366 
L 3122 2828 
Q 2878 2963 2633 3030 
Q 2388 3097 2138 3097 
Q 1578 3097 1268 2742 
Q 959 2388 959 1747 
Q 959 1106 1268 751 
Q 1578 397 2138 397 
Q 2388 397 2633 464 
Q 2878 531 3122 666 
L 3122 134 
Q 2881 22 2623 -34 
Q 2366 -91 2075 -91 
Q 1284 -91 818 406 
Q 353 903 353 1747 
Q 353 2603 823 3093 
Q 1294 3584 2113 3584 
Q 2378 3584 2631 3529 
Q 2884 3475 3122 3366 
z
" id="DejaVuSans-63" transform="scale(0.015625)"/>
       <path d="M 513 4856 
L 1013 4856 
Q 1481 4119 1714 3412 
Q 1947 2706 1947 2009 
Q 1947 1309 1714 600 
Q 1481 -109 1013 -844 
L 513 -844 
Q 928 -128 1133 580 
Q 1338 1288 1338 2009 
Q 1338 2731 1133 3434 
Q 928 4138 513 4856 
z
" id="DejaVuSans-29" transform="scale(0.015625)"/>
      </defs>
      <use xlink:href="#DejaVuSans-46"/>
      <use x="57.519531" xlink:href="#DejaVuSans-20"/>
      <use x="89.306641" xlink:href="#DejaVuSans-28"/>
      <use x="128.320312" xlink:href="#DejaVuSans-6c"/>
      <use x="156.103516" xlink:href="#DejaVuSans-61"/>
      <use x="217.382812" xlink:href="#DejaVuSans-72"/>
      <use x="256.746094" xlink:href="#DejaVuSans-67"/>
      <use x="320.222656" xlink:href="#DejaVuSans-65"/>
      <use x="381.746094" xlink:href="#DejaVuSans-73"/>
      <use x="433.845703" xlink:href="#DejaVuSans-74"/>
      <use x="473.054688" xlink:href="#DejaVuSans-20"/>
      <use x="504.841797" xlink:href="#DejaVuSans-72"/>
      <use x="545.955078" xlink:href="#DejaVuSans-61"/>
      <use x="607.234375" xlink:href="#DejaVuSans-74"/>
      <use x="646.443359" xlink:href="#DejaVuSans-69"/>
      <use x="674.226562" xlink:href="#DejaVuSans-6f"/>
      <use x="735.408203" xlink:href="#DejaVuSans-20"/>
      <use x="767.195312" xlink:href="#DejaVuSans-6f"/>
      <use x="828.376953" xlink:href="#DejaVuSans-66"/>
      <use x="863.582031" xlink:href="#DejaVuSans-20"/>
      <use x="895.369141" xlink:href="#DejaVuSans-75"/>
      <use x="958.748047" xlink:href="#DejaVuSans-73"/>
      <use x="1010.847656" xlink:href="#DejaVuSans-65"/>
      <use x="1072.371094" xlink:href="#DejaVuSans-72"/>
      <use x="1113.484375" xlink:href="#DejaVuSans-73"/>
      <use x="1165.583984" xlink:href="#DejaVuSans-20"/>
      <use x="1197.371094" xlink:href="#DejaVuSans-69"/>
      <use x="1225.154297" xlink:href="#DejaVuSans-6e"/>
      <use x="1288.533203" xlink:href="#DejaVuSans-20"/>
      <use x="1320.320312" xlink:href="#DejaVuSans-61"/>
      <use x="1381.599609" xlink:href="#DejaVuSans-20"/>
      <use x="1413.386719" xlink:href="#DejaVuSans-63"/>
      <use x="1468.367188" xlink:href="#DejaVuSans-6c"/>
      <use x="1496.150391" xlink:href="#DejaVuSans-75"/>
      <use x="1559.529297" xlink:href="#DejaVuSans-73"/>
      <use x="1611.628906" xlink:href="#DejaVuSans-74"/>
      <use x="1650.837891" xlink:href="#DejaVuSans-65"/>
      <use x="1712.361328" xlink:href="#DejaVuSans-72"/>
      <use x="1753.474609" xlink:href="#DejaVuSans-29"/>
     </g>
    </g>
   </g>
   <g id="matplotlib.axis_2">
    <g id="ytick_1">
     <g id="line2d_9">
      <path clip-path="url(#p5430b6be0f)" d="M 135 504 
L 972 504 
" style="fill:none;stroke:#999999;stroke-dasharray:1.5,2.475;stroke-dashoffset:0;stroke-width:1.5;"/>
     </g>
     <g id="text_10">
      <!-- 0% -->
      <g style="fill:#262626;" transform="translate(96.324297 510.268711)scale(0.165 -0.165)">
       <defs>
        <path d="M 4653 2053 
Q 4381 2053 4226 1822 
Q 4072 1591 4072 1178 
Q 4072 772 4226 539 
Q 4381 306 4653 306 
Q 4919 306 5073 539 
Q 5228 772 5228 1178 
Q 5228 1588 5073 1820 
Q 4919 2053 4653 2053 
z
M 4653 2450 
Q 5147 2450 5437 2106 
Q 5728 1763 5728 1178 
Q 5728 594 5436 251 
Q 5144 -91 4653 -91 
Q 4153 -91 3862 251 
Q 3572 594 3572 1178 
Q 3572 1766 3864 2108 
Q 4156 2450 4653 2450 
z
M 1428 4353 
Q 1159 4353 1004 4120 
Q 850 3888 850 3481 
Q 850 3069 1003 2837 
Q 1156 2606 1428 2606 
Q 1700 2606 1854 2837 
Q 2009 3069 2009 3481 
Q 2009 3884 1853 4118 
Q 1697 4353 1428 4353 
z
M 4250 4750 
L 4750 4750 
L 1831 -91 
L 1331 -91 
L 4250 4750 
z
M 1428 4750 
Q 1922 4750 2215 4408 
Q 2509 4066 2509 3481 
Q 2509 2891 2217 2550 
Q 1925 2209 1428 2209 
Q 931 2209 642 2551 
Q 353 2894 353 3481 
Q 353 4063 643 4406 
Q 934 4750 1428 4750 
z
" id="DejaVuSans-25" transform="scale(0.015625)"/>
       </defs>
       <use xlink:href="#DejaVuSans-30"/>
       <use x="63.623047" xlink:href="#DejaVuSans-25"/>
      </g>
     </g>
    </g>
    <g id="ytick_2">
     <g id="line2d_10">
      <path clip-path="url(#p5430b6be0f)" d="M 135 417.024 
L 972 417.024 
" style="fill:none;stroke:#999999;stroke-dasharray:1.5,2.475;stroke-dashoffset:0;stroke-width:1.5;"/>
     </g>
     <g id="text_11">
      <!-- 20% -->
      <g style="fill:#262626;" transform="translate(85.826172 423.292711)scale(0.165 -0.165)">
       <defs>
        <path d="M 1228 531 
L 3431 531 
L 3431 0 
L 469 0 
L 469 531 
Q 828 903 1448 1529 
Q 2069 2156 2228 2338 
Q 2531 2678 2651 2914 
Q 2772 3150 2772 3378 
Q 2772 3750 2511 3984 
Q 2250 4219 1831 4219 
Q 1534 4219 1204 4116 
Q 875 4013 500 3803 
L 500 4441 
Q 881 4594 1212 4672 
Q 1544 4750 1819 4750 
Q 2544 4750 2975 4387 
Q 3406 4025 3406 3419 
Q 3406 3131 3298 2873 
Q 3191 2616 2906 2266 
Q 2828 2175 2409 1742 
Q 1991 1309 1228 531 
z
" id="DejaVuSans-32" transform="scale(0.015625)"/>
       </defs>
       <use xlink:href="#DejaVuSans-32"/>
       <use x="63.623047" xlink:href="#DejaVuSans-30"/>
       <use x="127.246094" xlink:href="#DejaVuSans-25"/>
      </g>
     </g>
    </g>
    <g id="ytick_3">
     <g id="line2d_11">
      <path clip-path="url(#p5430b6be0f)" d="M 135 330.048 
L 972 330.048 
" style="fill:none;stroke:#999999;stroke-dasharray:1.5,2.475;stroke-dashoffset:0;stroke-width:1.5;"/>
     </g>
     <g id="text_12">
      <!-- 40% -->
      <g style="fill:#262626;" transform="translate(85.826172 336.316711)scale(0.165 -0.165)">
       <use xlink:href="#DejaVuSans-34"/>
       <use x="63.623047" xlink:href="#DejaVuSans-30"/>
       <use x="127.246094" xlink:href="#DejaVuSans-25"/>
      </g>
     </g>
    </g>
    <g id="ytick_4">
     <g id="line2d_12">
      <path clip-path="url(#p5430b6be0f)" d="M 135 243.072 
L 972 243.072 
" style="fill:none;stroke:#999999;stroke-dasharray:1.5,2.475;stroke-dashoffset:0;stroke-width:1.5;"/>
     </g>
     <g id="text_13">
      <!-- 60% -->
      <g style="fill:#262626;" transform="translate(85.826172 249.340711)scale(0.165 -0.165)">
       <use xlink:href="#DejaVuSans-36"/>
       <use x="63.623047" xlink:href="#DejaVuSans-30"/>
       <use x="127.246094" xlink:href="#DejaVuSans-25"/>
      </g>
     </g>
    </g>
    <g id="ytick_5">
     <g id="line2d_13">
      <path clip-path="url(#p5430b6be0f)" d="M 135 156.096 
L 972 156.096 
" style="fill:none;stroke:#999999;stroke-dasharray:1.5,2.475;stroke-dashoffset:0;stroke-width:1.5;"/>
     </g>
     <g id="text_14">
      <!-- 80% -->
      <g style="fill:#262626;" transform="translate(85.826172 162.364711)scale(0.165 -0.165)">
       <use xlink:href="#DejaVuSans-38"/>
       <use x="63.623047" xlink:href="#DejaVuSans-30"/>
       <use x="127.246094" xlink:href="#DejaVuSans-25"/>
      </g>
     </g>
    </g>
    <g id="ytick_6">
     <g id="line2d_14">
      <path clip-path="url(#p5430b6be0f)" d="M 135 69.12 
L 972 69.12 
" style="fill:none;stroke:#999999;stroke-dasharray:1.5,2.475;stroke-dashoffset:0;stroke-width:1.5;"/>
     </g>
     <g id="text_15">
      <!-- 100% -->
      <g style="fill:#262626;" transform="translate(75.328047 75.388711)scale(0.165 -0.165)">
       <use xlink:href="#DejaVuSans-31"/>
       <use x="63.623047" xlink:href="#DejaVuSans-30"/>
       <use x="127.246094" xlink:href="#DejaVuSans-30"/>
       <use x="190.869141" xlink:href="#DejaVuSans-25"/>
      </g>
     </g>
    </g>
    <g id="text_16">
     <!-- Proportion -->
     <g style="fill:#262626;" transform="translate(67.584609 332.992969)rotate(-90)scale(0.18 -0.18)">
      <defs>
       <path d="M 1259 4147 
L 1259 2394 
L 2053 2394 
Q 2494 2394 2734 2622 
Q 2975 2850 2975 3272 
Q 2975 3691 2734 3919 
Q 2494 4147 2053 4147 
L 1259 4147 
z
M 628 4666 
L 2053 4666 
Q 2838 4666 3239 4311 
Q 3641 3956 3641 3272 
Q 3641 2581 3239 2228 
Q 2838 1875 2053 1875 
L 1259 1875 
L 1259 0 
L 628 0 
L 628 4666 
z
" id="DejaVuSans-50" transform="scale(0.015625)"/>
       <path d="M 1159 525 
L 1159 -1331 
L 581 -1331 
L 581 3500 
L 1159 3500 
L 1159 2969 
Q 1341 3281 1617 3432 
Q 1894 3584 2278 3584 
Q 2916 3584 3314 3078 
Q 3713 2572 3713 1747 
Q 3713 922 3314 415 
Q 2916 -91 2278 -91 
Q 1894 -91 1617 61 
Q 1341 213 1159 525 
z
M 3116 1747 
Q 3116 2381 2855 2742 
Q 2594 3103 2138 3103 
Q 1681 3103 1420 2742 
Q 1159 2381 1159 1747 
Q 1159 1113 1420 752 
Q 1681 391 2138 391 
Q 2594 391 2855 752 
Q 3116 1113 3116 1747 
z
" id="DejaVuSans-70" transform="scale(0.015625)"/>
      </defs>
      <use xlink:href="#DejaVuSans-50"/>
      <use x="58.552734" xlink:href="#DejaVuSans-72"/>
      <use x="97.416016" xlink:href="#DejaVuSans-6f"/>
      <use x="158.597656" xlink:href="#DejaVuSans-70"/>
      <use x="222.074219" xlink:href="#DejaVuSans-6f"/>
      <use x="283.255859" xlink:href="#DejaVuSans-72"/>
      <use x="324.369141" xlink:href="#DejaVuSans-74"/>
      <use x="363.578125" xlink:href="#DejaVuSans-69"/>
      <use x="391.361328" xlink:href="#DejaVuSans-6f"/>
      <use x="452.542969" xlink:href="#DejaVuSans-6e"/>
     </g>
    </g>
   </g>
   <g id="line2d_15">
    <path clip-path="url(#p5430b6be0f)" d="M 933.954545 69.12 
L 933.954545 70.232225 
L 897.720779 70.232225 
L 897.720779 71.34445 
L 883.227273 71.34445 
L 883.227273 72.456675 
L 870.545455 72.456675 
L 870.545455 73.5689 
L 849.409091 73.5689 
L 849.409091 80.242251 
L 818.665289 80.242251 
L 818.665289 81.354476 
L 813.811005 81.354476 
L 813.811005 82.466701 
L 807.136364 82.466701 
L 807.136364 85.803376 
L 801.097403 85.803376 
L 801.097403 86.915601 
L 781.772727 86.915601 
L 781.772727 90.252276 
L 752.785714 90.252276 
L 752.785714 91.364501 
L 743.727273 91.364501 
L 743.727273 92.476726 
L 731.045455 92.476726 
L 731.045455 93.588951 
L 726.433884 93.588951 
L 726.433884 94.701176 
L 719.339161 94.701176 
L 719.339161 95.813402 
L 709.841991 95.813402 
L 709.841991 96.925627 
L 707.016746 96.925627 
L 707.016746 98.037852 
L 699.106061 98.037852 
L 699.106061 99.150077 
L 680.318182 99.150077 
L 680.318182 156.98578 
L 657.048791 156.98578 
L 657.048791 158.098005 
L 654.954545 158.098005 
L 654.954545 160.322455 
L 651.819714 160.322455 
L 651.819714 161.43468 
L 650.47861 161.43468 
L 650.47861 162.546905 
L 648.613636 162.546905 
L 648.613636 163.65913 
L 646.5 163.65913 
L 646.5 164.771355 
L 643.534493 164.771355 
L 643.534493 165.883581 
L 641.297203 165.883581 
L 641.297203 168.108031 
L 640.577922 168.108031 
L 640.577922 169.220256 
L 634.202479 169.220256 
L 634.202479 171.444706 
L 631.199954 171.444706 
L 631.199954 172.556931 
L 630.379416 172.556931 
L 630.379416 173.669156 
L 628.651515 173.669156 
L 628.555659 175.893606 
L 626.921053 175.893606 
L 626.921053 177.005831 
L 623.954545 177.005831 
L 623.954545 179.230281 
L 621.332981 179.230281 
L 621.332981 180.342506 
L 619.445455 180.342506 
L 619.445455 182.566957 
L 616.909091 182.566957 
L 616.909091 183.679182 
L 613.57177 183.679182 
L 613.57177 184.791407 
L 611.492234 184.791407 
L 611.492234 185.903632 
L 607.850649 185.903632 
L 607.850649 193.689207 
L 603.409091 193.689207 
L 603.409091 194.801432 
L 602.276224 194.801432 
L 602.276224 195.913657 
L 601.409091 195.913657 
L 601.409091 197.025882 
L 599.024476 197.025882 
L 599.024476 198.138107 
L 595.772727 198.138107 
L 595.772727 201.474783 
L 590.799465 201.474783 
L 590.799465 202.587008 
L 589.543062 202.587008 
L 589.543062 203.699233 
L 588.173733 203.699233 
L 588.086777 205.923683 
L 586.378788 205.923683 
L 586.378788 207.035908 
L 585.204545 207.035908 
L 585.204545 208.148133 
L 584.139015 208.148133 
L 584.139015 209.260358 
L 581.681818 209.260358 
L 581.681818 210.372583 
L 578.863636 210.372583 
L 578.863636 222.607059 
L 576.343027 222.607059 
L 576.343027 223.719284 
L 566.619122 223.719284 
L 566.619122 224.831509 
L 565.028926 224.831509 
L 565.028926 225.943734 
L 563.68761 225.943734 
L 563.68761 227.055959 
L 563.255245 227.055959 
L 563.255245 228.168184 
L 562.630909 228.168184 
L 562.630909 229.280409 
L 562.440185 229.280409 
L 562.440185 230.392634 
L 561.113441 230.392634 
L 561.113441 231.504859 
L 559.538961 231.504859 
L 559.538961 233.729309 
L 557.504785 233.729309 
L 557.504785 234.841535 
L 555.146989 234.841535 
L 555.146989 235.95376 
L 553.914315 235.95376 
L 553.914315 237.065985 
L 553.5 237.065985 
L 553.5 243.739335 
L 551.607191 243.739335 
L 551.607191 244.85156 
L 551.350539 244.85156 
L 551.350539 245.963785 
L 549.577788 245.963785 
L 549.577788 247.07601 
L 549.169623 247.07601 
L 549.169623 248.188235 
L 548.80303 248.188235 
L 548.80303 249.30046 
L 547.335227 249.30046 
L 547.335227 250.412685 
L 545.045455 250.412685 
L 545.045455 251.52491 
L 543.142798 251.52491 
L 543.142798 252.637136 
L 541.971074 252.637136 
L 541.971074 254.861586 
L 539.409091 254.861586 
L 539.409091 255.973811 
L 531.605189 255.973811 
L 531.605189 257.086036 
L 531.120321 257.086036 
L 531.120321 259.310486 
L 528.136364 259.310486 
L 528.136364 260.422711 
L 522.393654 260.422711 
L 522.393654 261.534936 
L 521.795455 261.534936 
L 521.795455 262.647161 
L 518.200094 262.647161 
L 518.114886 264.871611 
L 517.608062 264.871611 
L 517.528797 267.096061 
L 516.959168 267.096061 
L 516.959168 268.208286 
L 513.367664 268.208286 
L 513.367664 269.320512 
L 511.227273 269.320512 
L 511.227273 312.697289 
L 509.746184 312.697289 
L 509.746184 313.809514 
L 507.510989 313.809514 
L 507.510989 314.921739 
L 505.943182 314.921739 
L 505.943182 316.033964 
L 504.107656 316.033964 
L 504.107656 317.146189 
L 502.443329 317.146189 
L 502.443329 318.258414 
L 502.020431 318.258414 
L 502.020431 319.370639 
L 501.326726 319.370639 
L 501.326726 320.482864 
L 500.821678 320.482864 
L 500.821678 321.59509 
L 499.149351 321.59509 
L 499.149351 322.707315 
L 497.7 322.707315 
L 497.7 323.81954 
L 497.535701 323.81954 
L 497.535701 324.931765 
L 496.65047 324.931765 
L 496.65047 326.04399 
L 495.05336 326.04399 
L 495.05336 327.156215 
L 494.104143 327.156215 
L 494.104143 328.26844 
L 493.42823 328.26844 
L 493.42823 330.49289 
L 489.267414 330.49289 
L 489.171937 332.71734 
L 485.213287 332.71734 
L 485.213287 333.829565 
L 482.445841 333.829565 
L 482.445841 334.94179 
L 481.820158 334.94179 
L 481.820158 336.054015 
L 480.483471 336.054015 
L 480.483471 337.16624 
L 480.201418 337.16624 
L 480.201418 338.278465 
L 479.680461 338.278465 
L 479.680461 339.390691 
L 479.019481 339.390691 
L 479.019481 340.502916 
L 477.409091 340.502916 
L 477.409091 344.951816 
L 477.116715 344.951816 
L 477.116715 346.064041 
L 476.091499 346.064041 
L 476.091499 347.176266 
L 475.250484 347.176266 
L 475.250484 348.288491 
L 471.849938 348.288491 
L 471.849938 349.400716 
L 467.263636 349.400716 
L 467.263636 350.512941 
L 462.915584 350.512941 
L 462.915584 358.298517 
L 456.681818 358.298517 
L 456.681818 359.410742 
L 454.347994 359.410742 
L 454.347994 360.522967 
L 453.253247 360.522967 
L 453.253247 361.635192 
L 452.045455 361.635192 
L 452.045455 362.747417 
L 451.833333 362.747417 
L 451.833333 363.859642 
L 448.478693 363.859642 
L 448.478693 364.971867 
L 445.502891 364.971867 
L 445.502891 366.084092 
L 445.240576 366.084092 
L 445.240576 367.196317 
L 440.0311 367.196317 
L 440.0311 368.308542 
L 439.688811 368.308542 
L 439.673436 370.532992 
L 437.954545 370.532992 
L 437.954545 371.645217 
L 435.006863 371.645217 
L 435.006863 372.757442 
L 432.580338 372.757442 
L 432.580338 373.869668 
L 432.402939 373.869668 
L 432.3692 376.094118 
L 426.681818 376.094118 
L 426.681818 388.328593 
L 424.882979 388.328593 
L 424.882979 389.440818 
L 422.070248 389.440818 
L 422.070248 390.553043 
L 414.603896 390.553043 
L 414.603896 391.665269 
L 411.762032 391.665269 
L 411.762032 393.889719 
L 410.211924 393.889719 
L 410.211924 395.001944 
L 407.171329 395.001944 
L 407.171329 396.114169 
L 402.085584 396.114169 
L 402.085584 397.226394 
L 401.318182 397.226394 
L 401.318182 398.338619 
L 400.800557 398.338619 
L 400.800557 399.450844 
L 398.5 399.450844 
L 398.5 402.787519 
L 390.448052 402.787519 
L 390.448052 403.899744 
L 386.633971 403.899744 
L 386.633971 405.011969 
L 384.236549 405.011969 
L 384.236549 406.124194 
L 375.954545 406.124194 
L 375.954545 411.68532 
L 367.320116 411.68532 
L 367.320116 412.797545 
L 357.508264 412.797545 
L 357.508264 413.90977 
L 342.136364 413.90977 
L 342.136364 420.58312 
L 317.980519 420.58312 
L 317.980519 425.03202 
L 313.954545 425.03202 
L 313.954545 426.144246 
L 312.982759 426.144246 
L 312.982759 427.256471 
L 308.318182 427.256471 
L 308.318182 428.368696 
L 299.863636 428.368696 
L 299.863636 431.705371 
L 285.772727 431.705371 
L 285.772727 433.929821 
L 251.087413 433.929821 
L 251.087413 435.042046 
L 173.045455 435.042046 
L 173.045455 504 
L 173.045455 504 
" style="fill:none;stroke:#9467bd;stroke-linecap:round;stroke-width:2.25;"/>
   </g>
   <g id="line2d_16">
    <path clip-path="url(#p5430b6be0f)" d="M 933.954545 69.12 
L 933.954545 70.232225 
L 883.227273 70.232225 
L 883.227273 71.34445 
L 870.545455 71.34445 
L 870.545455 72.456675 
L 849.409091 72.456675 
L 849.409091 78.017801 
L 807.136364 78.017801 
L 807.136364 79.130026 
L 781.772727 79.130026 
L 781.772727 80.242251 
L 752.785714 80.242251 
L 752.785714 82.466701 
L 726.433884 82.466701 
L 726.433884 83.578926 
L 719.339161 83.578926 
L 719.339161 84.691151 
L 707.016746 84.691151 
L 707.016746 85.803376 
L 699.106061 85.803376 
L 699.106061 86.915601 
L 680.318182 86.915601 
L 680.318182 134.741279 
L 661.530303 134.741279 
L 661.530303 135.853504 
L 650.47861 135.853504 
L 650.47861 136.965729 
L 638.045455 136.965729 
L 638.045455 138.077954 
L 629.590909 138.077954 
L 629.590909 139.190179 
L 625.688811 139.190179 
L 625.688811 140.302404 
L 616.909091 140.302404 
L 616.909091 141.414629 
L 612.681818 141.414629 
L 612.681818 142.526854 
L 607.850649 142.526854 
L 607.850649 145.863529 
L 606.394016 145.863529 
L 606.394016 146.975754 
L 604.227273 146.975754 
L 604.227273 148.08798 
L 600.222488 148.08798 
L 600.222488 149.200205 
L 597.738901 149.200205 
L 597.738901 150.31243 
L 594.77472 150.31243 
L 594.77472 151.424655 
L 589.149351 151.424655 
L 589.149351 152.53688 
L 582.586739 152.53688 
L 582.586739 153.649105 
L 580.675325 153.649105 
L 580.675325 154.76133 
L 579.541129 154.76133 
L 579.541129 155.873555 
L 578.863636 155.873555 
L 578.863636 168.108031 
L 576.984848 168.108031 
L 576.984848 169.220256 
L 567.590909 169.220256 
L 567.590909 170.332481 
L 566.440631 170.332481 
L 566.440631 171.444706 
L 563.255245 171.444706 
L 563.255245 172.556931 
L 560.624617 172.556931 
L 560.624617 173.669156 
L 560.174641 173.669156 
L 560.174641 174.781381 
L 557.504785 174.781381 
L 557.504785 175.893606 
L 553.5 175.893606 
L 553.5 184.791407 
L 549.977273 184.791407 
L 549.977273 185.903632 
L 549.409091 185.903632 
L 549.409091 187.015857 
L 541.971074 187.015857 
L 541.971074 190.352532 
L 539.409091 190.352532 
L 539.409091 191.464757 
L 538.281818 191.464757 
L 538.281818 192.576982 
L 534.608794 192.576982 
L 534.608794 193.689207 
L 533.476077 193.689207 
L 533.476077 194.801432 
L 531.634796 194.801432 
L 531.634796 195.913657 
L 530.501884 195.913657 
L 530.501884 197.025882 
L 528.136364 197.025882 
L 528.136364 198.138107 
L 523.021819 198.138107 
L 523.021819 199.250332 
L 519.184492 199.250332 
L 519.184492 200.362558 
L 518.913223 200.362558 
L 518.913223 202.587008 
L 517.266234 202.587008 
L 517.266234 203.699233 
L 515.619244 203.699233 
L 515.619244 204.811458 
L 514.947273 204.811458 
L 514.947273 205.923683 
L 514.787081 205.923683 
L 514.759198 208.148133 
L 511.227273 208.148133 
L 511.227273 247.07601 
L 504.325603 247.07601 
L 504.325603 248.188235 
L 498.952071 248.188235 
L 498.952071 249.30046 
L 498.465695 249.30046 
L 498.465695 250.412685 
L 493.245049 250.412685 
L 493.245049 251.52491 
L 490.090909 251.52491 
L 490.090909 253.749361 
L 488.681818 253.749361 
L 488.681818 254.861586 
L 488.465035 254.861586 
L 488.465035 255.973811 
L 487.682969 255.973811 
L 487.682969 257.086036 
L 487.554545 257.086036 
L 487.554545 258.198261 
L 486.822399 258.198261 
L 486.822399 259.310486 
L 485.213287 259.310486 
L 485.213287 261.534936 
L 483.79606 261.534936 
L 483.79606 262.647161 
L 483.466079 262.647161 
L 483.466079 263.759386 
L 483.045455 263.759386 
L 483.045455 264.871611 
L 481.820158 264.871611 
L 481.820158 267.096061 
L 479.522727 267.096061 
L 479.522727 268.208286 
L 478.67376 268.208286 
L 478.67376 269.320512 
L 477.409091 269.320512 
L 477.409091 275.993862 
L 475.872357 275.993862 
L 475.872357 277.106087 
L 474.93459 277.106087 
L 474.93459 278.218312 
L 474.537736 278.218312 
L 474.537736 279.330537 
L 473.651515 279.330537 
L 473.651515 280.442762 
L 471.441176 280.442762 
L 471.441176 281.554987 
L 469.604895 281.554987 
L 469.604895 282.667212 
L 468.954545 282.667212 
L 468.954545 283.779437 
L 467.723857 283.779437 
L 467.723857 284.891662 
L 466.457786 284.891662 
L 466.457786 286.003887 
L 462.915584 286.003887 
L 462.915584 294.901688 
L 461.666144 294.901688 
L 461.666144 296.013913 
L 458.714568 296.013913 
L 458.714568 297.126138 
L 458.401792 297.126138 
L 458.401792 298.238363 
L 457.547619 298.238363 
L 457.547619 299.350588 
L 457.118182 299.350588 
L 457.118182 300.462813 
L 455.444705 300.462813 
L 455.444705 301.575038 
L 452.278148 301.575038 
L 452.278148 302.687263 
L 449.739669 302.687263 
L 449.739669 304.911714 
L 448.246043 304.911714 
L 448.176425 307.136164 
L 445.061265 307.136164 
L 445.049937 309.360614 
L 443.590909 309.360614 
L 443.590909 312.697289 
L 441.40065 312.697289 
L 441.40065 313.809514 
L 440.0311 313.809514 
L 440.0311 314.921739 
L 437.10523 314.921739 
L 437.10523 316.033964 
L 430.336521 316.033964 
L 430.336521 317.146189 
L 426.681818 317.146189 
L 426.681818 333.829565 
L 425.144628 333.829565 
L 425.144628 334.94179 
L 423.387839 334.94179 
L 423.387839 337.16624 
L 417.935737 337.16624 
L 417.935737 338.278465 
L 417.687621 338.278465 
L 417.687621 339.390691 
L 416.536364 339.390691 
L 416.536364 340.502916 
L 414.603896 340.502916 
L 414.603896 341.615141 
L 413.432157 341.615141 
L 413.432157 342.727366 
L 411.762032 342.727366 
L 411.762032 344.951816 
L 411.243083 344.951816 
L 411.243083 346.064041 
L 410.829545 346.064041 
L 410.829545 347.176266 
L 410.492263 347.176266 
L 410.492263 348.288491 
L 409.772727 348.288491 
L 409.772727 349.400716 
L 407.171329 349.400716 
L 407.171329 351.625166 
L 404.941558 351.625166 
L 404.941558 352.737391 
L 404.156566 352.737391 
L 404.156566 353.849616 
L 403.623967 353.849616 
L 403.623967 354.961841 
L 403.507572 354.961841 
L 403.507572 356.074066 
L 403.296905 356.074066 
L 403.296905 357.186292 
L 402.136364 357.186292 
L 402.136364 358.298517 
L 401.318182 358.298517 
L 401.318182 359.410742 
L 398.5 359.410742 
L 398.5 362.747417 
L 394.502579 362.747417 
L 394.502579 363.859642 
L 390.448052 363.859642 
L 390.448052 366.084092 
L 387.660839 366.084092 
L 387.660839 367.196317 
L 386.633971 367.196317 
L 386.633971 370.532992 
L 385.617877 370.532992 
L 385.617877 371.645217 
L 383.088068 371.645217 
L 383.088068 372.757442 
L 379.00581 372.757442 
L 379.00581 373.869668 
L 378.523015 373.869668 
L 378.523015 374.981893 
L 377.286553 374.981893 
L 377.286553 376.094118 
L 375.954545 376.094118 
L 375.954545 386.104143 
L 370.684179 386.104143 
L 370.684179 387.216368 
L 363.51869 387.216368 
L 363.51869 388.328593 
L 363.272727 388.328593 
L 363.272727 389.440818 
L 359.390538 389.440818 
L 359.390538 390.553043 
L 350.590909 390.553043 
L 350.590909 391.665269 
L 346.260532 391.665269 
L 346.260532 392.777494 
L 345.734043 392.777494 
L 345.734043 393.889719 
L 342.136364 393.889719 
L 342.136364 397.226394 
L 339.061983 397.226394 
L 339.061983 398.338619 
L 338.204017 398.338619 
L 338.204017 399.450844 
L 330.403525 399.450844 
L 330.403525 400.563069 
L 325.227273 400.563069 
L 325.227273 401.675294 
L 317.980519 401.675294 
L 317.980519 408.348645 
L 299.863636 408.348645 
L 299.863636 411.68532 
L 299.238916 411.68532 
L 299.238916 412.797545 
L 292.403743 412.797545 
L 292.403743 413.90977 
L 285.772727 413.90977 
L 285.772727 418.35867 
L 240.681818 418.35867 
L 240.681818 419.470895 
L 173.045455 419.470895 
L 173.045455 504 
L 173.045455 504 
" style="fill:none;stroke:#d62728;stroke-linecap:round;stroke-width:2.25;"/>
   </g>
   <g id="line2d_17">
    <path clip-path="url(#p5430b6be0f)" d="M 883.227273 69.12 
L 883.227273 70.232225 
L 870.545455 70.232225 
L 870.545455 71.34445 
L 849.409091 71.34445 
L 849.409091 75.79335 
L 781.772727 75.79335 
L 781.772727 76.905575 
L 752.785714 76.905575 
L 752.785714 78.017801 
L 743.727273 78.017801 
L 743.727273 79.130026 
L 726.433884 79.130026 
L 726.433884 80.242251 
L 707.016746 80.242251 
L 707.016746 81.354476 
L 704.474026 81.354476 
L 704.474026 82.466701 
L 699.106061 82.466701 
L 699.106061 83.578926 
L 680.318182 83.578926 
L 680.318182 126.955703 
L 661.530303 126.955703 
L 661.530303 128.067928 
L 653.619617 128.067928 
L 653.619617 129.180153 
L 650.47861 129.180153 
L 650.47861 130.292379 
L 646.5 130.292379 
L 646.5 131.404604 
L 641.297203 131.404604 
L 641.297203 132.516829 
L 638.045455 132.516829 
L 638.045455 133.629054 
L 634.202479 133.629054 
L 634.202479 134.741279 
L 629.590909 134.741279 
L 629.590909 135.853504 
L 625.688811 135.853504 
L 625.688811 136.965729 
L 616.909091 136.965729 
L 616.909091 138.077954 
L 607.850649 138.077954 
L 607.850649 142.526854 
L 601.295797 142.526854 
L 601.295797 143.639079 
L 597.738901 143.639079 
L 597.738901 144.751304 
L 591.352982 144.751304 
L 591.352982 145.863529 
L 584.474026 145.863529 
L 584.474026 146.975754 
L 582.586739 146.975754 
L 582.586739 148.08798 
L 580.675325 148.08798 
L 580.675325 149.200205 
L 579.333333 149.200205 
L 579.333333 150.31243 
L 578.863636 150.31243 
L 578.863636 163.65913 
L 578.694263 163.65913 
L 578.694263 164.771355 
L 568.184211 164.771355 
L 568.184211 165.883581 
L 567.590909 165.883581 
L 567.590909 166.995806 
L 563.255245 166.995806 
L 563.255245 168.108031 
L 559.538961 168.108031 
L 559.538961 169.220256 
L 553.5 169.220256 
L 553.5 178.118056 
L 549.977273 178.118056 
L 549.977273 179.230281 
L 546.136364 179.230281 
L 546.136364 180.342506 
L 541.971074 180.342506 
L 541.971074 183.679182 
L 539.409091 183.679182 
L 539.409091 184.791407 
L 538.281818 184.791407 
L 538.281818 187.015857 
L 537.825843 187.015857 
L 537.825843 188.128082 
L 535.383117 188.128082 
L 535.383117 189.240307 
L 533.476077 189.240307 
L 533.476077 190.352532 
L 531.634796 190.352532 
L 531.634796 191.464757 
L 530.501884 191.464757 
L 530.501884 192.576982 
L 530.145049 192.576982 
L 530.145049 193.689207 
L 528.136364 193.689207 
L 528.136364 194.801432 
L 526.238514 194.801432 
L 526.238514 195.913657 
L 521.795455 195.913657 
L 521.795455 197.025882 
L 520.126794 197.025882 
L 520.126794 198.138107 
L 519.184492 198.138107 
L 519.184492 199.250332 
L 518.913223 199.250332 
L 518.913223 200.362558 
L 514.787081 200.362558 
L 514.787081 201.474783 
L 511.227273 201.474783 
L 511.227273 241.514885 
L 508.158472 241.514885 
L 508.158472 242.62711 
L 507.740862 242.62711 
L 507.740862 243.739335 
L 506.812366 243.739335 
L 506.812366 244.85156 
L 502.772727 244.85156 
L 502.772727 245.963785 
L 502.443329 245.963785 
L 502.443329 247.07601 
L 500.743636 247.07601 
L 500.743636 248.188235 
L 499.149351 248.188235 
L 499.149351 249.30046 
L 497.423933 249.30046 
L 497.423933 250.412685 
L 494.968531 250.412685 
L 494.968531 251.52491 
L 494.104143 251.52491 
L 494.104143 252.637136 
L 493.42823 252.637136 
L 493.42823 253.749361 
L 493.245049 253.749361 
L 493.245049 254.861586 
L 491.037313 254.861586 
L 491.037313 255.973811 
L 490.090909 255.973811 
L 490.090909 257.086036 
L 487.104885 257.086036 
L 487.104885 258.198261 
L 485.213287 258.198261 
L 485.213287 260.422711 
L 483.045455 260.422711 
L 483.045455 261.534936 
L 481.820158 261.534936 
L 481.820158 262.647161 
L 480.693482 262.647161 
L 480.693482 263.759386 
L 480.403409 263.759386 
L 480.403409 264.871611 
L 479.883592 264.871611 
L 479.883592 265.983836 
L 479.323328 265.983836 
L 479.323328 267.096061 
L 477.409091 267.096061 
L 477.409091 272.657187 
L 475.518634 272.657187 
L 475.518634 273.769412 
L 474.064436 273.769412 
L 474.064436 274.881637 
L 471.441176 274.881637 
L 471.441176 277.106087 
L 470.412226 277.106087 
L 470.412226 278.218312 
L 469.752144 278.218312 
L 469.752144 279.330537 
L 468.954545 279.330537 
L 468.954545 280.442762 
L 467.723857 280.442762 
L 467.723857 281.554987 
L 465.016093 281.554987 
L 465.016093 282.667212 
L 462.915584 282.667212 
L 462.915584 291.565013 
L 462.325218 291.565013 
L 462.325218 292.677238 
L 457.547619 292.677238 
L 457.547619 293.789463 
L 457.118182 293.789463 
L 457.118182 294.901688 
L 456.427007 294.901688 
L 456.427007 296.013913 
L 456.050239 296.013913 
L 456.050239 297.126138 
L 455.444705 297.126138 
L 455.444705 298.238363 
L 452.278148 298.238363 
L 452.278148 299.350588 
L 451.302914 299.350588 
L 451.302914 300.462813 
L 449.739669 300.462813 
L 449.739669 301.575038 
L 448.176425 301.575038 
L 448.176425 302.687263 
L 446.972727 302.687263 
L 446.972727 303.799488 
L 445.061265 303.799488 
L 445.061265 304.911714 
L 444.138572 304.911714 
L 444.054172 307.136164 
L 443.590909 307.136164 
L 443.590909 311.585064 
L 440.964536 311.585064 
L 440.964536 312.697289 
L 436.563754 312.697289 
L 436.563754 313.809514 
L 433.260283 313.809514 
L 433.260283 314.921739 
L 426.681818 314.921739 
L 426.681818 333.829565 
L 425.144628 333.829565 
L 425.144628 334.94179 
L 424.882979 334.94179 
L 424.882979 336.054015 
L 424.476285 336.054015 
L 424.476285 337.16624 
L 423.387839 337.16624 
L 423.387839 338.278465 
L 419.363668 338.278465 
L 419.363668 339.390691 
L 411.762032 339.390691 
L 411.762032 340.502916 
L 411.539349 340.502916 
L 411.539349 341.615141 
L 410.829545 341.615141 
L 410.829545 342.727366 
L 410.492263 342.727366 
L 410.492263 343.839591 
L 409.772727 343.839591 
L 409.772727 346.064041 
L 407.171329 346.064041 
L 407.171329 348.288491 
L 403.623967 348.288491 
L 403.623967 349.400716 
L 402.136364 349.400716 
L 402.136364 350.512941 
L 401.971158 350.512941 
L 401.890294 352.737391 
L 401.328283 352.737391 
L 401.318182 354.961841 
L 398.5 354.961841 
L 398.5 360.522967 
L 396.501289 360.522967 
L 396.501289 361.635192 
L 396.101547 361.635192 
L 396.101547 362.747417 
L 390.448052 362.747417 
L 390.448052 364.971867 
L 386.633971 364.971867 
L 386.633971 368.308542 
L 384.783032 368.308542 
L 384.783032 369.420767 
L 384.409091 369.420767 
L 384.409091 370.532992 
L 383.74858 370.532992 
L 383.74858 371.645217 
L 378.523015 371.645217 
L 378.523015 372.757442 
L 377.272137 372.757442 
L 377.272137 373.869668 
L 375.954545 373.869668 
L 375.954545 381.655243 
L 375.066541 381.655243 
L 375.066541 382.767468 
L 366.731405 382.767468 
L 366.731405 383.879693 
L 366.292208 383.879693 
L 366.292208 384.991918 
L 365.092849 384.991918 
L 365.092849 386.104143 
L 363.272727 386.104143 
L 363.272727 387.216368 
L 359.390538 387.216368 
L 359.390538 388.328593 
L 357.508264 388.328593 
L 357.508264 389.440818 
L 350.590909 389.440818 
L 350.590909 390.553043 
L 346.260532 390.553043 
L 346.260532 391.665269 
L 345.734043 391.665269 
L 345.734043 392.777494 
L 342.826531 392.777494 
L 342.826531 393.889719 
L 342.136364 393.889719 
L 342.136364 397.226394 
L 339.061983 397.226394 
L 339.061983 398.338619 
L 338.204017 398.338619 
L 338.204017 399.450844 
L 325.227273 399.450844 
L 325.227273 400.563069 
L 317.980519 400.563069 
L 317.980519 406.124194 
L 299.863636 406.124194 
L 299.863636 409.46087 
L 295.490596 409.46087 
L 295.490596 410.573095 
L 292.403743 410.573095 
L 292.403743 411.68532 
L 285.772727 411.68532 
L 285.772727 417.246445 
L 240.681818 417.246445 
L 240.681818 418.35867 
L 173.045455 418.35867 
L 173.045455 504 
L 173.045455 504 
" style="fill:none;stroke:#2ca02c;stroke-linecap:round;stroke-width:2.25;"/>
   </g>
   <g id="line2d_18">
    <path clip-path="url(#p5430b6be0f)" d="M 849.409091 69.12 
L 849.409091 70.232225 
L 743.727273 70.232225 
L 743.727273 71.34445 
L 726.433884 71.34445 
L 726.433884 72.456675 
L 680.318182 72.456675 
L 680.318182 100.262302 
L 656.162338 100.262302 
L 656.162338 101.374527 
L 653.619617 101.374527 
L 653.619617 102.486752 
L 650.47861 102.486752 
L 650.47861 103.598977 
L 641.297203 103.598977 
L 641.297203 104.711202 
L 629.322511 104.711202 
L 629.322511 105.823427 
L 616.909091 105.823427 
L 616.909091 106.935652 
L 607.850649 106.935652 
L 607.850649 111.384552 
L 595.772727 111.384552 
L 595.772727 112.496777 
L 578.863636 112.496777 
L 578.863636 124.731253 
L 553.5 124.731253 
L 553.5 128.067928 
L 550.313614 128.067928 
L 550.313614 129.180153 
L 548.80303 129.180153 
L 548.80303 130.292379 
L 545.355713 130.292379 
L 545.355713 131.404604 
L 535.383117 131.404604 
L 535.383117 134.741279 
L 528.136364 134.741279 
L 528.136364 135.853504 
L 521.795455 135.853504 
L 521.795455 136.965729 
L 516.43007 136.965729 
L 516.43007 138.077954 
L 514.344156 138.077954 
L 514.344156 139.190179 
L 511.227273 139.190179 
L 511.227273 168.108031 
L 508.878788 168.108031 
L 508.878788 169.220256 
L 507.520389 169.220256 
L 507.520389 170.332481 
L 497.7 170.332481 
L 497.7 171.444706 
L 493.42823 171.444706 
L 493.42823 172.556931 
L 490.090909 172.556931 
L 490.090909 173.669156 
L 485.213287 173.669156 
L 485.213287 174.781381 
L 483.377005 174.781381 
L 483.377005 175.893606 
L 483.045455 175.893606 
L 482.998406 178.118056 
L 477.409091 178.118056 
L 477.409091 181.454731 
L 472.069378 181.454731 
L 472.069378 182.566957 
L 471.441176 182.566957 
L 471.441176 183.679182 
L 468.954545 183.679182 
L 468.954545 184.791407 
L 462.915584 184.791407 
L 462.915584 188.128082 
L 461.666144 188.128082 
L 461.666144 189.240307 
L 460.638164 189.240307 
L 460.638164 190.352532 
L 457.118182 190.352532 
L 457.118182 191.464757 
L 456.174419 191.464757 
L 456.136364 193.689207 
L 456.013915 193.689207 
L 456.013915 194.801432 
L 454.863636 194.801432 
L 454.863636 195.913657 
L 449.739669 195.913657 
L 449.739669 199.250332 
L 446.630746 199.250332 
L 446.630746 200.362558 
L 443.590909 200.362558 
L 443.590909 201.474783 
L 436.075758 201.474783 
L 436.075758 202.587008 
L 434.526242 202.587008 
L 434.526242 203.699233 
L 430.624352 203.699233 
L 430.624352 204.811458 
L 429.992998 204.811458 
L 429.992998 205.923683 
L 429.469031 205.923683 
L 429.469031 207.035908 
L 426.681818 207.035908 
L 426.681818 233.729309 
L 425.300858 233.729309 
L 425.300858 234.841535 
L 418.800917 234.841535 
L 418.800917 235.95376 
L 418.672249 235.95376 
L 418.672249 237.065985 
L 416.536364 237.065985 
L 416.536364 238.17821 
L 414.603896 238.17821 
L 414.603896 239.290435 
L 413.607779 239.290435 
L 413.607779 240.40266 
L 411.762032 240.40266 
L 411.762032 241.514885 
L 410.628884 241.514885 
L 410.628884 242.62711 
L 408.42 242.62711 
L 408.42 243.739335 
L 407.539451 243.739335 
L 407.539451 244.85156 
L 407.171329 244.85156 
L 407.171329 247.07601 
L 405.739366 247.07601 
L 405.739366 248.188235 
L 403.623967 248.188235 
L 403.623967 250.412685 
L 402.65311 250.412685 
L 402.65311 251.52491 
L 401.502421 251.52491 
L 401.502421 252.637136 
L 400.699557 252.637136 
L 400.699557 253.749361 
L 399.367133 253.749361 
L 399.367133 254.861586 
L 398.5 254.861586 
L 398.5 258.198261 
L 396.689781 258.198261 
L 396.689781 259.310486 
L 396.245455 259.310486 
L 396.245455 260.422711 
L 394.977273 260.422711 
L 394.977273 261.534936 
L 394.137845 261.534936 
L 394.137845 262.647161 
L 393.898887 262.647161 
L 393.898887 263.759386 
L 393.598814 263.759386 
L 393.598814 265.983836 
L 393.182676 265.983836 
L 393.182676 267.096061 
L 391.899636 267.096061 
L 391.899636 268.208286 
L 390.448052 268.208286 
L 390.448052 269.320512 
L 387.051136 269.320512 
L 387.051136 270.432737 
L 386.670124 270.432737 
L 386.633971 272.657187 
L 385.351707 272.657187 
L 385.351707 273.769412 
L 382.571146 273.769412 
L 382.571146 274.881637 
L 382.396104 274.881637 
L 382.396104 275.993862 
L 381.513699 275.993862 
L 381.513699 277.106087 
L 380.566116 277.106087 
L 380.566116 278.218312 
L 380.310627 278.218312 
L 380.310627 279.330537 
L 377.905594 279.330537 
L 377.905594 280.442762 
L 377.468792 280.442762 
L 377.468792 281.554987 
L 375.954545 281.554987 
L 375.954545 297.126138 
L 374.785041 297.126138 
L 374.785041 298.238363 
L 374.515474 298.238363 
L 374.515474 299.350588 
L 373.423455 299.350588 
L 373.423455 300.462813 
L 370.684179 300.462813 
L 370.684179 301.575038 
L 370.318182 301.575038 
L 370.318182 302.687263 
L 370.204085 302.687263 
L 370.168773 304.911714 
L 366.292208 304.911714 
L 366.292208 307.136164 
L 365.459248 307.136164 
L 365.459248 308.248389 
L 363.657025 308.248389 
L 363.657025 309.360614 
L 363.272727 309.360614 
L 363.272727 312.697289 
L 362.197997 312.697289 
L 362.091191 314.921739 
L 360.104504 314.921739 
L 360.104504 316.033964 
L 359.935407 316.033964 
L 359.935407 317.146189 
L 358.5 317.146189 
L 358.5 318.258414 
L 357.508264 318.258414 
L 357.508264 319.370639 
L 355.663636 319.370639 
L 355.663636 320.482864 
L 352.082888 320.482864 
L 352.082888 321.59509 
L 350.920307 321.59509 
L 350.920307 322.707315 
L 344.332349 322.707315 
L 344.332349 323.81954 
L 342.136364 323.81954 
L 342.136364 328.26844 
L 339.914141 328.26844 
L 339.914141 329.380665 
L 338.466041 329.380665 
L 338.466041 330.49289 
L 336.5 330.49289 
L 336.5 331.605115 
L 335.827001 331.605115 
L 335.827001 332.71734 
L 333.236842 332.71734 
L 333.236842 336.054015 
L 331.343327 336.054015 
L 331.343327 337.16624 
L 329.129371 337.16624 
L 329.129371 339.390691 
L 324.147969 339.390691 
L 324.147969 340.502916 
L 322.811688 340.502916 
L 322.811688 341.615141 
L 322.625874 341.615141 
L 322.625874 342.727366 
L 317.980519 342.727366 
L 317.980519 352.737391 
L 317.352353 352.737391 
L 317.352353 353.849616 
L 314.609937 353.849616 
L 314.609937 354.961841 
L 313.734375 354.961841 
L 313.734375 356.074066 
L 313.612491 356.074066 
L 313.612491 357.186292 
L 308.318182 357.186292 
L 308.318182 359.410742 
L 306.538278 359.410742 
L 306.538278 360.522967 
L 305.37747 360.522967 
L 305.274808 362.747417 
L 304.804604 362.747417 
L 304.804604 363.859642 
L 302.561896 363.859642 
L 302.561896 364.971867 
L 299.863636 364.971867 
L 299.863636 371.645217 
L 299.586135 371.645217 
L 299.586135 372.757442 
L 297.27551 372.757442 
L 297.27551 373.869668 
L 296.77051 373.869668 
L 296.77051 374.981893 
L 293.134508 374.981893 
L 293.134508 376.094118 
L 292.403743 376.094118 
L 292.403743 377.206343 
L 285.772727 377.206343 
L 285.772727 381.655243 
L 279.839713 381.655243 
L 279.839713 382.767468 
L 274.5 382.767468 
L 274.5 384.991918 
L 274.250112 384.991918 
L 274.250112 386.104143 
L 265.27686 386.104143 
L 265.27686 388.328593 
L 262.941887 388.328593 
L 262.941887 389.440818 
L 257.590909 389.440818 
L 257.590909 391.665269 
L 240.681818 391.665269 
L 240.681818 392.777494 
L 223.772727 392.777494 
L 223.772727 393.889719 
L 173.045455 393.889719 
L 173.045455 504 
L 173.045455 504 
" style="fill:none;stroke:#ff7f0e;stroke-linecap:round;stroke-width:2.25;"/>
   </g>
   <g id="line2d_19">
    <path clip-path="url(#p5430b6be0f)" d="M 680.318182 69.12 
L 680.318182 74.681125 
L 616.909091 74.681125 
L 616.909091 75.79335 
L 607.850649 75.79335 
L 607.850649 79.130026 
L 578.863636 79.130026 
L 578.863636 81.354476 
L 553.5 81.354476 
L 553.5 83.578926 
L 511.227273 83.578926 
L 511.227273 86.915601 
L 493.42823 86.915601 
L 493.42823 88.027826 
L 426.681818 88.027826 
L 426.681818 90.252276 
L 407.171329 90.252276 
L 407.171329 91.364501 
L 375.954545 91.364501 
L 375.954545 94.701176 
L 366.292208 94.701176 
L 366.292208 95.813402 
L 363.272727 95.813402 
L 363.272727 96.925627 
L 342.136364 96.925627 
L 342.136364 98.037852 
L 317.980519 98.037852 
L 317.980519 99.150077 
L 299.863636 99.150077 
L 299.863636 100.262302 
L 284.533966 100.262302 
L 284.533966 101.374527 
L 274.5 101.374527 
L 274.5 103.598977 
L 251.087413 103.598977 
L 251.087413 104.711202 
L 240.681818 104.711202 
L 240.681818 105.823427 
L 236.454545 105.823427 
L 236.454545 108.047877 
L 226.442584 108.047877 
L 226.442584 109.160102 
L 223.772727 109.160102 
L 223.772727 112.496777 
L 219.161157 112.496777 
L 219.161157 113.609003 
L 213.627273 113.609003 
L 213.627273 114.721228 
L 207.243616 114.721228 
L 207.243616 115.833453 
L 206.863636 115.833453 
L 206.863636 116.945678 
L 201.227273 116.945678 
L 201.227273 119.170128 
L 199.744019 119.170128 
L 199.744019 120.282353 
L 194.631528 120.282353 
L 194.631528 121.394578 
L 192.697667 121.394578 
L 192.697667 122.506803 
L 191.833333 122.506803 
L 191.833333 123.619028 
L 191.162338 123.619028 
L 191.162338 124.731253 
L 190.904752 124.731253 
L 190.904752 125.843478 
L 188.897727 125.843478 
L 188.897727 126.955703 
L 188.653846 126.955703 
L 188.653846 128.067928 
L 183.954545 128.067928 
L 183.954545 129.180153 
L 183.72488 129.180153 
L 183.72488 131.404604 
L 183.504686 131.404604 
L 183.504686 132.516829 
L 183.190909 132.516829 
L 183.190909 133.629054 
L 182.424919 133.629054 
L 182.424919 134.741279 
L 182.251856 134.741279 
L 182.251856 135.853504 
L 182.103896 135.853504 
L 182.103896 136.965729 
L 181.791536 136.965729 
L 181.791536 138.077954 
L 181.260397 138.077954 
L 181.260397 139.190179 
L 180.84965 139.190179 
L 180.84965 140.302404 
L 180.616689 140.302404 
L 180.616689 141.414629 
L 179.947124 141.414629 
L 179.947124 142.526854 
L 179.633412 142.526854 
L 179.633412 143.639079 
L 178.385167 143.639079 
L 178.385167 144.751304 
L 177.720779 144.751304 
L 177.720779 145.863529 
L 177.246471 145.863529 
L 177.178023 149.200205 
L 176.721344 149.200205 
L 176.721344 150.31243 
L 176.525885 150.31243 
L 176.525885 151.424655 
L 175.694398 151.424655 
L 175.586053 154.76133 
L 175.393939 154.76133 
L 175.393939 155.873555 
L 175.265466 155.873555 
L 175.265466 156.98578 
L 175.153236 156.98578 
L 175.153236 158.098005 
L 175.026989 158.098005 
L 175.020239 160.322455 
L 174.661616 160.322455 
L 174.644538 162.546905 
L 174.473386 162.546905 
L 174.402078 164.771355 
L 174.332132 164.771355 
L 174.332132 165.883581 
L 174.069731 165.883581 
L 174.06 168.108031 
L 173.926136 168.108031 
L 173.832534 171.444706 
L 173.445197 171.444706 
L 173.445197 172.556931 
L 173.045455 172.556931 
L 173.045455 504 
L 173.045455 504 
" style="fill:none;stroke:#1f77b4;stroke-linecap:round;stroke-width:2.25;"/>
   </g>
   <g id="line2d_20">
    <path clip-path="url(#p5430b6be0f)" d="M 223.772727 504 
L 223.772727 69.12 
" style="fill:none;stroke:#ff0000;stroke-dasharray:11.1,4.8;stroke-dashoffset:0;stroke-width:3;"/>
   </g>
   <g id="patch_3">
    <path d="M 135 504 
L 135 69.12 
" style="fill:none;stroke:#cccccc;stroke-linecap:square;stroke-linejoin:miter;stroke-width:1.875;"/>
   </g>
   <g id="patch_4">
    <path d="M 972 504 
L 972 69.12 
" style="fill:none;stroke:#cccccc;stroke-linecap:square;stroke-linejoin:miter;stroke-width:1.875;"/>
   </g>
   <g id="patch_5">
    <path d="M 135 504 
L 972 504 
" style="fill:none;stroke:#cccccc;stroke-linecap:square;stroke-linejoin:miter;stroke-width:1.875;"/>
   </g>
   <g id="patch_6">
    <path d="M 135 69.12 
L 972 69.12 
" style="fill:none;stroke:#cccccc;stroke-linecap:square;stroke-linejoin:miter;stroke-width:1.875;"/>
   </g>
   <g id="text_17">
    <!-- CDF user distribution - users size -->
    <g style="fill:#262626;" transform="translate(404.874844 63.12)scale(0.18 -0.18)">
     <defs>
      <path d="M 4122 4306 
L 4122 3641 
Q 3803 3938 3442 4084 
Q 3081 4231 2675 4231 
Q 1875 4231 1450 3742 
Q 1025 3253 1025 2328 
Q 1025 1406 1450 917 
Q 1875 428 2675 428 
Q 3081 428 3442 575 
Q 3803 722 4122 1019 
L 4122 359 
Q 3791 134 3420 21 
Q 3050 -91 2638 -91 
Q 1578 -91 968 557 
Q 359 1206 359 2328 
Q 359 3453 968 4101 
Q 1578 4750 2638 4750 
Q 3056 4750 3426 4639 
Q 3797 4528 4122 4306 
z
" id="DejaVuSans-43" transform="scale(0.015625)"/>
      <path d="M 1259 4147 
L 1259 519 
L 2022 519 
Q 2988 519 3436 956 
Q 3884 1394 3884 2338 
Q 3884 3275 3436 3711 
Q 2988 4147 2022 4147 
L 1259 4147 
z
M 628 4666 
L 1925 4666 
Q 3281 4666 3915 4102 
Q 4550 3538 4550 2338 
Q 4550 1131 3912 565 
Q 3275 0 1925 0 
L 628 0 
L 628 4666 
z
" id="DejaVuSans-44" transform="scale(0.015625)"/>
      <path d="M 2906 2969 
L 2906 4863 
L 3481 4863 
L 3481 0 
L 2906 0 
L 2906 525 
Q 2725 213 2448 61 
Q 2172 -91 1784 -91 
Q 1150 -91 751 415 
Q 353 922 353 1747 
Q 353 2572 751 3078 
Q 1150 3584 1784 3584 
Q 2172 3584 2448 3432 
Q 2725 3281 2906 2969 
z
M 947 1747 
Q 947 1113 1208 752 
Q 1469 391 1925 391 
Q 2381 391 2643 752 
Q 2906 1113 2906 1747 
Q 2906 2381 2643 2742 
Q 2381 3103 1925 3103 
Q 1469 3103 1208 2742 
Q 947 2381 947 1747 
z
" id="DejaVuSans-64" transform="scale(0.015625)"/>
      <path d="M 3116 1747 
Q 3116 2381 2855 2742 
Q 2594 3103 2138 3103 
Q 1681 3103 1420 2742 
Q 1159 2381 1159 1747 
Q 1159 1113 1420 752 
Q 1681 391 2138 391 
Q 2594 391 2855 752 
Q 3116 1113 3116 1747 
z
M 1159 2969 
Q 1341 3281 1617 3432 
Q 1894 3584 2278 3584 
Q 2916 3584 3314 3078 
Q 3713 2572 3713 1747 
Q 3713 922 3314 415 
Q 2916 -91 2278 -91 
Q 1894 -91 1617 61 
Q 1341 213 1159 525 
L 1159 0 
L 581 0 
L 581 4863 
L 1159 4863 
L 1159 2969 
z
" id="DejaVuSans-62" transform="scale(0.015625)"/>
      <path d="M 313 2009 
L 1997 2009 
L 1997 1497 
L 313 1497 
L 313 2009 
z
" id="DejaVuSans-2d" transform="scale(0.015625)"/>
      <path d="M 353 3500 
L 3084 3500 
L 3084 2975 
L 922 459 
L 3084 459 
L 3084 0 
L 275 0 
L 275 525 
L 2438 3041 
L 353 3041 
L 353 3500 
z
" id="DejaVuSans-7a" transform="scale(0.015625)"/>
     </defs>
     <use xlink:href="#DejaVuSans-43"/>
     <use x="69.824219" xlink:href="#DejaVuSans-44"/>
     <use x="146.826172" xlink:href="#DejaVuSans-46"/>
     <use x="204.345703" xlink:href="#DejaVuSans-20"/>
     <use x="236.132812" xlink:href="#DejaVuSans-75"/>
     <use x="299.511719" xlink:href="#DejaVuSans-73"/>
     <use x="351.611328" xlink:href="#DejaVuSans-65"/>
     <use x="413.134766" xlink:href="#DejaVuSans-72"/>
     <use x="454.248047" xlink:href="#DejaVuSans-20"/>
     <use x="486.035156" xlink:href="#DejaVuSans-64"/>
     <use x="549.511719" xlink:href="#DejaVuSans-69"/>
     <use x="577.294922" xlink:href="#DejaVuSans-73"/>
     <use x="629.394531" xlink:href="#DejaVuSans-74"/>
     <use x="668.603516" xlink:href="#DejaVuSans-72"/>
     <use x="709.716797" xlink:href="#DejaVuSans-69"/>
     <use x="737.5" xlink:href="#DejaVuSans-62"/>
     <use x="800.976562" xlink:href="#DejaVuSans-75"/>
     <use x="864.355469" xlink:href="#DejaVuSans-74"/>
     <use x="903.564453" xlink:href="#DejaVuSans-69"/>
     <use x="931.347656" xlink:href="#DejaVuSans-6f"/>
     <use x="992.529297" xlink:href="#DejaVuSans-6e"/>
     <use x="1055.908203" xlink:href="#DejaVuSans-20"/>
     <use x="1087.695312" xlink:href="#DejaVuSans-2d"/>
     <use x="1123.779297" xlink:href="#DejaVuSans-20"/>
     <use x="1155.566406" xlink:href="#DejaVuSans-75"/>
     <use x="1218.945312" xlink:href="#DejaVuSans-73"/>
     <use x="1271.044922" xlink:href="#DejaVuSans-65"/>
     <use x="1332.568359" xlink:href="#DejaVuSans-72"/>
     <use x="1373.681641" xlink:href="#DejaVuSans-73"/>
     <use x="1425.78125" xlink:href="#DejaVuSans-20"/>
     <use x="1457.568359" xlink:href="#DejaVuSans-73"/>
     <use x="1509.667969" xlink:href="#DejaVuSans-69"/>
     <use x="1537.451172" xlink:href="#DejaVuSans-7a"/>
     <use x="1589.941406" xlink:href="#DejaVuSans-65"/>
    </g>
   </g>
   <g id="legend_1">
    <g id="patch_7">
     <path d="M 852.784922 495.75 
L 960.45 495.75 
Q 963.75 495.75 963.75 492.45 
L 963.75 347.334844 
Q 963.75 344.034844 960.45 344.034844 
L 852.784922 344.034844 
Q 849.484922 344.034844 849.484922 347.334844 
L 849.484922 492.45 
Q 849.484922 495.75 852.784922 495.75 
z
" style="fill:#ffffff;opacity:0.8;stroke:#cccccc;stroke-linejoin:miter;stroke-width:1.5;"/>
    </g>
    <g id="text_18">
     <!-- K-Means -->
     <g style="fill:#262626;" transform="translate(869.202773 364.312031)scale(0.18 -0.18)">
      <defs>
       <path d="M 628 4666 
L 1259 4666 
L 1259 2694 
L 3353 4666 
L 4166 4666 
L 1850 2491 
L 4331 0 
L 3500 0 
L 1259 2247 
L 1259 0 
L 628 0 
L 628 4666 
z
" id="DejaVuSans-4b" transform="scale(0.015625)"/>
       <path d="M 628 4666 
L 1569 4666 
L 2759 1491 
L 3956 4666 
L 4897 4666 
L 4897 0 
L 4281 0 
L 4281 4097 
L 3078 897 
L 2444 897 
L 1241 4097 
L 1241 0 
L 628 0 
L 628 4666 
z
" id="DejaVuSans-4d" transform="scale(0.015625)"/>
      </defs>
      <use xlink:href="#DejaVuSans-4b"/>
      <use x="55.076172" xlink:href="#DejaVuSans-2d"/>
      <use x="91.160156" xlink:href="#DejaVuSans-4d"/>
      <use x="177.439453" xlink:href="#DejaVuSans-65"/>
      <use x="238.962891" xlink:href="#DejaVuSans-61"/>
      <use x="300.242188" xlink:href="#DejaVuSans-6e"/>
      <use x="363.621094" xlink:href="#DejaVuSans-73"/>
     </g>
    </g>
    <g id="line2d_21">
     <path d="M 856.084922 383.067891 
L 889.084922 383.067891 
" style="fill:none;stroke:#9467bd;stroke-linecap:round;stroke-width:2.25;"/>
    </g>
    <g id="line2d_22"/>
    <g id="text_19">
     <!-- k = 10 -->
     <g style="fill:#262626;" transform="translate(902.284922 388.842891)scale(0.165 -0.165)">
      <defs>
       <path d="M 581 4863 
L 1159 4863 
L 1159 1991 
L 2875 3500 
L 3609 3500 
L 1753 1863 
L 3688 0 
L 2938 0 
L 1159 1709 
L 1159 0 
L 581 0 
L 581 4863 
z
" id="DejaVuSans-6b" transform="scale(0.015625)"/>
       <path d="M 678 2906 
L 4684 2906 
L 4684 2381 
L 678 2381 
L 678 2906 
z
M 678 1631 
L 4684 1631 
L 4684 1100 
L 678 1100 
L 678 1631 
z
" id="DejaVuSans-3d" transform="scale(0.015625)"/>
      </defs>
      <use xlink:href="#DejaVuSans-6b"/>
      <use x="57.910156" xlink:href="#DejaVuSans-20"/>
      <use x="89.697266" xlink:href="#DejaVuSans-3d"/>
      <use x="173.486328" xlink:href="#DejaVuSans-20"/>
      <use x="205.273438" xlink:href="#DejaVuSans-31"/>
      <use x="268.896484" xlink:href="#DejaVuSans-30"/>
     </g>
    </g>
    <g id="line2d_23">
     <path d="M 856.084922 407.286797 
L 889.084922 407.286797 
" style="fill:none;stroke:#d62728;stroke-linecap:round;stroke-width:2.25;"/>
    </g>
    <g id="line2d_24"/>
    <g id="text_20">
     <!-- k = 8 -->
     <g style="fill:#262626;" transform="translate(902.284922 413.061797)scale(0.165 -0.165)">
      <use xlink:href="#DejaVuSans-6b"/>
      <use x="57.910156" xlink:href="#DejaVuSans-20"/>
      <use x="89.697266" xlink:href="#DejaVuSans-3d"/>
      <use x="173.486328" xlink:href="#DejaVuSans-20"/>
      <use x="205.273438" xlink:href="#DejaVuSans-38"/>
     </g>
    </g>
    <g id="line2d_25">
     <path d="M 856.084922 431.505703 
L 889.084922 431.505703 
" style="fill:none;stroke:#2ca02c;stroke-linecap:round;stroke-width:2.25;"/>
    </g>
    <g id="line2d_26"/>
    <g id="text_21">
     <!-- k = 6 -->
     <g style="fill:#262626;" transform="translate(902.284922 437.280703)scale(0.165 -0.165)">
      <use xlink:href="#DejaVuSans-6b"/>
      <use x="57.910156" xlink:href="#DejaVuSans-20"/>
      <use x="89.697266" xlink:href="#DejaVuSans-3d"/>
      <use x="173.486328" xlink:href="#DejaVuSans-20"/>
      <use x="205.273438" xlink:href="#DejaVuSans-36"/>
     </g>
    </g>
    <g id="line2d_27">
     <path d="M 856.084922 455.724609 
L 889.084922 455.724609 
" style="fill:none;stroke:#ff7f0e;stroke-linecap:round;stroke-width:2.25;"/>
    </g>
    <g id="line2d_28"/>
    <g id="text_22">
     <!-- k = 4 -->
     <g style="fill:#262626;" transform="translate(902.284922 461.499609)scale(0.165 -0.165)">
      <use xlink:href="#DejaVuSans-6b"/>
      <use x="57.910156" xlink:href="#DejaVuSans-20"/>
      <use x="89.697266" xlink:href="#DejaVuSans-3d"/>
      <use x="173.486328" xlink:href="#DejaVuSans-20"/>
      <use x="205.273438" xlink:href="#DejaVuSans-34"/>
     </g>
    </g>
    <g id="line2d_29">
     <path d="M 856.084922 479.943516 
L 889.084922 479.943516 
" style="fill:none;stroke:#1f77b4;stroke-linecap:round;stroke-width:2.25;"/>
    </g>
    <g id="line2d_30"/>
    <g id="text_23">
     <!-- k = 2 -->
     <g style="fill:#262626;" transform="translate(902.284922 485.718516)scale(0.165 -0.165)">
      <use xlink:href="#DejaVuSans-6b"/>
      <use x="57.910156" xlink:href="#DejaVuSans-20"/>
      <use x="89.697266" xlink:href="#DejaVuSans-3d"/>
      <use x="173.486328" xlink:href="#DejaVuSans-20"/>
      <use x="205.273438" xlink:href="#DejaVuSans-32"/>
     </g>
    </g>
   </g>
  </g>
 </g>
 <defs>
  <clipPath id="p5430b6be0f">
   <rect height="434.88" width="837" x="135" y="69.12"/>
  </clipPath>
 </defs>
</svg>
