<?xml version="1.0" encoding="utf-8" standalone="no"?>
<!DOCTYPE svg PUBLIC "-//W3C//DTD SVG 1.1//EN"
  "http://www.w3.org/Graphics/SVG/1.1/DTD/svg11.dtd">
<!-- Created with matplotlib (https://matplotlib.org/) -->
<svg height="576pt" version="1.1" viewBox="0 0 1080 576" width="1080pt" xmlns="http://www.w3.org/2000/svg" xmlns:xlink="http://www.w3.org/1999/xlink">
 <metadata>
  <rdf:RDF xmlns:cc="http://creativecommons.org/ns#" xmlns:dc="http://purl.org/dc/elements/1.1/" xmlns:rdf="http://www.w3.org/1999/02/22-rdf-syntax-ns#">
   <cc:Work>
    <dc:type rdf:resource="http://purl.org/dc/dcmitype/StillImage"/>
    <dc:date>2021-10-28T16:32:02.135870</dc:date>
    <dc:format>image/svg+xml</dc:format>
    <dc:creator>
     <cc:Agent>
      <dc:title>Matplotlib v3.3.2, https://matplotlib.org/</dc:title>
     </cc:Agent>
    </dc:creator>
   </cc:Work>
  </rdf:RDF>
 </metadata>
 <defs>
  <style type="text/css">*{stroke-linecap:butt;stroke-linejoin:round;}</style>
 </defs>
 <g id="figure_1">
  <g id="patch_1">
   <path d="M 0 576 
L 1080 576 
L 1080 0 
L 0 0 
z
" style="fill:#ffffff;"/>
  </g>
  <g id="axes_1">
   <g id="patch_2">
    <path d="M 135 504 
L 972 504 
L 972 69.12 
L 135 69.12 
z
" style="fill:#ffffff;"/>
   </g>
   <g id="matplotlib.axis_1">
    <g id="xtick_1">
     <g id="line2d_1">
      <path clip-path="url(#p7c62f1e871)" d="M 883.227273 504 
L 883.227273 69.12 
" style="fill:none;stroke:#999999;stroke-dasharray:1.5,2.475;stroke-dashoffset:0;stroke-width:1.5;"/>
     </g>
     <g id="text_1">
      <!-- 0.3 -->
      <g style="fill:#262626;" transform="translate(870.107195 529.037422)scale(0.165 -0.165)">
       <defs>
        <path d="M 31.78125 66.40625 
Q 24.171875 66.40625 20.328125 58.90625 
Q 16.5 51.421875 16.5 36.375 
Q 16.5 21.390625 20.328125 13.890625 
Q 24.171875 6.390625 31.78125 6.390625 
Q 39.453125 6.390625 43.28125 13.890625 
Q 47.125 21.390625 47.125 36.375 
Q 47.125 51.421875 43.28125 58.90625 
Q 39.453125 66.40625 31.78125 66.40625 
z
M 31.78125 74.21875 
Q 44.046875 74.21875 50.515625 64.515625 
Q 56.984375 54.828125 56.984375 36.375 
Q 56.984375 17.96875 50.515625 8.265625 
Q 44.046875 -1.421875 31.78125 -1.421875 
Q 19.53125 -1.421875 13.0625 8.265625 
Q 6.59375 17.96875 6.59375 36.375 
Q 6.59375 54.828125 13.0625 64.515625 
Q 19.53125 74.21875 31.78125 74.21875 
z
" id="DejaVuSans-48"/>
        <path d="M 10.6875 12.40625 
L 21 12.40625 
L 21 0 
L 10.6875 0 
z
" id="DejaVuSans-46"/>
        <path d="M 40.578125 39.3125 
Q 47.65625 37.796875 51.625 33 
Q 55.609375 28.21875 55.609375 21.1875 
Q 55.609375 10.40625 48.1875 4.484375 
Q 40.765625 -1.421875 27.09375 -1.421875 
Q 22.515625 -1.421875 17.65625 -0.515625 
Q 12.796875 0.390625 7.625 2.203125 
L 7.625 11.71875 
Q 11.71875 9.328125 16.59375 8.109375 
Q 21.484375 6.890625 26.8125 6.890625 
Q 36.078125 6.890625 40.9375 10.546875 
Q 45.796875 14.203125 45.796875 21.1875 
Q 45.796875 27.640625 41.28125 31.265625 
Q 36.765625 34.90625 28.71875 34.90625 
L 20.21875 34.90625 
L 20.21875 43.015625 
L 29.109375 43.015625 
Q 36.375 43.015625 40.234375 45.921875 
Q 44.09375 48.828125 44.09375 54.296875 
Q 44.09375 59.90625 40.109375 62.90625 
Q 36.140625 65.921875 28.71875 65.921875 
Q 24.65625 65.921875 20.015625 65.03125 
Q 15.375 64.15625 9.8125 62.3125 
L 9.8125 71.09375 
Q 15.4375 72.65625 20.34375 73.4375 
Q 25.25 74.21875 29.59375 74.21875 
Q 40.828125 74.21875 47.359375 69.109375 
Q 53.90625 64.015625 53.90625 55.328125 
Q 53.90625 49.265625 50.4375 45.09375 
Q 46.96875 40.921875 40.578125 39.3125 
z
" id="DejaVuSans-51"/>
       </defs>
       <use xlink:href="#DejaVuSans-48"/>
       <use x="63.623047" xlink:href="#DejaVuSans-46"/>
       <use x="95.410156" xlink:href="#DejaVuSans-51"/>
      </g>
     </g>
    </g>
    <g id="xtick_2">
     <g id="line2d_2">
      <path clip-path="url(#p7c62f1e871)" d="M 781.772727 504 
L 781.772727 69.12 
" style="fill:none;stroke:#999999;stroke-dasharray:1.5,2.475;stroke-dashoffset:0;stroke-width:1.5;"/>
     </g>
     <g id="text_2">
      <!-- 0.4 -->
      <g style="fill:#262626;" transform="translate(768.652649 529.037422)scale(0.165 -0.165)">
       <defs>
        <path d="M 37.796875 64.3125 
L 12.890625 25.390625 
L 37.796875 25.390625 
z
M 35.203125 72.90625 
L 47.609375 72.90625 
L 47.609375 25.390625 
L 58.015625 25.390625 
L 58.015625 17.1875 
L 47.609375 17.1875 
L 47.609375 0 
L 37.796875 0 
L 37.796875 17.1875 
L 4.890625 17.1875 
L 4.890625 26.703125 
z
" id="DejaVuSans-52"/>
       </defs>
       <use xlink:href="#DejaVuSans-48"/>
       <use x="63.623047" xlink:href="#DejaVuSans-46"/>
       <use x="95.410156" xlink:href="#DejaVuSans-52"/>
      </g>
     </g>
    </g>
    <g id="xtick_3">
     <g id="line2d_3">
      <path clip-path="url(#p7c62f1e871)" d="M 680.318182 504 
L 680.318182 69.12 
" style="fill:none;stroke:#999999;stroke-dasharray:1.5,2.475;stroke-dashoffset:0;stroke-width:1.5;"/>
     </g>
     <g id="text_3">
      <!-- 0.5 -->
      <g style="fill:#262626;" transform="translate(667.198104 529.037422)scale(0.165 -0.165)">
       <defs>
        <path d="M 10.796875 72.90625 
L 49.515625 72.90625 
L 49.515625 64.59375 
L 19.828125 64.59375 
L 19.828125 46.734375 
Q 21.96875 47.46875 24.109375 47.828125 
Q 26.265625 48.1875 28.421875 48.1875 
Q 40.625 48.1875 47.75 41.5 
Q 54.890625 34.8125 54.890625 23.390625 
Q 54.890625 11.625 47.5625 5.09375 
Q 40.234375 -1.421875 26.90625 -1.421875 
Q 22.3125 -1.421875 17.546875 -0.640625 
Q 12.796875 0.140625 7.71875 1.703125 
L 7.71875 11.625 
Q 12.109375 9.234375 16.796875 8.0625 
Q 21.484375 6.890625 26.703125 6.890625 
Q 35.15625 6.890625 40.078125 11.328125 
Q 45.015625 15.765625 45.015625 23.390625 
Q 45.015625 31 40.078125 35.4375 
Q 35.15625 39.890625 26.703125 39.890625 
Q 22.75 39.890625 18.8125 39.015625 
Q 14.890625 38.140625 10.796875 36.28125 
z
" id="DejaVuSans-53"/>
       </defs>
       <use xlink:href="#DejaVuSans-48"/>
       <use x="63.623047" xlink:href="#DejaVuSans-46"/>
       <use x="95.410156" xlink:href="#DejaVuSans-53"/>
      </g>
     </g>
    </g>
    <g id="xtick_4">
     <g id="line2d_4">
      <path clip-path="url(#p7c62f1e871)" d="M 578.863636 504 
L 578.863636 69.12 
" style="fill:none;stroke:#999999;stroke-dasharray:1.5,2.475;stroke-dashoffset:0;stroke-width:1.5;"/>
     </g>
     <g id="text_4">
      <!-- 0.6 -->
      <g style="fill:#262626;" transform="translate(565.743558 529.037422)scale(0.165 -0.165)">
       <defs>
        <path d="M 33.015625 40.375 
Q 26.375 40.375 22.484375 35.828125 
Q 18.609375 31.296875 18.609375 23.390625 
Q 18.609375 15.53125 22.484375 10.953125 
Q 26.375 6.390625 33.015625 6.390625 
Q 39.65625 6.390625 43.53125 10.953125 
Q 47.40625 15.53125 47.40625 23.390625 
Q 47.40625 31.296875 43.53125 35.828125 
Q 39.65625 40.375 33.015625 40.375 
z
M 52.59375 71.296875 
L 52.59375 62.3125 
Q 48.875 64.0625 45.09375 64.984375 
Q 41.3125 65.921875 37.59375 65.921875 
Q 27.828125 65.921875 22.671875 59.328125 
Q 17.53125 52.734375 16.796875 39.40625 
Q 19.671875 43.65625 24.015625 45.921875 
Q 28.375 48.1875 33.59375 48.1875 
Q 44.578125 48.1875 50.953125 41.515625 
Q 57.328125 34.859375 57.328125 23.390625 
Q 57.328125 12.15625 50.6875 5.359375 
Q 44.046875 -1.421875 33.015625 -1.421875 
Q 20.359375 -1.421875 13.671875 8.265625 
Q 6.984375 17.96875 6.984375 36.375 
Q 6.984375 53.65625 15.1875 63.9375 
Q 23.390625 74.21875 37.203125 74.21875 
Q 40.921875 74.21875 44.703125 73.484375 
Q 48.484375 72.75 52.59375 71.296875 
z
" id="DejaVuSans-54"/>
       </defs>
       <use xlink:href="#DejaVuSans-48"/>
       <use x="63.623047" xlink:href="#DejaVuSans-46"/>
       <use x="95.410156" xlink:href="#DejaVuSans-54"/>
      </g>
     </g>
    </g>
    <g id="xtick_5">
     <g id="line2d_5">
      <path clip-path="url(#p7c62f1e871)" d="M 477.409091 504 
L 477.409091 69.12 
" style="fill:none;stroke:#999999;stroke-dasharray:1.5,2.475;stroke-dashoffset:0;stroke-width:1.5;"/>
     </g>
     <g id="text_5">
      <!-- 0.7 -->
      <g style="fill:#262626;" transform="translate(464.289013 529.037422)scale(0.165 -0.165)">
       <defs>
        <path d="M 8.203125 72.90625 
L 55.078125 72.90625 
L 55.078125 68.703125 
L 28.609375 0 
L 18.3125 0 
L 43.21875 64.59375 
L 8.203125 64.59375 
z
" id="DejaVuSans-55"/>
       </defs>
       <use xlink:href="#DejaVuSans-48"/>
       <use x="63.623047" xlink:href="#DejaVuSans-46"/>
       <use x="95.410156" xlink:href="#DejaVuSans-55"/>
      </g>
     </g>
    </g>
    <g id="xtick_6">
     <g id="line2d_6">
      <path clip-path="url(#p7c62f1e871)" d="M 375.954545 504 
L 375.954545 69.12 
" style="fill:none;stroke:#999999;stroke-dasharray:1.5,2.475;stroke-dashoffset:0;stroke-width:1.5;"/>
     </g>
     <g id="text_6">
      <!-- 0.8 -->
      <g style="fill:#262626;" transform="translate(362.834467 529.037422)scale(0.165 -0.165)">
       <defs>
        <path d="M 31.78125 34.625 
Q 24.75 34.625 20.71875 30.859375 
Q 16.703125 27.09375 16.703125 20.515625 
Q 16.703125 13.921875 20.71875 10.15625 
Q 24.75 6.390625 31.78125 6.390625 
Q 38.8125 6.390625 42.859375 10.171875 
Q 46.921875 13.96875 46.921875 20.515625 
Q 46.921875 27.09375 42.890625 30.859375 
Q 38.875 34.625 31.78125 34.625 
z
M 21.921875 38.8125 
Q 15.578125 40.375 12.03125 44.71875 
Q 8.5 49.078125 8.5 55.328125 
Q 8.5 64.0625 14.71875 69.140625 
Q 20.953125 74.21875 31.78125 74.21875 
Q 42.671875 74.21875 48.875 69.140625 
Q 55.078125 64.0625 55.078125 55.328125 
Q 55.078125 49.078125 51.53125 44.71875 
Q 48 40.375 41.703125 38.8125 
Q 48.828125 37.15625 52.796875 32.3125 
Q 56.78125 27.484375 56.78125 20.515625 
Q 56.78125 9.90625 50.3125 4.234375 
Q 43.84375 -1.421875 31.78125 -1.421875 
Q 19.734375 -1.421875 13.25 4.234375 
Q 6.78125 9.90625 6.78125 20.515625 
Q 6.78125 27.484375 10.78125 32.3125 
Q 14.796875 37.15625 21.921875 38.8125 
z
M 18.3125 54.390625 
Q 18.3125 48.734375 21.84375 45.5625 
Q 25.390625 42.390625 31.78125 42.390625 
Q 38.140625 42.390625 41.71875 45.5625 
Q 45.3125 48.734375 45.3125 54.390625 
Q 45.3125 60.0625 41.71875 63.234375 
Q 38.140625 66.40625 31.78125 66.40625 
Q 25.390625 66.40625 21.84375 63.234375 
Q 18.3125 60.0625 18.3125 54.390625 
z
" id="DejaVuSans-56"/>
       </defs>
       <use xlink:href="#DejaVuSans-48"/>
       <use x="63.623047" xlink:href="#DejaVuSans-46"/>
       <use x="95.410156" xlink:href="#DejaVuSans-56"/>
      </g>
     </g>
    </g>
    <g id="xtick_7">
     <g id="line2d_7">
      <path clip-path="url(#p7c62f1e871)" d="M 274.5 504 
L 274.5 69.12 
" style="fill:none;stroke:#999999;stroke-dasharray:1.5,2.475;stroke-dashoffset:0;stroke-width:1.5;"/>
     </g>
     <g id="text_7">
      <!-- 0.9 -->
      <g style="fill:#262626;" transform="translate(261.379922 529.037422)scale(0.165 -0.165)">
       <defs>
        <path d="M 10.984375 1.515625 
L 10.984375 10.5 
Q 14.703125 8.734375 18.5 7.8125 
Q 22.3125 6.890625 25.984375 6.890625 
Q 35.75 6.890625 40.890625 13.453125 
Q 46.046875 20.015625 46.78125 33.40625 
Q 43.953125 29.203125 39.59375 26.953125 
Q 35.25 24.703125 29.984375 24.703125 
Q 19.046875 24.703125 12.671875 31.3125 
Q 6.296875 37.9375 6.296875 49.421875 
Q 6.296875 60.640625 12.9375 67.421875 
Q 19.578125 74.21875 30.609375 74.21875 
Q 43.265625 74.21875 49.921875 64.515625 
Q 56.59375 54.828125 56.59375 36.375 
Q 56.59375 19.140625 48.40625 8.859375 
Q 40.234375 -1.421875 26.421875 -1.421875 
Q 22.703125 -1.421875 18.890625 -0.6875 
Q 15.09375 0.046875 10.984375 1.515625 
z
M 30.609375 32.421875 
Q 37.25 32.421875 41.125 36.953125 
Q 45.015625 41.5 45.015625 49.421875 
Q 45.015625 57.28125 41.125 61.84375 
Q 37.25 66.40625 30.609375 66.40625 
Q 23.96875 66.40625 20.09375 61.84375 
Q 16.21875 57.28125 16.21875 49.421875 
Q 16.21875 41.5 20.09375 36.953125 
Q 23.96875 32.421875 30.609375 32.421875 
z
" id="DejaVuSans-57"/>
       </defs>
       <use xlink:href="#DejaVuSans-48"/>
       <use x="63.623047" xlink:href="#DejaVuSans-46"/>
       <use x="95.410156" xlink:href="#DejaVuSans-57"/>
      </g>
     </g>
    </g>
    <g id="xtick_8">
     <g id="line2d_8">
      <path clip-path="url(#p7c62f1e871)" d="M 173.045455 504 
L 173.045455 69.12 
" style="fill:none;stroke:#999999;stroke-dasharray:1.5,2.475;stroke-dashoffset:0;stroke-width:1.5;"/>
     </g>
     <g id="text_8">
      <!-- 1.0 -->
      <g style="fill:#262626;" transform="translate(159.925376 529.037422)scale(0.165 -0.165)">
       <defs>
        <path d="M 12.40625 8.296875 
L 28.515625 8.296875 
L 28.515625 63.921875 
L 10.984375 60.40625 
L 10.984375 69.390625 
L 28.421875 72.90625 
L 38.28125 72.90625 
L 38.28125 8.296875 
L 54.390625 8.296875 
L 54.390625 0 
L 12.40625 0 
z
" id="DejaVuSans-49"/>
       </defs>
       <use xlink:href="#DejaVuSans-49"/>
       <use x="63.623047" xlink:href="#DejaVuSans-46"/>
       <use x="95.410156" xlink:href="#DejaVuSans-48"/>
      </g>
     </g>
    </g>
    <g id="text_9">
     <!-- F (largest ratio of users in a cluster) -->
     <g style="fill:#262626;" transform="translate(392.182031 550.146094)scale(0.18 -0.18)">
      <defs>
       <path d="M 9.8125 72.90625 
L 51.703125 72.90625 
L 51.703125 64.59375 
L 19.671875 64.59375 
L 19.671875 43.109375 
L 48.578125 43.109375 
L 48.578125 34.8125 
L 19.671875 34.8125 
L 19.671875 0 
L 9.8125 0 
z
" id="DejaVuSans-70"/>
       <path id="DejaVuSans-32"/>
       <path d="M 31 75.875 
Q 24.46875 64.65625 21.28125 53.65625 
Q 18.109375 42.671875 18.109375 31.390625 
Q 18.109375 20.125 21.3125 9.0625 
Q 24.515625 -2 31 -13.1875 
L 23.1875 -13.1875 
Q 15.875 -1.703125 12.234375 9.375 
Q 8.59375 20.453125 8.59375 31.390625 
Q 8.59375 42.28125 12.203125 53.3125 
Q 15.828125 64.359375 23.1875 75.875 
z
" id="DejaVuSans-40"/>
       <path d="M 9.421875 75.984375 
L 18.40625 75.984375 
L 18.40625 0 
L 9.421875 0 
z
" id="DejaVuSans-108"/>
       <path d="M 34.28125 27.484375 
Q 23.390625 27.484375 19.1875 25 
Q 14.984375 22.515625 14.984375 16.5 
Q 14.984375 11.71875 18.140625 8.90625 
Q 21.296875 6.109375 26.703125 6.109375 
Q 34.1875 6.109375 38.703125 11.40625 
Q 43.21875 16.703125 43.21875 25.484375 
L 43.21875 27.484375 
z
M 52.203125 31.203125 
L 52.203125 0 
L 43.21875 0 
L 43.21875 8.296875 
Q 40.140625 3.328125 35.546875 0.953125 
Q 30.953125 -1.421875 24.3125 -1.421875 
Q 15.921875 -1.421875 10.953125 3.296875 
Q 6 8.015625 6 15.921875 
Q 6 25.140625 12.171875 29.828125 
Q 18.359375 34.515625 30.609375 34.515625 
L 43.21875 34.515625 
L 43.21875 35.40625 
Q 43.21875 41.609375 39.140625 45 
Q 35.0625 48.390625 27.6875 48.390625 
Q 23 48.390625 18.546875 47.265625 
Q 14.109375 46.140625 10.015625 43.890625 
L 10.015625 52.203125 
Q 14.9375 54.109375 19.578125 55.046875 
Q 24.21875 56 28.609375 56 
Q 40.484375 56 46.34375 49.84375 
Q 52.203125 43.703125 52.203125 31.203125 
z
" id="DejaVuSans-97"/>
       <path d="M 41.109375 46.296875 
Q 39.59375 47.171875 37.8125 47.578125 
Q 36.03125 48 33.890625 48 
Q 26.265625 48 22.1875 43.046875 
Q 18.109375 38.09375 18.109375 28.8125 
L 18.109375 0 
L 9.078125 0 
L 9.078125 54.6875 
L 18.109375 54.6875 
L 18.109375 46.1875 
Q 20.953125 51.171875 25.484375 53.578125 
Q 30.03125 56 36.53125 56 
Q 37.453125 56 38.578125 55.875 
Q 39.703125 55.765625 41.0625 55.515625 
z
" id="DejaVuSans-114"/>
       <path d="M 45.40625 27.984375 
Q 45.40625 37.75 41.375 43.109375 
Q 37.359375 48.484375 30.078125 48.484375 
Q 22.859375 48.484375 18.828125 43.109375 
Q 14.796875 37.75 14.796875 27.984375 
Q 14.796875 18.265625 18.828125 12.890625 
Q 22.859375 7.515625 30.078125 7.515625 
Q 37.359375 7.515625 41.375 12.890625 
Q 45.40625 18.265625 45.40625 27.984375 
z
M 54.390625 6.78125 
Q 54.390625 -7.171875 48.1875 -13.984375 
Q 42 -20.796875 29.203125 -20.796875 
Q 24.46875 -20.796875 20.265625 -20.09375 
Q 16.0625 -19.390625 12.109375 -17.921875 
L 12.109375 -9.1875 
Q 16.0625 -11.328125 19.921875 -12.34375 
Q 23.78125 -13.375 27.78125 -13.375 
Q 36.625 -13.375 41.015625 -8.765625 
Q 45.40625 -4.15625 45.40625 5.171875 
L 45.40625 9.625 
Q 42.625 4.78125 38.28125 2.390625 
Q 33.9375 0 27.875 0 
Q 17.828125 0 11.671875 7.65625 
Q 5.515625 15.328125 5.515625 27.984375 
Q 5.515625 40.671875 11.671875 48.328125 
Q 17.828125 56 27.875 56 
Q 33.9375 56 38.28125 53.609375 
Q 42.625 51.21875 45.40625 46.390625 
L 45.40625 54.6875 
L 54.390625 54.6875 
z
" id="DejaVuSans-103"/>
       <path d="M 56.203125 29.59375 
L 56.203125 25.203125 
L 14.890625 25.203125 
Q 15.484375 15.921875 20.484375 11.0625 
Q 25.484375 6.203125 34.421875 6.203125 
Q 39.59375 6.203125 44.453125 7.46875 
Q 49.3125 8.734375 54.109375 11.28125 
L 54.109375 2.78125 
Q 49.265625 0.734375 44.1875 -0.34375 
Q 39.109375 -1.421875 33.890625 -1.421875 
Q 20.796875 -1.421875 13.15625 6.1875 
Q 5.515625 13.8125 5.515625 26.8125 
Q 5.515625 40.234375 12.765625 48.109375 
Q 20.015625 56 32.328125 56 
Q 43.359375 56 49.78125 48.890625 
Q 56.203125 41.796875 56.203125 29.59375 
z
M 47.21875 32.234375 
Q 47.125 39.59375 43.09375 43.984375 
Q 39.0625 48.390625 32.421875 48.390625 
Q 24.90625 48.390625 20.390625 44.140625 
Q 15.875 39.890625 15.1875 32.171875 
z
" id="DejaVuSans-101"/>
       <path d="M 44.28125 53.078125 
L 44.28125 44.578125 
Q 40.484375 46.53125 36.375 47.5 
Q 32.28125 48.484375 27.875 48.484375 
Q 21.1875 48.484375 17.84375 46.4375 
Q 14.5 44.390625 14.5 40.28125 
Q 14.5 37.15625 16.890625 35.375 
Q 19.28125 33.59375 26.515625 31.984375 
L 29.59375 31.296875 
Q 39.15625 29.25 43.1875 25.515625 
Q 47.21875 21.78125 47.21875 15.09375 
Q 47.21875 7.46875 41.1875 3.015625 
Q 35.15625 -1.421875 24.609375 -1.421875 
Q 20.21875 -1.421875 15.453125 -0.5625 
Q 10.6875 0.296875 5.421875 2 
L 5.421875 11.28125 
Q 10.40625 8.6875 15.234375 7.390625 
Q 20.0625 6.109375 24.8125 6.109375 
Q 31.15625 6.109375 34.5625 8.28125 
Q 37.984375 10.453125 37.984375 14.40625 
Q 37.984375 18.0625 35.515625 20.015625 
Q 33.0625 21.96875 24.703125 23.78125 
L 21.578125 24.515625 
Q 13.234375 26.265625 9.515625 29.90625 
Q 5.8125 33.546875 5.8125 39.890625 
Q 5.8125 47.609375 11.28125 51.796875 
Q 16.75 56 26.8125 56 
Q 31.78125 56 36.171875 55.265625 
Q 40.578125 54.546875 44.28125 53.078125 
z
" id="DejaVuSans-115"/>
       <path d="M 18.3125 70.21875 
L 18.3125 54.6875 
L 36.8125 54.6875 
L 36.8125 47.703125 
L 18.3125 47.703125 
L 18.3125 18.015625 
Q 18.3125 11.328125 20.140625 9.421875 
Q 21.96875 7.515625 27.59375 7.515625 
L 36.8125 7.515625 
L 36.8125 0 
L 27.59375 0 
Q 17.1875 0 13.234375 3.875 
Q 9.28125 7.765625 9.28125 18.015625 
L 9.28125 47.703125 
L 2.6875 47.703125 
L 2.6875 54.6875 
L 9.28125 54.6875 
L 9.28125 70.21875 
z
" id="DejaVuSans-116"/>
       <path d="M 9.421875 54.6875 
L 18.40625 54.6875 
L 18.40625 0 
L 9.421875 0 
z
M 9.421875 75.984375 
L 18.40625 75.984375 
L 18.40625 64.59375 
L 9.421875 64.59375 
z
" id="DejaVuSans-105"/>
       <path d="M 30.609375 48.390625 
Q 23.390625 48.390625 19.1875 42.75 
Q 14.984375 37.109375 14.984375 27.296875 
Q 14.984375 17.484375 19.15625 11.84375 
Q 23.34375 6.203125 30.609375 6.203125 
Q 37.796875 6.203125 41.984375 11.859375 
Q 46.1875 17.53125 46.1875 27.296875 
Q 46.1875 37.015625 41.984375 42.703125 
Q 37.796875 48.390625 30.609375 48.390625 
z
M 30.609375 56 
Q 42.328125 56 49.015625 48.375 
Q 55.71875 40.765625 55.71875 27.296875 
Q 55.71875 13.875 49.015625 6.21875 
Q 42.328125 -1.421875 30.609375 -1.421875 
Q 18.84375 -1.421875 12.171875 6.21875 
Q 5.515625 13.875 5.515625 27.296875 
Q 5.515625 40.765625 12.171875 48.375 
Q 18.84375 56 30.609375 56 
z
" id="DejaVuSans-111"/>
       <path d="M 37.109375 75.984375 
L 37.109375 68.5 
L 28.515625 68.5 
Q 23.6875 68.5 21.796875 66.546875 
Q 19.921875 64.59375 19.921875 59.515625 
L 19.921875 54.6875 
L 34.71875 54.6875 
L 34.71875 47.703125 
L 19.921875 47.703125 
L 19.921875 0 
L 10.890625 0 
L 10.890625 47.703125 
L 2.296875 47.703125 
L 2.296875 54.6875 
L 10.890625 54.6875 
L 10.890625 58.5 
Q 10.890625 67.625 15.140625 71.796875 
Q 19.390625 75.984375 28.609375 75.984375 
z
" id="DejaVuSans-102"/>
       <path d="M 8.5 21.578125 
L 8.5 54.6875 
L 17.484375 54.6875 
L 17.484375 21.921875 
Q 17.484375 14.15625 20.5 10.265625 
Q 23.53125 6.390625 29.59375 6.390625 
Q 36.859375 6.390625 41.078125 11.03125 
Q 45.3125 15.671875 45.3125 23.6875 
L 45.3125 54.6875 
L 54.296875 54.6875 
L 54.296875 0 
L 45.3125 0 
L 45.3125 8.40625 
Q 42.046875 3.421875 37.71875 1 
Q 33.40625 -1.421875 27.6875 -1.421875 
Q 18.265625 -1.421875 13.375 4.4375 
Q 8.5 10.296875 8.5 21.578125 
z
M 31.109375 56 
z
" id="DejaVuSans-117"/>
       <path d="M 54.890625 33.015625 
L 54.890625 0 
L 45.90625 0 
L 45.90625 32.71875 
Q 45.90625 40.484375 42.875 44.328125 
Q 39.84375 48.1875 33.796875 48.1875 
Q 26.515625 48.1875 22.3125 43.546875 
Q 18.109375 38.921875 18.109375 30.90625 
L 18.109375 0 
L 9.078125 0 
L 9.078125 54.6875 
L 18.109375 54.6875 
L 18.109375 46.1875 
Q 21.34375 51.125 25.703125 53.5625 
Q 30.078125 56 35.796875 56 
Q 45.21875 56 50.046875 50.171875 
Q 54.890625 44.34375 54.890625 33.015625 
z
" id="DejaVuSans-110"/>
       <path d="M 48.78125 52.59375 
L 48.78125 44.1875 
Q 44.96875 46.296875 41.140625 47.34375 
Q 37.3125 48.390625 33.40625 48.390625 
Q 24.65625 48.390625 19.8125 42.84375 
Q 14.984375 37.3125 14.984375 27.296875 
Q 14.984375 17.28125 19.8125 11.734375 
Q 24.65625 6.203125 33.40625 6.203125 
Q 37.3125 6.203125 41.140625 7.25 
Q 44.96875 8.296875 48.78125 10.40625 
L 48.78125 2.09375 
Q 45.015625 0.34375 40.984375 -0.53125 
Q 36.96875 -1.421875 32.421875 -1.421875 
Q 20.0625 -1.421875 12.78125 6.34375 
Q 5.515625 14.109375 5.515625 27.296875 
Q 5.515625 40.671875 12.859375 48.328125 
Q 20.21875 56 33.015625 56 
Q 37.15625 56 41.109375 55.140625 
Q 45.0625 54.296875 48.78125 52.59375 
z
" id="DejaVuSans-99"/>
       <path d="M 8.015625 75.875 
L 15.828125 75.875 
Q 23.140625 64.359375 26.78125 53.3125 
Q 30.421875 42.28125 30.421875 31.390625 
Q 30.421875 20.453125 26.78125 9.375 
Q 23.140625 -1.703125 15.828125 -13.1875 
L 8.015625 -13.1875 
Q 14.5 -2 17.703125 9.0625 
Q 20.90625 20.125 20.90625 31.390625 
Q 20.90625 42.671875 17.703125 53.65625 
Q 14.5 64.65625 8.015625 75.875 
z
" id="DejaVuSans-41"/>
      </defs>
      <use xlink:href="#DejaVuSans-70"/>
      <use x="57.519531" xlink:href="#DejaVuSans-32"/>
      <use x="89.306641" xlink:href="#DejaVuSans-40"/>
      <use x="128.320312" xlink:href="#DejaVuSans-108"/>
      <use x="156.103516" xlink:href="#DejaVuSans-97"/>
      <use x="217.382812" xlink:href="#DejaVuSans-114"/>
      <use x="256.746094" xlink:href="#DejaVuSans-103"/>
      <use x="320.222656" xlink:href="#DejaVuSans-101"/>
      <use x="381.746094" xlink:href="#DejaVuSans-115"/>
      <use x="433.845703" xlink:href="#DejaVuSans-116"/>
      <use x="473.054688" xlink:href="#DejaVuSans-32"/>
      <use x="504.841797" xlink:href="#DejaVuSans-114"/>
      <use x="545.955078" xlink:href="#DejaVuSans-97"/>
      <use x="607.234375" xlink:href="#DejaVuSans-116"/>
      <use x="646.443359" xlink:href="#DejaVuSans-105"/>
      <use x="674.226562" xlink:href="#DejaVuSans-111"/>
      <use x="735.408203" xlink:href="#DejaVuSans-32"/>
      <use x="767.195312" xlink:href="#DejaVuSans-111"/>
      <use x="828.376953" xlink:href="#DejaVuSans-102"/>
      <use x="863.582031" xlink:href="#DejaVuSans-32"/>
      <use x="895.369141" xlink:href="#DejaVuSans-117"/>
      <use x="958.748047" xlink:href="#DejaVuSans-115"/>
      <use x="1010.847656" xlink:href="#DejaVuSans-101"/>
      <use x="1072.371094" xlink:href="#DejaVuSans-114"/>
      <use x="1113.484375" xlink:href="#DejaVuSans-115"/>
      <use x="1165.583984" xlink:href="#DejaVuSans-32"/>
      <use x="1197.371094" xlink:href="#DejaVuSans-105"/>
      <use x="1225.154297" xlink:href="#DejaVuSans-110"/>
      <use x="1288.533203" xlink:href="#DejaVuSans-32"/>
      <use x="1320.320312" xlink:href="#DejaVuSans-97"/>
      <use x="1381.599609" xlink:href="#DejaVuSans-32"/>
      <use x="1413.386719" xlink:href="#DejaVuSans-99"/>
      <use x="1468.367188" xlink:href="#DejaVuSans-108"/>
      <use x="1496.150391" xlink:href="#DejaVuSans-117"/>
      <use x="1559.529297" xlink:href="#DejaVuSans-115"/>
      <use x="1611.628906" xlink:href="#DejaVuSans-116"/>
      <use x="1650.837891" xlink:href="#DejaVuSans-101"/>
      <use x="1712.361328" xlink:href="#DejaVuSans-114"/>
      <use x="1753.474609" xlink:href="#DejaVuSans-41"/>
     </g>
    </g>
   </g>
   <g id="matplotlib.axis_2">
    <g id="ytick_1">
     <g id="line2d_9">
      <path clip-path="url(#p7c62f1e871)" d="M 135 504 
L 972 504 
" style="fill:none;stroke:#999999;stroke-dasharray:1.5,2.475;stroke-dashoffset:0;stroke-width:1.5;"/>
     </g>
     <g id="text_10">
      <!-- 0% -->
      <g style="fill:#262626;" transform="translate(96.324297 510.268711)scale(0.165 -0.165)">
       <defs>
        <path d="M 72.703125 32.078125 
Q 68.453125 32.078125 66.03125 28.46875 
Q 63.625 24.859375 63.625 18.40625 
Q 63.625 12.0625 66.03125 8.421875 
Q 68.453125 4.78125 72.703125 4.78125 
Q 76.859375 4.78125 79.265625 8.421875 
Q 81.6875 12.0625 81.6875 18.40625 
Q 81.6875 24.8125 79.265625 28.4375 
Q 76.859375 32.078125 72.703125 32.078125 
z
M 72.703125 38.28125 
Q 80.421875 38.28125 84.953125 32.90625 
Q 89.5 27.546875 89.5 18.40625 
Q 89.5 9.28125 84.9375 3.921875 
Q 80.375 -1.421875 72.703125 -1.421875 
Q 64.890625 -1.421875 60.34375 3.921875 
Q 55.8125 9.28125 55.8125 18.40625 
Q 55.8125 27.59375 60.375 32.9375 
Q 64.9375 38.28125 72.703125 38.28125 
z
M 22.3125 68.015625 
Q 18.109375 68.015625 15.6875 64.375 
Q 13.28125 60.75 13.28125 54.390625 
Q 13.28125 47.953125 15.671875 44.328125 
Q 18.0625 40.71875 22.3125 40.71875 
Q 26.5625 40.71875 28.96875 44.328125 
Q 31.390625 47.953125 31.390625 54.390625 
Q 31.390625 60.6875 28.953125 64.34375 
Q 26.515625 68.015625 22.3125 68.015625 
z
M 66.40625 74.21875 
L 74.21875 74.21875 
L 28.609375 -1.421875 
L 20.796875 -1.421875 
z
M 22.3125 74.21875 
Q 30.03125 74.21875 34.609375 68.875 
Q 39.203125 63.53125 39.203125 54.390625 
Q 39.203125 45.171875 34.640625 39.84375 
Q 30.078125 34.515625 22.3125 34.515625 
Q 14.546875 34.515625 10.03125 39.859375 
Q 5.515625 45.21875 5.515625 54.390625 
Q 5.515625 63.484375 10.046875 68.84375 
Q 14.59375 74.21875 22.3125 74.21875 
z
" id="DejaVuSans-37"/>
       </defs>
       <use xlink:href="#DejaVuSans-48"/>
       <use x="63.623047" xlink:href="#DejaVuSans-37"/>
      </g>
     </g>
    </g>
    <g id="ytick_2">
     <g id="line2d_10">
      <path clip-path="url(#p7c62f1e871)" d="M 135 417.024 
L 972 417.024 
" style="fill:none;stroke:#999999;stroke-dasharray:1.5,2.475;stroke-dashoffset:0;stroke-width:1.5;"/>
     </g>
     <g id="text_11">
      <!-- 20% -->
      <g style="fill:#262626;" transform="translate(85.826172 423.292711)scale(0.165 -0.165)">
       <defs>
        <path d="M 19.1875 8.296875 
L 53.609375 8.296875 
L 53.609375 0 
L 7.328125 0 
L 7.328125 8.296875 
Q 12.9375 14.109375 22.625 23.890625 
Q 32.328125 33.6875 34.8125 36.53125 
Q 39.546875 41.84375 41.421875 45.53125 
Q 43.3125 49.21875 43.3125 52.78125 
Q 43.3125 58.59375 39.234375 62.25 
Q 35.15625 65.921875 28.609375 65.921875 
Q 23.96875 65.921875 18.8125 64.3125 
Q 13.671875 62.703125 7.8125 59.421875 
L 7.8125 69.390625 
Q 13.765625 71.78125 18.9375 73 
Q 24.125 74.21875 28.421875 74.21875 
Q 39.75 74.21875 46.484375 68.546875 
Q 53.21875 62.890625 53.21875 53.421875 
Q 53.21875 48.921875 51.53125 44.890625 
Q 49.859375 40.875 45.40625 35.40625 
Q 44.1875 33.984375 37.640625 27.21875 
Q 31.109375 20.453125 19.1875 8.296875 
z
" id="DejaVuSans-50"/>
       </defs>
       <use xlink:href="#DejaVuSans-50"/>
       <use x="63.623047" xlink:href="#DejaVuSans-48"/>
       <use x="127.246094" xlink:href="#DejaVuSans-37"/>
      </g>
     </g>
    </g>
    <g id="ytick_3">
     <g id="line2d_11">
      <path clip-path="url(#p7c62f1e871)" d="M 135 330.048 
L 972 330.048 
" style="fill:none;stroke:#999999;stroke-dasharray:1.5,2.475;stroke-dashoffset:0;stroke-width:1.5;"/>
     </g>
     <g id="text_12">
      <!-- 40% -->
      <g style="fill:#262626;" transform="translate(85.826172 336.316711)scale(0.165 -0.165)">
       <use xlink:href="#DejaVuSans-52"/>
       <use x="63.623047" xlink:href="#DejaVuSans-48"/>
       <use x="127.246094" xlink:href="#DejaVuSans-37"/>
      </g>
     </g>
    </g>
    <g id="ytick_4">
     <g id="line2d_12">
      <path clip-path="url(#p7c62f1e871)" d="M 135 243.072 
L 972 243.072 
" style="fill:none;stroke:#999999;stroke-dasharray:1.5,2.475;stroke-dashoffset:0;stroke-width:1.5;"/>
     </g>
     <g id="text_13">
      <!-- 60% -->
      <g style="fill:#262626;" transform="translate(85.826172 249.340711)scale(0.165 -0.165)">
       <use xlink:href="#DejaVuSans-54"/>
       <use x="63.623047" xlink:href="#DejaVuSans-48"/>
       <use x="127.246094" xlink:href="#DejaVuSans-37"/>
      </g>
     </g>
    </g>
    <g id="ytick_5">
     <g id="line2d_13">
      <path clip-path="url(#p7c62f1e871)" d="M 135 156.096 
L 972 156.096 
" style="fill:none;stroke:#999999;stroke-dasharray:1.5,2.475;stroke-dashoffset:0;stroke-width:1.5;"/>
     </g>
     <g id="text_14">
      <!-- 80% -->
      <g style="fill:#262626;" transform="translate(85.826172 162.364711)scale(0.165 -0.165)">
       <use xlink:href="#DejaVuSans-56"/>
       <use x="63.623047" xlink:href="#DejaVuSans-48"/>
       <use x="127.246094" xlink:href="#DejaVuSans-37"/>
      </g>
     </g>
    </g>
    <g id="ytick_6">
     <g id="line2d_14">
      <path clip-path="url(#p7c62f1e871)" d="M 135 69.12 
L 972 69.12 
" style="fill:none;stroke:#999999;stroke-dasharray:1.5,2.475;stroke-dashoffset:0;stroke-width:1.5;"/>
     </g>
     <g id="text_15">
      <!-- 100% -->
      <g style="fill:#262626;" transform="translate(75.328047 75.388711)scale(0.165 -0.165)">
       <use xlink:href="#DejaVuSans-49"/>
       <use x="63.623047" xlink:href="#DejaVuSans-48"/>
       <use x="127.246094" xlink:href="#DejaVuSans-48"/>
       <use x="190.869141" xlink:href="#DejaVuSans-37"/>
      </g>
     </g>
    </g>
    <g id="text_16">
     <!-- Proportion -->
     <g style="fill:#262626;" transform="translate(67.584609 332.992969)rotate(-90)scale(0.18 -0.18)">
      <defs>
       <path d="M 19.671875 64.796875 
L 19.671875 37.40625 
L 32.078125 37.40625 
Q 38.96875 37.40625 42.71875 40.96875 
Q 46.484375 44.53125 46.484375 51.125 
Q 46.484375 57.671875 42.71875 61.234375 
Q 38.96875 64.796875 32.078125 64.796875 
z
M 9.8125 72.90625 
L 32.078125 72.90625 
Q 44.34375 72.90625 50.609375 67.359375 
Q 56.890625 61.8125 56.890625 51.125 
Q 56.890625 40.328125 50.609375 34.8125 
Q 44.34375 29.296875 32.078125 29.296875 
L 19.671875 29.296875 
L 19.671875 0 
L 9.8125 0 
z
" id="DejaVuSans-80"/>
       <path d="M 18.109375 8.203125 
L 18.109375 -20.796875 
L 9.078125 -20.796875 
L 9.078125 54.6875 
L 18.109375 54.6875 
L 18.109375 46.390625 
Q 20.953125 51.265625 25.265625 53.625 
Q 29.59375 56 35.59375 56 
Q 45.5625 56 51.78125 48.09375 
Q 58.015625 40.1875 58.015625 27.296875 
Q 58.015625 14.40625 51.78125 6.484375 
Q 45.5625 -1.421875 35.59375 -1.421875 
Q 29.59375 -1.421875 25.265625 0.953125 
Q 20.953125 3.328125 18.109375 8.203125 
z
M 48.6875 27.296875 
Q 48.6875 37.203125 44.609375 42.84375 
Q 40.53125 48.484375 33.40625 48.484375 
Q 26.265625 48.484375 22.1875 42.84375 
Q 18.109375 37.203125 18.109375 27.296875 
Q 18.109375 17.390625 22.1875 11.75 
Q 26.265625 6.109375 33.40625 6.109375 
Q 40.53125 6.109375 44.609375 11.75 
Q 48.6875 17.390625 48.6875 27.296875 
z
" id="DejaVuSans-112"/>
      </defs>
      <use xlink:href="#DejaVuSans-80"/>
      <use x="58.552734" xlink:href="#DejaVuSans-114"/>
      <use x="97.416016" xlink:href="#DejaVuSans-111"/>
      <use x="158.597656" xlink:href="#DejaVuSans-112"/>
      <use x="222.074219" xlink:href="#DejaVuSans-111"/>
      <use x="283.255859" xlink:href="#DejaVuSans-114"/>
      <use x="324.369141" xlink:href="#DejaVuSans-116"/>
      <use x="363.578125" xlink:href="#DejaVuSans-105"/>
      <use x="391.361328" xlink:href="#DejaVuSans-111"/>
      <use x="452.542969" xlink:href="#DejaVuSans-110"/>
     </g>
    </g>
   </g>
   <g id="line2d_15">
    <path clip-path="url(#p7c62f1e871)" d="M 933.954545 69.12 
L 933.954545 70.754887 
L 849.409091 70.754887 
L 849.409091 80.564211 
L 818.665289 80.564211 
L 818.665289 82.199098 
L 807.136364 82.199098 
L 807.136364 83.016541 
L 781.772727 83.016541 
L 781.772727 85.468872 
L 778.31405 85.468872 
L 778.31405 86.286316 
L 764.863636 86.286316 
L 764.863636 87.921203 
L 741.190909 87.921203 
L 741.190909 88.738647 
L 736.681818 88.738647 
L 736.681818 89.55609 
L 726.433884 89.55609 
L 726.433884 90.373534 
L 719.339161 90.373534 
L 719.339161 91.190977 
L 714.136364 91.190977 
L 714.136364 92.825865 
L 710.157754 92.825865 
L 710.157754 93.643308 
L 705.681818 93.643308 
L 705.681818 94.460752 
L 704.474026 94.460752 
L 704.474026 95.278195 
L 696.681818 95.278195 
L 696.681818 96.095639 
L 680.318182 96.095639 
L 680.318182 161.491128 
L 679.465623 161.491128 
L 679.465623 162.308571 
L 666.898268 162.308571 
L 666.898268 163.126015 
L 664.789425 163.126015 
L 664.789425 163.943459 
L 663.954545 163.943459 
L 663.954545 164.760902 
L 662.826019 164.760902 
L 662.826019 165.578346 
L 661.530303 165.578346 
L 661.530303 166.395789 
L 660.128223 166.395789 
L 660.128223 167.213233 
L 659.792696 167.213233 
L 659.792696 168.030677 
L 658.262846 168.030677 
L 658.262846 168.84812 
L 657.260331 168.84812 
L 657.260331 169.665564 
L 656.162338 169.665564 
L 656.162338 170.483008 
L 654.304196 170.483008 
L 654.304196 171.300451 
L 653.619617 171.300451 
L 653.619617 172.117895 
L 650.47861 172.117895 
L 650.47861 172.935338 
L 647.939072 172.935338 
L 647.939072 173.752782 
L 643.200665 173.752782 
L 643.200665 174.570226 
L 641.297203 174.570226 
L 641.297203 175.387669 
L 640.498138 175.387669 
L 640.498138 176.205113 
L 635.984319 176.205113 
L 635.984319 177.022556 
L 635.820574 177.022556 
L 635.820574 177.84 
L 634.202479 177.84 
L 634.202479 180.292331 
L 626.352998 180.292331 
L 626.352998 181.109774 
L 625.967532 181.109774 
L 625.967532 181.927218 
L 625.688811 181.927218 
L 625.688811 182.744662 
L 625.34002 182.744662 
L 625.34002 183.562105 
L 623.954545 183.562105 
L 623.954545 184.379549 
L 621.136364 184.379549 
L 621.136364 185.196992 
L 611.767813 185.196992 
L 611.767813 187.649323 
L 611.301484 187.649323 
L 611.301484 188.466767 
L 609.3 188.466767 
L 609.3 189.284211 
L 607.850649 189.284211 
L 607.850649 194.188872 
L 605.404488 194.188872 
L 605.404488 195.006316 
L 604.980648 195.006316 
L 604.980648 195.823759 
L 602.276224 195.823759 
L 602.276224 196.641203 
L 600.222488 196.641203 
L 600.222488 197.458647 
L 599.448617 197.458647 
L 599.448617 198.27609 
L 598.645025 198.27609 
L 598.645025 199.093534 
L 595.772727 199.093534 
L 595.772727 199.910977 
L 593.710643 199.910977 
L 593.710643 201.545865 
L 590.799465 201.545865 
L 590.799465 202.363308 
L 586.864577 202.363308 
L 586.864577 203.180752 
L 578.863636 203.180752 
L 578.863636 215.442406 
L 577.655844 215.442406 
L 577.655844 216.25985 
L 576.568148 216.25985 
L 576.568148 217.077293 
L 570.041502 217.077293 
L 570.041502 217.894737 
L 569.557736 217.894737 
L 569.557736 218.71218 
L 567.590909 218.71218 
L 567.590909 219.529624 
L 566.619122 219.529624 
L 566.619122 220.347068 
L 566.235631 220.347068 
L 566.235631 221.164511 
L 565.772727 221.164511 
L 565.772727 222.799398 
L 564.195509 222.799398 
L 564.195509 223.616842 
L 563.645455 223.616842 
L 563.645455 224.434286 
L 563.255245 224.434286 
L 563.255245 226.069173 
L 559.835352 226.069173 
L 559.778128 227.70406 
L 558.415433 227.70406 
L 558.415433 228.521504 
L 557.873041 228.521504 
L 557.873041 229.338947 
L 557.504785 229.338947 
L 557.504785 230.156391 
L 555.434046 230.156391 
L 555.434046 230.973835 
L 553.5 230.973835 
L 553.5 233.426165 
L 549.722588 233.426165 
L 549.722588 234.243609 
L 546.825359 234.243609 
L 546.825359 235.878496 
L 545.401435 235.878496 
L 545.401435 236.69594 
L 544.407376 236.69594 
L 544.407376 237.513383 
L 544.220621 237.513383 
L 544.220621 238.330827 
L 543.744755 238.330827 
L 543.744755 239.148271 
L 543.131218 239.148271 
L 543.131218 239.965714 
L 542.752696 239.965714 
L 542.752696 240.783158 
L 541.971074 240.783158 
L 541.971074 241.600602 
L 541.227273 241.600602 
L 541.19275 243.235489 
L 539.409091 243.235489 
L 539.409091 244.052932 
L 538.281818 244.052932 
L 538.281818 244.870376 
L 538.135048 244.870376 
L 538.135048 245.68782 
L 536.958498 245.68782 
L 536.958498 246.505263 
L 535.383117 246.505263 
L 535.383117 248.957594 
L 531.120321 248.957594 
L 531.120321 249.775038 
L 530.015152 249.775038 
L 530.015152 250.592481 
L 529.721591 250.592481 
L 529.721591 251.409925 
L 529.344156 251.409925 
L 529.344156 252.227368 
L 526.95666 252.227368 
L 526.95666 253.044812 
L 526.775862 253.044812 
L 526.775862 253.862256 
L 525.93083 253.862256 
L 525.93083 254.679699 
L 525.030612 254.679699 
L 525.030612 255.497143 
L 521.795455 255.497143 
L 521.795455 256.314586 
L 519.898601 256.314586 
L 519.898601 257.13203 
L 518.422631 257.13203 
L 518.422631 257.949474 
L 517.868305 257.949474 
L 517.868305 258.766917 
L 516.200535 258.766917 
L 516.200535 259.584361 
L 515.092208 259.584361 
L 515.092208 260.401805 
L 511.227273 260.401805 
L 511.227273 289.012331 
L 495.855372 289.012331 
L 495.855372 289.829774 
L 495.588807 289.829774 
L 495.588807 290.647218 
L 492.439394 290.647218 
L 492.439394 291.464662 
L 492.228294 291.464662 
L 492.228294 292.282105 
L 491.902597 292.282105 
L 491.902597 293.099549 
L 489.337036 293.099549 
L 489.337036 293.916992 
L 485.213287 293.916992 
L 485.213287 295.55188 
L 482.127907 295.55188 
L 482.127907 296.369323 
L 481.820158 296.369323 
L 481.820158 297.186767 
L 477.409091 297.186767 
L 477.409091 298.821654 
L 475.642103 298.821654 
L 475.642103 299.639098 
L 474.468379 299.639098 
L 474.468379 300.456541 
L 472.515133 300.456541 
L 472.515133 301.273985 
L 471.197588 301.273985 
L 471.197588 302.091429 
L 467.590909 302.091429 
L 467.590909 302.908872 
L 466.729665 302.908872 
L 466.729665 303.726316 
L 462.915584 303.726316 
L 462.915584 307.813534 
L 462.105891 307.813534 
L 462.105891 308.630977 
L 457.504982 308.630977 
L 457.504982 309.448421 
L 457.259148 309.448421 
L 457.240416 311.083308 
L 454.863636 311.083308 
L 454.863636 312.718195 
L 451.766733 312.718195 
L 451.766733 313.535639 
L 449.739669 313.535639 
L 449.739669 314.353083 
L 445.240576 314.353083 
L 445.240576 315.98797 
L 443.590909 315.98797 
L 443.590909 316.805414 
L 437.299154 316.805414 
L 437.299154 317.622857 
L 436.075758 317.622857 
L 436.075758 318.440301 
L 434.863636 318.440301 
L 434.813671 320.075188 
L 426.681818 320.075188 
L 426.681818 329.067068 
L 423.005929 329.067068 
L 423.005929 329.884511 
L 417.935737 329.884511 
L 417.935737 330.701955 
L 398.5 330.701955 
L 398.5 333.154286 
L 375.954545 333.154286 
L 375.954545 337.241504 
L 357.508264 337.241504 
L 357.508264 338.876391 
L 342.136364 338.876391 
L 342.136364 339.693835 
L 329.129371 339.693835 
L 329.129371 340.511278 
L 325.227273 340.511278 
L 325.227273 341.328722 
L 317.980519 341.328722 
L 317.980519 342.146165 
L 311.392562 342.146165 
L 311.392562 342.963609 
L 308.318182 342.963609 
L 308.318182 343.781053 
L 302.256432 343.781053 
L 302.256432 344.598496 
L 299.863636 344.598496 
L 299.863636 347.050827 
L 285.772727 347.050827 
L 285.772727 348.685714 
L 274.5 348.685714 
L 274.5 349.503158 
L 257.590909 349.503158 
L 257.590909 350.320602 
L 173.045455 350.320602 
L 173.045455 504 
L 173.045455 504 
" style="fill:none;stroke:#8172b3;stroke-linecap:round;stroke-width:2.25;"/>
   </g>
   <g id="line2d_16">
    <path clip-path="url(#p7c62f1e871)" d="M 849.409091 69.12 
L 849.409091 74.024662 
L 781.772727 74.024662 
L 781.772727 77.294436 
L 764.863636 77.294436 
L 764.863636 78.11188 
L 743.727273 78.11188 
L 743.727273 78.929323 
L 741.190909 78.929323 
L 741.190909 79.746767 
L 736.681818 79.746767 
L 736.681818 81.381654 
L 726.433884 81.381654 
L 726.433884 83.016541 
L 719.339161 83.016541 
L 719.339161 83.833985 
L 710.157754 83.833985 
L 710.157754 84.651429 
L 680.318182 84.651429 
L 680.318182 135.332932 
L 646.5 135.332932 
L 646.5 136.150376 
L 641.297203 136.150376 
L 641.297203 136.96782 
L 634.202479 136.96782 
L 634.202479 138.602707 
L 631.227273 138.602707 
L 631.227273 139.42015 
L 621.491597 139.42015 
L 621.491597 140.237594 
L 618.203154 140.237594 
L 618.203154 141.055038 
L 615.834361 141.055038 
L 615.834361 141.872481 
L 610.08042 141.872481 
L 610.08042 142.689925 
L 607.850649 142.689925 
L 607.850649 144.324812 
L 604.766925 144.324812 
L 604.766925 145.142256 
L 602.276224 145.142256 
L 602.276224 145.959699 
L 600.222488 145.959699 
L 600.222488 146.777143 
L 597.0346 146.777143 
L 597.0346 147.594586 
L 595.772727 147.594586 
L 595.772727 149.229474 
L 595.284025 149.229474 
L 595.284025 150.046917 
L 593.710643 150.046917 
L 593.710643 150.864361 
L 590.799465 150.864361 
L 590.799465 151.681805 
L 578.863636 151.681805 
L 578.863636 160.673684 
L 565.772727 160.673684 
L 565.772727 161.491128 
L 565.028926 161.491128 
L 565.028926 162.308571 
L 564.80063 162.308571 
L 564.80063 163.126015 
L 561.594778 163.126015 
L 561.594778 163.943459 
L 560.858052 163.943459 
L 560.858052 164.760902 
L 560.003497 164.760902 
L 560.003497 165.578346 
L 559.538961 165.578346 
L 559.538961 166.395789 
L 557.873041 166.395789 
L 557.873041 167.213233 
L 556.927518 167.213233 
L 556.927518 168.030677 
L 555.72488 168.030677 
L 555.72488 168.84812 
L 553.5 168.84812 
L 553.5 172.117895 
L 550.355748 172.117895 
L 550.355748 172.935338 
L 550.116626 172.935338 
L 550.116626 173.752782 
L 546.825359 173.752782 
L 546.825359 174.570226 
L 544.220621 174.570226 
L 544.220621 175.387669 
L 543.435065 175.387669 
L 543.435065 176.205113 
L 541.971074 176.205113 
L 541.971074 177.022556 
L 541.455815 177.022556 
L 541.455815 177.84 
L 538.281818 177.84 
L 538.281818 178.657444 
L 535.383117 178.657444 
L 535.383117 181.109774 
L 531.120321 181.109774 
L 531.120321 181.927218 
L 529.507371 181.927218 
L 529.507371 182.744662 
L 528.136364 182.744662 
L 528.136364 183.562105 
L 526.95666 183.562105 
L 526.95666 184.379549 
L 525.93083 184.379549 
L 525.93083 185.196992 
L 524.234266 185.196992 
L 524.234266 186.014436 
L 519.97147 186.014436 
L 519.97147 186.83188 
L 514.678108 186.83188 
L 514.678108 187.649323 
L 511.227273 187.649323 
L 511.227273 209.720301 
L 509.878591 209.720301 
L 509.878591 210.537744 
L 506.94649 210.537744 
L 506.94649 211.355188 
L 505.732443 211.355188 
L 505.732443 212.172632 
L 502.087224 212.172632 
L 502.087224 212.990075 
L 500.318182 212.990075 
L 500.318182 213.807519 
L 499.508101 213.807519 
L 499.508101 214.624962 
L 499.149351 214.624962 
L 499.149351 215.442406 
L 494.730599 215.442406 
L 494.730599 217.077293 
L 493.42823 217.077293 
L 493.42823 217.894737 
L 491.165639 217.894737 
L 491.097403 219.529624 
L 490.854874 219.529624 
L 490.854874 220.347068 
L 490.489708 220.347068 
L 490.487334 221.981955 
L 489.82336 221.981955 
L 489.82336 222.799398 
L 487.904389 222.799398 
L 487.904389 223.616842 
L 487.554545 223.616842 
L 487.554545 224.434286 
L 485.213287 224.434286 
L 485.213287 225.251729 
L 484.017241 225.251729 
L 484.017241 226.069173 
L 481.820158 226.069173 
L 481.820158 227.70406 
L 479.158307 227.70406 
L 479.158307 228.521504 
L 478.072193 228.521504 
L 478.072193 229.338947 
L 477.409091 229.338947 
L 477.409091 231.791278 
L 476.541958 231.791278 
L 476.541958 232.608722 
L 474.590909 232.608722 
L 474.590909 233.426165 
L 474.39559 233.426165 
L 474.39559 234.243609 
L 474.238636 234.243609 
L 474.238636 235.061053 
L 473.651515 235.061053 
L 473.651515 235.878496 
L 472.069378 235.878496 
L 472.069378 236.69594 
L 471.441176 236.69594 
L 471.441176 237.513383 
L 470.918134 237.513383 
L 470.918134 238.330827 
L 470.79249 238.330827 
L 470.79249 239.148271 
L 469.933493 239.148271 
L 469.933493 239.965714 
L 468.419448 239.965714 
L 468.419448 240.783158 
L 467.590909 240.783158 
L 467.590909 241.600602 
L 466.729665 241.600602 
L 466.729665 242.418045 
L 466.56175 242.418045 
L 466.56175 243.235489 
L 466.442182 243.235489 
L 466.442182 244.052932 
L 462.915584 244.052932 
L 462.915584 248.957594 
L 460.180961 248.957594 
L 460.180961 249.775038 
L 459.199301 249.775038 
L 459.199301 250.592481 
L 454.863636 250.592481 
L 454.863636 251.409925 
L 454.523071 251.409925 
L 454.523071 252.227368 
L 452.56308 252.227368 
L 452.56308 253.044812 
L 446.811688 253.044812 
L 446.811688 253.862256 
L 446.192308 253.862256 
L 446.192308 256.314586 
L 443.590909 256.314586 
L 443.590909 257.13203 
L 442.534091 257.13203 
L 442.534091 257.949474 
L 439.725974 257.949474 
L 439.725974 258.766917 
L 437.709486 258.766917 
L 437.709486 259.584361 
L 434.863636 259.584361 
L 434.863636 260.401805 
L 429.469031 260.401805 
L 429.469031 261.219248 
L 426.681818 261.219248 
L 426.681818 270.211128 
L 422.430929 270.211128 
L 422.430929 271.028571 
L 419.351287 271.028571 
L 419.351287 271.846015 
L 419.221925 271.846015 
L 419.221925 272.663459 
L 418.817125 272.663459 
L 418.817125 273.480902 
L 417.743371 273.480902 
L 417.743371 274.298346 
L 417.287879 274.298346 
L 417.287879 275.115789 
L 414.603896 275.115789 
L 414.603896 275.933233 
L 409.08256 275.933233 
L 409.08256 276.750677 
L 407.171329 276.750677 
L 407.171329 277.56812 
L 405.2908 277.56812 
L 405.2908 278.385564 
L 403.490104 278.385564 
L 403.490104 279.203008 
L 402.136364 279.203008 
L 402.136364 280.020451 
L 400.950593 280.020451 
L 400.950593 280.837895 
L 400.69366 280.837895 
L 400.69366 281.655338 
L 400.212502 281.655338 
L 400.212502 282.472782 
L 398.5 282.472782 
L 398.5 284.925113 
L 396.20814 284.925113 
L 396.20814 285.742556 
L 395.750554 285.742556 
L 395.750554 286.56 
L 390.448052 286.56 
L 390.448052 287.377444 
L 386.633971 287.377444 
L 386.633971 288.194887 
L 385.392178 288.194887 
L 385.392178 289.012331 
L 384.409091 289.012331 
L 384.409091 289.829774 
L 383.378049 289.829774 
L 383.378049 290.647218 
L 378.277932 290.647218 
L 378.277932 291.464662 
L 375.954545 291.464662 
L 375.954545 301.273985 
L 371.543478 301.273985 
L 371.543478 302.091429 
L 369.409091 302.091429 
L 369.409091 302.908872 
L 367.320116 302.908872 
L 367.320116 303.726316 
L 363.272727 303.726316 
L 363.272727 304.543759 
L 357.508264 304.543759 
L 357.508264 307.813534 
L 355.435649 307.813534 
L 355.435649 308.630977 
L 347.967085 308.630977 
L 347.967085 309.448421 
L 342.136364 309.448421 
L 342.136364 316.805414 
L 329.129371 316.805414 
L 329.129371 317.622857 
L 325.227273 317.622857 
L 325.227273 318.440301 
L 323.348485 318.440301 
L 323.348485 319.257744 
L 317.980519 319.257744 
L 317.980519 320.892632 
L 314.609937 320.892632 
L 314.609937 321.710075 
L 311.392562 321.710075 
L 311.392562 322.527519 
L 306.538278 322.527519 
L 306.538278 323.344962 
L 299.863636 323.344962 
L 299.863636 324.97985 
L 285.772727 324.97985 
L 285.772727 326.614737 
L 274.5 326.614737 
L 274.5 327.43218 
L 273.542882 327.43218 
L 273.542882 328.249624 
L 265.27686 328.249624 
L 265.27686 329.067068 
L 257.590909 329.067068 
L 257.590909 329.884511 
L 240.681818 329.884511 
L 240.681818 330.701955 
L 173.045455 330.701955 
L 173.045455 504 
L 173.045455 504 
" style="fill:none;stroke:#c44e52;stroke-linecap:round;stroke-width:2.25;"/>
   </g>
   <g id="line2d_17">
    <path clip-path="url(#p7c62f1e871)" d="M 849.409091 69.12 
L 849.409091 72.389774 
L 781.772727 72.389774 
L 781.772727 74.842105 
L 764.863636 74.842105 
L 764.863636 75.659549 
L 741.190909 75.659549 
L 741.190909 76.476992 
L 737.96281 76.476992 
L 737.96281 77.294436 
L 736.681818 77.294436 
L 736.681818 78.929323 
L 726.433884 78.929323 
L 726.433884 79.746767 
L 719.339161 79.746767 
L 719.339161 80.564211 
L 710.157754 80.564211 
L 710.157754 81.381654 
L 680.318182 81.381654 
L 680.318182 127.97594 
L 646.5 127.97594 
L 646.5 128.793383 
L 634.202479 128.793383 
L 634.202479 129.610827 
L 615.834361 129.610827 
L 615.834361 130.428271 
L 614.671123 130.428271 
L 614.671123 131.245714 
L 613.026902 131.245714 
L 613.026902 132.063158 
L 607.850649 132.063158 
L 607.850649 133.698045 
L 604.766925 133.698045 
L 604.766925 134.515489 
L 600.222488 134.515489 
L 600.222488 135.332932 
L 598.5 135.332932 
L 598.5 136.150376 
L 595.772727 136.150376 
L 595.772727 137.785263 
L 590.799465 137.785263 
L 590.799465 138.602707 
L 589.463365 138.602707 
L 589.463365 139.42015 
L 586.487388 139.42015 
L 586.487388 140.237594 
L 578.863636 140.237594 
L 578.863636 150.046917 
L 568.965632 150.046917 
L 568.965632 150.864361 
L 565.772727 150.864361 
L 565.772727 151.681805 
L 565.028926 151.681805 
L 565.028926 152.499248 
L 563.255245 152.499248 
L 563.255245 154.134135 
L 559.538961 154.134135 
L 559.538961 154.951579 
L 556.927518 154.951579 
L 556.927518 155.769023 
L 553.932827 155.769023 
L 553.932827 156.586466 
L 553.5 156.586466 
L 553.5 159.856241 
L 546.825359 159.856241 
L 546.825359 160.673684 
L 546.346154 160.673684 
L 546.346154 161.491128 
L 544.710621 161.491128 
L 544.710621 162.308571 
L 544.220621 162.308571 
L 544.220621 163.126015 
L 542.64987 163.126015 
L 542.64987 163.943459 
L 541.971074 163.943459 
L 541.971074 167.213233 
L 538.281818 167.213233 
L 538.281818 168.030677 
L 538.0671 168.030677 
L 538.0671 168.84812 
L 535.383117 168.84812 
L 535.383117 170.483008 
L 533.841254 170.483008 
L 533.841254 171.300451 
L 531.120321 171.300451 
L 531.120321 172.117895 
L 529.507371 172.117895 
L 529.507371 172.935338 
L 529.344156 172.935338 
L 529.344156 173.752782 
L 528.136364 173.752782 
L 528.136364 174.570226 
L 525.93083 174.570226 
L 525.93083 175.387669 
L 525.318182 175.387669 
L 525.318182 176.205113 
L 524.234266 176.205113 
L 524.234266 177.022556 
L 523.31869 177.022556 
L 523.31869 177.84 
L 522.888715 177.84 
L 522.888715 178.657444 
L 515.380766 178.657444 
L 515.380766 179.474887 
L 511.227273 179.474887 
L 511.227273 202.363308 
L 502.665708 202.363308 
L 502.665708 203.180752 
L 502.087224 203.180752 
L 502.087224 203.998195 
L 499.149351 203.998195 
L 499.149351 204.815639 
L 496.523715 204.815639 
L 496.523715 205.633083 
L 494.730599 205.633083 
L 494.730599 206.450526 
L 493.42823 206.450526 
L 493.42823 208.085414 
L 492.682906 208.085414 
L 492.682906 208.902857 
L 491.165639 208.902857 
L 491.165639 209.720301 
L 490.522263 209.720301 
L 490.522263 210.537744 
L 487.749362 210.537744 
L 487.749362 211.355188 
L 485.213287 211.355188 
L 485.213287 212.172632 
L 482.513722 212.172632 
L 482.513722 212.990075 
L 481.820158 212.990075 
L 481.820158 213.807519 
L 477.409091 213.807519 
L 477.409091 216.25985 
L 476.981013 216.25985 
L 476.981013 217.077293 
L 476.593588 217.077293 
L 476.593588 217.894737 
L 474.993506 217.894737 
L 474.993506 218.71218 
L 474.238636 218.71218 
L 474.238636 219.529624 
L 471.772727 219.529624 
L 471.772727 220.347068 
L 471.441176 220.347068 
L 471.441176 221.981955 
L 470.412226 221.981955 
L 470.412226 222.799398 
L 469.985588 222.799398 
L 469.985588 223.616842 
L 469.373087 223.616842 
L 469.373087 224.434286 
L 467.590909 224.434286 
L 467.590909 225.251729 
L 466.56175 225.251729 
L 466.56175 226.069173 
L 466.407996 226.069173 
L 466.407996 226.886617 
L 462.915584 226.886617 
L 462.915584 231.791278 
L 460.694357 231.791278 
L 460.694357 232.608722 
L 459.764822 232.608722 
L 459.764822 233.426165 
L 459.328083 233.426165 
L 459.328083 234.243609 
L 457.411721 234.243609 
L 457.411721 235.061053 
L 456.050239 235.061053 
L 456.050239 235.878496 
L 454.913035 235.878496 
L 454.808463 238.330827 
L 452.846411 238.330827 
L 452.846411 239.148271 
L 451.227273 239.148271 
L 451.227273 239.965714 
L 450.527972 239.965714 
L 450.527972 240.783158 
L 446.972727 240.783158 
L 446.972727 241.600602 
L 444.867067 241.600602 
L 444.867067 242.418045 
L 443.795249 242.418045 
L 443.795249 243.235489 
L 443.590909 243.235489 
L 443.590909 244.052932 
L 442.210575 244.052932 
L 442.210575 244.870376 
L 440.0311 244.870376 
L 440.0311 245.68782 
L 439.725974 245.68782 
L 439.688811 247.322707 
L 438.75974 247.322707 
L 438.75974 248.14015 
L 437.709486 248.14015 
L 437.709486 248.957594 
L 434.863636 248.957594 
L 434.863636 249.775038 
L 433.185315 249.775038 
L 433.185315 252.227368 
L 429.469031 252.227368 
L 429.469031 253.044812 
L 426.681818 253.044812 
L 426.681818 261.219248 
L 419.351287 261.219248 
L 419.351287 262.036692 
L 419.221925 262.036692 
L 419.221925 262.854135 
L 417.935737 262.854135 
L 417.935737 263.671579 
L 417.287879 263.671579 
L 417.287879 265.306466 
L 410.952431 265.306466 
L 410.952431 266.12391 
L 408.107598 266.12391 
L 408.107598 266.941353 
L 407.171329 266.941353 
L 407.171329 267.758797 
L 405.427374 267.758797 
L 405.427374 268.576241 
L 404.941558 268.576241 
L 404.941558 269.393684 
L 402.136364 269.393684 
L 402.136364 270.211128 
L 398.5 270.211128 
L 398.5 272.663459 
L 396.12322 272.663459 
L 396.12322 273.480902 
L 395.39141 273.480902 
L 395.39141 274.298346 
L 395.279221 274.298346 
L 395.279221 275.115789 
L 393.598814 275.115789 
L 393.598814 276.750677 
L 391.426565 276.750677 
L 391.426565 277.56812 
L 390.448052 277.56812 
L 390.448052 278.385564 
L 388.183442 278.385564 
L 388.183442 279.203008 
L 386.633971 279.203008 
L 386.568507 280.837895 
L 386.140207 280.837895 
L 386.140207 281.655338 
L 385.392178 281.655338 
L 385.392178 282.472782 
L 375.954545 282.472782 
L 375.954545 289.829774 
L 371.543478 289.829774 
L 371.543478 290.647218 
L 371.005543 290.647218 
L 371.005543 291.464662 
L 367.320116 291.464662 
L 367.320116 292.282105 
L 365.886537 292.282105 
L 365.886537 293.099549 
L 363.272727 293.099549 
L 363.272727 293.916992 
L 357.508264 293.916992 
L 357.508264 297.186767 
L 354.508869 297.186767 
L 354.508869 298.004211 
L 353.045455 298.004211 
L 353.045455 298.821654 
L 347.967085 298.821654 
L 347.967085 299.639098 
L 342.136364 299.639098 
L 342.136364 309.448421 
L 332.636874 309.448421 
L 332.636874 310.265865 
L 329.129371 310.265865 
L 329.129371 311.083308 
L 325.227273 311.083308 
L 325.227273 311.900752 
L 323.348485 311.900752 
L 323.348485 312.718195 
L 317.980519 312.718195 
L 317.980519 314.353083 
L 314.609937 314.353083 
L 314.609937 315.170526 
L 311.392562 315.170526 
L 311.392562 315.98797 
L 308.318182 315.98797 
L 308.318182 316.805414 
L 306.538278 316.805414 
L 306.538278 317.622857 
L 299.863636 317.622857 
L 299.863636 319.257744 
L 285.772727 319.257744 
L 285.772727 320.892632 
L 274.5 320.892632 
L 274.5 324.162406 
L 269.953688 324.162406 
L 269.953688 324.97985 
L 265.27686 324.97985 
L 265.27686 325.797293 
L 257.590909 325.797293 
L 257.590909 326.614737 
L 240.681818 326.614737 
L 240.681818 327.43218 
L 173.045455 327.43218 
L 173.045455 504 
L 173.045455 504 
" style="fill:none;stroke:#55a868;stroke-linecap:round;stroke-width:2.25;"/>
   </g>
   <g id="line2d_18">
    <path clip-path="url(#p7c62f1e871)" d="M 933.954545 69.12 
L 933.954545 69.937444 
L 849.409091 69.937444 
L 849.409091 70.754887 
L 781.772727 70.754887 
L 781.772727 71.572331 
L 719.339161 71.572331 
L 719.339161 72.389774 
L 710.157754 72.389774 
L 710.157754 73.207218 
L 686.082645 73.207218 
L 686.082645 74.024662 
L 680.318182 74.024662 
L 680.318182 105.904962 
L 646.5 105.904962 
L 646.5 106.722406 
L 634.202479 106.722406 
L 634.202479 107.53985 
L 623.954545 107.53985 
L 623.954545 109.174737 
L 578.863636 109.174737 
L 578.863636 117.349173 
L 553.5 117.349173 
L 553.5 118.166617 
L 550.911874 118.166617 
L 550.911874 118.98406 
L 544.220621 118.98406 
L 544.220621 119.801504 
L 542.203591 119.801504 
L 542.203591 120.618947 
L 541.971074 120.618947 
L 541.971074 123.071278 
L 536.464722 123.071278 
L 536.464722 123.888722 
L 532.038462 123.888722 
L 532.038462 124.706165 
L 531.120321 124.706165 
L 531.120321 126.341053 
L 529.855932 126.341053 
L 529.855932 127.158496 
L 529.215667 127.158496 
L 529.215667 127.97594 
L 511.227273 127.97594 
L 511.227273 150.046917 
L 507.845455 150.046917 
L 507.845455 150.864361 
L 500.047708 150.864361 
L 500.047708 151.681805 
L 499.149351 151.681805 
L 499.149351 152.499248 
L 493.42823 152.499248 
L 493.42823 154.134135 
L 487.071429 154.134135 
L 487.071429 154.951579 
L 485.213287 154.951579 
L 485.213287 156.586466 
L 484.440594 156.586466 
L 484.440594 157.40391 
L 483.045455 157.40391 
L 483.045455 158.221353 
L 481.820158 158.221353 
L 481.820158 159.038797 
L 477.995533 159.038797 
L 477.995533 159.856241 
L 477.755352 159.856241 
L 477.755352 160.673684 
L 477.409091 160.673684 
L 477.409091 162.308571 
L 474.667076 162.308571 
L 474.667076 163.126015 
L 472.166759 163.126015 
L 472.166759 163.943459 
L 469.985588 163.943459 
L 469.985588 165.578346 
L 468.28355 165.578346 
L 468.28355 166.395789 
L 467.590909 166.395789 
L 467.506288 168.030677 
L 462.915584 168.030677 
L 462.915584 172.935338 
L 459.582211 172.935338 
L 459.582211 173.752782 
L 457.830144 173.752782 
L 457.830144 174.570226 
L 449.739669 174.570226 
L 449.739669 175.387669 
L 448.309725 175.387669 
L 448.309725 176.205113 
L 448.176425 176.205113 
L 448.176425 177.022556 
L 447.569519 177.022556 
L 447.569519 177.84 
L 447.246929 177.84 
L 447.246929 179.474887 
L 445.541958 179.474887 
L 445.541958 180.292331 
L 445.240576 180.292331 
L 445.240576 181.109774 
L 440.0311 181.109774 
L 440.0311 181.927218 
L 438.286096 181.927218 
L 438.286096 182.744662 
L 437.709486 182.744662 
L 437.709486 184.379549 
L 433.766633 184.379549 
L 433.766633 185.196992 
L 432.720779 185.196992 
L 432.720779 186.014436 
L 429.892405 186.014436 
L 429.892405 186.83188 
L 426.681818 186.83188 
L 426.681818 198.27609 
L 423.900163 198.27609 
L 423.863636 199.910977 
L 418.884679 199.910977 
L 418.884679 200.728421 
L 417.935737 200.728421 
L 417.935737 201.545865 
L 417.514239 201.545865 
L 417.514239 202.363308 
L 416.536364 202.363308 
L 416.536364 203.180752 
L 411.32127 203.180752 
L 411.32127 203.998195 
L 411.153061 203.998195 
L 411.153061 204.815639 
L 407.171329 204.815639 
L 407.171329 205.633083 
L 404.080558 205.633083 
L 404.080558 206.450526 
L 403.009091 206.450526 
L 403.009091 207.26797 
L 402.136364 207.26797 
L 402.136364 208.902857 
L 400.950593 208.902857 
L 400.950593 209.720301 
L 400.667832 209.720301 
L 400.667832 210.537744 
L 399.144156 210.537744 
L 399.144156 211.355188 
L 398.5 211.355188 
L 398.5 212.990075 
L 397.459647 212.990075 
L 397.459647 213.807519 
L 393.954545 213.807519 
L 393.954545 214.624962 
L 393.802373 214.624962 
L 393.802373 215.442406 
L 393.598814 215.442406 
L 393.598814 216.25985 
L 392.710382 216.25985 
L 392.710382 217.077293 
L 390.448052 217.077293 
L 390.448052 218.71218 
L 389.992281 218.71218 
L 389.992281 219.529624 
L 389.382353 219.529624 
L 389.382353 220.347068 
L 389.106061 220.347068 
L 389.106061 221.164511 
L 387.08458 221.164511 
L 387.08458 221.981955 
L 386.633971 221.981955 
L 386.633971 222.799398 
L 386.422078 222.799398 
L 386.422078 223.616842 
L 382.951411 223.616842 
L 382.951411 224.434286 
L 381.120548 224.434286 
L 381.120548 225.251729 
L 380.383117 225.251729 
L 380.383117 226.069173 
L 379.783019 226.069173 
L 379.783019 226.886617 
L 379.125 226.886617 
L 379.125 227.70406 
L 378.300315 227.70406 
L 378.300315 228.521504 
L 375.954545 228.521504 
L 375.954545 237.513383 
L 373.724775 237.513383 
L 373.724775 238.330827 
L 369.743043 238.330827 
L 369.743043 239.148271 
L 369.552506 239.148271 
L 369.552506 239.965714 
L 369.409091 239.965714 
L 369.409091 240.783158 
L 368.15035 240.783158 
L 368.15035 243.235489 
L 366.064322 243.235489 
L 366.064322 244.052932 
L 365.752412 244.052932 
L 365.752412 244.870376 
L 365.459248 244.870376 
L 365.459248 245.68782 
L 365.27512 245.68782 
L 365.27512 246.505263 
L 360.924242 246.505263 
L 360.924242 248.14015 
L 359.935407 248.14015 
L 359.935407 248.957594 
L 357.508264 248.957594 
L 357.508264 249.775038 
L 355.36442 249.775038 
L 355.36442 250.592481 
L 355.143357 250.592481 
L 355.143357 251.409925 
L 354.214286 251.409925 
L 354.214286 252.227368 
L 352.360465 252.227368 
L 352.360465 253.044812 
L 351.952962 253.044812 
L 351.949675 254.679699 
L 347.91151 254.679699 
L 347.91151 255.497143 
L 347.420455 255.497143 
L 347.420455 256.314586 
L 346.967532 256.314586 
L 346.967532 257.13203 
L 346.260532 257.13203 
L 346.260532 257.949474 
L 345.675476 257.949474 
L 345.675476 258.766917 
L 342.826531 258.766917 
L 342.826531 259.584361 
L 342.136364 259.584361 
L 342.136364 269.393684 
L 338.061884 269.393684 
L 338.061884 270.211128 
L 336.681818 270.211128 
L 336.681818 271.028571 
L 334.784585 271.028571 
L 334.784585 271.846015 
L 331.42566 271.846015 
L 331.42566 272.663459 
L 329.129371 272.663459 
L 329.129371 275.115789 
L 327.17059 275.115789 
L 327.17059 275.933233 
L 323.348485 275.933233 
L 323.291117 277.56812 
L 320.318182 277.56812 
L 320.318182 278.385564 
L 320.081028 278.385564 
L 320.081028 279.203008 
L 317.980519 279.203008 
L 317.980519 282.472782 
L 314.609937 282.472782 
L 314.609937 283.290226 
L 312.982759 283.290226 
L 312.982759 284.107669 
L 311.392562 284.107669 
L 311.392562 285.742556 
L 308.318182 285.742556 
L 308.318182 287.377444 
L 305.37747 287.377444 
L 305.37747 288.194887 
L 305.018847 288.194887 
L 305.018847 289.012331 
L 302.561896 289.012331 
L 302.561896 289.829774 
L 299.863636 289.829774 
L 299.863636 292.282105 
L 285.772727 292.282105 
L 285.772727 294.734436 
L 274.5 294.734436 
L 274.5 298.821654 
L 265.27686 298.821654 
L 265.27686 301.273985 
L 264.240552 301.273985 
L 264.240552 302.091429 
L 257.590909 302.091429 
L 257.590909 305.361203 
L 254.400515 305.361203 
L 254.400515 306.178647 
L 253.141148 306.178647 
L 253.141148 306.99609 
L 240.681818 306.99609 
L 240.681818 308.630977 
L 236.454545 308.630977 
L 236.454545 310.265865 
L 173.045455 310.265865 
L 173.045455 504 
L 173.045455 504 
" style="fill:none;stroke:#dd8452;stroke-linecap:round;stroke-width:2.25;"/>
   </g>
   <g id="line2d_19">
    <path clip-path="url(#p7c62f1e871)" d="M 680.318182 69.12 
L 680.318182 74.024662 
L 650.47861 74.024662 
L 650.47861 74.842105 
L 641.297203 74.842105 
L 641.297203 75.659549 
L 578.863636 75.659549 
L 578.863636 76.476992 
L 511.227273 76.476992 
L 511.227273 83.833985 
L 462.915584 83.833985 
L 462.915584 84.651429 
L 426.681818 84.651429 
L 426.681818 86.286316 
L 375.954545 86.286316 
L 375.954545 87.103759 
L 357.508264 87.103759 
L 357.508264 87.921203 
L 349.123591 87.921203 
L 349.123591 88.738647 
L 342.136364 88.738647 
L 342.136364 92.825865 
L 299.863636 92.825865 
L 299.863636 93.643308 
L 285.772727 93.643308 
L 285.772727 94.460752 
L 281.746753 94.460752 
L 281.746753 95.278195 
L 274.5 95.278195 
L 274.5 96.095639 
L 257.590909 96.095639 
L 257.590909 96.913083 
L 251.087413 96.913083 
L 251.087413 98.54797 
L 240.681818 98.54797 
L 240.681818 99.365414 
L 232.724599 99.365414 
L 232.724599 100.182857 
L 227.885749 100.182857 
L 227.885749 101.000301 
L 217.156126 101.000301 
L 217.156126 102.635188 
L 205.772727 102.635188 
L 205.772727 103.452632 
L 204.785424 103.452632 
L 204.785424 104.270075 
L 201.227273 104.270075 
L 201.227273 105.087519 
L 200.465602 105.087519 
L 200.465602 105.904962 
L 197.492333 105.904962 
L 197.492333 106.722406 
L 196.639535 106.722406 
L 196.639535 107.53985 
L 194.631528 107.53985 
L 194.631528 108.357293 
L 194.181818 108.357293 
L 194.181818 109.174737 
L 192.980383 109.174737 
L 192.980383 109.99218 
L 189.529945 109.99218 
L 189.529945 110.809624 
L 184.444842 110.809624 
L 184.368506 113.261955 
L 184.194306 113.261955 
L 184.194306 114.079398 
L 183.838491 114.079398 
L 183.838491 114.896842 
L 182.707792 114.896842 
L 182.707792 115.714286 
L 182.439394 115.714286 
L 182.439394 116.531729 
L 181.944976 116.531729 
L 181.944976 117.349173 
L 181.643297 117.349173 
L 181.643297 118.166617 
L 181.097403 118.166617 
L 181.097403 118.98406 
L 179.084416 118.98406 
L 179.084416 119.801504 
L 178.842857 119.801504 
L 178.842857 120.618947 
L 178.559289 120.618947 
L 178.549318 122.253835 
L 177.764271 122.253835 
L 177.764271 123.071278 
L 177.169623 123.071278 
L 177.071429 125.523609 
L 176.873928 125.523609 
L 176.873928 126.341053 
L 175.977667 126.341053 
L 175.977667 127.158496 
L 175.462958 127.158496 
L 175.462958 127.97594 
L 175.255793 127.97594 
L 175.254189 129.610827 
L 175.074038 129.610827 
L 175.074038 130.428271 
L 174.823799 130.428271 
L 174.823799 131.245714 
L 174.225159 131.245714 
L 174.225159 132.063158 
L 174.067152 132.063158 
L 174.067152 132.880602 
L 173.898014 132.880602 
L 173.819917 135.332932 
L 173.762955 135.332932 
L 173.695804 139.42015 
L 173.045455 139.42015 
L 173.045455 504 
L 173.045455 504 
" style="fill:none;stroke:#4c72b0;stroke-linecap:round;stroke-width:2.25;"/>
   </g>
   <g id="line2d_20">
    <path clip-path="url(#p7c62f1e871)" d="M 223.772727 504 
L 223.772727 69.12 
" style="fill:none;stroke:#ff0000;stroke-dasharray:11.1,4.8;stroke-dashoffset:0;stroke-width:3;"/>
   </g>
   <g id="patch_3">
    <path d="M 135 504 
L 135 69.12 
" style="fill:none;stroke:#cccccc;stroke-linecap:square;stroke-linejoin:miter;stroke-width:1.875;"/>
   </g>
   <g id="patch_4">
    <path d="M 972 504 
L 972 69.12 
" style="fill:none;stroke:#cccccc;stroke-linecap:square;stroke-linejoin:miter;stroke-width:1.875;"/>
   </g>
   <g id="patch_5">
    <path d="M 135 504 
L 972 504 
" style="fill:none;stroke:#cccccc;stroke-linecap:square;stroke-linejoin:miter;stroke-width:1.875;"/>
   </g>
   <g id="patch_6">
    <path d="M 135 69.12 
L 972 69.12 
" style="fill:none;stroke:#cccccc;stroke-linecap:square;stroke-linejoin:miter;stroke-width:1.875;"/>
   </g>
   <g id="text_17">
    <!-- CDF user distribution - all users sizes -->
    <g style="fill:#262626;" transform="translate(386.810156 63.12)scale(0.18 -0.18)">
     <defs>
      <path d="M 64.40625 67.28125 
L 64.40625 56.890625 
Q 59.421875 61.53125 53.78125 63.8125 
Q 48.140625 66.109375 41.796875 66.109375 
Q 29.296875 66.109375 22.65625 58.46875 
Q 16.015625 50.828125 16.015625 36.375 
Q 16.015625 21.96875 22.65625 14.328125 
Q 29.296875 6.6875 41.796875 6.6875 
Q 48.140625 6.6875 53.78125 8.984375 
Q 59.421875 11.28125 64.40625 15.921875 
L 64.40625 5.609375 
Q 59.234375 2.09375 53.4375 0.328125 
Q 47.65625 -1.421875 41.21875 -1.421875 
Q 24.65625 -1.421875 15.125 8.703125 
Q 5.609375 18.84375 5.609375 36.375 
Q 5.609375 53.953125 15.125 64.078125 
Q 24.65625 74.21875 41.21875 74.21875 
Q 47.75 74.21875 53.53125 72.484375 
Q 59.328125 70.75 64.40625 67.28125 
z
" id="DejaVuSans-67"/>
      <path d="M 19.671875 64.796875 
L 19.671875 8.109375 
L 31.59375 8.109375 
Q 46.6875 8.109375 53.6875 14.9375 
Q 60.6875 21.78125 60.6875 36.53125 
Q 60.6875 51.171875 53.6875 57.984375 
Q 46.6875 64.796875 31.59375 64.796875 
z
M 9.8125 72.90625 
L 30.078125 72.90625 
Q 51.265625 72.90625 61.171875 64.09375 
Q 71.09375 55.28125 71.09375 36.53125 
Q 71.09375 17.671875 61.125 8.828125 
Q 51.171875 0 30.078125 0 
L 9.8125 0 
z
" id="DejaVuSans-68"/>
      <path d="M 45.40625 46.390625 
L 45.40625 75.984375 
L 54.390625 75.984375 
L 54.390625 0 
L 45.40625 0 
L 45.40625 8.203125 
Q 42.578125 3.328125 38.25 0.953125 
Q 33.9375 -1.421875 27.875 -1.421875 
Q 17.96875 -1.421875 11.734375 6.484375 
Q 5.515625 14.40625 5.515625 27.296875 
Q 5.515625 40.1875 11.734375 48.09375 
Q 17.96875 56 27.875 56 
Q 33.9375 56 38.25 53.625 
Q 42.578125 51.265625 45.40625 46.390625 
z
M 14.796875 27.296875 
Q 14.796875 17.390625 18.875 11.75 
Q 22.953125 6.109375 30.078125 6.109375 
Q 37.203125 6.109375 41.296875 11.75 
Q 45.40625 17.390625 45.40625 27.296875 
Q 45.40625 37.203125 41.296875 42.84375 
Q 37.203125 48.484375 30.078125 48.484375 
Q 22.953125 48.484375 18.875 42.84375 
Q 14.796875 37.203125 14.796875 27.296875 
z
" id="DejaVuSans-100"/>
      <path d="M 48.6875 27.296875 
Q 48.6875 37.203125 44.609375 42.84375 
Q 40.53125 48.484375 33.40625 48.484375 
Q 26.265625 48.484375 22.1875 42.84375 
Q 18.109375 37.203125 18.109375 27.296875 
Q 18.109375 17.390625 22.1875 11.75 
Q 26.265625 6.109375 33.40625 6.109375 
Q 40.53125 6.109375 44.609375 11.75 
Q 48.6875 17.390625 48.6875 27.296875 
z
M 18.109375 46.390625 
Q 20.953125 51.265625 25.265625 53.625 
Q 29.59375 56 35.59375 56 
Q 45.5625 56 51.78125 48.09375 
Q 58.015625 40.1875 58.015625 27.296875 
Q 58.015625 14.40625 51.78125 6.484375 
Q 45.5625 -1.421875 35.59375 -1.421875 
Q 29.59375 -1.421875 25.265625 0.953125 
Q 20.953125 3.328125 18.109375 8.203125 
L 18.109375 0 
L 9.078125 0 
L 9.078125 75.984375 
L 18.109375 75.984375 
z
" id="DejaVuSans-98"/>
      <path d="M 4.890625 31.390625 
L 31.203125 31.390625 
L 31.203125 23.390625 
L 4.890625 23.390625 
z
" id="DejaVuSans-45"/>
      <path d="M 5.515625 54.6875 
L 48.1875 54.6875 
L 48.1875 46.484375 
L 14.40625 7.171875 
L 48.1875 7.171875 
L 48.1875 0 
L 4.296875 0 
L 4.296875 8.203125 
L 38.09375 47.515625 
L 5.515625 47.515625 
z
" id="DejaVuSans-122"/>
     </defs>
     <use xlink:href="#DejaVuSans-67"/>
     <use x="69.824219" xlink:href="#DejaVuSans-68"/>
     <use x="146.826172" xlink:href="#DejaVuSans-70"/>
     <use x="204.345703" xlink:href="#DejaVuSans-32"/>
     <use x="236.132812" xlink:href="#DejaVuSans-117"/>
     <use x="299.511719" xlink:href="#DejaVuSans-115"/>
     <use x="351.611328" xlink:href="#DejaVuSans-101"/>
     <use x="413.134766" xlink:href="#DejaVuSans-114"/>
     <use x="454.248047" xlink:href="#DejaVuSans-32"/>
     <use x="486.035156" xlink:href="#DejaVuSans-100"/>
     <use x="549.511719" xlink:href="#DejaVuSans-105"/>
     <use x="577.294922" xlink:href="#DejaVuSans-115"/>
     <use x="629.394531" xlink:href="#DejaVuSans-116"/>
     <use x="668.603516" xlink:href="#DejaVuSans-114"/>
     <use x="709.716797" xlink:href="#DejaVuSans-105"/>
     <use x="737.5" xlink:href="#DejaVuSans-98"/>
     <use x="800.976562" xlink:href="#DejaVuSans-117"/>
     <use x="864.355469" xlink:href="#DejaVuSans-116"/>
     <use x="903.564453" xlink:href="#DejaVuSans-105"/>
     <use x="931.347656" xlink:href="#DejaVuSans-111"/>
     <use x="992.529297" xlink:href="#DejaVuSans-110"/>
     <use x="1055.908203" xlink:href="#DejaVuSans-32"/>
     <use x="1087.695312" xlink:href="#DejaVuSans-45"/>
     <use x="1123.779297" xlink:href="#DejaVuSans-32"/>
     <use x="1155.566406" xlink:href="#DejaVuSans-97"/>
     <use x="1216.845703" xlink:href="#DejaVuSans-108"/>
     <use x="1244.628906" xlink:href="#DejaVuSans-108"/>
     <use x="1272.412109" xlink:href="#DejaVuSans-32"/>
     <use x="1304.199219" xlink:href="#DejaVuSans-117"/>
     <use x="1367.578125" xlink:href="#DejaVuSans-115"/>
     <use x="1419.677734" xlink:href="#DejaVuSans-101"/>
     <use x="1481.201172" xlink:href="#DejaVuSans-114"/>
     <use x="1522.314453" xlink:href="#DejaVuSans-115"/>
     <use x="1574.414062" xlink:href="#DejaVuSans-32"/>
     <use x="1606.201172" xlink:href="#DejaVuSans-115"/>
     <use x="1658.300781" xlink:href="#DejaVuSans-105"/>
     <use x="1686.083984" xlink:href="#DejaVuSans-122"/>
     <use x="1738.574219" xlink:href="#DejaVuSans-101"/>
     <use x="1800.097656" xlink:href="#DejaVuSans-115"/>
    </g>
   </g>
   <g id="legend_1">
    <g id="patch_7">
     <path d="M 852.784922 495.75 
L 960.45 495.75 
Q 963.75 495.75 963.75 492.45 
L 963.75 347.334844 
Q 963.75 344.034844 960.45 344.034844 
L 852.784922 344.034844 
Q 849.484922 344.034844 849.484922 347.334844 
L 849.484922 492.45 
Q 849.484922 495.75 852.784922 495.75 
z
" style="fill:#ffffff;opacity:0.8;stroke:#cccccc;stroke-linejoin:miter;stroke-width:1.5;"/>
    </g>
    <g id="text_18">
     <!-- K-Means -->
     <g style="fill:#262626;" transform="translate(869.202773 364.312031)scale(0.18 -0.18)">
      <defs>
       <path d="M 9.8125 72.90625 
L 19.671875 72.90625 
L 19.671875 42.09375 
L 52.390625 72.90625 
L 65.09375 72.90625 
L 28.90625 38.921875 
L 67.671875 0 
L 54.6875 0 
L 19.671875 35.109375 
L 19.671875 0 
L 9.8125 0 
z
" id="DejaVuSans-75"/>
       <path d="M 9.8125 72.90625 
L 24.515625 72.90625 
L 43.109375 23.296875 
L 61.8125 72.90625 
L 76.515625 72.90625 
L 76.515625 0 
L 66.890625 0 
L 66.890625 64.015625 
L 48.09375 14.015625 
L 38.1875 14.015625 
L 19.390625 64.015625 
L 19.390625 0 
L 9.8125 0 
z
" id="DejaVuSans-77"/>
      </defs>
      <use xlink:href="#DejaVuSans-75"/>
      <use x="55.076172" xlink:href="#DejaVuSans-45"/>
      <use x="91.160156" xlink:href="#DejaVuSans-77"/>
      <use x="177.439453" xlink:href="#DejaVuSans-101"/>
      <use x="238.962891" xlink:href="#DejaVuSans-97"/>
      <use x="300.242188" xlink:href="#DejaVuSans-110"/>
      <use x="363.621094" xlink:href="#DejaVuSans-115"/>
     </g>
    </g>
    <g id="line2d_21">
     <path d="M 856.084922 383.067891 
L 889.084922 383.067891 
" style="fill:none;stroke:#8172b3;stroke-linecap:round;stroke-width:2.25;"/>
    </g>
    <g id="line2d_22"/>
    <g id="text_19">
     <!-- k = 10 -->
     <g style="fill:#262626;" transform="translate(902.284922 388.842891)scale(0.165 -0.165)">
      <defs>
       <path d="M 9.078125 75.984375 
L 18.109375 75.984375 
L 18.109375 31.109375 
L 44.921875 54.6875 
L 56.390625 54.6875 
L 27.390625 29.109375 
L 57.625 0 
L 45.90625 0 
L 18.109375 26.703125 
L 18.109375 0 
L 9.078125 0 
z
" id="DejaVuSans-107"/>
       <path d="M 10.59375 45.40625 
L 73.1875 45.40625 
L 73.1875 37.203125 
L 10.59375 37.203125 
z
M 10.59375 25.484375 
L 73.1875 25.484375 
L 73.1875 17.1875 
L 10.59375 17.1875 
z
" id="DejaVuSans-61"/>
      </defs>
      <use xlink:href="#DejaVuSans-107"/>
      <use x="57.910156" xlink:href="#DejaVuSans-32"/>
      <use x="89.697266" xlink:href="#DejaVuSans-61"/>
      <use x="173.486328" xlink:href="#DejaVuSans-32"/>
      <use x="205.273438" xlink:href="#DejaVuSans-49"/>
      <use x="268.896484" xlink:href="#DejaVuSans-48"/>
     </g>
    </g>
    <g id="line2d_23">
     <path d="M 856.084922 407.286797 
L 889.084922 407.286797 
" style="fill:none;stroke:#c44e52;stroke-linecap:round;stroke-width:2.25;"/>
    </g>
    <g id="line2d_24"/>
    <g id="text_20">
     <!-- k = 8 -->
     <g style="fill:#262626;" transform="translate(902.284922 413.061797)scale(0.165 -0.165)">
      <use xlink:href="#DejaVuSans-107"/>
      <use x="57.910156" xlink:href="#DejaVuSans-32"/>
      <use x="89.697266" xlink:href="#DejaVuSans-61"/>
      <use x="173.486328" xlink:href="#DejaVuSans-32"/>
      <use x="205.273438" xlink:href="#DejaVuSans-56"/>
     </g>
    </g>
    <g id="line2d_25">
     <path d="M 856.084922 431.505703 
L 889.084922 431.505703 
" style="fill:none;stroke:#55a868;stroke-linecap:round;stroke-width:2.25;"/>
    </g>
    <g id="line2d_26"/>
    <g id="text_21">
     <!-- k = 6 -->
     <g style="fill:#262626;" transform="translate(902.284922 437.280703)scale(0.165 -0.165)">
      <use xlink:href="#DejaVuSans-107"/>
      <use x="57.910156" xlink:href="#DejaVuSans-32"/>
      <use x="89.697266" xlink:href="#DejaVuSans-61"/>
      <use x="173.486328" xlink:href="#DejaVuSans-32"/>
      <use x="205.273438" xlink:href="#DejaVuSans-54"/>
     </g>
    </g>
    <g id="line2d_27">
     <path d="M 856.084922 455.724609 
L 889.084922 455.724609 
" style="fill:none;stroke:#dd8452;stroke-linecap:round;stroke-width:2.25;"/>
    </g>
    <g id="line2d_28"/>
    <g id="text_22">
     <!-- k = 4 -->
     <g style="fill:#262626;" transform="translate(902.284922 461.499609)scale(0.165 -0.165)">
      <use xlink:href="#DejaVuSans-107"/>
      <use x="57.910156" xlink:href="#DejaVuSans-32"/>
      <use x="89.697266" xlink:href="#DejaVuSans-61"/>
      <use x="173.486328" xlink:href="#DejaVuSans-32"/>
      <use x="205.273438" xlink:href="#DejaVuSans-52"/>
     </g>
    </g>
    <g id="line2d_29">
     <path d="M 856.084922 479.943516 
L 889.084922 479.943516 
" style="fill:none;stroke:#4c72b0;stroke-linecap:round;stroke-width:2.25;"/>
    </g>
    <g id="line2d_30"/>
    <g id="text_23">
     <!-- k = 2 -->
     <g style="fill:#262626;" transform="translate(902.284922 485.718516)scale(0.165 -0.165)">
      <use xlink:href="#DejaVuSans-107"/>
      <use x="57.910156" xlink:href="#DejaVuSans-32"/>
      <use x="89.697266" xlink:href="#DejaVuSans-61"/>
      <use x="173.486328" xlink:href="#DejaVuSans-32"/>
      <use x="205.273438" xlink:href="#DejaVuSans-50"/>
     </g>
    </g>
   </g>
  </g>
 </g>
 <defs>
  <clipPath id="p7c62f1e871">
   <rect height="434.88" width="837" x="135" y="69.12"/>
  </clipPath>
 </defs>
</svg>
