<?xml version="1.0" encoding="utf-8" standalone="no"?>
<!DOCTYPE svg PUBLIC "-//W3C//DTD SVG 1.1//EN"
  "http://www.w3.org/Graphics/SVG/1.1/DTD/svg11.dtd">
<svg height="576pt" version="1.1" viewBox="0 0 1080 576" width="1080pt" xmlns="http://www.w3.org/2000/svg" xmlns:xlink="http://www.w3.org/1999/xlink">
 <metadata>
  <rdf:RDF xmlns:cc="http://creativecommons.org/ns#" xmlns:dc="http://purl.org/dc/elements/1.1/" xmlns:rdf="http://www.w3.org/1999/02/22-rdf-syntax-ns#">
   <cc:Work>
    <dc:type rdf:resource="http://purl.org/dc/dcmitype/StillImage"/>
    <dc:date>2022-01-25T16:08:02.299818</dc:date>
    <dc:format>image/svg+xml</dc:format>
    <dc:creator>
     <cc:Agent>
      <dc:title>Matplotlib v3.4.3, https://matplotlib.org/</dc:title>
     </cc:Agent>
    </dc:creator>
   </cc:Work>
  </rdf:RDF>
 </metadata>
 <defs>
  <style type="text/css">*{stroke-linecap:butt;stroke-linejoin:round;}</style>
 </defs>
 <g id="figure_1">
  <g id="patch_1">
   <path d="M 0 576 
L 1080 576 
L 1080 0 
L 0 0 
z
" style="fill:#ffffff;"/>
  </g>
  <g id="axes_1">
   <g id="patch_2">
    <path d="M 135 504 
L 972 504 
L 972 69.12 
L 135 69.12 
z
" style="fill:#ffffff;"/>
   </g>
   <g id="matplotlib.axis_1">
    <g id="xtick_1">
     <g id="line2d_1">
      <path clip-path="url(#p0d1db21dbf)" d="M 883.227273 504 
L 883.227273 69.12 
" style="fill:none;stroke:#999999;stroke-dasharray:1.5,2.475;stroke-dashoffset:0;stroke-width:1.5;"/>
     </g>
     <g id="text_1">
      <!-- 0.3 -->
      <g style="fill:#262626;" transform="translate(870.107195 529.037422)scale(0.165 -0.165)">
       <defs>
        <path d="M 2034 4250 
Q 1547 4250 1301 3770 
Q 1056 3291 1056 2328 
Q 1056 1369 1301 889 
Q 1547 409 2034 409 
Q 2525 409 2770 889 
Q 3016 1369 3016 2328 
Q 3016 3291 2770 3770 
Q 2525 4250 2034 4250 
z
M 2034 4750 
Q 2819 4750 3233 4129 
Q 3647 3509 3647 2328 
Q 3647 1150 3233 529 
Q 2819 -91 2034 -91 
Q 1250 -91 836 529 
Q 422 1150 422 2328 
Q 422 3509 836 4129 
Q 1250 4750 2034 4750 
z
" id="DejaVuSans-30" transform="scale(0.015625)"/>
        <path d="M 684 794 
L 1344 794 
L 1344 0 
L 684 0 
L 684 794 
z
" id="DejaVuSans-2e" transform="scale(0.015625)"/>
        <path d="M 2597 2516 
Q 3050 2419 3304 2112 
Q 3559 1806 3559 1356 
Q 3559 666 3084 287 
Q 2609 -91 1734 -91 
Q 1441 -91 1130 -33 
Q 819 25 488 141 
L 488 750 
Q 750 597 1062 519 
Q 1375 441 1716 441 
Q 2309 441 2620 675 
Q 2931 909 2931 1356 
Q 2931 1769 2642 2001 
Q 2353 2234 1838 2234 
L 1294 2234 
L 1294 2753 
L 1863 2753 
Q 2328 2753 2575 2939 
Q 2822 3125 2822 3475 
Q 2822 3834 2567 4026 
Q 2313 4219 1838 4219 
Q 1578 4219 1281 4162 
Q 984 4106 628 3988 
L 628 4550 
Q 988 4650 1302 4700 
Q 1616 4750 1894 4750 
Q 2613 4750 3031 4423 
Q 3450 4097 3450 3541 
Q 3450 3153 3228 2886 
Q 3006 2619 2597 2516 
z
" id="DejaVuSans-33" transform="scale(0.015625)"/>
       </defs>
       <use xlink:href="#DejaVuSans-30"/>
       <use x="63.623047" xlink:href="#DejaVuSans-2e"/>
       <use x="95.410156" xlink:href="#DejaVuSans-33"/>
      </g>
     </g>
    </g>
    <g id="xtick_2">
     <g id="line2d_2">
      <path clip-path="url(#p0d1db21dbf)" d="M 781.772727 504 
L 781.772727 69.12 
" style="fill:none;stroke:#999999;stroke-dasharray:1.5,2.475;stroke-dashoffset:0;stroke-width:1.5;"/>
     </g>
     <g id="text_2">
      <!-- 0.4 -->
      <g style="fill:#262626;" transform="translate(768.652649 529.037422)scale(0.165 -0.165)">
       <defs>
        <path d="M 2419 4116 
L 825 1625 
L 2419 1625 
L 2419 4116 
z
M 2253 4666 
L 3047 4666 
L 3047 1625 
L 3713 1625 
L 3713 1100 
L 3047 1100 
L 3047 0 
L 2419 0 
L 2419 1100 
L 313 1100 
L 313 1709 
L 2253 4666 
z
" id="DejaVuSans-34" transform="scale(0.015625)"/>
       </defs>
       <use xlink:href="#DejaVuSans-30"/>
       <use x="63.623047" xlink:href="#DejaVuSans-2e"/>
       <use x="95.410156" xlink:href="#DejaVuSans-34"/>
      </g>
     </g>
    </g>
    <g id="xtick_3">
     <g id="line2d_3">
      <path clip-path="url(#p0d1db21dbf)" d="M 680.318182 504 
L 680.318182 69.12 
" style="fill:none;stroke:#999999;stroke-dasharray:1.5,2.475;stroke-dashoffset:0;stroke-width:1.5;"/>
     </g>
     <g id="text_3">
      <!-- 0.5 -->
      <g style="fill:#262626;" transform="translate(667.198104 529.037422)scale(0.165 -0.165)">
       <defs>
        <path d="M 691 4666 
L 3169 4666 
L 3169 4134 
L 1269 4134 
L 1269 2991 
Q 1406 3038 1543 3061 
Q 1681 3084 1819 3084 
Q 2600 3084 3056 2656 
Q 3513 2228 3513 1497 
Q 3513 744 3044 326 
Q 2575 -91 1722 -91 
Q 1428 -91 1123 -41 
Q 819 9 494 109 
L 494 744 
Q 775 591 1075 516 
Q 1375 441 1709 441 
Q 2250 441 2565 725 
Q 2881 1009 2881 1497 
Q 2881 1984 2565 2268 
Q 2250 2553 1709 2553 
Q 1456 2553 1204 2497 
Q 953 2441 691 2322 
L 691 4666 
z
" id="DejaVuSans-35" transform="scale(0.015625)"/>
       </defs>
       <use xlink:href="#DejaVuSans-30"/>
       <use x="63.623047" xlink:href="#DejaVuSans-2e"/>
       <use x="95.410156" xlink:href="#DejaVuSans-35"/>
      </g>
     </g>
    </g>
    <g id="xtick_4">
     <g id="line2d_4">
      <path clip-path="url(#p0d1db21dbf)" d="M 578.863636 504 
L 578.863636 69.12 
" style="fill:none;stroke:#999999;stroke-dasharray:1.5,2.475;stroke-dashoffset:0;stroke-width:1.5;"/>
     </g>
     <g id="text_4">
      <!-- 0.6 -->
      <g style="fill:#262626;" transform="translate(565.743558 529.037422)scale(0.165 -0.165)">
       <defs>
        <path d="M 2113 2584 
Q 1688 2584 1439 2293 
Q 1191 2003 1191 1497 
Q 1191 994 1439 701 
Q 1688 409 2113 409 
Q 2538 409 2786 701 
Q 3034 994 3034 1497 
Q 3034 2003 2786 2293 
Q 2538 2584 2113 2584 
z
M 3366 4563 
L 3366 3988 
Q 3128 4100 2886 4159 
Q 2644 4219 2406 4219 
Q 1781 4219 1451 3797 
Q 1122 3375 1075 2522 
Q 1259 2794 1537 2939 
Q 1816 3084 2150 3084 
Q 2853 3084 3261 2657 
Q 3669 2231 3669 1497 
Q 3669 778 3244 343 
Q 2819 -91 2113 -91 
Q 1303 -91 875 529 
Q 447 1150 447 2328 
Q 447 3434 972 4092 
Q 1497 4750 2381 4750 
Q 2619 4750 2861 4703 
Q 3103 4656 3366 4563 
z
" id="DejaVuSans-36" transform="scale(0.015625)"/>
       </defs>
       <use xlink:href="#DejaVuSans-30"/>
       <use x="63.623047" xlink:href="#DejaVuSans-2e"/>
       <use x="95.410156" xlink:href="#DejaVuSans-36"/>
      </g>
     </g>
    </g>
    <g id="xtick_5">
     <g id="line2d_5">
      <path clip-path="url(#p0d1db21dbf)" d="M 477.409091 504 
L 477.409091 69.12 
" style="fill:none;stroke:#999999;stroke-dasharray:1.5,2.475;stroke-dashoffset:0;stroke-width:1.5;"/>
     </g>
     <g id="text_5">
      <!-- 0.7 -->
      <g style="fill:#262626;" transform="translate(464.289013 529.037422)scale(0.165 -0.165)">
       <defs>
        <path d="M 525 4666 
L 3525 4666 
L 3525 4397 
L 1831 0 
L 1172 0 
L 2766 4134 
L 525 4134 
L 525 4666 
z
" id="DejaVuSans-37" transform="scale(0.015625)"/>
       </defs>
       <use xlink:href="#DejaVuSans-30"/>
       <use x="63.623047" xlink:href="#DejaVuSans-2e"/>
       <use x="95.410156" xlink:href="#DejaVuSans-37"/>
      </g>
     </g>
    </g>
    <g id="xtick_6">
     <g id="line2d_6">
      <path clip-path="url(#p0d1db21dbf)" d="M 375.954545 504 
L 375.954545 69.12 
" style="fill:none;stroke:#999999;stroke-dasharray:1.5,2.475;stroke-dashoffset:0;stroke-width:1.5;"/>
     </g>
     <g id="text_6">
      <!-- 0.8 -->
      <g style="fill:#262626;" transform="translate(362.834467 529.037422)scale(0.165 -0.165)">
       <defs>
        <path d="M 2034 2216 
Q 1584 2216 1326 1975 
Q 1069 1734 1069 1313 
Q 1069 891 1326 650 
Q 1584 409 2034 409 
Q 2484 409 2743 651 
Q 3003 894 3003 1313 
Q 3003 1734 2745 1975 
Q 2488 2216 2034 2216 
z
M 1403 2484 
Q 997 2584 770 2862 
Q 544 3141 544 3541 
Q 544 4100 942 4425 
Q 1341 4750 2034 4750 
Q 2731 4750 3128 4425 
Q 3525 4100 3525 3541 
Q 3525 3141 3298 2862 
Q 3072 2584 2669 2484 
Q 3125 2378 3379 2068 
Q 3634 1759 3634 1313 
Q 3634 634 3220 271 
Q 2806 -91 2034 -91 
Q 1263 -91 848 271 
Q 434 634 434 1313 
Q 434 1759 690 2068 
Q 947 2378 1403 2484 
z
M 1172 3481 
Q 1172 3119 1398 2916 
Q 1625 2713 2034 2713 
Q 2441 2713 2670 2916 
Q 2900 3119 2900 3481 
Q 2900 3844 2670 4047 
Q 2441 4250 2034 4250 
Q 1625 4250 1398 4047 
Q 1172 3844 1172 3481 
z
" id="DejaVuSans-38" transform="scale(0.015625)"/>
       </defs>
       <use xlink:href="#DejaVuSans-30"/>
       <use x="63.623047" xlink:href="#DejaVuSans-2e"/>
       <use x="95.410156" xlink:href="#DejaVuSans-38"/>
      </g>
     </g>
    </g>
    <g id="xtick_7">
     <g id="line2d_7">
      <path clip-path="url(#p0d1db21dbf)" d="M 274.5 504 
L 274.5 69.12 
" style="fill:none;stroke:#999999;stroke-dasharray:1.5,2.475;stroke-dashoffset:0;stroke-width:1.5;"/>
     </g>
     <g id="text_7">
      <!-- 0.9 -->
      <g style="fill:#262626;" transform="translate(261.379922 529.037422)scale(0.165 -0.165)">
       <defs>
        <path d="M 703 97 
L 703 672 
Q 941 559 1184 500 
Q 1428 441 1663 441 
Q 2288 441 2617 861 
Q 2947 1281 2994 2138 
Q 2813 1869 2534 1725 
Q 2256 1581 1919 1581 
Q 1219 1581 811 2004 
Q 403 2428 403 3163 
Q 403 3881 828 4315 
Q 1253 4750 1959 4750 
Q 2769 4750 3195 4129 
Q 3622 3509 3622 2328 
Q 3622 1225 3098 567 
Q 2575 -91 1691 -91 
Q 1453 -91 1209 -44 
Q 966 3 703 97 
z
M 1959 2075 
Q 2384 2075 2632 2365 
Q 2881 2656 2881 3163 
Q 2881 3666 2632 3958 
Q 2384 4250 1959 4250 
Q 1534 4250 1286 3958 
Q 1038 3666 1038 3163 
Q 1038 2656 1286 2365 
Q 1534 2075 1959 2075 
z
" id="DejaVuSans-39" transform="scale(0.015625)"/>
       </defs>
       <use xlink:href="#DejaVuSans-30"/>
       <use x="63.623047" xlink:href="#DejaVuSans-2e"/>
       <use x="95.410156" xlink:href="#DejaVuSans-39"/>
      </g>
     </g>
    </g>
    <g id="xtick_8">
     <g id="line2d_8">
      <path clip-path="url(#p0d1db21dbf)" d="M 173.045455 504 
L 173.045455 69.12 
" style="fill:none;stroke:#999999;stroke-dasharray:1.5,2.475;stroke-dashoffset:0;stroke-width:1.5;"/>
     </g>
     <g id="text_8">
      <!-- 1.0 -->
      <g style="fill:#262626;" transform="translate(159.925376 529.037422)scale(0.165 -0.165)">
       <defs>
        <path d="M 794 531 
L 1825 531 
L 1825 4091 
L 703 3866 
L 703 4441 
L 1819 4666 
L 2450 4666 
L 2450 531 
L 3481 531 
L 3481 0 
L 794 0 
L 794 531 
z
" id="DejaVuSans-31" transform="scale(0.015625)"/>
       </defs>
       <use xlink:href="#DejaVuSans-31"/>
       <use x="63.623047" xlink:href="#DejaVuSans-2e"/>
       <use x="95.410156" xlink:href="#DejaVuSans-30"/>
      </g>
     </g>
    </g>
    <g id="text_9">
     <!-- ratio -->
     <g style="fill:#262626;" transform="translate(532.749375 550.146094)scale(0.18 -0.18)">
      <defs>
       <path d="M 2631 2963 
Q 2534 3019 2420 3045 
Q 2306 3072 2169 3072 
Q 1681 3072 1420 2755 
Q 1159 2438 1159 1844 
L 1159 0 
L 581 0 
L 581 3500 
L 1159 3500 
L 1159 2956 
Q 1341 3275 1631 3429 
Q 1922 3584 2338 3584 
Q 2397 3584 2469 3576 
Q 2541 3569 2628 3553 
L 2631 2963 
z
" id="DejaVuSans-72" transform="scale(0.015625)"/>
       <path d="M 2194 1759 
Q 1497 1759 1228 1600 
Q 959 1441 959 1056 
Q 959 750 1161 570 
Q 1363 391 1709 391 
Q 2188 391 2477 730 
Q 2766 1069 2766 1631 
L 2766 1759 
L 2194 1759 
z
M 3341 1997 
L 3341 0 
L 2766 0 
L 2766 531 
Q 2569 213 2275 61 
Q 1981 -91 1556 -91 
Q 1019 -91 701 211 
Q 384 513 384 1019 
Q 384 1609 779 1909 
Q 1175 2209 1959 2209 
L 2766 2209 
L 2766 2266 
Q 2766 2663 2505 2880 
Q 2244 3097 1772 3097 
Q 1472 3097 1187 3025 
Q 903 2953 641 2809 
L 641 3341 
Q 956 3463 1253 3523 
Q 1550 3584 1831 3584 
Q 2591 3584 2966 3190 
Q 3341 2797 3341 1997 
z
" id="DejaVuSans-61" transform="scale(0.015625)"/>
       <path d="M 1172 4494 
L 1172 3500 
L 2356 3500 
L 2356 3053 
L 1172 3053 
L 1172 1153 
Q 1172 725 1289 603 
Q 1406 481 1766 481 
L 2356 481 
L 2356 0 
L 1766 0 
Q 1100 0 847 248 
Q 594 497 594 1153 
L 594 3053 
L 172 3053 
L 172 3500 
L 594 3500 
L 594 4494 
L 1172 4494 
z
" id="DejaVuSans-74" transform="scale(0.015625)"/>
       <path d="M 603 3500 
L 1178 3500 
L 1178 0 
L 603 0 
L 603 3500 
z
M 603 4863 
L 1178 4863 
L 1178 4134 
L 603 4134 
L 603 4863 
z
" id="DejaVuSans-69" transform="scale(0.015625)"/>
       <path d="M 1959 3097 
Q 1497 3097 1228 2736 
Q 959 2375 959 1747 
Q 959 1119 1226 758 
Q 1494 397 1959 397 
Q 2419 397 2687 759 
Q 2956 1122 2956 1747 
Q 2956 2369 2687 2733 
Q 2419 3097 1959 3097 
z
M 1959 3584 
Q 2709 3584 3137 3096 
Q 3566 2609 3566 1747 
Q 3566 888 3137 398 
Q 2709 -91 1959 -91 
Q 1206 -91 779 398 
Q 353 888 353 1747 
Q 353 2609 779 3096 
Q 1206 3584 1959 3584 
z
" id="DejaVuSans-6f" transform="scale(0.015625)"/>
      </defs>
      <use xlink:href="#DejaVuSans-72"/>
      <use x="41.113281" xlink:href="#DejaVuSans-61"/>
      <use x="102.392578" xlink:href="#DejaVuSans-74"/>
      <use x="141.601562" xlink:href="#DejaVuSans-69"/>
      <use x="169.384766" xlink:href="#DejaVuSans-6f"/>
     </g>
    </g>
   </g>
   <g id="matplotlib.axis_2">
    <g id="ytick_1">
     <g id="line2d_9">
      <path clip-path="url(#p0d1db21dbf)" d="M 135 504 
L 972 504 
" style="fill:none;stroke:#999999;stroke-dasharray:1.5,2.475;stroke-dashoffset:0;stroke-width:1.5;"/>
     </g>
     <g id="text_10">
      <!-- 0% -->
      <g style="fill:#262626;" transform="translate(96.324297 510.268711)scale(0.165 -0.165)">
       <defs>
        <path d="M 4653 2053 
Q 4381 2053 4226 1822 
Q 4072 1591 4072 1178 
Q 4072 772 4226 539 
Q 4381 306 4653 306 
Q 4919 306 5073 539 
Q 5228 772 5228 1178 
Q 5228 1588 5073 1820 
Q 4919 2053 4653 2053 
z
M 4653 2450 
Q 5147 2450 5437 2106 
Q 5728 1763 5728 1178 
Q 5728 594 5436 251 
Q 5144 -91 4653 -91 
Q 4153 -91 3862 251 
Q 3572 594 3572 1178 
Q 3572 1766 3864 2108 
Q 4156 2450 4653 2450 
z
M 1428 4353 
Q 1159 4353 1004 4120 
Q 850 3888 850 3481 
Q 850 3069 1003 2837 
Q 1156 2606 1428 2606 
Q 1700 2606 1854 2837 
Q 2009 3069 2009 3481 
Q 2009 3884 1853 4118 
Q 1697 4353 1428 4353 
z
M 4250 4750 
L 4750 4750 
L 1831 -91 
L 1331 -91 
L 4250 4750 
z
M 1428 4750 
Q 1922 4750 2215 4408 
Q 2509 4066 2509 3481 
Q 2509 2891 2217 2550 
Q 1925 2209 1428 2209 
Q 931 2209 642 2551 
Q 353 2894 353 3481 
Q 353 4063 643 4406 
Q 934 4750 1428 4750 
z
" id="DejaVuSans-25" transform="scale(0.015625)"/>
       </defs>
       <use xlink:href="#DejaVuSans-30"/>
       <use x="63.623047" xlink:href="#DejaVuSans-25"/>
      </g>
     </g>
    </g>
    <g id="ytick_2">
     <g id="line2d_10">
      <path clip-path="url(#p0d1db21dbf)" d="M 135 417.024 
L 972 417.024 
" style="fill:none;stroke:#999999;stroke-dasharray:1.5,2.475;stroke-dashoffset:0;stroke-width:1.5;"/>
     </g>
     <g id="text_11">
      <!-- 20% -->
      <g style="fill:#262626;" transform="translate(85.826172 423.292711)scale(0.165 -0.165)">
       <defs>
        <path d="M 1228 531 
L 3431 531 
L 3431 0 
L 469 0 
L 469 531 
Q 828 903 1448 1529 
Q 2069 2156 2228 2338 
Q 2531 2678 2651 2914 
Q 2772 3150 2772 3378 
Q 2772 3750 2511 3984 
Q 2250 4219 1831 4219 
Q 1534 4219 1204 4116 
Q 875 4013 500 3803 
L 500 4441 
Q 881 4594 1212 4672 
Q 1544 4750 1819 4750 
Q 2544 4750 2975 4387 
Q 3406 4025 3406 3419 
Q 3406 3131 3298 2873 
Q 3191 2616 2906 2266 
Q 2828 2175 2409 1742 
Q 1991 1309 1228 531 
z
" id="DejaVuSans-32" transform="scale(0.015625)"/>
       </defs>
       <use xlink:href="#DejaVuSans-32"/>
       <use x="63.623047" xlink:href="#DejaVuSans-30"/>
       <use x="127.246094" xlink:href="#DejaVuSans-25"/>
      </g>
     </g>
    </g>
    <g id="ytick_3">
     <g id="line2d_11">
      <path clip-path="url(#p0d1db21dbf)" d="M 135 330.048 
L 972 330.048 
" style="fill:none;stroke:#999999;stroke-dasharray:1.5,2.475;stroke-dashoffset:0;stroke-width:1.5;"/>
     </g>
     <g id="text_12">
      <!-- 40% -->
      <g style="fill:#262626;" transform="translate(85.826172 336.316711)scale(0.165 -0.165)">
       <use xlink:href="#DejaVuSans-34"/>
       <use x="63.623047" xlink:href="#DejaVuSans-30"/>
       <use x="127.246094" xlink:href="#DejaVuSans-25"/>
      </g>
     </g>
    </g>
    <g id="ytick_4">
     <g id="line2d_12">
      <path clip-path="url(#p0d1db21dbf)" d="M 135 243.072 
L 972 243.072 
" style="fill:none;stroke:#999999;stroke-dasharray:1.5,2.475;stroke-dashoffset:0;stroke-width:1.5;"/>
     </g>
     <g id="text_13">
      <!-- 60% -->
      <g style="fill:#262626;" transform="translate(85.826172 249.340711)scale(0.165 -0.165)">
       <use xlink:href="#DejaVuSans-36"/>
       <use x="63.623047" xlink:href="#DejaVuSans-30"/>
       <use x="127.246094" xlink:href="#DejaVuSans-25"/>
      </g>
     </g>
    </g>
    <g id="ytick_5">
     <g id="line2d_13">
      <path clip-path="url(#p0d1db21dbf)" d="M 135 156.096 
L 972 156.096 
" style="fill:none;stroke:#999999;stroke-dasharray:1.5,2.475;stroke-dashoffset:0;stroke-width:1.5;"/>
     </g>
     <g id="text_14">
      <!-- 80% -->
      <g style="fill:#262626;" transform="translate(85.826172 162.364711)scale(0.165 -0.165)">
       <use xlink:href="#DejaVuSans-38"/>
       <use x="63.623047" xlink:href="#DejaVuSans-30"/>
       <use x="127.246094" xlink:href="#DejaVuSans-25"/>
      </g>
     </g>
    </g>
    <g id="ytick_6">
     <g id="line2d_14">
      <path clip-path="url(#p0d1db21dbf)" d="M 135 69.12 
L 972 69.12 
" style="fill:none;stroke:#999999;stroke-dasharray:1.5,2.475;stroke-dashoffset:0;stroke-width:1.5;"/>
     </g>
     <g id="text_15">
      <!-- 100% -->
      <g style="fill:#262626;" transform="translate(75.328047 75.388711)scale(0.165 -0.165)">
       <use xlink:href="#DejaVuSans-31"/>
       <use x="63.623047" xlink:href="#DejaVuSans-30"/>
       <use x="127.246094" xlink:href="#DejaVuSans-30"/>
       <use x="190.869141" xlink:href="#DejaVuSans-25"/>
      </g>
     </g>
    </g>
    <g id="text_16">
     <!-- Proportion -->
     <g style="fill:#262626;" transform="translate(67.584609 332.992969)rotate(-90)scale(0.18 -0.18)">
      <defs>
       <path d="M 1259 4147 
L 1259 2394 
L 2053 2394 
Q 2494 2394 2734 2622 
Q 2975 2850 2975 3272 
Q 2975 3691 2734 3919 
Q 2494 4147 2053 4147 
L 1259 4147 
z
M 628 4666 
L 2053 4666 
Q 2838 4666 3239 4311 
Q 3641 3956 3641 3272 
Q 3641 2581 3239 2228 
Q 2838 1875 2053 1875 
L 1259 1875 
L 1259 0 
L 628 0 
L 628 4666 
z
" id="DejaVuSans-50" transform="scale(0.015625)"/>
       <path d="M 1159 525 
L 1159 -1331 
L 581 -1331 
L 581 3500 
L 1159 3500 
L 1159 2969 
Q 1341 3281 1617 3432 
Q 1894 3584 2278 3584 
Q 2916 3584 3314 3078 
Q 3713 2572 3713 1747 
Q 3713 922 3314 415 
Q 2916 -91 2278 -91 
Q 1894 -91 1617 61 
Q 1341 213 1159 525 
z
M 3116 1747 
Q 3116 2381 2855 2742 
Q 2594 3103 2138 3103 
Q 1681 3103 1420 2742 
Q 1159 2381 1159 1747 
Q 1159 1113 1420 752 
Q 1681 391 2138 391 
Q 2594 391 2855 752 
Q 3116 1113 3116 1747 
z
" id="DejaVuSans-70" transform="scale(0.015625)"/>
       <path d="M 3513 2113 
L 3513 0 
L 2938 0 
L 2938 2094 
Q 2938 2591 2744 2837 
Q 2550 3084 2163 3084 
Q 1697 3084 1428 2787 
Q 1159 2491 1159 1978 
L 1159 0 
L 581 0 
L 581 3500 
L 1159 3500 
L 1159 2956 
Q 1366 3272 1645 3428 
Q 1925 3584 2291 3584 
Q 2894 3584 3203 3211 
Q 3513 2838 3513 2113 
z
" id="DejaVuSans-6e" transform="scale(0.015625)"/>
      </defs>
      <use xlink:href="#DejaVuSans-50"/>
      <use x="58.552734" xlink:href="#DejaVuSans-72"/>
      <use x="97.416016" xlink:href="#DejaVuSans-6f"/>
      <use x="158.597656" xlink:href="#DejaVuSans-70"/>
      <use x="222.074219" xlink:href="#DejaVuSans-6f"/>
      <use x="283.255859" xlink:href="#DejaVuSans-72"/>
      <use x="324.369141" xlink:href="#DejaVuSans-74"/>
      <use x="363.578125" xlink:href="#DejaVuSans-69"/>
      <use x="391.361328" xlink:href="#DejaVuSans-6f"/>
      <use x="452.542969" xlink:href="#DejaVuSans-6e"/>
     </g>
    </g>
   </g>
   <g id="line2d_15">
    <path clip-path="url(#p0d1db21dbf)" d="M 933.954545 69.12 
L 933.954545 69.897961 
L 897.720779 69.897961 
L 897.720779 70.675921 
L 883.227273 70.675921 
L 883.227273 71.453882 
L 870.545455 71.453882 
L 870.545455 72.231843 
L 849.409091 72.231843 
L 849.409091 76.899606 
L 818.665289 76.899606 
L 818.665289 77.677567 
L 813.811005 77.677567 
L 813.811005 78.455528 
L 807.136364 78.455528 
L 807.136364 80.78941 
L 801.097403 80.78941 
L 801.097403 81.56737 
L 781.772727 81.56737 
L 781.772727 83.901252 
L 752.785714 83.901252 
L 752.785714 84.679213 
L 743.727273 84.679213 
L 743.727273 85.457174 
L 731.045455 85.457174 
L 731.045455 86.235134 
L 726.433884 86.235134 
L 726.433884 87.013095 
L 719.339161 87.013095 
L 719.339161 87.791055 
L 709.841991 87.791055 
L 709.841991 88.569016 
L 707.016746 88.569016 
L 707.016746 89.346977 
L 699.106061 89.346977 
L 699.106061 90.124937 
L 680.318182 90.124937 
L 680.318182 130.578891 
L 657.048791 130.578891 
L 657.048791 131.356852 
L 654.954545 131.356852 
L 654.954545 132.912773 
L 651.819714 132.912773 
L 651.819714 133.690733 
L 650.47861 133.690733 
L 650.47861 134.468694 
L 648.613636 134.468694 
L 648.613636 135.246655 
L 646.5 135.246655 
L 646.5 136.024615 
L 643.534493 136.024615 
L 643.534493 136.802576 
L 641.297203 136.802576 
L 641.297203 138.358497 
L 640.577922 138.358497 
L 640.577922 139.136458 
L 634.202479 139.136458 
L 634.202479 140.692379 
L 631.199954 140.692379 
L 631.199954 141.47034 
L 630.379416 141.47034 
L 630.379416 142.248301 
L 628.651515 142.248301 
L 628.555659 143.804222 
L 626.921053 143.804222 
L 626.921053 144.582182 
L 623.954545 144.582182 
L 623.954545 146.138104 
L 621.332981 146.138104 
L 621.332981 146.916064 
L 619.445455 146.916064 
L 619.445455 148.471986 
L 616.909091 148.471986 
L 616.909091 149.249946 
L 613.57177 149.249946 
L 613.57177 150.027907 
L 611.492234 150.027907 
L 611.492234 150.805868 
L 607.850649 150.805868 
L 607.850649 156.251592 
L 603.409091 156.251592 
L 603.409091 157.029553 
L 602.276224 157.029553 
L 602.276224 157.807513 
L 601.409091 157.807513 
L 601.409091 158.585474 
L 599.024476 158.585474 
L 599.024476 159.363435 
L 595.772727 159.363435 
L 595.772727 161.697317 
L 590.799465 161.697317 
L 590.799465 162.475277 
L 589.543062 162.475277 
L 589.543062 163.253238 
L 588.173733 163.253238 
L 588.086777 164.809159 
L 586.378788 164.809159 
L 586.378788 165.58712 
L 585.204545 165.58712 
L 585.204545 166.365081 
L 584.139015 166.365081 
L 584.139015 167.143041 
L 581.681818 167.143041 
L 581.681818 167.921002 
L 578.863636 167.921002 
L 578.863636 176.478569 
L 576.343027 176.478569 
L 576.343027 177.25653 
L 566.619122 177.25653 
L 566.619122 178.03449 
L 565.028926 178.03449 
L 565.028926 178.812451 
L 563.68761 178.812451 
L 563.68761 179.590411 
L 563.255245 179.590411 
L 563.255245 180.368372 
L 562.630909 180.368372 
L 562.630909 181.146333 
L 562.440185 181.146333 
L 562.440185 181.924293 
L 561.113441 181.924293 
L 561.113441 182.702254 
L 559.538961 182.702254 
L 559.538961 184.258175 
L 557.504785 184.258175 
L 557.504785 185.036136 
L 555.146989 185.036136 
L 555.146989 185.814097 
L 553.914315 185.814097 
L 553.914315 186.592057 
L 553.5 186.592057 
L 553.5 191.259821 
L 551.607191 191.259821 
L 551.607191 192.037782 
L 551.350539 192.037782 
L 551.350539 192.815742 
L 549.577788 192.815742 
L 549.577788 193.593703 
L 549.169623 193.593703 
L 549.169623 194.371664 
L 548.80303 194.371664 
L 548.80303 195.149624 
L 547.335227 195.149624 
L 547.335227 195.927585 
L 545.045455 195.927585 
L 545.045455 196.705546 
L 543.142798 196.705546 
L 543.142798 197.483506 
L 541.971074 197.483506 
L 541.971074 199.039428 
L 539.409091 199.039428 
L 539.409091 199.817388 
L 531.605189 199.817388 
L 531.605189 200.595349 
L 531.120321 200.595349 
L 531.120321 202.15127 
L 528.136364 202.15127 
L 528.136364 202.929231 
L 522.393654 202.929231 
L 522.393654 203.707191 
L 521.795455 203.707191 
L 521.795455 204.485152 
L 518.200094 204.485152 
L 518.114886 206.041073 
L 517.608062 206.041073 
L 517.528797 207.596995 
L 516.959168 207.596995 
L 516.959168 208.374955 
L 513.367664 208.374955 
L 513.367664 209.152916 
L 511.227273 209.152916 
L 511.227273 239.493381 
L 509.746184 239.493381 
L 509.746184 240.271342 
L 507.510989 240.271342 
L 507.510989 241.049302 
L 505.943182 241.049302 
L 505.943182 241.827263 
L 504.107656 241.827263 
L 504.107656 242.605224 
L 502.443329 242.605224 
L 502.443329 243.383184 
L 502.020431 243.383184 
L 502.020431 244.161145 
L 501.326726 244.161145 
L 501.326726 244.939106 
L 500.821678 244.939106 
L 500.821678 245.717066 
L 499.149351 245.717066 
L 499.149351 246.495027 
L 497.7 246.495027 
L 497.7 247.272987 
L 497.535701 247.272987 
L 497.535701 248.050948 
L 496.65047 248.050948 
L 496.65047 248.828909 
L 495.05336 248.828909 
L 495.05336 249.606869 
L 494.104143 249.606869 
L 494.104143 250.38483 
L 493.42823 250.38483 
L 493.42823 251.940751 
L 489.267414 251.940751 
L 489.171937 253.496673 
L 485.213287 253.496673 
L 485.213287 254.274633 
L 482.445841 254.274633 
L 482.445841 255.052594 
L 481.820158 255.052594 
L 481.820158 255.830555 
L 480.483471 255.830555 
L 480.483471 256.608515 
L 480.201418 256.608515 
L 480.201418 257.386476 
L 479.680461 257.386476 
L 479.680461 258.164436 
L 479.019481 258.164436 
L 479.019481 258.942397 
L 477.409091 258.942397 
L 477.409091 262.05424 
L 477.116715 262.05424 
L 477.116715 262.8322 
L 476.091499 262.8322 
L 476.091499 263.610161 
L 475.250484 263.610161 
L 475.250484 264.388122 
L 471.849938 264.388122 
L 471.849938 265.166082 
L 467.263636 265.166082 
L 467.263636 265.944043 
L 462.915584 265.944043 
L 462.915584 271.389767 
L 456.681818 271.389767 
L 456.681818 272.167728 
L 454.347994 272.167728 
L 454.347994 272.945689 
L 453.253247 272.945689 
L 453.253247 273.723649 
L 452.045455 273.723649 
L 452.045455 274.50161 
L 451.833333 274.50161 
L 451.833333 275.279571 
L 448.478693 275.279571 
L 448.478693 276.057531 
L 445.502891 276.057531 
L 445.502891 276.835492 
L 445.240576 276.835492 
L 445.240576 277.613453 
L 440.0311 277.613453 
L 440.0311 278.391413 
L 439.688811 278.391413 
L 439.673436 279.947335 
L 437.954545 279.947335 
L 437.954545 280.725295 
L 435.006863 280.725295 
L 435.006863 281.503256 
L 432.580338 281.503256 
L 432.580338 282.281216 
L 432.402939 282.281216 
L 432.3692 283.837138 
L 426.681818 283.837138 
L 426.681818 292.394705 
L 424.882979 292.394705 
L 424.882979 293.172665 
L 422.070248 293.172665 
L 422.070248 293.950626 
L 414.603896 293.950626 
L 414.603896 294.728587 
L 411.762032 294.728587 
L 411.762032 296.284508 
L 410.211924 296.284508 
L 410.211924 297.062469 
L 407.171329 297.062469 
L 407.171329 297.840429 
L 402.085584 297.840429 
L 402.085584 298.61839 
L 401.318182 298.61839 
L 401.318182 299.396351 
L 400.800557 299.396351 
L 400.800557 300.174311 
L 398.5 300.174311 
L 398.5 302.508193 
L 390.448052 302.508193 
L 390.448052 303.286154 
L 386.633971 303.286154 
L 386.633971 304.064114 
L 384.236549 304.064114 
L 384.236549 304.842075 
L 375.954545 304.842075 
L 375.954545 308.731878 
L 367.320116 308.731878 
L 367.320116 309.509839 
L 357.508264 309.509839 
L 357.508264 310.2878 
L 342.136364 310.2878 
L 342.136364 314.955564 
L 317.980519 314.955564 
L 317.980519 318.067406 
L 313.954545 318.067406 
L 313.954545 318.845367 
L 312.982759 318.845367 
L 312.982759 319.623327 
L 308.318182 319.623327 
L 308.318182 320.401288 
L 299.863636 320.401288 
L 299.863636 322.73517 
L 285.772727 322.73517 
L 285.772727 324.291091 
L 251.087413 324.291091 
L 251.087413 325.069052 
L 173.045455 325.069052 
L 173.045455 504 
L 173.045455 504 
" style="fill:none;stroke:#9467bd;stroke-linecap:round;stroke-width:2.25;"/>
   </g>
   <g id="line2d_16">
    <path clip-path="url(#p0d1db21dbf)" d="M 933.954545 69.12 
L 933.954545 69.897961 
L 883.227273 69.897961 
L 883.227273 70.675921 
L 870.545455 70.675921 
L 870.545455 71.453882 
L 849.409091 71.453882 
L 849.409091 75.343685 
L 807.136364 75.343685 
L 807.136364 76.121646 
L 781.772727 76.121646 
L 781.772727 76.899606 
L 752.785714 76.899606 
L 752.785714 78.455528 
L 726.433884 78.455528 
L 726.433884 79.233488 
L 719.339161 79.233488 
L 719.339161 80.011449 
L 707.016746 80.011449 
L 707.016746 80.78941 
L 699.106061 80.78941 
L 699.106061 81.56737 
L 680.318182 81.56737 
L 680.318182 115.019678 
L 661.530303 115.019678 
L 661.530303 115.797639 
L 650.47861 115.797639 
L 650.47861 116.575599 
L 638.045455 116.575599 
L 638.045455 117.35356 
L 629.590909 117.35356 
L 629.590909 118.131521 
L 625.688811 118.131521 
L 625.688811 118.909481 
L 616.909091 118.909481 
L 616.909091 119.687442 
L 612.681818 119.687442 
L 612.681818 120.465403 
L 607.850649 120.465403 
L 607.850649 122.799284 
L 606.394016 122.799284 
L 606.394016 123.577245 
L 604.227273 123.577245 
L 604.227273 124.355206 
L 600.222488 124.355206 
L 600.222488 125.133166 
L 597.738901 125.133166 
L 597.738901 125.911127 
L 594.77472 125.911127 
L 594.77472 126.689088 
L 589.149351 126.689088 
L 589.149351 127.467048 
L 582.586739 127.467048 
L 582.586739 128.245009 
L 580.675325 128.245009 
L 580.675325 129.02297 
L 579.541129 129.02297 
L 579.541129 129.80093 
L 578.863636 129.80093 
L 578.863636 138.358497 
L 576.984848 138.358497 
L 576.984848 139.136458 
L 567.590909 139.136458 
L 567.590909 139.914419 
L 566.440631 139.914419 
L 566.440631 140.692379 
L 563.255245 140.692379 
L 563.255245 141.47034 
L 560.624617 141.47034 
L 560.624617 142.248301 
L 560.174641 142.248301 
L 560.174641 143.026261 
L 557.504785 143.026261 
L 557.504785 143.804222 
L 553.5 143.804222 
L 553.5 150.027907 
L 549.977273 150.027907 
L 549.977273 150.805868 
L 549.409091 150.805868 
L 549.409091 151.583828 
L 541.971074 151.583828 
L 541.971074 153.91771 
L 539.409091 153.91771 
L 539.409091 154.695671 
L 538.281818 154.695671 
L 538.281818 155.473631 
L 534.608794 155.473631 
L 534.608794 156.251592 
L 533.476077 156.251592 
L 533.476077 157.029553 
L 531.634796 157.029553 
L 531.634796 157.807513 
L 530.501884 157.807513 
L 530.501884 158.585474 
L 528.136364 158.585474 
L 528.136364 159.363435 
L 523.021819 159.363435 
L 523.021819 160.141395 
L 519.184492 160.141395 
L 519.184492 160.919356 
L 518.913223 160.919356 
L 518.913223 162.475277 
L 517.266234 162.475277 
L 517.266234 163.253238 
L 515.619244 163.253238 
L 515.619244 164.031199 
L 514.947273 164.031199 
L 514.947273 164.809159 
L 514.787081 164.809159 
L 514.759198 166.365081 
L 511.227273 166.365081 
L 511.227273 193.593703 
L 504.325603 193.593703 
L 504.325603 194.371664 
L 498.952071 194.371664 
L 498.952071 195.149624 
L 498.465695 195.149624 
L 498.465695 195.927585 
L 493.245049 195.927585 
L 493.245049 196.705546 
L 490.090909 196.705546 
L 490.090909 198.261467 
L 488.681818 198.261467 
L 488.681818 199.039428 
L 488.465035 199.039428 
L 488.465035 199.817388 
L 487.682969 199.817388 
L 487.682969 200.595349 
L 487.554545 200.595349 
L 487.554545 201.373309 
L 486.822399 201.373309 
L 486.822399 202.15127 
L 485.213287 202.15127 
L 485.213287 203.707191 
L 483.79606 203.707191 
L 483.79606 204.485152 
L 483.466079 204.485152 
L 483.466079 205.263113 
L 483.045455 205.263113 
L 483.045455 206.041073 
L 481.820158 206.041073 
L 481.820158 207.596995 
L 479.522727 207.596995 
L 479.522727 208.374955 
L 478.67376 208.374955 
L 478.67376 209.152916 
L 477.409091 209.152916 
L 477.409091 213.82068 
L 475.872357 213.82068 
L 475.872357 214.59864 
L 474.93459 214.59864 
L 474.93459 215.376601 
L 474.537736 215.376601 
L 474.537736 216.154562 
L 473.651515 216.154562 
L 473.651515 216.932522 
L 471.441176 216.932522 
L 471.441176 217.710483 
L 469.604895 217.710483 
L 469.604895 218.488444 
L 468.954545 218.488444 
L 468.954545 219.266404 
L 467.723857 219.266404 
L 467.723857 220.044365 
L 466.457786 220.044365 
L 466.457786 220.822326 
L 462.915584 220.822326 
L 462.915584 227.046011 
L 461.666144 227.046011 
L 461.666144 227.823971 
L 458.714568 227.823971 
L 458.714568 228.601932 
L 458.401792 228.601932 
L 458.401792 229.379893 
L 457.547619 229.379893 
L 457.547619 230.157853 
L 457.118182 230.157853 
L 457.118182 230.935814 
L 455.444705 230.935814 
L 455.444705 231.713775 
L 452.278148 231.713775 
L 452.278148 232.491735 
L 449.739669 232.491735 
L 449.739669 234.047657 
L 448.246043 234.047657 
L 448.176425 235.603578 
L 445.061265 235.603578 
L 445.049937 237.159499 
L 443.590909 237.159499 
L 443.590909 239.493381 
L 441.40065 239.493381 
L 441.40065 240.271342 
L 440.0311 240.271342 
L 440.0311 241.049302 
L 437.10523 241.049302 
L 437.10523 241.827263 
L 430.336521 241.827263 
L 430.336521 242.605224 
L 426.681818 242.605224 
L 426.681818 254.274633 
L 425.144628 254.274633 
L 425.144628 255.052594 
L 423.387839 255.052594 
L 423.387839 256.608515 
L 417.935737 256.608515 
L 417.935737 257.386476 
L 417.687621 257.386476 
L 417.687621 258.164436 
L 416.536364 258.164436 
L 416.536364 258.942397 
L 414.603896 258.942397 
L 414.603896 259.720358 
L 413.432157 259.720358 
L 413.432157 260.498318 
L 411.762032 260.498318 
L 411.762032 262.05424 
L 411.243083 262.05424 
L 411.243083 262.8322 
L 410.829545 262.8322 
L 410.829545 263.610161 
L 410.492263 263.610161 
L 410.492263 264.388122 
L 409.772727 264.388122 
L 409.772727 265.166082 
L 407.171329 265.166082 
L 407.171329 266.722004 
L 404.941558 266.722004 
L 404.941558 267.499964 
L 404.156566 267.499964 
L 404.156566 268.277925 
L 403.623967 268.277925 
L 403.623967 269.055886 
L 403.507572 269.055886 
L 403.507572 269.833846 
L 403.296905 269.833846 
L 403.296905 270.611807 
L 402.136364 270.611807 
L 402.136364 271.389767 
L 401.318182 271.389767 
L 401.318182 272.167728 
L 398.5 272.167728 
L 398.5 274.50161 
L 394.502579 274.50161 
L 394.502579 275.279571 
L 390.448052 275.279571 
L 390.448052 276.835492 
L 387.660839 276.835492 
L 387.660839 277.613453 
L 386.633971 277.613453 
L 386.633971 279.947335 
L 385.617877 279.947335 
L 385.617877 280.725295 
L 383.088068 280.725295 
L 383.088068 281.503256 
L 379.00581 281.503256 
L 379.00581 282.281216 
L 378.523015 282.281216 
L 378.523015 283.059177 
L 377.286553 283.059177 
L 377.286553 283.837138 
L 375.954545 283.837138 
L 375.954545 290.838784 
L 370.684179 290.838784 
L 370.684179 291.616744 
L 363.51869 291.616744 
L 363.51869 292.394705 
L 363.272727 292.394705 
L 363.272727 293.172665 
L 359.390538 293.172665 
L 359.390538 293.950626 
L 350.590909 293.950626 
L 350.590909 294.728587 
L 346.260532 294.728587 
L 346.260532 295.506547 
L 345.734043 295.506547 
L 345.734043 296.284508 
L 342.136364 296.284508 
L 342.136364 298.61839 
L 339.061983 298.61839 
L 339.061983 299.396351 
L 338.204017 299.396351 
L 338.204017 300.174311 
L 330.403525 300.174311 
L 330.403525 300.952272 
L 325.227273 300.952272 
L 325.227273 301.730233 
L 317.980519 301.730233 
L 317.980519 306.397996 
L 299.863636 306.397996 
L 299.863636 308.731878 
L 299.238916 308.731878 
L 299.238916 309.509839 
L 292.403743 309.509839 
L 292.403743 310.2878 
L 285.772727 310.2878 
L 285.772727 313.399642 
L 240.681818 313.399642 
L 240.681818 314.177603 
L 173.045455 314.177603 
L 173.045455 504 
L 173.045455 504 
" style="fill:none;stroke:#d62728;stroke-linecap:round;stroke-width:2.25;"/>
   </g>
   <g id="line2d_17">
    <path clip-path="url(#p0d1db21dbf)" d="M 883.227273 69.12 
L 883.227273 69.897961 
L 870.545455 69.897961 
L 870.545455 70.675921 
L 849.409091 70.675921 
L 849.409091 73.787764 
L 781.772727 73.787764 
L 781.772727 74.565725 
L 752.785714 74.565725 
L 752.785714 75.343685 
L 743.727273 75.343685 
L 743.727273 76.121646 
L 726.433884 76.121646 
L 726.433884 76.899606 
L 707.016746 76.899606 
L 707.016746 77.677567 
L 704.474026 77.677567 
L 704.474026 78.455528 
L 699.106061 78.455528 
L 699.106061 79.233488 
L 680.318182 79.233488 
L 680.318182 109.573953 
L 661.530303 109.573953 
L 661.530303 110.351914 
L 653.619617 110.351914 
L 653.619617 111.129875 
L 650.47861 111.129875 
L 650.47861 111.907835 
L 646.5 111.907835 
L 646.5 112.685796 
L 641.297203 112.685796 
L 641.297203 113.463757 
L 638.045455 113.463757 
L 638.045455 114.241717 
L 634.202479 114.241717 
L 634.202479 115.019678 
L 629.590909 115.019678 
L 629.590909 115.797639 
L 625.688811 115.797639 
L 625.688811 116.575599 
L 616.909091 116.575599 
L 616.909091 117.35356 
L 607.850649 117.35356 
L 607.850649 120.465403 
L 601.295797 120.465403 
L 601.295797 121.243363 
L 597.738901 121.243363 
L 597.738901 122.021324 
L 591.352982 122.021324 
L 591.352982 122.799284 
L 584.474026 122.799284 
L 584.474026 123.577245 
L 582.586739 123.577245 
L 582.586739 124.355206 
L 580.675325 124.355206 
L 580.675325 125.133166 
L 579.333333 125.133166 
L 579.333333 125.911127 
L 578.863636 125.911127 
L 578.863636 135.246655 
L 578.694263 135.246655 
L 578.694263 136.024615 
L 568.184211 136.024615 
L 568.184211 136.802576 
L 567.590909 136.802576 
L 567.590909 137.580537 
L 563.255245 137.580537 
L 563.255245 138.358497 
L 559.538961 138.358497 
L 559.538961 139.136458 
L 553.5 139.136458 
L 553.5 145.360143 
L 549.977273 145.360143 
L 549.977273 146.138104 
L 546.136364 146.138104 
L 546.136364 146.916064 
L 541.971074 146.916064 
L 541.971074 149.249946 
L 539.409091 149.249946 
L 539.409091 150.027907 
L 538.281818 150.027907 
L 538.281818 151.583828 
L 537.825843 151.583828 
L 537.825843 152.361789 
L 535.383117 152.361789 
L 535.383117 153.13975 
L 533.476077 153.13975 
L 533.476077 153.91771 
L 531.634796 153.91771 
L 531.634796 154.695671 
L 530.501884 154.695671 
L 530.501884 155.473631 
L 530.145049 155.473631 
L 530.145049 156.251592 
L 528.136364 156.251592 
L 528.136364 157.029553 
L 526.238514 157.029553 
L 526.238514 157.807513 
L 521.795455 157.807513 
L 521.795455 158.585474 
L 520.126794 158.585474 
L 520.126794 159.363435 
L 519.184492 159.363435 
L 519.184492 160.141395 
L 518.913223 160.141395 
L 518.913223 160.919356 
L 514.787081 160.919356 
L 514.787081 161.697317 
L 511.227273 161.697317 
L 511.227273 189.7039 
L 508.158472 189.7039 
L 508.158472 190.48186 
L 507.740862 190.48186 
L 507.740862 191.259821 
L 506.812366 191.259821 
L 506.812366 192.037782 
L 502.772727 192.037782 
L 502.772727 192.815742 
L 502.443329 192.815742 
L 502.443329 193.593703 
L 500.743636 193.593703 
L 500.743636 194.371664 
L 499.149351 194.371664 
L 499.149351 195.149624 
L 497.423933 195.149624 
L 497.423933 195.927585 
L 494.968531 195.927585 
L 494.968531 196.705546 
L 494.104143 196.705546 
L 494.104143 197.483506 
L 493.42823 197.483506 
L 493.42823 198.261467 
L 493.245049 198.261467 
L 493.245049 199.039428 
L 491.037313 199.039428 
L 491.037313 199.817388 
L 490.090909 199.817388 
L 490.090909 200.595349 
L 487.104885 200.595349 
L 487.104885 201.373309 
L 485.213287 201.373309 
L 485.213287 202.929231 
L 483.045455 202.929231 
L 483.045455 203.707191 
L 481.820158 203.707191 
L 481.820158 204.485152 
L 480.693482 204.485152 
L 480.693482 205.263113 
L 480.403409 205.263113 
L 480.403409 206.041073 
L 479.883592 206.041073 
L 479.883592 206.819034 
L 479.323328 206.819034 
L 479.323328 207.596995 
L 477.409091 207.596995 
L 477.409091 211.486798 
L 475.518634 211.486798 
L 475.518634 212.264758 
L 474.064436 212.264758 
L 474.064436 213.042719 
L 471.441176 213.042719 
L 471.441176 214.59864 
L 470.412226 214.59864 
L 470.412226 215.376601 
L 469.752144 215.376601 
L 469.752144 216.154562 
L 468.954545 216.154562 
L 468.954545 216.932522 
L 467.723857 216.932522 
L 467.723857 217.710483 
L 465.016093 217.710483 
L 465.016093 218.488444 
L 462.915584 218.488444 
L 462.915584 224.712129 
L 462.325218 224.712129 
L 462.325218 225.490089 
L 457.547619 225.490089 
L 457.547619 226.26805 
L 457.118182 226.26805 
L 457.118182 227.046011 
L 456.427007 227.046011 
L 456.427007 227.823971 
L 456.050239 227.823971 
L 456.050239 228.601932 
L 455.444705 228.601932 
L 455.444705 229.379893 
L 452.278148 229.379893 
L 452.278148 230.157853 
L 451.302914 230.157853 
L 451.302914 230.935814 
L 449.739669 230.935814 
L 449.739669 231.713775 
L 448.176425 231.713775 
L 448.176425 232.491735 
L 446.972727 232.491735 
L 446.972727 233.269696 
L 445.061265 233.269696 
L 445.061265 234.047657 
L 444.138572 234.047657 
L 444.054172 235.603578 
L 443.590909 235.603578 
L 443.590909 238.71542 
L 440.964536 238.71542 
L 440.964536 239.493381 
L 436.563754 239.493381 
L 436.563754 240.271342 
L 433.260283 240.271342 
L 433.260283 241.049302 
L 426.681818 241.049302 
L 426.681818 254.274633 
L 425.144628 254.274633 
L 425.144628 255.052594 
L 424.882979 255.052594 
L 424.882979 255.830555 
L 424.476285 255.830555 
L 424.476285 256.608515 
L 423.387839 256.608515 
L 423.387839 257.386476 
L 419.363668 257.386476 
L 419.363668 258.164436 
L 411.762032 258.164436 
L 411.762032 258.942397 
L 411.539349 258.942397 
L 411.539349 259.720358 
L 410.829545 259.720358 
L 410.829545 260.498318 
L 410.492263 260.498318 
L 410.492263 261.276279 
L 409.772727 261.276279 
L 409.772727 262.8322 
L 407.171329 262.8322 
L 407.171329 264.388122 
L 403.623967 264.388122 
L 403.623967 265.166082 
L 402.136364 265.166082 
L 402.136364 265.944043 
L 401.971158 265.944043 
L 401.890294 267.499964 
L 401.328283 267.499964 
L 401.318182 269.055886 
L 398.5 269.055886 
L 398.5 272.945689 
L 396.501289 272.945689 
L 396.501289 273.723649 
L 396.101547 273.723649 
L 396.101547 274.50161 
L 390.448052 274.50161 
L 390.448052 276.057531 
L 386.633971 276.057531 
L 386.633971 278.391413 
L 384.783032 278.391413 
L 384.783032 279.169374 
L 384.409091 279.169374 
L 384.409091 279.947335 
L 383.74858 279.947335 
L 383.74858 280.725295 
L 378.523015 280.725295 
L 378.523015 281.503256 
L 377.272137 281.503256 
L 377.272137 282.281216 
L 375.954545 282.281216 
L 375.954545 287.726941 
L 375.066541 287.726941 
L 375.066541 288.504902 
L 366.731405 288.504902 
L 366.731405 289.282862 
L 366.292208 289.282862 
L 366.292208 290.060823 
L 365.092849 290.060823 
L 365.092849 290.838784 
L 363.272727 290.838784 
L 363.272727 291.616744 
L 359.390538 291.616744 
L 359.390538 292.394705 
L 357.508264 292.394705 
L 357.508264 293.172665 
L 350.590909 293.172665 
L 350.590909 293.950626 
L 346.260532 293.950626 
L 346.260532 294.728587 
L 345.734043 294.728587 
L 345.734043 295.506547 
L 342.826531 295.506547 
L 342.826531 296.284508 
L 342.136364 296.284508 
L 342.136364 298.61839 
L 339.061983 298.61839 
L 339.061983 299.396351 
L 338.204017 299.396351 
L 338.204017 300.174311 
L 325.227273 300.174311 
L 325.227273 300.952272 
L 317.980519 300.952272 
L 317.980519 304.842075 
L 299.863636 304.842075 
L 299.863636 307.175957 
L 295.490596 307.175957 
L 295.490596 307.953918 
L 292.403743 307.953918 
L 292.403743 308.731878 
L 285.772727 308.731878 
L 285.772727 312.621682 
L 240.681818 312.621682 
L 240.681818 313.399642 
L 173.045455 313.399642 
L 173.045455 504 
L 173.045455 504 
" style="fill:none;stroke:#2ca02c;stroke-linecap:round;stroke-width:2.25;"/>
   </g>
   <g id="line2d_18">
    <path clip-path="url(#p0d1db21dbf)" d="M 849.409091 69.12 
L 849.409091 69.897961 
L 743.727273 69.897961 
L 743.727273 70.675921 
L 726.433884 70.675921 
L 726.433884 71.453882 
L 680.318182 71.453882 
L 680.318182 90.902898 
L 656.162338 90.902898 
L 656.162338 91.680859 
L 653.619617 91.680859 
L 653.619617 92.458819 
L 650.47861 92.458819 
L 650.47861 93.23678 
L 641.297203 93.23678 
L 641.297203 94.014741 
L 629.322511 94.014741 
L 629.322511 94.792701 
L 616.909091 94.792701 
L 616.909091 95.570662 
L 607.850649 95.570662 
L 607.850649 98.682504 
L 595.772727 98.682504 
L 595.772727 99.460465 
L 578.863636 99.460465 
L 578.863636 108.018032 
L 553.5 108.018032 
L 553.5 110.351914 
L 550.313614 110.351914 
L 550.313614 111.129875 
L 548.80303 111.129875 
L 548.80303 111.907835 
L 545.355713 111.907835 
L 545.355713 112.685796 
L 535.383117 112.685796 
L 535.383117 115.019678 
L 528.136364 115.019678 
L 528.136364 115.797639 
L 521.795455 115.797639 
L 521.795455 116.575599 
L 516.43007 116.575599 
L 516.43007 117.35356 
L 514.344156 117.35356 
L 514.344156 118.131521 
L 511.227273 118.131521 
L 511.227273 138.358497 
L 508.878788 138.358497 
L 508.878788 139.136458 
L 507.520389 139.136458 
L 507.520389 139.914419 
L 497.7 139.914419 
L 497.7 140.692379 
L 493.42823 140.692379 
L 493.42823 141.47034 
L 490.090909 141.47034 
L 490.090909 142.248301 
L 485.213287 142.248301 
L 485.213287 143.026261 
L 483.377005 143.026261 
L 483.377005 143.804222 
L 483.045455 143.804222 
L 482.998406 145.360143 
L 477.409091 145.360143 
L 477.409091 147.694025 
L 472.069378 147.694025 
L 472.069378 148.471986 
L 471.441176 148.471986 
L 471.441176 149.249946 
L 468.954545 149.249946 
L 468.954545 150.027907 
L 462.915584 150.027907 
L 462.915584 152.361789 
L 461.666144 152.361789 
L 461.666144 153.13975 
L 460.638164 153.13975 
L 460.638164 153.91771 
L 457.118182 153.91771 
L 457.118182 154.695671 
L 456.174419 154.695671 
L 456.136364 156.251592 
L 456.013915 156.251592 
L 456.013915 157.029553 
L 454.863636 157.029553 
L 454.863636 157.807513 
L 449.739669 157.807513 
L 449.739669 160.141395 
L 446.630746 160.141395 
L 446.630746 160.919356 
L 443.590909 160.919356 
L 443.590909 161.697317 
L 436.075758 161.697317 
L 436.075758 162.475277 
L 434.526242 162.475277 
L 434.526242 163.253238 
L 430.624352 163.253238 
L 430.624352 164.031199 
L 429.992998 164.031199 
L 429.992998 164.809159 
L 429.469031 164.809159 
L 429.469031 165.58712 
L 426.681818 165.58712 
L 426.681818 184.258175 
L 425.300858 184.258175 
L 425.300858 185.036136 
L 418.800917 185.036136 
L 418.800917 185.814097 
L 418.672249 185.814097 
L 418.672249 186.592057 
L 416.536364 186.592057 
L 416.536364 187.370018 
L 414.603896 187.370018 
L 414.603896 188.147979 
L 413.607779 188.147979 
L 413.607779 188.925939 
L 411.762032 188.925939 
L 411.762032 189.7039 
L 410.628884 189.7039 
L 410.628884 190.48186 
L 408.42 190.48186 
L 408.42 191.259821 
L 407.539451 191.259821 
L 407.539451 192.037782 
L 407.171329 192.037782 
L 407.171329 193.593703 
L 405.739366 193.593703 
L 405.739366 194.371664 
L 403.623967 194.371664 
L 403.623967 195.927585 
L 402.65311 195.927585 
L 402.65311 196.705546 
L 401.502421 196.705546 
L 401.502421 197.483506 
L 400.699557 197.483506 
L 400.699557 198.261467 
L 399.367133 198.261467 
L 399.367133 199.039428 
L 398.5 199.039428 
L 398.5 201.373309 
L 396.689781 201.373309 
L 396.689781 202.15127 
L 396.245455 202.15127 
L 396.245455 202.929231 
L 394.977273 202.929231 
L 394.977273 203.707191 
L 394.137845 203.707191 
L 394.137845 204.485152 
L 393.898887 204.485152 
L 393.898887 205.263113 
L 393.598814 205.263113 
L 393.598814 206.819034 
L 393.182676 206.819034 
L 393.182676 207.596995 
L 391.899636 207.596995 
L 391.899636 208.374955 
L 390.448052 208.374955 
L 390.448052 209.152916 
L 387.051136 209.152916 
L 387.051136 209.930877 
L 386.670124 209.930877 
L 386.633971 211.486798 
L 385.351707 211.486798 
L 385.351707 212.264758 
L 382.571146 212.264758 
L 382.571146 213.042719 
L 382.396104 213.042719 
L 382.396104 213.82068 
L 381.513699 213.82068 
L 381.513699 214.59864 
L 380.566116 214.59864 
L 380.566116 215.376601 
L 380.310627 215.376601 
L 380.310627 216.154562 
L 377.905594 216.154562 
L 377.905594 216.932522 
L 377.468792 216.932522 
L 377.468792 217.710483 
L 375.954545 217.710483 
L 375.954545 228.601932 
L 374.785041 228.601932 
L 374.785041 229.379893 
L 374.515474 229.379893 
L 374.515474 230.157853 
L 373.423455 230.157853 
L 373.423455 230.935814 
L 370.684179 230.935814 
L 370.684179 231.713775 
L 370.318182 231.713775 
L 370.318182 232.491735 
L 370.204085 232.491735 
L 370.168773 234.047657 
L 366.292208 234.047657 
L 366.292208 235.603578 
L 365.459248 235.603578 
L 365.459248 236.381538 
L 363.657025 236.381538 
L 363.657025 237.159499 
L 363.272727 237.159499 
L 363.272727 239.493381 
L 362.197997 239.493381 
L 362.091191 241.049302 
L 360.104504 241.049302 
L 360.104504 241.827263 
L 359.935407 241.827263 
L 359.935407 242.605224 
L 358.5 242.605224 
L 358.5 243.383184 
L 357.508264 243.383184 
L 357.508264 244.161145 
L 355.663636 244.161145 
L 355.663636 244.939106 
L 352.082888 244.939106 
L 352.082888 245.717066 
L 350.920307 245.717066 
L 350.920307 246.495027 
L 344.332349 246.495027 
L 344.332349 247.272987 
L 342.136364 247.272987 
L 342.136364 250.38483 
L 339.914141 250.38483 
L 339.914141 251.162791 
L 338.466041 251.162791 
L 338.466041 251.940751 
L 336.5 251.940751 
L 336.5 252.718712 
L 335.827001 252.718712 
L 335.827001 253.496673 
L 333.236842 253.496673 
L 333.236842 255.830555 
L 331.343327 255.830555 
L 331.343327 256.608515 
L 329.129371 256.608515 
L 329.129371 258.164436 
L 324.147969 258.164436 
L 324.147969 258.942397 
L 322.811688 258.942397 
L 322.811688 259.720358 
L 322.625874 259.720358 
L 322.625874 260.498318 
L 317.980519 260.498318 
L 317.980519 267.499964 
L 317.352353 267.499964 
L 317.352353 268.277925 
L 314.609937 268.277925 
L 314.609937 269.055886 
L 313.734375 269.055886 
L 313.734375 269.833846 
L 313.612491 269.833846 
L 313.612491 270.611807 
L 308.318182 270.611807 
L 308.318182 272.167728 
L 306.538278 272.167728 
L 306.538278 272.945689 
L 305.37747 272.945689 
L 305.274808 274.50161 
L 304.804604 274.50161 
L 304.804604 275.279571 
L 302.561896 275.279571 
L 302.561896 276.057531 
L 299.863636 276.057531 
L 299.863636 280.725295 
L 299.586135 280.725295 
L 299.586135 281.503256 
L 297.27551 281.503256 
L 297.27551 282.281216 
L 296.77051 282.281216 
L 296.77051 283.059177 
L 293.134508 283.059177 
L 293.134508 283.837138 
L 292.403743 283.837138 
L 292.403743 284.615098 
L 285.772727 284.615098 
L 285.772727 287.726941 
L 279.839713 287.726941 
L 279.839713 288.504902 
L 274.5 288.504902 
L 274.5 290.060823 
L 274.250112 290.060823 
L 274.250112 290.838784 
L 265.27686 290.838784 
L 265.27686 292.394705 
L 262.941887 292.394705 
L 262.941887 293.172665 
L 257.590909 293.172665 
L 257.590909 294.728587 
L 240.681818 294.728587 
L 240.681818 295.506547 
L 223.772727 295.506547 
L 223.772727 296.284508 
L 173.045455 296.284508 
L 173.045455 504 
L 173.045455 504 
" style="fill:none;stroke:#ff7f0e;stroke-linecap:round;stroke-width:2.25;"/>
   </g>
   <g id="line2d_19">
    <path clip-path="url(#p0d1db21dbf)" d="M 680.318182 69.12 
L 680.318182 73.009803 
L 616.909091 73.009803 
L 616.909091 73.787764 
L 607.850649 73.787764 
L 607.850649 76.121646 
L 578.863636 76.121646 
L 578.863636 77.677567 
L 553.5 77.677567 
L 553.5 79.233488 
L 511.227273 79.233488 
L 511.227273 81.56737 
L 493.42823 81.56737 
L 493.42823 82.345331 
L 426.681818 82.345331 
L 426.681818 83.901252 
L 407.171329 83.901252 
L 407.171329 84.679213 
L 375.954545 84.679213 
L 375.954545 87.013095 
L 366.292208 87.013095 
L 366.292208 87.791055 
L 363.272727 87.791055 
L 363.272727 88.569016 
L 342.136364 88.569016 
L 342.136364 89.346977 
L 317.980519 89.346977 
L 317.980519 90.124937 
L 299.863636 90.124937 
L 299.863636 90.902898 
L 284.533966 90.902898 
L 284.533966 91.680859 
L 274.5 91.680859 
L 274.5 93.23678 
L 251.087413 93.23678 
L 251.087413 94.014741 
L 240.681818 94.014741 
L 240.681818 94.792701 
L 236.454545 94.792701 
L 236.454545 96.348623 
L 226.442584 96.348623 
L 226.442584 97.126583 
L 223.772727 97.126583 
L 223.772727 99.460465 
L 219.161157 99.460465 
L 219.161157 100.238426 
L 213.627273 100.238426 
L 213.627273 101.016386 
L 207.243616 101.016386 
L 207.243616 101.794347 
L 206.863636 101.794347 
L 206.863636 102.572308 
L 201.227273 102.572308 
L 201.227273 104.128229 
L 199.744019 104.128229 
L 199.744019 104.90619 
L 194.631528 104.90619 
L 194.631528 105.68415 
L 192.697667 105.68415 
L 192.697667 106.462111 
L 191.833333 106.462111 
L 191.833333 107.240072 
L 191.162338 107.240072 
L 191.162338 108.018032 
L 190.904752 108.018032 
L 190.904752 108.795993 
L 188.897727 108.795993 
L 188.897727 109.573953 
L 188.653846 109.573953 
L 188.653846 110.351914 
L 183.954545 110.351914 
L 183.954545 111.129875 
L 183.72488 111.129875 
L 183.72488 112.685796 
L 183.504686 112.685796 
L 183.504686 113.463757 
L 183.190909 113.463757 
L 183.190909 114.241717 
L 182.424919 114.241717 
L 182.424919 115.019678 
L 182.251856 115.019678 
L 182.251856 115.797639 
L 182.103896 115.797639 
L 182.103896 116.575599 
L 181.791536 116.575599 
L 181.791536 117.35356 
L 181.260397 117.35356 
L 181.260397 118.131521 
L 180.84965 118.131521 
L 180.84965 118.909481 
L 180.616689 118.909481 
L 180.616689 119.687442 
L 179.947124 119.687442 
L 179.947124 120.465403 
L 179.633412 120.465403 
L 179.633412 121.243363 
L 178.385167 121.243363 
L 178.385167 122.021324 
L 177.720779 122.021324 
L 177.720779 122.799284 
L 177.246471 122.799284 
L 177.178023 125.133166 
L 176.721344 125.133166 
L 176.721344 125.911127 
L 176.525885 125.911127 
L 176.525885 126.689088 
L 175.694398 126.689088 
L 175.586053 129.02297 
L 175.393939 129.02297 
L 175.393939 129.80093 
L 175.265466 129.80093 
L 175.265466 130.578891 
L 175.153236 130.578891 
L 175.153236 131.356852 
L 175.026989 131.356852 
L 175.020239 132.912773 
L 174.661616 132.912773 
L 174.644538 134.468694 
L 174.473386 134.468694 
L 174.402078 136.024615 
L 174.332132 136.024615 
L 174.332132 136.802576 
L 174.069731 136.802576 
L 174.06 138.358497 
L 173.926136 138.358497 
L 173.832534 140.692379 
L 173.445197 140.692379 
L 173.445197 141.47034 
L 173.045455 141.47034 
L 173.045455 504 
L 173.045455 504 
" style="fill:none;stroke:#1f77b4;stroke-linecap:round;stroke-width:2.25;"/>
   </g>
   <g id="line2d_20">
    <path clip-path="url(#p0d1db21dbf)" d="M 223.772727 504 
L 223.772727 69.12 
" style="fill:none;stroke:#000000;stroke-linecap:round;stroke-width:2.25;"/>
   </g>
   <g id="patch_3">
    <path d="M 135 504 
L 135 69.12 
" style="fill:none;stroke:#cccccc;stroke-linecap:square;stroke-linejoin:miter;stroke-width:1.875;"/>
   </g>
   <g id="patch_4">
    <path d="M 972 504 
L 972 69.12 
" style="fill:none;stroke:#cccccc;stroke-linecap:square;stroke-linejoin:miter;stroke-width:1.875;"/>
   </g>
   <g id="patch_5">
    <path d="M 135 504 
L 972 504 
" style="fill:none;stroke:#cccccc;stroke-linecap:square;stroke-linejoin:miter;stroke-width:1.875;"/>
   </g>
   <g id="patch_6">
    <path d="M 135 69.12 
L 972 69.12 
" style="fill:none;stroke:#cccccc;stroke-linecap:square;stroke-linejoin:miter;stroke-width:1.875;"/>
   </g>
   <g id="legend_1">
    <g id="patch_7">
     <path d="M 849.846563 495.75 
L 960.45 495.75 
Q 963.75 495.75 963.75 492.45 
L 963.75 347.334844 
Q 963.75 344.034844 960.45 344.034844 
L 849.846563 344.034844 
Q 846.546563 344.034844 846.546563 347.334844 
L 846.546563 492.45 
Q 846.546563 495.75 849.846563 495.75 
z
" style="fill:#ffffff;opacity:0.8;stroke:#cccccc;stroke-linejoin:miter;stroke-width:1.5;"/>
    </g>
    <g id="text_17">
     <!-- Experiment -->
     <g style="fill:#262626;" transform="translate(853.146563 364.312031)scale(0.18 -0.18)">
      <defs>
       <path d="M 628 4666 
L 3578 4666 
L 3578 4134 
L 1259 4134 
L 1259 2753 
L 3481 2753 
L 3481 2222 
L 1259 2222 
L 1259 531 
L 3634 531 
L 3634 0 
L 628 0 
L 628 4666 
z
" id="DejaVuSans-45" transform="scale(0.015625)"/>
       <path d="M 3513 3500 
L 2247 1797 
L 3578 0 
L 2900 0 
L 1881 1375 
L 863 0 
L 184 0 
L 1544 1831 
L 300 3500 
L 978 3500 
L 1906 2253 
L 2834 3500 
L 3513 3500 
z
" id="DejaVuSans-78" transform="scale(0.015625)"/>
       <path d="M 3597 1894 
L 3597 1613 
L 953 1613 
Q 991 1019 1311 708 
Q 1631 397 2203 397 
Q 2534 397 2845 478 
Q 3156 559 3463 722 
L 3463 178 
Q 3153 47 2828 -22 
Q 2503 -91 2169 -91 
Q 1331 -91 842 396 
Q 353 884 353 1716 
Q 353 2575 817 3079 
Q 1281 3584 2069 3584 
Q 2775 3584 3186 3129 
Q 3597 2675 3597 1894 
z
M 3022 2063 
Q 3016 2534 2758 2815 
Q 2500 3097 2075 3097 
Q 1594 3097 1305 2825 
Q 1016 2553 972 2059 
L 3022 2063 
z
" id="DejaVuSans-65" transform="scale(0.015625)"/>
       <path d="M 3328 2828 
Q 3544 3216 3844 3400 
Q 4144 3584 4550 3584 
Q 5097 3584 5394 3201 
Q 5691 2819 5691 2113 
L 5691 0 
L 5113 0 
L 5113 2094 
Q 5113 2597 4934 2840 
Q 4756 3084 4391 3084 
Q 3944 3084 3684 2787 
Q 3425 2491 3425 1978 
L 3425 0 
L 2847 0 
L 2847 2094 
Q 2847 2600 2669 2842 
Q 2491 3084 2119 3084 
Q 1678 3084 1418 2786 
Q 1159 2488 1159 1978 
L 1159 0 
L 581 0 
L 581 3500 
L 1159 3500 
L 1159 2956 
Q 1356 3278 1631 3431 
Q 1906 3584 2284 3584 
Q 2666 3584 2933 3390 
Q 3200 3197 3328 2828 
z
" id="DejaVuSans-6d" transform="scale(0.015625)"/>
      </defs>
      <use xlink:href="#DejaVuSans-45"/>
      <use x="63.183594" xlink:href="#DejaVuSans-78"/>
      <use x="122.363281" xlink:href="#DejaVuSans-70"/>
      <use x="185.839844" xlink:href="#DejaVuSans-65"/>
      <use x="247.363281" xlink:href="#DejaVuSans-72"/>
      <use x="288.476562" xlink:href="#DejaVuSans-69"/>
      <use x="316.259766" xlink:href="#DejaVuSans-6d"/>
      <use x="413.671875" xlink:href="#DejaVuSans-65"/>
      <use x="475.195312" xlink:href="#DejaVuSans-6e"/>
      <use x="538.574219" xlink:href="#DejaVuSans-74"/>
     </g>
    </g>
    <g id="line2d_21">
     <path d="M 854.615742 383.067891 
L 887.615742 383.067891 
" style="fill:none;stroke:#9467bd;stroke-linecap:round;stroke-width:2.25;"/>
    </g>
    <g id="line2d_22"/>
    <g id="text_18">
     <!-- k = 10 -->
     <g style="fill:#262626;" transform="translate(900.815742 388.842891)scale(0.165 -0.165)">
      <defs>
       <path d="M 581 4863 
L 1159 4863 
L 1159 1991 
L 2875 3500 
L 3609 3500 
L 1753 1863 
L 3688 0 
L 2938 0 
L 1159 1709 
L 1159 0 
L 581 0 
L 581 4863 
z
" id="DejaVuSans-6b" transform="scale(0.015625)"/>
       <path id="DejaVuSans-20" transform="scale(0.015625)"/>
       <path d="M 678 2906 
L 4684 2906 
L 4684 2381 
L 678 2381 
L 678 2906 
z
M 678 1631 
L 4684 1631 
L 4684 1100 
L 678 1100 
L 678 1631 
z
" id="DejaVuSans-3d" transform="scale(0.015625)"/>
      </defs>
      <use xlink:href="#DejaVuSans-6b"/>
      <use x="57.910156" xlink:href="#DejaVuSans-20"/>
      <use x="89.697266" xlink:href="#DejaVuSans-3d"/>
      <use x="173.486328" xlink:href="#DejaVuSans-20"/>
      <use x="205.273438" xlink:href="#DejaVuSans-31"/>
      <use x="268.896484" xlink:href="#DejaVuSans-30"/>
     </g>
    </g>
    <g id="line2d_23">
     <path d="M 854.615742 407.286797 
L 887.615742 407.286797 
" style="fill:none;stroke:#d62728;stroke-linecap:round;stroke-width:2.25;"/>
    </g>
    <g id="line2d_24"/>
    <g id="text_19">
     <!-- k = 8 -->
     <g style="fill:#262626;" transform="translate(900.815742 413.061797)scale(0.165 -0.165)">
      <use xlink:href="#DejaVuSans-6b"/>
      <use x="57.910156" xlink:href="#DejaVuSans-20"/>
      <use x="89.697266" xlink:href="#DejaVuSans-3d"/>
      <use x="173.486328" xlink:href="#DejaVuSans-20"/>
      <use x="205.273438" xlink:href="#DejaVuSans-38"/>
     </g>
    </g>
    <g id="line2d_25">
     <path d="M 854.615742 431.505703 
L 887.615742 431.505703 
" style="fill:none;stroke:#2ca02c;stroke-linecap:round;stroke-width:2.25;"/>
    </g>
    <g id="line2d_26"/>
    <g id="text_20">
     <!-- k = 6 -->
     <g style="fill:#262626;" transform="translate(900.815742 437.280703)scale(0.165 -0.165)">
      <use xlink:href="#DejaVuSans-6b"/>
      <use x="57.910156" xlink:href="#DejaVuSans-20"/>
      <use x="89.697266" xlink:href="#DejaVuSans-3d"/>
      <use x="173.486328" xlink:href="#DejaVuSans-20"/>
      <use x="205.273438" xlink:href="#DejaVuSans-36"/>
     </g>
    </g>
    <g id="line2d_27">
     <path d="M 854.615742 455.724609 
L 887.615742 455.724609 
" style="fill:none;stroke:#ff7f0e;stroke-linecap:round;stroke-width:2.25;"/>
    </g>
    <g id="line2d_28"/>
    <g id="text_21">
     <!-- k = 4 -->
     <g style="fill:#262626;" transform="translate(900.815742 461.499609)scale(0.165 -0.165)">
      <use xlink:href="#DejaVuSans-6b"/>
      <use x="57.910156" xlink:href="#DejaVuSans-20"/>
      <use x="89.697266" xlink:href="#DejaVuSans-3d"/>
      <use x="173.486328" xlink:href="#DejaVuSans-20"/>
      <use x="205.273438" xlink:href="#DejaVuSans-34"/>
     </g>
    </g>
    <g id="line2d_29">
     <path d="M 854.615742 479.943516 
L 887.615742 479.943516 
" style="fill:none;stroke:#1f77b4;stroke-linecap:round;stroke-width:2.25;"/>
    </g>
    <g id="line2d_30"/>
    <g id="text_22">
     <!-- k = 2 -->
     <g style="fill:#262626;" transform="translate(900.815742 485.718516)scale(0.165 -0.165)">
      <use xlink:href="#DejaVuSans-6b"/>
      <use x="57.910156" xlink:href="#DejaVuSans-20"/>
      <use x="89.697266" xlink:href="#DejaVuSans-3d"/>
      <use x="173.486328" xlink:href="#DejaVuSans-20"/>
      <use x="205.273438" xlink:href="#DejaVuSans-32"/>
     </g>
    </g>
   </g>
  </g>
 </g>
 <defs>
  <clipPath id="p0d1db21dbf">
   <rect height="434.88" width="837" x="135" y="69.12"/>
  </clipPath>
 </defs>
</svg>
