<?xml version="1.0" encoding="utf-8" standalone="no"?>
<!DOCTYPE svg PUBLIC "-//W3C//DTD SVG 1.1//EN"
  "http://www.w3.org/Graphics/SVG/1.1/DTD/svg11.dtd">
<!-- Created with matplotlib (https://matplotlib.org/) -->
<svg height="576pt" version="1.1" viewBox="0 0 1080 576" width="1080pt" xmlns="http://www.w3.org/2000/svg" xmlns:xlink="http://www.w3.org/1999/xlink">
 <metadata>
  <rdf:RDF xmlns:cc="http://creativecommons.org/ns#" xmlns:dc="http://purl.org/dc/elements/1.1/" xmlns:rdf="http://www.w3.org/1999/02/22-rdf-syntax-ns#">
   <cc:Work>
    <dc:type rdf:resource="http://purl.org/dc/dcmitype/StillImage"/>
    <dc:date>2021-10-28T16:14:35.859669</dc:date>
    <dc:format>image/svg+xml</dc:format>
    <dc:creator>
     <cc:Agent>
      <dc:title>Matplotlib v3.3.2, https://matplotlib.org/</dc:title>
     </cc:Agent>
    </dc:creator>
   </cc:Work>
  </rdf:RDF>
 </metadata>
 <defs>
  <style type="text/css">*{stroke-linecap:butt;stroke-linejoin:round;}</style>
 </defs>
 <g id="figure_1">
  <g id="patch_1">
   <path d="M 0 576 
L 1080 576 
L 1080 0 
L 0 0 
z
" style="fill:#ffffff;"/>
  </g>
  <g id="axes_1">
   <g id="patch_2">
    <path d="M 135 504 
L 972 504 
L 972 69.12 
L 135 69.12 
z
" style="fill:#ffffff;"/>
   </g>
   <g id="matplotlib.axis_1">
    <g id="xtick_1">
     <g id="line2d_1">
      <path clip-path="url(#p80d65d83de)" d="M 883.227273 504 
L 883.227273 69.12 
" style="fill:none;stroke:#999999;stroke-dasharray:1.5,2.475;stroke-dashoffset:0;stroke-width:1.5;"/>
     </g>
     <g id="text_1">
      <!-- 0.3 -->
      <g style="fill:#262626;" transform="translate(870.107195 529.037422)scale(0.165 -0.165)">
       <defs>
        <path d="M 31.78125 66.40625 
Q 24.171875 66.40625 20.328125 58.90625 
Q 16.5 51.421875 16.5 36.375 
Q 16.5 21.390625 20.328125 13.890625 
Q 24.171875 6.390625 31.78125 6.390625 
Q 39.453125 6.390625 43.28125 13.890625 
Q 47.125 21.390625 47.125 36.375 
Q 47.125 51.421875 43.28125 58.90625 
Q 39.453125 66.40625 31.78125 66.40625 
z
M 31.78125 74.21875 
Q 44.046875 74.21875 50.515625 64.515625 
Q 56.984375 54.828125 56.984375 36.375 
Q 56.984375 17.96875 50.515625 8.265625 
Q 44.046875 -1.421875 31.78125 -1.421875 
Q 19.53125 -1.421875 13.0625 8.265625 
Q 6.59375 17.96875 6.59375 36.375 
Q 6.59375 54.828125 13.0625 64.515625 
Q 19.53125 74.21875 31.78125 74.21875 
z
" id="DejaVuSans-48"/>
        <path d="M 10.6875 12.40625 
L 21 12.40625 
L 21 0 
L 10.6875 0 
z
" id="DejaVuSans-46"/>
        <path d="M 40.578125 39.3125 
Q 47.65625 37.796875 51.625 33 
Q 55.609375 28.21875 55.609375 21.1875 
Q 55.609375 10.40625 48.1875 4.484375 
Q 40.765625 -1.421875 27.09375 -1.421875 
Q 22.515625 -1.421875 17.65625 -0.515625 
Q 12.796875 0.390625 7.625 2.203125 
L 7.625 11.71875 
Q 11.71875 9.328125 16.59375 8.109375 
Q 21.484375 6.890625 26.8125 6.890625 
Q 36.078125 6.890625 40.9375 10.546875 
Q 45.796875 14.203125 45.796875 21.1875 
Q 45.796875 27.640625 41.28125 31.265625 
Q 36.765625 34.90625 28.71875 34.90625 
L 20.21875 34.90625 
L 20.21875 43.015625 
L 29.109375 43.015625 
Q 36.375 43.015625 40.234375 45.921875 
Q 44.09375 48.828125 44.09375 54.296875 
Q 44.09375 59.90625 40.109375 62.90625 
Q 36.140625 65.921875 28.71875 65.921875 
Q 24.65625 65.921875 20.015625 65.03125 
Q 15.375 64.15625 9.8125 62.3125 
L 9.8125 71.09375 
Q 15.4375 72.65625 20.34375 73.4375 
Q 25.25 74.21875 29.59375 74.21875 
Q 40.828125 74.21875 47.359375 69.109375 
Q 53.90625 64.015625 53.90625 55.328125 
Q 53.90625 49.265625 50.4375 45.09375 
Q 46.96875 40.921875 40.578125 39.3125 
z
" id="DejaVuSans-51"/>
       </defs>
       <use xlink:href="#DejaVuSans-48"/>
       <use x="63.623047" xlink:href="#DejaVuSans-46"/>
       <use x="95.410156" xlink:href="#DejaVuSans-51"/>
      </g>
     </g>
    </g>
    <g id="xtick_2">
     <g id="line2d_2">
      <path clip-path="url(#p80d65d83de)" d="M 781.772727 504 
L 781.772727 69.12 
" style="fill:none;stroke:#999999;stroke-dasharray:1.5,2.475;stroke-dashoffset:0;stroke-width:1.5;"/>
     </g>
     <g id="text_2">
      <!-- 0.4 -->
      <g style="fill:#262626;" transform="translate(768.652649 529.037422)scale(0.165 -0.165)">
       <defs>
        <path d="M 37.796875 64.3125 
L 12.890625 25.390625 
L 37.796875 25.390625 
z
M 35.203125 72.90625 
L 47.609375 72.90625 
L 47.609375 25.390625 
L 58.015625 25.390625 
L 58.015625 17.1875 
L 47.609375 17.1875 
L 47.609375 0 
L 37.796875 0 
L 37.796875 17.1875 
L 4.890625 17.1875 
L 4.890625 26.703125 
z
" id="DejaVuSans-52"/>
       </defs>
       <use xlink:href="#DejaVuSans-48"/>
       <use x="63.623047" xlink:href="#DejaVuSans-46"/>
       <use x="95.410156" xlink:href="#DejaVuSans-52"/>
      </g>
     </g>
    </g>
    <g id="xtick_3">
     <g id="line2d_3">
      <path clip-path="url(#p80d65d83de)" d="M 680.318182 504 
L 680.318182 69.12 
" style="fill:none;stroke:#999999;stroke-dasharray:1.5,2.475;stroke-dashoffset:0;stroke-width:1.5;"/>
     </g>
     <g id="text_3">
      <!-- 0.5 -->
      <g style="fill:#262626;" transform="translate(667.198104 529.037422)scale(0.165 -0.165)">
       <defs>
        <path d="M 10.796875 72.90625 
L 49.515625 72.90625 
L 49.515625 64.59375 
L 19.828125 64.59375 
L 19.828125 46.734375 
Q 21.96875 47.46875 24.109375 47.828125 
Q 26.265625 48.1875 28.421875 48.1875 
Q 40.625 48.1875 47.75 41.5 
Q 54.890625 34.8125 54.890625 23.390625 
Q 54.890625 11.625 47.5625 5.09375 
Q 40.234375 -1.421875 26.90625 -1.421875 
Q 22.3125 -1.421875 17.546875 -0.640625 
Q 12.796875 0.140625 7.71875 1.703125 
L 7.71875 11.625 
Q 12.109375 9.234375 16.796875 8.0625 
Q 21.484375 6.890625 26.703125 6.890625 
Q 35.15625 6.890625 40.078125 11.328125 
Q 45.015625 15.765625 45.015625 23.390625 
Q 45.015625 31 40.078125 35.4375 
Q 35.15625 39.890625 26.703125 39.890625 
Q 22.75 39.890625 18.8125 39.015625 
Q 14.890625 38.140625 10.796875 36.28125 
z
" id="DejaVuSans-53"/>
       </defs>
       <use xlink:href="#DejaVuSans-48"/>
       <use x="63.623047" xlink:href="#DejaVuSans-46"/>
       <use x="95.410156" xlink:href="#DejaVuSans-53"/>
      </g>
     </g>
    </g>
    <g id="xtick_4">
     <g id="line2d_4">
      <path clip-path="url(#p80d65d83de)" d="M 578.863636 504 
L 578.863636 69.12 
" style="fill:none;stroke:#999999;stroke-dasharray:1.5,2.475;stroke-dashoffset:0;stroke-width:1.5;"/>
     </g>
     <g id="text_4">
      <!-- 0.6 -->
      <g style="fill:#262626;" transform="translate(565.743558 529.037422)scale(0.165 -0.165)">
       <defs>
        <path d="M 33.015625 40.375 
Q 26.375 40.375 22.484375 35.828125 
Q 18.609375 31.296875 18.609375 23.390625 
Q 18.609375 15.53125 22.484375 10.953125 
Q 26.375 6.390625 33.015625 6.390625 
Q 39.65625 6.390625 43.53125 10.953125 
Q 47.40625 15.53125 47.40625 23.390625 
Q 47.40625 31.296875 43.53125 35.828125 
Q 39.65625 40.375 33.015625 40.375 
z
M 52.59375 71.296875 
L 52.59375 62.3125 
Q 48.875 64.0625 45.09375 64.984375 
Q 41.3125 65.921875 37.59375 65.921875 
Q 27.828125 65.921875 22.671875 59.328125 
Q 17.53125 52.734375 16.796875 39.40625 
Q 19.671875 43.65625 24.015625 45.921875 
Q 28.375 48.1875 33.59375 48.1875 
Q 44.578125 48.1875 50.953125 41.515625 
Q 57.328125 34.859375 57.328125 23.390625 
Q 57.328125 12.15625 50.6875 5.359375 
Q 44.046875 -1.421875 33.015625 -1.421875 
Q 20.359375 -1.421875 13.671875 8.265625 
Q 6.984375 17.96875 6.984375 36.375 
Q 6.984375 53.65625 15.1875 63.9375 
Q 23.390625 74.21875 37.203125 74.21875 
Q 40.921875 74.21875 44.703125 73.484375 
Q 48.484375 72.75 52.59375 71.296875 
z
" id="DejaVuSans-54"/>
       </defs>
       <use xlink:href="#DejaVuSans-48"/>
       <use x="63.623047" xlink:href="#DejaVuSans-46"/>
       <use x="95.410156" xlink:href="#DejaVuSans-54"/>
      </g>
     </g>
    </g>
    <g id="xtick_5">
     <g id="line2d_5">
      <path clip-path="url(#p80d65d83de)" d="M 477.409091 504 
L 477.409091 69.12 
" style="fill:none;stroke:#999999;stroke-dasharray:1.5,2.475;stroke-dashoffset:0;stroke-width:1.5;"/>
     </g>
     <g id="text_5">
      <!-- 0.7 -->
      <g style="fill:#262626;" transform="translate(464.289013 529.037422)scale(0.165 -0.165)">
       <defs>
        <path d="M 8.203125 72.90625 
L 55.078125 72.90625 
L 55.078125 68.703125 
L 28.609375 0 
L 18.3125 0 
L 43.21875 64.59375 
L 8.203125 64.59375 
z
" id="DejaVuSans-55"/>
       </defs>
       <use xlink:href="#DejaVuSans-48"/>
       <use x="63.623047" xlink:href="#DejaVuSans-46"/>
       <use x="95.410156" xlink:href="#DejaVuSans-55"/>
      </g>
     </g>
    </g>
    <g id="xtick_6">
     <g id="line2d_6">
      <path clip-path="url(#p80d65d83de)" d="M 375.954545 504 
L 375.954545 69.12 
" style="fill:none;stroke:#999999;stroke-dasharray:1.5,2.475;stroke-dashoffset:0;stroke-width:1.5;"/>
     </g>
     <g id="text_6">
      <!-- 0.8 -->
      <g style="fill:#262626;" transform="translate(362.834467 529.037422)scale(0.165 -0.165)">
       <defs>
        <path d="M 31.78125 34.625 
Q 24.75 34.625 20.71875 30.859375 
Q 16.703125 27.09375 16.703125 20.515625 
Q 16.703125 13.921875 20.71875 10.15625 
Q 24.75 6.390625 31.78125 6.390625 
Q 38.8125 6.390625 42.859375 10.171875 
Q 46.921875 13.96875 46.921875 20.515625 
Q 46.921875 27.09375 42.890625 30.859375 
Q 38.875 34.625 31.78125 34.625 
z
M 21.921875 38.8125 
Q 15.578125 40.375 12.03125 44.71875 
Q 8.5 49.078125 8.5 55.328125 
Q 8.5 64.0625 14.71875 69.140625 
Q 20.953125 74.21875 31.78125 74.21875 
Q 42.671875 74.21875 48.875 69.140625 
Q 55.078125 64.0625 55.078125 55.328125 
Q 55.078125 49.078125 51.53125 44.71875 
Q 48 40.375 41.703125 38.8125 
Q 48.828125 37.15625 52.796875 32.3125 
Q 56.78125 27.484375 56.78125 20.515625 
Q 56.78125 9.90625 50.3125 4.234375 
Q 43.84375 -1.421875 31.78125 -1.421875 
Q 19.734375 -1.421875 13.25 4.234375 
Q 6.78125 9.90625 6.78125 20.515625 
Q 6.78125 27.484375 10.78125 32.3125 
Q 14.796875 37.15625 21.921875 38.8125 
z
M 18.3125 54.390625 
Q 18.3125 48.734375 21.84375 45.5625 
Q 25.390625 42.390625 31.78125 42.390625 
Q 38.140625 42.390625 41.71875 45.5625 
Q 45.3125 48.734375 45.3125 54.390625 
Q 45.3125 60.0625 41.71875 63.234375 
Q 38.140625 66.40625 31.78125 66.40625 
Q 25.390625 66.40625 21.84375 63.234375 
Q 18.3125 60.0625 18.3125 54.390625 
z
" id="DejaVuSans-56"/>
       </defs>
       <use xlink:href="#DejaVuSans-48"/>
       <use x="63.623047" xlink:href="#DejaVuSans-46"/>
       <use x="95.410156" xlink:href="#DejaVuSans-56"/>
      </g>
     </g>
    </g>
    <g id="xtick_7">
     <g id="line2d_7">
      <path clip-path="url(#p80d65d83de)" d="M 274.5 504 
L 274.5 69.12 
" style="fill:none;stroke:#999999;stroke-dasharray:1.5,2.475;stroke-dashoffset:0;stroke-width:1.5;"/>
     </g>
     <g id="text_7">
      <!-- 0.9 -->
      <g style="fill:#262626;" transform="translate(261.379922 529.037422)scale(0.165 -0.165)">
       <defs>
        <path d="M 10.984375 1.515625 
L 10.984375 10.5 
Q 14.703125 8.734375 18.5 7.8125 
Q 22.3125 6.890625 25.984375 6.890625 
Q 35.75 6.890625 40.890625 13.453125 
Q 46.046875 20.015625 46.78125 33.40625 
Q 43.953125 29.203125 39.59375 26.953125 
Q 35.25 24.703125 29.984375 24.703125 
Q 19.046875 24.703125 12.671875 31.3125 
Q 6.296875 37.9375 6.296875 49.421875 
Q 6.296875 60.640625 12.9375 67.421875 
Q 19.578125 74.21875 30.609375 74.21875 
Q 43.265625 74.21875 49.921875 64.515625 
Q 56.59375 54.828125 56.59375 36.375 
Q 56.59375 19.140625 48.40625 8.859375 
Q 40.234375 -1.421875 26.421875 -1.421875 
Q 22.703125 -1.421875 18.890625 -0.6875 
Q 15.09375 0.046875 10.984375 1.515625 
z
M 30.609375 32.421875 
Q 37.25 32.421875 41.125 36.953125 
Q 45.015625 41.5 45.015625 49.421875 
Q 45.015625 57.28125 41.125 61.84375 
Q 37.25 66.40625 30.609375 66.40625 
Q 23.96875 66.40625 20.09375 61.84375 
Q 16.21875 57.28125 16.21875 49.421875 
Q 16.21875 41.5 20.09375 36.953125 
Q 23.96875 32.421875 30.609375 32.421875 
z
" id="DejaVuSans-57"/>
       </defs>
       <use xlink:href="#DejaVuSans-48"/>
       <use x="63.623047" xlink:href="#DejaVuSans-46"/>
       <use x="95.410156" xlink:href="#DejaVuSans-57"/>
      </g>
     </g>
    </g>
    <g id="xtick_8">
     <g id="line2d_8">
      <path clip-path="url(#p80d65d83de)" d="M 173.045455 504 
L 173.045455 69.12 
" style="fill:none;stroke:#999999;stroke-dasharray:1.5,2.475;stroke-dashoffset:0;stroke-width:1.5;"/>
     </g>
     <g id="text_8">
      <!-- 1.0 -->
      <g style="fill:#262626;" transform="translate(159.925376 529.037422)scale(0.165 -0.165)">
       <defs>
        <path d="M 12.40625 8.296875 
L 28.515625 8.296875 
L 28.515625 63.921875 
L 10.984375 60.40625 
L 10.984375 69.390625 
L 28.421875 72.90625 
L 38.28125 72.90625 
L 38.28125 8.296875 
L 54.390625 8.296875 
L 54.390625 0 
L 12.40625 0 
z
" id="DejaVuSans-49"/>
       </defs>
       <use xlink:href="#DejaVuSans-49"/>
       <use x="63.623047" xlink:href="#DejaVuSans-46"/>
       <use x="95.410156" xlink:href="#DejaVuSans-48"/>
      </g>
     </g>
    </g>
    <g id="text_9">
     <!-- F (largest user ratio in the cluster) -->
     <g style="fill:#262626;" transform="translate(399.151406 550.146094)scale(0.18 -0.18)">
      <defs>
       <path d="M 9.8125 72.90625 
L 51.703125 72.90625 
L 51.703125 64.59375 
L 19.671875 64.59375 
L 19.671875 43.109375 
L 48.578125 43.109375 
L 48.578125 34.8125 
L 19.671875 34.8125 
L 19.671875 0 
L 9.8125 0 
z
" id="DejaVuSans-70"/>
       <path id="DejaVuSans-32"/>
       <path d="M 31 75.875 
Q 24.46875 64.65625 21.28125 53.65625 
Q 18.109375 42.671875 18.109375 31.390625 
Q 18.109375 20.125 21.3125 9.0625 
Q 24.515625 -2 31 -13.1875 
L 23.1875 -13.1875 
Q 15.875 -1.703125 12.234375 9.375 
Q 8.59375 20.453125 8.59375 31.390625 
Q 8.59375 42.28125 12.203125 53.3125 
Q 15.828125 64.359375 23.1875 75.875 
z
" id="DejaVuSans-40"/>
       <path d="M 9.421875 75.984375 
L 18.40625 75.984375 
L 18.40625 0 
L 9.421875 0 
z
" id="DejaVuSans-108"/>
       <path d="M 34.28125 27.484375 
Q 23.390625 27.484375 19.1875 25 
Q 14.984375 22.515625 14.984375 16.5 
Q 14.984375 11.71875 18.140625 8.90625 
Q 21.296875 6.109375 26.703125 6.109375 
Q 34.1875 6.109375 38.703125 11.40625 
Q 43.21875 16.703125 43.21875 25.484375 
L 43.21875 27.484375 
z
M 52.203125 31.203125 
L 52.203125 0 
L 43.21875 0 
L 43.21875 8.296875 
Q 40.140625 3.328125 35.546875 0.953125 
Q 30.953125 -1.421875 24.3125 -1.421875 
Q 15.921875 -1.421875 10.953125 3.296875 
Q 6 8.015625 6 15.921875 
Q 6 25.140625 12.171875 29.828125 
Q 18.359375 34.515625 30.609375 34.515625 
L 43.21875 34.515625 
L 43.21875 35.40625 
Q 43.21875 41.609375 39.140625 45 
Q 35.0625 48.390625 27.6875 48.390625 
Q 23 48.390625 18.546875 47.265625 
Q 14.109375 46.140625 10.015625 43.890625 
L 10.015625 52.203125 
Q 14.9375 54.109375 19.578125 55.046875 
Q 24.21875 56 28.609375 56 
Q 40.484375 56 46.34375 49.84375 
Q 52.203125 43.703125 52.203125 31.203125 
z
" id="DejaVuSans-97"/>
       <path d="M 41.109375 46.296875 
Q 39.59375 47.171875 37.8125 47.578125 
Q 36.03125 48 33.890625 48 
Q 26.265625 48 22.1875 43.046875 
Q 18.109375 38.09375 18.109375 28.8125 
L 18.109375 0 
L 9.078125 0 
L 9.078125 54.6875 
L 18.109375 54.6875 
L 18.109375 46.1875 
Q 20.953125 51.171875 25.484375 53.578125 
Q 30.03125 56 36.53125 56 
Q 37.453125 56 38.578125 55.875 
Q 39.703125 55.765625 41.0625 55.515625 
z
" id="DejaVuSans-114"/>
       <path d="M 45.40625 27.984375 
Q 45.40625 37.75 41.375 43.109375 
Q 37.359375 48.484375 30.078125 48.484375 
Q 22.859375 48.484375 18.828125 43.109375 
Q 14.796875 37.75 14.796875 27.984375 
Q 14.796875 18.265625 18.828125 12.890625 
Q 22.859375 7.515625 30.078125 7.515625 
Q 37.359375 7.515625 41.375 12.890625 
Q 45.40625 18.265625 45.40625 27.984375 
z
M 54.390625 6.78125 
Q 54.390625 -7.171875 48.1875 -13.984375 
Q 42 -20.796875 29.203125 -20.796875 
Q 24.46875 -20.796875 20.265625 -20.09375 
Q 16.0625 -19.390625 12.109375 -17.921875 
L 12.109375 -9.1875 
Q 16.0625 -11.328125 19.921875 -12.34375 
Q 23.78125 -13.375 27.78125 -13.375 
Q 36.625 -13.375 41.015625 -8.765625 
Q 45.40625 -4.15625 45.40625 5.171875 
L 45.40625 9.625 
Q 42.625 4.78125 38.28125 2.390625 
Q 33.9375 0 27.875 0 
Q 17.828125 0 11.671875 7.65625 
Q 5.515625 15.328125 5.515625 27.984375 
Q 5.515625 40.671875 11.671875 48.328125 
Q 17.828125 56 27.875 56 
Q 33.9375 56 38.28125 53.609375 
Q 42.625 51.21875 45.40625 46.390625 
L 45.40625 54.6875 
L 54.390625 54.6875 
z
" id="DejaVuSans-103"/>
       <path d="M 56.203125 29.59375 
L 56.203125 25.203125 
L 14.890625 25.203125 
Q 15.484375 15.921875 20.484375 11.0625 
Q 25.484375 6.203125 34.421875 6.203125 
Q 39.59375 6.203125 44.453125 7.46875 
Q 49.3125 8.734375 54.109375 11.28125 
L 54.109375 2.78125 
Q 49.265625 0.734375 44.1875 -0.34375 
Q 39.109375 -1.421875 33.890625 -1.421875 
Q 20.796875 -1.421875 13.15625 6.1875 
Q 5.515625 13.8125 5.515625 26.8125 
Q 5.515625 40.234375 12.765625 48.109375 
Q 20.015625 56 32.328125 56 
Q 43.359375 56 49.78125 48.890625 
Q 56.203125 41.796875 56.203125 29.59375 
z
M 47.21875 32.234375 
Q 47.125 39.59375 43.09375 43.984375 
Q 39.0625 48.390625 32.421875 48.390625 
Q 24.90625 48.390625 20.390625 44.140625 
Q 15.875 39.890625 15.1875 32.171875 
z
" id="DejaVuSans-101"/>
       <path d="M 44.28125 53.078125 
L 44.28125 44.578125 
Q 40.484375 46.53125 36.375 47.5 
Q 32.28125 48.484375 27.875 48.484375 
Q 21.1875 48.484375 17.84375 46.4375 
Q 14.5 44.390625 14.5 40.28125 
Q 14.5 37.15625 16.890625 35.375 
Q 19.28125 33.59375 26.515625 31.984375 
L 29.59375 31.296875 
Q 39.15625 29.25 43.1875 25.515625 
Q 47.21875 21.78125 47.21875 15.09375 
Q 47.21875 7.46875 41.1875 3.015625 
Q 35.15625 -1.421875 24.609375 -1.421875 
Q 20.21875 -1.421875 15.453125 -0.5625 
Q 10.6875 0.296875 5.421875 2 
L 5.421875 11.28125 
Q 10.40625 8.6875 15.234375 7.390625 
Q 20.0625 6.109375 24.8125 6.109375 
Q 31.15625 6.109375 34.5625 8.28125 
Q 37.984375 10.453125 37.984375 14.40625 
Q 37.984375 18.0625 35.515625 20.015625 
Q 33.0625 21.96875 24.703125 23.78125 
L 21.578125 24.515625 
Q 13.234375 26.265625 9.515625 29.90625 
Q 5.8125 33.546875 5.8125 39.890625 
Q 5.8125 47.609375 11.28125 51.796875 
Q 16.75 56 26.8125 56 
Q 31.78125 56 36.171875 55.265625 
Q 40.578125 54.546875 44.28125 53.078125 
z
" id="DejaVuSans-115"/>
       <path d="M 18.3125 70.21875 
L 18.3125 54.6875 
L 36.8125 54.6875 
L 36.8125 47.703125 
L 18.3125 47.703125 
L 18.3125 18.015625 
Q 18.3125 11.328125 20.140625 9.421875 
Q 21.96875 7.515625 27.59375 7.515625 
L 36.8125 7.515625 
L 36.8125 0 
L 27.59375 0 
Q 17.1875 0 13.234375 3.875 
Q 9.28125 7.765625 9.28125 18.015625 
L 9.28125 47.703125 
L 2.6875 47.703125 
L 2.6875 54.6875 
L 9.28125 54.6875 
L 9.28125 70.21875 
z
" id="DejaVuSans-116"/>
       <path d="M 8.5 21.578125 
L 8.5 54.6875 
L 17.484375 54.6875 
L 17.484375 21.921875 
Q 17.484375 14.15625 20.5 10.265625 
Q 23.53125 6.390625 29.59375 6.390625 
Q 36.859375 6.390625 41.078125 11.03125 
Q 45.3125 15.671875 45.3125 23.6875 
L 45.3125 54.6875 
L 54.296875 54.6875 
L 54.296875 0 
L 45.3125 0 
L 45.3125 8.40625 
Q 42.046875 3.421875 37.71875 1 
Q 33.40625 -1.421875 27.6875 -1.421875 
Q 18.265625 -1.421875 13.375 4.4375 
Q 8.5 10.296875 8.5 21.578125 
z
M 31.109375 56 
z
" id="DejaVuSans-117"/>
       <path d="M 9.421875 54.6875 
L 18.40625 54.6875 
L 18.40625 0 
L 9.421875 0 
z
M 9.421875 75.984375 
L 18.40625 75.984375 
L 18.40625 64.59375 
L 9.421875 64.59375 
z
" id="DejaVuSans-105"/>
       <path d="M 30.609375 48.390625 
Q 23.390625 48.390625 19.1875 42.75 
Q 14.984375 37.109375 14.984375 27.296875 
Q 14.984375 17.484375 19.15625 11.84375 
Q 23.34375 6.203125 30.609375 6.203125 
Q 37.796875 6.203125 41.984375 11.859375 
Q 46.1875 17.53125 46.1875 27.296875 
Q 46.1875 37.015625 41.984375 42.703125 
Q 37.796875 48.390625 30.609375 48.390625 
z
M 30.609375 56 
Q 42.328125 56 49.015625 48.375 
Q 55.71875 40.765625 55.71875 27.296875 
Q 55.71875 13.875 49.015625 6.21875 
Q 42.328125 -1.421875 30.609375 -1.421875 
Q 18.84375 -1.421875 12.171875 6.21875 
Q 5.515625 13.875 5.515625 27.296875 
Q 5.515625 40.765625 12.171875 48.375 
Q 18.84375 56 30.609375 56 
z
" id="DejaVuSans-111"/>
       <path d="M 54.890625 33.015625 
L 54.890625 0 
L 45.90625 0 
L 45.90625 32.71875 
Q 45.90625 40.484375 42.875 44.328125 
Q 39.84375 48.1875 33.796875 48.1875 
Q 26.515625 48.1875 22.3125 43.546875 
Q 18.109375 38.921875 18.109375 30.90625 
L 18.109375 0 
L 9.078125 0 
L 9.078125 54.6875 
L 18.109375 54.6875 
L 18.109375 46.1875 
Q 21.34375 51.125 25.703125 53.5625 
Q 30.078125 56 35.796875 56 
Q 45.21875 56 50.046875 50.171875 
Q 54.890625 44.34375 54.890625 33.015625 
z
" id="DejaVuSans-110"/>
       <path d="M 54.890625 33.015625 
L 54.890625 0 
L 45.90625 0 
L 45.90625 32.71875 
Q 45.90625 40.484375 42.875 44.328125 
Q 39.84375 48.1875 33.796875 48.1875 
Q 26.515625 48.1875 22.3125 43.546875 
Q 18.109375 38.921875 18.109375 30.90625 
L 18.109375 0 
L 9.078125 0 
L 9.078125 75.984375 
L 18.109375 75.984375 
L 18.109375 46.1875 
Q 21.34375 51.125 25.703125 53.5625 
Q 30.078125 56 35.796875 56 
Q 45.21875 56 50.046875 50.171875 
Q 54.890625 44.34375 54.890625 33.015625 
z
" id="DejaVuSans-104"/>
       <path d="M 48.78125 52.59375 
L 48.78125 44.1875 
Q 44.96875 46.296875 41.140625 47.34375 
Q 37.3125 48.390625 33.40625 48.390625 
Q 24.65625 48.390625 19.8125 42.84375 
Q 14.984375 37.3125 14.984375 27.296875 
Q 14.984375 17.28125 19.8125 11.734375 
Q 24.65625 6.203125 33.40625 6.203125 
Q 37.3125 6.203125 41.140625 7.25 
Q 44.96875 8.296875 48.78125 10.40625 
L 48.78125 2.09375 
Q 45.015625 0.34375 40.984375 -0.53125 
Q 36.96875 -1.421875 32.421875 -1.421875 
Q 20.0625 -1.421875 12.78125 6.34375 
Q 5.515625 14.109375 5.515625 27.296875 
Q 5.515625 40.671875 12.859375 48.328125 
Q 20.21875 56 33.015625 56 
Q 37.15625 56 41.109375 55.140625 
Q 45.0625 54.296875 48.78125 52.59375 
z
" id="DejaVuSans-99"/>
       <path d="M 8.015625 75.875 
L 15.828125 75.875 
Q 23.140625 64.359375 26.78125 53.3125 
Q 30.421875 42.28125 30.421875 31.390625 
Q 30.421875 20.453125 26.78125 9.375 
Q 23.140625 -1.703125 15.828125 -13.1875 
L 8.015625 -13.1875 
Q 14.5 -2 17.703125 9.0625 
Q 20.90625 20.125 20.90625 31.390625 
Q 20.90625 42.671875 17.703125 53.65625 
Q 14.5 64.65625 8.015625 75.875 
z
" id="DejaVuSans-41"/>
      </defs>
      <use xlink:href="#DejaVuSans-70"/>
      <use x="57.519531" xlink:href="#DejaVuSans-32"/>
      <use x="89.306641" xlink:href="#DejaVuSans-40"/>
      <use x="128.320312" xlink:href="#DejaVuSans-108"/>
      <use x="156.103516" xlink:href="#DejaVuSans-97"/>
      <use x="217.382812" xlink:href="#DejaVuSans-114"/>
      <use x="256.746094" xlink:href="#DejaVuSans-103"/>
      <use x="320.222656" xlink:href="#DejaVuSans-101"/>
      <use x="381.746094" xlink:href="#DejaVuSans-115"/>
      <use x="433.845703" xlink:href="#DejaVuSans-116"/>
      <use x="473.054688" xlink:href="#DejaVuSans-32"/>
      <use x="504.841797" xlink:href="#DejaVuSans-117"/>
      <use x="568.220703" xlink:href="#DejaVuSans-115"/>
      <use x="620.320312" xlink:href="#DejaVuSans-101"/>
      <use x="681.84375" xlink:href="#DejaVuSans-114"/>
      <use x="722.957031" xlink:href="#DejaVuSans-32"/>
      <use x="754.744141" xlink:href="#DejaVuSans-114"/>
      <use x="795.857422" xlink:href="#DejaVuSans-97"/>
      <use x="857.136719" xlink:href="#DejaVuSans-116"/>
      <use x="896.345703" xlink:href="#DejaVuSans-105"/>
      <use x="924.128906" xlink:href="#DejaVuSans-111"/>
      <use x="985.310547" xlink:href="#DejaVuSans-32"/>
      <use x="1017.097656" xlink:href="#DejaVuSans-105"/>
      <use x="1044.880859" xlink:href="#DejaVuSans-110"/>
      <use x="1108.259766" xlink:href="#DejaVuSans-32"/>
      <use x="1140.046875" xlink:href="#DejaVuSans-116"/>
      <use x="1179.255859" xlink:href="#DejaVuSans-104"/>
      <use x="1242.634766" xlink:href="#DejaVuSans-101"/>
      <use x="1304.158203" xlink:href="#DejaVuSans-32"/>
      <use x="1335.945312" xlink:href="#DejaVuSans-99"/>
      <use x="1390.925781" xlink:href="#DejaVuSans-108"/>
      <use x="1418.708984" xlink:href="#DejaVuSans-117"/>
      <use x="1482.087891" xlink:href="#DejaVuSans-115"/>
      <use x="1534.1875" xlink:href="#DejaVuSans-116"/>
      <use x="1573.396484" xlink:href="#DejaVuSans-101"/>
      <use x="1634.919922" xlink:href="#DejaVuSans-114"/>
      <use x="1676.033203" xlink:href="#DejaVuSans-41"/>
     </g>
    </g>
   </g>
   <g id="matplotlib.axis_2">
    <g id="ytick_1">
     <g id="line2d_9">
      <path clip-path="url(#p80d65d83de)" d="M 135 504 
L 972 504 
" style="fill:none;stroke:#999999;stroke-dasharray:1.5,2.475;stroke-dashoffset:0;stroke-width:1.5;"/>
     </g>
     <g id="text_10">
      <!-- 0% -->
      <g style="fill:#262626;" transform="translate(96.324297 510.268711)scale(0.165 -0.165)">
       <defs>
        <path d="M 72.703125 32.078125 
Q 68.453125 32.078125 66.03125 28.46875 
Q 63.625 24.859375 63.625 18.40625 
Q 63.625 12.0625 66.03125 8.421875 
Q 68.453125 4.78125 72.703125 4.78125 
Q 76.859375 4.78125 79.265625 8.421875 
Q 81.6875 12.0625 81.6875 18.40625 
Q 81.6875 24.8125 79.265625 28.4375 
Q 76.859375 32.078125 72.703125 32.078125 
z
M 72.703125 38.28125 
Q 80.421875 38.28125 84.953125 32.90625 
Q 89.5 27.546875 89.5 18.40625 
Q 89.5 9.28125 84.9375 3.921875 
Q 80.375 -1.421875 72.703125 -1.421875 
Q 64.890625 -1.421875 60.34375 3.921875 
Q 55.8125 9.28125 55.8125 18.40625 
Q 55.8125 27.59375 60.375 32.9375 
Q 64.9375 38.28125 72.703125 38.28125 
z
M 22.3125 68.015625 
Q 18.109375 68.015625 15.6875 64.375 
Q 13.28125 60.75 13.28125 54.390625 
Q 13.28125 47.953125 15.671875 44.328125 
Q 18.0625 40.71875 22.3125 40.71875 
Q 26.5625 40.71875 28.96875 44.328125 
Q 31.390625 47.953125 31.390625 54.390625 
Q 31.390625 60.6875 28.953125 64.34375 
Q 26.515625 68.015625 22.3125 68.015625 
z
M 66.40625 74.21875 
L 74.21875 74.21875 
L 28.609375 -1.421875 
L 20.796875 -1.421875 
z
M 22.3125 74.21875 
Q 30.03125 74.21875 34.609375 68.875 
Q 39.203125 63.53125 39.203125 54.390625 
Q 39.203125 45.171875 34.640625 39.84375 
Q 30.078125 34.515625 22.3125 34.515625 
Q 14.546875 34.515625 10.03125 39.859375 
Q 5.515625 45.21875 5.515625 54.390625 
Q 5.515625 63.484375 10.046875 68.84375 
Q 14.59375 74.21875 22.3125 74.21875 
z
" id="DejaVuSans-37"/>
       </defs>
       <use xlink:href="#DejaVuSans-48"/>
       <use x="63.623047" xlink:href="#DejaVuSans-37"/>
      </g>
     </g>
    </g>
    <g id="ytick_2">
     <g id="line2d_10">
      <path clip-path="url(#p80d65d83de)" d="M 135 417.024 
L 972 417.024 
" style="fill:none;stroke:#999999;stroke-dasharray:1.5,2.475;stroke-dashoffset:0;stroke-width:1.5;"/>
     </g>
     <g id="text_11">
      <!-- 20% -->
      <g style="fill:#262626;" transform="translate(85.826172 423.292711)scale(0.165 -0.165)">
       <defs>
        <path d="M 19.1875 8.296875 
L 53.609375 8.296875 
L 53.609375 0 
L 7.328125 0 
L 7.328125 8.296875 
Q 12.9375 14.109375 22.625 23.890625 
Q 32.328125 33.6875 34.8125 36.53125 
Q 39.546875 41.84375 41.421875 45.53125 
Q 43.3125 49.21875 43.3125 52.78125 
Q 43.3125 58.59375 39.234375 62.25 
Q 35.15625 65.921875 28.609375 65.921875 
Q 23.96875 65.921875 18.8125 64.3125 
Q 13.671875 62.703125 7.8125 59.421875 
L 7.8125 69.390625 
Q 13.765625 71.78125 18.9375 73 
Q 24.125 74.21875 28.421875 74.21875 
Q 39.75 74.21875 46.484375 68.546875 
Q 53.21875 62.890625 53.21875 53.421875 
Q 53.21875 48.921875 51.53125 44.890625 
Q 49.859375 40.875 45.40625 35.40625 
Q 44.1875 33.984375 37.640625 27.21875 
Q 31.109375 20.453125 19.1875 8.296875 
z
" id="DejaVuSans-50"/>
       </defs>
       <use xlink:href="#DejaVuSans-50"/>
       <use x="63.623047" xlink:href="#DejaVuSans-48"/>
       <use x="127.246094" xlink:href="#DejaVuSans-37"/>
      </g>
     </g>
    </g>
    <g id="ytick_3">
     <g id="line2d_11">
      <path clip-path="url(#p80d65d83de)" d="M 135 330.048 
L 972 330.048 
" style="fill:none;stroke:#999999;stroke-dasharray:1.5,2.475;stroke-dashoffset:0;stroke-width:1.5;"/>
     </g>
     <g id="text_12">
      <!-- 40% -->
      <g style="fill:#262626;" transform="translate(85.826172 336.316711)scale(0.165 -0.165)">
       <use xlink:href="#DejaVuSans-52"/>
       <use x="63.623047" xlink:href="#DejaVuSans-48"/>
       <use x="127.246094" xlink:href="#DejaVuSans-37"/>
      </g>
     </g>
    </g>
    <g id="ytick_4">
     <g id="line2d_12">
      <path clip-path="url(#p80d65d83de)" d="M 135 243.072 
L 972 243.072 
" style="fill:none;stroke:#999999;stroke-dasharray:1.5,2.475;stroke-dashoffset:0;stroke-width:1.5;"/>
     </g>
     <g id="text_13">
      <!-- 60% -->
      <g style="fill:#262626;" transform="translate(85.826172 249.340711)scale(0.165 -0.165)">
       <use xlink:href="#DejaVuSans-54"/>
       <use x="63.623047" xlink:href="#DejaVuSans-48"/>
       <use x="127.246094" xlink:href="#DejaVuSans-37"/>
      </g>
     </g>
    </g>
    <g id="ytick_5">
     <g id="line2d_13">
      <path clip-path="url(#p80d65d83de)" d="M 135 156.096 
L 972 156.096 
" style="fill:none;stroke:#999999;stroke-dasharray:1.5,2.475;stroke-dashoffset:0;stroke-width:1.5;"/>
     </g>
     <g id="text_14">
      <!-- 80% -->
      <g style="fill:#262626;" transform="translate(85.826172 162.364711)scale(0.165 -0.165)">
       <use xlink:href="#DejaVuSans-56"/>
       <use x="63.623047" xlink:href="#DejaVuSans-48"/>
       <use x="127.246094" xlink:href="#DejaVuSans-37"/>
      </g>
     </g>
    </g>
    <g id="ytick_6">
     <g id="line2d_14">
      <path clip-path="url(#p80d65d83de)" d="M 135 69.12 
L 972 69.12 
" style="fill:none;stroke:#999999;stroke-dasharray:1.5,2.475;stroke-dashoffset:0;stroke-width:1.5;"/>
     </g>
     <g id="text_15">
      <!-- 100% -->
      <g style="fill:#262626;" transform="translate(75.328047 75.388711)scale(0.165 -0.165)">
       <use xlink:href="#DejaVuSans-49"/>
       <use x="63.623047" xlink:href="#DejaVuSans-48"/>
       <use x="127.246094" xlink:href="#DejaVuSans-48"/>
       <use x="190.869141" xlink:href="#DejaVuSans-37"/>
      </g>
     </g>
    </g>
    <g id="text_16">
     <!-- Proportion -->
     <g style="fill:#262626;" transform="translate(67.584609 332.992969)rotate(-90)scale(0.18 -0.18)">
      <defs>
       <path d="M 19.671875 64.796875 
L 19.671875 37.40625 
L 32.078125 37.40625 
Q 38.96875 37.40625 42.71875 40.96875 
Q 46.484375 44.53125 46.484375 51.125 
Q 46.484375 57.671875 42.71875 61.234375 
Q 38.96875 64.796875 32.078125 64.796875 
z
M 9.8125 72.90625 
L 32.078125 72.90625 
Q 44.34375 72.90625 50.609375 67.359375 
Q 56.890625 61.8125 56.890625 51.125 
Q 56.890625 40.328125 50.609375 34.8125 
Q 44.34375 29.296875 32.078125 29.296875 
L 19.671875 29.296875 
L 19.671875 0 
L 9.8125 0 
z
" id="DejaVuSans-80"/>
       <path d="M 18.109375 8.203125 
L 18.109375 -20.796875 
L 9.078125 -20.796875 
L 9.078125 54.6875 
L 18.109375 54.6875 
L 18.109375 46.390625 
Q 20.953125 51.265625 25.265625 53.625 
Q 29.59375 56 35.59375 56 
Q 45.5625 56 51.78125 48.09375 
Q 58.015625 40.1875 58.015625 27.296875 
Q 58.015625 14.40625 51.78125 6.484375 
Q 45.5625 -1.421875 35.59375 -1.421875 
Q 29.59375 -1.421875 25.265625 0.953125 
Q 20.953125 3.328125 18.109375 8.203125 
z
M 48.6875 27.296875 
Q 48.6875 37.203125 44.609375 42.84375 
Q 40.53125 48.484375 33.40625 48.484375 
Q 26.265625 48.484375 22.1875 42.84375 
Q 18.109375 37.203125 18.109375 27.296875 
Q 18.109375 17.390625 22.1875 11.75 
Q 26.265625 6.109375 33.40625 6.109375 
Q 40.53125 6.109375 44.609375 11.75 
Q 48.6875 17.390625 48.6875 27.296875 
z
" id="DejaVuSans-112"/>
      </defs>
      <use xlink:href="#DejaVuSans-80"/>
      <use x="58.552734" xlink:href="#DejaVuSans-114"/>
      <use x="97.416016" xlink:href="#DejaVuSans-111"/>
      <use x="158.597656" xlink:href="#DejaVuSans-112"/>
      <use x="222.074219" xlink:href="#DejaVuSans-111"/>
      <use x="283.255859" xlink:href="#DejaVuSans-114"/>
      <use x="324.369141" xlink:href="#DejaVuSans-116"/>
      <use x="363.578125" xlink:href="#DejaVuSans-105"/>
      <use x="391.361328" xlink:href="#DejaVuSans-111"/>
      <use x="452.542969" xlink:href="#DejaVuSans-110"/>
     </g>
    </g>
   </g>
   <g id="line2d_15">
    <path clip-path="url(#p80d65d83de)" d="M 933.954545 69.12 
L 933.954545 69.173589 
L 849.409091 69.173589 
L 849.409091 69.274068 
L 849.409091 69.575505 
L 818.665289 69.575505 
L 818.665289 69.64919 
L 818.665289 69.722874 
L 781.772727 69.776463 
L 781.772727 69.809956 
L 781.772727 69.876942 
L 778.31405 69.876942 
L 778.31405 71.055896 
L 764.863636 71.136279 
L 764.863636 71.136279 
L 764.863636 71.216663 
L 741.190909 71.216663 
L 741.190909 71.384128 
L 726.433884 71.444415 
L 726.433884 71.5181 
L 719.339161 71.5181 
L 719.339161 71.692264 
L 714.136364 71.692264 
L 714.136364 71.792743 
L 714.136364 71.893222 
L 710.157754 71.893222 
L 710.157754 72.007098 
L 705.681818 72.007098 
L 705.681818 72.275042 
L 704.474026 72.275042 
L 704.474026 72.415713 
L 696.681818 72.415713 
L 696.681818 72.623369 
L 680.318182 72.623369 
L 680.318182 72.676958 
L 680.318182 76.749709 
L 679.465623 76.749709 
L 679.465623 84.721046 
L 666.898268 84.721046 
L 666.898268 85.987082 
L 664.789425 85.987082 
L 664.789425 87.300008 
L 663.954545 87.300008 
L 663.954545 87.507665 
L 662.826019 87.507665 
L 662.826019 87.701924 
L 661.530303 87.701924 
L 661.530303 87.882787 
L 660.128223 87.882787 
L 660.128223 90.575625 
L 659.792696 90.575625 
L 659.792696 92.893342 
L 658.262846 92.893342 
L 658.262846 93.04741 
L 657.260331 93.04741 
L 657.260331 93.342148 
L 656.162338 93.342148 
L 656.162338 93.904831 
L 654.304196 93.904831 
L 654.304196 94.427322 
L 653.619617 94.427322 
L 653.619617 94.554595 
L 650.47861 94.554595 
L 650.47861 94.668472 
L 647.939072 94.668472 
L 647.939072 95.29814 
L 643.200665 95.29814 
L 643.200665 95.572783 
L 640.498138 95.659865 
L 640.498138 97.622555 
L 635.984319 97.622555 
L 635.984319 104.903937 
L 635.820574 104.903937 
L 635.820574 105.667578 
L 634.202479 105.667578 
L 634.202479 105.741262 
L 634.202479 106.625478 
L 626.352998 106.625478 
L 626.352998 111.033158 
L 625.967532 111.033158 
L 625.967532 112.158524 
L 625.688811 112.158524 
L 625.688811 112.593933 
L 625.34002 112.593933 
L 625.34002 118.589183 
L 623.954545 118.589183 
L 623.954545 119.071482 
L 621.136364 119.071482 
L 621.136364 129.521303 
L 611.767813 129.521303 
L 611.767813 130.264847 
L 611.301484 130.264847 
L 611.301484 132.234237 
L 609.3 132.234237 
L 609.3 132.904097 
L 607.850649 132.904097 
L 607.850649 133.60745 
L 605.404488 133.60745 
L 605.404488 135.195019 
L 604.980648 135.195019 
L 604.980648 135.871578 
L 602.276224 135.871578 
L 602.276224 136.045742 
L 600.222488 136.045742 
L 600.222488 136.173015 
L 599.448617 136.173015 
L 599.448617 137.097422 
L 598.645025 137.097422 
L 598.645025 141.632377 
L 595.772727 141.632377 
L 595.772727 145.892688 
L 593.710643 145.892688 
L 593.710643 146.441973 
L 590.799465 146.441973 
L 590.799465 146.55585 
L 586.864577 146.55585 
L 586.864577 156.918588 
L 578.863636 156.918588 
L 578.863636 157.019067 
L 578.863636 158.191323 
L 577.655844 158.191323 
L 577.655844 161.567419 
L 576.568148 161.567419 
L 576.568148 184.068026 
L 570.041502 184.068026 
L 570.041502 184.222094 
L 569.557736 184.222094 
L 569.557736 190.940793 
L 567.590909 190.940793 
L 567.590909 191.061368 
L 566.619122 191.061368 
L 566.619122 191.838405 
L 566.235631 191.838405 
L 566.235631 201.31023 
L 565.772727 201.31023 
L 565.772727 201.725543 
L 564.195509 201.725543 
L 564.195509 202.281527 
L 563.645455 202.281527 
L 563.645455 203.621248 
L 563.255245 203.621248 
L 563.255245 203.70833 
L 563.255245 204.753312 
L 559.835352 204.753312 
L 559.778128 213.749536 
L 558.415433 213.749536 
L 558.415433 214.613655 
L 557.873041 214.613655 
L 557.873041 214.807915 
L 557.504785 214.807915 
L 557.504785 216.080649 
L 555.434046 216.080649 
L 555.434046 219.155308 
L 553.5 219.155308 
L 553.5 219.208897 
L 553.5 219.369663 
L 549.722588 219.369663 
L 549.722588 267.271373 
L 546.825359 267.271373 
L 546.825359 267.52592 
L 545.401435 267.52592 
L 545.401435 277.071429 
L 544.407376 277.071429 
L 544.407376 278.846559 
L 544.220621 278.846559 
L 544.220621 279.121201 
L 543.744755 279.121201 
L 543.744755 280.166184 
L 543.131218 280.166184 
L 543.131218 281.231261 
L 542.752696 281.231261 
L 542.752696 282.021697 
L 541.227273 282.095381 
L 541.19275 284.513577 
L 539.409091 284.513577 
L 539.409091 286.925074 
L 538.281818 286.925074 
L 538.281818 287.594934 
L 538.135048 287.594934 
L 538.135048 291.299262 
L 536.958498 291.299262 
L 536.958498 292.531805 
L 535.383117 292.531805 
L 535.383117 293.000707 
L 531.120321 293.000707 
L 531.120321 293.570088 
L 530.015152 293.570088 
L 530.015152 293.931813 
L 529.721591 293.931813 
L 529.721591 294.789234 
L 529.344156 294.789234 
L 529.344156 298.16533 
L 526.95666 298.16533 
L 526.95666 298.453369 
L 526.775862 298.453369 
L 526.775862 300.201705 
L 525.93083 300.201705 
L 525.93083 300.509841 
L 525.030612 300.509841 
L 525.030612 301.166304 
L 521.795455 301.166304 
L 521.795455 301.595014 
L 519.898601 301.595014 
L 519.898601 302.378751 
L 518.422631 302.378751 
L 518.422631 302.693585 
L 517.868305 302.693585 
L 517.868305 315.997011 
L 516.200535 315.997011 
L 516.200535 316.908021 
L 515.092208 316.908021 
L 515.092208 318.080276 
L 511.227273 318.080276 
L 511.227273 318.120468 
L 511.227273 319.587462 
L 495.855372 319.587462 
L 495.855372 319.734831 
L 495.588807 319.734831 
L 495.588807 320.893689 
L 492.439394 320.893689 
L 492.439394 321.617138 
L 492.228294 321.617138 
L 492.228294 322.213314 
L 491.902597 322.213314 
L 491.902597 322.916667 
L 489.337036 322.916667 
L 489.337036 333.058352 
L 485.213287 333.058352 
L 485.213287 333.667925 
L 482.127907 333.667925 
L 482.127907 350.950321 
L 481.820158 350.950321 
L 481.820158 351.104388 
L 477.409091 351.104388 
L 477.409091 351.171374 
L 477.409091 351.23836 
L 475.642103 351.23836 
L 475.642103 360.469035 
L 474.468379 360.469035 
L 474.468379 361.393442 
L 472.515133 361.393442 
L 472.515133 388.194553 
L 471.197588 388.194553 
L 471.197588 389.83571 
L 467.590909 389.83571 
L 467.590909 390.043367 
L 466.729665 390.043367 
L 466.729665 390.297914 
L 462.915584 390.297914 
L 462.915584 390.344804 
L 462.915584 393.486449 
L 462.105891 393.486449 
L 462.105891 394.685499 
L 457.504982 394.685499 
L 457.504982 411.552581 
L 457.259148 411.552581 
L 457.240416 479.342443 
L 454.863636 479.342443 
L 454.863636 479.824742 
L 451.766733 479.824742 
L 451.766733 480.434315 
L 449.739669 480.434315 
L 449.739669 480.581684 
L 445.240576 480.581684 
L 445.240576 482.504183 
L 437.299154 482.604662 
L 437.299154 484.044862 
L 436.075758 484.044862 
L 436.075758 484.225724 
L 434.863636 484.225724 
L 434.813671 493.416207 
L 426.681818 493.416207 
L 426.681818 493.523385 
L 426.681818 493.818124 
L 423.005929 493.818124 
L 423.005929 494.742531 
L 417.935737 494.742531 
L 417.935737 494.93679 
L 398.5 494.93679 
L 398.5 495.17794 
L 375.954545 495.17794 
L 375.954545 495.244926 
L 375.954545 495.412391 
L 357.508264 495.412391 
L 357.508264 495.486076 
L 357.508264 495.55976 
L 329.129371 495.599952 
L 329.129371 495.687034 
L 325.227273 495.687034 
L 325.227273 495.821006 
L 311.392562 495.867896 
L 311.392562 496.015265 
L 302.256432 496.115744 
L 302.256432 501.79616 
L 299.863636 501.79616 
L 299.863636 501.903337 
L 299.863636 501.956926 
L 285.772727 502.017214 
L 285.772727 502.017214 
L 285.772727 502.077501 
L 257.590909 502.144487 
L 257.590909 502.22487 
L 173.045455 502.22487 
L 173.045455 502.332048 
L 173.045455 504 
L 173.045455 504 
" style="fill:none;stroke:#8172b3;stroke-linecap:round;stroke-width:2.25;"/>
   </g>
   <g id="line2d_16">
    <path clip-path="url(#p80d65d83de)" d="M 849.409091 69.12 
L 849.409091 69.240575 
L 781.772727 69.240575 
L 781.772727 69.274068 
L 781.772727 69.441533 
L 743.727273 69.521916 
L 743.727273 70.70087 
L 741.190909 70.70087 
L 741.190909 70.868335 
L 736.681818 70.868335 
L 736.681818 70.928623 
L 736.681818 70.98891 
L 726.433884 70.98891 
L 726.433884 71.062595 
L 726.433884 71.136279 
L 719.339161 71.136279 
L 719.339161 71.310443 
L 710.157754 71.310443 
L 710.157754 71.424319 
L 680.318182 71.424319 
L 680.318182 71.531497 
L 680.318182 72.884615 
L 641.297203 72.985094 
L 641.297203 73.072176 
L 634.202479 73.072176 
L 634.202479 73.14586 
L 634.202479 73.219545 
L 631.227273 73.219545 
L 631.227273 73.427202 
L 621.491597 73.427202 
L 621.491597 81.398539 
L 618.203154 81.398539 
L 618.203154 82.711465 
L 615.834361 82.711465 
L 615.834361 84.292336 
L 610.08042 84.292336 
L 610.08042 84.727745 
L 607.850649 84.727745 
L 607.850649 84.774635 
L 607.850649 84.962196 
L 604.766925 84.962196 
L 604.766925 85.591865 
L 602.276224 85.591865 
L 602.276224 85.766028 
L 600.222488 85.766028 
L 600.222488 85.893302 
L 597.0346 85.893302 
L 597.0346 88.58614 
L 595.772727 88.58614 
L 595.772727 88.666523 
L 595.772727 88.746907 
L 595.284025 88.746907 
L 595.284025 91.064623 
L 593.710643 91.064623 
L 593.710643 91.339266 
L 590.799465 91.339266 
L 590.799465 91.453142 
L 578.863636 91.453142 
L 578.863636 91.553621 
L 578.863636 91.955537 
L 565.772727 91.955537 
L 565.772727 92.163194 
L 565.028926 92.163194 
L 565.028926 92.457933 
L 564.80063 92.457933 
L 564.80063 93.134491 
L 561.594778 93.134491 
L 561.594778 97.542172 
L 560.858052 97.542172 
L 560.858052 99.504863 
L 560.003497 99.504863 
L 560.003497 109.954683 
L 559.538961 109.954683 
L 559.538961 110.517366 
L 557.873041 110.517366 
L 557.873041 110.711626 
L 556.927518 110.711626 
L 556.927518 110.959474 
L 555.72488 110.959474 
L 555.72488 111.723115 
L 553.5 111.723115 
L 553.5 111.830292 
L 553.5 112.36618 
L 550.355748 112.36618 
L 550.355748 113.176711 
L 550.116626 113.176711 
L 550.116626 120.458093 
L 546.825359 120.458093 
L 546.825359 120.585366 
L 544.220621 120.585366 
L 544.220621 120.860009 
L 543.435065 120.860009 
L 543.435065 122.126045 
L 541.455815 122.19973 
L 541.455815 128.194979 
L 538.281818 128.194979 
L 538.281818 128.864839 
L 535.383117 128.864839 
L 535.383117 130.271546 
L 531.120321 130.271546 
L 531.120321 130.385422 
L 529.507371 130.385422 
L 529.507371 130.633271 
L 528.136364 130.633271 
L 528.136364 131.303131 
L 526.95666 131.303131 
L 526.95666 132.167251 
L 525.93083 132.167251 
L 525.93083 132.321319 
L 524.234266 132.321319 
L 524.234266 132.495482 
L 519.97147 132.495482 
L 519.97147 142.858221 
L 514.678108 142.858221 
L 514.678108 144.82761 
L 511.227273 144.82761 
L 511.227273 146.817095 
L 509.878591 146.817095 
L 509.878591 153.535794 
L 506.94649 153.535794 
L 506.94649 155.123363 
L 505.732443 155.123363 
L 505.732443 159.658317 
L 502.087224 159.658317 
L 502.087224 159.906165 
L 500.318182 159.906165 
L 500.318182 160.113822 
L 499.508101 160.113822 
L 499.508101 161.46694 
L 499.149351 161.46694 
L 499.149351 161.654501 
L 494.730599 161.654501 
L 494.730599 162.203786 
L 493.42823 162.203786 
L 493.42823 162.33106 
L 491.165639 162.33106 
L 491.097403 166.497591 
L 490.854874 166.497591 
L 490.854874 167.053575 
L 490.489708 167.053575 
L 490.487334 193.814493 
L 489.82336 193.814493 
L 489.82336 195.402062 
L 487.904389 195.402062 
L 487.904389 195.596322 
L 487.554545 195.596322 
L 487.554545 196.936042 
L 484.017241 197.023124 
L 484.017241 198.771459 
L 481.820158 198.771459 
L 481.820158 199.233663 
L 479.158307 199.233663 
L 479.158307 200.010701 
L 478.072193 200.010701 
L 478.072193 203.08536 
L 477.409091 203.08536 
L 477.409091 204.09015 
L 476.541958 204.09015 
L 476.541958 204.873887 
L 474.590909 204.873887 
L 474.590909 207.285384 
L 474.39559 207.285384 
L 474.39559 216.757208 
L 474.238636 216.757208 
L 474.238636 217.614629 
L 473.651515 217.614629 
L 473.651515 217.976354 
L 472.069378 217.976354 
L 472.069378 219.249089 
L 471.441176 219.249089 
L 471.441176 219.81847 
L 470.918134 219.81847 
L 470.918134 227.461576 
L 470.79249 227.461576 
L 470.79249 228.694119 
L 469.933493 228.694119 
L 469.933493 238.239628 
L 468.419448 238.239628 
L 468.419448 241.943955 
L 467.590909 241.943955 
L 467.590909 242.774582 
L 466.729665 242.774582 
L 466.729665 243.029129 
L 466.56175 243.029129 
L 466.56175 244.094207 
L 466.442182 244.094207 
L 466.442182 291.995916 
L 462.915584 291.995916 
L 462.915584 292.042806 
L 462.915584 292.371038 
L 460.180961 292.371038 
L 460.180961 294.146168 
L 459.199301 294.146168 
L 459.199301 294.668659 
L 454.863636 294.668659 
L 454.863636 294.789234 
L 454.523071 294.789234 
L 454.523071 308.092659 
L 452.56308 308.092659 
L 452.56308 308.749122 
L 446.811688 308.749122 
L 446.811688 312.125218 
L 446.192308 312.125218 
L 446.192308 314.737673 
L 442.534091 314.838152 
L 442.534091 315.266863 
L 439.725974 315.266863 
L 439.725974 316.439118 
L 437.709486 316.439118 
L 437.709486 316.593186 
L 434.863636 316.593186 
L 434.863636 316.800843 
L 429.469031 316.800843 
L 429.469031 317.410416 
L 426.681818 317.410416 
L 426.681818 317.43721 
L 426.681818 318.026687 
L 422.430929 318.026687 
L 422.430929 319.225737 
L 419.351287 319.225737 
L 419.351287 320.384595 
L 419.221925 320.384595 
L 419.221925 321.295605 
L 418.817125 321.295605 
L 418.817125 338.578001 
L 417.743371 338.578001 
L 417.743371 365.379111 
L 417.287879 365.379111 
L 417.287879 366.10256 
L 414.603896 366.10256 
L 414.603896 366.805914 
L 409.08256 366.805914 
L 409.08256 368.447071 
L 405.2908 368.534153 
L 405.2908 370.758089 
L 403.490104 370.758089 
L 403.490104 379.988764 
L 402.136364 379.988764 
L 402.136364 380.196421 
L 400.950593 380.196421 
L 400.950593 381.120828 
L 400.69366 381.120828 
L 400.69366 397.98791 
L 400.212502 397.98791 
L 400.212502 408.129595 
L 398.5 408.129595 
L 398.5 408.49132 
L 396.20814 408.49132 
L 396.20814 474.057245 
L 395.750554 474.057245 
L 395.750554 474.331888 
L 390.448052 474.331888 
L 390.448052 477.332862 
L 386.633971 477.332862 
L 386.633971 477.460135 
L 385.392178 477.460135 
L 385.392178 478.900335 
L 384.409091 478.900335 
L 384.409091 479.221868 
L 383.378049 479.221868 
L 383.378049 480.869724 
L 378.277932 480.869724 
L 378.277932 489.644894 
L 375.954545 489.644894 
L 375.954545 489.745373 
L 375.954545 490.482219 
L 371.543478 490.482219 
L 371.543478 491.406627 
L 369.409091 491.406627 
L 369.409091 491.82194 
L 367.320116 491.82194 
L 367.320116 492.136774 
L 357.508264 492.243952 
L 357.508264 492.68606 
L 355.435649 492.68606 
L 355.435649 493.282235 
L 347.967085 493.282235 
L 347.967085 493.476495 
L 342.136364 493.476495 
L 342.136364 493.556878 
L 342.136364 494.079369 
L 325.227273 494.166451 
L 325.227273 494.300423 
L 323.348485 494.300423 
L 323.348485 494.662148 
L 314.609937 494.755928 
L 314.609937 495.043968 
L 311.392562 495.043968 
L 311.392562 495.191337 
L 306.538278 495.191337 
L 306.538278 495.445884 
L 285.772727 495.553062 
L 285.772727 495.673637 
L 273.542882 495.740623 
L 273.542882 501.421038 
L 257.590909 501.494723 
L 257.590909 501.575106 
L 173.045455 501.675585 
L 173.045455 501.682283 
L 173.045455 504 
L 173.045455 504 
" style="fill:none;stroke:#c44e52;stroke-linecap:round;stroke-width:2.25;"/>
   </g>
   <g id="line2d_17">
    <path clip-path="url(#p80d65d83de)" d="M 849.409091 69.12 
L 849.409091 69.200383 
L 781.772727 69.200383 
L 781.772727 69.267369 
L 781.772727 69.367848 
L 741.190909 69.448232 
L 741.190909 69.615697 
L 737.96281 69.615697 
L 737.96281 70.794651 
L 736.681818 70.854938 
L 736.681818 70.854938 
L 736.681818 70.915226 
L 719.339161 70.98891 
L 719.339161 71.163074 
L 710.157754 71.163074 
L 710.157754 71.27695 
L 680.318182 71.27695 
L 680.318182 71.384128 
L 680.318182 72.603274 
L 634.202479 72.703753 
L 634.202479 72.777437 
L 615.834361 72.777437 
L 615.834361 74.358307 
L 614.671123 74.358307 
L 614.671123 82.329645 
L 613.026902 82.329645 
L 613.026902 83.642571 
L 607.850649 83.642571 
L 607.850649 83.877022 
L 604.766925 83.877022 
L 604.766925 84.506691 
L 600.222488 84.506691 
L 600.222488 84.633964 
L 598.5 84.633964 
L 598.5 84.841621 
L 595.772727 84.841621 
L 595.772727 84.922004 
L 595.772727 85.002388 
L 590.799465 85.002388 
L 590.799465 85.116264 
L 589.463365 85.116264 
L 589.463365 87.809102 
L 586.487388 87.809102 
L 586.487388 90.126819 
L 578.863636 90.126819 
L 578.863636 90.227298 
L 578.863636 91.03113 
L 568.965632 91.03113 
L 568.965632 91.305773 
L 565.772727 91.305773 
L 565.772727 91.51343 
L 565.028926 91.51343 
L 565.028926 91.808168 
L 563.255245 91.808168 
L 563.255245 92.069414 
L 559.538961 92.069414 
L 559.538961 92.632096 
L 556.927518 92.632096 
L 556.927518 92.879945 
L 553.932827 92.879945 
L 553.932827 94.842635 
L 553.5 94.896224 
L 553.5 94.949813 
L 553.5 95.05699 
L 546.825359 95.05699 
L 546.825359 95.820631 
L 546.346154 95.820631 
L 546.346154 106.270452 
L 544.710621 106.270452 
L 544.710621 106.947011 
L 544.220621 106.947011 
L 544.220621 107.221653 
L 542.64987 107.221653 
L 542.64987 114.503035 
L 541.971074 114.503035 
L 541.971074 115.53462 
L 538.281818 115.53462 
L 538.281818 116.20448 
L 538.0671 116.20448 
L 538.0671 117.470516 
L 535.383117 117.470516 
L 535.383117 117.751857 
L 533.841254 117.751857 
L 533.841254 122.159538 
L 531.120321 122.159538 
L 531.120321 122.273414 
L 529.507371 122.273414 
L 529.507371 122.521262 
L 529.344156 122.521262 
L 529.344156 123.646628 
L 528.136364 123.646628 
L 528.136364 124.316488 
L 525.93083 124.316488 
L 525.93083 124.470556 
L 525.318182 124.470556 
L 525.318182 124.952855 
L 524.234266 124.952855 
L 524.234266 125.127019 
L 523.31869 125.127019 
L 523.31869 131.122269 
L 522.888715 131.122269 
L 522.888715 131.316528 
L 515.380766 131.316528 
L 515.380766 141.679267 
L 511.227273 141.679267 
L 511.227273 141.779746 
L 511.227273 143.467794 
L 502.665708 143.467794 
L 502.665708 145.055363 
L 502.087224 145.055363 
L 502.087224 145.303211 
L 499.149351 145.303211 
L 499.149351 145.490772 
L 496.523715 145.490772 
L 496.523715 146.415179 
L 494.730599 146.415179 
L 494.730599 146.689822 
L 493.42823 146.689822 
L 493.42823 146.944369 
L 492.682906 146.944369 
L 492.682906 153.663067 
L 491.165639 153.663067 
L 491.165639 154.453503 
L 490.522263 154.453503 
L 490.522263 156.422892 
L 487.749362 156.422892 
L 487.749362 160.957846 
L 482.513722 161.044928 
L 482.513722 165.305239 
L 481.820158 165.305239 
L 481.820158 165.613375 
L 477.409091 165.613375 
L 477.409091 165.680361 
L 477.409091 167.288026 
L 476.981013 167.288026 
L 476.981013 168.875595 
L 476.593588 168.875595 
L 476.593588 191.376202 
L 474.993506 191.376202 
L 474.993506 194.752298 
L 474.238636 194.752298 
L 474.238636 195.609719 
L 471.772727 195.609719 
L 471.772727 198.021216 
L 471.441176 198.021216 
L 471.441176 201.665256 
L 470.412226 201.665256 
L 470.412226 202.442294 
L 469.985588 202.442294 
L 469.985588 202.716937 
L 469.373087 202.716937 
L 469.373087 204.070054 
L 467.590909 204.070054 
L 467.590909 204.277711 
L 466.56175 204.277711 
L 466.56175 205.342789 
L 466.407996 205.342789 
L 466.407996 205.898773 
L 462.915584 205.898773 
L 462.915584 205.992553 
L 462.915584 206.273895 
L 460.694357 206.273895 
L 460.694357 208.02223 
L 459.764822 208.02223 
L 459.764822 209.254773 
L 459.328083 209.254773 
L 459.328083 218.726598 
L 457.411721 218.726598 
L 457.411721 222.430925 
L 456.050239 222.430925 
L 456.050239 223.70366 
L 454.913035 223.70366 
L 454.808463 279.36905 
L 452.846411 279.36905 
L 452.846411 288.914559 
L 451.227273 288.914559 
L 451.227273 289.745186 
L 450.527972 289.745186 
L 450.527972 290.528922 
L 446.972727 290.528922 
L 446.972727 291.198783 
L 444.867067 291.198783 
L 444.867067 292.973912 
L 443.795249 292.973912 
L 443.795249 306.277338 
L 442.210575 306.377817 
L 442.210575 307.03428 
L 440.0311 307.03428 
L 440.0311 307.288827 
L 439.725974 307.288827 
L 439.688811 309.506064 
L 438.75974 309.506064 
L 438.75974 312.88216 
L 437.709486 312.88216 
L 437.709486 313.036228 
L 434.863636 313.036228 
L 434.863636 313.243885 
L 433.185315 313.243885 
L 433.185315 315.333849 
L 429.469031 315.333849 
L 429.469031 315.943422 
L 426.681818 315.943422 
L 426.681818 316.050599 
L 426.681818 316.774048 
L 419.351287 316.774048 
L 419.351287 317.932907 
L 419.221925 317.932907 
L 419.221925 318.843917 
L 417.935737 318.843917 
L 417.935737 319.038176 
L 417.287879 319.038176 
L 417.287879 320.12335 
L 410.952431 320.12335 
L 410.952431 337.405745 
L 408.107598 337.405745 
L 408.107598 364.206856 
L 405.427374 364.293938 
L 405.427374 365.492987 
L 404.941558 365.492987 
L 404.941558 367.134145 
L 402.136364 367.134145 
L 402.136364 367.341802 
L 398.5 367.341802 
L 398.5 367.402089 
L 398.5 367.763814 
L 396.12322 367.763814 
L 396.12322 369.98775 
L 395.39141 369.98775 
L 395.39141 379.218425 
L 395.279221 379.218425 
L 395.279221 379.921778 
L 393.598814 379.921778 
L 393.598814 381.000253 
L 391.426565 381.000253 
L 391.426565 397.867335 
L 390.448052 397.867335 
L 390.448052 398.054896 
L 388.183442 398.054896 
L 388.183442 401.05587 
L 386.633971 401.05587 
L 386.568507 466.749069 
L 386.140207 466.749069 
L 386.140207 476.890754 
L 385.392178 476.890754 
L 385.392178 478.330954 
L 375.954545 478.330954 
L 375.954545 478.431433 
L 375.954545 478.933828 
L 371.543478 478.933828 
L 371.543478 479.858235 
L 371.005543 479.858235 
L 371.005543 480.132878 
L 367.320116 480.132878 
L 367.320116 480.447712 
L 365.886537 480.447712 
L 365.886537 489.222882 
L 357.508264 489.33006 
L 357.508264 489.772167 
L 354.508869 489.772167 
L 354.508869 491.420024 
L 353.045455 491.420024 
L 353.045455 491.835337 
L 347.967085 491.835337 
L 347.967085 492.029597 
L 342.136364 492.029597 
L 342.136364 493.11477 
L 332.636874 493.11477 
L 332.636874 493.710946 
L 325.227273 493.798028 
L 325.227273 493.932 
L 323.348485 493.932 
L 323.348485 494.293724 
L 314.609937 494.387505 
L 314.609937 494.675545 
L 311.392562 494.675545 
L 311.392562 494.822914 
L 306.538278 494.923393 
L 306.538278 495.17794 
L 285.772727 495.285118 
L 285.772727 495.405692 
L 274.5 495.405692 
L 274.5 495.472678 
L 274.5 495.673637 
L 269.953688 495.673637 
L 269.953688 501.354052 
L 257.590909 501.427736 
L 257.590909 501.50812 
L 173.045455 501.608599 
L 173.045455 501.615297 
L 173.045455 504 
L 173.045455 504 
" style="fill:none;stroke:#55a868;stroke-linecap:round;stroke-width:2.25;"/>
   </g>
   <g id="line2d_18">
    <path clip-path="url(#p80d65d83de)" d="M 933.954545 69.12 
L 933.954545 69.146794 
L 719.339161 69.200383 
L 719.339161 69.374547 
L 710.157754 69.374547 
L 710.157754 69.488423 
L 686.082645 69.488423 
L 686.082645 70.667377 
L 680.318182 70.667377 
L 680.318182 70.761158 
L 680.318182 71.498004 
L 634.202479 71.598483 
L 634.202479 71.672168 
L 623.954545 71.672168 
L 623.954545 71.732455 
L 623.954545 71.792743 
L 578.863636 71.792743 
L 578.863636 72.328631 
L 550.911874 72.38222 
L 550.911874 73.695146 
L 544.220621 73.695146 
L 544.220621 73.969789 
L 542.203591 73.969789 
L 542.203591 81.941126 
L 541.971074 81.941126 
L 541.971074 82.014811 
L 541.971074 82.383234 
L 536.464722 82.383234 
L 536.464722 85.076072 
L 532.038462 85.076072 
L 532.038462 85.511481 
L 531.120321 85.511481 
L 531.120321 85.739234 
L 529.855932 85.739234 
L 529.855932 87.320104 
L 529.215667 87.320104 
L 529.215667 87.949773 
L 511.227273 87.949773 
L 511.227273 88.030156 
L 511.227273 88.813893 
L 507.845455 88.813893 
L 507.845455 89.483753 
L 500.047708 89.483753 
L 500.047708 90.294284 
L 499.149351 90.294284 
L 499.149351 90.481845 
L 493.42823 90.481845 
L 493.42823 90.736392 
L 487.071429 90.736392 
L 487.071429 91.299074 
L 485.213287 91.299074 
L 485.213287 91.386156 
L 485.213287 91.473238 
L 484.440594 91.473238 
L 484.440594 92.149797 
L 483.045455 92.149797 
L 483.045455 92.632096 
L 481.820158 92.632096 
L 481.820158 92.786164 
L 477.995533 92.786164 
L 477.995533 95.103881 
L 477.755352 95.103881 
L 477.755352 97.066571 
L 477.409091 97.066571 
L 477.409091 97.133557 
L 477.409091 97.803418 
L 474.667076 97.803418 
L 474.667076 98.051266 
L 472.166759 98.051266 
L 472.166759 102.458947 
L 469.985588 102.458947 
L 469.985588 103.008232 
L 468.28355 103.008232 
L 468.28355 104.274268 
L 467.590909 104.274268 
L 467.506288 114.844664 
L 462.915584 114.844664 
L 462.915584 114.891554 
L 462.915584 115.407346 
L 459.582211 115.407346 
L 459.582211 122.688728 
L 457.830144 122.688728 
L 457.830144 123.452368 
L 448.309725 123.526053 
L 448.309725 124.390173 
L 448.176425 124.390173 
L 448.176425 125.180608 
L 447.569519 125.180608 
L 447.569519 125.749989 
L 447.246929 125.749989 
L 447.246929 126.245686 
L 445.541958 126.245686 
L 445.541958 136.695506 
L 445.240576 136.695506 
L 445.240576 136.970149 
L 440.0311 136.970149 
L 440.0311 137.097422 
L 438.286096 137.097422 
L 438.286096 140.172081 
L 437.709486 140.172081 
L 437.709486 141.558692 
L 433.766633 141.558692 
L 433.766633 147.553942 
L 432.720779 147.553942 
L 432.720779 148.679307 
L 429.892405 148.679307 
L 429.892405 150.266876 
L 426.681818 150.266876 
L 426.681818 150.29367 
L 426.681818 151.231475 
L 423.900163 151.231475 
L 423.863636 160.36167 
L 418.884679 160.36167 
L 418.884679 164.065998 
L 417.935737 164.065998 
L 417.935737 164.260257 
L 417.514239 164.260257 
L 417.514239 164.816241 
L 416.536364 164.816241 
L 416.536364 166.155962 
L 411.32127 166.155962 
L 411.32127 170.690916 
L 411.153061 170.690916 
L 411.153061 171.347379 
L 407.171329 171.347379 
L 407.171329 172.131116 
L 404.080558 172.131116 
L 404.080558 173.484233 
L 403.009091 173.484233 
L 403.009091 183.029743 
L 402.136364 183.029743 
L 402.136364 183.445056 
L 400.950593 183.445056 
L 400.950593 184.369463 
L 400.667832 184.369463 
L 400.667832 185.414445 
L 399.144156 185.414445 
L 399.144156 186.586701 
L 398.5 186.586701 
L 398.5 188.696761 
L 397.459647 188.696761 
L 397.459647 211.197368 
L 393.954545 211.197368 
L 393.954545 212.027995 
L 393.802373 212.027995 
L 393.802373 259.929704 
L 393.598814 259.929704 
L 393.598814 260.23784 
L 392.710382 260.23784 
L 392.710382 273.541265 
L 390.448052 273.541265 
L 390.448052 273.822607 
L 389.992281 273.822607 
L 389.992281 274.887684 
L 389.382353 274.887684 
L 389.382353 275.798694 
L 389.106061 275.798694 
L 389.106061 276.522144 
L 387.08458 276.522144 
L 387.08458 278.109712 
L 386.633971 278.109712 
L 386.633971 278.236986 
L 386.422078 278.236986 
L 386.422078 281.613082 
L 382.951411 281.613082 
L 382.951411 281.807341 
L 381.120548 281.807341 
L 381.120548 291.279166 
L 380.383117 291.279166 
L 380.383117 294.655262 
L 379.783019 294.655262 
L 379.783019 296.430391 
L 379.125 296.430391 
L 379.125 297.287813 
L 378.300315 297.287813 
L 378.300315 298.446671 
L 375.954545 298.446671 
L 375.954545 298.480164 
L 375.954545 299.585433 
L 373.724775 299.585433 
L 373.724775 300.195006 
L 369.743043 300.195006 
L 369.743043 302.164395 
L 369.552506 302.164395 
L 369.552506 309.807501 
L 369.409091 309.807501 
L 369.409091 310.015158 
L 368.15035 310.015158 
L 368.15035 311.408468 
L 366.064322 311.408468 
L 366.064322 315.668779 
L 365.752412 315.668779 
L 365.752412 316.867829 
L 365.459248 316.867829 
L 365.459248 317.644867 
L 365.27512 317.644867 
L 365.27512 318.917601 
L 360.924242 318.917601 
L 360.924242 319.279326 
L 359.935407 319.279326 
L 359.935407 319.533873 
L 355.36442 319.607557 
L 355.36442 346.408668 
L 355.143357 346.408668 
L 355.143357 346.931159 
L 354.214286 346.931159 
L 354.214286 347.11872 
L 352.360465 347.11872 
L 352.360465 348.558919 
L 351.952962 348.558919 
L 351.949675 360.790568 
L 347.91151 360.790568 
L 347.91151 377.65765 
L 347.420455 377.65765 
L 347.420455 378.086361 
L 346.967532 378.086361 
L 346.967532 378.789714 
L 346.260532 378.789714 
L 346.260532 379.064357 
L 345.675476 379.064357 
L 345.675476 396.346753 
L 342.826531 396.346753 
L 342.826531 397.98791 
L 342.136364 397.98791 
L 342.136364 398.068293 
L 342.136364 398.751551 
L 338.061884 398.751551 
L 338.061884 400.975487 
L 336.681818 400.975487 
L 336.681818 401.183144 
L 334.784585 401.183144 
L 334.784585 402.107551 
L 331.42566 402.107551 
L 331.42566 467.673476 
L 329.129371 467.673476 
L 329.129371 467.760558 
L 329.129371 468.370131 
L 327.17059 468.370131 
L 327.17059 478.511816 
L 323.348485 478.511816 
L 323.291117 487.64871 
L 320.318182 487.64871 
L 320.318182 488.064024 
L 320.081028 488.064024 
L 320.081028 488.988431 
L 317.980519 488.988431 
L 317.980519 489.316662 
L 314.609937 489.316662 
L 314.609937 489.604702 
L 312.982759 489.604702 
L 312.982759 489.798962 
L 311.392562 489.798962 
L 311.392562 490.0937 
L 308.318182 490.0937 
L 308.318182 490.194179 
L 308.318182 490.395137 
L 305.37747 490.395137 
L 305.37747 490.549205 
L 305.018847 490.549205 
L 305.018847 492.197062 
L 302.561896 492.197062 
L 302.561896 492.511896 
L 299.863636 492.511896 
L 299.863636 492.619074 
L 299.863636 492.672662 
L 285.772727 492.73295 
L 285.772727 492.73295 
L 285.772727 492.853525 
L 274.5 492.853525 
L 274.5 492.920511 
L 274.5 493.255441 
L 265.27686 493.255441 
L 265.27686 493.329126 
L 265.27686 493.550179 
L 264.240552 493.550179 
L 264.240552 494.146355 
L 257.590909 494.146355 
L 257.590909 494.226738 
L 257.590909 494.467888 
L 254.400515 494.467888 
L 254.400515 500.148303 
L 253.141148 500.148303 
L 253.141148 500.40285 
L 240.681818 500.40285 
L 240.681818 500.503329 
L 240.681818 500.603808 
L 236.454545 500.603808 
L 236.454545 501.032519 
L 173.045455 501.032519 
L 173.045455 501.132998 
L 173.045455 504 
L 173.045455 504 
" style="fill:none;stroke:#dd8452;stroke-linecap:round;stroke-width:2.25;"/>
   </g>
   <g id="line2d_19">
    <path clip-path="url(#p80d65d83de)" d="M 680.318182 69.12 
L 680.318182 69.21378 
L 650.47861 69.21378 
L 650.47861 69.327657 
L 641.297203 69.327657 
L 641.297203 69.50182 
L 511.227273 69.535313 
L 511.227273 69.595601 
L 511.227273 69.756367 
L 375.954545 69.856846 
L 375.954545 69.890339 
L 349.123591 69.964024 
L 349.123591 70.774555 
L 342.136364 70.774555 
L 342.136364 70.854938 
L 342.136364 70.975513 
L 285.772727 71.029102 
L 285.772727 71.089389 
L 281.746753 71.089389 
L 281.746753 71.27695 
L 257.590909 71.343936 
L 257.590909 71.424319 
L 251.087413 71.424319 
L 251.087413 71.511401 
L 251.087413 71.598483 
L 232.724599 71.698962 
L 232.724599 71.812838 
L 227.885749 71.812838 
L 227.885749 72.060687 
L 217.156126 72.060687 
L 217.156126 72.368822 
L 205.772727 72.368822 
L 205.772727 72.576479 
L 204.785424 72.576479 
L 204.785424 78.571729 
L 201.227273 78.571729 
L 201.227273 79.054028 
L 200.465602 79.054028 
L 200.465602 79.301876 
L 197.492333 79.301876 
L 197.492333 79.85786 
L 196.639535 79.85786 
L 196.639535 80.1459 
L 194.631528 80.1459 
L 194.631528 80.460735 
L 194.181818 80.460735 
L 194.181818 80.782268 
L 192.980383 80.782268 
L 192.980383 90.327777 
L 189.529945 90.327777 
L 189.529945 94.862731 
L 184.444842 94.862731 
L 184.368506 99.658931 
L 184.194306 99.658931 
L 184.194306 100.268504 
L 183.838491 100.268504 
L 183.838491 100.898172 
L 182.707792 100.898172 
L 182.707792 101.601526 
L 182.439394 101.601526 
L 182.439394 102.324975 
L 181.944976 102.324975 
L 181.944976 103.088615 
L 181.643297 103.088615 
L 181.643297 103.879051 
L 181.097403 103.879051 
L 181.097403 107.255146 
L 179.084416 107.255146 
L 179.084416 108.380512 
L 178.842857 108.380512 
L 178.842857 109.552767 
L 178.559289 109.552767 
L 178.549318 114.489638 
L 177.764271 114.489638 
L 177.764271 115.929837 
L 177.169623 115.929837 
L 177.071429 127.672488 
L 176.873928 127.672488 
L 176.873928 129.447618 
L 175.977667 129.447618 
L 175.977667 131.765334 
L 175.462958 131.765334 
L 175.462958 148.632417 
L 175.255793 148.632417 
L 175.254189 160.93775 
L 175.074038 160.93775 
L 175.074038 187.73886 
L 174.823799 187.73886 
L 174.823799 195.381966 
L 174.225159 195.381966 
L 174.225159 212.664362 
L 174.067152 212.664362 
L 174.067152 225.967787 
L 173.898014 225.967787 
L 173.819917 308.28022 
L 173.762955 308.28022 
L 173.695804 396.607998 
L 173.045455 396.607998 
L 173.045455 396.701778 
L 173.045455 504 
L 173.045455 504 
" style="fill:none;stroke:#4c72b0;stroke-linecap:round;stroke-width:2.25;"/>
   </g>
   <g id="line2d_20">
    <path clip-path="url(#p80d65d83de)" d="M 223.772727 504 
L 223.772727 69.12 
" style="fill:none;stroke:#ff0000;stroke-dasharray:11.1,4.8;stroke-dashoffset:0;stroke-width:3;"/>
   </g>
   <g id="patch_3">
    <path d="M 135 504 
L 135 69.12 
" style="fill:none;stroke:#cccccc;stroke-linecap:square;stroke-linejoin:miter;stroke-width:1.875;"/>
   </g>
   <g id="patch_4">
    <path d="M 972 504 
L 972 69.12 
" style="fill:none;stroke:#cccccc;stroke-linecap:square;stroke-linejoin:miter;stroke-width:1.875;"/>
   </g>
   <g id="patch_5">
    <path d="M 135 504 
L 972 504 
" style="fill:none;stroke:#cccccc;stroke-linecap:square;stroke-linejoin:miter;stroke-width:1.875;"/>
   </g>
   <g id="patch_6">
    <path d="M 135 69.12 
L 972 69.12 
" style="fill:none;stroke:#cccccc;stroke-linecap:square;stroke-linejoin:miter;stroke-width:1.875;"/>
   </g>
   <g id="legend_1">
    <g id="patch_7">
     <path d="M 849.846563 495.75 
L 960.45 495.75 
Q 963.75 495.75 963.75 492.45 
L 963.75 347.334844 
Q 963.75 344.034844 960.45 344.034844 
L 849.846563 344.034844 
Q 846.546563 344.034844 846.546563 347.334844 
L 846.546563 492.45 
Q 846.546563 495.75 849.846563 495.75 
z
" style="fill:#ffffff;opacity:0.8;stroke:#cccccc;stroke-linejoin:miter;stroke-width:1.5;"/>
    </g>
    <g id="text_17">
     <!-- Experiment -->
     <g style="fill:#262626;" transform="translate(853.146563 364.312031)scale(0.18 -0.18)">
      <defs>
       <path d="M 9.8125 72.90625 
L 55.90625 72.90625 
L 55.90625 64.59375 
L 19.671875 64.59375 
L 19.671875 43.015625 
L 54.390625 43.015625 
L 54.390625 34.71875 
L 19.671875 34.71875 
L 19.671875 8.296875 
L 56.78125 8.296875 
L 56.78125 0 
L 9.8125 0 
z
" id="DejaVuSans-69"/>
       <path d="M 54.890625 54.6875 
L 35.109375 28.078125 
L 55.90625 0 
L 45.3125 0 
L 29.390625 21.484375 
L 13.484375 0 
L 2.875 0 
L 24.125 28.609375 
L 4.6875 54.6875 
L 15.28125 54.6875 
L 29.78125 35.203125 
L 44.28125 54.6875 
z
" id="DejaVuSans-120"/>
       <path d="M 52 44.1875 
Q 55.375 50.25 60.0625 53.125 
Q 64.75 56 71.09375 56 
Q 79.640625 56 84.28125 50.015625 
Q 88.921875 44.046875 88.921875 33.015625 
L 88.921875 0 
L 79.890625 0 
L 79.890625 32.71875 
Q 79.890625 40.578125 77.09375 44.375 
Q 74.3125 48.1875 68.609375 48.1875 
Q 61.625 48.1875 57.5625 43.546875 
Q 53.515625 38.921875 53.515625 30.90625 
L 53.515625 0 
L 44.484375 0 
L 44.484375 32.71875 
Q 44.484375 40.625 41.703125 44.40625 
Q 38.921875 48.1875 33.109375 48.1875 
Q 26.21875 48.1875 22.15625 43.53125 
Q 18.109375 38.875 18.109375 30.90625 
L 18.109375 0 
L 9.078125 0 
L 9.078125 54.6875 
L 18.109375 54.6875 
L 18.109375 46.1875 
Q 21.1875 51.21875 25.484375 53.609375 
Q 29.78125 56 35.6875 56 
Q 41.65625 56 45.828125 52.96875 
Q 50 49.953125 52 44.1875 
z
" id="DejaVuSans-109"/>
      </defs>
      <use xlink:href="#DejaVuSans-69"/>
      <use x="63.183594" xlink:href="#DejaVuSans-120"/>
      <use x="122.363281" xlink:href="#DejaVuSans-112"/>
      <use x="185.839844" xlink:href="#DejaVuSans-101"/>
      <use x="247.363281" xlink:href="#DejaVuSans-114"/>
      <use x="288.476562" xlink:href="#DejaVuSans-105"/>
      <use x="316.259766" xlink:href="#DejaVuSans-109"/>
      <use x="413.671875" xlink:href="#DejaVuSans-101"/>
      <use x="475.195312" xlink:href="#DejaVuSans-110"/>
      <use x="538.574219" xlink:href="#DejaVuSans-116"/>
     </g>
    </g>
    <g id="line2d_21">
     <path d="M 854.615742 383.067891 
L 887.615742 383.067891 
" style="fill:none;stroke:#8172b3;stroke-linecap:round;stroke-width:2.25;"/>
    </g>
    <g id="line2d_22"/>
    <g id="text_18">
     <!-- k = 10 -->
     <g style="fill:#262626;" transform="translate(900.815742 388.842891)scale(0.165 -0.165)">
      <defs>
       <path d="M 9.078125 75.984375 
L 18.109375 75.984375 
L 18.109375 31.109375 
L 44.921875 54.6875 
L 56.390625 54.6875 
L 27.390625 29.109375 
L 57.625 0 
L 45.90625 0 
L 18.109375 26.703125 
L 18.109375 0 
L 9.078125 0 
z
" id="DejaVuSans-107"/>
       <path d="M 10.59375 45.40625 
L 73.1875 45.40625 
L 73.1875 37.203125 
L 10.59375 37.203125 
z
M 10.59375 25.484375 
L 73.1875 25.484375 
L 73.1875 17.1875 
L 10.59375 17.1875 
z
" id="DejaVuSans-61"/>
      </defs>
      <use xlink:href="#DejaVuSans-107"/>
      <use x="57.910156" xlink:href="#DejaVuSans-32"/>
      <use x="89.697266" xlink:href="#DejaVuSans-61"/>
      <use x="173.486328" xlink:href="#DejaVuSans-32"/>
      <use x="205.273438" xlink:href="#DejaVuSans-49"/>
      <use x="268.896484" xlink:href="#DejaVuSans-48"/>
     </g>
    </g>
    <g id="line2d_23">
     <path d="M 854.615742 407.286797 
L 887.615742 407.286797 
" style="fill:none;stroke:#c44e52;stroke-linecap:round;stroke-width:2.25;"/>
    </g>
    <g id="line2d_24"/>
    <g id="text_19">
     <!-- k = 8 -->
     <g style="fill:#262626;" transform="translate(900.815742 413.061797)scale(0.165 -0.165)">
      <use xlink:href="#DejaVuSans-107"/>
      <use x="57.910156" xlink:href="#DejaVuSans-32"/>
      <use x="89.697266" xlink:href="#DejaVuSans-61"/>
      <use x="173.486328" xlink:href="#DejaVuSans-32"/>
      <use x="205.273438" xlink:href="#DejaVuSans-56"/>
     </g>
    </g>
    <g id="line2d_25">
     <path d="M 854.615742 431.505703 
L 887.615742 431.505703 
" style="fill:none;stroke:#55a868;stroke-linecap:round;stroke-width:2.25;"/>
    </g>
    <g id="line2d_26"/>
    <g id="text_20">
     <!-- k = 6 -->
     <g style="fill:#262626;" transform="translate(900.815742 437.280703)scale(0.165 -0.165)">
      <use xlink:href="#DejaVuSans-107"/>
      <use x="57.910156" xlink:href="#DejaVuSans-32"/>
      <use x="89.697266" xlink:href="#DejaVuSans-61"/>
      <use x="173.486328" xlink:href="#DejaVuSans-32"/>
      <use x="205.273438" xlink:href="#DejaVuSans-54"/>
     </g>
    </g>
    <g id="line2d_27">
     <path d="M 854.615742 455.724609 
L 887.615742 455.724609 
" style="fill:none;stroke:#dd8452;stroke-linecap:round;stroke-width:2.25;"/>
    </g>
    <g id="line2d_28"/>
    <g id="text_21">
     <!-- k = 4 -->
     <g style="fill:#262626;" transform="translate(900.815742 461.499609)scale(0.165 -0.165)">
      <use xlink:href="#DejaVuSans-107"/>
      <use x="57.910156" xlink:href="#DejaVuSans-32"/>
      <use x="89.697266" xlink:href="#DejaVuSans-61"/>
      <use x="173.486328" xlink:href="#DejaVuSans-32"/>
      <use x="205.273438" xlink:href="#DejaVuSans-52"/>
     </g>
    </g>
    <g id="line2d_29">
     <path d="M 854.615742 479.943516 
L 887.615742 479.943516 
" style="fill:none;stroke:#4c72b0;stroke-linecap:round;stroke-width:2.25;"/>
    </g>
    <g id="line2d_30"/>
    <g id="text_22">
     <!-- k = 2 -->
     <g style="fill:#262626;" transform="translate(900.815742 485.718516)scale(0.165 -0.165)">
      <use xlink:href="#DejaVuSans-107"/>
      <use x="57.910156" xlink:href="#DejaVuSans-32"/>
      <use x="89.697266" xlink:href="#DejaVuSans-61"/>
      <use x="173.486328" xlink:href="#DejaVuSans-32"/>
      <use x="205.273438" xlink:href="#DejaVuSans-50"/>
     </g>
    </g>
   </g>
  </g>
 </g>
 <defs>
  <clipPath id="p80d65d83de">
   <rect height="434.88" width="837" x="135" y="69.12"/>
  </clipPath>
 </defs>
</svg>
