<?xml version="1.0" encoding="utf-8" standalone="no"?>
<!DOCTYPE svg PUBLIC "-//W3C//DTD SVG 1.1//EN"
  "http://www.w3.org/Graphics/SVG/1.1/DTD/svg11.dtd">
<!-- Created with matplotlib (https://matplotlib.org/) -->
<svg height="576pt" version="1.1" viewBox="0 0 1080 576" width="1080pt" xmlns="http://www.w3.org/2000/svg" xmlns:xlink="http://www.w3.org/1999/xlink">
 <metadata>
  <rdf:RDF xmlns:cc="http://creativecommons.org/ns#" xmlns:dc="http://purl.org/dc/elements/1.1/" xmlns:rdf="http://www.w3.org/1999/02/22-rdf-syntax-ns#">
   <cc:Work>
    <dc:type rdf:resource="http://purl.org/dc/dcmitype/StillImage"/>
    <dc:date>2021-10-28T16:23:57.278515</dc:date>
    <dc:format>image/svg+xml</dc:format>
    <dc:creator>
     <cc:Agent>
      <dc:title>Matplotlib v3.3.2, https://matplotlib.org/</dc:title>
     </cc:Agent>
    </dc:creator>
   </cc:Work>
  </rdf:RDF>
 </metadata>
 <defs>
  <style type="text/css">*{stroke-linecap:butt;stroke-linejoin:round;}</style>
 </defs>
 <g id="figure_1">
  <g id="patch_1">
   <path d="M 0 576 
L 1080 576 
L 1080 0 
L 0 0 
z
" style="fill:#ffffff;"/>
  </g>
  <g id="axes_1">
   <g id="patch_2">
    <path d="M 135 504 
L 972 504 
L 972 69.12 
L 135 69.12 
z
" style="fill:#ffffff;"/>
   </g>
   <g id="matplotlib.axis_1">
    <g id="xtick_1">
     <g id="line2d_1">
      <path clip-path="url(#p467f8644a4)" d="M 883.227273 504 
L 883.227273 69.12 
" style="fill:none;stroke:#999999;stroke-dasharray:1.5,2.475;stroke-dashoffset:0;stroke-width:1.5;"/>
     </g>
     <g id="text_1">
      <!-- 0.3 -->
      <g style="fill:#262626;" transform="translate(870.107195 529.037422)scale(0.165 -0.165)">
       <defs>
        <path d="M 31.78125 66.40625 
Q 24.171875 66.40625 20.328125 58.90625 
Q 16.5 51.421875 16.5 36.375 
Q 16.5 21.390625 20.328125 13.890625 
Q 24.171875 6.390625 31.78125 6.390625 
Q 39.453125 6.390625 43.28125 13.890625 
Q 47.125 21.390625 47.125 36.375 
Q 47.125 51.421875 43.28125 58.90625 
Q 39.453125 66.40625 31.78125 66.40625 
z
M 31.78125 74.21875 
Q 44.046875 74.21875 50.515625 64.515625 
Q 56.984375 54.828125 56.984375 36.375 
Q 56.984375 17.96875 50.515625 8.265625 
Q 44.046875 -1.421875 31.78125 -1.421875 
Q 19.53125 -1.421875 13.0625 8.265625 
Q 6.59375 17.96875 6.59375 36.375 
Q 6.59375 54.828125 13.0625 64.515625 
Q 19.53125 74.21875 31.78125 74.21875 
z
" id="DejaVuSans-48"/>
        <path d="M 10.6875 12.40625 
L 21 12.40625 
L 21 0 
L 10.6875 0 
z
" id="DejaVuSans-46"/>
        <path d="M 40.578125 39.3125 
Q 47.65625 37.796875 51.625 33 
Q 55.609375 28.21875 55.609375 21.1875 
Q 55.609375 10.40625 48.1875 4.484375 
Q 40.765625 -1.421875 27.09375 -1.421875 
Q 22.515625 -1.421875 17.65625 -0.515625 
Q 12.796875 0.390625 7.625 2.203125 
L 7.625 11.71875 
Q 11.71875 9.328125 16.59375 8.109375 
Q 21.484375 6.890625 26.8125 6.890625 
Q 36.078125 6.890625 40.9375 10.546875 
Q 45.796875 14.203125 45.796875 21.1875 
Q 45.796875 27.640625 41.28125 31.265625 
Q 36.765625 34.90625 28.71875 34.90625 
L 20.21875 34.90625 
L 20.21875 43.015625 
L 29.109375 43.015625 
Q 36.375 43.015625 40.234375 45.921875 
Q 44.09375 48.828125 44.09375 54.296875 
Q 44.09375 59.90625 40.109375 62.90625 
Q 36.140625 65.921875 28.71875 65.921875 
Q 24.65625 65.921875 20.015625 65.03125 
Q 15.375 64.15625 9.8125 62.3125 
L 9.8125 71.09375 
Q 15.4375 72.65625 20.34375 73.4375 
Q 25.25 74.21875 29.59375 74.21875 
Q 40.828125 74.21875 47.359375 69.109375 
Q 53.90625 64.015625 53.90625 55.328125 
Q 53.90625 49.265625 50.4375 45.09375 
Q 46.96875 40.921875 40.578125 39.3125 
z
" id="DejaVuSans-51"/>
       </defs>
       <use xlink:href="#DejaVuSans-48"/>
       <use x="63.623047" xlink:href="#DejaVuSans-46"/>
       <use x="95.410156" xlink:href="#DejaVuSans-51"/>
      </g>
     </g>
    </g>
    <g id="xtick_2">
     <g id="line2d_2">
      <path clip-path="url(#p467f8644a4)" d="M 781.772727 504 
L 781.772727 69.12 
" style="fill:none;stroke:#999999;stroke-dasharray:1.5,2.475;stroke-dashoffset:0;stroke-width:1.5;"/>
     </g>
     <g id="text_2">
      <!-- 0.4 -->
      <g style="fill:#262626;" transform="translate(768.652649 529.037422)scale(0.165 -0.165)">
       <defs>
        <path d="M 37.796875 64.3125 
L 12.890625 25.390625 
L 37.796875 25.390625 
z
M 35.203125 72.90625 
L 47.609375 72.90625 
L 47.609375 25.390625 
L 58.015625 25.390625 
L 58.015625 17.1875 
L 47.609375 17.1875 
L 47.609375 0 
L 37.796875 0 
L 37.796875 17.1875 
L 4.890625 17.1875 
L 4.890625 26.703125 
z
" id="DejaVuSans-52"/>
       </defs>
       <use xlink:href="#DejaVuSans-48"/>
       <use x="63.623047" xlink:href="#DejaVuSans-46"/>
       <use x="95.410156" xlink:href="#DejaVuSans-52"/>
      </g>
     </g>
    </g>
    <g id="xtick_3">
     <g id="line2d_3">
      <path clip-path="url(#p467f8644a4)" d="M 680.318182 504 
L 680.318182 69.12 
" style="fill:none;stroke:#999999;stroke-dasharray:1.5,2.475;stroke-dashoffset:0;stroke-width:1.5;"/>
     </g>
     <g id="text_3">
      <!-- 0.5 -->
      <g style="fill:#262626;" transform="translate(667.198104 529.037422)scale(0.165 -0.165)">
       <defs>
        <path d="M 10.796875 72.90625 
L 49.515625 72.90625 
L 49.515625 64.59375 
L 19.828125 64.59375 
L 19.828125 46.734375 
Q 21.96875 47.46875 24.109375 47.828125 
Q 26.265625 48.1875 28.421875 48.1875 
Q 40.625 48.1875 47.75 41.5 
Q 54.890625 34.8125 54.890625 23.390625 
Q 54.890625 11.625 47.5625 5.09375 
Q 40.234375 -1.421875 26.90625 -1.421875 
Q 22.3125 -1.421875 17.546875 -0.640625 
Q 12.796875 0.140625 7.71875 1.703125 
L 7.71875 11.625 
Q 12.109375 9.234375 16.796875 8.0625 
Q 21.484375 6.890625 26.703125 6.890625 
Q 35.15625 6.890625 40.078125 11.328125 
Q 45.015625 15.765625 45.015625 23.390625 
Q 45.015625 31 40.078125 35.4375 
Q 35.15625 39.890625 26.703125 39.890625 
Q 22.75 39.890625 18.8125 39.015625 
Q 14.890625 38.140625 10.796875 36.28125 
z
" id="DejaVuSans-53"/>
       </defs>
       <use xlink:href="#DejaVuSans-48"/>
       <use x="63.623047" xlink:href="#DejaVuSans-46"/>
       <use x="95.410156" xlink:href="#DejaVuSans-53"/>
      </g>
     </g>
    </g>
    <g id="xtick_4">
     <g id="line2d_4">
      <path clip-path="url(#p467f8644a4)" d="M 578.863636 504 
L 578.863636 69.12 
" style="fill:none;stroke:#999999;stroke-dasharray:1.5,2.475;stroke-dashoffset:0;stroke-width:1.5;"/>
     </g>
     <g id="text_4">
      <!-- 0.6 -->
      <g style="fill:#262626;" transform="translate(565.743558 529.037422)scale(0.165 -0.165)">
       <defs>
        <path d="M 33.015625 40.375 
Q 26.375 40.375 22.484375 35.828125 
Q 18.609375 31.296875 18.609375 23.390625 
Q 18.609375 15.53125 22.484375 10.953125 
Q 26.375 6.390625 33.015625 6.390625 
Q 39.65625 6.390625 43.53125 10.953125 
Q 47.40625 15.53125 47.40625 23.390625 
Q 47.40625 31.296875 43.53125 35.828125 
Q 39.65625 40.375 33.015625 40.375 
z
M 52.59375 71.296875 
L 52.59375 62.3125 
Q 48.875 64.0625 45.09375 64.984375 
Q 41.3125 65.921875 37.59375 65.921875 
Q 27.828125 65.921875 22.671875 59.328125 
Q 17.53125 52.734375 16.796875 39.40625 
Q 19.671875 43.65625 24.015625 45.921875 
Q 28.375 48.1875 33.59375 48.1875 
Q 44.578125 48.1875 50.953125 41.515625 
Q 57.328125 34.859375 57.328125 23.390625 
Q 57.328125 12.15625 50.6875 5.359375 
Q 44.046875 -1.421875 33.015625 -1.421875 
Q 20.359375 -1.421875 13.671875 8.265625 
Q 6.984375 17.96875 6.984375 36.375 
Q 6.984375 53.65625 15.1875 63.9375 
Q 23.390625 74.21875 37.203125 74.21875 
Q 40.921875 74.21875 44.703125 73.484375 
Q 48.484375 72.75 52.59375 71.296875 
z
" id="DejaVuSans-54"/>
       </defs>
       <use xlink:href="#DejaVuSans-48"/>
       <use x="63.623047" xlink:href="#DejaVuSans-46"/>
       <use x="95.410156" xlink:href="#DejaVuSans-54"/>
      </g>
     </g>
    </g>
    <g id="xtick_5">
     <g id="line2d_5">
      <path clip-path="url(#p467f8644a4)" d="M 477.409091 504 
L 477.409091 69.12 
" style="fill:none;stroke:#999999;stroke-dasharray:1.5,2.475;stroke-dashoffset:0;stroke-width:1.5;"/>
     </g>
     <g id="text_5">
      <!-- 0.7 -->
      <g style="fill:#262626;" transform="translate(464.289013 529.037422)scale(0.165 -0.165)">
       <defs>
        <path d="M 8.203125 72.90625 
L 55.078125 72.90625 
L 55.078125 68.703125 
L 28.609375 0 
L 18.3125 0 
L 43.21875 64.59375 
L 8.203125 64.59375 
z
" id="DejaVuSans-55"/>
       </defs>
       <use xlink:href="#DejaVuSans-48"/>
       <use x="63.623047" xlink:href="#DejaVuSans-46"/>
       <use x="95.410156" xlink:href="#DejaVuSans-55"/>
      </g>
     </g>
    </g>
    <g id="xtick_6">
     <g id="line2d_6">
      <path clip-path="url(#p467f8644a4)" d="M 375.954545 504 
L 375.954545 69.12 
" style="fill:none;stroke:#999999;stroke-dasharray:1.5,2.475;stroke-dashoffset:0;stroke-width:1.5;"/>
     </g>
     <g id="text_6">
      <!-- 0.8 -->
      <g style="fill:#262626;" transform="translate(362.834467 529.037422)scale(0.165 -0.165)">
       <defs>
        <path d="M 31.78125 34.625 
Q 24.75 34.625 20.71875 30.859375 
Q 16.703125 27.09375 16.703125 20.515625 
Q 16.703125 13.921875 20.71875 10.15625 
Q 24.75 6.390625 31.78125 6.390625 
Q 38.8125 6.390625 42.859375 10.171875 
Q 46.921875 13.96875 46.921875 20.515625 
Q 46.921875 27.09375 42.890625 30.859375 
Q 38.875 34.625 31.78125 34.625 
z
M 21.921875 38.8125 
Q 15.578125 40.375 12.03125 44.71875 
Q 8.5 49.078125 8.5 55.328125 
Q 8.5 64.0625 14.71875 69.140625 
Q 20.953125 74.21875 31.78125 74.21875 
Q 42.671875 74.21875 48.875 69.140625 
Q 55.078125 64.0625 55.078125 55.328125 
Q 55.078125 49.078125 51.53125 44.71875 
Q 48 40.375 41.703125 38.8125 
Q 48.828125 37.15625 52.796875 32.3125 
Q 56.78125 27.484375 56.78125 20.515625 
Q 56.78125 9.90625 50.3125 4.234375 
Q 43.84375 -1.421875 31.78125 -1.421875 
Q 19.734375 -1.421875 13.25 4.234375 
Q 6.78125 9.90625 6.78125 20.515625 
Q 6.78125 27.484375 10.78125 32.3125 
Q 14.796875 37.15625 21.921875 38.8125 
z
M 18.3125 54.390625 
Q 18.3125 48.734375 21.84375 45.5625 
Q 25.390625 42.390625 31.78125 42.390625 
Q 38.140625 42.390625 41.71875 45.5625 
Q 45.3125 48.734375 45.3125 54.390625 
Q 45.3125 60.0625 41.71875 63.234375 
Q 38.140625 66.40625 31.78125 66.40625 
Q 25.390625 66.40625 21.84375 63.234375 
Q 18.3125 60.0625 18.3125 54.390625 
z
" id="DejaVuSans-56"/>
       </defs>
       <use xlink:href="#DejaVuSans-48"/>
       <use x="63.623047" xlink:href="#DejaVuSans-46"/>
       <use x="95.410156" xlink:href="#DejaVuSans-56"/>
      </g>
     </g>
    </g>
    <g id="xtick_7">
     <g id="line2d_7">
      <path clip-path="url(#p467f8644a4)" d="M 274.5 504 
L 274.5 69.12 
" style="fill:none;stroke:#999999;stroke-dasharray:1.5,2.475;stroke-dashoffset:0;stroke-width:1.5;"/>
     </g>
     <g id="text_7">
      <!-- 0.9 -->
      <g style="fill:#262626;" transform="translate(261.379922 529.037422)scale(0.165 -0.165)">
       <defs>
        <path d="M 10.984375 1.515625 
L 10.984375 10.5 
Q 14.703125 8.734375 18.5 7.8125 
Q 22.3125 6.890625 25.984375 6.890625 
Q 35.75 6.890625 40.890625 13.453125 
Q 46.046875 20.015625 46.78125 33.40625 
Q 43.953125 29.203125 39.59375 26.953125 
Q 35.25 24.703125 29.984375 24.703125 
Q 19.046875 24.703125 12.671875 31.3125 
Q 6.296875 37.9375 6.296875 49.421875 
Q 6.296875 60.640625 12.9375 67.421875 
Q 19.578125 74.21875 30.609375 74.21875 
Q 43.265625 74.21875 49.921875 64.515625 
Q 56.59375 54.828125 56.59375 36.375 
Q 56.59375 19.140625 48.40625 8.859375 
Q 40.234375 -1.421875 26.421875 -1.421875 
Q 22.703125 -1.421875 18.890625 -0.6875 
Q 15.09375 0.046875 10.984375 1.515625 
z
M 30.609375 32.421875 
Q 37.25 32.421875 41.125 36.953125 
Q 45.015625 41.5 45.015625 49.421875 
Q 45.015625 57.28125 41.125 61.84375 
Q 37.25 66.40625 30.609375 66.40625 
Q 23.96875 66.40625 20.09375 61.84375 
Q 16.21875 57.28125 16.21875 49.421875 
Q 16.21875 41.5 20.09375 36.953125 
Q 23.96875 32.421875 30.609375 32.421875 
z
" id="DejaVuSans-57"/>
       </defs>
       <use xlink:href="#DejaVuSans-48"/>
       <use x="63.623047" xlink:href="#DejaVuSans-46"/>
       <use x="95.410156" xlink:href="#DejaVuSans-57"/>
      </g>
     </g>
    </g>
    <g id="xtick_8">
     <g id="line2d_8">
      <path clip-path="url(#p467f8644a4)" d="M 173.045455 504 
L 173.045455 69.12 
" style="fill:none;stroke:#999999;stroke-dasharray:1.5,2.475;stroke-dashoffset:0;stroke-width:1.5;"/>
     </g>
     <g id="text_8">
      <!-- 1.0 -->
      <g style="fill:#262626;" transform="translate(159.925376 529.037422)scale(0.165 -0.165)">
       <defs>
        <path d="M 12.40625 8.296875 
L 28.515625 8.296875 
L 28.515625 63.921875 
L 10.984375 60.40625 
L 10.984375 69.390625 
L 28.421875 72.90625 
L 38.28125 72.90625 
L 38.28125 8.296875 
L 54.390625 8.296875 
L 54.390625 0 
L 12.40625 0 
z
" id="DejaVuSans-49"/>
       </defs>
       <use xlink:href="#DejaVuSans-49"/>
       <use x="63.623047" xlink:href="#DejaVuSans-46"/>
       <use x="95.410156" xlink:href="#DejaVuSans-48"/>
      </g>
     </g>
    </g>
    <g id="text_9">
     <!-- F (largest ratio of users in a cluster) -->
     <g style="fill:#262626;" transform="translate(392.182031 550.146094)scale(0.18 -0.18)">
      <defs>
       <path d="M 9.8125 72.90625 
L 51.703125 72.90625 
L 51.703125 64.59375 
L 19.671875 64.59375 
L 19.671875 43.109375 
L 48.578125 43.109375 
L 48.578125 34.8125 
L 19.671875 34.8125 
L 19.671875 0 
L 9.8125 0 
z
" id="DejaVuSans-70"/>
       <path id="DejaVuSans-32"/>
       <path d="M 31 75.875 
Q 24.46875 64.65625 21.28125 53.65625 
Q 18.109375 42.671875 18.109375 31.390625 
Q 18.109375 20.125 21.3125 9.0625 
Q 24.515625 -2 31 -13.1875 
L 23.1875 -13.1875 
Q 15.875 -1.703125 12.234375 9.375 
Q 8.59375 20.453125 8.59375 31.390625 
Q 8.59375 42.28125 12.203125 53.3125 
Q 15.828125 64.359375 23.1875 75.875 
z
" id="DejaVuSans-40"/>
       <path d="M 9.421875 75.984375 
L 18.40625 75.984375 
L 18.40625 0 
L 9.421875 0 
z
" id="DejaVuSans-108"/>
       <path d="M 34.28125 27.484375 
Q 23.390625 27.484375 19.1875 25 
Q 14.984375 22.515625 14.984375 16.5 
Q 14.984375 11.71875 18.140625 8.90625 
Q 21.296875 6.109375 26.703125 6.109375 
Q 34.1875 6.109375 38.703125 11.40625 
Q 43.21875 16.703125 43.21875 25.484375 
L 43.21875 27.484375 
z
M 52.203125 31.203125 
L 52.203125 0 
L 43.21875 0 
L 43.21875 8.296875 
Q 40.140625 3.328125 35.546875 0.953125 
Q 30.953125 -1.421875 24.3125 -1.421875 
Q 15.921875 -1.421875 10.953125 3.296875 
Q 6 8.015625 6 15.921875 
Q 6 25.140625 12.171875 29.828125 
Q 18.359375 34.515625 30.609375 34.515625 
L 43.21875 34.515625 
L 43.21875 35.40625 
Q 43.21875 41.609375 39.140625 45 
Q 35.0625 48.390625 27.6875 48.390625 
Q 23 48.390625 18.546875 47.265625 
Q 14.109375 46.140625 10.015625 43.890625 
L 10.015625 52.203125 
Q 14.9375 54.109375 19.578125 55.046875 
Q 24.21875 56 28.609375 56 
Q 40.484375 56 46.34375 49.84375 
Q 52.203125 43.703125 52.203125 31.203125 
z
" id="DejaVuSans-97"/>
       <path d="M 41.109375 46.296875 
Q 39.59375 47.171875 37.8125 47.578125 
Q 36.03125 48 33.890625 48 
Q 26.265625 48 22.1875 43.046875 
Q 18.109375 38.09375 18.109375 28.8125 
L 18.109375 0 
L 9.078125 0 
L 9.078125 54.6875 
L 18.109375 54.6875 
L 18.109375 46.1875 
Q 20.953125 51.171875 25.484375 53.578125 
Q 30.03125 56 36.53125 56 
Q 37.453125 56 38.578125 55.875 
Q 39.703125 55.765625 41.0625 55.515625 
z
" id="DejaVuSans-114"/>
       <path d="M 45.40625 27.984375 
Q 45.40625 37.75 41.375 43.109375 
Q 37.359375 48.484375 30.078125 48.484375 
Q 22.859375 48.484375 18.828125 43.109375 
Q 14.796875 37.75 14.796875 27.984375 
Q 14.796875 18.265625 18.828125 12.890625 
Q 22.859375 7.515625 30.078125 7.515625 
Q 37.359375 7.515625 41.375 12.890625 
Q 45.40625 18.265625 45.40625 27.984375 
z
M 54.390625 6.78125 
Q 54.390625 -7.171875 48.1875 -13.984375 
Q 42 -20.796875 29.203125 -20.796875 
Q 24.46875 -20.796875 20.265625 -20.09375 
Q 16.0625 -19.390625 12.109375 -17.921875 
L 12.109375 -9.1875 
Q 16.0625 -11.328125 19.921875 -12.34375 
Q 23.78125 -13.375 27.78125 -13.375 
Q 36.625 -13.375 41.015625 -8.765625 
Q 45.40625 -4.15625 45.40625 5.171875 
L 45.40625 9.625 
Q 42.625 4.78125 38.28125 2.390625 
Q 33.9375 0 27.875 0 
Q 17.828125 0 11.671875 7.65625 
Q 5.515625 15.328125 5.515625 27.984375 
Q 5.515625 40.671875 11.671875 48.328125 
Q 17.828125 56 27.875 56 
Q 33.9375 56 38.28125 53.609375 
Q 42.625 51.21875 45.40625 46.390625 
L 45.40625 54.6875 
L 54.390625 54.6875 
z
" id="DejaVuSans-103"/>
       <path d="M 56.203125 29.59375 
L 56.203125 25.203125 
L 14.890625 25.203125 
Q 15.484375 15.921875 20.484375 11.0625 
Q 25.484375 6.203125 34.421875 6.203125 
Q 39.59375 6.203125 44.453125 7.46875 
Q 49.3125 8.734375 54.109375 11.28125 
L 54.109375 2.78125 
Q 49.265625 0.734375 44.1875 -0.34375 
Q 39.109375 -1.421875 33.890625 -1.421875 
Q 20.796875 -1.421875 13.15625 6.1875 
Q 5.515625 13.8125 5.515625 26.8125 
Q 5.515625 40.234375 12.765625 48.109375 
Q 20.015625 56 32.328125 56 
Q 43.359375 56 49.78125 48.890625 
Q 56.203125 41.796875 56.203125 29.59375 
z
M 47.21875 32.234375 
Q 47.125 39.59375 43.09375 43.984375 
Q 39.0625 48.390625 32.421875 48.390625 
Q 24.90625 48.390625 20.390625 44.140625 
Q 15.875 39.890625 15.1875 32.171875 
z
" id="DejaVuSans-101"/>
       <path d="M 44.28125 53.078125 
L 44.28125 44.578125 
Q 40.484375 46.53125 36.375 47.5 
Q 32.28125 48.484375 27.875 48.484375 
Q 21.1875 48.484375 17.84375 46.4375 
Q 14.5 44.390625 14.5 40.28125 
Q 14.5 37.15625 16.890625 35.375 
Q 19.28125 33.59375 26.515625 31.984375 
L 29.59375 31.296875 
Q 39.15625 29.25 43.1875 25.515625 
Q 47.21875 21.78125 47.21875 15.09375 
Q 47.21875 7.46875 41.1875 3.015625 
Q 35.15625 -1.421875 24.609375 -1.421875 
Q 20.21875 -1.421875 15.453125 -0.5625 
Q 10.6875 0.296875 5.421875 2 
L 5.421875 11.28125 
Q 10.40625 8.6875 15.234375 7.390625 
Q 20.0625 6.109375 24.8125 6.109375 
Q 31.15625 6.109375 34.5625 8.28125 
Q 37.984375 10.453125 37.984375 14.40625 
Q 37.984375 18.0625 35.515625 20.015625 
Q 33.0625 21.96875 24.703125 23.78125 
L 21.578125 24.515625 
Q 13.234375 26.265625 9.515625 29.90625 
Q 5.8125 33.546875 5.8125 39.890625 
Q 5.8125 47.609375 11.28125 51.796875 
Q 16.75 56 26.8125 56 
Q 31.78125 56 36.171875 55.265625 
Q 40.578125 54.546875 44.28125 53.078125 
z
" id="DejaVuSans-115"/>
       <path d="M 18.3125 70.21875 
L 18.3125 54.6875 
L 36.8125 54.6875 
L 36.8125 47.703125 
L 18.3125 47.703125 
L 18.3125 18.015625 
Q 18.3125 11.328125 20.140625 9.421875 
Q 21.96875 7.515625 27.59375 7.515625 
L 36.8125 7.515625 
L 36.8125 0 
L 27.59375 0 
Q 17.1875 0 13.234375 3.875 
Q 9.28125 7.765625 9.28125 18.015625 
L 9.28125 47.703125 
L 2.6875 47.703125 
L 2.6875 54.6875 
L 9.28125 54.6875 
L 9.28125 70.21875 
z
" id="DejaVuSans-116"/>
       <path d="M 9.421875 54.6875 
L 18.40625 54.6875 
L 18.40625 0 
L 9.421875 0 
z
M 9.421875 75.984375 
L 18.40625 75.984375 
L 18.40625 64.59375 
L 9.421875 64.59375 
z
" id="DejaVuSans-105"/>
       <path d="M 30.609375 48.390625 
Q 23.390625 48.390625 19.1875 42.75 
Q 14.984375 37.109375 14.984375 27.296875 
Q 14.984375 17.484375 19.15625 11.84375 
Q 23.34375 6.203125 30.609375 6.203125 
Q 37.796875 6.203125 41.984375 11.859375 
Q 46.1875 17.53125 46.1875 27.296875 
Q 46.1875 37.015625 41.984375 42.703125 
Q 37.796875 48.390625 30.609375 48.390625 
z
M 30.609375 56 
Q 42.328125 56 49.015625 48.375 
Q 55.71875 40.765625 55.71875 27.296875 
Q 55.71875 13.875 49.015625 6.21875 
Q 42.328125 -1.421875 30.609375 -1.421875 
Q 18.84375 -1.421875 12.171875 6.21875 
Q 5.515625 13.875 5.515625 27.296875 
Q 5.515625 40.765625 12.171875 48.375 
Q 18.84375 56 30.609375 56 
z
" id="DejaVuSans-111"/>
       <path d="M 37.109375 75.984375 
L 37.109375 68.5 
L 28.515625 68.5 
Q 23.6875 68.5 21.796875 66.546875 
Q 19.921875 64.59375 19.921875 59.515625 
L 19.921875 54.6875 
L 34.71875 54.6875 
L 34.71875 47.703125 
L 19.921875 47.703125 
L 19.921875 0 
L 10.890625 0 
L 10.890625 47.703125 
L 2.296875 47.703125 
L 2.296875 54.6875 
L 10.890625 54.6875 
L 10.890625 58.5 
Q 10.890625 67.625 15.140625 71.796875 
Q 19.390625 75.984375 28.609375 75.984375 
z
" id="DejaVuSans-102"/>
       <path d="M 8.5 21.578125 
L 8.5 54.6875 
L 17.484375 54.6875 
L 17.484375 21.921875 
Q 17.484375 14.15625 20.5 10.265625 
Q 23.53125 6.390625 29.59375 6.390625 
Q 36.859375 6.390625 41.078125 11.03125 
Q 45.3125 15.671875 45.3125 23.6875 
L 45.3125 54.6875 
L 54.296875 54.6875 
L 54.296875 0 
L 45.3125 0 
L 45.3125 8.40625 
Q 42.046875 3.421875 37.71875 1 
Q 33.40625 -1.421875 27.6875 -1.421875 
Q 18.265625 -1.421875 13.375 4.4375 
Q 8.5 10.296875 8.5 21.578125 
z
M 31.109375 56 
z
" id="DejaVuSans-117"/>
       <path d="M 54.890625 33.015625 
L 54.890625 0 
L 45.90625 0 
L 45.90625 32.71875 
Q 45.90625 40.484375 42.875 44.328125 
Q 39.84375 48.1875 33.796875 48.1875 
Q 26.515625 48.1875 22.3125 43.546875 
Q 18.109375 38.921875 18.109375 30.90625 
L 18.109375 0 
L 9.078125 0 
L 9.078125 54.6875 
L 18.109375 54.6875 
L 18.109375 46.1875 
Q 21.34375 51.125 25.703125 53.5625 
Q 30.078125 56 35.796875 56 
Q 45.21875 56 50.046875 50.171875 
Q 54.890625 44.34375 54.890625 33.015625 
z
" id="DejaVuSans-110"/>
       <path d="M 48.78125 52.59375 
L 48.78125 44.1875 
Q 44.96875 46.296875 41.140625 47.34375 
Q 37.3125 48.390625 33.40625 48.390625 
Q 24.65625 48.390625 19.8125 42.84375 
Q 14.984375 37.3125 14.984375 27.296875 
Q 14.984375 17.28125 19.8125 11.734375 
Q 24.65625 6.203125 33.40625 6.203125 
Q 37.3125 6.203125 41.140625 7.25 
Q 44.96875 8.296875 48.78125 10.40625 
L 48.78125 2.09375 
Q 45.015625 0.34375 40.984375 -0.53125 
Q 36.96875 -1.421875 32.421875 -1.421875 
Q 20.0625 -1.421875 12.78125 6.34375 
Q 5.515625 14.109375 5.515625 27.296875 
Q 5.515625 40.671875 12.859375 48.328125 
Q 20.21875 56 33.015625 56 
Q 37.15625 56 41.109375 55.140625 
Q 45.0625 54.296875 48.78125 52.59375 
z
" id="DejaVuSans-99"/>
       <path d="M 8.015625 75.875 
L 15.828125 75.875 
Q 23.140625 64.359375 26.78125 53.3125 
Q 30.421875 42.28125 30.421875 31.390625 
Q 30.421875 20.453125 26.78125 9.375 
Q 23.140625 -1.703125 15.828125 -13.1875 
L 8.015625 -13.1875 
Q 14.5 -2 17.703125 9.0625 
Q 20.90625 20.125 20.90625 31.390625 
Q 20.90625 42.671875 17.703125 53.65625 
Q 14.5 64.65625 8.015625 75.875 
z
" id="DejaVuSans-41"/>
      </defs>
      <use xlink:href="#DejaVuSans-70"/>
      <use x="57.519531" xlink:href="#DejaVuSans-32"/>
      <use x="89.306641" xlink:href="#DejaVuSans-40"/>
      <use x="128.320312" xlink:href="#DejaVuSans-108"/>
      <use x="156.103516" xlink:href="#DejaVuSans-97"/>
      <use x="217.382812" xlink:href="#DejaVuSans-114"/>
      <use x="256.746094" xlink:href="#DejaVuSans-103"/>
      <use x="320.222656" xlink:href="#DejaVuSans-101"/>
      <use x="381.746094" xlink:href="#DejaVuSans-115"/>
      <use x="433.845703" xlink:href="#DejaVuSans-116"/>
      <use x="473.054688" xlink:href="#DejaVuSans-32"/>
      <use x="504.841797" xlink:href="#DejaVuSans-114"/>
      <use x="545.955078" xlink:href="#DejaVuSans-97"/>
      <use x="607.234375" xlink:href="#DejaVuSans-116"/>
      <use x="646.443359" xlink:href="#DejaVuSans-105"/>
      <use x="674.226562" xlink:href="#DejaVuSans-111"/>
      <use x="735.408203" xlink:href="#DejaVuSans-32"/>
      <use x="767.195312" xlink:href="#DejaVuSans-111"/>
      <use x="828.376953" xlink:href="#DejaVuSans-102"/>
      <use x="863.582031" xlink:href="#DejaVuSans-32"/>
      <use x="895.369141" xlink:href="#DejaVuSans-117"/>
      <use x="958.748047" xlink:href="#DejaVuSans-115"/>
      <use x="1010.847656" xlink:href="#DejaVuSans-101"/>
      <use x="1072.371094" xlink:href="#DejaVuSans-114"/>
      <use x="1113.484375" xlink:href="#DejaVuSans-115"/>
      <use x="1165.583984" xlink:href="#DejaVuSans-32"/>
      <use x="1197.371094" xlink:href="#DejaVuSans-105"/>
      <use x="1225.154297" xlink:href="#DejaVuSans-110"/>
      <use x="1288.533203" xlink:href="#DejaVuSans-32"/>
      <use x="1320.320312" xlink:href="#DejaVuSans-97"/>
      <use x="1381.599609" xlink:href="#DejaVuSans-32"/>
      <use x="1413.386719" xlink:href="#DejaVuSans-99"/>
      <use x="1468.367188" xlink:href="#DejaVuSans-108"/>
      <use x="1496.150391" xlink:href="#DejaVuSans-117"/>
      <use x="1559.529297" xlink:href="#DejaVuSans-115"/>
      <use x="1611.628906" xlink:href="#DejaVuSans-116"/>
      <use x="1650.837891" xlink:href="#DejaVuSans-101"/>
      <use x="1712.361328" xlink:href="#DejaVuSans-114"/>
      <use x="1753.474609" xlink:href="#DejaVuSans-41"/>
     </g>
    </g>
   </g>
   <g id="matplotlib.axis_2">
    <g id="ytick_1">
     <g id="line2d_9">
      <path clip-path="url(#p467f8644a4)" d="M 135 504 
L 972 504 
" style="fill:none;stroke:#999999;stroke-dasharray:1.5,2.475;stroke-dashoffset:0;stroke-width:1.5;"/>
     </g>
     <g id="text_10">
      <!-- 0% -->
      <g style="fill:#262626;" transform="translate(96.324297 510.268711)scale(0.165 -0.165)">
       <defs>
        <path d="M 72.703125 32.078125 
Q 68.453125 32.078125 66.03125 28.46875 
Q 63.625 24.859375 63.625 18.40625 
Q 63.625 12.0625 66.03125 8.421875 
Q 68.453125 4.78125 72.703125 4.78125 
Q 76.859375 4.78125 79.265625 8.421875 
Q 81.6875 12.0625 81.6875 18.40625 
Q 81.6875 24.8125 79.265625 28.4375 
Q 76.859375 32.078125 72.703125 32.078125 
z
M 72.703125 38.28125 
Q 80.421875 38.28125 84.953125 32.90625 
Q 89.5 27.546875 89.5 18.40625 
Q 89.5 9.28125 84.9375 3.921875 
Q 80.375 -1.421875 72.703125 -1.421875 
Q 64.890625 -1.421875 60.34375 3.921875 
Q 55.8125 9.28125 55.8125 18.40625 
Q 55.8125 27.59375 60.375 32.9375 
Q 64.9375 38.28125 72.703125 38.28125 
z
M 22.3125 68.015625 
Q 18.109375 68.015625 15.6875 64.375 
Q 13.28125 60.75 13.28125 54.390625 
Q 13.28125 47.953125 15.671875 44.328125 
Q 18.0625 40.71875 22.3125 40.71875 
Q 26.5625 40.71875 28.96875 44.328125 
Q 31.390625 47.953125 31.390625 54.390625 
Q 31.390625 60.6875 28.953125 64.34375 
Q 26.515625 68.015625 22.3125 68.015625 
z
M 66.40625 74.21875 
L 74.21875 74.21875 
L 28.609375 -1.421875 
L 20.796875 -1.421875 
z
M 22.3125 74.21875 
Q 30.03125 74.21875 34.609375 68.875 
Q 39.203125 63.53125 39.203125 54.390625 
Q 39.203125 45.171875 34.640625 39.84375 
Q 30.078125 34.515625 22.3125 34.515625 
Q 14.546875 34.515625 10.03125 39.859375 
Q 5.515625 45.21875 5.515625 54.390625 
Q 5.515625 63.484375 10.046875 68.84375 
Q 14.59375 74.21875 22.3125 74.21875 
z
" id="DejaVuSans-37"/>
       </defs>
       <use xlink:href="#DejaVuSans-48"/>
       <use x="63.623047" xlink:href="#DejaVuSans-37"/>
      </g>
     </g>
    </g>
    <g id="ytick_2">
     <g id="line2d_10">
      <path clip-path="url(#p467f8644a4)" d="M 135 417.024 
L 972 417.024 
" style="fill:none;stroke:#999999;stroke-dasharray:1.5,2.475;stroke-dashoffset:0;stroke-width:1.5;"/>
     </g>
     <g id="text_11">
      <!-- 20% -->
      <g style="fill:#262626;" transform="translate(85.826172 423.292711)scale(0.165 -0.165)">
       <defs>
        <path d="M 19.1875 8.296875 
L 53.609375 8.296875 
L 53.609375 0 
L 7.328125 0 
L 7.328125 8.296875 
Q 12.9375 14.109375 22.625 23.890625 
Q 32.328125 33.6875 34.8125 36.53125 
Q 39.546875 41.84375 41.421875 45.53125 
Q 43.3125 49.21875 43.3125 52.78125 
Q 43.3125 58.59375 39.234375 62.25 
Q 35.15625 65.921875 28.609375 65.921875 
Q 23.96875 65.921875 18.8125 64.3125 
Q 13.671875 62.703125 7.8125 59.421875 
L 7.8125 69.390625 
Q 13.765625 71.78125 18.9375 73 
Q 24.125 74.21875 28.421875 74.21875 
Q 39.75 74.21875 46.484375 68.546875 
Q 53.21875 62.890625 53.21875 53.421875 
Q 53.21875 48.921875 51.53125 44.890625 
Q 49.859375 40.875 45.40625 35.40625 
Q 44.1875 33.984375 37.640625 27.21875 
Q 31.109375 20.453125 19.1875 8.296875 
z
" id="DejaVuSans-50"/>
       </defs>
       <use xlink:href="#DejaVuSans-50"/>
       <use x="63.623047" xlink:href="#DejaVuSans-48"/>
       <use x="127.246094" xlink:href="#DejaVuSans-37"/>
      </g>
     </g>
    </g>
    <g id="ytick_3">
     <g id="line2d_11">
      <path clip-path="url(#p467f8644a4)" d="M 135 330.048 
L 972 330.048 
" style="fill:none;stroke:#999999;stroke-dasharray:1.5,2.475;stroke-dashoffset:0;stroke-width:1.5;"/>
     </g>
     <g id="text_12">
      <!-- 40% -->
      <g style="fill:#262626;" transform="translate(85.826172 336.316711)scale(0.165 -0.165)">
       <use xlink:href="#DejaVuSans-52"/>
       <use x="63.623047" xlink:href="#DejaVuSans-48"/>
       <use x="127.246094" xlink:href="#DejaVuSans-37"/>
      </g>
     </g>
    </g>
    <g id="ytick_4">
     <g id="line2d_12">
      <path clip-path="url(#p467f8644a4)" d="M 135 243.072 
L 972 243.072 
" style="fill:none;stroke:#999999;stroke-dasharray:1.5,2.475;stroke-dashoffset:0;stroke-width:1.5;"/>
     </g>
     <g id="text_13">
      <!-- 60% -->
      <g style="fill:#262626;" transform="translate(85.826172 249.340711)scale(0.165 -0.165)">
       <use xlink:href="#DejaVuSans-54"/>
       <use x="63.623047" xlink:href="#DejaVuSans-48"/>
       <use x="127.246094" xlink:href="#DejaVuSans-37"/>
      </g>
     </g>
    </g>
    <g id="ytick_5">
     <g id="line2d_13">
      <path clip-path="url(#p467f8644a4)" d="M 135 156.096 
L 972 156.096 
" style="fill:none;stroke:#999999;stroke-dasharray:1.5,2.475;stroke-dashoffset:0;stroke-width:1.5;"/>
     </g>
     <g id="text_14">
      <!-- 80% -->
      <g style="fill:#262626;" transform="translate(85.826172 162.364711)scale(0.165 -0.165)">
       <use xlink:href="#DejaVuSans-56"/>
       <use x="63.623047" xlink:href="#DejaVuSans-48"/>
       <use x="127.246094" xlink:href="#DejaVuSans-37"/>
      </g>
     </g>
    </g>
    <g id="ytick_6">
     <g id="line2d_14">
      <path clip-path="url(#p467f8644a4)" d="M 135 69.12 
L 972 69.12 
" style="fill:none;stroke:#999999;stroke-dasharray:1.5,2.475;stroke-dashoffset:0;stroke-width:1.5;"/>
     </g>
     <g id="text_15">
      <!-- 100% -->
      <g style="fill:#262626;" transform="translate(75.328047 75.388711)scale(0.165 -0.165)">
       <use xlink:href="#DejaVuSans-49"/>
       <use x="63.623047" xlink:href="#DejaVuSans-48"/>
       <use x="127.246094" xlink:href="#DejaVuSans-48"/>
       <use x="190.869141" xlink:href="#DejaVuSans-37"/>
      </g>
     </g>
    </g>
    <g id="text_16">
     <!-- Proportion -->
     <g style="fill:#262626;" transform="translate(67.584609 332.992969)rotate(-90)scale(0.18 -0.18)">
      <defs>
       <path d="M 19.671875 64.796875 
L 19.671875 37.40625 
L 32.078125 37.40625 
Q 38.96875 37.40625 42.71875 40.96875 
Q 46.484375 44.53125 46.484375 51.125 
Q 46.484375 57.671875 42.71875 61.234375 
Q 38.96875 64.796875 32.078125 64.796875 
z
M 9.8125 72.90625 
L 32.078125 72.90625 
Q 44.34375 72.90625 50.609375 67.359375 
Q 56.890625 61.8125 56.890625 51.125 
Q 56.890625 40.328125 50.609375 34.8125 
Q 44.34375 29.296875 32.078125 29.296875 
L 19.671875 29.296875 
L 19.671875 0 
L 9.8125 0 
z
" id="DejaVuSans-80"/>
       <path d="M 18.109375 8.203125 
L 18.109375 -20.796875 
L 9.078125 -20.796875 
L 9.078125 54.6875 
L 18.109375 54.6875 
L 18.109375 46.390625 
Q 20.953125 51.265625 25.265625 53.625 
Q 29.59375 56 35.59375 56 
Q 45.5625 56 51.78125 48.09375 
Q 58.015625 40.1875 58.015625 27.296875 
Q 58.015625 14.40625 51.78125 6.484375 
Q 45.5625 -1.421875 35.59375 -1.421875 
Q 29.59375 -1.421875 25.265625 0.953125 
Q 20.953125 3.328125 18.109375 8.203125 
z
M 48.6875 27.296875 
Q 48.6875 37.203125 44.609375 42.84375 
Q 40.53125 48.484375 33.40625 48.484375 
Q 26.265625 48.484375 22.1875 42.84375 
Q 18.109375 37.203125 18.109375 27.296875 
Q 18.109375 17.390625 22.1875 11.75 
Q 26.265625 6.109375 33.40625 6.109375 
Q 40.53125 6.109375 44.609375 11.75 
Q 48.6875 17.390625 48.6875 27.296875 
z
" id="DejaVuSans-112"/>
      </defs>
      <use xlink:href="#DejaVuSans-80"/>
      <use x="58.552734" xlink:href="#DejaVuSans-114"/>
      <use x="97.416016" xlink:href="#DejaVuSans-111"/>
      <use x="158.597656" xlink:href="#DejaVuSans-112"/>
      <use x="222.074219" xlink:href="#DejaVuSans-111"/>
      <use x="283.255859" xlink:href="#DejaVuSans-114"/>
      <use x="324.369141" xlink:href="#DejaVuSans-116"/>
      <use x="363.578125" xlink:href="#DejaVuSans-105"/>
      <use x="391.361328" xlink:href="#DejaVuSans-111"/>
      <use x="452.542969" xlink:href="#DejaVuSans-110"/>
     </g>
    </g>
   </g>
   <g id="line2d_15">
    <path clip-path="url(#p467f8644a4)" d="M 933.954545 69.12 
L 933.954545 71.355887 
L 849.409091 71.355887 
L 849.409091 84.771208 
L 818.665289 84.771208 
L 818.665289 87.007095 
L 807.136364 87.007095 
L 807.136364 88.125039 
L 781.772727 88.125039 
L 781.772727 91.478869 
L 778.31405 91.478869 
L 778.31405 92.596812 
L 764.863636 92.596812 
L 764.863636 94.832699 
L 741.190909 94.832699 
L 741.190909 95.950643 
L 736.681818 95.950643 
L 736.681818 97.068586 
L 726.433884 97.068586 
L 726.433884 98.18653 
L 719.339161 98.18653 
L 719.339161 99.304473 
L 714.136364 99.304473 
L 714.136364 101.54036 
L 710.157754 101.54036 
L 710.157754 102.658303 
L 705.681818 102.658303 
L 705.681818 103.776247 
L 704.474026 103.776247 
L 704.474026 104.89419 
L 696.681818 104.89419 
L 696.681818 106.012134 
L 680.318182 106.012134 
L 680.318182 195.447609 
L 679.465623 195.447609 
L 679.465623 196.565553 
L 666.898268 196.565553 
L 666.898268 197.683496 
L 664.789425 197.683496 
L 664.789425 198.80144 
L 663.954545 198.80144 
L 663.954545 199.919383 
L 662.826019 199.919383 
L 662.826019 201.037326 
L 661.530303 201.037326 
L 661.530303 202.15527 
L 660.128223 202.15527 
L 660.128223 203.273213 
L 659.792696 203.273213 
L 659.792696 204.391157 
L 658.262846 204.391157 
L 658.262846 205.5091 
L 657.260331 205.5091 
L 657.260331 206.627044 
L 656.162338 206.627044 
L 656.162338 207.744987 
L 654.304196 207.744987 
L 654.304196 208.862931 
L 653.619617 208.862931 
L 653.619617 209.980874 
L 650.47861 209.980874 
L 650.47861 211.098817 
L 647.939072 211.098817 
L 647.939072 212.216761 
L 643.200665 212.216761 
L 643.200665 213.334704 
L 641.297203 213.334704 
L 641.297203 214.452648 
L 640.498138 214.452648 
L 640.498138 215.570591 
L 635.984319 215.570591 
L 635.984319 216.688535 
L 635.820574 216.688535 
L 635.820574 217.806478 
L 634.202479 217.806478 
L 634.202479 221.160308 
L 626.352998 221.160308 
L 626.352998 222.278252 
L 625.967532 222.278252 
L 625.967532 223.396195 
L 625.688811 223.396195 
L 625.688811 224.514139 
L 625.34002 224.514139 
L 625.34002 225.632082 
L 623.954545 225.632082 
L 623.954545 226.750026 
L 621.136364 226.750026 
L 621.136364 227.867969 
L 611.767813 227.867969 
L 611.767813 231.221799 
L 611.301484 231.221799 
L 611.301484 232.339743 
L 609.3 232.339743 
L 609.3 233.457686 
L 607.850649 233.457686 
L 607.850649 240.165347 
L 605.404488 240.165347 
L 605.404488 241.28329 
L 604.980648 241.28329 
L 604.980648 242.401234 
L 602.276224 242.401234 
L 602.276224 243.519177 
L 600.222488 243.519177 
L 600.222488 244.637121 
L 599.448617 244.637121 
L 599.448617 245.755064 
L 598.645025 245.755064 
L 598.645025 246.873008 
L 595.772727 246.873008 
L 595.772727 247.990951 
L 593.710643 247.990951 
L 593.710643 250.226838 
L 590.799465 250.226838 
L 590.799465 251.344781 
L 586.864577 251.344781 
L 586.864577 252.462725 
L 578.863636 252.462725 
L 578.863636 269.231877 
L 577.655844 269.231877 
L 577.655844 270.34982 
L 576.568148 270.34982 
L 576.568148 271.467763 
L 570.041502 271.467763 
L 570.041502 272.585707 
L 569.557736 272.585707 
L 569.557736 273.70365 
L 567.590909 273.70365 
L 567.590909 274.821594 
L 566.619122 274.821594 
L 566.619122 275.939537 
L 566.235631 275.939537 
L 566.235631 277.057481 
L 565.772727 277.057481 
L 565.772727 279.293368 
L 564.195509 279.293368 
L 564.195509 280.411311 
L 563.645455 280.411311 
L 563.645455 281.529254 
L 563.255245 281.529254 
L 563.255245 283.765141 
L 559.835352 283.765141 
L 559.778128 286.001028 
L 558.415433 286.001028 
L 558.415433 287.118972 
L 557.873041 287.118972 
L 557.873041 288.236915 
L 557.504785 288.236915 
L 557.504785 289.354859 
L 555.434046 289.354859 
L 555.434046 290.472802 
L 553.5 290.472802 
L 553.5 293.826632 
L 549.722588 293.826632 
L 549.722588 294.944576 
L 546.825359 294.944576 
L 546.825359 297.180463 
L 545.401435 297.180463 
L 545.401435 298.298406 
L 544.407376 298.298406 
L 544.407376 299.41635 
L 544.220621 299.41635 
L 544.220621 300.534293 
L 543.744755 300.534293 
L 543.744755 301.652237 
L 543.131218 301.652237 
L 543.131218 302.77018 
L 542.752696 302.77018 
L 542.752696 303.888123 
L 541.971074 303.888123 
L 541.971074 305.006067 
L 541.227273 305.006067 
L 541.19275 307.241954 
L 539.409091 307.241954 
L 539.409091 308.359897 
L 538.281818 308.359897 
L 538.281818 309.477841 
L 538.135048 309.477841 
L 538.135048 310.595784 
L 536.958498 310.595784 
L 536.958498 311.713728 
L 535.383117 311.713728 
L 535.383117 315.067558 
L 531.120321 315.067558 
L 531.120321 316.185501 
L 530.015152 316.185501 
L 530.015152 317.303445 
L 529.721591 317.303445 
L 529.721591 318.421388 
L 529.344156 318.421388 
L 529.344156 319.539332 
L 526.95666 319.539332 
L 526.95666 320.657275 
L 526.775862 320.657275 
L 526.775862 321.775219 
L 525.93083 321.775219 
L 525.93083 322.893162 
L 525.030612 322.893162 
L 525.030612 324.011105 
L 521.795455 324.011105 
L 521.795455 325.129049 
L 519.898601 325.129049 
L 519.898601 326.246992 
L 518.422631 326.246992 
L 518.422631 327.364936 
L 517.868305 327.364936 
L 517.868305 328.482879 
L 516.200535 328.482879 
L 516.200535 329.600823 
L 515.092208 329.600823 
L 515.092208 330.718766 
L 511.227273 330.718766 
L 511.227273 369.846787 
L 495.855372 369.846787 
L 495.855372 370.96473 
L 495.588807 370.96473 
L 495.588807 372.082674 
L 492.439394 372.082674 
L 492.439394 373.200617 
L 492.228294 373.200617 
L 492.228294 374.31856 
L 491.902597 374.31856 
L 491.902597 375.436504 
L 489.337036 375.436504 
L 489.337036 376.554447 
L 485.213287 376.554447 
L 485.213287 378.790334 
L 482.127907 378.790334 
L 482.127907 379.908278 
L 481.820158 379.908278 
L 481.820158 381.026221 
L 477.409091 381.026221 
L 477.409091 383.262108 
L 475.642103 383.262108 
L 475.642103 384.380051 
L 474.468379 384.380051 
L 474.468379 385.497995 
L 472.515133 385.497995 
L 472.515133 386.615938 
L 471.197588 386.615938 
L 471.197588 387.733882 
L 467.590909 387.733882 
L 467.590909 388.851825 
L 466.729665 388.851825 
L 466.729665 389.969769 
L 462.915584 389.969769 
L 462.915584 395.559486 
L 462.105891 395.559486 
L 462.105891 396.677429 
L 457.504982 396.677429 
L 457.504982 397.795373 
L 457.259148 397.795373 
L 457.240416 400.03126 
L 454.863636 400.03126 
L 454.863636 402.267147 
L 451.766733 402.267147 
L 451.766733 403.38509 
L 449.739669 403.38509 
L 449.739669 404.503033 
L 445.240576 404.503033 
L 445.240576 406.73892 
L 443.590909 406.73892 
L 443.590909 407.856864 
L 437.299154 407.856864 
L 437.299154 408.974807 
L 436.075758 408.974807 
L 436.075758 410.092751 
L 434.863636 410.092751 
L 434.813671 412.328638 
L 426.681818 412.328638 
L 426.681818 424.626015 
L 423.005929 424.626015 
L 423.005929 425.743959 
L 417.935737 425.743959 
L 417.935737 426.861902 
L 398.5 426.861902 
L 398.5 430.215733 
L 375.954545 430.215733 
L 375.954545 435.80545 
L 357.508264 435.80545 
L 357.508264 438.041337 
L 342.136364 438.041337 
L 342.136364 439.15928 
L 329.129371 439.15928 
L 329.129371 440.277224 
L 325.227273 440.277224 
L 325.227273 441.395167 
L 317.980519 441.395167 
L 317.980519 442.513111 
L 311.392562 442.513111 
L 311.392562 443.631054 
L 308.318182 443.631054 
L 308.318182 444.748997 
L 302.256432 444.748997 
L 302.256432 445.866941 
L 299.863636 445.866941 
L 299.863636 449.220771 
L 285.772727 449.220771 
L 285.772727 451.456658 
L 274.5 451.456658 
L 274.5 452.574602 
L 257.590909 452.574602 
L 257.590909 453.692545 
L 173.045455 453.692545 
L 173.045455 504 
L 173.045455 504 
" style="fill:none;stroke:#8172b3;stroke-linecap:round;stroke-width:2.25;"/>
   </g>
   <g id="line2d_16">
    <path clip-path="url(#p467f8644a4)" d="M 849.409091 69.12 
L 849.409091 75.827661 
L 781.772727 75.827661 
L 781.772727 80.299434 
L 764.863636 80.299434 
L 764.863636 81.417378 
L 743.727273 81.417378 
L 743.727273 82.535321 
L 741.190909 82.535321 
L 741.190909 83.653265 
L 736.681818 83.653265 
L 736.681818 85.889152 
L 726.433884 85.889152 
L 726.433884 88.125039 
L 719.339161 88.125039 
L 719.339161 89.242982 
L 710.157754 89.242982 
L 710.157754 90.360925 
L 680.318182 90.360925 
L 680.318182 159.673419 
L 646.5 159.673419 
L 646.5 160.791362 
L 641.297203 160.791362 
L 641.297203 161.909306 
L 634.202479 161.909306 
L 634.202479 164.145193 
L 631.227273 164.145193 
L 631.227273 165.263136 
L 621.491597 165.263136 
L 621.491597 166.38108 
L 618.203154 166.38108 
L 618.203154 167.499023 
L 615.834361 167.499023 
L 615.834361 168.616967 
L 610.08042 168.616967 
L 610.08042 169.73491 
L 607.850649 169.73491 
L 607.850649 171.970797 
L 604.766925 171.970797 
L 604.766925 173.08874 
L 602.276224 173.08874 
L 602.276224 174.206684 
L 600.222488 174.206684 
L 600.222488 175.324627 
L 597.0346 175.324627 
L 597.0346 176.442571 
L 595.772727 176.442571 
L 595.772727 178.678458 
L 595.284025 178.678458 
L 595.284025 179.796401 
L 593.710643 179.796401 
L 593.710643 180.914344 
L 590.799465 180.914344 
L 590.799465 182.032288 
L 578.863636 182.032288 
L 578.863636 194.329666 
L 565.772727 194.329666 
L 565.772727 195.447609 
L 565.028926 195.447609 
L 565.028926 196.565553 
L 564.80063 196.565553 
L 564.80063 197.683496 
L 561.594778 197.683496 
L 561.594778 198.80144 
L 560.858052 198.80144 
L 560.858052 199.919383 
L 560.003497 199.919383 
L 560.003497 201.037326 
L 559.538961 201.037326 
L 559.538961 202.15527 
L 557.873041 202.15527 
L 557.873041 203.273213 
L 556.927518 203.273213 
L 556.927518 204.391157 
L 555.72488 204.391157 
L 555.72488 205.5091 
L 553.5 205.5091 
L 553.5 209.980874 
L 550.355748 209.980874 
L 550.355748 211.098817 
L 550.116626 211.098817 
L 550.116626 212.216761 
L 546.825359 212.216761 
L 546.825359 213.334704 
L 544.220621 213.334704 
L 544.220621 214.452648 
L 543.435065 214.452648 
L 543.435065 215.570591 
L 541.971074 215.570591 
L 541.971074 216.688535 
L 541.455815 216.688535 
L 541.455815 217.806478 
L 538.281818 217.806478 
L 538.281818 218.924422 
L 535.383117 218.924422 
L 535.383117 222.278252 
L 531.120321 222.278252 
L 531.120321 223.396195 
L 529.507371 223.396195 
L 529.507371 224.514139 
L 528.136364 224.514139 
L 528.136364 225.632082 
L 526.95666 225.632082 
L 526.95666 226.750026 
L 525.93083 226.750026 
L 525.93083 227.867969 
L 524.234266 227.867969 
L 524.234266 228.985913 
L 519.97147 228.985913 
L 519.97147 230.103856 
L 514.678108 230.103856 
L 514.678108 231.221799 
L 511.227273 231.221799 
L 511.227273 261.406272 
L 509.878591 261.406272 
L 509.878591 262.524216 
L 506.94649 262.524216 
L 506.94649 263.642159 
L 505.732443 263.642159 
L 505.732443 264.760103 
L 502.087224 264.760103 
L 502.087224 265.878046 
L 500.318182 265.878046 
L 500.318182 266.99599 
L 499.508101 266.99599 
L 499.508101 268.113933 
L 499.149351 268.113933 
L 499.149351 269.231877 
L 494.730599 269.231877 
L 494.730599 271.467763 
L 493.42823 271.467763 
L 493.42823 272.585707 
L 491.165639 272.585707 
L 491.097403 274.821594 
L 490.854874 274.821594 
L 490.854874 275.939537 
L 490.489708 275.939537 
L 490.487334 278.175424 
L 489.82336 278.175424 
L 489.82336 279.293368 
L 487.904389 279.293368 
L 487.904389 280.411311 
L 487.554545 280.411311 
L 487.554545 281.529254 
L 485.213287 281.529254 
L 485.213287 282.647198 
L 484.017241 282.647198 
L 484.017241 283.765141 
L 481.820158 283.765141 
L 481.820158 286.001028 
L 479.158307 286.001028 
L 479.158307 287.118972 
L 478.072193 287.118972 
L 478.072193 288.236915 
L 477.409091 288.236915 
L 477.409091 291.590746 
L 476.541958 291.590746 
L 476.541958 292.708689 
L 474.590909 292.708689 
L 474.590909 293.826632 
L 474.39559 293.826632 
L 474.39559 294.944576 
L 474.238636 294.944576 
L 474.238636 296.062519 
L 473.651515 296.062519 
L 473.651515 297.180463 
L 472.069378 297.180463 
L 472.069378 298.298406 
L 471.441176 298.298406 
L 471.441176 299.41635 
L 470.918134 299.41635 
L 470.918134 300.534293 
L 470.79249 300.534293 
L 470.79249 301.652237 
L 469.933493 301.652237 
L 469.933493 302.77018 
L 468.419448 302.77018 
L 468.419448 303.888123 
L 467.590909 303.888123 
L 467.590909 305.006067 
L 466.729665 305.006067 
L 466.729665 306.12401 
L 466.56175 306.12401 
L 466.56175 307.241954 
L 466.442182 307.241954 
L 466.442182 308.359897 
L 462.915584 308.359897 
L 462.915584 315.067558 
L 460.180961 315.067558 
L 460.180961 316.185501 
L 459.199301 316.185501 
L 459.199301 317.303445 
L 454.863636 317.303445 
L 454.863636 318.421388 
L 454.523071 318.421388 
L 454.523071 319.539332 
L 452.56308 319.539332 
L 452.56308 320.657275 
L 446.811688 320.657275 
L 446.811688 321.775219 
L 446.192308 321.775219 
L 446.192308 325.129049 
L 443.590909 325.129049 
L 443.590909 326.246992 
L 442.534091 326.246992 
L 442.534091 327.364936 
L 439.725974 327.364936 
L 439.725974 328.482879 
L 437.709486 328.482879 
L 437.709486 329.600823 
L 434.863636 329.600823 
L 434.863636 330.718766 
L 429.469031 330.718766 
L 429.469031 331.83671 
L 426.681818 331.83671 
L 426.681818 344.134087 
L 422.430929 344.134087 
L 422.430929 345.252031 
L 419.351287 345.252031 
L 419.351287 346.369974 
L 419.221925 346.369974 
L 419.221925 347.487918 
L 418.817125 347.487918 
L 418.817125 348.605861 
L 417.743371 348.605861 
L 417.743371 349.723805 
L 417.287879 349.723805 
L 417.287879 350.841748 
L 414.603896 350.841748 
L 414.603896 351.959692 
L 409.08256 351.959692 
L 409.08256 353.077635 
L 407.171329 353.077635 
L 407.171329 354.195578 
L 405.2908 354.195578 
L 405.2908 355.313522 
L 403.490104 355.313522 
L 403.490104 356.431465 
L 402.136364 356.431465 
L 402.136364 357.549409 
L 400.950593 357.549409 
L 400.950593 358.667352 
L 400.69366 358.667352 
L 400.69366 359.785296 
L 400.212502 359.785296 
L 400.212502 360.903239 
L 398.5 360.903239 
L 398.5 364.257069 
L 396.20814 364.257069 
L 396.20814 365.375013 
L 395.750554 365.375013 
L 395.750554 366.492956 
L 390.448052 366.492956 
L 390.448052 367.6109 
L 386.633971 367.6109 
L 386.633971 368.728843 
L 385.392178 368.728843 
L 385.392178 369.846787 
L 384.409091 369.846787 
L 384.409091 370.96473 
L 383.378049 370.96473 
L 383.378049 372.082674 
L 378.277932 372.082674 
L 378.277932 373.200617 
L 375.954545 373.200617 
L 375.954545 386.615938 
L 371.543478 386.615938 
L 371.543478 387.733882 
L 369.409091 387.733882 
L 369.409091 388.851825 
L 367.320116 388.851825 
L 367.320116 389.969769 
L 363.272727 389.969769 
L 363.272727 391.087712 
L 357.508264 391.087712 
L 357.508264 395.559486 
L 355.435649 395.559486 
L 355.435649 396.677429 
L 347.967085 396.677429 
L 347.967085 397.795373 
L 342.136364 397.795373 
L 342.136364 407.856864 
L 329.129371 407.856864 
L 329.129371 408.974807 
L 325.227273 408.974807 
L 325.227273 410.092751 
L 323.348485 410.092751 
L 323.348485 411.210694 
L 317.980519 411.210694 
L 317.980519 413.446581 
L 314.609937 413.446581 
L 314.609937 414.564524 
L 311.392562 414.564524 
L 311.392562 415.682468 
L 306.538278 415.682468 
L 306.538278 416.800411 
L 299.863636 416.800411 
L 299.863636 419.036298 
L 285.772727 419.036298 
L 285.772727 421.272185 
L 274.5 421.272185 
L 274.5 422.390129 
L 273.542882 422.390129 
L 273.542882 423.508072 
L 265.27686 423.508072 
L 265.27686 424.626015 
L 257.590909 424.626015 
L 257.590909 425.743959 
L 240.681818 425.743959 
L 240.681818 426.861902 
L 173.045455 426.861902 
L 173.045455 504 
L 173.045455 504 
" style="fill:none;stroke:#c44e52;stroke-linecap:round;stroke-width:2.25;"/>
   </g>
   <g id="line2d_17">
    <path clip-path="url(#p467f8644a4)" d="M 849.409091 69.12 
L 849.409091 73.591774 
L 781.772727 73.591774 
L 781.772727 76.945604 
L 764.863636 76.945604 
L 764.863636 78.063548 
L 741.190909 78.063548 
L 741.190909 79.181491 
L 737.96281 79.181491 
L 737.96281 80.299434 
L 736.681818 80.299434 
L 736.681818 82.535321 
L 726.433884 82.535321 
L 726.433884 83.653265 
L 719.339161 83.653265 
L 719.339161 84.771208 
L 710.157754 84.771208 
L 710.157754 85.889152 
L 680.318182 85.889152 
L 680.318182 149.611928 
L 646.5 149.611928 
L 646.5 150.729871 
L 634.202479 150.729871 
L 634.202479 151.847815 
L 615.834361 151.847815 
L 615.834361 152.965758 
L 614.671123 152.965758 
L 614.671123 154.083702 
L 613.026902 154.083702 
L 613.026902 155.201645 
L 607.850649 155.201645 
L 607.850649 157.437532 
L 604.766925 157.437532 
L 604.766925 158.555476 
L 600.222488 158.555476 
L 600.222488 159.673419 
L 598.5 159.673419 
L 598.5 160.791362 
L 595.772727 160.791362 
L 595.772727 163.027249 
L 590.799465 163.027249 
L 590.799465 164.145193 
L 589.463365 164.145193 
L 589.463365 165.263136 
L 586.487388 165.263136 
L 586.487388 166.38108 
L 578.863636 166.38108 
L 578.863636 179.796401 
L 568.965632 179.796401 
L 568.965632 180.914344 
L 565.772727 180.914344 
L 565.772727 182.032288 
L 565.028926 182.032288 
L 565.028926 183.150231 
L 563.255245 183.150231 
L 563.255245 185.386118 
L 559.538961 185.386118 
L 559.538961 186.504062 
L 556.927518 186.504062 
L 556.927518 187.622005 
L 553.932827 187.622005 
L 553.932827 188.739949 
L 553.5 188.739949 
L 553.5 193.211722 
L 546.825359 193.211722 
L 546.825359 194.329666 
L 546.346154 194.329666 
L 546.346154 195.447609 
L 544.710621 195.447609 
L 544.710621 196.565553 
L 544.220621 196.565553 
L 544.220621 197.683496 
L 542.64987 197.683496 
L 542.64987 198.80144 
L 541.971074 198.80144 
L 541.971074 203.273213 
L 538.281818 203.273213 
L 538.281818 204.391157 
L 538.0671 204.391157 
L 538.0671 205.5091 
L 535.383117 205.5091 
L 535.383117 207.744987 
L 533.841254 207.744987 
L 533.841254 208.862931 
L 531.120321 208.862931 
L 531.120321 209.980874 
L 529.507371 209.980874 
L 529.507371 211.098817 
L 529.344156 211.098817 
L 529.344156 212.216761 
L 528.136364 212.216761 
L 528.136364 213.334704 
L 525.93083 213.334704 
L 525.93083 214.452648 
L 525.318182 214.452648 
L 525.318182 215.570591 
L 524.234266 215.570591 
L 524.234266 216.688535 
L 523.31869 216.688535 
L 523.31869 217.806478 
L 522.888715 217.806478 
L 522.888715 218.924422 
L 515.380766 218.924422 
L 515.380766 220.042365 
L 511.227273 220.042365 
L 511.227273 251.344781 
L 502.665708 251.344781 
L 502.665708 252.462725 
L 502.087224 252.462725 
L 502.087224 253.580668 
L 499.149351 253.580668 
L 499.149351 254.698612 
L 496.523715 254.698612 
L 496.523715 255.816555 
L 494.730599 255.816555 
L 494.730599 256.934499 
L 493.42823 256.934499 
L 493.42823 259.170386 
L 492.682906 259.170386 
L 492.682906 260.288329 
L 491.165639 260.288329 
L 491.165639 261.406272 
L 490.522263 261.406272 
L 490.522263 262.524216 
L 487.749362 262.524216 
L 487.749362 263.642159 
L 485.213287 263.642159 
L 485.213287 264.760103 
L 482.513722 264.760103 
L 482.513722 265.878046 
L 481.820158 265.878046 
L 481.820158 266.99599 
L 477.409091 266.99599 
L 477.409091 270.34982 
L 476.981013 270.34982 
L 476.981013 271.467763 
L 476.593588 271.467763 
L 476.593588 272.585707 
L 474.993506 272.585707 
L 474.993506 273.70365 
L 474.238636 273.70365 
L 474.238636 274.821594 
L 471.772727 274.821594 
L 471.772727 275.939537 
L 471.441176 275.939537 
L 471.441176 278.175424 
L 470.412226 278.175424 
L 470.412226 279.293368 
L 469.985588 279.293368 
L 469.985588 280.411311 
L 469.373087 280.411311 
L 469.373087 281.529254 
L 467.590909 281.529254 
L 467.590909 282.647198 
L 466.56175 282.647198 
L 466.56175 283.765141 
L 466.407996 283.765141 
L 466.407996 284.883085 
L 462.915584 284.883085 
L 462.915584 291.590746 
L 460.694357 291.590746 
L 460.694357 292.708689 
L 459.764822 292.708689 
L 459.764822 293.826632 
L 459.328083 293.826632 
L 459.328083 294.944576 
L 457.411721 294.944576 
L 457.411721 296.062519 
L 456.050239 296.062519 
L 456.050239 297.180463 
L 454.913035 297.180463 
L 454.808463 300.534293 
L 452.846411 300.534293 
L 452.846411 301.652237 
L 451.227273 301.652237 
L 451.227273 302.77018 
L 450.527972 302.77018 
L 450.527972 303.888123 
L 446.972727 303.888123 
L 446.972727 305.006067 
L 444.867067 305.006067 
L 444.867067 306.12401 
L 443.795249 306.12401 
L 443.795249 307.241954 
L 443.590909 307.241954 
L 443.590909 308.359897 
L 442.210575 308.359897 
L 442.210575 309.477841 
L 440.0311 309.477841 
L 440.0311 310.595784 
L 439.725974 310.595784 
L 439.688811 312.831671 
L 438.75974 312.831671 
L 438.75974 313.949614 
L 437.709486 313.949614 
L 437.709486 315.067558 
L 434.863636 315.067558 
L 434.863636 316.185501 
L 433.185315 316.185501 
L 433.185315 319.539332 
L 429.469031 319.539332 
L 429.469031 320.657275 
L 426.681818 320.657275 
L 426.681818 331.83671 
L 419.351287 331.83671 
L 419.351287 332.954653 
L 419.221925 332.954653 
L 419.221925 334.072596 
L 417.935737 334.072596 
L 417.935737 335.19054 
L 417.287879 335.19054 
L 417.287879 337.426427 
L 410.952431 337.426427 
L 410.952431 338.54437 
L 408.107598 338.54437 
L 408.107598 339.662314 
L 407.171329 339.662314 
L 407.171329 340.780257 
L 405.427374 340.780257 
L 405.427374 341.898201 
L 404.941558 341.898201 
L 404.941558 343.016144 
L 402.136364 343.016144 
L 402.136364 344.134087 
L 398.5 344.134087 
L 398.5 347.487918 
L 396.12322 347.487918 
L 396.12322 348.605861 
L 395.39141 348.605861 
L 395.39141 349.723805 
L 395.279221 349.723805 
L 395.279221 350.841748 
L 393.598814 350.841748 
L 393.598814 353.077635 
L 391.426565 353.077635 
L 391.426565 354.195578 
L 390.448052 354.195578 
L 390.448052 355.313522 
L 388.183442 355.313522 
L 388.183442 356.431465 
L 386.633971 356.431465 
L 386.568507 358.667352 
L 386.140207 358.667352 
L 386.140207 359.785296 
L 385.392178 359.785296 
L 385.392178 360.903239 
L 375.954545 360.903239 
L 375.954545 370.96473 
L 371.543478 370.96473 
L 371.543478 372.082674 
L 371.005543 372.082674 
L 371.005543 373.200617 
L 367.320116 373.200617 
L 367.320116 374.31856 
L 365.886537 374.31856 
L 365.886537 375.436504 
L 363.272727 375.436504 
L 363.272727 376.554447 
L 357.508264 376.554447 
L 357.508264 381.026221 
L 354.508869 381.026221 
L 354.508869 382.144165 
L 353.045455 382.144165 
L 353.045455 383.262108 
L 347.967085 383.262108 
L 347.967085 384.380051 
L 342.136364 384.380051 
L 342.136364 397.795373 
L 332.636874 397.795373 
L 332.636874 398.913316 
L 329.129371 398.913316 
L 329.129371 400.03126 
L 325.227273 400.03126 
L 325.227273 401.149203 
L 323.348485 401.149203 
L 323.348485 402.267147 
L 317.980519 402.267147 
L 317.980519 404.503033 
L 314.609937 404.503033 
L 314.609937 405.620977 
L 311.392562 405.620977 
L 311.392562 406.73892 
L 308.318182 406.73892 
L 308.318182 407.856864 
L 306.538278 407.856864 
L 306.538278 408.974807 
L 299.863636 408.974807 
L 299.863636 411.210694 
L 285.772727 411.210694 
L 285.772727 413.446581 
L 274.5 413.446581 
L 274.5 417.918355 
L 269.953688 417.918355 
L 269.953688 419.036298 
L 265.27686 419.036298 
L 265.27686 420.154242 
L 257.590909 420.154242 
L 257.590909 421.272185 
L 240.681818 421.272185 
L 240.681818 422.390129 
L 173.045455 422.390129 
L 173.045455 504 
L 173.045455 504 
" style="fill:none;stroke:#55a868;stroke-linecap:round;stroke-width:2.25;"/>
   </g>
   <g id="line2d_18">
    <path clip-path="url(#p467f8644a4)" d="M 933.954545 69.12 
L 933.954545 70.237943 
L 849.409091 70.237943 
L 849.409091 71.355887 
L 781.772727 71.355887 
L 781.772727 72.47383 
L 719.339161 72.47383 
L 719.339161 73.591774 
L 710.157754 73.591774 
L 710.157754 74.709717 
L 686.082645 74.709717 
L 686.082645 75.827661 
L 680.318182 75.827661 
L 680.318182 119.427455 
L 646.5 119.427455 
L 646.5 120.545398 
L 634.202479 120.545398 
L 634.202479 121.663342 
L 623.954545 121.663342 
L 623.954545 123.899229 
L 578.863636 123.899229 
L 578.863636 135.078663 
L 553.5 135.078663 
L 553.5 136.196607 
L 550.911874 136.196607 
L 550.911874 137.31455 
L 544.220621 137.31455 
L 544.220621 138.432494 
L 542.203591 138.432494 
L 542.203591 139.550437 
L 541.971074 139.550437 
L 541.971074 142.904267 
L 536.464722 142.904267 
L 536.464722 144.022211 
L 532.038462 144.022211 
L 532.038462 145.140154 
L 531.120321 145.140154 
L 531.120321 147.376041 
L 529.855932 147.376041 
L 529.855932 148.493985 
L 529.215667 148.493985 
L 529.215667 149.611928 
L 511.227273 149.611928 
L 511.227273 179.796401 
L 507.845455 179.796401 
L 507.845455 180.914344 
L 500.047708 180.914344 
L 500.047708 182.032288 
L 499.149351 182.032288 
L 499.149351 183.150231 
L 493.42823 183.150231 
L 493.42823 185.386118 
L 487.071429 185.386118 
L 487.071429 186.504062 
L 485.213287 186.504062 
L 485.213287 188.739949 
L 484.440594 188.739949 
L 484.440594 189.857892 
L 483.045455 189.857892 
L 483.045455 190.975835 
L 481.820158 190.975835 
L 481.820158 192.093779 
L 477.995533 192.093779 
L 477.995533 193.211722 
L 477.755352 193.211722 
L 477.755352 194.329666 
L 477.409091 194.329666 
L 477.409091 196.565553 
L 474.667076 196.565553 
L 474.667076 197.683496 
L 472.166759 197.683496 
L 472.166759 198.80144 
L 469.985588 198.80144 
L 469.985588 201.037326 
L 468.28355 201.037326 
L 468.28355 202.15527 
L 467.590909 202.15527 
L 467.506288 204.391157 
L 462.915584 204.391157 
L 462.915584 211.098817 
L 459.582211 211.098817 
L 459.582211 212.216761 
L 457.830144 212.216761 
L 457.830144 213.334704 
L 449.739669 213.334704 
L 449.739669 214.452648 
L 448.309725 214.452648 
L 448.309725 215.570591 
L 448.176425 215.570591 
L 448.176425 216.688535 
L 447.569519 216.688535 
L 447.569519 217.806478 
L 447.246929 217.806478 
L 447.246929 220.042365 
L 445.541958 220.042365 
L 445.541958 221.160308 
L 445.240576 221.160308 
L 445.240576 222.278252 
L 440.0311 222.278252 
L 440.0311 223.396195 
L 438.286096 223.396195 
L 438.286096 224.514139 
L 437.709486 224.514139 
L 437.709486 226.750026 
L 433.766633 226.750026 
L 433.766633 227.867969 
L 432.720779 227.867969 
L 432.720779 228.985913 
L 429.892405 228.985913 
L 429.892405 230.103856 
L 426.681818 230.103856 
L 426.681818 245.755064 
L 423.900163 245.755064 
L 423.863636 247.990951 
L 418.884679 247.990951 
L 418.884679 249.108895 
L 417.935737 249.108895 
L 417.935737 250.226838 
L 417.514239 250.226838 
L 417.514239 251.344781 
L 416.536364 251.344781 
L 416.536364 252.462725 
L 411.32127 252.462725 
L 411.32127 253.580668 
L 411.153061 253.580668 
L 411.153061 254.698612 
L 407.171329 254.698612 
L 407.171329 255.816555 
L 404.080558 255.816555 
L 404.080558 256.934499 
L 403.009091 256.934499 
L 403.009091 258.052442 
L 402.136364 258.052442 
L 402.136364 260.288329 
L 400.950593 260.288329 
L 400.950593 261.406272 
L 400.667832 261.406272 
L 400.667832 262.524216 
L 399.144156 262.524216 
L 399.144156 263.642159 
L 398.5 263.642159 
L 398.5 265.878046 
L 397.459647 265.878046 
L 397.459647 266.99599 
L 393.954545 266.99599 
L 393.954545 268.113933 
L 393.802373 268.113933 
L 393.802373 269.231877 
L 393.598814 269.231877 
L 393.598814 270.34982 
L 392.710382 270.34982 
L 392.710382 271.467763 
L 390.448052 271.467763 
L 390.448052 273.70365 
L 389.992281 273.70365 
L 389.992281 274.821594 
L 389.382353 274.821594 
L 389.382353 275.939537 
L 389.106061 275.939537 
L 389.106061 277.057481 
L 387.08458 277.057481 
L 387.08458 278.175424 
L 386.633971 278.175424 
L 386.633971 279.293368 
L 386.422078 279.293368 
L 386.422078 280.411311 
L 382.951411 280.411311 
L 382.951411 281.529254 
L 381.120548 281.529254 
L 381.120548 282.647198 
L 380.383117 282.647198 
L 380.383117 283.765141 
L 379.783019 283.765141 
L 379.783019 284.883085 
L 379.125 284.883085 
L 379.125 286.001028 
L 378.300315 286.001028 
L 378.300315 287.118972 
L 375.954545 287.118972 
L 375.954545 299.41635 
L 373.724775 299.41635 
L 373.724775 300.534293 
L 369.743043 300.534293 
L 369.743043 301.652237 
L 369.552506 301.652237 
L 369.552506 302.77018 
L 369.409091 302.77018 
L 369.409091 303.888123 
L 368.15035 303.888123 
L 368.15035 307.241954 
L 366.064322 307.241954 
L 366.064322 308.359897 
L 365.752412 308.359897 
L 365.752412 309.477841 
L 365.459248 309.477841 
L 365.459248 310.595784 
L 365.27512 310.595784 
L 365.27512 311.713728 
L 360.924242 311.713728 
L 360.924242 313.949614 
L 359.935407 313.949614 
L 359.935407 315.067558 
L 357.508264 315.067558 
L 357.508264 316.185501 
L 355.36442 316.185501 
L 355.36442 317.303445 
L 355.143357 317.303445 
L 355.143357 318.421388 
L 354.214286 318.421388 
L 354.214286 319.539332 
L 352.360465 319.539332 
L 352.360465 320.657275 
L 351.952962 320.657275 
L 351.949675 322.893162 
L 347.91151 322.893162 
L 347.91151 324.011105 
L 347.420455 324.011105 
L 347.420455 325.129049 
L 346.967532 325.129049 
L 346.967532 326.246992 
L 346.260532 326.246992 
L 346.260532 327.364936 
L 345.675476 327.364936 
L 345.675476 328.482879 
L 342.826531 328.482879 
L 342.826531 329.600823 
L 342.136364 329.600823 
L 342.136364 343.016144 
L 338.061884 343.016144 
L 338.061884 344.134087 
L 336.681818 344.134087 
L 336.681818 345.252031 
L 334.784585 345.252031 
L 334.784585 346.369974 
L 331.42566 346.369974 
L 331.42566 347.487918 
L 329.129371 347.487918 
L 329.129371 350.841748 
L 327.17059 350.841748 
L 327.17059 351.959692 
L 323.348485 351.959692 
L 323.291117 354.195578 
L 320.318182 354.195578 
L 320.318182 355.313522 
L 320.081028 355.313522 
L 320.081028 356.431465 
L 317.980519 356.431465 
L 317.980519 360.903239 
L 314.609937 360.903239 
L 314.609937 362.021183 
L 312.982759 362.021183 
L 312.982759 363.139126 
L 311.392562 363.139126 
L 311.392562 365.375013 
L 308.318182 365.375013 
L 308.318182 367.6109 
L 305.37747 367.6109 
L 305.37747 368.728843 
L 305.018847 368.728843 
L 305.018847 369.846787 
L 302.561896 369.846787 
L 302.561896 370.96473 
L 299.863636 370.96473 
L 299.863636 374.31856 
L 285.772727 374.31856 
L 285.772727 377.672391 
L 274.5 377.672391 
L 274.5 383.262108 
L 265.27686 383.262108 
L 265.27686 386.615938 
L 264.240552 386.615938 
L 264.240552 387.733882 
L 257.590909 387.733882 
L 257.590909 392.205656 
L 254.400515 392.205656 
L 254.400515 393.323599 
L 253.141148 393.323599 
L 253.141148 394.441542 
L 240.681818 394.441542 
L 240.681818 396.677429 
L 236.454545 396.677429 
L 236.454545 398.913316 
L 173.045455 398.913316 
L 173.045455 504 
L 173.045455 504 
" style="fill:none;stroke:#dd8452;stroke-linecap:round;stroke-width:2.25;"/>
   </g>
   <g id="line2d_19">
    <path clip-path="url(#p467f8644a4)" d="M 680.318182 69.12 
L 680.318182 75.827661 
L 650.47861 75.827661 
L 650.47861 76.945604 
L 641.297203 76.945604 
L 641.297203 78.063548 
L 578.863636 78.063548 
L 578.863636 79.181491 
L 511.227273 79.181491 
L 511.227273 89.242982 
L 462.915584 89.242982 
L 462.915584 90.360925 
L 426.681818 90.360925 
L 426.681818 92.596812 
L 375.954545 92.596812 
L 375.954545 93.714756 
L 357.508264 93.714756 
L 357.508264 94.832699 
L 349.123591 94.832699 
L 349.123591 95.950643 
L 342.136364 95.950643 
L 342.136364 101.54036 
L 299.863636 101.54036 
L 299.863636 102.658303 
L 285.772727 102.658303 
L 285.772727 103.776247 
L 281.746753 103.776247 
L 281.746753 104.89419 
L 274.5 104.89419 
L 274.5 106.012134 
L 257.590909 106.012134 
L 257.590909 107.130077 
L 251.087413 107.130077 
L 251.087413 109.365964 
L 240.681818 109.365964 
L 240.681818 110.483907 
L 232.724599 110.483907 
L 232.724599 111.601851 
L 227.885749 111.601851 
L 227.885749 112.719794 
L 217.156126 112.719794 
L 217.156126 114.955681 
L 205.772727 114.955681 
L 205.772727 116.073625 
L 204.785424 116.073625 
L 204.785424 117.191568 
L 201.227273 117.191568 
L 201.227273 118.309512 
L 200.465602 118.309512 
L 200.465602 119.427455 
L 197.492333 119.427455 
L 197.492333 120.545398 
L 196.639535 120.545398 
L 196.639535 121.663342 
L 194.631528 121.663342 
L 194.631528 122.781285 
L 194.181818 122.781285 
L 194.181818 123.899229 
L 192.980383 123.899229 
L 192.980383 125.017172 
L 189.529945 125.017172 
L 189.529945 126.135116 
L 184.444842 126.135116 
L 184.368506 129.488946 
L 184.194306 129.488946 
L 184.194306 130.606889 
L 183.838491 130.606889 
L 183.838491 131.724833 
L 182.707792 131.724833 
L 182.707792 132.842776 
L 182.439394 132.842776 
L 182.439394 133.96072 
L 181.944976 133.96072 
L 181.944976 135.078663 
L 181.643297 135.078663 
L 181.643297 136.196607 
L 181.097403 136.196607 
L 181.097403 137.31455 
L 179.084416 137.31455 
L 179.084416 138.432494 
L 178.842857 138.432494 
L 178.842857 139.550437 
L 178.559289 139.550437 
L 178.549318 141.786324 
L 177.764271 141.786324 
L 177.764271 142.904267 
L 177.169623 142.904267 
L 177.071429 146.258098 
L 176.873928 146.258098 
L 176.873928 147.376041 
L 175.977667 147.376041 
L 175.977667 148.493985 
L 175.462958 148.493985 
L 175.462958 149.611928 
L 175.255793 149.611928 
L 175.254189 151.847815 
L 175.074038 151.847815 
L 175.074038 152.965758 
L 174.823799 152.965758 
L 174.823799 154.083702 
L 174.225159 154.083702 
L 174.225159 155.201645 
L 174.067152 155.201645 
L 174.067152 156.319589 
L 173.898014 156.319589 
L 173.819917 159.673419 
L 173.762955 159.673419 
L 173.695804 165.263136 
L 173.045455 165.263136 
L 173.045455 504 
L 173.045455 504 
" style="fill:none;stroke:#4c72b0;stroke-linecap:round;stroke-width:2.25;"/>
   </g>
   <g id="line2d_20">
    <path clip-path="url(#p467f8644a4)" d="M 223.772727 504 
L 223.772727 69.12 
" style="fill:none;stroke:#ff0000;stroke-dasharray:11.1,4.8;stroke-dashoffset:0;stroke-width:3;"/>
   </g>
   <g id="patch_3">
    <path d="M 135 504 
L 135 69.12 
" style="fill:none;stroke:#cccccc;stroke-linecap:square;stroke-linejoin:miter;stroke-width:1.875;"/>
   </g>
   <g id="patch_4">
    <path d="M 972 504 
L 972 69.12 
" style="fill:none;stroke:#cccccc;stroke-linecap:square;stroke-linejoin:miter;stroke-width:1.875;"/>
   </g>
   <g id="patch_5">
    <path d="M 135 504 
L 972 504 
" style="fill:none;stroke:#cccccc;stroke-linecap:square;stroke-linejoin:miter;stroke-width:1.875;"/>
   </g>
   <g id="patch_6">
    <path d="M 135 69.12 
L 972 69.12 
" style="fill:none;stroke:#cccccc;stroke-linecap:square;stroke-linejoin:miter;stroke-width:1.875;"/>
   </g>
   <g id="text_17">
    <!-- CDF user distribution - users size &gt; 1 -->
    <g style="fill:#262626;" transform="translate(385.88625 63.12)scale(0.18 -0.18)">
     <defs>
      <path d="M 64.40625 67.28125 
L 64.40625 56.890625 
Q 59.421875 61.53125 53.78125 63.8125 
Q 48.140625 66.109375 41.796875 66.109375 
Q 29.296875 66.109375 22.65625 58.46875 
Q 16.015625 50.828125 16.015625 36.375 
Q 16.015625 21.96875 22.65625 14.328125 
Q 29.296875 6.6875 41.796875 6.6875 
Q 48.140625 6.6875 53.78125 8.984375 
Q 59.421875 11.28125 64.40625 15.921875 
L 64.40625 5.609375 
Q 59.234375 2.09375 53.4375 0.328125 
Q 47.65625 -1.421875 41.21875 -1.421875 
Q 24.65625 -1.421875 15.125 8.703125 
Q 5.609375 18.84375 5.609375 36.375 
Q 5.609375 53.953125 15.125 64.078125 
Q 24.65625 74.21875 41.21875 74.21875 
Q 47.75 74.21875 53.53125 72.484375 
Q 59.328125 70.75 64.40625 67.28125 
z
" id="DejaVuSans-67"/>
      <path d="M 19.671875 64.796875 
L 19.671875 8.109375 
L 31.59375 8.109375 
Q 46.6875 8.109375 53.6875 14.9375 
Q 60.6875 21.78125 60.6875 36.53125 
Q 60.6875 51.171875 53.6875 57.984375 
Q 46.6875 64.796875 31.59375 64.796875 
z
M 9.8125 72.90625 
L 30.078125 72.90625 
Q 51.265625 72.90625 61.171875 64.09375 
Q 71.09375 55.28125 71.09375 36.53125 
Q 71.09375 17.671875 61.125 8.828125 
Q 51.171875 0 30.078125 0 
L 9.8125 0 
z
" id="DejaVuSans-68"/>
      <path d="M 45.40625 46.390625 
L 45.40625 75.984375 
L 54.390625 75.984375 
L 54.390625 0 
L 45.40625 0 
L 45.40625 8.203125 
Q 42.578125 3.328125 38.25 0.953125 
Q 33.9375 -1.421875 27.875 -1.421875 
Q 17.96875 -1.421875 11.734375 6.484375 
Q 5.515625 14.40625 5.515625 27.296875 
Q 5.515625 40.1875 11.734375 48.09375 
Q 17.96875 56 27.875 56 
Q 33.9375 56 38.25 53.625 
Q 42.578125 51.265625 45.40625 46.390625 
z
M 14.796875 27.296875 
Q 14.796875 17.390625 18.875 11.75 
Q 22.953125 6.109375 30.078125 6.109375 
Q 37.203125 6.109375 41.296875 11.75 
Q 45.40625 17.390625 45.40625 27.296875 
Q 45.40625 37.203125 41.296875 42.84375 
Q 37.203125 48.484375 30.078125 48.484375 
Q 22.953125 48.484375 18.875 42.84375 
Q 14.796875 37.203125 14.796875 27.296875 
z
" id="DejaVuSans-100"/>
      <path d="M 48.6875 27.296875 
Q 48.6875 37.203125 44.609375 42.84375 
Q 40.53125 48.484375 33.40625 48.484375 
Q 26.265625 48.484375 22.1875 42.84375 
Q 18.109375 37.203125 18.109375 27.296875 
Q 18.109375 17.390625 22.1875 11.75 
Q 26.265625 6.109375 33.40625 6.109375 
Q 40.53125 6.109375 44.609375 11.75 
Q 48.6875 17.390625 48.6875 27.296875 
z
M 18.109375 46.390625 
Q 20.953125 51.265625 25.265625 53.625 
Q 29.59375 56 35.59375 56 
Q 45.5625 56 51.78125 48.09375 
Q 58.015625 40.1875 58.015625 27.296875 
Q 58.015625 14.40625 51.78125 6.484375 
Q 45.5625 -1.421875 35.59375 -1.421875 
Q 29.59375 -1.421875 25.265625 0.953125 
Q 20.953125 3.328125 18.109375 8.203125 
L 18.109375 0 
L 9.078125 0 
L 9.078125 75.984375 
L 18.109375 75.984375 
z
" id="DejaVuSans-98"/>
      <path d="M 4.890625 31.390625 
L 31.203125 31.390625 
L 31.203125 23.390625 
L 4.890625 23.390625 
z
" id="DejaVuSans-45"/>
      <path d="M 5.515625 54.6875 
L 48.1875 54.6875 
L 48.1875 46.484375 
L 14.40625 7.171875 
L 48.1875 7.171875 
L 48.1875 0 
L 4.296875 0 
L 4.296875 8.203125 
L 38.09375 47.515625 
L 5.515625 47.515625 
z
" id="DejaVuSans-122"/>
      <path d="M 10.59375 49.21875 
L 10.59375 58.109375 
L 73.1875 35.40625 
L 73.1875 27.296875 
L 10.59375 4.59375 
L 10.59375 13.484375 
L 60.890625 31.296875 
z
" id="DejaVuSans-62"/>
     </defs>
     <use xlink:href="#DejaVuSans-67"/>
     <use x="69.824219" xlink:href="#DejaVuSans-68"/>
     <use x="146.826172" xlink:href="#DejaVuSans-70"/>
     <use x="204.345703" xlink:href="#DejaVuSans-32"/>
     <use x="236.132812" xlink:href="#DejaVuSans-117"/>
     <use x="299.511719" xlink:href="#DejaVuSans-115"/>
     <use x="351.611328" xlink:href="#DejaVuSans-101"/>
     <use x="413.134766" xlink:href="#DejaVuSans-114"/>
     <use x="454.248047" xlink:href="#DejaVuSans-32"/>
     <use x="486.035156" xlink:href="#DejaVuSans-100"/>
     <use x="549.511719" xlink:href="#DejaVuSans-105"/>
     <use x="577.294922" xlink:href="#DejaVuSans-115"/>
     <use x="629.394531" xlink:href="#DejaVuSans-116"/>
     <use x="668.603516" xlink:href="#DejaVuSans-114"/>
     <use x="709.716797" xlink:href="#DejaVuSans-105"/>
     <use x="737.5" xlink:href="#DejaVuSans-98"/>
     <use x="800.976562" xlink:href="#DejaVuSans-117"/>
     <use x="864.355469" xlink:href="#DejaVuSans-116"/>
     <use x="903.564453" xlink:href="#DejaVuSans-105"/>
     <use x="931.347656" xlink:href="#DejaVuSans-111"/>
     <use x="992.529297" xlink:href="#DejaVuSans-110"/>
     <use x="1055.908203" xlink:href="#DejaVuSans-32"/>
     <use x="1087.695312" xlink:href="#DejaVuSans-45"/>
     <use x="1123.779297" xlink:href="#DejaVuSans-32"/>
     <use x="1155.566406" xlink:href="#DejaVuSans-117"/>
     <use x="1218.945312" xlink:href="#DejaVuSans-115"/>
     <use x="1271.044922" xlink:href="#DejaVuSans-101"/>
     <use x="1332.568359" xlink:href="#DejaVuSans-114"/>
     <use x="1373.681641" xlink:href="#DejaVuSans-115"/>
     <use x="1425.78125" xlink:href="#DejaVuSans-32"/>
     <use x="1457.568359" xlink:href="#DejaVuSans-115"/>
     <use x="1509.667969" xlink:href="#DejaVuSans-105"/>
     <use x="1537.451172" xlink:href="#DejaVuSans-122"/>
     <use x="1589.941406" xlink:href="#DejaVuSans-101"/>
     <use x="1651.464844" xlink:href="#DejaVuSans-32"/>
     <use x="1683.251953" xlink:href="#DejaVuSans-62"/>
     <use x="1767.041016" xlink:href="#DejaVuSans-32"/>
     <use x="1798.828125" xlink:href="#DejaVuSans-49"/>
    </g>
   </g>
   <g id="legend_1">
    <g id="patch_7">
     <path d="M 852.784922 495.75 
L 960.45 495.75 
Q 963.75 495.75 963.75 492.45 
L 963.75 347.334844 
Q 963.75 344.034844 960.45 344.034844 
L 852.784922 344.034844 
Q 849.484922 344.034844 849.484922 347.334844 
L 849.484922 492.45 
Q 849.484922 495.75 852.784922 495.75 
z
" style="fill:#ffffff;opacity:0.8;stroke:#cccccc;stroke-linejoin:miter;stroke-width:1.5;"/>
    </g>
    <g id="text_18">
     <!-- K-Means -->
     <g style="fill:#262626;" transform="translate(869.202773 364.312031)scale(0.18 -0.18)">
      <defs>
       <path d="M 9.8125 72.90625 
L 19.671875 72.90625 
L 19.671875 42.09375 
L 52.390625 72.90625 
L 65.09375 72.90625 
L 28.90625 38.921875 
L 67.671875 0 
L 54.6875 0 
L 19.671875 35.109375 
L 19.671875 0 
L 9.8125 0 
z
" id="DejaVuSans-75"/>
       <path d="M 9.8125 72.90625 
L 24.515625 72.90625 
L 43.109375 23.296875 
L 61.8125 72.90625 
L 76.515625 72.90625 
L 76.515625 0 
L 66.890625 0 
L 66.890625 64.015625 
L 48.09375 14.015625 
L 38.1875 14.015625 
L 19.390625 64.015625 
L 19.390625 0 
L 9.8125 0 
z
" id="DejaVuSans-77"/>
      </defs>
      <use xlink:href="#DejaVuSans-75"/>
      <use x="55.076172" xlink:href="#DejaVuSans-45"/>
      <use x="91.160156" xlink:href="#DejaVuSans-77"/>
      <use x="177.439453" xlink:href="#DejaVuSans-101"/>
      <use x="238.962891" xlink:href="#DejaVuSans-97"/>
      <use x="300.242188" xlink:href="#DejaVuSans-110"/>
      <use x="363.621094" xlink:href="#DejaVuSans-115"/>
     </g>
    </g>
    <g id="line2d_21">
     <path d="M 856.084922 383.067891 
L 889.084922 383.067891 
" style="fill:none;stroke:#8172b3;stroke-linecap:round;stroke-width:2.25;"/>
    </g>
    <g id="line2d_22"/>
    <g id="text_19">
     <!-- k = 10 -->
     <g style="fill:#262626;" transform="translate(902.284922 388.842891)scale(0.165 -0.165)">
      <defs>
       <path d="M 9.078125 75.984375 
L 18.109375 75.984375 
L 18.109375 31.109375 
L 44.921875 54.6875 
L 56.390625 54.6875 
L 27.390625 29.109375 
L 57.625 0 
L 45.90625 0 
L 18.109375 26.703125 
L 18.109375 0 
L 9.078125 0 
z
" id="DejaVuSans-107"/>
       <path d="M 10.59375 45.40625 
L 73.1875 45.40625 
L 73.1875 37.203125 
L 10.59375 37.203125 
z
M 10.59375 25.484375 
L 73.1875 25.484375 
L 73.1875 17.1875 
L 10.59375 17.1875 
z
" id="DejaVuSans-61"/>
      </defs>
      <use xlink:href="#DejaVuSans-107"/>
      <use x="57.910156" xlink:href="#DejaVuSans-32"/>
      <use x="89.697266" xlink:href="#DejaVuSans-61"/>
      <use x="173.486328" xlink:href="#DejaVuSans-32"/>
      <use x="205.273438" xlink:href="#DejaVuSans-49"/>
      <use x="268.896484" xlink:href="#DejaVuSans-48"/>
     </g>
    </g>
    <g id="line2d_23">
     <path d="M 856.084922 407.286797 
L 889.084922 407.286797 
" style="fill:none;stroke:#c44e52;stroke-linecap:round;stroke-width:2.25;"/>
    </g>
    <g id="line2d_24"/>
    <g id="text_20">
     <!-- k = 8 -->
     <g style="fill:#262626;" transform="translate(902.284922 413.061797)scale(0.165 -0.165)">
      <use xlink:href="#DejaVuSans-107"/>
      <use x="57.910156" xlink:href="#DejaVuSans-32"/>
      <use x="89.697266" xlink:href="#DejaVuSans-61"/>
      <use x="173.486328" xlink:href="#DejaVuSans-32"/>
      <use x="205.273438" xlink:href="#DejaVuSans-56"/>
     </g>
    </g>
    <g id="line2d_25">
     <path d="M 856.084922 431.505703 
L 889.084922 431.505703 
" style="fill:none;stroke:#55a868;stroke-linecap:round;stroke-width:2.25;"/>
    </g>
    <g id="line2d_26"/>
    <g id="text_21">
     <!-- k = 6 -->
     <g style="fill:#262626;" transform="translate(902.284922 437.280703)scale(0.165 -0.165)">
      <use xlink:href="#DejaVuSans-107"/>
      <use x="57.910156" xlink:href="#DejaVuSans-32"/>
      <use x="89.697266" xlink:href="#DejaVuSans-61"/>
      <use x="173.486328" xlink:href="#DejaVuSans-32"/>
      <use x="205.273438" xlink:href="#DejaVuSans-54"/>
     </g>
    </g>
    <g id="line2d_27">
     <path d="M 856.084922 455.724609 
L 889.084922 455.724609 
" style="fill:none;stroke:#dd8452;stroke-linecap:round;stroke-width:2.25;"/>
    </g>
    <g id="line2d_28"/>
    <g id="text_22">
     <!-- k = 4 -->
     <g style="fill:#262626;" transform="translate(902.284922 461.499609)scale(0.165 -0.165)">
      <use xlink:href="#DejaVuSans-107"/>
      <use x="57.910156" xlink:href="#DejaVuSans-32"/>
      <use x="89.697266" xlink:href="#DejaVuSans-61"/>
      <use x="173.486328" xlink:href="#DejaVuSans-32"/>
      <use x="205.273438" xlink:href="#DejaVuSans-52"/>
     </g>
    </g>
    <g id="line2d_29">
     <path d="M 856.084922 479.943516 
L 889.084922 479.943516 
" style="fill:none;stroke:#4c72b0;stroke-linecap:round;stroke-width:2.25;"/>
    </g>
    <g id="line2d_30"/>
    <g id="text_23">
     <!-- k = 2 -->
     <g style="fill:#262626;" transform="translate(902.284922 485.718516)scale(0.165 -0.165)">
      <use xlink:href="#DejaVuSans-107"/>
      <use x="57.910156" xlink:href="#DejaVuSans-32"/>
      <use x="89.697266" xlink:href="#DejaVuSans-61"/>
      <use x="173.486328" xlink:href="#DejaVuSans-32"/>
      <use x="205.273438" xlink:href="#DejaVuSans-50"/>
     </g>
    </g>
   </g>
  </g>
 </g>
 <defs>
  <clipPath id="p467f8644a4">
   <rect height="434.88" width="837" x="135" y="69.12"/>
  </clipPath>
 </defs>
</svg>
