<?xml version="1.0" encoding="utf-8" standalone="no"?>
<!DOCTYPE svg PUBLIC "-//W3C//DTD SVG 1.1//EN"
  "http://www.w3.org/Graphics/SVG/1.1/DTD/svg11.dtd">
<svg height="576pt" version="1.1" viewBox="0 0 1080 576" width="1080pt" xmlns="http://www.w3.org/2000/svg" xmlns:xlink="http://www.w3.org/1999/xlink">
 <metadata>
  <rdf:RDF xmlns:cc="http://creativecommons.org/ns#" xmlns:dc="http://purl.org/dc/elements/1.1/" xmlns:rdf="http://www.w3.org/1999/02/22-rdf-syntax-ns#">
   <cc:Work>
    <dc:type rdf:resource="http://purl.org/dc/dcmitype/StillImage"/>
    <dc:date>2022-01-25T16:08:15.800717</dc:date>
    <dc:format>image/svg+xml</dc:format>
    <dc:creator>
     <cc:Agent>
      <dc:title>Matplotlib v3.4.3, https://matplotlib.org/</dc:title>
     </cc:Agent>
    </dc:creator>
   </cc:Work>
  </rdf:RDF>
 </metadata>
 <defs>
  <style type="text/css">*{stroke-linecap:butt;stroke-linejoin:round;}</style>
 </defs>
 <g id="figure_1">
  <g id="patch_1">
   <path d="M 0 576 
L 1080 576 
L 1080 0 
L 0 0 
z
" style="fill:#ffffff;"/>
  </g>
  <g id="axes_1">
   <g id="patch_2">
    <path d="M 135 504 
L 972 504 
L 972 69.12 
L 135 69.12 
z
" style="fill:#ffffff;"/>
   </g>
   <g id="matplotlib.axis_1">
    <g id="xtick_1">
     <g id="line2d_1">
      <path clip-path="url(#p1dee31be7b)" d="M 883.227273 504 
L 883.227273 69.12 
" style="fill:none;stroke:#999999;stroke-dasharray:1.5,2.475;stroke-dashoffset:0;stroke-width:1.5;"/>
     </g>
     <g id="text_1">
      <!-- 0.3 -->
      <g style="fill:#262626;" transform="translate(870.107195 529.037422)scale(0.165 -0.165)">
       <defs>
        <path d="M 2034 4250 
Q 1547 4250 1301 3770 
Q 1056 3291 1056 2328 
Q 1056 1369 1301 889 
Q 1547 409 2034 409 
Q 2525 409 2770 889 
Q 3016 1369 3016 2328 
Q 3016 3291 2770 3770 
Q 2525 4250 2034 4250 
z
M 2034 4750 
Q 2819 4750 3233 4129 
Q 3647 3509 3647 2328 
Q 3647 1150 3233 529 
Q 2819 -91 2034 -91 
Q 1250 -91 836 529 
Q 422 1150 422 2328 
Q 422 3509 836 4129 
Q 1250 4750 2034 4750 
z
" id="DejaVuSans-30" transform="scale(0.015625)"/>
        <path d="M 684 794 
L 1344 794 
L 1344 0 
L 684 0 
L 684 794 
z
" id="DejaVuSans-2e" transform="scale(0.015625)"/>
        <path d="M 2597 2516 
Q 3050 2419 3304 2112 
Q 3559 1806 3559 1356 
Q 3559 666 3084 287 
Q 2609 -91 1734 -91 
Q 1441 -91 1130 -33 
Q 819 25 488 141 
L 488 750 
Q 750 597 1062 519 
Q 1375 441 1716 441 
Q 2309 441 2620 675 
Q 2931 909 2931 1356 
Q 2931 1769 2642 2001 
Q 2353 2234 1838 2234 
L 1294 2234 
L 1294 2753 
L 1863 2753 
Q 2328 2753 2575 2939 
Q 2822 3125 2822 3475 
Q 2822 3834 2567 4026 
Q 2313 4219 1838 4219 
Q 1578 4219 1281 4162 
Q 984 4106 628 3988 
L 628 4550 
Q 988 4650 1302 4700 
Q 1616 4750 1894 4750 
Q 2613 4750 3031 4423 
Q 3450 4097 3450 3541 
Q 3450 3153 3228 2886 
Q 3006 2619 2597 2516 
z
" id="DejaVuSans-33" transform="scale(0.015625)"/>
       </defs>
       <use xlink:href="#DejaVuSans-30"/>
       <use x="63.623047" xlink:href="#DejaVuSans-2e"/>
       <use x="95.410156" xlink:href="#DejaVuSans-33"/>
      </g>
     </g>
    </g>
    <g id="xtick_2">
     <g id="line2d_2">
      <path clip-path="url(#p1dee31be7b)" d="M 781.772727 504 
L 781.772727 69.12 
" style="fill:none;stroke:#999999;stroke-dasharray:1.5,2.475;stroke-dashoffset:0;stroke-width:1.5;"/>
     </g>
     <g id="text_2">
      <!-- 0.4 -->
      <g style="fill:#262626;" transform="translate(768.652649 529.037422)scale(0.165 -0.165)">
       <defs>
        <path d="M 2419 4116 
L 825 1625 
L 2419 1625 
L 2419 4116 
z
M 2253 4666 
L 3047 4666 
L 3047 1625 
L 3713 1625 
L 3713 1100 
L 3047 1100 
L 3047 0 
L 2419 0 
L 2419 1100 
L 313 1100 
L 313 1709 
L 2253 4666 
z
" id="DejaVuSans-34" transform="scale(0.015625)"/>
       </defs>
       <use xlink:href="#DejaVuSans-30"/>
       <use x="63.623047" xlink:href="#DejaVuSans-2e"/>
       <use x="95.410156" xlink:href="#DejaVuSans-34"/>
      </g>
     </g>
    </g>
    <g id="xtick_3">
     <g id="line2d_3">
      <path clip-path="url(#p1dee31be7b)" d="M 680.318182 504 
L 680.318182 69.12 
" style="fill:none;stroke:#999999;stroke-dasharray:1.5,2.475;stroke-dashoffset:0;stroke-width:1.5;"/>
     </g>
     <g id="text_3">
      <!-- 0.5 -->
      <g style="fill:#262626;" transform="translate(667.198104 529.037422)scale(0.165 -0.165)">
       <defs>
        <path d="M 691 4666 
L 3169 4666 
L 3169 4134 
L 1269 4134 
L 1269 2991 
Q 1406 3038 1543 3061 
Q 1681 3084 1819 3084 
Q 2600 3084 3056 2656 
Q 3513 2228 3513 1497 
Q 3513 744 3044 326 
Q 2575 -91 1722 -91 
Q 1428 -91 1123 -41 
Q 819 9 494 109 
L 494 744 
Q 775 591 1075 516 
Q 1375 441 1709 441 
Q 2250 441 2565 725 
Q 2881 1009 2881 1497 
Q 2881 1984 2565 2268 
Q 2250 2553 1709 2553 
Q 1456 2553 1204 2497 
Q 953 2441 691 2322 
L 691 4666 
z
" id="DejaVuSans-35" transform="scale(0.015625)"/>
       </defs>
       <use xlink:href="#DejaVuSans-30"/>
       <use x="63.623047" xlink:href="#DejaVuSans-2e"/>
       <use x="95.410156" xlink:href="#DejaVuSans-35"/>
      </g>
     </g>
    </g>
    <g id="xtick_4">
     <g id="line2d_4">
      <path clip-path="url(#p1dee31be7b)" d="M 578.863636 504 
L 578.863636 69.12 
" style="fill:none;stroke:#999999;stroke-dasharray:1.5,2.475;stroke-dashoffset:0;stroke-width:1.5;"/>
     </g>
     <g id="text_4">
      <!-- 0.6 -->
      <g style="fill:#262626;" transform="translate(565.743558 529.037422)scale(0.165 -0.165)">
       <defs>
        <path d="M 2113 2584 
Q 1688 2584 1439 2293 
Q 1191 2003 1191 1497 
Q 1191 994 1439 701 
Q 1688 409 2113 409 
Q 2538 409 2786 701 
Q 3034 994 3034 1497 
Q 3034 2003 2786 2293 
Q 2538 2584 2113 2584 
z
M 3366 4563 
L 3366 3988 
Q 3128 4100 2886 4159 
Q 2644 4219 2406 4219 
Q 1781 4219 1451 3797 
Q 1122 3375 1075 2522 
Q 1259 2794 1537 2939 
Q 1816 3084 2150 3084 
Q 2853 3084 3261 2657 
Q 3669 2231 3669 1497 
Q 3669 778 3244 343 
Q 2819 -91 2113 -91 
Q 1303 -91 875 529 
Q 447 1150 447 2328 
Q 447 3434 972 4092 
Q 1497 4750 2381 4750 
Q 2619 4750 2861 4703 
Q 3103 4656 3366 4563 
z
" id="DejaVuSans-36" transform="scale(0.015625)"/>
       </defs>
       <use xlink:href="#DejaVuSans-30"/>
       <use x="63.623047" xlink:href="#DejaVuSans-2e"/>
       <use x="95.410156" xlink:href="#DejaVuSans-36"/>
      </g>
     </g>
    </g>
    <g id="xtick_5">
     <g id="line2d_5">
      <path clip-path="url(#p1dee31be7b)" d="M 477.409091 504 
L 477.409091 69.12 
" style="fill:none;stroke:#999999;stroke-dasharray:1.5,2.475;stroke-dashoffset:0;stroke-width:1.5;"/>
     </g>
     <g id="text_5">
      <!-- 0.7 -->
      <g style="fill:#262626;" transform="translate(464.289013 529.037422)scale(0.165 -0.165)">
       <defs>
        <path d="M 525 4666 
L 3525 4666 
L 3525 4397 
L 1831 0 
L 1172 0 
L 2766 4134 
L 525 4134 
L 525 4666 
z
" id="DejaVuSans-37" transform="scale(0.015625)"/>
       </defs>
       <use xlink:href="#DejaVuSans-30"/>
       <use x="63.623047" xlink:href="#DejaVuSans-2e"/>
       <use x="95.410156" xlink:href="#DejaVuSans-37"/>
      </g>
     </g>
    </g>
    <g id="xtick_6">
     <g id="line2d_6">
      <path clip-path="url(#p1dee31be7b)" d="M 375.954545 504 
L 375.954545 69.12 
" style="fill:none;stroke:#999999;stroke-dasharray:1.5,2.475;stroke-dashoffset:0;stroke-width:1.5;"/>
     </g>
     <g id="text_6">
      <!-- 0.8 -->
      <g style="fill:#262626;" transform="translate(362.834467 529.037422)scale(0.165 -0.165)">
       <defs>
        <path d="M 2034 2216 
Q 1584 2216 1326 1975 
Q 1069 1734 1069 1313 
Q 1069 891 1326 650 
Q 1584 409 2034 409 
Q 2484 409 2743 651 
Q 3003 894 3003 1313 
Q 3003 1734 2745 1975 
Q 2488 2216 2034 2216 
z
M 1403 2484 
Q 997 2584 770 2862 
Q 544 3141 544 3541 
Q 544 4100 942 4425 
Q 1341 4750 2034 4750 
Q 2731 4750 3128 4425 
Q 3525 4100 3525 3541 
Q 3525 3141 3298 2862 
Q 3072 2584 2669 2484 
Q 3125 2378 3379 2068 
Q 3634 1759 3634 1313 
Q 3634 634 3220 271 
Q 2806 -91 2034 -91 
Q 1263 -91 848 271 
Q 434 634 434 1313 
Q 434 1759 690 2068 
Q 947 2378 1403 2484 
z
M 1172 3481 
Q 1172 3119 1398 2916 
Q 1625 2713 2034 2713 
Q 2441 2713 2670 2916 
Q 2900 3119 2900 3481 
Q 2900 3844 2670 4047 
Q 2441 4250 2034 4250 
Q 1625 4250 1398 4047 
Q 1172 3844 1172 3481 
z
" id="DejaVuSans-38" transform="scale(0.015625)"/>
       </defs>
       <use xlink:href="#DejaVuSans-30"/>
       <use x="63.623047" xlink:href="#DejaVuSans-2e"/>
       <use x="95.410156" xlink:href="#DejaVuSans-38"/>
      </g>
     </g>
    </g>
    <g id="xtick_7">
     <g id="line2d_7">
      <path clip-path="url(#p1dee31be7b)" d="M 274.5 504 
L 274.5 69.12 
" style="fill:none;stroke:#999999;stroke-dasharray:1.5,2.475;stroke-dashoffset:0;stroke-width:1.5;"/>
     </g>
     <g id="text_7">
      <!-- 0.9 -->
      <g style="fill:#262626;" transform="translate(261.379922 529.037422)scale(0.165 -0.165)">
       <defs>
        <path d="M 703 97 
L 703 672 
Q 941 559 1184 500 
Q 1428 441 1663 441 
Q 2288 441 2617 861 
Q 2947 1281 2994 2138 
Q 2813 1869 2534 1725 
Q 2256 1581 1919 1581 
Q 1219 1581 811 2004 
Q 403 2428 403 3163 
Q 403 3881 828 4315 
Q 1253 4750 1959 4750 
Q 2769 4750 3195 4129 
Q 3622 3509 3622 2328 
Q 3622 1225 3098 567 
Q 2575 -91 1691 -91 
Q 1453 -91 1209 -44 
Q 966 3 703 97 
z
M 1959 2075 
Q 2384 2075 2632 2365 
Q 2881 2656 2881 3163 
Q 2881 3666 2632 3958 
Q 2384 4250 1959 4250 
Q 1534 4250 1286 3958 
Q 1038 3666 1038 3163 
Q 1038 2656 1286 2365 
Q 1534 2075 1959 2075 
z
" id="DejaVuSans-39" transform="scale(0.015625)"/>
       </defs>
       <use xlink:href="#DejaVuSans-30"/>
       <use x="63.623047" xlink:href="#DejaVuSans-2e"/>
       <use x="95.410156" xlink:href="#DejaVuSans-39"/>
      </g>
     </g>
    </g>
    <g id="xtick_8">
     <g id="line2d_8">
      <path clip-path="url(#p1dee31be7b)" d="M 173.045455 504 
L 173.045455 69.12 
" style="fill:none;stroke:#999999;stroke-dasharray:1.5,2.475;stroke-dashoffset:0;stroke-width:1.5;"/>
     </g>
     <g id="text_8">
      <!-- 1.0 -->
      <g style="fill:#262626;" transform="translate(159.925376 529.037422)scale(0.165 -0.165)">
       <defs>
        <path d="M 794 531 
L 1825 531 
L 1825 4091 
L 703 3866 
L 703 4441 
L 1819 4666 
L 2450 4666 
L 2450 531 
L 3481 531 
L 3481 0 
L 794 0 
L 794 531 
z
" id="DejaVuSans-31" transform="scale(0.015625)"/>
       </defs>
       <use xlink:href="#DejaVuSans-31"/>
       <use x="63.623047" xlink:href="#DejaVuSans-2e"/>
       <use x="95.410156" xlink:href="#DejaVuSans-30"/>
      </g>
     </g>
    </g>
    <g id="text_9">
     <!-- F (largest user ratio in the cluster) -->
     <g style="fill:#262626;" transform="translate(399.151406 550.146094)scale(0.18 -0.18)">
      <defs>
       <path d="M 628 4666 
L 3309 4666 
L 3309 4134 
L 1259 4134 
L 1259 2759 
L 3109 2759 
L 3109 2228 
L 1259 2228 
L 1259 0 
L 628 0 
L 628 4666 
z
" id="DejaVuSans-46" transform="scale(0.015625)"/>
       <path id="DejaVuSans-20" transform="scale(0.015625)"/>
       <path d="M 1984 4856 
Q 1566 4138 1362 3434 
Q 1159 2731 1159 2009 
Q 1159 1288 1364 580 
Q 1569 -128 1984 -844 
L 1484 -844 
Q 1016 -109 783 600 
Q 550 1309 550 2009 
Q 550 2706 781 3412 
Q 1013 4119 1484 4856 
L 1984 4856 
z
" id="DejaVuSans-28" transform="scale(0.015625)"/>
       <path d="M 603 4863 
L 1178 4863 
L 1178 0 
L 603 0 
L 603 4863 
z
" id="DejaVuSans-6c" transform="scale(0.015625)"/>
       <path d="M 2194 1759 
Q 1497 1759 1228 1600 
Q 959 1441 959 1056 
Q 959 750 1161 570 
Q 1363 391 1709 391 
Q 2188 391 2477 730 
Q 2766 1069 2766 1631 
L 2766 1759 
L 2194 1759 
z
M 3341 1997 
L 3341 0 
L 2766 0 
L 2766 531 
Q 2569 213 2275 61 
Q 1981 -91 1556 -91 
Q 1019 -91 701 211 
Q 384 513 384 1019 
Q 384 1609 779 1909 
Q 1175 2209 1959 2209 
L 2766 2209 
L 2766 2266 
Q 2766 2663 2505 2880 
Q 2244 3097 1772 3097 
Q 1472 3097 1187 3025 
Q 903 2953 641 2809 
L 641 3341 
Q 956 3463 1253 3523 
Q 1550 3584 1831 3584 
Q 2591 3584 2966 3190 
Q 3341 2797 3341 1997 
z
" id="DejaVuSans-61" transform="scale(0.015625)"/>
       <path d="M 2631 2963 
Q 2534 3019 2420 3045 
Q 2306 3072 2169 3072 
Q 1681 3072 1420 2755 
Q 1159 2438 1159 1844 
L 1159 0 
L 581 0 
L 581 3500 
L 1159 3500 
L 1159 2956 
Q 1341 3275 1631 3429 
Q 1922 3584 2338 3584 
Q 2397 3584 2469 3576 
Q 2541 3569 2628 3553 
L 2631 2963 
z
" id="DejaVuSans-72" transform="scale(0.015625)"/>
       <path d="M 2906 1791 
Q 2906 2416 2648 2759 
Q 2391 3103 1925 3103 
Q 1463 3103 1205 2759 
Q 947 2416 947 1791 
Q 947 1169 1205 825 
Q 1463 481 1925 481 
Q 2391 481 2648 825 
Q 2906 1169 2906 1791 
z
M 3481 434 
Q 3481 -459 3084 -895 
Q 2688 -1331 1869 -1331 
Q 1566 -1331 1297 -1286 
Q 1028 -1241 775 -1147 
L 775 -588 
Q 1028 -725 1275 -790 
Q 1522 -856 1778 -856 
Q 2344 -856 2625 -561 
Q 2906 -266 2906 331 
L 2906 616 
Q 2728 306 2450 153 
Q 2172 0 1784 0 
Q 1141 0 747 490 
Q 353 981 353 1791 
Q 353 2603 747 3093 
Q 1141 3584 1784 3584 
Q 2172 3584 2450 3431 
Q 2728 3278 2906 2969 
L 2906 3500 
L 3481 3500 
L 3481 434 
z
" id="DejaVuSans-67" transform="scale(0.015625)"/>
       <path d="M 3597 1894 
L 3597 1613 
L 953 1613 
Q 991 1019 1311 708 
Q 1631 397 2203 397 
Q 2534 397 2845 478 
Q 3156 559 3463 722 
L 3463 178 
Q 3153 47 2828 -22 
Q 2503 -91 2169 -91 
Q 1331 -91 842 396 
Q 353 884 353 1716 
Q 353 2575 817 3079 
Q 1281 3584 2069 3584 
Q 2775 3584 3186 3129 
Q 3597 2675 3597 1894 
z
M 3022 2063 
Q 3016 2534 2758 2815 
Q 2500 3097 2075 3097 
Q 1594 3097 1305 2825 
Q 1016 2553 972 2059 
L 3022 2063 
z
" id="DejaVuSans-65" transform="scale(0.015625)"/>
       <path d="M 2834 3397 
L 2834 2853 
Q 2591 2978 2328 3040 
Q 2066 3103 1784 3103 
Q 1356 3103 1142 2972 
Q 928 2841 928 2578 
Q 928 2378 1081 2264 
Q 1234 2150 1697 2047 
L 1894 2003 
Q 2506 1872 2764 1633 
Q 3022 1394 3022 966 
Q 3022 478 2636 193 
Q 2250 -91 1575 -91 
Q 1294 -91 989 -36 
Q 684 19 347 128 
L 347 722 
Q 666 556 975 473 
Q 1284 391 1588 391 
Q 1994 391 2212 530 
Q 2431 669 2431 922 
Q 2431 1156 2273 1281 
Q 2116 1406 1581 1522 
L 1381 1569 
Q 847 1681 609 1914 
Q 372 2147 372 2553 
Q 372 3047 722 3315 
Q 1072 3584 1716 3584 
Q 2034 3584 2315 3537 
Q 2597 3491 2834 3397 
z
" id="DejaVuSans-73" transform="scale(0.015625)"/>
       <path d="M 1172 4494 
L 1172 3500 
L 2356 3500 
L 2356 3053 
L 1172 3053 
L 1172 1153 
Q 1172 725 1289 603 
Q 1406 481 1766 481 
L 2356 481 
L 2356 0 
L 1766 0 
Q 1100 0 847 248 
Q 594 497 594 1153 
L 594 3053 
L 172 3053 
L 172 3500 
L 594 3500 
L 594 4494 
L 1172 4494 
z
" id="DejaVuSans-74" transform="scale(0.015625)"/>
       <path d="M 544 1381 
L 544 3500 
L 1119 3500 
L 1119 1403 
Q 1119 906 1312 657 
Q 1506 409 1894 409 
Q 2359 409 2629 706 
Q 2900 1003 2900 1516 
L 2900 3500 
L 3475 3500 
L 3475 0 
L 2900 0 
L 2900 538 
Q 2691 219 2414 64 
Q 2138 -91 1772 -91 
Q 1169 -91 856 284 
Q 544 659 544 1381 
z
M 1991 3584 
L 1991 3584 
z
" id="DejaVuSans-75" transform="scale(0.015625)"/>
       <path d="M 603 3500 
L 1178 3500 
L 1178 0 
L 603 0 
L 603 3500 
z
M 603 4863 
L 1178 4863 
L 1178 4134 
L 603 4134 
L 603 4863 
z
" id="DejaVuSans-69" transform="scale(0.015625)"/>
       <path d="M 1959 3097 
Q 1497 3097 1228 2736 
Q 959 2375 959 1747 
Q 959 1119 1226 758 
Q 1494 397 1959 397 
Q 2419 397 2687 759 
Q 2956 1122 2956 1747 
Q 2956 2369 2687 2733 
Q 2419 3097 1959 3097 
z
M 1959 3584 
Q 2709 3584 3137 3096 
Q 3566 2609 3566 1747 
Q 3566 888 3137 398 
Q 2709 -91 1959 -91 
Q 1206 -91 779 398 
Q 353 888 353 1747 
Q 353 2609 779 3096 
Q 1206 3584 1959 3584 
z
" id="DejaVuSans-6f" transform="scale(0.015625)"/>
       <path d="M 3513 2113 
L 3513 0 
L 2938 0 
L 2938 2094 
Q 2938 2591 2744 2837 
Q 2550 3084 2163 3084 
Q 1697 3084 1428 2787 
Q 1159 2491 1159 1978 
L 1159 0 
L 581 0 
L 581 3500 
L 1159 3500 
L 1159 2956 
Q 1366 3272 1645 3428 
Q 1925 3584 2291 3584 
Q 2894 3584 3203 3211 
Q 3513 2838 3513 2113 
z
" id="DejaVuSans-6e" transform="scale(0.015625)"/>
       <path d="M 3513 2113 
L 3513 0 
L 2938 0 
L 2938 2094 
Q 2938 2591 2744 2837 
Q 2550 3084 2163 3084 
Q 1697 3084 1428 2787 
Q 1159 2491 1159 1978 
L 1159 0 
L 581 0 
L 581 4863 
L 1159 4863 
L 1159 2956 
Q 1366 3272 1645 3428 
Q 1925 3584 2291 3584 
Q 2894 3584 3203 3211 
Q 3513 2838 3513 2113 
z
" id="DejaVuSans-68" transform="scale(0.015625)"/>
       <path d="M 3122 3366 
L 3122 2828 
Q 2878 2963 2633 3030 
Q 2388 3097 2138 3097 
Q 1578 3097 1268 2742 
Q 959 2388 959 1747 
Q 959 1106 1268 751 
Q 1578 397 2138 397 
Q 2388 397 2633 464 
Q 2878 531 3122 666 
L 3122 134 
Q 2881 22 2623 -34 
Q 2366 -91 2075 -91 
Q 1284 -91 818 406 
Q 353 903 353 1747 
Q 353 2603 823 3093 
Q 1294 3584 2113 3584 
Q 2378 3584 2631 3529 
Q 2884 3475 3122 3366 
z
" id="DejaVuSans-63" transform="scale(0.015625)"/>
       <path d="M 513 4856 
L 1013 4856 
Q 1481 4119 1714 3412 
Q 1947 2706 1947 2009 
Q 1947 1309 1714 600 
Q 1481 -109 1013 -844 
L 513 -844 
Q 928 -128 1133 580 
Q 1338 1288 1338 2009 
Q 1338 2731 1133 3434 
Q 928 4138 513 4856 
z
" id="DejaVuSans-29" transform="scale(0.015625)"/>
      </defs>
      <use xlink:href="#DejaVuSans-46"/>
      <use x="57.519531" xlink:href="#DejaVuSans-20"/>
      <use x="89.306641" xlink:href="#DejaVuSans-28"/>
      <use x="128.320312" xlink:href="#DejaVuSans-6c"/>
      <use x="156.103516" xlink:href="#DejaVuSans-61"/>
      <use x="217.382812" xlink:href="#DejaVuSans-72"/>
      <use x="256.746094" xlink:href="#DejaVuSans-67"/>
      <use x="320.222656" xlink:href="#DejaVuSans-65"/>
      <use x="381.746094" xlink:href="#DejaVuSans-73"/>
      <use x="433.845703" xlink:href="#DejaVuSans-74"/>
      <use x="473.054688" xlink:href="#DejaVuSans-20"/>
      <use x="504.841797" xlink:href="#DejaVuSans-75"/>
      <use x="568.220703" xlink:href="#DejaVuSans-73"/>
      <use x="620.320312" xlink:href="#DejaVuSans-65"/>
      <use x="681.84375" xlink:href="#DejaVuSans-72"/>
      <use x="722.957031" xlink:href="#DejaVuSans-20"/>
      <use x="754.744141" xlink:href="#DejaVuSans-72"/>
      <use x="795.857422" xlink:href="#DejaVuSans-61"/>
      <use x="857.136719" xlink:href="#DejaVuSans-74"/>
      <use x="896.345703" xlink:href="#DejaVuSans-69"/>
      <use x="924.128906" xlink:href="#DejaVuSans-6f"/>
      <use x="985.310547" xlink:href="#DejaVuSans-20"/>
      <use x="1017.097656" xlink:href="#DejaVuSans-69"/>
      <use x="1044.880859" xlink:href="#DejaVuSans-6e"/>
      <use x="1108.259766" xlink:href="#DejaVuSans-20"/>
      <use x="1140.046875" xlink:href="#DejaVuSans-74"/>
      <use x="1179.255859" xlink:href="#DejaVuSans-68"/>
      <use x="1242.634766" xlink:href="#DejaVuSans-65"/>
      <use x="1304.158203" xlink:href="#DejaVuSans-20"/>
      <use x="1335.945312" xlink:href="#DejaVuSans-63"/>
      <use x="1390.925781" xlink:href="#DejaVuSans-6c"/>
      <use x="1418.708984" xlink:href="#DejaVuSans-75"/>
      <use x="1482.087891" xlink:href="#DejaVuSans-73"/>
      <use x="1534.1875" xlink:href="#DejaVuSans-74"/>
      <use x="1573.396484" xlink:href="#DejaVuSans-65"/>
      <use x="1634.919922" xlink:href="#DejaVuSans-72"/>
      <use x="1676.033203" xlink:href="#DejaVuSans-29"/>
     </g>
    </g>
   </g>
   <g id="matplotlib.axis_2">
    <g id="ytick_1">
     <g id="line2d_9">
      <path clip-path="url(#p1dee31be7b)" d="M 135 504 
L 972 504 
" style="fill:none;stroke:#999999;stroke-dasharray:1.5,2.475;stroke-dashoffset:0;stroke-width:1.5;"/>
     </g>
     <g id="text_10">
      <!-- 0% -->
      <g style="fill:#262626;" transform="translate(96.324297 510.268711)scale(0.165 -0.165)">
       <defs>
        <path d="M 4653 2053 
Q 4381 2053 4226 1822 
Q 4072 1591 4072 1178 
Q 4072 772 4226 539 
Q 4381 306 4653 306 
Q 4919 306 5073 539 
Q 5228 772 5228 1178 
Q 5228 1588 5073 1820 
Q 4919 2053 4653 2053 
z
M 4653 2450 
Q 5147 2450 5437 2106 
Q 5728 1763 5728 1178 
Q 5728 594 5436 251 
Q 5144 -91 4653 -91 
Q 4153 -91 3862 251 
Q 3572 594 3572 1178 
Q 3572 1766 3864 2108 
Q 4156 2450 4653 2450 
z
M 1428 4353 
Q 1159 4353 1004 4120 
Q 850 3888 850 3481 
Q 850 3069 1003 2837 
Q 1156 2606 1428 2606 
Q 1700 2606 1854 2837 
Q 2009 3069 2009 3481 
Q 2009 3884 1853 4118 
Q 1697 4353 1428 4353 
z
M 4250 4750 
L 4750 4750 
L 1831 -91 
L 1331 -91 
L 4250 4750 
z
M 1428 4750 
Q 1922 4750 2215 4408 
Q 2509 4066 2509 3481 
Q 2509 2891 2217 2550 
Q 1925 2209 1428 2209 
Q 931 2209 642 2551 
Q 353 2894 353 3481 
Q 353 4063 643 4406 
Q 934 4750 1428 4750 
z
" id="DejaVuSans-25" transform="scale(0.015625)"/>
       </defs>
       <use xlink:href="#DejaVuSans-30"/>
       <use x="63.623047" xlink:href="#DejaVuSans-25"/>
      </g>
     </g>
    </g>
    <g id="ytick_2">
     <g id="line2d_10">
      <path clip-path="url(#p1dee31be7b)" d="M 135 417.024 
L 972 417.024 
" style="fill:none;stroke:#999999;stroke-dasharray:1.5,2.475;stroke-dashoffset:0;stroke-width:1.5;"/>
     </g>
     <g id="text_11">
      <!-- 20% -->
      <g style="fill:#262626;" transform="translate(85.826172 423.292711)scale(0.165 -0.165)">
       <defs>
        <path d="M 1228 531 
L 3431 531 
L 3431 0 
L 469 0 
L 469 531 
Q 828 903 1448 1529 
Q 2069 2156 2228 2338 
Q 2531 2678 2651 2914 
Q 2772 3150 2772 3378 
Q 2772 3750 2511 3984 
Q 2250 4219 1831 4219 
Q 1534 4219 1204 4116 
Q 875 4013 500 3803 
L 500 4441 
Q 881 4594 1212 4672 
Q 1544 4750 1819 4750 
Q 2544 4750 2975 4387 
Q 3406 4025 3406 3419 
Q 3406 3131 3298 2873 
Q 3191 2616 2906 2266 
Q 2828 2175 2409 1742 
Q 1991 1309 1228 531 
z
" id="DejaVuSans-32" transform="scale(0.015625)"/>
       </defs>
       <use xlink:href="#DejaVuSans-32"/>
       <use x="63.623047" xlink:href="#DejaVuSans-30"/>
       <use x="127.246094" xlink:href="#DejaVuSans-25"/>
      </g>
     </g>
    </g>
    <g id="ytick_3">
     <g id="line2d_11">
      <path clip-path="url(#p1dee31be7b)" d="M 135 330.048 
L 972 330.048 
" style="fill:none;stroke:#999999;stroke-dasharray:1.5,2.475;stroke-dashoffset:0;stroke-width:1.5;"/>
     </g>
     <g id="text_12">
      <!-- 40% -->
      <g style="fill:#262626;" transform="translate(85.826172 336.316711)scale(0.165 -0.165)">
       <use xlink:href="#DejaVuSans-34"/>
       <use x="63.623047" xlink:href="#DejaVuSans-30"/>
       <use x="127.246094" xlink:href="#DejaVuSans-25"/>
      </g>
     </g>
    </g>
    <g id="ytick_4">
     <g id="line2d_12">
      <path clip-path="url(#p1dee31be7b)" d="M 135 243.072 
L 972 243.072 
" style="fill:none;stroke:#999999;stroke-dasharray:1.5,2.475;stroke-dashoffset:0;stroke-width:1.5;"/>
     </g>
     <g id="text_13">
      <!-- 60% -->
      <g style="fill:#262626;" transform="translate(85.826172 249.340711)scale(0.165 -0.165)">
       <use xlink:href="#DejaVuSans-36"/>
       <use x="63.623047" xlink:href="#DejaVuSans-30"/>
       <use x="127.246094" xlink:href="#DejaVuSans-25"/>
      </g>
     </g>
    </g>
    <g id="ytick_5">
     <g id="line2d_13">
      <path clip-path="url(#p1dee31be7b)" d="M 135 156.096 
L 972 156.096 
" style="fill:none;stroke:#999999;stroke-dasharray:1.5,2.475;stroke-dashoffset:0;stroke-width:1.5;"/>
     </g>
     <g id="text_14">
      <!-- 80% -->
      <g style="fill:#262626;" transform="translate(85.826172 162.364711)scale(0.165 -0.165)">
       <use xlink:href="#DejaVuSans-38"/>
       <use x="63.623047" xlink:href="#DejaVuSans-30"/>
       <use x="127.246094" xlink:href="#DejaVuSans-25"/>
      </g>
     </g>
    </g>
    <g id="ytick_6">
     <g id="line2d_14">
      <path clip-path="url(#p1dee31be7b)" d="M 135 69.12 
L 972 69.12 
" style="fill:none;stroke:#999999;stroke-dasharray:1.5,2.475;stroke-dashoffset:0;stroke-width:1.5;"/>
     </g>
     <g id="text_15">
      <!-- 100% -->
      <g style="fill:#262626;" transform="translate(75.328047 75.388711)scale(0.165 -0.165)">
       <use xlink:href="#DejaVuSans-31"/>
       <use x="63.623047" xlink:href="#DejaVuSans-30"/>
       <use x="127.246094" xlink:href="#DejaVuSans-30"/>
       <use x="190.869141" xlink:href="#DejaVuSans-25"/>
      </g>
     </g>
    </g>
    <g id="text_16">
     <!-- Proportion -->
     <g style="fill:#262626;" transform="translate(67.584609 332.992969)rotate(-90)scale(0.18 -0.18)">
      <defs>
       <path d="M 1259 4147 
L 1259 2394 
L 2053 2394 
Q 2494 2394 2734 2622 
Q 2975 2850 2975 3272 
Q 2975 3691 2734 3919 
Q 2494 4147 2053 4147 
L 1259 4147 
z
M 628 4666 
L 2053 4666 
Q 2838 4666 3239 4311 
Q 3641 3956 3641 3272 
Q 3641 2581 3239 2228 
Q 2838 1875 2053 1875 
L 1259 1875 
L 1259 0 
L 628 0 
L 628 4666 
z
" id="DejaVuSans-50" transform="scale(0.015625)"/>
       <path d="M 1159 525 
L 1159 -1331 
L 581 -1331 
L 581 3500 
L 1159 3500 
L 1159 2969 
Q 1341 3281 1617 3432 
Q 1894 3584 2278 3584 
Q 2916 3584 3314 3078 
Q 3713 2572 3713 1747 
Q 3713 922 3314 415 
Q 2916 -91 2278 -91 
Q 1894 -91 1617 61 
Q 1341 213 1159 525 
z
M 3116 1747 
Q 3116 2381 2855 2742 
Q 2594 3103 2138 3103 
Q 1681 3103 1420 2742 
Q 1159 2381 1159 1747 
Q 1159 1113 1420 752 
Q 1681 391 2138 391 
Q 2594 391 2855 752 
Q 3116 1113 3116 1747 
z
" id="DejaVuSans-70" transform="scale(0.015625)"/>
      </defs>
      <use xlink:href="#DejaVuSans-50"/>
      <use x="58.552734" xlink:href="#DejaVuSans-72"/>
      <use x="97.416016" xlink:href="#DejaVuSans-6f"/>
      <use x="158.597656" xlink:href="#DejaVuSans-70"/>
      <use x="222.074219" xlink:href="#DejaVuSans-6f"/>
      <use x="283.255859" xlink:href="#DejaVuSans-72"/>
      <use x="324.369141" xlink:href="#DejaVuSans-74"/>
      <use x="363.578125" xlink:href="#DejaVuSans-69"/>
      <use x="391.361328" xlink:href="#DejaVuSans-6f"/>
      <use x="452.542969" xlink:href="#DejaVuSans-6e"/>
     </g>
    </g>
   </g>
   <g id="line2d_15">
    <path clip-path="url(#p1dee31be7b)" d="M 933.954545 69.12 
L 933.954545 69.146789 
L 883.227273 69.240553 
L 883.227273 69.307526 
L 849.409091 69.414684 
L 849.409091 69.575421 
L 813.811005 69.649092 
L 813.811005 69.776342 
L 807.136364 69.776342 
L 807.136364 69.8835 
L 807.136364 70.151394 
L 801.097403 70.151394 
L 801.097403 70.292039 
L 752.785714 70.392499 
L 752.785714 70.439381 
L 731.045455 70.546539 
L 731.045455 70.680486 
L 719.339161 70.754157 
L 719.339161 70.841223 
L 709.841991 70.841223 
L 709.841991 72.107025 
L 707.016746 72.107025 
L 707.016746 72.234275 
L 699.106061 72.234275 
L 699.106061 72.415104 
L 680.318182 72.415104 
L 680.318182 72.522261 
L 680.318182 73.995682 
L 657.048791 73.995682 
L 657.048791 74.725694 
L 654.954545 74.725694 
L 654.954545 75.261484 
L 651.819714 75.261484 
L 651.819714 75.857549 
L 650.47861 75.857549 
L 650.47861 75.971404 
L 648.613636 75.971404 
L 648.613636 76.18572 
L 646.5 76.18572 
L 646.5 76.386641 
L 643.534493 76.386641 
L 643.534493 84.329716 
L 641.297203 84.329716 
L 641.297203 84.85211 
L 640.577922 84.85211 
L 640.577922 86.305439 
L 634.202479 86.305439 
L 634.202479 86.673794 
L 631.199954 86.673794 
L 631.199954 94.697237 
L 630.379416 94.697237 
L 630.379416 95.989828 
L 628.651515 95.989828 
L 628.555659 99.867603 
L 626.921053 99.867603 
L 626.921053 100.376602 
L 623.954545 100.376602 
L 623.954545 100.677984 
L 621.332981 100.677984 
L 621.332981 100.96597 
L 619.445455 100.96597 
L 619.445455 101.300839 
L 613.57177 101.407997 
L 613.57177 101.916996 
L 611.492234 101.916996 
L 611.492234 103.249772 
L 607.850649 103.249772 
L 607.850649 103.343535 
L 607.850649 104.656219 
L 603.409091 104.656219 
L 603.409091 108.808585 
L 602.276224 108.808585 
L 602.276224 108.982716 
L 601.409091 108.982716 
L 601.409091 109.284098 
L 599.024476 109.284098 
L 599.024476 111.373676 
L 595.772727 111.373676 
L 595.772727 111.454044 
L 595.772727 111.695149 
L 590.799465 111.695149 
L 590.799465 112.264425 
L 589.543062 112.264425 
L 589.543062 112.900675 
L 588.173733 112.900675 
L 588.086777 123.703525 
L 586.378788 123.703525 
L 586.378788 124.42684 
L 585.204545 124.42684 
L 585.204545 124.641156 
L 584.139015 124.641156 
L 584.139015 135.2029 
L 581.681818 135.2029 
L 581.681818 137.131741 
L 578.863636 137.131741 
L 578.863636 137.232202 
L 578.863636 137.801478 
L 576.343027 137.801478 
L 576.343027 138.879754 
L 566.619122 138.879754 
L 566.619122 139.656648 
L 565.028926 139.656648 
L 565.028926 139.951332 
L 563.68761 139.951332 
L 563.68761 149.622327 
L 562.630909 149.709393 
L 562.630909 156.406758 
L 562.440185 156.406758 
L 562.440185 158.971849 
L 561.113441 158.971849 
L 561.113441 162.876412 
L 559.538961 162.876412 
L 559.538961 164.00157 
L 557.504785 164.00157 
L 557.504785 164.637819 
L 555.146989 164.637819 
L 555.146989 165.669213 
L 553.914315 165.669213 
L 553.914315 188.219241 
L 553.5 188.219241 
L 553.5 188.326399 
L 553.5 188.594294 
L 551.607191 188.594294 
L 551.607191 189.491741 
L 551.350539 189.491741 
L 551.350539 195.023764 
L 549.577788 195.023764 
L 549.577788 195.673409 
L 549.169623 195.673409 
L 549.169623 197.046368 
L 548.80303 197.046368 
L 548.80303 197.227197 
L 547.335227 197.227197 
L 547.335227 204.942562 
L 545.045455 204.942562 
L 545.045455 205.143483 
L 543.142798 205.143483 
L 543.142798 208.833731 
L 541.971074 208.833731 
L 541.971074 208.907402 
L 541.971074 209.054744 
L 539.409091 209.054744 
L 539.409091 209.295849 
L 531.605189 209.295849 
L 531.605189 219.187857 
L 531.120321 219.187857 
L 531.120321 219.415567 
L 528.136364 219.415567 
L 528.136364 220.085304 
L 522.393654 220.085304 
L 522.393654 221.505145 
L 521.795455 221.505145 
L 521.795455 221.719461 
L 518.200094 221.719461 
L 518.114886 225.657512 
L 517.608062 225.657512 
L 517.528797 229.60226 
L 516.959168 229.60226 
L 516.959168 229.997404 
L 513.367664 229.997404 
L 513.367664 231.055588 
L 511.227273 231.055588 
L 511.227273 231.156048 
L 511.227273 232.723232 
L 509.746184 232.723232 
L 509.746184 246.486317 
L 507.510989 246.486317 
L 507.510989 247.095777 
L 505.943182 247.095777 
L 505.943182 247.524408 
L 504.107656 247.524408 
L 504.107656 248.796908 
L 502.443329 248.796908 
L 502.443329 249.828302 
L 502.020431 249.828302 
L 502.020431 296.569212 
L 501.326726 296.569212 
L 501.326726 300.915802 
L 500.821678 300.915802 
L 500.821678 302.657117 
L 499.149351 302.657117 
L 499.149351 302.844643 
L 497.7 302.844643 
L 497.7 303.012077 
L 497.535701 303.012077 
L 497.535701 304.666326 
L 496.65047 304.666326 
L 496.65047 305.443221 
L 495.05336 305.443221 
L 495.05336 306.983614 
L 494.104143 306.983614 
L 494.104143 307.512706 
L 493.42823 307.512706 
L 493.42823 307.767206 
L 489.267414 307.767206 
L 489.171937 310.131376 
L 482.445841 310.218442 
L 482.445841 311.16277 
L 481.820158 311.16277 
L 481.820158 311.31681 
L 480.483471 311.31681 
L 480.483471 312.421875 
L 480.201418 312.421875 
L 480.201418 313.151888 
L 479.680461 313.151888 
L 479.680461 316.741675 
L 479.019481 316.741675 
L 479.019481 318.007477 
L 477.409091 318.007477 
L 477.409091 318.074451 
L 477.409091 318.342345 
L 477.116715 318.342345 
L 477.116715 320.666331 
L 476.091499 320.666331 
L 476.091499 321.182028 
L 475.250484 321.182028 
L 475.250484 321.496804 
L 471.849938 321.496804 
L 471.849938 322.47462 
L 467.263636 322.47462 
L 467.263636 323.144356 
L 462.915584 323.144356 
L 462.915584 323.238119 
L 462.915584 323.613172 
L 456.681818 323.613172 
L 456.681818 324.236027 
L 454.347994 324.236027 
L 454.347994 333.752982 
L 453.253247 333.752982 
L 453.253247 335.159429 
L 452.045455 335.159429 
L 452.045455 335.427324 
L 451.833333 335.427324 
L 451.833333 352.244407 
L 448.478693 352.244407 
L 448.478693 362.53156 
L 445.502891 362.53156 
L 445.502891 389.06652 
L 445.240576 389.06652 
L 445.240576 389.341112 
L 440.0311 389.341112 
L 440.0311 389.595611 
L 439.688811 389.595611 
L 439.673436 408.683102 
L 437.954545 408.683102 
L 437.954545 409.888627 
L 435.006863 409.888627 
L 435.006863 412.949323 
L 432.580338 412.949323 
L 432.580338 413.23731 
L 432.402939 413.23731 
L 432.3692 479.239842 
L 426.681818 479.239842 
L 426.681818 479.32021 
L 426.681818 479.722052 
L 424.882979 479.722052 
L 424.882979 480.66638 
L 422.070248 480.66638 
L 422.070248 481.403091 
L 414.603896 481.403091 
L 414.603896 481.543735 
L 411.762032 481.543735 
L 411.762032 481.771446 
L 410.211924 481.771446 
L 410.211924 482.80284 
L 402.085584 482.889906 
L 402.085584 491.522809 
L 401.318182 491.522809 
L 401.318182 491.790704 
L 400.800557 491.790704 
L 400.800557 492.118875 
L 398.5 492.118875 
L 398.5 492.179151 
L 398.5 492.299703 
L 386.633971 492.393466 
L 386.633971 492.520716 
L 384.236549 492.520716 
L 384.236549 494.161571 
L 375.954545 494.161571 
L 375.954545 494.262031 
L 375.954545 494.329005 
L 367.320116 494.329005 
L 367.320116 494.643781 
L 357.508264 494.643781 
L 357.508264 495.012136 
L 342.136364 495.012136 
L 342.136364 495.092505 
L 342.136364 495.253241 
L 317.980519 495.253241 
L 317.980519 495.347004 
L 317.980519 495.440768 
L 313.954545 495.440768 
L 313.954545 495.681873 
L 312.982759 495.681873 
L 312.982759 501.120133 
L 299.863636 501.220594 
L 299.863636 501.434909 
L 285.772727 501.495185 
L 285.772727 501.495185 
L 285.772727 501.555462 
L 173.045455 501.642528 
L 173.045455 501.66262 
L 173.045455 504 
L 173.045455 504 
" style="fill:none;stroke:#9467bd;stroke-linecap:round;stroke-width:2.25;"/>
   </g>
   <g id="line2d_16">
    <path clip-path="url(#p1dee31be7b)" d="M 933.954545 69.12 
L 933.954545 69.146789 
L 870.545455 69.213763 
L 870.545455 69.320921 
L 849.409091 69.320921 
L 849.409091 69.421381 
L 849.409091 69.441474 
L 781.772727 69.548631 
L 781.772727 69.582118 
L 752.785714 69.582118 
L 752.785714 69.769644 
L 719.339161 69.843315 
L 719.339161 69.930381 
L 707.016746 69.930381 
L 707.016746 70.057631 
L 699.106061 70.057631 
L 699.106061 71.323433 
L 680.318182 71.323433 
L 680.318182 71.350223 
L 680.318182 72.609327 
L 661.530303 72.609327 
L 661.530303 72.790156 
L 650.47861 72.790156 
L 650.47861 72.904011 
L 638.045455 72.904011 
L 638.045455 73.064748 
L 629.590909 73.064748 
L 629.590909 73.198695 
L 625.688811 73.198695 
L 625.688811 73.634024 
L 616.909091 73.634024 
L 616.909091 73.84834 
L 612.681818 73.84834 
L 612.681818 74.049261 
L 607.850649 74.049261 
L 607.850649 74.096142 
L 607.850649 74.236787 
L 606.394016 74.236787 
L 606.394016 75.569562 
L 604.227273 75.569562 
L 604.227273 75.837457 
L 600.222488 75.837457 
L 600.222488 75.964707 
L 597.738901 75.964707 
L 597.738901 76.252694 
L 594.77472 76.252694 
L 594.77472 84.195769 
L 589.149351 84.195769 
L 589.149351 85.649097 
L 582.586739 85.649097 
L 582.586739 86.37911 
L 580.675325 86.37911 
L 580.675325 87.129214 
L 579.541129 87.129214 
L 579.541129 95.152658 
L 578.863636 95.152658 
L 578.863636 95.219631 
L 578.863636 95.788907 
L 576.984848 95.788907 
L 576.984848 98.682169 
L 567.590909 98.682169 
L 567.590909 98.923274 
L 566.440631 98.923274 
L 566.440631 99.907787 
L 560.624617 99.994853 
L 560.624617 100.590918 
L 560.174641 100.590918 
L 560.174641 101.099918 
L 557.504785 101.099918 
L 557.504785 101.736167 
L 553.5 101.736167 
L 553.5 102.539851 
L 549.977273 102.539851 
L 549.977273 104.468692 
L 549.409091 104.468692 
L 549.409091 108.621059 
L 541.971074 108.621059 
L 541.971074 108.69473 
L 541.971074 108.915743 
L 539.409091 108.915743 
L 539.409091 109.639058 
L 538.281818 109.639058 
L 538.281818 109.806492 
L 534.608794 109.806492 
L 534.608794 120.462 
L 533.476077 120.462 
L 533.476077 120.971 
L 531.634796 120.971 
L 531.634796 121.747894 
L 530.501884 121.747894 
L 530.501884 123.040485 
L 528.136364 123.040485 
L 528.136364 123.174433 
L 523.021819 123.174433 
L 523.021819 133.736177 
L 519.184492 133.736177 
L 519.184492 134.305453 
L 518.913223 134.305453 
L 518.913223 134.894821 
L 517.266234 134.894821 
L 517.266234 135.269874 
L 515.619244 135.269874 
L 515.619244 136.301268 
L 514.947273 136.301268 
L 514.947273 142.998633 
L 514.787081 142.998633 
L 514.759198 146.199974 
L 511.227273 146.199974 
L 511.227273 146.300434 
L 511.227273 147.747065 
L 504.325603 147.747065 
L 504.325603 148.731577 
L 498.952071 148.731577 
L 498.952071 152.421826 
L 498.465695 152.421826 
L 498.465695 153.131746 
L 493.245049 153.131746 
L 493.245049 157.03631 
L 490.090909 157.03631 
L 490.090909 157.357784 
L 488.681818 157.357784 
L 488.681818 157.659165 
L 488.465035 157.659165 
L 488.465035 159.748743 
L 487.682969 159.748743 
L 487.682969 160.806927 
L 487.554545 160.806927 
L 487.554545 161.476663 
L 486.822399 161.476663 
L 486.822399 162.126307 
L 485.213287 162.126307 
L 485.213287 162.387505 
L 483.79606 162.387505 
L 483.79606 167.919528 
L 483.466079 167.919528 
L 483.466079 168.816975 
L 483.045455 168.816975 
L 483.045455 169.05808 
L 481.820158 169.05808 
L 481.820158 170.290395 
L 479.522727 170.290395 
L 479.522727 178.00576 
L 478.67376 178.00576 
L 478.67376 187.676755 
L 477.409091 187.676755 
L 477.409091 187.743728 
L 477.409091 189.485043 
L 475.872357 189.485043 
L 475.872357 212.035071 
L 474.93459 212.035071 
L 474.93459 213.408031 
L 474.537736 213.408031 
L 474.537736 214.827872 
L 473.651515 214.827872 
L 473.651515 215.008701 
L 471.441176 215.008701 
L 471.441176 215.122556 
L 469.604895 215.122556 
L 469.604895 216.863871 
L 468.954545 216.863871 
L 468.954545 217.024608 
L 467.723857 217.024608 
L 467.723857 226.916616 
L 466.457786 226.916616 
L 466.457786 230.205022 
L 462.915584 230.205022 
L 462.915584 230.298786 
L 462.915584 231.377061 
L 461.666144 231.377061 
L 461.666144 232.153956 
L 458.714568 232.153956 
L 458.714568 235.388783 
L 458.401792 235.388783 
L 458.401792 249.151868 
L 457.547619 249.151868 
L 457.547619 250.41767 
L 457.118182 250.41767 
L 457.118182 250.585104 
L 455.444705 250.585104 
L 455.444705 251.234748 
L 452.278148 251.234748 
L 452.278148 251.964761 
L 449.739669 251.964761 
L 449.739669 252.038432 
L 449.739669 252.185774 
L 448.246043 252.185774 
L 448.176425 254.235168 
L 445.061265 254.235168 
L 445.049937 260.430231 
L 443.590909 260.430231 
L 443.590909 260.530691 
L 443.590909 260.832072 
L 441.40065 260.832072 
L 441.40065 307.572983 
L 440.0311 307.572983 
L 440.0311 307.700233 
L 437.10523 307.700233 
L 437.10523 308.678048 
L 430.336521 308.678048 
L 430.336521 311.002033 
L 426.681818 311.002033 
L 426.681818 311.109191 
L 426.681818 311.67177 
L 425.144628 311.67177 
L 425.144628 312.776835 
L 423.387839 312.776835 
L 423.387839 313.808229 
L 417.935737 313.808229 
L 417.935737 323.325185 
L 417.687621 323.325185 
L 417.687621 324.269513 
L 416.536364 324.269513 
L 416.536364 324.93925 
L 414.603896 324.93925 
L 414.603896 325.079895 
L 413.432157 325.079895 
L 413.432157 328.669682 
L 411.762032 328.669682 
L 411.762032 328.897393 
L 411.243083 328.897393 
L 411.243083 330.437787 
L 410.829545 330.437787 
L 410.829545 330.866418 
L 410.492263 330.866418 
L 410.492263 331.181194 
L 409.772727 331.181194 
L 409.772727 332.38672 
L 407.171329 332.38672 
L 407.171329 332.473786 
L 407.171329 332.560851 
L 404.941558 332.560851 
L 404.941558 333.967298 
L 404.156566 333.967298 
L 404.156566 350.784381 
L 403.623967 350.784381 
L 403.623967 351.815776 
L 403.507572 351.815776 
L 403.507572 378.350736 
L 403.296905 378.350736 
L 403.296905 379.295064 
L 402.136364 379.295064 
L 402.136364 379.917919 
L 401.318182 379.917919 
L 401.318182 380.185814 
L 398.5 380.185814 
L 398.5 380.24609 
L 398.5 380.366643 
L 394.502579 380.366643 
L 394.502579 397.364555 
L 390.448052 397.364555 
L 390.448052 397.458318 
L 390.448052 397.552081 
L 387.660839 397.552081 
L 387.660839 399.641659 
L 386.633971 399.641659 
L 386.633971 400.150659 
L 385.617877 400.150659 
L 385.617877 465.262441 
L 383.088068 465.262441 
L 383.088068 475.549594 
L 379.00581 475.549594 
L 379.00581 476.440343 
L 378.523015 476.440343 
L 378.523015 476.969435 
L 377.286553 476.969435 
L 377.286553 480.030131 
L 375.954545 480.030131 
L 375.954545 480.130591 
L 375.954545 481.135196 
L 370.684179 481.135196 
L 370.684179 482.16659 
L 363.51869 482.16659 
L 363.51869 490.799494 
L 359.390538 490.906651 
L 359.390538 491.234822 
L 350.590909 491.234822 
L 350.590909 491.502717 
L 346.260532 491.502717 
L 346.260532 491.777309 
L 345.734043 491.777309 
L 345.734043 492.092085 
L 342.136364 492.092085 
L 342.136364 492.172453 
L 342.136364 492.212638 
L 339.061983 492.212638 
L 339.061983 492.580993 
L 338.204017 492.580993 
L 338.204017 492.868979 
L 330.403525 492.868979 
L 330.403525 494.509834 
L 325.227273 494.509834 
L 325.227273 494.643781 
L 317.980519 494.643781 
L 317.980519 494.737544 
L 317.980519 494.92507 
L 299.863636 494.92507 
L 299.863636 495.032228 
L 299.863636 495.139386 
L 299.238916 495.139386 
L 299.238916 500.577646 
L 292.403743 500.577646 
L 292.403743 500.691502 
L 285.772727 500.691502 
L 285.772727 501.113436 
L 173.045455 501.213896 
L 173.045455 504 
L 173.045455 504 
" style="fill:none;stroke:#d62728;stroke-linecap:round;stroke-width:2.25;"/>
   </g>
   <g id="line2d_17">
    <path clip-path="url(#p1dee31be7b)" d="M 883.227273 69.12 
L 883.227273 69.186974 
L 849.409091 69.294131 
L 849.409091 69.394592 
L 743.727273 69.47496 
L 743.727273 69.582118 
L 707.016746 69.655789 
L 707.016746 69.783039 
L 704.474026 69.783039 
L 704.474026 69.923684 
L 699.106061 69.923684 
L 699.106061 71.189486 
L 680.318182 71.189486 
L 680.318182 71.202881 
L 680.318182 72.301248 
L 661.530303 72.301248 
L 661.530303 72.482077 
L 653.619617 72.482077 
L 653.619617 72.609327 
L 650.47861 72.609327 
L 650.47861 72.723182 
L 646.5 72.723182 
L 646.5 72.924103 
L 638.045455 73.011169 
L 638.045455 73.171906 
L 629.590909 73.245577 
L 629.590909 73.379524 
L 625.688811 73.379524 
L 625.688811 73.814853 
L 616.909091 73.814853 
L 616.909091 74.029169 
L 607.850649 74.029169 
L 607.850649 74.122932 
L 607.850649 74.310458 
L 601.295797 74.310458 
L 601.295797 75.643233 
L 597.738901 75.643233 
L 597.738901 75.93122 
L 591.352982 75.93122 
L 591.352982 83.874295 
L 584.474026 83.874295 
L 584.474026 85.327623 
L 582.586739 85.327623 
L 582.586739 86.057636 
L 580.675325 86.057636 
L 580.675325 86.807741 
L 579.333333 86.807741 
L 579.333333 89.701003 
L 578.863636 89.701003 
L 578.863636 89.734489 
L 578.863636 90.504686 
L 578.694263 90.504686 
L 578.694263 98.52813 
L 568.184211 98.52813 
L 568.184211 99.164379 
L 567.590909 99.164379 
L 567.590909 99.405484 
L 559.538961 99.49255 
L 559.538961 100.477063 
L 553.5 100.477063 
L 553.5 100.584221 
L 553.5 101.066431 
L 549.977273 101.066431 
L 549.977273 102.995272 
L 546.136364 102.995272 
L 546.136364 107.147638 
L 541.971074 107.147638 
L 541.971074 107.663335 
L 539.409091 107.663335 
L 539.409091 108.386651 
L 538.281818 108.386651 
L 538.281818 108.721519 
L 537.825843 108.721519 
L 537.825843 109.317585 
L 535.383117 109.317585 
L 535.383117 109.692637 
L 533.476077 109.692637 
L 533.476077 110.201637 
L 531.634796 110.201637 
L 531.634796 110.978531 
L 530.501884 110.978531 
L 530.501884 112.271123 
L 530.145049 112.271123 
L 530.145049 122.92663 
L 528.136364 122.92663 
L 528.136364 123.060578 
L 526.238514 123.060578 
L 526.238514 133.622322 
L 521.795455 133.622322 
L 521.795455 133.836638 
L 520.126794 133.836638 
L 520.126794 134.345638 
L 519.184492 134.345638 
L 519.184492 134.914914 
L 518.913223 134.914914 
L 518.913223 135.209598 
L 514.787081 135.209598 
L 514.787081 135.845847 
L 511.227273 135.845847 
L 511.227273 135.865939 
L 511.227273 137.734504 
L 508.158472 137.734504 
L 508.158472 141.424752 
L 507.740862 141.424752 
L 507.740862 142.074397 
L 506.812366 142.074397 
L 506.812366 144.639487 
L 502.772727 144.639487 
L 502.772727 144.907382 
L 502.443329 144.907382 
L 502.443329 145.938776 
L 500.743636 145.938776 
L 500.743636 152.636141 
L 499.149351 152.636141 
L 499.149351 152.823667 
L 497.423933 152.823667 
L 497.423933 153.80818 
L 494.968531 153.80818 
L 494.968531 155.897758 
L 494.104143 155.897758 
L 494.104143 156.955942 
L 493.42823 156.955942 
L 493.42823 157.083192 
L 493.245049 157.083192 
L 493.245049 160.987755 
L 491.037313 160.987755 
L 491.037313 161.885202 
L 490.090909 161.885202 
L 490.090909 162.099518 
L 487.104885 162.099518 
L 487.104885 171.770513 
L 485.213287 171.770513 
L 485.213287 172.03171 
L 483.045455 172.03171 
L 483.045455 172.272815 
L 481.820158 172.272815 
L 481.820158 172.426855 
L 480.693482 172.426855 
L 480.693482 194.976883 
L 480.403409 194.976883 
L 480.403409 202.692247 
L 479.883592 202.692247 
L 479.883592 204.065207 
L 479.323328 204.065207 
L 479.323328 204.775128 
L 477.409091 204.775128 
L 477.409091 207.3871 
L 475.518634 207.3871 
L 475.518634 208.465376 
L 474.064436 208.465376 
L 474.064436 209.074836 
L 471.441176 209.074836 
L 471.441176 209.302546 
L 470.412226 209.302546 
L 470.412226 210.079441 
L 469.752144 210.079441 
L 469.752144 211.499282 
L 468.954545 211.499282 
L 468.954545 211.660019 
L 467.723857 211.660019 
L 467.723857 221.552027 
L 465.016093 221.552027 
L 465.016093 224.786854 
L 462.915584 224.786854 
L 462.915584 230.740812 
L 462.325218 230.740812 
L 462.325218 234.029218 
L 457.547619 234.029218 
L 457.547619 235.29502 
L 457.118182 235.29502 
L 457.118182 235.462454 
L 456.427007 235.462454 
L 456.427007 249.225539 
L 456.050239 249.225539 
L 456.050239 250.498038 
L 455.444705 250.498038 
L 455.444705 251.147683 
L 452.278148 251.147683 
L 452.278148 251.877695 
L 451.302914 251.877695 
L 451.302914 256.224285 
L 449.739669 256.224285 
L 449.739669 256.371627 
L 448.176425 256.371627 
L 448.176425 256.766772 
L 446.972727 256.766772 
L 446.972727 257.436508 
L 445.061265 257.436508 
L 445.061265 259.284981 
L 444.138572 259.284981 
L 444.054172 261.917046 
L 443.590909 261.917046 
L 443.590909 262.419348 
L 440.964536 262.419348 
L 440.964536 309.160258 
L 436.563754 309.160258 
L 436.563754 309.675955 
L 433.260283 309.675955 
L 433.260283 311.999941 
L 426.681818 311.999941 
L 426.681818 312.107099 
L 426.681818 312.750046 
L 425.144628 312.750046 
L 425.144628 313.855111 
L 424.882979 313.855111 
L 424.882979 314.799439 
L 424.476285 314.799439 
L 424.476285 316.339833 
L 423.387839 316.339833 
L 423.387839 316.85553 
L 419.363668 316.85553 
L 419.363668 326.372486 
L 411.762032 326.372486 
L 411.762032 326.486341 
L 411.539349 326.486341 
L 411.539349 330.076129 
L 410.829545 330.076129 
L 410.829545 330.50476 
L 410.492263 330.50476 
L 410.492263 330.819536 
L 409.772727 330.819536 
L 409.772727 333.431509 
L 407.171329 333.431509 
L 407.171329 333.518575 
L 407.171329 333.60564 
L 403.623967 333.60564 
L 403.623967 334.637034 
L 402.136364 334.637034 
L 402.136364 335.259889 
L 401.971158 335.259889 
L 401.890294 362.685599 
L 401.328283 362.685599 
L 401.318182 379.770577 
L 398.5 379.770577 
L 398.5 379.830853 
L 398.5 380.192511 
L 396.501289 380.192511 
L 396.501289 397.190423 
L 396.101547 397.190423 
L 396.101547 398.134752 
L 390.448052 398.134752 
L 390.448052 398.228515 
L 390.448052 398.322278 
L 386.633971 398.322278 
L 386.633971 398.831278 
L 384.783032 398.831278 
L 384.783032 463.94306 
L 384.409091 463.94306 
L 384.409091 466.032638 
L 383.74858 466.032638 
L 383.74858 476.319791 
L 378.523015 476.319791 
L 378.523015 476.848882 
L 377.272137 476.848882 
L 377.272137 477.880277 
L 375.954545 477.880277 
L 375.954545 477.94725 
L 375.954545 478.148171 
L 375.066541 478.148171 
L 375.066541 481.208867 
L 366.731405 481.208867 
L 366.731405 481.945577 
L 366.292208 481.945577 
L 366.292208 482.086222 
L 365.092849 482.086222 
L 365.092849 490.719125 
L 359.390538 490.826283 
L 359.390538 491.154454 
L 350.590909 491.228125 
L 350.590909 491.49602 
L 346.260532 491.49602 
L 346.260532 491.770612 
L 345.734043 491.770612 
L 345.734043 492.085388 
L 342.826531 492.085388 
L 342.826531 493.726242 
L 342.136364 493.726242 
L 342.136364 493.806611 
L 342.136364 493.846795 
L 339.061983 493.846795 
L 339.061983 494.21515 
L 338.204017 494.21515 
L 338.204017 494.503136 
L 325.227273 494.503136 
L 325.227273 494.637084 
L 317.980519 494.637084 
L 317.980519 494.730847 
L 317.980519 494.871492 
L 299.863636 494.871492 
L 299.863636 494.978649 
L 299.863636 495.085807 
L 295.490596 495.085807 
L 295.490596 500.524068 
L 292.403743 500.524068 
L 292.403743 500.637923 
L 285.772727 500.637923 
L 285.772727 500.698199 
L 285.772727 501.120133 
L 173.045455 501.220594 
L 173.045455 504 
L 173.045455 504 
" style="fill:none;stroke:#2ca02c;stroke-linecap:round;stroke-width:2.25;"/>
   </g>
   <g id="line2d_18">
    <path clip-path="url(#p1dee31be7b)" d="M 849.409091 69.12 
L 849.409091 69.140092 
L 726.433884 69.24725 
L 726.433884 69.320921 
L 680.318182 69.320921 
L 680.318182 69.428079 
L 680.318182 69.816526 
L 656.162338 69.816526 
L 656.162338 69.957171 
L 653.619617 69.957171 
L 653.619617 70.084421 
L 650.47861 70.084421 
L 650.47861 70.198276 
L 629.322511 70.285342 
L 629.322511 71.551143 
L 607.850649 71.658301 
L 607.850649 71.892709 
L 595.772727 71.892709 
L 595.772727 72.053446 
L 578.863636 72.053446 
L 578.863636 72.723182 
L 553.5 72.723182 
L 553.5 72.83034 
L 553.5 72.991077 
L 550.313614 72.991077 
L 550.313614 74.323853 
L 548.80303 74.323853 
L 548.80303 74.504681 
L 545.355713 74.504681 
L 545.355713 75.234694 
L 535.383117 75.234694 
L 535.383117 75.328457 
L 535.383117 76.172325 
L 528.136364 76.172325 
L 528.136364 76.44022 
L 521.795455 76.44022 
L 521.795455 76.654536 
L 516.43007 76.654536 
L 516.43007 77.089864 
L 514.344156 77.089864 
L 514.344156 78.543193 
L 511.227273 78.543193 
L 511.227273 78.643653 
L 511.227273 79.467429 
L 508.878788 79.467429 
L 508.878788 82.360691 
L 507.520389 82.360691 
L 507.520389 90.303765 
L 497.7 90.303765 
L 497.7 90.4712 
L 493.42823 90.4712 
L 493.42823 90.598449 
L 485.213287 90.705607 
L 485.213287 90.879739 
L 483.377005 90.879739 
L 483.377005 91.449015 
L 483.045455 91.449015 
L 482.998406 99.713563 
L 477.409091 99.713563 
L 477.409091 99.780537 
L 477.409091 99.981458 
L 472.069378 99.981458 
L 472.069378 100.617707 
L 471.441176 100.617707 
L 471.441176 100.731563 
L 468.954545 100.731563 
L 468.954545 102.660404 
L 462.915584 102.660404 
L 462.915584 102.941693 
L 461.666144 102.941693 
L 461.666144 103.718587 
L 460.638164 103.718587 
L 460.638164 114.374095 
L 457.118182 114.374095 
L 457.118182 114.541529 
L 456.174419 114.541529 
L 456.136364 118.981882 
L 456.013915 118.981882 
L 456.013915 119.966395 
L 454.863636 119.966395 
L 454.863636 120.2075 
L 449.739669 120.2075 
L 449.739669 120.649526 
L 446.630746 120.649526 
L 446.630746 121.245592 
L 443.590909 121.245592 
L 443.590909 121.446513 
L 436.075758 121.446513 
L 436.075758 122.169828 
L 434.526242 122.169828 
L 434.526242 122.819472 
L 430.624352 122.819472 
L 430.624352 124.112064 
L 429.992998 124.112064 
L 429.992998 126.677155 
L 429.469031 126.677155 
L 429.469031 127.286615 
L 426.681818 127.286615 
L 426.681818 127.340194 
L 426.681818 129.322614 
L 425.300858 129.322614 
L 425.300858 133.012862 
L 418.800917 133.012862 
L 418.800917 143.574606 
L 418.672249 143.574606 
L 418.672249 144.210856 
L 416.536364 144.210856 
L 416.536364 144.37829 
L 414.603896 144.37829 
L 414.603896 144.518935 
L 413.607779 144.518935 
L 413.607779 145.168579 
L 411.762032 145.168579 
L 411.762032 145.282435 
L 410.628884 145.282435 
L 410.628884 146.340618 
L 408.42 146.340618 
L 408.42 153.037983 
L 407.539451 153.037983 
L 407.539451 154.457825 
L 407.171329 154.457825 
L 407.171329 154.54489 
L 407.171329 154.631956 
L 405.739366 154.631956 
L 405.739366 155.361969 
L 403.623967 155.361969 
L 403.623967 156.540705 
L 402.65311 156.540705 
L 402.65311 157.813204 
L 401.502421 157.813204 
L 401.502421 163.345228 
L 400.699557 163.345228 
L 400.699557 164.718188 
L 399.367133 164.718188 
L 399.367133 166.459503 
L 398.5 166.459503 
L 398.5 166.760884 
L 396.689781 166.760884 
L 396.689781 180.523969 
L 396.245455 180.523969 
L 396.245455 181.193706 
L 394.977273 181.193706 
L 394.977273 181.408021 
L 394.137845 181.408021 
L 394.137845 184.696427 
L 393.898887 184.696427 
L 393.898887 185.68094 
L 393.598814 185.68094 
L 393.598814 186.913255 
L 393.182676 186.913255 
L 393.182676 187.623176 
L 391.899636 187.623176 
L 391.899636 191.969766 
L 387.051136 192.063529 
L 387.051136 199.778893 
L 386.670124 199.778893 
L 386.633971 210.179901 
L 385.351707 210.179901 
L 385.351707 214.084465 
L 382.571146 214.084465 
L 382.571146 215.932938 
L 382.396104 215.932938 
L 382.396104 217.19874 
L 381.513699 217.19874 
L 381.513699 218.176555 
L 380.566116 218.176555 
L 380.566116 218.471239 
L 380.310627 218.471239 
L 380.310627 228.142234 
L 377.905594 228.142234 
L 377.905594 230.231812 
L 377.468792 230.231812 
L 377.468792 231.129259 
L 375.954545 231.129259 
L 375.954545 231.162746 
L 375.954545 232.334784 
L 374.785041 232.334784 
L 374.785041 234.65877 
L 374.515474 234.65877 
L 374.515474 235.603099 
L 373.423455 235.603099 
L 373.423455 258.153126 
L 370.684179 258.153126 
L 370.684179 258.668824 
L 370.318182 258.668824 
L 370.318182 258.909929 
L 370.204085 258.909929 
L 370.168773 307.305088 
L 366.292208 307.305088 
L 366.292208 307.586377 
L 365.459248 307.586377 
L 365.459248 308.363272 
L 363.657025 308.363272 
L 363.657025 309.468337 
L 363.272727 309.468337 
L 363.272727 310.111284 
L 362.197997 310.111284 
L 362.091191 313.741256 
L 360.104504 313.741256 
L 360.104504 323.258211 
L 359.935407 323.258211 
L 359.935407 323.512711 
L 358.5 323.512711 
L 358.5 324.135566 
L 357.508264 324.135566 
L 357.508264 324.282908 
L 355.663636 324.282908 
L 355.663636 324.952645 
L 352.082888 324.952645 
L 352.082888 325.0665 
L 350.920307 325.0665 
L 350.920307 326.097894 
L 344.332349 326.097894 
L 344.332349 326.613591 
L 342.136364 326.613591 
L 342.136364 326.69396 
L 342.136364 326.774328 
L 339.914141 326.774328 
L 339.914141 343.591411 
L 338.466041 343.591411 
L 338.466041 370.126371 
L 336.5 370.126371 
L 336.5 371.331897 
L 335.827001 371.331897 
L 335.827001 374.921685 
L 333.236842 374.921685 
L 333.236842 376.066934 
L 331.343327 376.066934 
L 331.343327 377.011263 
L 329.129371 377.011263 
L 329.129371 377.098328 
L 329.129371 377.185394 
L 324.147969 377.185394 
L 324.147969 377.50017 
L 322.811688 377.50017 
L 322.811688 378.906617 
L 322.625874 378.906617 
L 322.625874 380.996195 
L 317.980519 380.996195 
L 317.980519 381.089958 
L 317.980519 381.46501 
L 317.352353 381.46501 
L 317.352353 398.462923 
L 314.609937 398.462923 
L 314.609937 398.750909 
L 313.734375 398.750909 
L 313.734375 409.038062 
L 313.612491 409.038062 
L 313.612491 474.149844 
L 308.318182 474.149844 
L 308.318182 474.250305 
L 308.318182 474.350765 
L 306.538278 474.350765 
L 306.538278 474.859765 
L 305.37747 474.859765 
L 305.274808 485.033062 
L 304.804604 485.033062 
L 304.804604 486.064457 
L 302.561896 486.064457 
L 302.561896 486.379233 
L 299.863636 486.379233 
L 299.863636 486.486391 
L 299.863636 486.968601 
L 299.586135 486.968601 
L 299.586135 490.029297 
L 297.27551 490.029297 
L 297.27551 490.357468 
L 296.77051 490.357468 
L 296.77051 490.63206 
L 293.134508 490.63206 
L 293.134508 492.272914 
L 292.403743 492.272914 
L 292.403743 492.386769 
L 285.772727 492.386769 
L 285.772727 492.447045 
L 285.772727 492.627874 
L 279.839713 492.627874 
L 279.839713 492.755124 
L 274.5 492.755124 
L 274.5 492.822098 
L 274.5 493.558808 
L 274.250112 493.558808 
L 274.250112 498.997068 
L 265.27686 498.997068 
L 265.27686 499.439094 
L 262.941887 499.439094 
L 262.941887 499.968186 
L 257.590909 499.968186 
L 257.590909 500.370028 
L 223.772727 500.470489 
L 223.772727 500.604436 
L 173.045455 500.604436 
L 173.045455 500.711594 
L 173.045455 504 
L 173.045455 504 
" style="fill:none;stroke:#ff7f0e;stroke-linecap:round;stroke-width:2.25;"/>
   </g>
   <g id="line2d_19">
    <path clip-path="url(#p1dee31be7b)" d="M 680.318182 69.12 
L 680.318182 69.200368 
L 607.850649 69.307526 
L 607.850649 69.448171 
L 553.5 69.515145 
L 553.5 69.622302 
L 493.42823 69.682579 
L 493.42823 69.809829 
L 407.171329 69.863408 
L 407.171329 69.950473 
L 375.954545 69.950473 
L 375.954545 70.050934 
L 375.954545 70.084421 
L 366.292208 70.084421 
L 366.292208 70.225065 
L 342.136364 70.332223 
L 342.136364 70.372407 
L 284.533966 70.472868 
L 284.533966 71.082328 
L 274.5 71.082328 
L 274.5 71.149302 
L 274.5 71.216275 
L 251.087413 71.216275 
L 251.087413 71.390407 
L 236.454545 71.490867 
L 236.454545 71.812341 
L 226.442584 71.812341 
L 226.442584 71.939591 
L 223.772727 71.939591 
L 223.772727 72.341433 
L 219.161157 72.341433 
L 219.161157 72.488775 
L 213.627273 72.488775 
L 213.627273 72.656209 
L 207.243616 72.656209 
L 207.243616 73.252274 
L 206.863636 73.252274 
L 206.863636 73.453195 
L 201.227273 73.453195 
L 201.227273 73.935405 
L 199.744019 73.935405 
L 199.744019 74.444405 
L 194.631528 74.444405 
L 194.631528 74.759181 
L 192.697667 74.759181 
L 192.697667 80.291205 
L 191.833333 80.291205 
L 191.833333 81.01452 
L 191.162338 81.01452 
L 191.162338 81.389573 
L 190.904752 81.389573 
L 190.904752 91.281581 
L 188.897727 91.281581 
L 188.897727 91.710212 
L 188.653846 91.710212 
L 188.653846 92.145541 
L 183.954545 92.145541 
L 183.954545 92.768396 
L 183.72488 92.768396 
L 183.72488 94.040895 
L 183.504686 94.040895 
L 183.504686 94.690539 
L 183.190909 94.690539 
L 183.190909 95.360276 
L 182.424919 95.360276 
L 182.424919 99.706866 
L 182.251856 99.706866 
L 182.251856 103.397114 
L 182.103896 103.397114 
L 182.103896 104.147219 
L 181.791536 104.147219 
L 181.791536 104.924113 
L 181.260397 104.924113 
L 181.260397 106.578362 
L 180.84965 106.578362 
L 180.84965 108.319677 
L 180.616689 108.319677 
L 180.616689 111.909465 
L 179.947124 111.909465 
L 179.947124 112.893977 
L 179.633412 112.893977 
L 179.633412 113.925372 
L 178.385167 113.925372 
L 178.385167 115.197871 
L 177.720779 115.197871 
L 177.720779 116.651199 
L 177.246471 116.651199 
L 177.178023 124.815287 
L 176.721344 124.815287 
L 176.721344 126.66376 
L 176.525885 126.66376 
L 176.525885 130.568324 
L 175.694398 130.568324 
L 175.586053 151.812365 
L 175.393939 151.812365 
L 175.393939 154.705627 
L 175.265466 154.705627 
L 175.265466 157.766323 
L 175.153236 157.766323 
L 175.153236 167.437318 
L 175.026989 167.437318 
L 175.020239 191.487555 
L 174.661616 191.487555 
L 174.644538 255.045549 
L 174.473386 255.045549 
L 174.402078 329.674287 
L 174.332132 329.674287 
L 174.332132 340.236032 
L 174.069731 340.236032 
L 174.06 373.468357 
L 173.926136 373.468357 
L 173.832534 397.759699 
L 173.445197 397.759699 
L 173.445197 414.757612 
L 173.045455 414.757612 
L 173.045455 414.851375 
L 173.045455 504 
L 173.045455 504 
" style="fill:none;stroke:#1f77b4;stroke-linecap:round;stroke-width:2.25;"/>
   </g>
   <g id="line2d_20">
    <path clip-path="url(#p1dee31be7b)" d="M 223.772727 504 
L 223.772727 69.12 
" style="fill:none;stroke:#ff0000;stroke-dasharray:11.1,4.8;stroke-dashoffset:0;stroke-width:3;"/>
   </g>
   <g id="patch_3">
    <path d="M 135 504 
L 135 69.12 
" style="fill:none;stroke:#cccccc;stroke-linecap:square;stroke-linejoin:miter;stroke-width:1.875;"/>
   </g>
   <g id="patch_4">
    <path d="M 972 504 
L 972 69.12 
" style="fill:none;stroke:#cccccc;stroke-linecap:square;stroke-linejoin:miter;stroke-width:1.875;"/>
   </g>
   <g id="patch_5">
    <path d="M 135 504 
L 972 504 
" style="fill:none;stroke:#cccccc;stroke-linecap:square;stroke-linejoin:miter;stroke-width:1.875;"/>
   </g>
   <g id="patch_6">
    <path d="M 135 69.12 
L 972 69.12 
" style="fill:none;stroke:#cccccc;stroke-linecap:square;stroke-linejoin:miter;stroke-width:1.875;"/>
   </g>
   <g id="legend_1">
    <g id="patch_7">
     <path d="M 849.846563 495.75 
L 960.45 495.75 
Q 963.75 495.75 963.75 492.45 
L 963.75 347.334844 
Q 963.75 344.034844 960.45 344.034844 
L 849.846563 344.034844 
Q 846.546563 344.034844 846.546563 347.334844 
L 846.546563 492.45 
Q 846.546563 495.75 849.846563 495.75 
z
" style="fill:#ffffff;opacity:0.8;stroke:#cccccc;stroke-linejoin:miter;stroke-width:1.5;"/>
    </g>
    <g id="text_17">
     <!-- Experiment -->
     <g style="fill:#262626;" transform="translate(853.146563 364.312031)scale(0.18 -0.18)">
      <defs>
       <path d="M 628 4666 
L 3578 4666 
L 3578 4134 
L 1259 4134 
L 1259 2753 
L 3481 2753 
L 3481 2222 
L 1259 2222 
L 1259 531 
L 3634 531 
L 3634 0 
L 628 0 
L 628 4666 
z
" id="DejaVuSans-45" transform="scale(0.015625)"/>
       <path d="M 3513 3500 
L 2247 1797 
L 3578 0 
L 2900 0 
L 1881 1375 
L 863 0 
L 184 0 
L 1544 1831 
L 300 3500 
L 978 3500 
L 1906 2253 
L 2834 3500 
L 3513 3500 
z
" id="DejaVuSans-78" transform="scale(0.015625)"/>
       <path d="M 3328 2828 
Q 3544 3216 3844 3400 
Q 4144 3584 4550 3584 
Q 5097 3584 5394 3201 
Q 5691 2819 5691 2113 
L 5691 0 
L 5113 0 
L 5113 2094 
Q 5113 2597 4934 2840 
Q 4756 3084 4391 3084 
Q 3944 3084 3684 2787 
Q 3425 2491 3425 1978 
L 3425 0 
L 2847 0 
L 2847 2094 
Q 2847 2600 2669 2842 
Q 2491 3084 2119 3084 
Q 1678 3084 1418 2786 
Q 1159 2488 1159 1978 
L 1159 0 
L 581 0 
L 581 3500 
L 1159 3500 
L 1159 2956 
Q 1356 3278 1631 3431 
Q 1906 3584 2284 3584 
Q 2666 3584 2933 3390 
Q 3200 3197 3328 2828 
z
" id="DejaVuSans-6d" transform="scale(0.015625)"/>
      </defs>
      <use xlink:href="#DejaVuSans-45"/>
      <use x="63.183594" xlink:href="#DejaVuSans-78"/>
      <use x="122.363281" xlink:href="#DejaVuSans-70"/>
      <use x="185.839844" xlink:href="#DejaVuSans-65"/>
      <use x="247.363281" xlink:href="#DejaVuSans-72"/>
      <use x="288.476562" xlink:href="#DejaVuSans-69"/>
      <use x="316.259766" xlink:href="#DejaVuSans-6d"/>
      <use x="413.671875" xlink:href="#DejaVuSans-65"/>
      <use x="475.195312" xlink:href="#DejaVuSans-6e"/>
      <use x="538.574219" xlink:href="#DejaVuSans-74"/>
     </g>
    </g>
    <g id="line2d_21">
     <path d="M 854.615742 383.067891 
L 887.615742 383.067891 
" style="fill:none;stroke:#9467bd;stroke-linecap:round;stroke-width:2.25;"/>
    </g>
    <g id="line2d_22"/>
    <g id="text_18">
     <!-- k = 10 -->
     <g style="fill:#262626;" transform="translate(900.815742 388.842891)scale(0.165 -0.165)">
      <defs>
       <path d="M 581 4863 
L 1159 4863 
L 1159 1991 
L 2875 3500 
L 3609 3500 
L 1753 1863 
L 3688 0 
L 2938 0 
L 1159 1709 
L 1159 0 
L 581 0 
L 581 4863 
z
" id="DejaVuSans-6b" transform="scale(0.015625)"/>
       <path d="M 678 2906 
L 4684 2906 
L 4684 2381 
L 678 2381 
L 678 2906 
z
M 678 1631 
L 4684 1631 
L 4684 1100 
L 678 1100 
L 678 1631 
z
" id="DejaVuSans-3d" transform="scale(0.015625)"/>
      </defs>
      <use xlink:href="#DejaVuSans-6b"/>
      <use x="57.910156" xlink:href="#DejaVuSans-20"/>
      <use x="89.697266" xlink:href="#DejaVuSans-3d"/>
      <use x="173.486328" xlink:href="#DejaVuSans-20"/>
      <use x="205.273438" xlink:href="#DejaVuSans-31"/>
      <use x="268.896484" xlink:href="#DejaVuSans-30"/>
     </g>
    </g>
    <g id="line2d_23">
     <path d="M 854.615742 407.286797 
L 887.615742 407.286797 
" style="fill:none;stroke:#d62728;stroke-linecap:round;stroke-width:2.25;"/>
    </g>
    <g id="line2d_24"/>
    <g id="text_19">
     <!-- k = 8 -->
     <g style="fill:#262626;" transform="translate(900.815742 413.061797)scale(0.165 -0.165)">
      <use xlink:href="#DejaVuSans-6b"/>
      <use x="57.910156" xlink:href="#DejaVuSans-20"/>
      <use x="89.697266" xlink:href="#DejaVuSans-3d"/>
      <use x="173.486328" xlink:href="#DejaVuSans-20"/>
      <use x="205.273438" xlink:href="#DejaVuSans-38"/>
     </g>
    </g>
    <g id="line2d_25">
     <path d="M 854.615742 431.505703 
L 887.615742 431.505703 
" style="fill:none;stroke:#2ca02c;stroke-linecap:round;stroke-width:2.25;"/>
    </g>
    <g id="line2d_26"/>
    <g id="text_20">
     <!-- k = 6 -->
     <g style="fill:#262626;" transform="translate(900.815742 437.280703)scale(0.165 -0.165)">
      <use xlink:href="#DejaVuSans-6b"/>
      <use x="57.910156" xlink:href="#DejaVuSans-20"/>
      <use x="89.697266" xlink:href="#DejaVuSans-3d"/>
      <use x="173.486328" xlink:href="#DejaVuSans-20"/>
      <use x="205.273438" xlink:href="#DejaVuSans-36"/>
     </g>
    </g>
    <g id="line2d_27">
     <path d="M 854.615742 455.724609 
L 887.615742 455.724609 
" style="fill:none;stroke:#ff7f0e;stroke-linecap:round;stroke-width:2.25;"/>
    </g>
    <g id="line2d_28"/>
    <g id="text_21">
     <!-- k = 4 -->
     <g style="fill:#262626;" transform="translate(900.815742 461.499609)scale(0.165 -0.165)">
      <use xlink:href="#DejaVuSans-6b"/>
      <use x="57.910156" xlink:href="#DejaVuSans-20"/>
      <use x="89.697266" xlink:href="#DejaVuSans-3d"/>
      <use x="173.486328" xlink:href="#DejaVuSans-20"/>
      <use x="205.273438" xlink:href="#DejaVuSans-34"/>
     </g>
    </g>
    <g id="line2d_29">
     <path d="M 854.615742 479.943516 
L 887.615742 479.943516 
" style="fill:none;stroke:#1f77b4;stroke-linecap:round;stroke-width:2.25;"/>
    </g>
    <g id="line2d_30"/>
    <g id="text_22">
     <!-- k = 2 -->
     <g style="fill:#262626;" transform="translate(900.815742 485.718516)scale(0.165 -0.165)">
      <use xlink:href="#DejaVuSans-6b"/>
      <use x="57.910156" xlink:href="#DejaVuSans-20"/>
      <use x="89.697266" xlink:href="#DejaVuSans-3d"/>
      <use x="173.486328" xlink:href="#DejaVuSans-20"/>
      <use x="205.273438" xlink:href="#DejaVuSans-32"/>
     </g>
    </g>
   </g>
  </g>
 </g>
 <defs>
  <clipPath id="p1dee31be7b">
   <rect height="434.88" width="837" x="135" y="69.12"/>
  </clipPath>
 </defs>
</svg>
